/* XPM */
static char *result[] = {
/* columns rows colors chars-per-pixel */
"80 80 221 2 ",
"   c #010101",
".  c #0B0C0D",
"X  c #04070B",
"o  c #050613",
"O  c #0A0714",
"+  c #0C0A16",
"@  c #060B1B",
"#  c #0D0C1A",
"$  c #06061A",
"%  c #100E1A",
"&  c #0C1315",
"*  c #101113",
"=  c #12121C",
"-  c #171B1B",
";  c #1A1B1C",
":  c #06110D",
">  c #0D211E",
",  c #3F2113",
"<  c #0A0D24",
"1  c #040B2C",
"2  c #090C26",
"3  c #0D1222",
"4  c #07102D",
"5  c #0C122B",
"6  c #0C1B20",
"7  c #131422",
"8  c #191C23",
"9  c #1A1D2C",
"0  c #151927",
"q  c #050D31",
"w  c #061132",
"e  c #0D1533",
"r  c #0E1836",
"t  c #0B163D",
"y  c #101733",
"u  c #121A34",
"i  c #1A1E34",
"p  c #121A3B",
"a  c #141B38",
"s  c #231E32",
"d  c #1E222C",
"f  c #1D2226",
"g  c #1C2335",
"h  c #1C233C",
"j  c #1F2A3B",
"k  c #192536",
"l  c #14302C",
"z  c #242524",
"x  c #222A2B",
"c  c #2A2B2D",
"v  c #21252B",
"b  c #212434",
"n  c #232B36",
"m  c #2A2B34",
"M  c #242B3A",
"N  c #292C3D",
"B  c #222739",
"V  c #372A32",
"C  c #263233",
"Z  c #293532",
"A  c #2D3936",
"S  c #243039",
"D  c #2C343D",
"F  c #2E393B",
"G  c #333333",
"H  c #32343A",
"J  c #323D3B",
"K  c #393839",
"L  c #2C302E",
"P  c #432514",
"I  c #492A16",
"U  c #4D2D19",
"Y  c #452A17",
"T  c #4A321A",
"R  c #57361C",
"E  c #502F1A",
"W  c #4C3429",
"Q  c #443B34",
"!  c #483B34",
"~  c #523732",
"^  c #653A29",
"/  c #1C413D",
"(  c #35413E",
")  c #3B443B",
"_  c #454834",
"`  c #5A4836",
"'  c #535031",
"]  c #6C4424",
"[  c #79492A",
"{  c #674433",
"}  c #625834",
"|  c #795A39",
" . c #724E2D",
".. c #5C6338",
"X. c #666B39",
"o. c #776733",
"O. c #70763B",
"+. c #0D1A45",
"@. c #141F45",
"#. c #151F48",
"$. c #162045",
"%. c #1B2441",
"&. c #17224B",
"*. c #19234D",
"=. c #1F2841",
"-. c #1A2552",
";. c #1C2956",
":. c #1E2A59",
">. c #1C3D41",
",. c #2A2C43",
"<. c #212844",
"1. c #2D3244",
"2. c #2B344D",
"3. c #323545",
"4. c #323649",
"5. c #343B4C",
"6. c #393B4B",
"7. c #3A3945",
"8. c #213857",
"9. c #363F51",
"0. c #253D64",
"q. c #473F44",
"w. c #364240",
"e. c #384541",
"r. c #3A464D",
"t. c #374155",
"y. c #3B4454",
"u. c #3E4559",
"i. c #275451",
"p. c #2C605C",
"a. c #35716F",
"s. c #2E5A6E",
"d. c #434242",
"f. c #4C4D43",
"g. c #45454B",
"h. c #4D4B4D",
"j. c #4C4445",
"k. c #4F5047",
"l. c #54534F",
"z. c #5C5C4C",
"x. c #424D5D",
"c. c #454954",
"v. c #545354",
"b. c #5D5A5B",
"n. c #57555A",
"m. c #5E4D44",
"M. c #795D42",
"N. c #725A41",
"B. c #615E5E",
"V. c #6C5642",
"C. c #67664E",
"Z. c #7D7A58",
"A. c #706050",
"S. c #454F61",
"D. c #465162",
"F. c #4A5566",
"G. c #545767",
"H. c #646164",
"J. c #6E6A6B",
"K. c #6A6667",
"L. c #716D6C",
"P. c #75706E",
"I. c #6C7078",
"U. c #757172",
"Y. c #7A7675",
"T. c #7D7877",
"R. c #7E7A79",
"E. c #62677C",
"W. c #92572D",
"Q. c #89502B",
"!. c #856438",
"~. c #966936",
"^. c #8A7938",
"/. c #97743B",
"(. c #9B642E",
"). c #AB7E3C",
"_. c #AE7033",
"`. c #AC7F40",
"'. c #837D7C",
"]. c #926E42",
"[. c #3C807A",
"{. c #778042",
"}. c #8B8A39",
"|. c #938B36",
" X c #B1833E",
".X c #D2AA3E",
"XX c #E0CE3F",
"oX c #CDCA3E",
"OX c #949342",
"+X c #918C5E",
"@X c #87864D",
"#X c #A29441",
"$X c #989573",
"%X c #ACA56A",
"&X c #C69040",
"*X c #ECB540",
"=X c #C5BB70",
"-X c #CCC27A",
";X c #F9D741",
":X c #3C7486",
">X c #499A94",
",X c #42868E",
"<X c #55B0AF",
"1X c #8E8E90",
"2X c #B6B393",
"3X c #A9ACB5",
"4X c #E5DA8E",
"5X c #F7ED90",
"6X c #D5D0AB",
"7X c #F1E9A8",
"8X c #FFFFB2",
"9X c #C3C4C7",
"0X c #D8D8D2",
"qX c #FCF9C7",
"wX c #E8E6D9",
"eX c #F9F5DD",
"rX c #FFFFE1",
"tX c #FCFCF2",
"yX c #FFFFFF",
"uX c #E5E6E7",
"iX c None",
/* pixels */
"iXiXiXiXiXiXiXiXiXiXiXiXiXiXiXiXiXiXiXiXiXiXiXiXiXiXiXiXiXiXiXiXiXiXiXiXiXiXiXiXiXiXiXiXiXiXiXiXiXiXiXiXiXiXiXiXiXiXiXiXiXiXiXiXiXiXiXiXiXiXiXiXiXiXiXiXiXiXiXiX",
"iXiXiXiXiXiXiXiXiXiXiXiXiXiXiXiXiXiXiXiXiXiXiXiXiXiXiXiXiXiXiXiXiXiXiXiXiXiXiXiXiXiXiXiXiXiXiXiXiXiXiXiXiXiXiXiXiXiXiXiXiXiXiXiXiXiXiXiXiXiXiXiXiXiXiXiXiXiXiXiX",
"iXiXiXiXiXiXiXiXiXiXiXiXiXiXiXiXiXiXiXiXiXiXiXiXiXiXiXiXiXiXiXiXiXiXiXiXiXiXiXiXiXiXiXiXiXiXiXiXiXiXiXiXiXiXiXiXiXiXiXiXiXiXiXiXiXiXiXiXiXiXiXiXiXiXiXiXiXiXiXiX",
"iXiXiXiXiXiXiXiXiXiXiXiXiXiXiXiXiXiXiXiXiXiXiXiXiXiXiXiXiXiXiXiXiXiXiXiXiXiXiXiXiXiXiXiXiXiXiXiXiXiXiXiXiXiXiXiXiXiXiXiXiXiXiXiXiXiXiXiXiXiXiXiXiXiXiXiXiXiXiXiX",
"iXiXiXiXiXiXiXiXiXiXiXiXiXiXiXiXiXiXiXiXiXiXiXiXiXiXiXiXiXiXiXiXiXiXiXiXiXiXiXiXiXiXiXiXiXiXiXiXiXiXiXiXiXiXiXiXiXiXiXiXiXiXiXiXiXiXiXiXiXiXiXiXiXiXiXiXiXiXiXiX",
"iXiXiXiXiXiXiXiXiXiXiXiXiXiXiXiXiXiXiXiXiXiXiXiXiXiX@.@.@.&.*.;.;.;.;.;.;.*.#.$.@.@.@.@.#.@.$.iXiXiXiXiXiXiXiXiXiXiXiXiXiXiXiXiXiXiXiXiXiXiXiXiXiXiXiXiXiXiXiXiX",
"iXiXiXiXiXiXiXiXiXiXiXiXiXiXiXiXiXiXiXiXiXiXiXiXiX&.#.$.#.&.-.;.;.;.;.;.-.*.$.@.@.@.@.@.@.@.@.iXiXiXiXiXiXiXiXiXiXiXiXiXiXiXiXiXiXiXiXiXiXiXiXiXiXiXiXiXiXiXiXiX",
"iXiXiXiXiXiXiXiXiXiXiXiXiXiXiXiXiXiXiXiXiXiXiXiX&.&.*.*.*.-.;.;.;.;.;.-.*.&.$.@.@.@.@.p p @.iXiXiXiXiXiXiXiXiXiXiXiXiXiXiXiXiXiXiXiXiXiXiXiXiXiXiXiXiXiXiXiXiXiX",
"iXiXiXiXiXiXiXiXiXiXiXiXiXiXiXiXiXiXiXiXiXiXiX@.&.-.-.;.;.-.:.-.;.;.-.&.$.@.$.@.@.@.p r r iXiXiXiXiXiXiXiXiXiXiXiXiXiXiXiXiXiXiXiXiXiXiXiXiXiXiXiXiXiXiXiXiXiXiX",
"iXiXiXiXiXiXiXiXiXiXiXiXiXiXiXiXiXiXiXiXiXiX&.*.*.;.:.:.:.:.-.-.;.-.*.&.@.@.@.@.@.p r r e iXiXiXiXiXiXiXiXiXiXiXiXiXiXiXiXiXiXiXiXiXiXiXiXiXiXiXiXiXiXiXiXiXiXiX",
"iXiXiXiXiXiXiXiXiXiXiXiXiXiXiXiXiXiXiXiXiX@.*.-.;.;.:.:.:.;.*.&.&.&.&.@.@.@.@.@.p u r e e iXiXiXiXiXiXiXiXP P iXiXiXiXiXiXiXiXiXiXiXiXiXiXiXiXiXiXiXiXiXiXiXiXiX",
"iXiXiXiXiXiXiXiXiXiXiXiXiXiXiXiXiXiXiXiX#.&.&.&.*.*.*.*.*.&.$.@.@.@.@.@.@.@.@.@.r e e e e iXiXiXiXiXiXiXY I I iXiXiXiXiXiXiXiXiXiXiXiXiXiXiXiXiXiXiXiXiXiXiXiXiX",
"iXiXiXiXiXiXiXiXiXiXiXiXiXiXiXiXiXiXiXiX-.#.e 2 @ 5 5 @ @ 1 p $.$.@.$.@.@.@.@.p p e e e iXiXiXiXiXiXiXY T R R U iXiXiXiXiXiXiXiXiXiXiXiXiXiXiXiXiXiXiXiXiXiXiXiX",
"iXiXiXiXiXiXiXiXiXiXiXiXiXiXiXiXiXiXiXiX:.#.e o X       X @ e @.$.@.@.@.@.$.@.+.r e e iXiXiXiXiXiXiXY I R ] ] T Y iXiXiXiXiXiXiXiXiXiXiXiXiXiXiXiXiXiXiXiXiXiXiX",
"iXiXiXiXiXiXiXiXiXiXiXiXiXiXiXiXiXiXiXiX;.;.i.i.l : X > / / k e p @.@.#.@.@.p p r e iXiXiXiXiXiXiXI U R ] Q.[ R Y iXiXiXiXiXiXiXiXiXiXiXiXiXiXiXiXiXiXiXiXiXiXiX",
"iXiXiXiXiXiXiXiXiXiXiXiXiXiXiXiXiXiXiXiX-.0.:X>X[.l : i.>X,X>.& 2 p #.@.@.@.r r r e iXiXiXiXP , P E R ] W.(.(.[ iXiXiXiXiXiXiXiXiXiXiXiXiXiXiXiXiXiXiXiXiXiXiXiX",
"iXiXiXiXiXiXiXiXiXiXiXiXiXiXiXiXiXiXiXiX-.0.,X<X>Xl & a.<X>X/ X $ p #.#.@.+.r y 5 e k iXiXR T T P E ^ ] W._._.iXiXiXiXiXiXiXiXiXiXiXiXiXiXiXiXiXiXiXiXiXiXiXiXiX",
"iXiXiXiXiXiXiXiXiXiXiXiXiXiXiXiXiXiXiXiX-.8.s.:Xp.> : / a.p.>   $ @.#.#.@.p r q e k ) {.}.o.} R U P E ] [ _.iXiXiXiXiXiXiXiXiXiXiXiXiXiXiXiXiXiXiXiXiXiXiXiXiXiX",
"iXiXiXiXiXiXiXiXiXiXiXiXiXiXiXiXiXiXiXiX:.*.%.6 :     X & :     $ p #.#.@.y y e e k f.@X|.OX}.} T , P I R iXiXiXiXiXiXiXiXiXiXiXiXiXiXiXiXiXiXiXiXiXiXiXiXiXiXiX",
"iXiXiXiXiXiXiXiXiXiXiXiXiXiXiXiXiXiXiXiX:.*.4                   o 5 r p p p e e w g } }.#X#X}.o.' T Y P iXiXiXiXiXiXiXiXiXiXiXiXiXiXiXiXiXiXiXiXiXiXiXiXiXiXiXiX",
"iXiXiXiXiXiXiXiXiXiXiXiXiXiXiXiXiXiXiXiX:.*.5                     X $ e t y y q w i ^ ~.). XOXO.} ' _ iXiXiXiXiXiXiXiXiXiXiXiXiXiXiXiXiXiXiXiXiXiXiXiXiXiXiXiXiX",
"iXiXiXiXiXiXiXiXiXiXiXiXiXiXiXiXiXiXiXiX:.-.5 X                     o < y t e y u V ^ Q.(.@X{.{.X...iXiXiXiXiXiXiXiXiXiXiXiXiXiXiXiXiXiXiXiXiXiXiXiXiXiXiXiXiXiX",
"iXiXiXiXiXiXiXiXiXiXiXiXiXiXiXiXiXiXiX;.;.-.@.5 @           X o o o @ < y q q s ~ ^ ^ ^ ^ ` ....X.X.iXiXiXiXiXiXiXiXiXiXiXiXiXiXiXiXiXiXiXiXiXiXiXiXiXiXiXiXiXiX",
"iXiXiXiXiXiXiXiXiXiXiXiXiXiXiXiXiXiX;.;.;.;.;.*.e o       X @ 4 e 5 5 e t q y ~ ^ Q.^ V i i B _ ....iXiXiXiXiXiXiXiXiXiXiXiXiXiXiXiXiXiXiXiXiXiXiXiXiXiXiXiXiXiX",
"iXiXiXiXiXiXiXiXiXiXiXiXiXiXiXiXiX;.;.;.;.;.:.:.%.5 o o o $ 4 e r e e e e m ! { Q.[ W a q q y Z _ _ iXiXiXiXiXiXiXiXiXiXiXiXiXiXiXiXiXiXiXiXiXiXiXiXiXiXiXiXiXiX",
"iXiXiXiXiXiXiXiXiXiXiXiXiXiXiXiX;.;.;.;.;.;.:.:.-.$.p r e 5 e e r e t q i ` ~.!.{ V s e w w e g S b g e e e e w e e w e e 5 iXiXiXiXiXiXiXiXiXiXiXiXiXiXiXiXiXiX",
"iXiXiXiXiXiXiXiXiXiXiXiXiXiXiX;.;.;.;.;.;.;.-.-.-.;.-.*.@.@.r r e e u i K | `.~.! y w e e e e 5 e e e y e y u i g g h a g i h iXiXiXiXiXiXiXiXiXiXiXiXiXiXiXiXiX",
"iXiXiXiXiXiXiXiXiXiXiXiXiXiXiX;.;.;.;.;.:.:.-.*.*.-.*.*.$.@.@.p t t N ` | !.| ` n e 4 3 5 7 7 < 3 = 3 7 0 g n ,.7.y.c.c.6.3.6.h.iXiXiXiXiXiXiXiXiXiXiXiXiXiXiXiX",
"iXiXiXiXiXiXiXiXiXiXiXiXiXiXiX;.;.;.;.;.;.-.-.&.$.&.@.&.@.@.$.@.@.#.q.].`.| G i r 5 3 = * * * * & & + * ; c K g.v.H.L.K.b.v.v.n.z.iXiXiXiXiXiXiXiXiXiXiXiXiXiXiX",
"iXiXiXiXiXiXiXiXiXiXiXiXiXiXiX;.;.;.;.;.-.-.&.@.@.$.@.@.@.+.+.&.3.q.N././.` i q w e 3 * * * * * & * * * ; z G _ l.B.K.J.K.H.H.H.B.B.iXiXiXiXiXiXiXiXiXiXiXiXiXiX",
"iXiXiXiXiXiXiXiXiXiXiXiXiXiXiX;.;.;.;.;.*.$.$.@.@.@.@.@.+.+.+.=.m.~.].o.` G y w e e 3 * * * * * * * * * * ; z G K _ j.v.K.Y.Y.P.J.H.b.iXiXiXiXiXiXiXiXiXiXiXiXiX",
"iXiXiXiXiXiXiXiXiXiXiXiXiXiXiX;.;.;.;.-.*.%.$.$.@.@.$.=.,.,.<.7.M.`._.} G n h i u 5 7 * * & * * * * * * + % ; v m m m d.b.U.T.'.P.H.n.iXiXiXiXiXiXiXiXiXiXiXiXiX",
"iXiXiXiXiXiXiXiXiXiXiXiXiXiXiX:.:.-.:.-.#.@.@.@.#.#.<.q.V.M.| | !.!.| ` r.g.c.6.b 7 # 3 3 3 3 3 3 3 3 3 3 3 7 9 d d d N 6.n.K.R.'.K.iXiXiXiXiXiXiXiXiXiXiXiXiXiX",
"iXiXiXiXiXiXiXiXiXiXiXiXiXiXiX:.:.:.-.-.#.@.@.@.+.+.,.V.#X&X&X X!.` Q j.n.H.J.n.G = 3 5 e e 5 e e e 5 e 5 e e e y e e u a 1.F.U.'.iXiXiXiXiXiXiXiXiXiXiXiXiXiXiX",
"iXiXiXiXiXiXiXiXiXiXiXiXiXiXiX:.-.:.:.*.#.#.@.@.+.+.,.M.&X*X*X*X^.Q m g.b.P.R.H.G = < e r e r e e e r e e e e e e e e w e a 6.G.H.iXiXiXiXiXiXiXiXiXiXiXiXiXiXiX",
"iXiXiXiXiXiXiXiXiXiXiXiXiXiXiX;.:.:.:.*.#.#.@.#.+.+.,.M.&X*XXXXX|._ G g.b.P.R.H.3.5 5 e e e e e e e w q q e r e e e e e e y B ,.4.iXiXiXiXiXiXiXiXiXiXiXiXiXiXiX",
"iXiXiXiXiXiXiXiXiXiXiXiXiXiXiX;.-.-.:.*.*.#.#.#.#.#.q.[  X.XXXoX|._ K h.B.P.T.H.4.e w e e e e e e a m m h y e e e e e e e e e e e iXiXiXiXiXiXiXiXiXiXiXiXiXiXiX",
"iXiXiXiXiXiXiXiXiXiXiXiXiXiXiX:.:.:.:.-.#.#.#.#.,.~ { [ !.^.|.}.X.f.h.B.L.T.R.H.4.r e e e e e q 4 F C.Z.f.i 1 q e e e e e e e e e iXiXiXiXiXiXiXiXiXiXiXiXiXiXiX",
"iXiXiXiXiXiXiXiXiXiXiXiXiXiXiX;.:.:.-.-.#.#.#.#.7.Q.W.^ ~ K _ _ f.l.G.P.Y.R.R.H.4.e w e e e y w u z.%X-X+XD w e e e e e e e e e r iXiXiXiXiXiXiXiXiXiXiXiXiXiXiX",
"iXiXiXiXiXiXiXiXiXiXiXiXiXiXiX;.-.-.:.-.#.#.+.-.V ^ Q.V.Q H H K h.B.J.T.R.1X'.H.4.y 5 e e w p 8.G.1X6X7X2XI.u.$.e q e e e e e e e iXiXiXiXiXiXiXiXiXiXiXiXiXiXiX",
"iXiXiXiXiXiXiXiXiXiXiXiXiXiXiX;.:.:.-.-.<.#.#.#.,.! ~ ` j.g.j.h.B.L.T.'.'.1XY.H.4.y e e 4 1 %.I.3X0XeXeXwX9X1Xu.e 1 e e e e e e y iXiXiXiXiXiXiXiXiXiXiXiXiXiXiX",
"iXiXiXiXiXiXiXiXiXiXiXiXiXiXiX;.:.-.:.-.#.#.@.@.i m G j.v.n.B.B.J.T.T.Y.Y.Y.L.G.,.y w e y k c.1XuXyXyXyXyXyX9XI.D y r e e e e e e iXiXiXiXiXiXiXiXiXiXiXiXiXiXiX",
"iXiXiXiXiXiXiXiXiXiXiXiXiXiXiX;.:.:.-.-.#.@.@.@.@.n G g.v.H.K.P.'.'.Y.H.v.v.c.6.B e q r 3.C.$X6XtXyXyXyXyXyXwX2XZ.f.g e e e e e e iXiXiXiXiXiXiXiXiXiXiXiXiXiXiX",
"iXiXiXiXiXiXiXiXiXiXiXiXiXiXiX;.-.:.:.*.#.@.@.@.h n G _ v.B.L.Y.'.'.K.k.K N B a u e q y h.%X4XqXtXyXyXyXyXyXeX7X-XZ.N q e e r e y iXiXiXiXiXiXiXiXiXiXiXiXiXiXiX",
"iXiXiXiXiXiXiXiXiXiXiXiXiXiXiX;.;.;.:.-.#.#.#.#.h g c G Q f.b.C.B.B.l.Q c 9 5 e e e q y z.=X5XqXtXyXyXyXyXyXeX8X4X+XD 1 1 e e e e iXiXiXiXiXiXiXiXiXiXiXiXiXiXiX",
"iXiXiXiXiXiXiXiXiXiXiXiXiXiXiX;.-.:.:.-.#.#.@.@.a 8 ; ; c c L G G G G L c 9 e e e e q u z.=X7XqXtXyXyXyXyXyXeX8X-X+X3.q w e e r e iXiXiXiXiXiXiXiXiXiXiXiXiXiXiX",
"iXiXiXiXiXiXiXiXiXiXiXiXiXiXiX;.:.:.;.<.*.@.@.@.p 7 * * % * * * * * ; c c b y e e e q y h.%X4XqXtXyXyXyXyXyXeX5X-X+XN q e e e e r iXiXiXiXiXiXiXiXiXiXiXiXiXiXiX",
"iXiXiXiXiXiXiXiXiXiXiXiXiXiXiX:.-.;.;.*.*.@.@.@.u = . . . . . : . . * z c g y e e e q r H C.$X6XtXyXyXyXyXyXwX2X'...g w e e e e y iXiXiXiXiXiXiXiXiXiXiXiXiXiXiX",
"iXiXiXiXiXiXiXiXiXiXiXiXiXiXiX;.:.;.;.-.&.$.+.$.u 3 * & : * * * * . - c c d e e e e e e u g D.1XuXyXyXyXyXyX9XI.1.u r e e e e e e iXiXiXiXiXiXiXiXiXiXiXiXiXiXiX",
"iXiXiXiXiXiXiXiXiXiXiXiXiXiXiX;.-.:.;.-.&.$.$.@.k 0 ; - - - - - - - z c A g u e e e e e 5 1 =.E.3X0XeXeXwX9X1Xt.q q e e e r e e e iXiXiXiXiXiXiXiXiXiXiXiXiXiXiX",
"iXiXiXiXiXiXiXiXiXiXiXiXiXiXiX;.:.;.;.-.&.$.+.$.h d x x x x x x z x C A H n e e e e e e e q p 2.G.1X6X7X2XE.u.%.e q e e e e e e y iXiXiXiXiXiXiXiXiXiXiXiXiXiXiX",
"iXiXiXiXiXiXiXiXiXiXiXiXiXiXiX;.-.:.;.-.&.$.$.$.%.n Z Z Z Z Z Z Z Z A ( J S k e e e e e e e e w 9 l.%X-X+X1.w e e e e e e e e e e iXiXiXiXiXiXiXiXiXiXiXiXiXiXiX",
"iXiXiXiXiXiXiXiXiXiXiXiXiXiXiX;.-.:.:.-.&.@.@.$.%.S Z Z Z / Z Z Z Z A ( ( A j k r e e e e e e 1 4 A C.Z.k.i 1 4 e y e e e e e e e iXiXiXiXiXiXiXiXiXiXiXiXiXiXiX",
"iXiXiXiXiXiXiXiXiXiXiXiXiXiXiX;.:.-.-.-.&.$.@.+.h S Z Z Z Z Z Z Z Z A ( ( A C d u e r e e e e e e a B N g e e e e e e e e e r e e iXiXiXiXiXiXiXiXiXiXiXiXiXiXiX",
"iXiXiXiXiXiXiXiXiXiXiXiXiXiXiX;.:.:.-.-.&.$.%.%.j S Z Z Z Z A Z Z Z A ( ( J F Z j k u e e e e e e 5 e q e e e e e r e e e e e e r iXiXiXiXiXiXiXiXiXiXiXiXiXiXiX",
"iXiXiXiXiXiXiXiXiXiXiXiXiXiXiX;.-.:.:.-.&.$.j M S Z Z Z Z Z ) ( ) ( ( A A A ( J F D g u e e e e e e e q e e e e e e e e e e e e y iXiXiXiXiXiXiXiXiXiXiXiXiXiXiX",
"iXiXiXiXiXiXiXiXiXiXiXiXiXiXiX:.;.;.;.-.#.@.j C Z Z Z Z Z Z J H ( ( J Z Z A ( ) e.( j u e e e e r e e e e e e r e e e e e r e e e iXiXiXiXiXiXiXiXiXiXiXiXiXiXiX",
"iXiXiXiXiXiXiXiXiXiXiXiXiXiXiX:.:.;.;.-.&.$.j C Z Z Z Z Z C x c x f x Z Z ( ( e.e.J M r e e e e e e y e e e e y e e y e e e e e y iXiXiXiXiXiXiXiXiXiXiXiXiXiXiX",
"iXiXiXiXiXiXiXiXiXiXiXiXiXiXiX;.;.;.;.-.&.%.j C Z Z Z Z Z x 8 % & = 8 x Z A ( e.e.( M u e e e e e e e e e e e e e e e e e e e e e iXiXiXiXiXiXiXiXiXiXiXiXiXiXiX",
"iXiXiXiXiXiXiXiXiXiXiXiXiXiXiX;.;.;.;.-.&.$.j C Z Z Z A A x 7 + O + = d A ( ( e.e.( j u 5 e e e e e e e e e e e e e e e e e e e e iXiXiXiXiXiXiXiXiXiXiXiXiXiXiX",
"iXiXiXiXiXiXiXiXiXiXiXiXiXiXiX;.;.;.;.-.&.$.j Z Z Z Z ( J Z 8 + O + = x Z ( ( ( w.w.j e e e e e e e e e e e e e e e e e y e e e e iXiXiXiXiXiXiXiXiXiXiXiXiXiXiX",
"iXiXiXiXiXiXiXiXiXiXiXiXiXiXiX;.;.-.-.;.&.%.j C Z Z Z Z J m 8 + O # = d C J ( ) w.( S k y e e e e e e e e e e e e e e e e e e e r iXiXiXiXiXiXiXiXiXiXiXiXiXiXiX",
"iXiXiXiXiXiXiXiXiXiXiXiXiXiXiX;.;.-.-.&.#.$.j C Z Z Z L x 8 = + O + = - d C ( e.e.w.F S g u e e e e e e y e e e e e e y e e e r y iXiXiXiXiXiXiXiXiXiXiXiXiXiXiX",
"iXiXiXiXiXiXiXiXiXiXiXiXiXiXiX;.;.*.&.$.+.%.l Z Z Z Z f = % # + + # + @ - x J e.e.w.w.7.S g e r e e e y e e e e r e e e e e e e y iXiXiXiXiXiXiXiXiXiXiXiXiXiXiX",
"iXiXiXiXiXiXiXiXiXiXiXiXiXiXiX:.;.*.#.@.%.j S A A A C f & O + + + # O O % v A ( ) ( e.e.D k e e e e e e e e r e e e e e e e e e y iXiXiXiXiXiXiXiXiXiXiXiXiXiXiX",
"iXiXiXiXiXiXiXiXiXiXiXiXiXiXiX:.;.*.@.%.M S F F ( ( A d = O + + + + + O % 8 Z J ( e.) ( D k r e e e e e e e e e e e e e y e e e e iXiXiXiXiXiXiXiXiXiXiXiXiXiXiX",
"iXiXiXiXiXiXiXiXiXiXiXiXiXiXiX:.;.&.$.%.M C H J w.e.w.x = O O + + + + + % 8 m A ( r.r.e.D k e e e e e e e r e e e e e r e e e e e iXiXiXiXiXiXiXiXiXiXiXiXiXiXiX",
"iXiXiXiXiXiXiXiXiXiXiXiXiXiXiXiX-.&.$.%.M C C D w.y.r.M 7 O + + + + + O % 9 n F r.r.c.r.5.j e e e e e e e e e e e e e y r e e e y iXiXiXiXiXiXiXiXiXiXiXiXiXiXiX",
"iXiXiXiXiXiXiXiXiXiXiXiXiXiXiXiXiX#.@.%.h M n N 3.u.c.N 7 O + + + + + + % 0 b 3.y.D.D.x.t.j e e e e e e e e e e e e e e r e e e e iXiXiXiXiXiXiXiXiXiXiXiXiXiXiX",
"iXiXiXiXiXiXiXiXiXiXiXiXiXiXiXiXiXiX@.@.B M ,.1.4.5.3.b % + + + # + + + # = 9 ,.y.D.F.D.t.=.e 5 e e e r e e e e e e e e e e e e 5 5 iXiXiXiXiXiXiXiXiXiXiXiXiXiX",
"iXiXiXiXiXiXiXiXiXiXiXiXiXiXiXiXiX@.@.%.%.M 4.9.5.N 9 7 # + + + + + + + + # = b r.D.F.D.t.=.e e e e e e e e e e e e e e e e e e 5 3 # iXiXiXiXiXiXiXiXiXiXiXiXiX",
"iXiXiXiXiXiXiXiXiXiXiXiXiXiXiXiXiXiX@.%.h ,.9.x.5.d + + + + + + + + + + + + % 9 5.x.F.D.t.=.e e e e e e e e e e e e y e e e e e 5 < + iXiXiXiXiXiXiXiXiXiXiXiXiX",
"iXiXiXiXiXiXiXiXiXiXiXiXiXiXiXiXiXiXiXh g N 5.x.9.d + O + + + + iXiXiXiX+ O O 0 N 5.x.S.t.=.e e e e e e r e e e e e e e e e e e 5 # # + iXiXiXiXiXiXiXiXiXiXiXiX",
"iXiXiXiXiXiXiXiXiXiXiXiXiXiXiXiXiXiXiXiXB N t.x.r.s + O + + iXiXiXiXiXiXiXO + 7 g 1.r.x.t.=.e w e y e e e e e e e e e e e e r e 7 < + iXiXiXiXiXiXiXiXiXiXiXiXiX",
"iXiXiXiXiXiXiXiXiXiXiXiXiXiXiXiXiXiXiX1.1.4.u.x.t.b + O + iXiXiXiXiXiXiXiXiX# 7 i M 4.t.9.2.%.h r e y r e y e e e y y e e r u e 5 # + iXiXiXiXiXiXiXiXiXiXiXiXiX",
"iXiXiXiXiXiXiXiXiXiXiXiXiXiXiXiXiXiXb 1.t.u.x.D.x.1.iXiXiXiXiXiXiXiXiXiXiXiXiX9 b M <.1.5.5.9.5.iXiXiXiXiXiXiXiXiXiXiXiXiXiXiXiXiXiXiXiXiXiXiXiXiXiXiXiXiXiXiXiX",
"iXiXiXiXiXiXiXiXiXiXiXiXiXiXiXiXiXiXB 4.u.S.D.D.D.iXiXiXiXiXiXiXiXiXiXiXiXiXiXiXB B B M 4.u.x.iXiXiXiXiXiXiXiXiXiXiXiXiXiXiXiXiXiXiXiXiXiXiXiXiXiXiXiXiXiXiXiXiX",
"iXiXiXiXiXiXiXiXiXiXiXiXiXiXiXiXiXiXiX1.u.iXF.iXiXiXiXiXiXiXiXiXiXiXiXiXiXiXiXiXiXiXB iXiXiXiXiXiXiXiXiXiXiXiXiXiXiXiXiXiXiXiXiXiXiXiXiXiXiXiXiXiXiXiXiXiXiXiXiX",
"iXiXiXiXiXiXiXiXiXiXiXiXiXiXiXiXiXiXiXiXiXiXiXiXiXiXiXiXiXiXiXiXiXiXiXiXiXiXiXiXiXiXiXiXiXiXiXiXiXiXiXiXiXiXiXiXiXiXiXiXiXiXiXiXiXiXiXiXiXiXiXiXiXiXiXiXiXiXiXiX",
"iXiXiXiXiXiXiXiXiXiXiXiXiXiXiXiXiXiXiXiXiXiXiXiXiXiXiXiXiXiXiXiXiXiXiXiXiXiXiXiXiXiXiXiXiXiXiXiXiXiXiXiXiXiXiXiXiXiXiXiXiXiXiXiXiXiXiXiXiXiXiXiXiXiXiXiXiXiXiXiX"
};
