/* XPM */
static char *result[] = {
/* columns rows colors chars-per-pixel */
"80 80 150 2 ",
"   c #5B553F",
".  c #675D3D",
"X  c #726A3F",
"o  c #7C6F3D",
"O  c #7C723F",
"+  c #101F44",
"@  c #0E2044",
"#  c #112346",
"$  c #122749",
"%  c #122B4B",
"&  c #12324E",
"*  c #19324E",
"=  c #143650",
"-  c #143B52",
";  c #193E54",
":  c #124356",
">  c #194256",
",  c #144658",
"<  c #1A4659",
"1  c #144B5B",
"2  c #1B4C5C",
"3  c #16515E",
"4  c #1B515E",
"5  c #2C454F",
"6  c #3C4244",
"7  c #3C4A48",
"8  c #3D534C",
"9  c #23415A",
"0  c #2A445A",
"q  c #234A5E",
"w  c #294D5F",
"e  c #24515F",
"r  c #34635D",
"t  c #1D5561",
"y  c #1E5963",
"u  c #284A60",
"i  c #215562",
"p  c #215B64",
"a  c #235F68",
"s  c #216067",
"d  c #236169",
"f  c #4C5043",
"g  c #41574E",
"h  c #5C5B43",
"j  c #525D4A",
"k  c #425B51",
"l  c #5D6246",
"z  c #53634D",
"x  c #5B6748",
"c  c #52684F",
"v  c #436455",
"b  c #676B45",
"n  c #6A6C46",
"m  c #616E4D",
"M  c #62704E",
"N  c #6D744A",
"B  c #6E784A",
"V  c #767545",
"C  c #7D7540",
"Z  c #767A47",
"A  c #787A47",
"S  c #787C48",
"D  c #85733D",
"F  c #86793F",
"G  c #8D7D3E",
"H  c #937E3B",
"J  c #847C43",
"K  c #887D41",
"L  c #8E813F",
"P  c #94813C",
"I  c #9A843C",
"U  c #9B893E",
"Y  c #A98A34",
"T  c #A38639",
"R  c #A38D3D",
"E  c #AB8F3A",
"W  c #A7903C",
"Q  c #AC913B",
"!  c #B59235",
"~  c #BA9534",
"^  c #BE9B37",
"/  c #B4953C",
"(  c #BE9D3C",
")  c #C49E37",
"_  c #C29F3C",
"`  c #C6A33C",
"'  c #CAA43A",
"]  c #D5AB37",
"[  c #DBAF37",
"{  c #D2AA3A",
"}  c #DDB239",
"|  c #E1B63B",
" . c #E5B93B",
".. c #EDC03E",
"X. c #878042",
"o. c #8C8342",
"O. c #918642",
"+. c #968841",
"@. c #9B8B40",
"#. c #BE9C41",
"$. c #B49749",
"%. c #C9A84F",
"&. c #DCB440",
"*. c #DFBD4E",
"=. c #E3BE59",
"-. c #EDC74A",
";. c #EDC84E",
":. c #F4C741",
">. c #FACC41",
",. c #FFD54D",
"<. c #FFDA4F",
"1. c #E5C451",
"2. c #EEC952",
"3. c #F4CD58",
"4. c #EFD25E",
"5. c #F5D457",
"6. c #F5D55F",
"7. c #FFDF5D",
"8. c #FFE35F",
"9. c #E7C565",
"0. c #EFCF66",
"q. c #F9DF6B",
"w. c #E3C77F",
"e. c #FFDE75",
"r. c #FEDD7A",
"t. c #FFE66E",
"y. c #FFE276",
"u. c #FFE971",
"i. c #FCE67A",
"p. c #FFE97F",
"a. c #EFD99D",
"s. c #FFED83",
"d. c #FFEF94",
"f. c #FFF197",
"g. c #FFF299",
"h. c #FFE9A1",
"j. c #FFF2A4",
"k. c #FFF5AD",
"l. c #F9E8B6",
"z. c #FFF6B2",
"x. c #FFF4C4",
"c. c #FFF9C6",
"v. c #FFF3CA",
"b. c #FFFAC9",
"n. c #FFF9D3",
"m. c #FFFBDC",
"M. c #FFFCE1",
"N. c #FEF8E8",
"B. c #FFFDF2",
"V. c #FFFFFF",
/* pixels */
"# # = p e # # 4 e > 2 p > % p i 4 $ # * # # 4 * < i i s d d d i > = $ = > i a a i y t = 3 4 & 1 4 y 1 1 : 3 - $ @ 2 3 : , 2 & $ t - - : : 1 % $ & : 3 2 e 4 p % ",
"% % t i 4 # # % y 4 > > < > p t # - # 2 # # ; < = < e s d d d p > & $ = > i a i 3 1 1 & > - % & 2 y 3 1 : : 1 - $ < - : 3 3 % $ - 2 - : > 1 $ % - 1 : < ; > ; & ",
"> > > p = # # 2 4 % < # q 1 > y # 4 * < % # # # < 4 3 p a d a t < = = = < i t t 2 3 , & = > % & 3 1 4 1 : : - 4 - < = , 4 2 % $ 4 < : - y < $ % 1 - : 2 ; e % # ",
"2 > > y > # & < 2 2 2 % 4 4 4 4 # y e 4 < & # # & 3 2 t y d p p 4 ; = - t 3 t 1 , 2 3 ; $ & % & : : 4 1 : : : 4 3 & & 4 - , $ % 4 > t 4 3 $ # ; & - 2 ; < 2 % # ",
"< # 2 y - # 1 & < 2 2 > 4 p y y # < > 4 > 4 $ # % = 4 3 t y a p t 1 : , t 1 1 : 2 2 > > # # = ; $ & 2 4 1 , : 1 3 = - 4 & > % > - $ y t $ + * 2 & - 4 ; < ; # # ",
"4 % e 4 1 # 4 3 : 3 2 & > e 4 y % 4 # < > 2 > & = < 2 4 3 y p p y t : 1 t , : - 2 < = % $ = < < # $ 2 4 3 1 : : 4 - < % # # > > ; % % ; $ $ 2 & = 1 3 1 & : * # ",
"2 = 2 * 4 & 2 4 : 3 : % > < 2 y < > $ 2 > * > 3 4 i - : y 3 i t 2 y , t : : : : t - > > & i i > # # % ^ 4 3 : : : & < % # # 2 % % > ; + $ * = < , y : , % q 4 # ",
"* > # # e > % 4 : 3 1 & > 4 2 > 4 & % 4 & & e 4 t 1 < & 3 3 2 3 1 1 1 1 : : : y 2 < > 2 > q < ; $ # $ % : & : > & & < : : = = = & > ; $ % = < < , 1 2 % % 1 = @ ",
"# * # # y # % 2 : 4 - & = 2 - 3 e : & $ @ y 4 2 4 4 - % = t 1 t 3 2 % & 3 : : y t 1 % ; 2 4 < < & @ # * 4 % 4 p $ $ % e s 4 1 , - & $ $ = 2 t y t p t $ $ t > $ ",
"# - # # 4 # % & 3 y = - $ > 4 3 4 3 & % # y 4 y < = > % & = , y < % $ = 4 - - t t > % 2 t y i ; > * & 2 e - $ 4 @ @ > < % 2 : 3 3 - = = ; t a i i = % # @ u > $ ",
"# > # # 4 # % & 4 4 & % $ % 4 4 3 2 = = # e - y 2 > < & & : t & % - $ 4 > & = t e - % i t t t 2 > < < 4 2 > # 4 # % > 2 & & 2 , , 3 : t t i t 2 ; % $ $ % < = ; ",
"# * # # 2 # # % % < % $ $ % 4 4 y : 3 4 # # # 4 $ 2 1 : 1 t t % % i & < < = 1 4 2 > % = t 1 2 t 4 2 > 4 2 - # y % < ^ > 4 & : 4 1 3 t y y 4 3 1 = % $ % > < 4 4 ",
": @ # # 4 # % , # # # # # % 4 : i : i 2 & @ $ @ & e 3 t p p - % & 2 4 # < 2 = t 2 > % & 3 , 3 t e 4 4 > > > # e < 4 # 4 : % - : t 3 t y y t 1 : - & & = t t y a ",
"> @ % - 4 : 4 p # # # % & - p = p 2 y ^ : @ $ % 1 4 : , i 1 > > 2 % 4 # 4 % < % 2 & & - 4 , , t s p q 4 % < # 4 2 4 # y > % & : t t t y t 3 , : - = 2 2 1 t y a ",
"* @ > e 4 y e 2 # # % > 2 4 4 & = 1 y ^ 1 % & = 3 : , 3 t : - > ; > ; # % - 2 : > 1 > - 2 y : 4 p p 4 y % + # 4 > > & e # & & & 1 t t y y 3 1 1 4 < > < t y y y ",
"@ = , y 4 : 4 & & % > 2 4 & $ % 1 % t ^ e % & 2 : : , 4 2 > > ; = > ) $ & 4 i y i y q > 1 e = 2 p p 2 i % # # e > 2 4 4 # , 1 % & y 3 1 y 1 3 y 2 2 t i y y y 1 ",
"* 4 < 4 : 2 - = > & & y p < # & e # 4 e 3 & : 2 , : 1 y 1 , $ 2 < = % % = y y ^ t y i t t p = 2 i i 4 4 % # @ * < 2 4 y & > ) # % & 3 : y : a 4 3 t i y y y , : ",
"e 4 , e , 4 & 2 $ % e y 4 # # 4 @ * 4 # 4 & 2 ^ : : t 1 3 % # 2 e q = = - - - ^ y t t y 1 = ; 2 4 t p i : % # - 4 2 e 4 , % < # % % ; - t - 1 t 1 t t y p t - = ",
"4 e s : 4 & & 2 % > 2 e 4 $ * < & 2 > # 4 : 3 , : : t t ^ $ @ % & > 1 < 1 : - ^ y >.t t i < 2 2 3 4 i 3 4 & % , > q 4 2 4 < 4 # + % ; & t & : 2 3 1 3 t 3 2 = & ",
"s 4 y 2 2 % # , > # 4 2 ; > & 2 > 2 # # % 4 4 : - 1 t ^ = ^ $ % ; 2 4 e y t % & - >.1 t p i t ^ 4 3 4 , 4 1 & 4 * : p p e y e % $ + - $ t % : 1 4 ; 4 4 3 % $ $ ",
"s s 4 4 - % # < # & 4 = 4 & 4 & 4 > # # $ & - - : y p t ( & = - < i p y 4 % % % = >., 3 y s p y y y : : : s : 1 3 e 4 4 4 s s % $ $ 9 % > ; + t 4 - y 1 1 % # + ",
"4 s 4 y % # + + # 2 i i > > > > p & * $ # % & - < t y < < 4 4 u i t t t = % # % % = : 3 p s p t 4 y : 1 / y 3 3 e 4 4 e s 4 = ^ $ % < - 2 > $ 2 3 : : 3 2 $ + @ ",
"s 4 4 y % # # # & e = p i i 4 e e > & $ # $ % : % t i # * i 2 4 t t t , - % # # $ % = t p s s y 3 4 , : 1 s y y 3 4 3 3 4 : % % % ; t i a & $ $ & 4 t - - $ # @ ",
"4 s 4 p % # % < 2 % = p p s s p i 4 > % $ # = $ = i ; & 2 2 t y t 3 3 - & = # # @ $ & t t y t y 1 3 1 : : 3 3 y p i 3 4 4 = % & ; 2 i i i < ; $ & 1 t - y % $ # ",
"s 4 p 2 & # > 2 4 % = q p e s s p y 4 ; - % < # q i 4 2 - 3 t y t t : : : 3 % % # ) % e 3 e 4 4 : 3 1 : : 1 t d s i 2 t - = & 2 t t i t 4 y 4 $ % & - ; = = = = ",
"3 4 4 % > - % e 4 # * 4 > 4 3 4 4 y 4 4 t > 2 # % 4 2 > 1 t t t 1 t 1 ^ t 3 1 ; % # $ 4 1 3 4 > - t ( : 1 3 y y p y < 4 & - : t < 3 t 4 y - 2 $ % % & = ; ; ; < ",
"& 2 4 = > > 2 4 % # $ 2 & - 4 3 t 3 i t i p 2 % & e 2 e t 3 t 1 1 3 y , ; ..e $ < % % 4 : 1 2 - & ^ 1 ^ : 3 t y p t > 1 ^ 2 4 i t 4 3 1 y 2 ; # @ $ % = < 2 t y ",
"> # $ < + 2 > e > = % 2 $ & 4 e y 3 y i ^ y y , > < i i y 3 t : 3 t y 3 = p 4 1 4 > % 4 : : 2 - % 1 ( 1 3 1 t t i e > < - i < i y t 1 < y y = # @ $ % = < i y y ",
"+ # # # % < % > < 4 > > # - 4 4 1 1 3 y y t s y 4 e p d y t 1 : 4 4 1 4 < 4 s p < > % 3 : 4 : 4 & ; ) t 1 , 2 t t 4 t > t < 4 t t 1 : y t i $ $ % = = ; 1 t y y ",
"+ # # # < # q # # $ > 2 # e : 4 y 1 3 t 3 s y y ^ p p a y 3 t : 4 < 2 4 % e # 4 # 4 > 4 2 3 t 1 2 # 2 2 & , t 1 3 3 t t i 2 4 3 1 < - 2 < t $ % = ; 2 3 t 2 t 3 ",
"# # # > # # > # # # - 2 $ 2 : p y 1 , 3 t y y s p p a a y 3 1 : s 4 > 4 # # # e # # s e - 3 1 & t # $ # $ = t 3 ( 2 y a t t 3 < : 3 < ; ; t $ % ; q i 4 t 1 , 1 ",
"# # # % % % % $ # # < < - < < 4 1 y , 3 y y t y p p p p t t t : 4 1 2 4 # # # 2 $ % y 4 1 4 - & % % $ # # 2 ; 2 3 3 t y t t 1 : t % ^ ; 4 & + % ; 2 i i 4 q > & ",
"# & > = 3 < ; - & + 2 * < 4 - 4 , 4 3 3 y y y 3 y y 4 3 3 4 1 1 p & 4 e # # # > % - - y y y - , - , ^ # # 4 & , 4 3 3 3 3 1 : : < % = $ 4 # # % > 1 4 i u & % % ",
"# 4 4 4 p e 4 4 > & % - 2 4 e 1 5 2 3 3 : y 3 3 3 4 y 3 3 4 1 ..4 % i & # # # 2 - t t t y t - y 2 y & % # 2 = 4 4 4 ^ 3 3 , - 2 % # > - 4 # # & - 1 2 q % % # # ",
"# # q > e s e 4 - 2 > 2 - 2 $ 4 % & 3 y 1 3 3 1 1 4 3 4 : 3 3 : p & 2 # @ @ & M J b Z C o h 2 t : t = & % 2 2 , 1 y 1 : : - < % # $ = > = & # 2 - t > 9 % # # + ",
"# # % 4 3 4 4 2 4 4 : e - e * 4 : % y 3 3 1 3 1 3 s : : : y : : 4 & # # % 5 z L G b V o o G C r , t : = > : 2 , : 3 1 : : : > # # $ > > 2 4 # 2 3 2 2 & % # + # ",
"# # $ e e s 1 > < 2 e s 4 4 2 2 3 % 4 3 y 1 1 1 4 : & & - 4 : 3 t % $ % j S V ) [ | } [ { H E @.r 4 3 1 1 2 : < 3 4 , : : 3 % # # & : 4 p p # > t < 2 2 % # # + ",
"# # # & - 4 4 2 2 3 s 4 p p e 2 y % y 3 ^ : 1 3 : : % % & 4 , : 3 $ $ l O.J $.9.e.e.e.0.=.%.R W L M 4 y 3 3 & - 2 1 4 : : 3 & $ % > 2 4 y % $ i t = % q ; % + # ",
"# % $ > 4 s & 2 3 4 y s y s p 4 2 % 2 1 : 1 1 : : & % ..& 4 < : - & l +.K #.w.l.v.v.v.v.x.a.%.! R o.y y 4 4 - : > % 3 : : 4 % $ % 2 3 t y & $ # 2 4 * < + > # + ",
"# 2 - * 4 < > & 4 , 4 4 y ) 4 4 : % 4 3 : 3 : - & & & & < 1 & = 8 l X.K ^ 3.h.N.V.V.V.V.B.v.r.&.Y O c 3 s 3 = < > % & - & & $ $ % 1 : 4 3 & $ # > i t # # > # # ",
"= t e 4 y # & % , > : e y 1 4 4 > % 4 : 1 , = : & > > 2 > % % - l o.J / 1.y.z.B.V.V.V.V.V.m.d.6.{ U O x 4 s = 3 # # % % & % # # % 3 : y 1 & $ # & p e # $ 0 q q ",
"4 2 & > 4 # = # # 4 2 4 s : 4 & * & & : y : : y : * 2 2 & > $ * V U ) -.q.f.x.N.V.V.V.V.V.m.j.i.5.} ! L v 4 = > # # # * < $ @ $ % 4 i y - 3 ) $ 4 4 4 # < w p s ",
"i ; # > q # < # - 4 y e 2 2 4 % # : & : 4 : y y e 4 2 * # % # % F +.[ <.u.g.b.B.V.V.V.V.V.m.z.s.8...^ L M s & % # ^ % 2 < # # # % 1 y y - i % > * 2 ; $ e e y s ",
"4 # % ; # # > $ 4 4 4 & 4 4 % # # , & , y 3 5 2 4 > # # % 2 # % G L | <.u.g.b.B.V.V.V.V.V.M.z.s.8.} ~ X l & % & & > 2 > + # @ & $ & 4 e : 3 % 4 % > 4 e p 4 y y ",
"> # < # # # = > > + # % < 4 * # # * = s 2 4 ) 2 p : % # 2 < % % F X.} <.u.f.b.B.V.V.V.V.V.M.k.s.8. .~ X X $ & < < 2 2 # # + # 2 # ; & = t t 2 i e e 4 e y i y 3 ",
"# # 4 # # & < 4 > # # % < , < % # : > 4 : > 4 4 4 s > # e % > % O O  .<.u.g.b.B.V.V.V.V.V.M.z.s.8.:.^ O D % > < * e > $ % - % 2 % > = & 4 i i t ; e p i p 4 4 , ",
"# # @ % > 3 2 e > $ + > 4 , > > # 4 # e : < 4 s 4 y # % 4 2 < % O G ] ,.t.f.c.N.V.V.V.V.V.m.k.p.8...~ P L > * # 3 4 - * 2 e 2 4 & < 2 2 p ; 2 2 > i y p p : 3 - ",
"+ # & > e e < 4 $ > + + > 2 - e % > @ , > 2 4 y e 4 % > 2 # 2 # f C P ` 4.p.k.n.M.M.M.M.m.x.f.t.1.( I W   + + % 2 2 2 2 e > e ..* 2 4 4 2 4 $ 2 > t s p 4 - 1 & ",
"+ % 2 e 2 t i ; % # # # > 1 ; e - % # e > 4 s y 4 1 % > 4 # 2 % % g P @.` 2.p.j.z.z.k.z.k.d.t.;./ O.Q U 4 = $ ) % t u 4 4 2 4 >.5 2 2 2 2 e # e < 4 p e e 2 % # ",
"% > > > q i 2 ; % # # $ > 2 % 1 > > * 4 4 4 4 3 4 1 - > 4 # < < > % m o.@.' 1.i.s.s.s.s.p.t.;.` W Q R n < t < < > ; 2 t y 4 i >.....* - 2 - : 4 4 p 4 4 4 2 # @ ",
"4 2 > > < t ; = $ # $ % & 4 < # 4 % # > 2 s 4 4 2 1 2 # y & < 4 < > k V K L ` 1.t.8.7.8.7.*./ O.W U N k i t 4 4 ; < 4 y a 4 2 ; 2 + - = 4 = 4 < 4 4 4 4 2 > # + ",
"i q 2 < > < * % $ $ % = > p < & > > $ & , e : 4 : 4 < # e < > < t * : v h X.X.]  .} } { ` ^ W +.S v 4 3 4 i i t 4 2 4 y < 4 t % & + > > 2 ) 4 4 3 4 3 y = - % + ",
"p p u , - > $ # @ $ & 4 4 s 2 > > ) > # 4 y : t : 2 : # @ < % e > % < 4 6 C O A O U G P T E Q V t 1 t y y y y y t t 3 t : t < - # # , 4 % : 4 : 3 3 1 4 > > & # ",
"a p t > < $ # @ % & : 3 3 3 3 > > * > @ 4 y = 4 : : < - * % 2 - = > 2 i - k   M   B N . l M N 8 3 1 t y d d d y y t 3 t , y - < # % e y & 3 3 1 4 3 1 4 4 % % @ ",
"y t 2 : < $ # % - 1 2 , 1 : 4 4 & % e # 3 4 & & < % 2 e 2 2 e - % e i ; & # @ e # < 2 7 j v r - t 1 t y d d d y t 3 3 3 t t & < # 1 s 3 : y 3 3 4 3 s 1 s - $ & ",
"1 1 , - < % % - 2 : : 3 , : > 2 % < & % 4 4 $ & - # > 4 ^ 4 $ , > 2 1 2 # # # 2 % < - 4 * > = 1 y 1 3 t y d y t 3 3 1 t t t - ; & y y 4 4 : 3 4 4 s s 1 4 4 & % ",
"1 : : 2 < % = 4 2 : : 3 : : & : = # # > > > % > # # > 2 ^ > $ 2 1 i > > # = % e > # 2 e % & > 4 t 1 t t p y t , : : : 1 t 1 1 < 2 4 4 4 y , , 4 3 p i 4 i 4 % # ",
": : : 1 & % < < : : : 3 : - & : 1 $ $ & > # > * # # 2 ^ > ) - = i 2 < = * 4 * 4 2 - 4 2 4 % 2 3 y : 3 t t t 1 , : 3 : : y : t - 4 4 1 1 y 4 4 4 1 y i 4 e i % % ",
"1 : : 4 % - 2 = : : : 3 & & & 3 : & % # 4 # < # # # 4 i ^ # 3 < i 4 > % 2 4 2 t i i ; < i # & ^ : : 1 3 3 3 , t 1 y : : y = 1 t 2 2 3 : y 4 1 2 > y 3 q 4 y % # ",
"1 : : 2 & 4 , & : : 3 & & % & 4 - 1 & # * $ # # # # > 2 # & > y 4 > # ; i i i t ; 4 = t 4 = % 2 : : 1 1 1 t 2 4 3 t 1 t t = < t 2 4 4 : , 4 & & 3 y 1 2 e y # + ",
": : : 3 % 4 % & : : y % % - : : , 3 - & % < % # # # 4 # # 4 $ y i % = i i e t 2 q % ; t 4 t & 1 : : : : : t i ^ < - = 1 y & t - < 2 3 : 3 e $ % & y y ; 4 1 # # ",
": & & : : 4 % & - & & $ @ 3 4 4 y y 2 > = q $ # # # e # & p < e < = 2 i < ^ < 4 < $ $ t 2 y ^ , : : : : 1 4 ; > > $ % & = = y , < 2 4 > 4 > % # & t q 1 y 2 # + ",
"& % % & 4 e $ & 1 = % # $ y < 4 i p i 4 q ; % # # - > # 2 i q ; = i t 2 > ; 2 p $ $ = ; t y : 1 : : : : y : ; > > @ $ % = < t 2 4 4 - 4 > = < # 3 $ & 2 i # # + ",
"% # @ : 4 > - - < 2 # # $ e 4 2 p p s p e 1 = % # 4 # # < 4 > < < p p u > & < $ # # # + 4 t : t : 1 1 1 ; 2 # > > % $ $ 2 < 2 @ e < & % > $ 4 # < # # # # # + # ",
"@ @ - % 2 > > > > 4 # # # % < 2 4 p s s p i < * % t $ # t > < < y 4 s 4 > - < + # # # # s # 4 4 4 y < % > 4 = * & * & $ : - > $ & 4 # = = # 4 # % = & & % % # # ",
"# @ > > e - * > = > # # # $ * e 2 e p p a p t 2 < 2 $ $ > = < _ 4 y 4 1 - < # + + # # # 4 # 4 % 4 & & $ - $ 4 > < 2 1 > : 2 % 1 = i # > > # e & > 3 1 2 % & % # ",
"# # : * 2 # < > > > - # # # $ * 2 < q p a a a y i > % $ 2 2 p p 3 4 1 : 2 < # # # # # < e # $ $ % % $ # > = e y s y s 4 ) y % t < q # > = # y 4 - - - 2 = % & % ",
"# % 2 # # $ 2 # 2 # ; # # # # # % 2 2 i d d d y i > = ; < i p p 4 ^ : : 4 = # # # # # < # # # # # # # # > 4 s y y y 4 3 2 & % @ ; 2 # > > # # > 3 - : : 2 & % & ",
"# < * % * * & % $ # > # # # $ % > < < 3 p a d y y > - < y i p p y 3 : : 4 % % # % - > - & @ # $ + # + # 2 p 2 4 4 4 4 4 - & $ * < % - = - $ $ $ < 4 & - 1 2 & % ",
"+ 2 % & > 2 > ; $ # # # # # > < $ & t 1 t y d d y t 1 y i t p a y 3 1 1 4 % - % - 2 4 2 > ^ # > + + # # 2 i = 1 3 4 4 - % % $ 2 % & e 4 4 * % @ $ p & = ; t , & ",
"+ # * ; e 4 2 ; % # # $ * = > # # & = 4 1 t y y y y t 1 1 t p p y 3 4 4 : : # % 2 3 e < < & & = # # # # 4 : = : 2 2 2 & $ @ # # % 2 3 : 3 & $ @ # 2 = = < 2 y s ",
"% % = 2 4 e 2 ; * & $ > & ; # # % % - y , 1 y y y t t 1 1 t y p 4 4 1 4 & # % & 2 : 3 , > 1 4 < & % % - e 2 - : , 1 3 - $ @ % # % 2 4 : 3 & $ % $ 4 ; ; < i y s ",
"; > < y y t 1 - % t = = 3 < & % > * - - , 4 3 4 t 3 3 3 1 3 y t 3 3 3 4 & % % & 4 3 2 2 4 e * 2 q ; = < < > : 2 : 1 3 2 $ # < # % y s 1 1 & & = ; i e 1 3 4 y t ",
"i q t y t 2 > , - i % 2 4 : - = # # # % 3 4 e 1 1 3 1 t 1 3 3 y 4 3 1 3 & % # 2 : 4 4 , 2 4 2 > 2 4 u > $ % > 2 1 1 p 2 > # 2 # & 4 1 3 - - > = = 4 2 4 3 3 t 3 ",
"a p y p 3 : : p t % < t 3 4 : & $ # # - e 4 : 1 : t t 3 3 1 y y 3 : : 4 & & % 3 & 4 4 2 : & 4 < i i y < = & : 2 y 2 i i = # < & < e 4 4 : , ; 4 > p p p 3 1 : : ",
"y y y t y : 2 t - , t y , : : , & & % : 2 s - 1 : 3 1 1 3 y t y 3 : : & & & & 3 : 3 < : $ > 4 < t i 4 1 < < = 1 y - 4 2 < # 2 2 3 3 3 y 2 i > 4 2 t i t 1 : : - ",
"t y t t 2 , > t ; > & 1 t 3 1 - : 4 : # 4 y 1 : , 4 = < 1 t 3 y 4 : & & : 4 3 4 - 4 2 , # % 4 4 2 3 y t 2 y ; = : < 4 > 4 % 4 e 4 > 2 e > 4 > % 1 i 3 1 , = & & ",
"y 1 3 3 t % i ; 2 % & - 3 3 y , : e > % y e 1 : , 1 & , , 1 t t 4 - & & 2 4 : & 1 4 e # # # 2 2 , 1 t y y y > = < - 4 # 2 4 > 4 4 $ 4 > : $ > * < 4 , : - & % % ",
"y , y t % = 2 # ; $ & - 4 3 3 3 y 4 : - 4 4 3 , , 2 % t - 2 t 3 4 2 : % & : : : 4 % 4 # # $ & 4 : 3 4 y p p < ; > 3 e # e e - < 2 * < - > : < < & : : - & % @ @ ",
": : t 1 % 2 ; # # $ % - : y 1 1 y 4 4 e $ p 4 3 2 & % $ t 1 y : e > : % & : : 4 e # # # @ # % s : y t y a y i < 4 s > # p < 4 4 ; < 4 ; 4 s < % & - : - & % @ @ "
};
