/* XPM */
static char *result[] = {
/* columns rows colors chars-per-pixel */
"80 80 186 2 ",
"   c #040302",
".  c #090906",
"X  c #070709",
"o  c #090A0C",
"O  c #070809",
"+  c #0B0C14",
"@  c #0D0E1C",
"#  c #0D1513",
"$  c #0F1916",
"%  c #0D101D",
"&  c #0F1A18",
"*  c #171C17",
"=  c #111E1C",
"-  c #1A1F1F",
";  c #1A201F",
":  c #3E281F",
">  c #0E1122",
",  c #101425",
"<  c #11162A",
"1  c #14192D",
"2  c #151C36",
"3  c #1B1E34",
"4  c #161E3A",
"5  c #181F3D",
"6  c #0F1837",
"7  c #211F2E",
"8  c #152524",
"9  c #172B29",
"0  c #18203F",
"q  c #1B283C",
"w  c #1E3935",
"e  c #1D3734",
"r  c #24202E",
"t  c #2B222A",
"y  c #21292F",
"u  c #352422",
"i  c #382623",
"p  c #3B2925",
"a  c #3B2C2C",
"s  c #34262A",
"d  c #28312E",
"f  c #232235",
"g  c #2B2635",
"h  c #242A35",
"j  c #2B2C35",
"k  c #24253D",
"l  c #272A3A",
"z  c #292D3D",
"x  c #332B32",
"c  c #302731",
"v  c #2B3534",
"b  c #2D3835",
"n  c #2C353A",
"m  c #2F3A39",
"M  c #323D3B",
"N  c #373A37",
"B  c #432A1D",
"V  c #492C1C",
"C  c #40271E",
"Z  c #4D321E",
"A  c #53331E",
"S  c #4D3324",
"D  c #5B3A23",
"F  c #573B2B",
"G  c #4A363F",
"H  c #473435",
"J  c #513937",
"K  c #623E24",
"L  c #22423E",
"P  c #36413D",
"I  c #594227",
"U  c #43423C",
"Y  c #5A4030",
"T  c #64422A",
"R  c #6F482A",
"E  c #61502A",
"W  c #6C4239",
"Q  c #674B3D",
"!  c #7A4937",
"~  c #615A34",
"^  c #72642F",
"/  c #746E3A",
"(  c #716B39",
")  c #121E46",
"_  c #151F48",
"`  c #162147",
"'  c #1B2447",
"]  c #1F2846",
"[  c #162249",
"{  c #1B2549",
"}  c #1F284D",
"|  c #1E2952",
" . c #1A2653",
".. c #202746",
"X. c #252B46",
"o. c #2D2C45",
"O. c #252C4B",
"+. c #273044",
"@. c #2B3243",
"#. c #273248",
"$. c #2B364F",
"%. c #323446",
"&. c #343D44",
"*. c #333549",
"=. c #343B4B",
"-. c #383F4F",
";. c #222D57",
":. c #222E58",
">. c #273655",
",. c #363E50",
"<. c #283D61",
"1. c #423C45",
"2. c #423845",
"3. c #244544",
"4. c #364143",
"5. c #3A4542",
"6. c #3A444A",
"7. c #3E4948",
"8. c #3C4353",
"9. c #3D4655",
"0. c #2E5C57",
"q. c #31615E",
"w. c #2A4165",
"e. c #335B6D",
"r. c #38716D",
"t. c #38706E",
"y. c #4E4445",
"u. c #434847",
"i. c #514545",
"p. c #5F4F45",
"a. c #544C4A",
"s. c #495146",
"d. c #535344",
"f. c #5A5F47",
"g. c #525948",
"h. c #595948",
"j. c #434D5C",
"k. c #444654",
"l. c #45515D",
"z. c #644C42",
"x. c #6F5944",
"c. c #685644",
"v. c #795E46",
"b. c #626341",
"n. c #7C6144",
"m. c #7B6C42",
"M. c #777743",
"N. c #444F62",
"B. c #465062",
"V. c #4A5464",
"C. c #4C5A6C",
"Z. c #48546C",
"A. c #505F79",
"S. c #50606E",
"D. c #8A4C33",
"F. c #9C5430",
"G. c #845A39",
"H. c #A2542E",
"J. c #976437",
"K. c #8E6A42",
"L. c #866643",
"P. c #926E43",
"I. c #8D7A41",
"U. c #9C7343",
"Y. c #A37B42",
"T. c #A97D42",
"R. c #3F807A",
"E. c #41847F",
"W. c #8C9245",
"Q. c #A18047",
"!. c #B5A145",
"~. c #B4B245",
"^. c #D39F42",
"/. c #D09641",
"(. c #E0A441",
"). c #EFCA42",
"_. c #F8C341",
"`. c #EBDD43",
"'. c #3F7688",
"]. c #586983",
"[. c #5D7089",
"{. c #4B9994",
"}. c #478697",
"|. c #4FA0A0",
" X c #5AB8B5",
".X c None",
/* pixels */
".X.X.X.X.X.X.X.X.X.X.X.X.X.X.X.X.X.X.X.X.X.X.X.X.X.X.X.X.X.X.X.X.X.X.X.X.X.X.X.X.X.X.X.X.X.X.X.X.X.X.X.X.X.X.X.X.X.X.X.X.X.X.X.X.X.X.X.X.X.X.X.X.X.X.X.X.X.X.X.X",
".X.X.X.X.X.X.X.X.X.X.X.X.X.X.X.X.X.X.X.X.X.X.X.X.X.X.X.X.X.X.X.X.X.X.X.X.X.X.X.X.X.X.X.X.X.X.X.X.X.X.X.X.X.X.X.X.X.X.X.X.X.X.X.X.X.X.X.X.X.X.X.X.X.X.X.X.X.X.X.X",
".X.X.X.X.X.X.X.X.X.X.X.X.X.X.X.X.X.X.X.X.X.X.X.X.X.X.X.X.X.X.X.X.X.X.X.X.X.X.X.X.X.X.X.X.X.X.X.X.X.X.X.X.X.X.X.X.X.X.X.X.X.X.X.X.X.X.X.X.X.X.X.X.X.X.X.X.X.X.X.X",
".X.X.X.X.X.X.X.X.X.X.X.X.X.X.X.X.X.X.X.X.X.X.X.X.X.X.X.X.X.X.X.X.X.X.X.X.X.X.X.X2 2 .X.X.X.X.X.X.X.X.X.X.X.X.X.X.X.X.X.X.X.X.X.X.X.X.X.X' ' .X.X.X.X.X.X.X.X.X.X",
".X.X.X.X.X.X.X.X.X.X.X.X.X.X.X.X.X.X.X.X.X.X.X.X.X.X.X.X.X.X.X.X.X.X.X.X.X.X.X.X2 2 2 .X.X.X.X.X.X.X.X.X.X.X.X.X.X.X.X.X.X.X.X.X.X.X.X' ' ' ' .X.X.X.X.X.X.X.X.X",
".X.X.X.X.X.X.X.X.X.X.X.X.X.X.X.X.X.X.X.X.X.X.X.X.X.X.X.X.X.X.X.X.X.X.X.X.X.X.X.X4 2 2 2 .X.X.X.X.X.X.X.X.X.X.X.X.X.X.X.X.X.X.X.X.X.X.X{ ' ' ' ' .X.X.X.X.X.X.X.X",
".X.X.X.X.X.X.X.X.X.X.X.X.X.X.X.X.X.X.X.X.X.X.X.X.X.X.X.X.X.X.X.X.X.X.X.X.X.X.X.X2 2 2 2 2 .X.X.X.X.X.X.X.X.X.X.X.X.X.X.X.X.X.X.X.X.X.X.X] ' ' ' .X.X.X.X.X.X.X.X",
".X.X.X.X.X.X.X.X.X.X.X.X.X.X.X.X.X.X.X.X.X.X.X.X.X.X.X.X.X.X.X.X.X.X.X.X.X.X.X.X2 2 2 2 2 .X.X.X.X.X.X.X.X.X.X.X.X.X.X.X.X.X.X.X.X.X.X.X' ' { ' ' .X.X.X.X.X.X.X",
".X.X.X.X.X.X.X.X.X.X.X.X.X.X.X.X.X.X.X.X.X.X.X.X.X.X.X.X.X.X.X.X.X.X.X.X.X.X.X.X2 2 2 2 2 .X.X.X.X.X.X.X.X.X.X.X.X.X.X.X.X.X.X.X.X.X.X' ' ' ' ' ' .X.X.X.X.X.X.X",
".X.X.X.X.X.X.X.X.X.X.X.X.X.X.X.X.X.X.X.X.X.X.X.X.X.X.X.X.X.X.X.X.X.X.X.X.X.X.X.X2 2 2 2 2 2 .X.X.X.X.X.X.X.X.X.X.X.X.X.X.X.X.X.X.X.X.X' ' ' ' ' ' .X.X.X.X.X.X.X",
".X.X.X.X.X.X.X.X.X.X.X.X.X.X.X.X.X.X.X.X;.;..X.X.X.X.X.X2 2 .X.X.X.X.X.X.X.X.X.X2 2 2 2 2 2 2 .X.X.X.X.X.X.X.X.X.X.X.X.X.X.X.X.X.X.X' ' { ' ' ' ' .X.X.X.X.X.X.X",
".X.X.X.X.X.X.X.X.X.X.X.X.X.X.X.X.X.X.X.X:.;.;..X.X.X.X2 2 2 .X.X.X.X.X.X.X.X.X.X2 2 4 2 2 2 2 3 .X.X.X.X.X.X.X.X.X.X.X.X.X.X.X.X.X' ' ' ' ' ' ' ' .X.X.X.X.X.X.X",
".X.X.X.X.X.X.X.X.X.X.X.X.X.X.X.X.X.X.X.X;.;.;.;..X.X.X2 2 2 .X.X.X.X.X.X.X.X.X.X2 2 2 2 2 2 3 r i .X.X.X.X.X.X.X.X.X.X.X.X.X.X.X' ' ' ' ' ' ' ' ' .X.X.X.X.X.X.X",
".X.X.X.X.X.X.X.X.X.X.X.X.X.X.X.X.X.X.X.X;.:.;.;.:..X.X2 2 2 .X.X.X.X.X.X.X.X.X.X2 2 2 2 2 2 3 t : V .X.X.X.X.X.X.X.X.X.X.X.X.X] ' ' { ' ' ' ' ' .X.X.X.X.X.X.X.X",
".X.X.X.X.X.X.X.X.X.X.X.X.X.X.X.X.X.X.X.X:.;.:.:.:..X.X.X2 2 2 .X.X.X.X.X.X.X.X.X2 2 2 2 2 2 2 a S A A .X.X.X.X.X.X.X.X.X.X.X{ ' ' ' ' ' ' ' { ' .X.X.X.X.X.X.X.X",
".X.X.X.X.X.X.X.X.X.X.X.X.X.X.X.X.X.X.X.X;.;.:.:.:..X.X.X2 2 2 2 .X.X.X.X] { ' ` 0 2 2 2 2 2 0 a F K A V .X.X.X.X.X.X.X.X.X' ' ' ' ' ' ' { ' ' .X.X.X.X.X.X.X.X.X",
".X.X.X.X.X.X.X.X.X.X.X.X.X.X.X.X.X.X.X.X:.;.:.;.;..X.X2 2 2 2 2 4 .X.X' ' ' ' ` 5 2 2 2 2 0 g H T K S C .X.X.X.X.X.X.X.X' ' ' ' ' { ' ' ' ' .X.X.X.X.X.X.X.X.X.X",
".X.X.X.X.X.X.X.X.X.X.X.X.X.X.X.X.X.X.X;.;.;.:.;.} ' 2 2 2 2 2 2 0 } ;.' ' ' ' ' ` ` 5 2 y a H F D S p s t .X.X.X.X.X.X' ' ' ' { ' ' ' ' ' ' .X.X.X.X.X.X.X.X.X.X",
".X.X.X.X.X.X.X.X.X.X.X.X.X.X.X.X.X.X;.;.;.;.:.;.} ` 2 2 2 2 2 2 ' ;.;.' ' ' ' ' ' 0 5 2 g F T D V u r q 2 .X.X.X.X.X' ' ' ' ' ' ' ' ' ' ' { .X.X.X.X.X.X.X.X.X.X",
".X.X.X.X.X.X.X.X.X.X.X.X.X.X.X.X.X;.:.;.;.:.:.;.] 0 2 2 2 2 0 ' ' ;.;.' ' ' ' ' ' ' 5 4 x F R K V : 7 2 2 .X.X.X.X] ' { ' ' ' ' ' ' ' ' ' ' .X.X.X.X.X.X.X.X.X.X",
".X.X.X.X.X.X.X.X.X.X.X.X.X.X.X.X;.;.;.;.;.;.:.:.} 0 2 2 2 0 ' } ;.;.;.' ' ' ' ' ' ' 5 2 x F R K V u 7 2 2 2 2 ' ' ' ' ' ' ' { ' ' ' ' { ' { .X.X.X.X.X.X.X.X.X.X",
".X.X.X.X.X.X.X.X.X.X.X.X.X.X.X;.;.;.:.;.:.;.:.;.} ' 4 4 0 ' } ;.;.;.;.] ' ' ' ' ' ' 0 2 x F T D V u 7 4 2 4 0 0 ' { ' ' ' ' ' ' ' ' ' ' ' { .X.X.X.X.X.X.X.X.X.X",
".X.X.X.X.X.X.X.X.X.X.X.X.X.X.X;.:.;.;.:.;.;.:.;.} ] ' ] ' ] | :.;.;.| } ' ' ' ' ] 0 f t p S D A V p f 5 5 5 ` ` ' ' ' ' ' ' ' ' ' ' ' ' ' ' .X.X.X.X.X.X.X.X.X.X",
".X.X.X.X.X.X.X.X.X.X.X.X.X.X.X;.;.;.;.;.:.;.;.:.;.;.| } ;.| ;.;.;.;.;.' ' ] ' { ' ' g p C V V V V s g ' ' ' ` ' ' ' { ' ' ' ' ' ' ' { ' ' ' .X.X.X.X.X.X.X.X.X.X",
".X.X.X.X.X.X.X.X.X.X.X.X.X.X;.:.:.;.;.:.:.;.;.;.;.:.;...' ' | :.;.;.| } ' ' ' ' ' ..N Y I Z V : p c ..' { ' ' ' ' { ' { ' ' ' ' ' ' ' ' ' ' .X.X.X.X.X.X.X.X.X.X",
".X.X.X.X.X.X.X.X.X.X.X.X.X;.;.;.;.;.;.;.;.;.;.:.:.:.O.0 > < ' ;.;.} O.' ' { ' _ ' X.~ ( ^ I C u g k ..' ' ' { ' ' ' ' ' ' ' ' ' ' ' ' ' ' ' .X.X.X.X.X.X.X.X.X.X",
".X.X.X.X.X.X.X.X.X.X.X.X.X;.;.;.:.;.;.:.;.;.;.:.:.:.} < o @ 0 } { _ 5 5 5 _ ' ' ` #.g.M./ E S v ..' { ' ' ' ' ' ' ' ' ' ' ' ' ' ' ' ' ' ' ' .X.X.X.X.X.X.X.X.X.X",
".X.X.X.X.X.X.X.X.X.X.X.X;.;.;.;.;.;.;.;.:.;.;.;.:.:.} >     # < > > @ % < 4 ' { { X.6.g.b.~ ~ U X._ [ ' ' ' ' ' ' ' ' ' ' { ' ' ' ] ' ' ' .X.X.X.X.X.X.X.X.X.X.X",
".X.X.X.X.X.X.X.X.X.X.X.X;.;.;.;.;.;.;.:.;.;.;.;.:.:.} 1 o O O O o o o X + < 5 ' ' ] ] X.u.M./ g.X._ ' ' ' { ' ' ' ' ' ' ' ' ' ' ' ' ' ' .X.X.X.X.X.X.X.X.X.X.X.X",
".X.X.X.X.X.X.X.X.X.X.X.X;.;.;.;.;.:.;.;.;.;.:.;.:.:.;.<.3.e $ O 8 L e $ X + 1 5 ` ' ) ' &.M.Q.c.@.' [ ' ' ' ' ' ' ' ' ' ' ' ' ' ' ' ' .X.X.X.X.X.X.X.X.X.X.X.X.X",
".X.X.X.X.X.X.X.X.X.X.X.X;.;.;.;.;.;.;.:.:.;.:.;.:.| <.].|.R.e $ 0.{.E.w X   + , 2 ' [ ' G G.J.Q o.[ ' ' ' ' ' ' ' ' ' ' ' ' ' ] ' { ' .X.X.X.X.X.X.X.X.X.X.X.X.X",
".X.X.X.X.X.X.X.X.X.X.X.X;.;.;.;.;.:.;.;.;.;.;.;.;.;.<.}. X{.L = t. X{.3.X     + 2 ' [ ] G D.F.W o.[ [ ' ' ' ' ' ' ' ' ' ' ' ' ' ' ' ' ' .X.X.X.X.X.X.X.X.X.X.X.X",
".X.X.X.X.X.X.X.X.X.X.X.X:.;.;.;.:.;.;.:.;.;.;.;.;.;.>.e.r.0.8 # L r.q.9       + 2 ` ` ` G D.H.z.o._ _ ..' ' ' ' ' ' ' ' ' ' { ' ' ' ' ' .X.X.X.X.X.X.X.X.X.X.X.X",
".X.X.X.X.X.X.X.X.X.X.X.X;.;.;.:.;.;.;.;.;.:.;.;.;.:.;.q 9 # o X # $ $ O       + 2 ' [ ] G D.H.F o.{ _ ..{ ' ' ' ' ' ' ' ' ' ' ' { ' ' .X.X.X.X.X.X.X.X.X.X.X.X.X",
".X.X.X.X.X.X.X.X.X.X.X.X;.;.;.;.;.;.;.;.:.;.;.:.;.;.O.6 @ X               X + > 2 { *.y.Q ! ! J o._ { { ' ' ' ' ' { ' ' ' ' ' ' ' ' ' .X.X.X.X.X.X.X.X.X.X.X.X.X",
".X.X.X.X.X.X.X.X.X.X.X.X:.;.;.;.;.:.:.;.;.;.;.;.;.:.;._ 1 > o           O @ 1 5 ) O.z.P.K.z.G X...' { { ' ' ' ' ' ' ' ' ' ' ' ' ' ' .X.X.X.X.X.X.X.X.X.X.X.X.X.X",
".X.X.X.X.X.X.X.X.X.X.X.X;.;.;.:.;.;.;.;.;.:.;.:.;.;.;.;.] 2 @ o O X X O + < 5 { O.1.n.T.P.y...[ _ ..' ' ' ' ' ' ' ' ' ' ' ' ' ' ' .X.X.X.X.X.X.X.X.X.X.X.X.X.X.X",
".X.X.X.X.X.X.X.X.X.X.X.X:.;.;.;.;.:.:.;.;.;.;.;.:.;.;.} ' 5 1 , , < > > < 6 ` *.z.v.L.n.p.*.{ ) .._ ' ' _ ..' { ' ' ' ' ' { ' ' { .X.X.X.X.X.X.X.X.X.X.X.X.X.X.X",
".X.X.X.X.X.X.X.X.X.X.X.X;.;.;.;.;.;.;.;.;.;.;.;.;.;.;.{ ] ` _ _ ` 0 0 0 0 ` ' y.P.T.n.1.X.' ' ' _ ' ' ' ..' ' ' ' { ' ' ' ' ' ' ' .X.X.X.X.X.X.X.X.X.X.X.X.X.X.X",
".X.X.X.X.X.X.X.X.X.X.X.X;.:.;.;.;.;.:.;.;.;.;.;.;.;.;.} ..' ' { { ] { [ ] %.y.x.P.P.p.X._ [ ' ' ..' ' ' ' ' ' ' ' ' ' ' { ' ' ' ' .X.X.X.X.X.X.X.X.X.X.X.X.X.X.X",
".X.X.X.X.X.X.X.X.X.X.X.X;.;.;.:.:.;.;.;.;.;.;.;.:.;.;.O.' ' ' ' ' { ` [ O.p.P.P.x.y.%.' [ ' ' ' ' ' ' ' ' ' ' ' ' ' ' ' ' ' ' ' ' .X.X.X.X.X.X.X.X.X.X.X.X.X.X.X",
".X.X.X.X.X.X.X.X.X.X.X.X:.;.;.;.;.;.:.;.:.;.;.:.;.;.|  .' ' ' ' ' ' ' X.1.n.T.P.y...' ' ' ' ' ' ' ' ' ' ' ' ' ' ' ' ' ' ' ' ' ' ' .X.X.X.X.X.X.X.X.X.X.X.X.X.X.X",
".X.X.X.X.X.X.X.X.X.X.X.X;.;.;.;.:.;.;.;.;.;.;.;.:.;.| O.{ ' _ _ ) [ %.p.n.L.n.p.%._ [ ' ' ' ' ' ' ' ' ' ' ' ' ' ' ' ' ' ' ' { ' ' .X.X.X.X.X.X.X.X.X.X.X.X.X.X.X",
".X.X.X.X.X.X.X.X.X.X.X.X.X;.:.;.;.;.:.;.:.;.;.:.:.:.:.} { ' ' ' ` ..y.P.T.n.1.X.] ' ' ' ' ' ' ' ' ' ' ' ' } ' ' ' ' ' { ' ' ' ' ' .X.X.X.X.X.X.X.X.X.X.X.X.X.X.X",
".X.X.X.X.X.X.X.X.X.X.X.X.X;.;.;.;.;.;.:.;.:.;.;.;.:.;. .' *.s.h.d.a.x.K.P.z.X._ _ ' ' ' ' ' ' ' ' ' ' ' ' ' ' ' ' } ' ' ' ' ' ' .X.X.X.X.X.X.X.X.X.X.X.X.X.X.X.X",
".X.X.X.X.X.X.X.X.X.X.X.X.X.X:.;.:.;.;.;.;.;.;.;.;.;.;._ ' s.W.~.!.Y.L.c.y.%.' ` ' ' ' ' ' ' ' ' ' ' ' ' ' ' ' ' ' ' ' ' ' ' { .X.X.X.X.X.X.X.X.X.X.X.X.X.X.X.X.X",
".X.X.X.X.X.X.X.X.X.X.X.X.X.X.X;.;.;.;.;.;.;.:.;.:.;.;. .O.f.~.`.).^.U.i.' [ ' ' ' ' ' ' ' ' ' ' ' ' ' ' ' ' ' ' ' ' ' ' ' ' .X.X.X.X.X.X.X.X.X.X.X.X.X.X.X.X.X.X",
".X.X.X.X.X.X.X.X.X.X.X.X.X.X.X:.;.;.;.:.;.:.;.;.;.:.|  .;.h.!.)._.(.Y.y.' ) ' ' ' ' ' ' ' ' ' ' ' ' ' ' ' ' ' ' ' ' ' ' ' .X.X.X.X.X.X.X.X.X.X.X.X.X.X.X.X.X.X.X",
".X.X.X.X.X.X.X.X.X.X.X.X.X.X.X;.;.:.;.;.:.;.;.;.;.;.;.| ;.a.Q.^.(./.U.i.] _ { ' ' ' ' ' ' ' ' ' ' ' { ' { ' ' ' ' ' ' ' .X.X.X.X.X.X.X.X.X.X.X.X.X.X.X.X.X.X.X.X",
".X.X.X.X.X.X.X.X.X.X.X.X.X.X.X;.;.;.;.;.;.;.:.;.:.;.:.| ;.k.v.Y.T.U.v.1.' ` ' ' { ' ' ' ' ' ' ' ' ' ' ' ' ' ' ' ' ' ' .X.X.X.X.X.X.X.X.X.X.X.X.X.X.X.X.X.X.X.X.X",
".X.X.X.X.X.X.X.X.X.X.X.X.X.X.X;.;.:.:.;.:.;.;.;.:.:.;.| ;.$.1.y.i.i.=.o.' ' ' ' ' ' ' ' ' ' ' ' ' ' ' ' ' ' ' ' ' { .X.X.X.X.X.X.X.X.X.X.X.X.X.X.X.X.X.X.X.X.X.X",
".X.X.X.X.X.X.X.X.X.X.X.X.X.X.X:.;.;.;.;.;.;.:.;.;.:.:.:.;.;.| { ..' ] { ' ' ' ' ' ' ' ' ' { ' { ' ' ' ' ' ' ' ' ' ' .X.X.X.X.X.X.X.X.X.X.X.X.X.X.X.X.X.X.X.X.X.X",
".X.X.X.X.X.X.X.X.X.X.X.X.X.X.X.X:.;.;.;.;.;.:.;.;.;.;.:.;.| |  .[ [ ' { ' ' ' ' ' ' ' ' ' ' ' ' ' { ' { ' ' ' ' ' ' .X.X.X.X.X.X.X.X.X.X.X.X.X.X.X.X.X.X.X.X.X.X",
".X.X.X.X.X.X.X.X.X.X.X.X.X.X.X.X.X;.;.:.:.;.;.;.;.:.;.;.:.:.:.| } ' ' _ ' ' ' ' ' ' ' ' ' ' ' ' ' ' ' ' ' ' ' { ' .X.X.X.X.X.X.X.X.X.X.X.X.X.X.X.X.X.X.X.X.X.X.X",
".X.X.X.X.X.X.X.X.X.X.X.X.X.X.X.X.X.X;.;.;.;.:.;.;.:.;.:.:.:.:.| ' 4 1 6 2 5 ' ' ' ` ' { ' ' ' ' ' ' ' ' ' ' ' ' ' .X.X.X.X.X.X.X.X.X.X.X.X.X.X.X.X.X.X.X.X.X.X.X",
".X.X.X.X.X.X.X.X.X.X.X.X.X.X.X.X.X.X.X;.:.;.;.;.;.;.;.;.;.;.:.| 2 @ o + @ 1 ) ' ' ' ' ' ' ' { ' ' ' ' ' ' ' ' ' .X.X.X.X.X.X.X.X.X.X.X.X.X.X.X.X.X.X.X.X.X.X.X.X",
".X.X.X.X.X.X.X.X.X.X.X.X.X.X.X.X.X.X.X.X:.:.;.;.;.;.:.:.| >.:.{ 1 + . . + 1 k ] ] ] ] ] ] { ' ' ' ' } ' ' ' ' .X.X.X.X.X.X.X.X.X.X.X.X.X.X.X.X.X.X.X.X.X.X.X.X.X",
".X.X.X.X.X.X.X.X.X.X.X.X.X.X.X.X.X.X.X.X.X:.:.;.:.:.;.#.#.@.#.+.h - * * ; y n @.@.@.@.@.#.#.' .X.X' ' ' ' .X.X.X.X.X.X.X.X.X.X.X.X.X.X.X.X.X.X.X.X.X.X.X.X.X.X.X",
".X.X.X.X.X.X.X.X.X.X.X.X.X.X.X.X.X.X.X.X.X.X:.;.;.:.| #.n m b v v d d d v m 4.4.4.4.4.5.4..X.X.X.X.X.X.X.X.X.X.X.X.X.X.X.X.X.X.X.X.X.X.X.X.X.X.X.X.X.X.X.X.X.X.X",
".X.X.X.X.X.X.X.X.X.X.X.X.X.X.X.X.X.X.X.X.X.X.X:.;.>.$.@.b b b b b b b b m P 5.5.7.5.5.5.5..X.X.X.X.X.X.X.X.X.X.X.X.X.X.X.X.X.X.X.X.X.X.X.X.X.X.X.X.X.X.X.X.X.X.X",
".X.X.X.X.X.X.X.X.X.X.X.X.X.X.X.X.X.X.X.X.X.X.X.X$.4.=.m b b b b b b b b b P P 5.7.5.5.5.5..X.X.X.X.X.X.X.X.X.X.X.X.X.X.X.X.X.X.X.X.X.X.X.X.X.X.X.X.X.X.X.X.X.X.X",
".X.X.X.X.X.X.X.X.X.X.X.X.X.X.X.X.X.X.X.X.X.X.X.X.X5.4.4.b b b b b b b b m P 5.5.5.5.5.5.5..X.X.X.X.X.X.X.X.X.X.X.X.X.X.X.X.X.X.X.X.X.X.X.X.X.X.X.X.X.X.X.X.X.X.X",
".X.X.X.X.X.X.X.X.X.X.X.X.X.X.X.X.X.X.X.X.X.X.X.X.X7.P P b b b b b b b b b P 5.5.5.5.5.5.5..X.X.X.X.X.X.X.X.X.X.X.X.X.X.X.X.X.X.X.X.X.X.X.X.X.X.X.X.X.X.X.X.X.X.X",
".X.X.X.X.X.X.X.X.X.X.X.X.X.X.X.X.X.X.X.X.X.X.X.X.X5.P P b b b b b b b b m P P 5.5.5.5.5.5..X.X.X.X.X.X.X.X.X.X.X.X.X.X.X.X.X.X.X.X.X.X.X.X.X.X.X.X.X.X.X.X.X.X.X",
".X.X.X.X.X.X.X.X.X.X.X.X.X.X.X.X.X.X.X.X.X.X.X.XM P M M b b b b b b b b b M P 4.5.5.5.5.P &..X.X.X.X.X.X.X.X.X.X.X.X.X.X.X.X.X.X.X.X.X.X.X.X.X.X.X.X.X.X.X.X.X.X",
".X.X.X.X.X.X.X.X.X.X.X.X.X.X.X.X.X.X.X.X.X.X.Xb b b M b b b b b b .X.X.X.Xb M M P P 5.P &.m z .X.X.X.X.X.X.X.X.X.X.X.X.X.X.X.X.X.X.X.X.X.X.X.X.X.X.X.X.X.X.X.X.X",
".X.X.X.X.X.X.X.X.X.X.X.X.X.X.X.X.X.X.X.X.X.X.XM M b b b b b b b .X.X.X.X.Xb b m 5.7.u.7.4.@.z .X.X.X.X.X.X.X.X.X.X.X.X.X.X.X.X.X.X.X.X.X.X.X.X.X.X.X.X.X.X.X.X.X",
".X.X.X.X.X.X.X.X.X.X.X.X.X.X.X.X.X.X.X.X.X.X6.6.4.M b b v b b .X.X.X.X.X.Xj n &.l.C.S.S.j.*.z l .X.X.X.X.X.X.X.X.X.X.X.X.X.X.X.X.X.X.X.X.X.X.X.X.X.X.X.X.X.X.X.X",
".X.X.X.X.X.X.X.X.X.X.X.X.X.X.X.X.X.X.X.X.X.Xl.j.9.&.b v b b .X.X.X.X.X.X.X.Xl 8.C.].[.].Z.,.z h .X.X.X.X.X.X.X.X.X.X.X.X.X.X.X.X.X.X.X.X.X.X.X.X.X.X.X.X.X.X.X.X",
".X.X.X.X.X.X.X.X.X.X.X.X.X.X.X.X.X.X.X.X.X.X.XV.j.&.n v b .X.X.X.X.X.X.X.X.Xz ,.Z.A.].].C.,.z h .X.X.X.X.X.X.X.X.X.X.X.X.X.X.X.X.X.X.X.X.X.X.X.X.X.X.X.X.X.X.X.X",
".X.X.X.X.X.X.X.X.X.X.X.X.X.X.X.X.X.X.X.X.X.X.XV.9.&.n j .X.X.X.X.X.X.X.X.X.X.X*.,.9.N.A.N.=.X.l .X.X.X.X.X.X.X.X.X.X.X.X.X.X.X.X.X.X.X.X.X.X.X.X.X.X.X.X.X.X.X.X",
".X.X.X.X.X.X.X.X.X.X.X.X.X.X.X.X.X.X.X.X.X.XB.j.9.%.z .X.X.X.X.X.X.X.X.X.X.X.X.Xl @.,.9.9.*.l .X.X.X.X.X.X.X.X.X.X.X.X.X.X.X.X.X.X.X.X.X.X.X.X.X.X.X.X.X.X.X.X.X",
".X.X.X.X.X.X.X.X.X.X.X.X.X.X.X.X.X.X.X.X.Xj.9.6.=.@..X.X.X.X.X.X.X.X.X.X.X.X.X.X.Xl %.=.=.%..X.X.X.X.X.X.X.X.X.X.X.X.X.X.X.X.X.X.X.X.X.X.X.X.X.X.X.X.X.X.X.X.X.X",
".X.X.X.X.X.X.X.X.X.X.X.X.X.X.X.X.X.X.X.XV.N.-.%.n .X.X.X.X.X.X.X.X.X.X.X.X.X.X.X.X.X@.@.n .X.X.X.X.X.X.X.X.X.X.X.X.X.X.X.X.X.X.X.X.X.X.X.X.X.X.X.X.X.X.X.X.X.X.X",
".X.X.X.X.X.X.X.X.X.X.X.X.X.X.X.X.X.X.X.XV.B.-.z l .X.X.X.X.X.X.X.X.X.X.X.X.X.X.X.X.X.Xl l .X.X.X.X.X.X.X.X.X.X.X.X.X.X.X.X.X.X.X.X.X.X.X.X.X.X.X.X.X.X.X.X.X.X.X",
".X.X.X.X.X.X.X.X.X.X.X.X.X.X.X.X.X.X.X.XV.j.-.@.l .X.X.X.X.X.X.X.X.X.X.X.X.X.X.X.X.X.X.X.X.X.X.X.X.X.X.X.X.X.X.X.X.X.X.X.X.X.X.X.X.X.X.X.X.X.X.X.X.X.X.X.X.X.X.X",
".X.X.X.X.X.X.X.X.X.X.X.X.X.X.X.X.X.X.X.Xj.j.-.@.l .X.X.X.X.X.X.X.X.X.X.X.X.X.X.X.X.X.X.X.X.X.X.X.X.X.X.X.X.X.X.X.X.X.X.X.X.X.X.X.X.X.X.X.X.X.X.X.X.X.X.X.X.X.X.X",
".X.X.X.X.X.X.X.X.X.X.X.X.X.X.X.X.X.X.X%.=.-.*.z .X.X.X.X.X.X.X.X.X.X.X.X.X.X.X.X.X.X.X.X.X.X.X.X.X.X.X.X.X.X.X.X.X.X.X.X.X.X.X.X.X.X.X.X.X.X.X.X.X.X.X.X.X.X.X.X",
".X.X.X.X.X.X.X.X.X.X.X.X.X.X.X.X.X.Xz z o.n @..X.X.X.X.X.X.X.X.X.X.X.X.X.X.X.X.X.X.X.X.X.X.X.X.X.X.X.X.X.X.X.X.X.X.X.X.X.X.X.X.X.X.X.X.X.X.X.X.X.X.X.X.X.X.X.X.X",
".X.X.X.X.X.X.X.X.X.X.X.X.X.X.X.X.Xz z l l l .X.X.X.X.X.X.X.X.X.X.X.X.X.X.X.X.X.X.X.X.X.X.X.X.X.X.X.X.X.X.X.X.X.X.X.X.X.X.X.X.X.X.X.X.X.X.X.X.X.X.X.X.X.X.X.X.X.X"
};
