/* XPM */
static char *result[] = {
/* columns rows colors chars-per-pixel */
"80 80 185 2 ",
"   c #040302",
".  c #09090D",
"X  c #060608",
"o  c #090911",
"O  c #0D0E1B",
"+  c #0D101C",
"@  c #0F1916",
"#  c #0F1223",
"$  c #101425",
"%  c #13182E",
"&  c #0E1835",
"*  c #151C36",
"=  c #1A1E36",
"-  c #161E3A",
";  c #181F3D",
":  c #142225",
">  c #1B332F",
",  c #18203E",
"<  c #172434",
"1  c #1D3738",
"2  c #272B3A",
"3  c #292D3D",
"4  c #262337",
"5  c #372B37",
"6  c #2B343D",
"7  c #213F3E",
"8  c #3A3F3C",
"9  c #37373C",
"0  c #452A1B",
"q  c #4A2E1D",
"w  c #4C311F",
"e  c #493521",
"r  c #543521",
"t  c #5C3A23",
"y  c #5A3721",
"u  c #4B3231",
"i  c #5E3A31",
"p  c #523A3E",
"a  c #663C27",
"s  c #623E3A",
"d  c #683E33",
"f  c #22423F",
"g  c #35403E",
"h  c #4E4428",
"j  c #5E4D29",
"k  c #53492A",
"l  c #5A582E",
"z  c #5B5A33",
"x  c #654125",
"c  c #6A4528",
"v  c #6D4F2A",
"b  c #7C482D",
"n  c #7E512C",
"m  c #6C4135",
"M  c #7A4A36",
"N  c #675A2C",
"B  c #616639",
"V  c #62693B",
"C  c #6E6F35",
"Z  c #7C753A",
"A  c #70733F",
"S  c #766533",
"D  c #131F46",
"F  c #191F43",
"G  c #141D48",
"H  c #162146",
"J  c #1B2446",
"K  c #162149",
"L  c #1C2549",
"P  c #1E294F",
"I  c #1F2846",
"U  c #1E2752",
"Y  c #1F2951",
"T  c #1D2A58",
"R  c #222644",
"E  c #232A47",
"W  c #2B2C45",
"Q  c #232D4C",
"!  c #392F41",
"~  c #2D3444",
"^  c #26314C",
"/  c #2B314C",
"(  c #2D384A",
")  c #2A3A47",
"_  c #303246",
"`  c #333C47",
"'  c #343C4A",
"]  c #383D4E",
"[  c #222D57",
"{  c #222D58",
"}  c #293452",
"|  c #273759",
" . c #343D54",
".. c #3B3B52",
"X. c #403B46",
"o. c #403140",
"O. c #374244",
"+. c #3B4543",
"@. c #3A444C",
"#. c #3B4648",
"$. c #3B4353",
"%. c #3F4858",
"&. c #294E52",
"*. c #2B4465",
"=. c #2D5362",
"-. c #335B73",
";. c #32596B",
":. c #346767",
">. c #3B7575",
",. c #494146",
"<. c #5C4C45",
"1. c #584E48",
"2. c #595747",
"3. c #444E5D",
"4. c #4F4751",
"5. c #584D51",
"6. c #725A44",
"7. c #7B5C43",
"8. c #7D5344",
"9. c #7C6144",
"0. c #6B7149",
"q. c #6B7246",
"w. c #4A5464",
"e. c #475160",
"r. c #635368",
"t. c #6A696B",
"y. c #6C7562",
"u. c #717A67",
"i. c #676F7B",
"p. c #7A7E71",
"a. c #8B4C2F",
"s. c #83552E",
"d. c #8A5A2E",
"f. c #935F2F",
"g. c #854C33",
"h. c #9A6433",
"j. c #976333",
"k. c #A96E37",
"l. c #AC7036",
"z. c #B37538",
"x. c #9B5C43",
"c. c #836544",
"v. c #916E48",
"b. c #977143",
"n. c #987243",
"m. c #887C44",
"M. c #A67B44",
"N. c #A4715B",
"B. c #3F807A",
"V. c #7C8142",
"C. c #7C846C",
"Z. c #8B883E",
"A. c #8B8C44",
"S. c #8F924F",
"D. c #88905B",
"F. c #95984C",
"G. c #AB8E43",
"H. c #BD8A42",
"J. c #AFAB45",
"K. c #87906E",
"L. c #8D827D",
"P. c #C49242",
"I. c #DC9F41",
"U. c #DDA441",
"Y. c #DABD42",
"T. c #F0B540",
"R. c #E4B542",
"E. c #D8D044",
"W. c #F8CA41",
"Q. c #F2D943",
"!. c #3E7487",
"~. c #636A92",
"^. c #9E7C87",
"/. c #448293",
"(. c #4C9B97",
"). c #458B8D",
"_. c #54A7B0",
"`. c #5BBABA",
"'. c #848F98",
"]. c #828A88",
"[. c #A5898B",
"{. c #8691AF",
"}. c #9594BF",
"|. c #9697AD",
" X c None",
/* pixels */
" X X X X X X X X X X X X X X X X X X X X X X X X X X X X X X X X X X X X X X X X X X X X X X X X X X X X X X X X X X X X X X X X X X X X X X X X X X X X X X X X",
" X X X X X X X X X X X X X X X X X X X X X X X X X X X X X X X X X X X X X X X X X X X X X X X X X X X X X X X X X X X X X X X X X X X X X X X X X X X X X X X X",
" X X X X X X X X X X X X X X X X X X X X X X X X X X X X X X X X X X X X X X X X X X X X X X X X X X X X X X X X X X X X X X X X X X X X X X X X X X X X X X X X",
" X X X X X X X X X X X X X X X X X X X X X X X X X X X X X X X X X X X X X X X X X X X X X X X X X X X X X X X X X X X X X X X X X X X X X X X X X X X X X X X X",
" X X X X X X X X X X X X X X X X X X X X X X X X X X X X X X X X X X X X X X X X X X X X X X X X X X X X X X X X X X X X X X X X X X X X X X X X X X X X X X X X",
" X X X X X X X X X X X X X X X X X X X X X X X X X X X X X X X X X X X X X X X X X X X X X X X X X X X X X X X X X X X X X X X X X X X X X X X X X X X X X X X X",
" X X X X X X X X X X X X X X X X X X X X X X X X X X X X X X X X X X X X X X X X X X X X X X X X X X X X X X X X X X X X X X X X X X X X X X X X X X X X X X X X",
" X X X X X X X X X X X X X X X X X X X X X X X X X X X X X X X X X X X X X X X X X X X X X X X X X X X X X X X X X X X X X X X X X X X X X X X X X X X X X X X X",
" X X X X X X X X X X X X X X X X X X X X X X X X X X X X X X X X X X X X X X X X X X X X X X X X X X X X X X X X X X X X X X X X X X X X X X X X X X X X X X X X",
" X X X X X X X X X X X X X X X X X X X X X X X X X X X X X X X X X X X X X X X X X X X X X X X X X X X X X X X X X X X X X X X X X X X X X X X X X X X X X X X X",
" X X X X X X X X X X X X X X X X X X X X X X X X X X X X X X X X X X X X X X X X X X X X X X X X X X X X X X X X X X X X X X X X X X X X X X X X X X X X X X X X",
" X X X X X X X X X X X X X X X X X X X X X X X X X X X X X X X X X X X X X X X X X X X X X X X X X X X X X X X X X X X X X X X X X X X X X X X X X X X X X X X X",
" X X X X X X X X X X X X X X X X X X X X X X X X X X X X X X X X X X X X X X X X X X X X X X X X X X X X X X X X X X X X X X X X X X X X X X X X X X X X X X X X",
" X X X X X X X X X X X X X X X X X X X X X X X X X X X X X X X X X X X X X X X X X X X X X X X X X X X X X X X X X X X X X X X X X X X X X X X X X X X X X X X X",
" X X X X X X X X X X X X X X X X X X X X X X X X X X X X X X X X X X X X X X X X X X X X X X X X X X X X X X X X X X X X X X X X X X X X X X X X X X X X X X X X",
" X X X X X X X X X X X X X X X X X X X X X X X X X X X X X X X X X X X X X X X X X X X X X X X X X X X X X X X X X X X X X X X X X X X X X X X X X X X X X X X X",
" X X X X X X X X X X X X X X X X X X X X X X X X X X X X X X X X X X X X X X X X X X X X X X X X X X X X X X X X X X X X X X X X X X X X X X X X X X X X X X X X",
" X X X X X X X X X X X X X X X X X X X X X X X X X X X X X[ L J J J L J J J L  X XJ J L  X X X X X X X X X X X X X X X X X X X X X X X X X X X X X X X X X X X X",
" X X X X X X X X X X X X X X X X X X X X X X X X X X X X[ Y L J J J J J J L J J L J J J J  X X X X X X X X X X X X X X X X X X X X X X X X X X X X X X X X X X X",
" X X X X X X X X X X X X X X X X X X X X X X X X X X X{ [ [ P J I J L J J J L J J J J L J  X X X X X X X X X X X X X X X X X X X X X X X X X X X X X X X X X X X",
" X X X X X X X X X X X X X X X X X X X X X X X[ [ [ [ { [ [ Q J J J J J J J J J L J L  X X X X X X X X X X0 0  X X X X X X X X X X X X X X X X X X X X X X X X X",
" X X X X X X X X X X X X X X X X X X X X X X[ [ [ [ [ [ [ Y P J J L J L L J L J J J  X X X X X X X X X Xq q q  X X X X X X X X X X X X X X X X X X X X X X X X X",
" X X X X X X X X X X X X X X X X X X X X X{ { { [ [ [ [ P L J J L J J J J J J L J  X X X X X X X X X Xq r r r e  X X X X X X X X X X X X X X X X X X X X X X X X",
" X X X X X X X X X X X X X X X X X X X X{ [ [ { [ [ [ Y L J J J J J J L L J J J  X X X X X X X X X X0 q y c x r 0  X X X X X X X X X X X X X X X X X X X X X X X",
" X X X X X X X X X X X X X X X X X X X X{ [ I ; H L [ L J H H J J J L J J J J J  X X X X X X X X Xq e r c n n t 0  X X X X X X X X X X X X X X X X X X X X X X X",
" X X X X X X X X X X X X X X X X X X X X{ Y * + $ - L L , H J J J L J J J L J L  X X X X X X0 0 0 r t c d.h.h.n  X X X X X X X X X X X X X X X X X X X X X X X X",
" X X X X X X X X X X X X X X X X X X X X{ Y , : % * J Q | | P J J J J J J J J J  X X X X Xe w 0 0 r c n j.l.z. X X X X X X X X X X X X X X X X X X X X X X X X X",
" X X X X X X X X X X X X X X X X X X X XT | ;.>.:.1 < =./.!.*.P J J J L L J L L  X X X Xl k h e 0 y n j.k.z. X X X X X X X X X X X X X X X X X X X X X X X X X X",
" X X X X X X X X X X X X X X X X X X X X[ *./.`.).f : >.`._.-.L F J J J J J J J  X X Xq.V B z h w a d.l.z. X X X X X X X X X X X X X X X X X X X X X X X X X X X",
" X X X X X X X X X X X X X X X X X X X XL | !.(.B.> @ &.(.).&.* = J L J J J H F  X Xt.u.y.0.V l j v d.f. X X X X X X X X X X X X X X X X X X X X X X X X X X X X",
" X X X X X X X X X X X X X X X X X X X XL P ) &.> @ . > f f : @ % F J L J H , * F | ~.{.'.y.V C Z S v x a  X X X X X X X X X X X X X X X X X X X X X X X X X X X",
" X X X X X X X X X X X X X X X X X X X XP F $ .       X       . $ ; J J J , - * ; } ~.}.|.C.q.V.A.Z j 0  X X X X X X X X X X X X X X X X X X X X X X X X X X X X",
" X X X X X X X X X X X X X X X X X X X X X* o                 X $ ; L L J J , - - E r.^.[.N.C.D.F.Z.N  X X X X X X X X X X X X X X X X X X X X X X X X X X X X X",
" X X X X X X X X X X X X X X X X X X X X X XX X               . $ , L L J J H H ; 4 s x.N.].].K.S.A. X X X X X X X X X X X X X X X X X X X X X X X X X X X X X X",
" X X X X X X X X X X X X X X X X X X X X X X$ O . X         . + * , J J J K J 2 5 u a b 8.t.~.y.0.A  X X X X X X X X X X X X X X X X X X X X X X X X X X X X X X",
" X X X X X X X X X X X X X X X X X X X X X[ J * # .       . $ * ; H L J J K J ! d g.a u _ ..] ` 8 8  X X X X X X X X X X X X X X X X X X X X X X XL L  X X X X X",
" X X X X X X X X X X X X X X X X X X X X[ [ P J * O X X . + * J L J J J L R W p b a.i 4 * * = * = =  X X X X X X X X X X X X X X X X X X X X X XH J J  X X X X X",
" X X X X X X X X X X X X X X X X X X X[ [ [ Y L ; * # # $ % ; J L L J G J o.s d m i 5 = & & % * & * *  X X X X X X X X X X X X X X X X X X X X- - , ,  X X X X X",
" X X X X X X X X X X X X X X X X X X[ [ [ [ Q J J H H , , H J J J L L L ! X.a.g.u 4 * * * * * * * * * *  X X X X X X X X X X X X X X X X X X- * = * -  X X X X X",
" X X X X X X X X X X X X X X X X X[ [ { [ [ Y J J J L J L L J L G J W X.<.M g.d 5 * & * * * * * * * * * *  X X X X X X X X X X X X X X X X* * * * * *  X X X X X",
" X X X X X X X X X X X X X X X X X[ [ { [ [ P J J J L L L J J J G J ! 9.b.7.p 5 4 * & * * * * * * * * *  X X X X X X X X X X X X X X X X* * * * * * =  X X X X X",
" X X X X X X X X X X X X X X X X X X[ [ [ [ [ L L J J J J J J L E _ <.n.M.6._ F D * * * * * * * * * * * *  X X X X X X X X X X X X X X* * * * * * * *  X X X X X",
" X X X X X X X X X X X X X X X X X X[ { [ [ [ L P L J J L H K E ,.6.c.c.6.,.E G F ; - * * * * * * * * * * *  X X X X X X X X X X X X* * * * * * * *  X X X X X X",
" X X X X X X X X X X X X X X X X X{ [ [ [ [ [ [ Y L L J J H H _ 6.M.n.<.~ I L J J H ; - * * * * * - * * * * *  X X X X X X X X X X* * * * * * * *  X X X X X X X",
" X X X X X X X X X X X X X X X X X[ { [ [ [ [ [ [ J K K J W ` <.c.n.c.X.J G J J J J , , = * * * * * * * * * * *  X X X X X X X X* * * * * * * *  X X X X X X X X",
" X X X X X X X X X X X X X X X X{ [ [ [ [ [ { [ [ K G G K X.c.n.c.<.` W J K J L J J H H , - * * * * * * * * - * * * * * * * * * * * * * * * * *  X X X X X X X X",
" X X X X X X X X X X X X X X X[ [ [ { [ [ [ { [ } / _ W _ <.n.M.6._ L K J J J J J J J L H , * * * * * * * * * * * * - * * * * * * * * * * * * = -  X X X X X X X",
" X X X X X X X X X X X X X X X[ { [ [ [ [ [ { { ..1.7.7.6.7.9.6.,.E K K J J J J L J L J , , * * * * * * * * * * * * * * * * * * * * * = , H H , ,  X X X X X X X",
" X X X X X X X X X X X X X X X[ { { { { [ [ T { 4.v.H.P.H.b.1.~ E R J J J J J J J J L J H - * = * * * * * * * * * * * * * * * * * * * , , J J J J  X X X X X X X",
" X X X X X X X X X X X X X X X{ [ { { [ [ [ [ { 5.M.U.T.R.G.1.H G J J , J J J J L J L J J , - , ; - * * * * * * * * * * * * * , = , , H J J L J J  X X X X X X X",
" X X X X X X X X X X X X X X X[ [ { [ { [ [ T { 5.M.U.W.Q.J.2.L G K J , , , J J L J J R J , H , J , - * * * * * = * * * * * , , J , J J J J J J J  X X X X X X X",
" X X X X X X X X X X X X X X X[ { [ [ [ [ [ Y { 4.v.P.Y.E.J.2.R G J H - * , H J J J J J J J L J J H - - * - * = * - * * = - , J J J J L J J J L  X X X X X X X X",
" X X X X X X X X X X X X X X X[ [ [ [ [ [ [ T | ..1.9.m.A.0.#.J K J H - * - , , , , H J J L J L J J J , , , , , , , , , , , H J L J L J J L J  X X X X X X X X X",
" X X X X X X X X X X X X X X X{ { [ { [ [ [ { [ } / _ ' ` / E J J J H - * * * = * - , J J J J J J J J J J J J J J J J J J J J J J L J J J J  X X X X X X X X X X",
" X X X X X X X X X X X X X X X[ [ [ [ { [ { [ [ [ U G K G G J J J J J = * * * * * * , , J J J J J J J J J J J J J J L J L J J J J J J L J L  X X X X X X X X X X",
" X X X X X X X X X X X X X X X[ { [ [ [ [ [ { [ [ U U K K K J J J J H - * * * * * * = - , J J J J J J J J J J J J J J L J J J J J L J J J J  X X X X X X X X X X",
" X X X X X X X X X X X X X X X[ [ [ { [ { [ [ [ { { [ P L J J L J J , , = * * * * * * * , , J H J J J J J J J J L J J J J L J J J J L J L J  X X X X X X X X X X",
" X X X X X X X X X X X X X X X{ [ { [ [ [ [ [ { { { Y P L L J J L J J J , - * * * * * * = , , , , J J J L L J J L J J J J J L J  X XJ J  X X X X X X X X X X X X",
" X X X X X X X X X X X X X X X[ [ [ [ [ { [ { [ [ { [ P L L L J J L J J H , * * * * * * * * - * = - , J J J J J J J J J L J J  X X X X X X X X X X X X X X X X X",
" X X X X X X X X X X X X X X X[ [ { [ [ [ [ [ [ [ { Y P J J J J J J J L J , , - * * * * * * * * * * , , J J J H H J J J J J  X X X X X X X X X X X X X X X X X X",
" X X X X X X X X X X X X X X X[ [ { [ { [ [ [ { { [ Y Y L J J L L J J J J J J , * * * * * * * * * * - ; - - - - , ,  X X X X X X X X X X X X X X X X X X X X X X",
" X X X X X X X X X X X X X X X{ [ [ [ [ { [ { { [ | [ Q I I L J J J L J J J J , , = * - = - * * * * * * * * * * =  X X X X X X X X X X X X X X X X X X X X X X X",
" X X X X X X X X X X X X X X[ { [ { [ [ [ [ { { } } ( ( ~ E E J J J J L J J J J , , , , , , , = * * * * * *  X X X X X X X XJ  XJ L  X X X X X X X X X X X X X X",
" X X X X X X X X X X X X X{ [ { [ [ { [ { [ { Y } ' O.O.O.) W J J L J J J J J J H J H J J J H , * * * * *  X X X X X X XJ J J L J J L  X X X X X X X X X X X X X",
" X X X X X X X X X X X X{ { [ [ { [ [ { [ [ [ [ / ' g ,.g O.) L J J J J J J J J L L J J L J J J - - = , ,  X X X X X XL J J J L J J J  X X X X X X X X X X X X X",
" X X X X X X X X[ { { { { { [ { [ [ [ [ { [ [ [ } ` +.+.+.#.^ Y P L J J L J J J J J J L L J J J , J H J J J J L L J J J L J J J L J  X X X X X X X X X X X X X X",
" X X X X X X X X{ { { { { [ { [ [ { [ { { { { { } @.+.+.O.) | [ U L J J L J J J J L J J J J J L J J L J L J J J J J J L J L J L J  X X X X X X X X X X X X X X X",
" X X X X X X X X X{ [ { [ [ [ [ [ [ [ [ { { [ {  .$.@.#.g ) ) [ [ Y U P P P J J J J J L L J J J J J L J J J J L L J J J J J J J  X X X X X X X X X X X X X X X X",
" X X X X X X X X X X{ { { [ { { [ { { { { { [  X Xe.3.@.g 6 ^ [ [ [ [ [ [ L J J L J J J J L J J J J J J J J J J L J J J L J L  X X X X X X X X X X X X X X X X X",
" X X X X X X X X X X X{ [ { { { [ [ { { [ [  X X Xw.3.@.6 6 Q [ { { [ [ [ [ P J P P L J J J L J J L J L J L J L J J J L J J  X X X X X X X X X X X X X X X X X X",
" X X X X X X X X X X X X X X X X X X X X X X X X Xw.3.@.6 2  X X{ [ [ [ [ [ [ [ Y Y L L J J J J L J J J J L J J J J L J J J J  X X X X X X X X X X X X X X X X X",
" X X X X X X X X X X X X X X X X X X X X X X X X Xw.3.$.~ 6  X X X[ [ [ [ [ { [ [ [ Y L L L L L L E L L L L L L L L J J J L  X X X X X X X X X X X X X X X X X X",
" X X X X X X X X X X X X X X X X X X X X X X X X X X3.%.$.' _  X X X X X[ [ { { [ [ [ P P P P P [ L P P P P P P P L J  XJ  X X X X X X X X X X X X X X X X X X X",
" X X X X X X X X X X X X X X X X X X X X X X X X X X X3.3.$._ 3  X X X X X[ [ [ [ [ [ [ T [ [ [ [ [ [ [ [ [ [ [ [ [  X X X X X X X X X X X X X X X X X X X X X X",
" X X X X X X X X X X X X X X X X X X X X X X X X X X X3.%.@._ 6 2  X X X X X{ [ [ [ [ [ [ [ { [ [ { [ [ { { { { {  X X X X X X X X X X X X X X X X X X X X X X X",
" X X X X X X X X X X X X X X X X X X X X X X X X Xw.3.$.' ~ 3 2 2  X X X X X X X X X[ [ [ [ [ [ [ [ {  X X X X X X X X X X X X X X X X X X X X X X X X X X X X X",
" X X X X X X X X X X X X X X X X X X X X X X X X Xw.3.$.W 2 2 3  X X X X X X X X X X X[ [ [ [ [ [ [  X X X X X X X X X X X X X X X X X X X X X X X X X X X X X X",
" X X X X X X X X X X X X X X X X X X X X X X X X X X3.]  X X X X X X X X X X X X X X X X X X X{  X X X X X X X X X X X X X X X X X X X X X X X X X X X X X X X X",
" X X X X X X X X X X X X X X X X X X X X X X X X X X X X X X X X X X X X X X X X X X X X X X X X X X X X X X X X X X X X X X X X X X X X X X X X X X X X X X X X",
" X X X X X X X X X X X X X X X X X X X X X X X X X X X X X X X X X X X X X X X X X X X X X X X X X X X X X X X X X X X X X X X X X X X X X X X X X X X X X X X X"
};
