/* XPM */
static char *result[] = {
/* columns rows colors chars-per-pixel */
"80 80 220 2 ",
"   c #010101",
".  c #040A07",
"X  c #03030D",
"o  c #06110E",
"O  c #040613",
"+  c #060A1A",
"@  c #091717",
"#  c #321F1C",
"$  c #0D211D",
"%  c #34211D",
"&  c #3C231A",
"*  c #090D24",
"=  c #070C2B",
"-  c #07122D",
";  c #0A122D",
":  c #0E1B2C",
">  c #1C1A2A",
",  c #0D1533",
"<  c #0E1936",
"1  c #0B153B",
"2  c #0E1B3B",
"3  c #121635",
"4  c #1A1537",
"5  c #131936",
"6  c #1A1C34",
"7  c #111738",
"8  c #1D1539",
"9  c #121B3C",
"0  c #1C1C3C",
"q  c #271E27",
"w  c #231B38",
"e  c #231C3E",
"r  c #0E2420",
"t  c #15322E",
"y  c #0D223B",
"u  c #11243D",
"i  c #1C203B",
"p  c #193A36",
"a  c #2A222E",
"s  c #332325",
"d  c #3C2A26",
"f  c #23223C",
"g  c #2A2638",
"h  c #322A33",
"j  c #352B3E",
"k  c #3D2C3F",
"l  c #373335",
"z  c #432413",
"x  c #462916",
"c  c #4A2B16",
"v  c #492B1A",
"b  c #4E3319",
"n  c #55341C",
"m  c #58341A",
"M  c #613A1C",
"N  c #412B27",
"B  c #4C3525",
"V  c #533829",
"C  c #4E373B",
"Z  c #593C36",
"A  c #623E23",
"S  c #653D37",
"D  c #1C413E",
"F  c #5B4622",
"G  c #4B4337",
"H  c #555036",
"J  c #6C4526",
"K  c #66582A",
"L  c #6C4337",
"P  c #74543B",
"I  c #6F6D3D",
"U  c #766E37",
"Y  c #7B7639",
"T  c #0A1847",
"R  c #0D1B45",
"E  c #141F45",
"W  c #1C1D44",
"Q  c #121F49",
"!  c #1A1F48",
"~  c #241E45",
"^  c #2B1B44",
"/  c #251F49",
"(  c #2B1E49",
")  c #341A46",
"_  c #341E49",
"`  c #3A1E4B",
"'  c #0E2345",
"]  c #0F2D4C",
"[  c #112346",
"{  c #1A2245",
"}  c #132B43",
"|  c #1B2A45",
" . c #132549",
".. c #1A234C",
"X. c #122B4B",
"o. c #1C2B4D",
"O. c #0F374F",
"+. c #143145",
"@. c #12324E",
"#. c #19314F",
"$. c #163B4C",
"%. c #193B4C",
"&. c #1B2552",
"*. c #1C2956",
"=. c #1E2A59",
"-. c #143650",
";. c #1A3451",
":. c #133B52",
">. c #193D54",
",. c #202344",
"<. c #2A2442",
"1. c #232B44",
"2. c #2B2B43",
"3. c #23244A",
"4. c #2B234B",
"5. c #282C4D",
"6. c #332643",
"7. c #362B42",
"8. c #3B2B46",
"9. c #34224D",
"0. c #3C214D",
"q. c #342B4D",
"w. c #3B2C4E",
"e. c #24314A",
"r. c #3C3546",
"t. c #232653",
"y. c #222956",
"u. c #2C2957",
"i. c #2C2C55",
"p. c #342552",
"a. c #3C2653",
"s. c #342C55",
"d. c #3A2A52",
"f. c #302E58",
"g. c #223352",
"h. c #2D3959",
"j. c #363158",
"k. c #363658",
"l. c #401F4E",
"z. c #41234D",
"x. c #462B4D",
"c. c #512E4F",
"v. c #47304C",
"b. c #53344F",
"n. c #452453",
"m. c #4A2554",
"M. c #422A55",
"N. c #4B2A51",
"B. c #482B59",
"V. c #4E2A5B",
"C. c #532A59",
"Z. c #532A5C",
"A. c #423053",
"S. c #4B3353",
"D. c #443559",
"F. c #4D335C",
"G. c #533757",
"H. c #543454",
"J. c #5A3454",
"K. c #5C3A54",
"L. c #5E355B",
"P. c #543959",
"I. c #5C3A5A",
"U. c #633B57",
"Y. c #62375A",
"T. c #663C59",
"R. c #6A3E59",
"E. c #562B60",
"W. c #503160",
"Q. c #1E4240",
"!. c #134356",
"~. c #194256",
"^. c #114857",
"/. c #1B4956",
"(. c #144658",
"). c #1A4659",
"_. c #154B5B",
"`. c #1B4C5C",
"'. c #16515E",
"]. c #1C525E",
"[. c #22444F",
"{. c #294C55",
"}. c #2C405B",
"|. c #244C5E",
" X c #20535F",
".X c #2A585A",
"XX c #1E4E60",
"oX c #1D5561",
"OX c #1E5963",
"+X c #2F4B68",
"@X c #205662",
"#X c #285060",
"$X c #215D65",
"%X c #235F68",
"&X c #226066",
"*X c #226068",
"=X c #336D67",
"-X c #356679",
";X c #367370",
":X c #484344",
">X c #454E4A",
",X c #5C4A42",
"<X c #515644",
"1X c #545845",
"2X c #434154",
"3X c #57455B",
"4X c #725A42",
"5X c #63425A",
"6X c #6C4159",
"7X c #7E6142",
"8X c #6F7043",
"9X c #6F7345",
"0X c #854A32",
"qX c #846542",
"wX c #997241",
"eX c #A87C40",
"rX c #3E827E",
"tX c #4A9997",
"yX c #53A8B0",
"uX c #57B7B2",
/* pixels */
"[ [ -.$XoX[ [ `.oX).`.$X~.X.OX$XoX[ [ X.[ [ oX#.).OX@X*X*X*X*XOX).-.X.@.~.@X%X$XOX*XOX*XOX%X`.`.OX*X_.OXOXOX:.] ' ).oX:.^.OXXX] oX:.!.!.:._.X.[ O.!.`.`.@X@X@X@.",
"X.X.oXOX].[ [ X.*X`.).>.).*X@XoX[ $XOX`.[ [ >.).-.$X%X$X*X*X*XOX>.-. .-.~.@X%XOX%X_.*XOX).:.] @._.$X*X_.!.OXOX-.X.).O.!.oXOX]  .-.).:.!.(._. .X.O._.~.`.>.~.>.X.",
"~.~.~.@X-.[ ' `.*XX.). .*X*X~.OX[ *X*X).X.[ [ [ `.OX%X%X*X*X*X*X).:.-.-._.oXoX%XOX%XOX-.-.~.X.O._.'.&XoX!.^.oX$XoX).-.(.$X%X]  .oX`.:.!.OX(. .] ~.!.!.`.>. XX.' ",
"`.~.).OX~.[ @.~.%X`.`.X.$X$X].].[ @X*X].`.X.[  .@.`.].OX*X*XOX*X%X>.-.:.oXXXOX%X(.*XoX:. .-.X.X.!.O.oXOXOX^.:.%XoX$XO.oX%X(. .] `.(.oXXX`.X.[ ~.O.:._.>.~.`.X.E ",
").@X`.OX:.[ ).:.*X`.OX~.*X*X$XoX[ ).*X].~.].$X[ X.:.oXXXOX*X*XOX*X*X:.XX%XOXOX(.`.*X).~.[ [ :.>.X.@.).$X*XOX^._.oX%X-.%X%X~.X.~.:. .OXoXX.[ @.).] !.].>./.:.[ [ ",
"oX%X|.]._.[ ].`.&X*X*X@.*X*X].OX$X].).).~.|.$X$XoX(._.oXoX*XOXOXOXOXoX*X%XOX%XOX`.$X-.X. .-.).~.' X._.OX$X*X^.!.oXOXOX%XOX[ ).>.~.] X.>.[ [ XX-.:._.'._.@.~.#.[ ",
"`.%X`.#.oXX.`.*XoX%X!.X.*X).`.OX*X~.X.`.~.@.$X*X$X$X:.:.oX*X*X*XOXOXOXOX^.OXOX%XoX*X~.~.#.oX@X>. .[ X.`.oXOX!.:.:.O.OXOX'  .`.X. .~.-.[  .@.-.).~.@X!.).] ].oX[ ",
"-.%X[ [ ].~.X.*X!.%X`.@.*X].@X$X*X] X.].#.-.].*XoX$XoX-.'.OXOXOX*XOXOXOXOXOX!.OXXX*X~.`.>.`.`.-. .' [ X.:.@.!.(.] ] `.~.:.-.O.-.-.).>. .X.-.).`.(._.`.X.X.(.-.' ",
"[ *X[ [ OX' ] *X^.OX:.] *X$XoX*X*X:.] X.[ oX].*X`.XXoXOX-.OX(.oXoX^.OXXXOX!.!.OX*XoXX.:._.oX).`.#.[ [ X.oXX.].OXX.[ X.$X$XoX_.!.O.O.] X.-.`.oXoXoX$XoXX.[ ].~.[ ",
"[ $X' [ OX .X.$X].*X@.:.OX$X].%X*X'.@.] [ OX].*X).:.~.oXOX:.(.oXXX]  .O.oX:.:.oX*X(.#.).XXOXoX~.:.-.X.`.].-.[ `.[ [ ~.). .`.:.oXoX:.] -.>.oXOXOXoX@. .[  .XX~.X.",
"[ *X[ [ ).[ X.`.`.oX] ] ' X.].].*X`.:.-.[ OX#.*X$X~.).-.OX(.oXO.@.:.' oX:.-.:.oXOX-.X.OXoXoXoX`.~.`.).oX`.~.[ OX[ X.~.`.:.O._._.!.XX!.OXoXoXOXXX~.X.[  .X.`.>.>.",
"$X$X[ [ `.[ ' X.] ).X. . .X.oX'.*XOX`.oX[ `.' ].`.`.`.!.oXOXoXX. .oX-.).~.:.).`.].~.X.:.oX_.XXoX`.XX~.].].;.[ OXX.).:.).`.] :.]._._.OXOXoXoXXX^.:.X. .X.>.).`.oX",
"$X[ [ [ ].@X].~.[ ' [ ' [ X.oX:.*X*XOX).X.$X`.' @.XXOXOXoXOX:.X.-.~.oX[ ).`.:.oX`.~. .-.oX!._.OXOX@X`.>.~.~.[ $X).].[ `.:.@.:.^.oX'.oXOXOXoX_.!.:.X.@.-.].oX$X$X",
"oX[ X.-.].*X$X$X[ [ [ X.@.:.OX:.OX*XOXX.~.$X$XX.oXoX$X*XOX_.).~.XXX.XX' `.X.).X.).#.-.-._.(._.oX%X$XXXoXX.).R ].].`.[ OX~.X.O.:.oX'.oXOXOXXX^.!.:.:.`.`._.oXOX*X",
"#.' ~.oX*X$XOX].[ [ X.~.`.].].O.:.oXOX[ ).*X&X$.&X!.*X*XoX~.:.~.:.~.>. .X.-.].!.).`.:.:.`.oX!.`.$X$X`.oX .[ [ oX~.).@.$X[ X.-.O.XXoXoXOXOX_._._.`.`.~.).'.&XOXoX",
"E -.).OX*X:.].@.X.X.~.`.oX@. .X.).X.OX$.].$X$X`.&X!.&X$X`.~.~.>.-.~.[ X.@.oXOXoXOXOXoX~.).OXoX`.@X$X$X$XX.E [ ].).).].].[ ).).] O.OX_.'.OX^.OXOX_.XX$X@XOXOXOX_.",
"@.oX).OXOX`.:.O.~.@.@.OX&X/.[ @.].[ ].].].$X&X'.&X&X&X*X_./.X.`.~.>.X.X.$.OXOXOX].].*X]. X*X$X`.@X$X%XoXX.[ ' -.).`.].].@.~.%.[ X.:._.^.oX^.&XoX'.OX$X*XOX$X^.^.",
"XXoX~.oX(.oX-.oX .`.$X@X].[  .@X[ @.&X X].$X$X!.&X&X$X/.'.X.[ `.`.`.;.-.:.:.O.%.+.~.].OX/.$X$X`.oX%X$XoX:.@.`.$.].@XOX].$X@.).[ } ] ~.:.&XOX&X]._.*X&X&X$XoX:.O.",
"oX@XOX>.oX@.] *X} &X&X&X`.X.#.&X*X$X&X XOX:.].]. X&X$X X].[ [ X.-.>.).)._.-.} u u +.~.].@X*X&X`.&X*X*X`.].$.&X&X$X@XOX).*X~.$X@X[  .:.@.&X*XOX). X&X&X&X]./.@.O.",
"OXoX$X).`.OX*X$X~.&X&X&X>.oX@.*X&X$X&X[ OX).Q./.`.&X&X$X-.[  .X.>.`.oX].).$.2 2 < u +./.`.*X&X$X$X'.*X!.]. X&X&X$X$X*X$X*X$X&X&X[ [ :.@X&X&X*X`.$X$X&X&XOX]  . .",
"*X*X*X*XOX$X*X*X`.&X$X&X X].$X&X&X`.*X X[ $.u +./.$X$X&XO.!.^.^.!.:.X.' 9 2 < , < < 5 +./.$X&X&X&XX.@X@X$X X&X&X].@X*X:.&X$.&X*X[ [ `.@X&X&X&X[ [ &X&X&X$X[ [ [ ",
"%X@X`.).).).@XOX&X&X X&X*X!.$X&X&X[ @X&X X$.5 u %./././.} ].:.].:.OXoXX.9 , , , ; , < u %./. X$X*XX.} &X$X&X&X&X$.X.@X@X$X@.'.*X[ [ @X[ &X*X X[ }  X X&X X[ [ [ ",
"$X).o.X.o.;.~.*X*X*X[ $XOX!.*XOX&X[ [ @X].$.< < u u u } $.`.@X].$X%X%X>.u , , , , , , < u +.~.@X*X X'. XO.$X&X].:.] } $X$XX. .].[ oX`.`. X&X[ [ [ $X[ $X&X[ `.[ ",
"@X~.o.[ [  .;.].].].E ].].$.OX@. X$X[ [ X.%.< , < < < < u ~.].' @X@X%X~.} < , , , , , , < 9 +.@X&X&X&X#.~.&X&X~.$.] @X*X$X[ }  .! $X} `.[ &X[ [ X.$X@X*X&X`.@X[ ",
"OX`.>.*.[ E ..o.>.[ E E ~.X.@.@.$X*X' [ X.$., , , , , , 9 u i $.$.~.OX).o., , , , , , , , 3 1..X@X.X$Xk.h.h.g.g.-.oX*X$X`.[ W ,.U.@X{  .[ `.[  .$X*X$X*X*X&X*X' ",
"`.oX].).#.E [ E  . .E ! ..[ [ @X*X*X[ [ [ y < , , , , , , , 5 2 5 @.2XK.x.6 , , , , , , , 6 7.K.6X5XU.I.P.B.d.9.$X%X*XXX .I.^ ) R.J.^ { [ [ [ @.*X*X$X$X].*X&X[ ",
"@.).*XoX~. .E E E E E E E [ [ XXoX{ { { [ 9 u 9 5 , , , , , , , , i 7.v.<.6 , , , , , , , 5 <.v.K.T.6X5XR.U.N.n.%X%XOXg.t.R.H.) R.R.^ { [ X.X.$X$X$X@X`.[ *X*X[ ",
"~.X.*XOX#XX.[ [ E E E E E { ..;.~ ^ ^ ,.W ' { 1.i , , , , , , , , 6 0 f 0 3 , , , 3 , , , , 4 f 8.K.6X6XR.R.R.R.3XT.3X5XI.T.R.U.R.R.^ { [ -.*X*X*X$X-.} [ *X*X[ ",
"[ [ $XoX%XX.[ o.[ ! E E E E E Q W |.^ ^ / { 5.r.f < , , , , , , , , , , , , , , , , , , , , , , w v.U.6X6X6XR.R.R.R.R.R.R.U.I.T.T.R.H.W  .$X*X*X*X@X .{ [ $X).[ ",
"'  .OX$X%XX.`.>.E  .E E E E E E X.;.~ ~ / 4.d.H.g , , , , , , , , , , , , , , , , , ; , , , , , 6 <.x.H.R.5XR.R.R.R.R.R.T.G.S.F.I.n.J.( ,.$X].$X$X} ' ' [ ' [ [ ",
"[ `.%X$X$X[ $X[ E ;.Q E E E E E .. .! W 3.A.K.b.<.3 , , , , , , , , , , , , , , , , , , , , , , , 7 6 0.G.E.E.L.R.R.6X6X5XD.j.j.G.6Xm.` <.$X~.*X$.[ [ [ [ [ [ [ ",
"[ $X%X*XOX .*X[ [ >.o. .[ ! E E [ E E E { p.S.v.6.~ 4 , , , , , , , , , , , , , 9 9 9 9 , , , , , , 6 f 0.m.Z.Z.R.R.5XG.S.f.=.f.G.6XZ.n.` i.@XOX] [ [ [  .$X&X[ ",
"[ $X*X*X[ `. X' [ @X . .{ E E E E E [ E E 3.3.4.a.a.^ 7 , , , , , , , , , , < 2 E E ..E 9 , , , , , 7 6 w ( n.E.Z.H.K.A.u.*.*.f.P.6XT.Z.m.p.|.o.|  .@X*X$X&X$X[ ",
"@X*X*X*X`.`.[ X.$XOX .>...E [ E E E ! E E E Q 4.N.S.8.6 , , , , , 3 5 5 > 3 5 9 E ..&...E , , < , , , , 9 f v.Z.R.H.9.u.*.*.=.f.S.6X6XT.R.m.0.4.W $X*X*X&X&X X[ ",
"@X$X*X@X$X[ [  .%XX.[ >. .E E E E E E E E E E 3.q.w.<.E , , , , , 6 h d d q > i Q ..&. .E 9 E E E , , 9 E 4.M.m.P.A.f.*.*.*.*.u.M.J.K.U.6XT.m.` <.&X&X&X$X&X .[ ",
"[ [ *X@X@X[ ' o.OX:.X.>.! [ E E E E E E E E E { { ! ! E 9 1 , , < a V J B x s i E Q E E E E Q .. .9 < E &.{ 4.0.p.u.y.=.*.*.*.t.9.z.c.U.R.R.U.m.` $X].~.$XOXX.[ ",
"[ @X*X$X[ X.X.$X*X:.X. .! ,.{ E E { E Q E E E Q E E Q E E 7 , , , a B A M m N g E E E E E Q &.*...E E  .&.&.3.( u.y.*.*.*.*.*.t.9.` n.J.R.R.Y.T.n.` |.g.oX#.*X{ ",
"[ $XOX[ X.%.$X*X*X@.o.a.S.w.3.[ E E E E E E E E E E ! [ 9 1 , , , q N n M A V g E E E E E Q ..*.*.&...&.*.y.t.t.*.*.*.*.*.*.y.f.G.n.m.c.c.T.T.T.R.m.d.5.e.3.$X/ ",
"[ %X$X .@.&X$X$X#. .V.n.R.G.q.{ Q E E E E E E E E E E E E , , , , > % c M J Z j E E E E E Q ! *.*.*.*.=.*.*.*.*.*.*.*.*.*.*.*.f.H.Y.m.N.l.l.R.l.R.R.m.a.9.( $X( ",
"[ *X$X-.*X*X*X).o.~ ` U.6XH.H.w.~ { E E E ! [ E E E E E E , , , , > % c M J G h 9 R E ! E E  .&.&.*.=.=.=.=.*.*.*.*.*.*.*.*.=.t.a.Y.R.l.l.) J.T.R.R.m.U.` _ %X^ ",
"%X$X|.$X*X$X].[.4.m.` R.R.R.T._ 4.! [ ! E E E E E ! E E E 7 , , , > # x M J V h 5 1 [ E E E E E { &.&.*.*.*.*.*.*.*.*.*.*.*.*.&.^ ` U.Y.m.l.) Y.J.R.R.R.T.9.$X{ ",
"%X`.).*X*X&X!.g.V.V.` R.R.6XR.n.p.! E E E E E E E E E E E 9 2 , 3 > % x m M V s > 6 E Q E E 7 ; , 7 9 9 1 E ! *.*.*.*.*.*.*.y...W ^ ` Y.V.m.l.` ) R.R.R.6Xp.*X' ",
"$X~.:.*X*X].-.V.C.` z.R.R.6XU.n.p.{ E E E E E E E E E E E E 9 1 , > % z c b c & # w W [  .E ; O X X O X X * E *.=.*.*.*.*.*.*.t.W 4 ^ ` n.m.n.n.` ) R.0.T.p.$X' ",
"$XX.oX$X*X-.X.Z.Z.` R.6XR.R.` n.M.3.E E E ! [ E E E [ E E E E 7 , q % z z z x b v h 0 E 9 2 : @ o     . @ :  .*.*.*.*.*.*.*.*.t.8 4 4 ^ ` m.m.m.l.` 6X` V.s.|.' ",
":.X.].&XOXO.[ n.Z.` R.R.R.U.U.L.G._ / E E E E E E E E ! E E E E 9 6 % x z z b K I G | , = : {.;X.X$ . D ;X-X|.*.&.*.*.*.*.*.*.t.~ 8 ^ ) l.n.m.m.J.R.R.` Z.k.g.-.",
"[  .'.*X!.] [ [ Z.` R.U.Y.n.R.R.n.` ( W E E E E E E E E E E E E E f s z z z F U Y <X1.= O @ ;XuXtXp o =XuXyX-X=.&.*.*.*.*.*.y.t.4.` a.n.m.n.n.n.Y.R.R.` W.k.$X`.",
"[ [ @.OX!.] [ [ Z.` R.H.Z.m.R.R.` ) ^ W E E E [ [ E E Q E E E Q { f a d b F K I 8X>X1.=   o .XtXrXt o .XtXtX+X=.&.*.*.*.*.*.=.t._ 0.Z.Z.Z.m.l.a.m.R.R.` D.+X&X$X",
"'  .O.$.@. .[ @.Z.` R.H.m.m.U.U.) ) ~ W E E E ! E E ! E E E E E E 9 0 g H U I <Xe.%.{ ; X   r Q.p o . $ Q.{.=.*.*.*.*.*.*.=.&.t./ ` Z.E.E.Z.n.m.j.R.` ` j.}.&X].",
"[ X.:.$. .' X.>.$X` z.N.W Z.@XH.) e 8 E W E E E E E E E E E E E E E E 1.1X9X8X:X<.{ E , +                 + 9 *.=.*.*.*.*.*.*.y.W ) n.C.Z.Z.Z.B.R.5X` ` o.@X*X'.",
"X.~.-.[ [ [ [ -.%X0.a.N.0.z.n.n.) ^ 4 ^ / W E E E W E E E E E E E E E ..>X1XH L Z k W 1 , +               X 9 t.=.*.*.*.*.*.*.t.W ^ ) n.C.E.Z.R.R.` 9.` @.&X&X^.",
"$X).#. .[ [  .X.$Xk.*XF.0.m.N.x.0.) ^ / _ W R E E E E E E ! E E E E E E { 1.C P 0XS <.E R , +             O 9 *.=.*.*.*.*.*.*...8 4 w ` l.Z.E.l.0.9.@Xj.OX*XOX^.",
"$X`.>.X.'  .OX . .X.OXOX*XT.I.N.0.` W 2 ! ~ E E E E E E E  .E E E E E E R Q k S 0XL C j { E = + X X X     O 9 *.=.*.*.*.*.*.*.t.W 4 4 e ` l.` ` }.$XOX&X*X*X*X^.",
"*X@X~.$.X.$X%X[ [ [ @.OX*X$X*XV.M.` { E 9 o.`.[ E E E Q E E E E E E E Q Q E { j C S 0XS 7.E 1 , , , ; X   O 9 *.=.*.*.*.*.*.*.! W w 8 +.$X` h.#X$X%X@X$X*X*X*X^.",
"*X$X X X$XOX@XQ [ ' X.X.$X*X*X%.a.n.3.E } $X~.9 E E E E E E E E E E E E E E E E <.S 0X0XC 7.{ { E E 9 * X + 9 *.=.*.*.*.*.*. .E [ 7 %.g.%X#X5X%X$X%X' X.@.$X$X^.",
"*X&X&X&X%XOX`.$X).*XOX .@.*X*X@X .{ Z.;.;.oX X{ E 9 E [ E [ ! E E E E E E E E R { k S P 4X4X:X3.T Q E ; * ; [ *.=.*.*.*.*.E E E [ ; oX#X%X0.$XoX$X$XE [ [ $.oX!.",
"$X&X$X&XOX$X`.@X`.*X@X'  .OX*X*X$XoX|.@X$XoX'.$.E E 9 2 E E E E E E E E E E E E E ! <.L wXeX4X2.E E E R 9 { ..*.*.*. .E E E E { [ %.].*X$X*X$X$X$X$X[ E [ X.] O.",
"$X&X$XOX:.@.[ [ [ @X$X[ [ X.*X*X&XOX`.{ oXOX@X%.- < } y +.u < 9 [ E E E E E E E E R E {.7XwXqXH v.,.E R R E Q  ...[ E E E E %.E %.$X].$X$X$.`.$X' $XOX[ [ [ [  .",
"&X$X!.!.$.@X`.} -.].@XOX$X*X*X$X*X[ [ [ oXOX$X].X./.$./.].- ~./.2 E [ 2 9 E 2 E [ R `.{.{.,XqXwXU r.R T [ E ..[ E  . .[ E %.2 /.+./.&X$XOX$.`.' X.$XOXOX[ [ [ [ ",
"&X&X@.@.OX$X&X].*X&X X$X*X$X&X&X*X&X' [ `.oX$X X;.`./.$X!..X$X%.$.~.{ [ 9 $.2 :.2 ,  X$X~.f l G P g } E E E E 2 -.%.9 }  X$.].`. X/.$X$XOXO.X.' -.%X-.*X[ [ ' [ ",
"&X&XO.X.*X*X$X].*X*X X ./.&X&X&X&X*X[ } $X$X$X*X*X*X$Xu $X].].$X].$.y 2 X.2 /.$.; `.:  X|.; < - $./.+.9 E [ Q.].@X!.$X X X].%. X).&X*X&X*X:.X.X.-.$XOXOXOX[ [ [ ",
"&X*X@.} *X&X X&X*X$X:.X.' *X&X&X*X&X$X[ OX&XOX*X$X&X].&X[ $X$X$X X]./.].$././.`.]./.u /.{.!.y ]. X/.u +.<  .~.].'././.$X XoX-.X.$X&X&X&XoXO.X.X.O.&X&XOXoX$X@X[ ",
" X$X@.:. X$X&X&X*X].@.X.[ *X&X$X&X*X&X~.$.$X$X[ *X&X$X&X@.$X$X$X&X$X&X$X$X$X$X$X*X Xy  X].u $.- ].&X!.$.+. X].&X$X`.OX@X~.$.$X$X&X$X&X XoX~.X. .-.*X*X*XoX%X%X[ ",
"@.X.X.@.&X&X$X*X*X$. .} [ $X&X&X*X$X$XXX).>.#.[  X&X&X&X`.@X@X$X&X&X&X&X$X*X$X$X]. X XOX$X$X&X&X&X X X].*X$X$X$X X%.' ).`.~.oX*X&X&X*X].~.@.).[ ].`.$X$XOX[ `.E ",
" .[ X.$X*X*X*X*X$X`.[ '  .].$X&X*X*X*X$XoX`.-.+. .&X&X X/.].].].&X X&X*X*X@X/.~.].*X[ $.].$X&X&X X&X&X'.$X$X$X$X>.[ X.X.`.~.@X&X&X*X@.X.~.' `.[ /.' [ [ [ ' E ' ",
"' OX*X$X$X$X$X*X%X%XE [ ' X.`.$X*X$X$X*X$X@X).;.X.*X*X$X].~.).$X*X&X&X&XOX:.).E %X$X~.[ $X$X$XOXoXOX$X:.*X$X;.$XX.-.X.X.~.:.oX@X*X*X[ $.-.[ oX[ X.-.-.-.X.X.[ [ ",
"@X*X$X~.*X*X@X$X$X%X .' [ X.#.*X`.@X*X*X$X$XoX`.).`.@X$X).>.$X*XOX*X&X&X:.`.[ $X$X[ '  .oX$X`.X.oX-.`.X.*X} oXoX`._.`.~.!.XXX.$X&X].[ ~.>.[ oX-.~.oX(.`.] X.X.[ ",
"%X*X$X@.].@X~.~.).$X$X[ [  . .X.).).].*X*X*X*XOXoX~.X.$X).%X%X*XOXOX*X!.`._.$XoX`.[ [ ~.oXoX . .X.OX .[ $X-.oX@XOXOXOXOXOXoXX.$X X`.[ ~.-.Q oX$X$X$X!.OX-.X.] ] ",
"$X`.XX . . .`. .`.[ %X[ [ [ [ [ @.|.`.$X*X*X*XOX@X~.-.>.`.$X$X$XOXoXoX:.].OX@X[ [  .[ `. .[ ' @XOX%X[ ' :.oX*X$XOXoX*X_._.-.] `.>.].[ ~.~.[ [ $X*X*XOX%X`.-.X.@.",
"`.~.-.X.@.%.X.X. .[ $X[ ' E  .X.~.).(.oX$X*X*XOXOX).:.).OX*X$X$XOX'.^.!.oXoXX.$XX.-.:.O.X.[ [ %X*X@XE [ `.%X%X`.OXOX*XoXO.] X.@.).X.:.:.:.X.[  .$X*XOX*X`.`.] ] ",
"E `.X.;.~.`.$X>.X.[ `.[  .$X~.`. .X.oXOX*X$X*X*XOX%XOX$XoX%X$X$XOX'.!.^.oXX.$XOX-._.OX`.(.[ [ %X$XR ' [ `.%X*X*X*X%X%X-.@.X.X.).X.@.].].OXX.X.[ [ *X$X$X%XoX'.] ",
"[ [ X.>.%X%X%X>.X.`.[ X.#.%X:.[ [ ] :.OX*XoXOX*XOX*X*X_._.%X$X$XoX'.].oX:.:.%XX.`.oXOX~.).X.-.$X$X[ [  .%X*X*X*X*X%X*X@.[ ' [  .X._.].!.`.@.X.' [ `.*X-.*XOXOX*X",
"X.X.$XoX%X%X$X>.`.]. .~.] %X .' X.@.:.oXoX%XOX*XOXoX*X_._.*XoX$XoX].(.oX-.X.%XX.oX:._.(.(.`.oX).#.X.X.-.%X%X-.*X%X$X$X:.[ [ X. .X.`.oX!._.] X. . .oX%X-.*X*XOXOX",
"%X$X$X%X%X%X`.%XXXoX-.-.`.*X] X.~.$.-.@.!.*X'.&XOXXXOX*X'.'.OXoXoX'.'.'.O.X.%X].]._.`.`.oX$X-.`.`.:.>.~.$X~.$X%X%X_.$X).X.E ).[ X.oX&X_.`.] @.;.:.oX$X).OX*XOXOX",
"%X%X%X*X*X*XOXOX:.oX@.`.oX*X>.:.[ [  .@.`.$XOX].OXOX_.*X_.oX'.OX'.].^.oX@.' $XOX:.oX].(.~.@X).>.`.oXoX>.XX`.%X`.OX_.*X].~.E `.' @.OX_.'.:.:.(.:.;.oXXXoXoXOXoXoX",
"*XOX%X*X%XOX%X$XoXX.(.oXoX*XOX-.X.' ' :.oXoX*X_.^.OXoX*X'.'.OXOX'.!.^.].@.X.X.].:.OX]._.-.#. X/.oX@X@X).-.`.%X_.OX`.*XoX-.[ `.#._.OXoX].:._.:.oX>.$X$XoX].OX!.^.",
"$X*X*XOX$X!.%XoX:.~.oXOX_.OX%X`.@.X. .~.).$XoX$X^.OXOX*X_.OX'.OX'.!.:.:.O.@.:._.:.'.).!.X.~.].).XXoXoX`.`.(.-.XXOX:.$X`.).[ `.`.`.`._.oX`.@X).XXoXoXoXoX_.^.:.:.",
"oX*XOXoXOXOX%XoX>.~.O._.OX%X*XOX~.].:.' ].OX~.*X!.oXOX%XXXoXXXOX`.:.] O.:._.'.oX:.].`.~.[ X.].'.`.oXOXXX_.OX>.-.!.).$X~.`.#.].].oX-.`.$X:.@X~.X.(.oX_._.(.:.@.] ",
"oX%XoX_.oXOXoX:.`.X.] :.].%XOX*XoXOX~.X.oXOX^.*X_.`.*XoX^._.oXoXOX:.] @.].oX:.:._.].oX' ' X.`.`.(._.OXOXOXOX>.-./.:.OX[ `.`.>.oX].X.`./.~. .~.@.).oX!.^.:.@.X.X.",
"OXOXoXoXX.-.].E >. .O.:._.*XOXOXOXOX:.:.].OXOX$X_.)._.oX:.XXoX'.OX).:.] :.:.!.:.].X.oX[ [ [ ] oX:.'.oXOXOXOX`.:.~.].].[ OXOX@.).`.X.`.-.~.~.(.~.-.:.!.!.O.X.[ [ ",
"!.^.oX_.X.XX>.[ [  .] :.(.$XOX^.OX@X].OXX.OX$X_.`.O.] ' OX^.OX!.OX~.~.] O.!.!.`.OX[ ' [ [ [ ] OX!.OXoXOX*XOXoX`.].$X~.[ OX).`.@X>.).oX>.oX$X).X.] :.^.O.] X.[ R "
};
