/* XPM */
static char *result[] = {
/* columns rows colors chars-per-pixel */
"80 80 31 1 ",
"  c #101F44",
". c #0E2044",
"X c #112346",
"o c #122749",
"O c #122B4B",
"+ c #12324E",
"@ c #19324E",
"# c #143650",
"$ c #143B52",
"% c #193E54",
"& c #124356",
"* c #194256",
"= c #144658",
"- c #1A4659",
"; c #154B5B",
": c #1B4C5C",
"> c #16515E",
", c #1B515E",
"< c #23415A",
"1 c #2A445A",
"2 c #234A5E",
"3 c #294D5F",
"4 c #24515F",
"5 c #1D5561",
"6 c #1E5963",
"7 c #284A60",
"8 c #205562",
"9 c #215B64",
"0 c #235F68",
"q c #216067",
"w c #236169",
/* pixels */
"XX#94XX,4*28*O88,oX@.X,@*890www5*#o@-806655$;>O;69;;&>$OX-,&&:OO5#%&$;oO+&>:494+",
"OO58,XXO6,-*;*98o$X:XX%:#;49qww9*#O#%8065;;+-$O#;6>&&&;#o:$&>>Oo#:$&;;oo$;&-$**O",
"***9#XX:,O-X,:-,.,+:O.XX-,,9wq08-#@#-665;,&+#*O+>>6&&&$,#=#;4>OX>:$%6=oO;$=:%4O ",
":**6*X+-:;:O,,,,o44,-@XX+::56006,%#$5>5;&:5%X+O+&$,>&&&,>++,+;OO,;5::oo%+$;%-2OX",
"-X:6$X;+;::-,9q,X-*,*,OXO$,>66096;&&5;;&:--*XX$%o+:4;=&;,$$,O=O-%O65O +-+$>%:%X ",
",O4,;X,>&>:O*4,qO>X**2*O#=:5>66665&,,=&$:-$OX#-*.o:,>;&&,+;OXX-*%OO%oo,#$;:;+*+X",
":#:@,+:,&,&O*-:,:*o:*+&,,8#%5>55;6&>&&&=6#**+55*oXO>>>&&&+:XXX:OO%@ooO#-&6&;O,,X",
"@*XX4*O,&>;+*,:-,+O4++,4,;;+>>:5;:;>&&&5:-*2*:7#oXXO*+&&+O-&*$++#-% O%%:=-:OO=#X",
"X@XX,oO;&,$++>$,6&+o.6,:,:$O+6&5:-++>&&65=O%-5-:+..@,+,9OXO49,:&%+oO#:58598o.5*X",
"X$XX6oO#>4+$O&,,,:+oX6,5-$-o+$;6-Oo#5$$55=O;555**@+>,$X>XX**O>&,;$+#%6088#XXX7*O",
"X*XX:XOO,,+OXO,,>>##X6+6---++&5+O$o,%+$5:%O9555-%--,:*X4XO*,++:=;:=6555,*OooO:#%",
"o@XX:XOOO-OOXO,>6$:5XXX8O-;&=65OO5#--#=::*O#5;55:,*4,@X9O=**,O&>;;566>>=$OXO%:,5",
"#XXX4X+=XXXXoO,*6&6;O...#,:566%O#*,X-2%5:%O#>=:588,**- ,-,.,&+$&5>566>;&$O+#>899",
"&XO$,&>4XXXO+$,$0-6O=.OO-5&=9--*,O,X,O-O:@##:=;5992,O-X4,,X9*O+&5>5655;&$$::;56w",
"+X*4,94,XXX*,,,+$;6X;O+$5&&55&%%%*%XO$:&--%$:5&,90:6oXX,**+4.+++>5566>&;,-*-5665",
"X#=6,&>O+O*,,+OO-X6#5O+;&&&5-&*%#%XO+,6599:*;8#:89:6oXX,*:,,X-;O+6>;6;56-,,8666;",
"+4-,&,$+*++69-X+4X,5,+$>;&;5;=X5-%OO+665568,69$-885,O..#->,,+*$oO#>&6&65>58669=&",
",,-,=,+;oO49,XX,.@4X,+>&&&5;>OX:2-##$$&66656-$*-5,98&Oo$4:,4-+-XoO%$5$:6;55695$$",
"449*>++:O*:8,o@*$:%X4&,&&&555XXO+*--;&$$6,568--,>:6>,+O;*-,>,-4XoO$O5+$;,;>5>;++",
"9,q=,OX-*X,:%%+,%;XXO,,&$=56$.XO%:5565O+$6;55655>>6&,;+>+*4q4q,X o$O5O=;>%>>5OoX",
"q9,>@OX-X+4#,+,O,*XXo+$&&695-+#$-995>OOO+5&5699666;&&6$;>4:6,qqO o<O-$ 5,$5;;oXX",
"9q>6+X  X:,8*---q@OX.O+$-86--57,8558%OXOO+$>9095,6&&;6;66:>6q,+ooO-%,-o::=;>:oX ",
"9,,9+XXo@,+946,44*@oXoO&o58o#8-,555=+Ooo.o$59066;,&;&q66:,,>4&+XO%,88@OO+>6$%o..",
",q,4OXO*:O#q6qq98>&@XX$.#6%+:-665;5$+#..oo#55965;,;&&>>698,,>#O+%,988-#o+;5$5oOX",
"69,>+o*;4O@:9,q995,%$O-X25::%>5655;&&;OOXX@,:555=>>&&>6698-5$$+:,,8586,oO#$$##+@",
",>,O-#O4,X+,-4,,65:55*:XO52*;555>5;;6;;%XXO4;:,&#5>&=>66w5-,+$&52>5>6$2ooO+#%-%;",
"+:,#*--,OXo,##,;559586;O+8:,5>>;;>6&+>,O;OO,&=;$+>;;=>5698%:+-57,5,;6:$ .oO#%:56",
"*XX:X-*4*#O-X+,65;59666;**896>5;;565$8,:,*O:%=:&O:+>>=569:*-$5:66>;;66#o.oO#:56q",
"X XX+*+*-4**X$,,;;5656q6429065;&,,=6*899--O,$5&5+%-8-&>55:5=5-,65;=658oOO##%:566",
"XX O< -XXX*-X4&,6;;6>666890w6>>&,;-,O,X,X,&5;,5&, ,5+;,;>>668:,,;=#:-,oO#%-:;55>",
"XXX*XX*XXX$,O>*96;;5666660w96;5&6,$8XXX,XX95$5>#5X oo#8>;>6655;;=:-%%5oO$286,-;;",
"XXXo+OOoXX--$-*,>5&;66669999555$9-:8XXX:XO95;;##OooXX:%:>>5655;%,+O%>@ O%,888--O",
"X+*$:**$OX,@-,&,;,>>666>66,,>>&&9O6,XXX*O$$665+=$=OoX,+;,>>>>>&&-O$X,XXO%;883OOO",
"X,,4q4::-OO$:,4;=;>6;6>>>66>>>;;6O8+X X:$55565$656+OX-#,,>>;>&$-Oo*$,XX+$;;2+OXX",
" X:*6664#:*=@:X,O+>>&>>;;>>,;>>&6O,XXX@,5$>#OO55&6+++::=;6;;&$-OXX%*#+X:$6*<OXX ",
"XXO,,,,4,4&4*,@,$O6>>;>>>q&&&,&&,+XXO%-;$&-+O.;6&5&+-&-=&,&&&&-.XX*&:,X:5-:+OX X",
"XXo44,;&::6664-:,O6,6;&;,&++#,=>6OXo%4**%,+OX##555>&;;&-,,&&&>OXo+&,89X*5=:;O X ",
"XXXO*,,::,6699,:6O6;>;;>&$+O+,=&:Oo$2:,:,+o.#,;-5>66,>+$,;,&&>+oO*;,6Oo85#O2%O X",
"XOO*:q+::,6q996,:O:;&;>&&+OO+,;&###8-559$@OO66%#&>6666#&&O,&&,OoO:,,6+oX:,@: *X ",
"X:*+6==O,&,69:,,$O,,&;&+++OO-*#$$$5*:65-%%*:8*o++$;>,>$=*O++#+OXO;&,,+oX%85XX<XX",
"+4>,,X$X*&&66=,,*+,&;;$&O*--*+O#$65,555;>-**+ ooO++&66#,XXoO+OOXO:;6;+oX#44XX124",
",>@*4X$XO,,,9&6O@+$&6$&6*#>,@*o+%68556&5;;-% ooo+O+&,6#&XXX+-XXX+,,6$>Oo,,,X-39q",
"4*X*,X*X@,6,,;,OX&+$,*664,4+ +XO%86555$5OX-OO@Oo&OO$>q+oXoO,-XXXO-86$8O*+:%o846q",
",XO*  *O,,,+:4OOX=+&6,*:,#XXO-XO$;6,5$+5o#,%%%%O,.OO++O@+*:* XXOo+,5&>O,O-,48666",
"*X-XX @-@XXO:,@XX@+6,,-,q&OX-*OO#&;;5+ooo5:575,%,OXOOO+---4XX X:X%O#55:944,4496>",
"XX,Xo+-,*XX+-*;OX&*4$*,6,9*X4+*O#$$>5Oo .o-,,5:,,=+XOo&-+,*X+++:O*$+5885%4989,,&",
" XXO*>,4*O *,***X,X6&*,9,4XO,,*oO+$5>++@.XO--7:,**:+*%@X,4+$:4:,@-::8%::*8699&;$",
"  +$44-,X*XX*:@,O-X**:,69,X*,X,oo#+$,&:,XXO@:*-6;,*4O  o,::4,$,4+:,,:,X:*969,&=+",
" O-4:55%OXXX*;%4$OX,*,q,,=O=,X,OO**,**:9+XXXO:*646,,:+o%+88,8->7$*:4:,X,*,q,,:OX",
"+--*78:%OXXX*:O:**@4,,,6,>$*,X--*O,*,O,9,XXXXO,9468%:5---%-5886$:*@#:#&44q4,4-XX",
",:**::*@OXoO+,*o,O &:9,>,*,X4+;>-*::*-,,8@  Xo,655,-85,,%<>60,:-4X##:$,=,,>,:-X.",
"42:-%:+OooO#&4;+**o@-4&,&>-X4**-4+*4X,4*::XXX$645>5:,685:,>6-,>O# *&:@,,>,>,+&O.",
"q9,*%*OXXXO>66:-*+*X,6$6&:&  -+4*O::X4+:*,+XO;4:5;55666655>5=5=$XX*4+&,&>>;,&-+.",
"q95*:X..O+&,,>,&&@*X,6$,&&;$@O,#+-,,+-X,X,:X$,>&,;56qqw665>5=5$-XO,6+,>=,>;,,OO.",
"65;%-XXO$:;;;&,,+@4X>6++*O-4,>4$O44&@XX,X-:@*46#5=56qww65>;>55@-o;q>&,>>,,6;q*.+",
";;;$-XO%>&&,&*&:o-+o,:o+$O*,-4X**:::XXX,o-$,+*$=6;566w65>>;555%%+,6,,=,>,qq>4,+O",
"=&&::o+>:&=>&&+&$.X***O*XX*,**o--,-*X$o4*X:8O+*,>;55665;&&&;>>;=>,,>9;=,>6628,OX",
";&&>OO-:&&=>&$+&*Oo+*X*@XX:,-X%$,,-+@,@>:$::,o:>6&>555-=&;&&6&,&4,=;,,,,;66:48OO",
";&&,O$>+&&&;+++;&+OX,X-XXX,4XX>-94*+,>:486*-8XO:&&;>5>=,>5&&6+-5,:>&q>>,-6:,,6OX",
"&&&>+4=$&&>+O++,&*+X+OXXXX*>.@*6,*X$489,%,#8,%O:&;;;;5:855;55#-5:,>&&,+O>5;,46 X",
"&&&>O,O+$&4OO$&=;>$+O-oXXX,XX,O94O+852,:5o%:,6O;&&&&&,8;=$+:6+5$->,$,,oO+66%>:X ",
"&++&*,OO$$+O.>,,6,:*%2OXXX4XO9-4:%:8::;4-oo8-5#;&&&&;8%**o+#$+6;->,*,*OX#5:;6:XX",
"+OOO,,OO;$OXO,->6682-%OXX$*X:8:%#85,*%:8oX#%66;;&&&$5&***XXO#-5;,:$,*$-X>oO28XXX",
"..O&4*$$*>XXX4,,9qq98-#OX,XX-,*--887*+:XXXX ,5&>&;;;%:X**XOX:*:X4-@O*X,X-oXX X X",
"XX@O,<***4XXXO::49qq06*#@,oX,-7=,,q4*+-X  XX9X,,,,>O*4#@+@OO*#%O@,X$+X,X+#++O+XX",
"XX**,$#*#*XXXo+4-880w65--:oX-#-59,>>$:X XX O4o,O,$OX$o4&:;;*&,O;#6X**X8+*>;-OOOX",
"XX&+4X**-*+XXXoO--49ww668*OO-,89>>=&:-X XXX*,oXXOOOX*$,,966686O5*2X*#X5,$#$>#+OO",
"XO>XXO-X:X*XXXXX+,-8www68%#%:8996>&&>#oXXXX2XXXXXXXX%,qq66,>:#O.%:X**XX*>$&$:++O",
"X*#O+@#+oX*XXXoO%--:6ww66<$-68096>&&,XOXO+*+OXXoXXXX:9:,66>,#+OO-O#$%O.O-,$$:-+O",
" 2O@*-*@OXXXoX*-o+5;56qq6>;655906>;;,++O#>,,-X *   X:8$->4>#+Oo;O#,,4OoXX8+#&5;+",
"XXO%,4:%O.Xo@$*XX+#5;566665;;5996>,,&&OO:,,=-O+$XXXX,&#&>=:+XXXXO:>&>+OXX:##*866",
"OO$:,4:*@+o*@#XoOO$6=55665>;>568,,=,+OX+,&,==>4-+OO%,:#&;=:$XX@XO:,&:+ooo8#%-86q",
"%%-665;$O5##:=+o*$$+=,,,5>5;;>65,>>,$OX$,;>:,,@-2%%*-=&>&::-oX-XO,9;;++#%8,-:566",
"4,865-==%8+-,&&+XXXO,,,>;>;5;>>6,>=>+XO;&4,-;4,*:,:%Xo*:;;6:%X:X+6;>$$*##,:5>>5>",
"0966>=&95O=5,,&+XXX*,,$;=5>>>>6q>&&,+OO,$,,;*+,-888-##$56:66$X-@:4,,$:$5*999>;&&",
"66956&:5$*56&&$;++X*:q&;&>>=>6>6;&&$+&+;$>:&X*,-,8,:--$-6$,:*X::>>>6;8-4:855;&&$",
"565;5=*5%*+;6>;&*,&X,4;&&5#;;5>6,&++&;,,$,:*XO,,:>6::6%#*=4*,O,,,$:4&,*O-5>;&$++",
"6;5>,O8%,X+$>>6&&,-O,9;&;:O=;&65,$O+>,&$=,,XXO::*>6666%#*&,X:,*,,o,**X*+;5&&$+OO",
"6;55O#:X%o#$>;,>6,$$,8>*;;O5&-5;6;$O+&&&,O4X.X+>&>>699-$*>,X94#::O:$****+$&&+O..",
"&&5;O:%XXoO$&6;;,9,4o9>::+OX8;6&4**O+&&;9XXX.OOq&666068:46*X8->4*-4*69;O+$&$+O.."
};
