/* XPM */
static char *result[] = {
/* columns rows colors chars-per-pixel */
"80 80 172 2 ",
"   c #050303",
".  c #07070A",
"X  c #08070C",
"o  c #070A0C",
"O  c #08080C",
"+  c #070E11",
"@  c #0A0C13",
"#  c #0D0F1A",
"$  c #081015",
"%  c #0C121C",
"&  c #3D271E",
"*  c #3F281E",
"=  c #0F1221",
"-  c #0C1824",
";  c #0B1F2B",
":  c #101324",
">  c #111629",
",  c #13182D",
"<  c #0F1A38",
"1  c #151C36",
"2  c #1A1E33",
"3  c #161E3A",
"4  c #191F3D",
"5  c #221F2D",
"6  c #0B202C",
"7  c #0D2536",
"8  c #0E293A",
"9  c #15233D",
"0  c #18203F",
"q  c #23202E",
"w  c #2B2228",
"e  c #2C2227",
"r  c #342524",
"t  c #3E2820",
"y  c #332629",
"u  c #272335",
"i  c #2A2433",
"p  c #262B3C",
"a  c #292D3C",
"s  c #3A2B33",
"d  c #362B39",
"f  c #2A3236",
"g  c #2E3836",
"h  c #2A333A",
"j  c #2F3838",
"k  c #313C3A",
"l  c #41291D",
"z  c #4A2D1C",
"x  c #502F1C",
"c  c #4E311E",
"v  c #54341F",
"b  c #59321B",
"n  c #63381F",
"m  c #733E1F",
"M  c #4B2D20",
"N  c #49302C",
"B  c #533323",
"V  c #5B3A23",
"C  c #4C3333",
"Z  c #5E3931",
"A  c #50373D",
"S  c #533D3F",
"D  c #603D24",
"F  c #723F25",
"G  c #6A3F32",
"H  c #613E3B",
"J  c #36413E",
"K  c #664227",
"L  c #6E482B",
"P  c #724B2C",
"I  c #72412B",
"U  c #6C4135",
"Y  c #7E4730",
"T  c #754D3C",
"R  c #121E47",
"E  c #162145",
"W  c #1B2447",
"Q  c #152148",
"!  c #1B2549",
"~  c #1E284E",
"^  c #1A2B46",
"/  c #10344A",
"(  c #1E2A53",
")  c #1B2758",
"_  c #1D2958",
"`  c #143C59",
"'  c #123751",
"]  c #222643",
"[  c #232B45",
"{  c #2B2D46",
"}  c #222B4B",
"|  c #392E40",
" . c #2D3242",
".. c #2C3748",
"X. c #263044",
"o. c #303246",
"O. c #3F3140",
"+. c #323C43",
"@. c #38374C",
"#. c #343C4B",
"$. c #383D4F",
"%. c #222C56",
"&. c #222E59",
"*. c #263155",
"=. c #293454",
"-. c #24305D",
";. c #363D53",
":. c #303555",
">. c #1E3D65",
",. c #213F6C",
"<. c #403B46",
"1. c #14415F",
"2. c #3A4542",
"3. c #3B4355",
"4. c #3F485A",
"5. c #3D475A",
"6. c #154261",
"7. c #194A6E",
"8. c #234677",
"9. c #4B4246",
"0. c #5C4C45",
"q. c #504445",
"w. c #5F504D",
"e. c #4F4750",
"r. c #434C5C",
"t. c #404B54",
"y. c #5C5751",
"u. c #735A44",
"i. c #7B5C42",
"p. c #596152",
"a. c #7D6144",
"s. c #7C674C",
"d. c #606351",
"f. c #6C7551",
"g. c #424D63",
"h. c #495363",
"j. c #4A5566",
"k. c #4D5B72",
"l. c #54647D",
"z. c #8B4B2A",
"x. c #904D2B",
"c. c #814B34",
"v. c #8C4E32",
"b. c #836544",
"n. c #8E6B45",
"m. c #916F47",
"M. c #967043",
"N. c #987243",
"B. c #A57A42",
"V. c #A27742",
"C. c #89864E",
"Z. c #BC8A42",
"A. c #AF9248",
"S. c #A8AC4B",
"D. c #BAB049",
"F. c #C89141",
"G. c #C09344",
"H. c #DB9F41",
"J. c #DDA341",
"K. c #DABD44",
"L. c #EFB440",
"P. c #E4B541",
"I. c #D8D146",
"U. c #F8CA40",
"Y. c #F2D842",
"T. c #1B5A86",
"R. c #1A5782",
"E. c #205889",
"W. c #1F699D",
"Q. c #23679F",
"!. c #5D6F8B",
"~. c None",
/* pixels */
"~.~.~.~.~.~.~.~.~.~.~.~.~.~.~.~.~.~.~.~.~.~.~.~.~.~.~.~.~.~.~.~.~.~.~.~.~.~.~.~.~.~.~.~.~.~.~.~.~.~.~.~.~.~.~.~.~.~.~.~.~.~.~.~.~.~.~.~.~.~.~.~.~.~.~.~.~.~.~.~.",
"~.~.~.~.~.~.~.~.~.~.~.~.~.~.~.~.~.~.~.~.~.~.~.~.~.~.~.~.~.~.~.~.~.~.~.~.~.~.~.~.~.~.~.~.~.~.~.~.~.~.~.~.~.~.~.~.~.~.~.~.~.~.~.~.~.~.~.~.~.~.~.~.~.~.~.~.~.~.~.~.",
"~.~.~.~.~.~.~.~.~.~.~.~.~.~.~.~.~.~.~.~.~.~.~.~.~.~.~.~.~.~.~.~.~.~.~.~.~.~.~.~.~.~.~.~.~.~.~.~.~.~.~.~.~.~.~.~.~.~.~.~.~.~.~.~.~.~.~.~.~.~.~.~.~.~.~.~.~.~.~.~.",
"~.~.~.~.~.~.~.~.~.~.~.~.~.~.~.~.~.~.~.~.~.~.~.~.~.~.~.~.~.~.~.~.~.~.~.~.~.~.~.~.~.~.~.~.~.~.~.~.~.~.~.~.~.~.~.~.~.~.~.~.~.~.~.~.~.~.~.~.~.~.~.~.~.~.~.~.~.~.~.~.",
"~.~.~.~.~.~.~.~.~.~.~.~.~.~.~.~.~.~.~.~.~.~.~.~.~.~.~.~.~.~.~.~.~.~.~.~.~.~.~.~.~.~.~.~.~.~.~.~.~.~.~.~.~.~.~.~.~.~.~.~.~.~.~.~.~.~.~.~.~.~.~.~.~.~.~.~.~.~.~.~.",
"~.~.~.~.~.~.~.~.~.~.~.~.~.~.~.~.~.~.~.~.~.~.~.~.~.~.~.~.~.~.~.~.~.~.~.~.~.~.~.~.~.~.~.~.~.~.~.~.~.~.~.~.~.~.~.~.~.~.~.~.~.~.~.~.~.~.~.~.~.~.~.~.~.~.~.~.~.~.~.~.",
"~.~.~.~.~.~.~.~.~.~.~.~.~.~.~.~.~.~.~.~.~.~.~.~.~.~.~.~.~.~.~.~.~.~.~.~.~.~.~.~.~.~.~.~.~.~.~.~.~.~.~.~.~.~.~.~.~.~.~.~.~.~.~.~.~.~.~.~.~.~.~.~.~.~.~.~.~.~.~.~.",
"~.~.~.~.~.~.~.~.~.~.~.~.~.~.~.~.~.~.~.~.~.~.~.~.~.~.~.~.~.~.~.~.~.~.~.~.~.~.~.~.~.~.~.~.~.~.~.~.~.~.~.~.~.~.~.~.~.~.~.~.~.~.~.~.~.~.~.~.~.~.~.~.~.~.~.~.~.~.~.~.",
"~.~.~.~.~.~.~.~.~.~.~.~.~.~.~.~.~.~.~.~.~.~.~.~.~.~.~.~.~.~.~.~.~.~.~.~.~.~.~.~.~.~.~.~.~.~.~.~.~.~.~.~.~.~.~.~.~.~.~.~.~.~.~.~.~.~.~.~.~.~.~.~.~.~.~.~.~.~.~.~.",
"~.~.~.~.~.~.~.~.~.~.~.~.~.~.~.~.~.~.~.~.~.~.~.~.~.~.~.~.~.~.~.~.~.~.~.~.~.~.~.~.~.~.~.~.~.~.~.~.~.~.~.~.~.~.~.~.~.~.~.~.~.~.~.~.~.~.~.~.~.~.~.~.~.~.~.~.~.~.~.~.",
"~.~.~.~.~.~.~.~.~.~.~.~.~.~.~.~.~.~.~.~.~.~.~.~.~.~.~.~.~.~.~.~.~.~.~.~.~.~.~.~.~.~.~.~.~.~.~.~.~.~.~.~.~.~.~.~.~.~.~.~.~.~.~.~.~.~.~.~.~.~.~.~.~.~.~.~.~.~.~.~.",
"~.~.~.~.~.~.~.~.~.~.~.~.~.~.~.~.~.~.~.~.~.~.~.~.~.~.~.~.~.~.~.~.~.~.~.~.~.~.~.~.~.~.~.~.~.~.~.~.~.~.~.~.~.~.~.~.~.~.~.~.~.~.~.~.~.~.~.~.~.~.~.~.~.~.~.~.~.~.~.~.",
"~.~.~.~.~.~.~.~.~.~.~.~.~.~.~.~.~.~.~.~.~.~.~.~.~.~.~.~.~.~.~.~.~.~.~.~.~.~.~.~.~.~.~.~.~.~.~.~.~.~.~.~.~.~.~.~.~.~.~.~.~.~.~.~.~.~.~.~.~.~.~.~.~.~.~.~.~.~.~.~.",
"~.~.~.~.~.~.~.~.~.~.~.~.~.~.~.~.~.~.~.~.~.~.~.~.~.~.~.~.~.~.~.~.~.~.~.~.~.~.~.~.~.~.~.~.~.~.~.~.~.~.~.~.~.~.~.~.~.~.~.~.~.~.~.~.~.~.~.~.~.~.~.~.~.~.~.~.~.~.~.~.",
"~.~.~.~.~.~.~.~.~.~.~.~.~.~.~.~.~.~.~.~.~.~.~.~.~.~.~.~.~.~.~.~.~.~.~.~.~.~.~.~.~.~.~.~.~.~.~.~.~.~.~.~.~.~.~.~.~.~.~.~.~.~.~.~.~.~.~.~.~.~.~.~.~.~.~.~.~.~.~.~.",
"~.~.~.~.~.~.~.~.~.~.~.~.~.~.~.~.~.~.~.~.~.~.~.~.~.~.~.~.~.~.~.~.~.~.~.~.~.~.~.~.~.~.~.~.~.~.~.~.~.~.~.~.~.~.~.~.~.~.~.~.~.~.~.~.~.~.~.~.~.~.~.~.~.~.~.~.~.~.~.~.",
"~.~.~.~.~.~.~.~.~.~.~.~.~.~.~.~.~.~.~.~.~.~.~.~.~.~.~.~.~.~.~.~.~.~.~.~.~.~.~.~.~.~.~.~.~.~.~.~.~.~.~.~.~.~.~.~.~.~.~.~.~.~.~.~.~.~.~.~.~.~.~.~.~.~.~.~.~.~.~.~.",
"~.~.~.~.~.~.~.~.~.~.~.~.~.~.~.~.~.~.~.~.~.~.~.~.~.~.~.~.~.~.~.~.~.~.~.~.~.~.~.~.~.~.~.~.~.~.1 1 1 ~.~.! W W W W W %.~.~.~.~.~.~.~.~.~.~.~.~.~.~.~.~.~.~.~.~.~.~.",
"~.~.~.~.~.~.~.~.~.~.~.~.~.~.~.~.~.~.~.~.~.~.~.~.~.~.~.~.~.~.~.~.~.~.~.~.~.~.~.~.~.~.~.~.~.1 1 1 1 3 E W W W W W W %.%.%.~.~.~.~.~.~.~.~.~.~.~.~.~.~.~.~.~.~.~.~.",
"~.~.~.~.~.~.~.~.~.~.~.~.~.~.~.~.~.~.~.~.~.~.~.~.~.~.~.~.~.~.~.~.~.~.~.~.~.~.~.~.~.~.~.~.~.2 1 1 1 2 0 E W W W W W } ~ %.%.~.~.~.~.~.~.~.~.~.~.~.~.~.~.~.~.~.~.~.",
"~.~.~.~.~.~.~.~.~.~.~.~.~.~.~.~.~.~.~.~.~.~.~.~.~.~.~.~.~.~.~.~.~.~.~.~.~.~.~.~.~.~.~.l & ~.~.1 1 3 3 9 E W W W ! ! ! ~ %.%.%.%.~.~.~.~.~.~.~.~.~.~.~.~.~.~.~.~.",
"~.~.~.~.~.~.~.~.~.~.~.~.~.~.~.~.~.~.~.~.~.~.~.~.~.~.~.~.~.~.~.~.~.~.~.~.~.~.~.~.~.~.z z c ~.~.2 1 1 1 3 0 E W W W W W ~ ( %.&.%.%.~.~.~.~.~.~.~.~.~.~.~.~.~.~.~.",
"~.~.~.~.~.~.~.~.~.~.~.~.~.~.~.~.~.~.~.~.~.~.~.~.~.~.~.~.~.~.~.~.~.~.~.~.~.~.~.~.~.~.V V v v t 5 2 1 1 1 0 W W W W W W ! %.&.&.&.&.&.~.~.~.~.~.~.~.~.~.~.~.~.~.~.",
"~.~.~.~.~.~.~.~.~.~.~.~.~.~.~.~.~.~.~.~.~.~.~.~.~.~.~.~.~.~.~.~.~.~.~.~.~.~.~.~.~.~.P L K B * w 2 1 1 1 4 W W W W W W ! %.%.&.%.%.&.%.~.~.~.~.~.~.~.~.~.~.~.~.~.",
"~.~.~.~.~.~.~.~.~.~.~.~.~.~.~.~.~.~.~.~.~.~.~.~.~.~.~.~.~.~.~.~.~.~.~.~.~.~.~.~.~.~.~.P K v * w 2 1 1 3 0 W W W W W ! ~ } } ! R W %.%.&.~.~.~.~.~.~.~.~.~.~.~.~.",
"~.~.~.~.~.~.~.~.~.~.~.~.~.~.~.~.~.~.~.~.~.~.~.~.~.~.~.~.~.~.~.~.~.~.~.~.~.~.~.~.~.~.~.P K v l w 2 1 1 1 0 W W W W ! ! } ~ ! 2 : > ] %.&.~.~.~.~.~.~.~.~.~.~.~.~.",
"~.~.~.~.~.~.~.~.~.~.~.~.~.~.~.~.~.~.~.~.~.~.~.~.~.~.~.~.~.~.~.~.~.~.~.~.~.~.~.~.~.~.~.P K v l w 2 1 1 1 0 W W ! W E 0 4 R 3 = X % 0 %.-.~.~.~.~.~.~.~.~.~.~.~.~.",
"~.~.~.~.~.~.~.~.~.~.~.~.~.~.~.~.~.~.~.~.~.~.~.~.~.~.~.~.~.~.~.~.~.~.~.~.~.~.~.~.~.~.~.P K V * w 1 1 1 1 0 W W ! W 1 : # : # X   @ 0 %.-.~.~.~.~.~.~.~.~.~.~.~.~.",
"~.~.~.~.~.~.~.~.~.~.~.~.~.~.~.~.~.~.~.~.~.~.~.~.~.~.~.~.~.~.~.~.~.~.~.~.~.~.~.~.~.~.P P K v * w 2 1 1 1 0 W W W 0 , $ o . O   . % W %.-.~.~.~.~.~.~.~.~.~.~.~.~.",
"~.~.~.~.~.~.~.~.~.~.~.~.~.~.~.~.~.~.~.~.~.~.~.~.~.~.~.~.~.~.~.~.~.~.~.~.~.~.~.~.~.~.D K V c * w 2 1 3 3 E W 0 4 9 8 8 7 O O % 8 ^ %.%.%.~.~.~.~.~.~.~.~.~.~.~.~.",
"~.~.~.~.~.~.~.~.~.~.~.~.~.~.~.~.~.~.~.~.~.~.~.~.~.~.~.~.~.~.~.~.~.~.~.~.~.~.~.~.~.z z v c z & w 2 3 E E ! W 2 : - ` T.7.6 $ / T.E.,.%.%.~.~.~.~.~.~.~.~.~.~.~.~.",
"~.~.~.~.~.~.~.~.~.~.~.~.~.~.~.~.~.~.~.~.~.~.~.~.~.~.~.~.~.~.~.~.~.~.~.~.~.~.~.~.l l l l z v M y 2 3 9 W ! W , O % 1.W.7.7 $ 1.Q.Q.8.&.~.~.~.~.~.~.~.~.~.~.~.~.~.",
"~.~.~.~.~.~.~.~.~.~.~.~.~.~.~.~.~.~.~.~.~.~.~.~.~.~.~.~.~.~.~.~.~.~.~.~.~.~.~.~.e r r l b m F N 2 3 R W ! ! 1 X X 8 6.' - + 8 6.7.,.~.~.~.~.~.~.~.~.~.~.~.~.~.~.",
"~.~.~.~.~.~.~.~.~.~.~.~.~.~.~.~.~.~.~.~.~.~.~.~.~.~.~.~.~.~.~.~.~.~.~.~.~.~.~.~.2 2 e l n z.x.Z i 3 E W ~ ] 1 @ . + $ + .   o $ % ~.~.~.~.~.~.~.~.~.~.~.~.~.~.~.",
"~.~.~.~.~.~.~.~.~.~.~.~.~.~.~.~.~.~.~.~.~.~.~.~.~.~.~.~.~.~.~.~.~.~.~.~.~.~.~.1 1 1 5 r B I Y G C d ] W ] R 4 : @ .               ~.~.~.~.~.~.~.~.~.~.~.~.~.~.~.",
"~.~.~.~.~.~.~.~.~.~.~.~.~.~.~.~.~.~.~.~.~.~.~.~.~.~.~.~.~.~.~.~.~.~.~.~.~.~.1 1 1 1 2 q w s C G Y U d W R ] R 4 , @             @ 4 %.~.~.~.~.~.~.~.~.~.~.~.~.~.",
"~.~.~.~.~.~.~.~.~.~.~.~.~.~.~.~.~.~.~.~.~.~.~.~.~.~.~.~.~.~.~.~.~.~.~.~.~.1 1 1 1 1 1 1 1 1 u Z v.Y <.| ] ! } W E > O .   X .   # 4 %.~.~.~.~.~.~.~.~.~.~.~.~.~.",
"~.~.~.~.~.~.~.~.~.~.~.~.~.~.~.~.~.~.~.~.~.~.~.~.~.~.~.~.~.~.~.~.~.~.~.~.1 1 1 1 1 1 1 1 < < 0 s Z U U H | ] R R W 2 > : - = X . # ] %.-.~.~.~.~.~.~.~.~.~.~.~.~.",
"~.~.~.~.~.~.~.~.~.~.~.~.~.~.~.~.~.~.~.~.~.~.~.~.~.~.~.~.~.~.~.~.~.~.~.1 1 1 1 1 1 1 1 1 1 1 1 2 u C Y v.H { R W W E 0 W R 3 # X # 4 } ,.~.~.~.~.~.~.~.~.~.~.~.~.",
"~.~.~.~.~.~.~.~.~.~.~.~.~.~.~.~.~.~.~.~.~.~.~.~.~.~.~.~.~.~.~.~.~.~.1 1 1 1 1 1 1 1 1 1 1 1 1 < 3 d U Y u.0.<.{ E W ! ! ! W , # > R %.*.~.~.~.~.~.~.~.~.~.~.~.~.",
"~.~.~.~.~.~.~.~.~.~.~.~.~.~.~.~.~.~.~.~.~.~.~.~.~.~.~.~.~.~.~.~.~.1 1 1 1 1 1 1 1 1 1 1 1 1 1 3 R { C <.i.N.b.<.W E ! ! ! R 4 3 0 ~ %.*.~.~.~.~.~.~.~.~.~.~.~.~.",
"~.~.~.~.~.~.~.~.~.~.~.~.~.~.~.~.~.~.~.~.~.~.~.~.~.~.~.~.~.~.~.~.1 3 1 1 1 1 1 1 1 1 1 1 1 1 3 0 ] R R o.u.B.N.0. .] ] ! ! ! W ! ~ ( %.%.~.~.~.~.~.~.~.~.~.~.~.~.",
"~.~.~.~.~.~.~.~.~.~.~.~.~.~.~.~.~.~.~.~.~.~.~.~.~.~.~.~.~.~.~.1 1 1 1 1 1 1 1 1 1 1 1 1 1 0 0 W R ! R } <.u.b.b.u.9.] R R R ! } %.%.&.%.~.~.~.~.~.~.~.~.~.~.~.~.",
"~.~.~.~.~.~.~.~.~.~.~.~.~.~.~.~.~.~.~.~.~.~.~.~.~.~.~.~.~.~.1 1 1 1 1 1 1 1 1 1 2 1 1 1 4 0 W W W ! W ] [ o.0.N.B.u...R ! ! } %.%.&.%.%.~.~.~.~.~.~.~.~.~.~.~.~.",
"~.~.~.~.~.~.~.~.~.~.~.~.~.~.~.~.~.~.~.~.~.~.~.~.~.~.~.~.~.1 1 1 1 1 1 1 2 1 1 1 3 1 2 3 0 W W ! W W ] R R W <.a.N.b.0.e.q.<.<.-.&.%.%.&.~.~.~.~.~.~.~.~.~.~.~.~.",
"~.~.~.~.~.~.~.~.~.~.~.~.~.~.~.~.~.~.~.~.~.~.~.~.~.~.1 3 1 1 1 1 1 1 1 1 1 1 1 1 1 1 0 0 E W W W W W ] ! Q W [ <.0.i.m.V.V.n.w.:._ %.&.%.~.~.~.~.~.~.~.~.~.~.~.~.",
"~.~.~.~.~.~.~.~.~.~.~.~.~.~.~.~.~.~.~.~.~.~.~.~.~.1 1 2 1 1 1 1 1 1 1 1 1 1 1 1 1 3 0 W W W W W ! ! ! ! ! W Q Q o.i.Z.H.J.G.b.;._ _ &.~.~.~.~.~.~.~.~.~.~.~.~.~.",
"~.~.~.~.~.~.~.~.~.~.~.~.~.~.~.~.~.~.~.~.~.~.~.~.1 1 1 1 1 1 1 1 1 1 1 1 1 1 1 3 3 E E W W W W W ! ] R ! ! ! Q R { i.F.L.U.I.m.;.) _ ~.~.~.~.~.~.~.~.~.~.~.~.~.~.",
"~.~.~.~.~.~.~.~.~.~.~.~.~.~.~.~.~.~.~.~.~.~.~.1 1 1 1 1 1 1 1 1 1 1 1 2 1 1 1 2 0 W ! W ! W W W W W W ! ! W W R o.i.Z.P.Y.I.C.3.) ~.~.~.~.~.~.~.~.~.~.~.~.~.~.~.",
"~.~.~.~.~.~.~.~.~.~.~.~.~.~.~.~.~.~.~.~.~.~.1 1 1 1 1 1 1 1 1 1 1 4 1 0 3 3 4 0 W W ! W W W W ! W W W W W W R W { 0.m.A.D.S.f.;._ ~.~.~.~.~.~.~.~.~.~.~.~.~.~.~.",
"~.~.~.~.~.~.~.~.~.~.~.~.~.~.~.~.~.~.1 1 1 1 1 1 1 1 1 1 1 1 1 1 0 0 0 W E E W W W W W W W W W W W W W W W W ! R ] @.e.y.p.p.4.=._ ~.~.~.~.~.~.~.~.~.~.~.~.~.~.~.",
"~.~.~.~.~.~.~.~.~.~.~.~.~.~.~.~.~.1 1 1 1 3 1 4 1 3 3 2 3 1 3 4 0 W W W W W W ! W W W ! W W W W W W ! W W ! W W ~ } &.&.*.*.*.&.*.~.~.~.~.~.~.~.~.~.~.~.~.~.~.~.",
"~.~.~.~.~.~.~.~.~.~.~.~.~.~.1 ~.1 1 1 1 4 4 0 0 0 0 3 E 4 9 4 4 E W W W ! ! W W W W W W W W W W W ! W W W W W W ! ~ _ ) ) ) _ &.~.~.~.~.~.~.~.~.~.~.~.~.~.~.~.~.",
"~.~.~.~.~.~.~.~.~.~.~.~.~.1 1 1 1 1 1 2 0 W W W W W W W E W W W W W W W W W W W W W W W W ! W ! W W ! W ! W ! W ! ~ %.&.&.&.%.~.~.~.~.~.~.~.~.~.~.~.~.~.~.~.~.~.",
"~.~.~.~.~.~.~.~.~.~.~.~.1 1 1 3 0 4 4 0 W W ! W W W ! ! W W ! W W W W W W W W W W W W ! W W ! W W ! W W W W ! ! ~ ( %.&.&.%.~.~.~.~.~.~.~.~.~.~.~.~.~.~.~.~.~.~.",
"~.~.~.~.~.~.~.~.1 1 1 1 1 1 3 0 0 E 0 E W W ! W W W W W W W W W ! W W W ! W W W ! W W W W W W W W W W W W W ! } %.( %.%.%.&.%.~.~.~.~.~.~.~.~.~.~.~.~.~.~.~.~.~.",
"~.~.~.~.~.~.~.1 1 1 1 1 3 1 0 E W W ! W ! W W W W W W W W W W ! W W W W W W W W ! W W W ! W W W W W W W W W ! ~ %.%.%.%.&.&.~.~.~.~.~.~.~.~.~.~.~.~.~.~.~.~.~.~.",
"~.~.~.~.1 1 1 1 1 1 1 1 4 0 0 W W ! W W W W W ! W W ! W ! W W W W W W W ! W ! W W W W W W W W ! W ! W W W W ~ %.%.%.&.%.%.~.~.~.~.~.~.~.~.~.~.~.~.~.~.~.~.~.~.~.",
"~.~.~.1 1 1 1 1 1 1 1 1 4 W W W W W W W W W W W W ! W W W W W W W W W ! W ! W W W W W W W W W W W W W W W W ~ ( %.%.%.&.~.~.~.~.~.~.~.~.~.~.~.~.~.~.~.~.~.~.~.~.",
"~.~.~.1 1 1 1 1 1 1 1 3 0 W W W W W ! W W ! W W W W ! W W W W W ! W W W W W W W W ! W W W ! W W W ! W W W W } } =.=.%.~.~.~.~.~.~.~.~.~.~.~.~.~.~.~.~.~.~.~.~.~.",
"~.~.~.~.~.~.~.~.~.~.~.~.~.~.~.~.~.~.~.~.W W W ! W ! W W W W W ! ! W W W W ! W W W W W W W W W W W W ! W W W } ..#.#.~.~.~.~.~.~.~.~.~.~.~.~.~.~.~.~.~.~.~.~.~.~.",
"~.~.~.~.~.~.~.~.~.~.~.~.~.~.~.~.~.~.~.~.! W W W W W W W ! W W W W W W ! W W W W W ! W ! W W ! W W W W W ^ ! X.+.2.2.~.~.~.~.~.~.~.~.~.~.~.~.~.~.~.~.~.~.~.~.~.~.",
"~.~.~.~.~.~.~.~.~.~.~.~.~.~.~.~.~.~.~.! W W W W W W W ! W W ! ! W W W W ! W W ! W W ! W ! W W W W W W W ^ p h +.2.~.~.~.~.~.~.~.~.~.~.~.~.~.~.~.~.~.~.~.~.~.~.~.",
"~.~.~.~.~.~.~.~.~.~.~.~.~.~.~.~.~.~.W W W W W W ! W W W W W ! ] W W W W W W W W W W W W W W ! W W W W W p h k J 2.~.~.~.~.~.~.~.~.~.~.~.~.~.~.~.~.~.~.~.~.~.~.~.",
"~.~.~.~.~.~.~.~.~.~.~.~.~.~.~.~.~.W ! W W ! W W W ! W W W ! W W W W W W W W ! W W W ! W ! W W W ! ! ^ X.h j k J 2.2.~.~.~.~.~.~.~.~.~.~.~.~.~.~.~.~.~.~.~.~.~.~.",
"~.~.~.~.~.~.~.~.~.~.~.~.~.~.~.W W W W W W W W W W W ! W W W W W W W ! W ! W W W W W W W W W W W W [ X.+.k j k J 2.2.~.~.~.~.~.~.~.~.~.~.~.~.~.~.~.~.~.~.~.~.~.~.",
"~.~.~.~.~.~.~.~.~.~.~.~.~.~.~.! W W W W W W W W W W W W W W W ! W ! W ! W W W W W W W W W W W W ! [ +.2.k g g J 2.~.~.~.~.~.~.~.~.~.~.~.~.~.~.~.~.~.~.~.~.~.~.~.",
"~.~.~.~.~.~.~.~.~.~.~.~.~.~.~.~.W W W ! ! W W W W ! W ~.! W W W W W W W W W ! W W W W ! W W W W ] h j J j f h k ~.~.~.~.~.~.~.~.~.~.~.~.~.~.~.~.~.~.~.~.~.~.~.~.",
"~.~.~.~.~.~.~.~.~.~.~.~.~.~.~.~.~.~.~.~.! W W ! ! ~.~.~.~.~.W W W ! W W W W W ! ~ W W W W W W ] a a j j j h a ~.~.~.~.~.~.~.~.~.~.~.~.~.~.~.~.~.~.~.~.~.~.~.~.~.",
"~.~.~.~.~.~.~.~.~.~.~.~.~.~.~.~.~.~.~.~.~.W W W ~.~.~.~.~.~.~.W W W W W W W ] ] W W ! W W ! W p a h f h +.;.3.~.~.~.~.~.~.~.~.~.~.~.~.~.~.~.~.~.~.~.~.~.~.~.~.~.",
"~.~.~.~.~.~.~.~.~.~.~.~.~.~.~.~.~.~.~.~.~.~.~.~.~.~.~.~.~.~.~.~.~.~.~.~.~.] p ] p ~.~.~.~.~.~.h f f h  .3.j.l.~.~.~.~.~.~.~.~.~.~.~.~.~.~.~.~.~.~.~.~.~.~.~.~.~.",
"~.~.~.~.~.~.~.~.~.~.~.~.~.~.~.~.~.~.~.~.~.~.~.~.~.~.~.~.~.~.~.~.~.~.~.~.~.~.a a ~.~.~.~.~.~.~.~.g f a ..4.!.!.~.~.~.~.~.~.~.~.~.~.~.~.~.~.~.~.~.~.~.~.~.~.~.~.~.",
"~.~.~.~.~.~.~.~.~.~.~.~.~.~.~.~.~.~.~.~.~.~.~.~.~.~.~.~.~.~.~.~.~.~.~.~.~.~.~.~.~.~.~.~.~.~.~.~.~.f a  .5.k.l.~.~.~.~.~.~.~.~.~.~.~.~.~.~.~.~.~.~.~.~.~.~.~.~.~.",
"~.~.~.~.~.~.~.~.~.~.~.~.~.~.~.~.~.~.~.~.~.~.~.~.~.~.~.~.~.~.~.~.~.~.~.~.~.~.~.~.~.~.~.~.~.~.~.~.~.~.p  .3.h.j.~.~.~.~.~.~.~.~.~.~.~.~.~.~.~.~.~.~.~.~.~.~.~.~.~.",
"~.~.~.~.~.~.~.~.~.~.~.~.~.~.~.~.~.~.~.~.~.~.~.~.~.~.~.~.~.~.~.~.~.~.~.~.~.~.~.~.~.~.~.~.~.~.~.~.~.~.p h $.r.h.~.~.~.~.~.~.~.~.~.~.~.~.~.~.~.~.~.~.~.~.~.~.~.~.~.",
"~.~.~.~.~.~.~.~.~.~.~.~.~.~.~.~.~.~.~.~.~.~.~.~.~.~.~.~.~.~.~.~.~.~.~.~.~.~.~.~.~.~.~.~.~.~.~.~.~.~.p  .3.r.j.~.~.~.~.~.~.~.~.~.~.~.~.~.~.~.~.~.~.~.~.~.~.~.~.~.",
"~.~.~.~.~.~.~.~.~.~.~.~.~.~.~.~.~.~.~.~.~.~.~.~.~.~.~.~.~.~.~.~.~.~.~.~.~.~.~.~.~.~.~.~.~.~.~.~.~.~.p { #.t.r.~.~.~.~.~.~.~.~.~.~.~.~.~.~.~.~.~.~.~.~.~.~.~.~.~.",
"~.~.~.~.~.~.~.~.~.~.~.~.~.~.~.~.~.~.~.~.~.~.~.~.~.~.~.~.~.~.~.~.~.~.~.~.~.~.~.~.~.~.~.~.~.~.~.~.~.~.a a o.$.3.r.~.~.~.~.~.~.~.~.~.~.~.~.~.~.~.~.~.~.~.~.~.~.~.~.",
"~.~.~.~.~.~.~.~.~.~.~.~.~.~.~.~.~.~.~.~.~.~.~.~.~.~.~.~.~.~.~.~.~.~.~.~.~.~.~.~.~.~.~.~.~.~.~.~.~.~.a a a h @.4.h.~.~.~.~.~.~.~.~.~.~.~.~.~.~.~.~.~.~.~.~.~.~.~.",
"~.~.~.~.~.~.~.~.~.~.~.~.~.~.~.~.~.~.~.~.~.~.~.~.~.~.~.~.~.~.~.~.~.~.~.~.~.~.~.~.~.~.~.~.~.~.~.~.~.~.a a p p o.t.h.j.~.~.~.~.~.~.~.~.~.~.~.~.~.~.~.~.~.~.~.~.~.~."
};
