/* XPM */
static char *result[] = {
/* columns rows colors chars-per-pixel */
"80 80 208 2 ",
"   c #1E1D34",
".  c #151F3E",
"X  c #1A1E3A",
"o  c #231A2D",
"O  c #241C32",
"+  c #291D35",
"@  c #241E3B",
"#  c #2B1E3C",
"$  c #301F3F",
"%  c #1E2135",
"&  c #16213E",
"*  c #1A223C",
"=  c #1B2A3D",
"-  c #242133",
";  c #292336",
":  c #23243B",
">  c #2C223C",
",  c #222C3C",
"<  c #2B2A3C",
"1  c #30223F",
"2  c #111F44",
"3  c #1B1F45",
"4  c #251E43",
"5  c #2D1F41",
"6  c #321C43",
"7  c #3C1948",
"8  c #0E2245",
"9  c #0E2A4A",
"0  c #122345",
"q  c #1A2243",
"w  c #142A46",
"e  c #1A2C43",
"r  c #122749",
"t  c #1B2449",
"y  c #122B4A",
"u  c #1B2B4C",
"i  c #0E324E",
"p  c #1A3244",
"a  c #1D3846",
"s  c #12334E",
"d  c #1A354B",
"f  c #15394D",
"g  c #1C3B4D",
"h  c #1F2D50",
"j  c #0E3A52",
"k  c #143650",
"l  c #1B3551",
"z  c #153C53",
"x  c #193D54",
"c  c #242345",
"v  c #2C2342",
"b  c #242B42",
"n  c #2C2A42",
"m  c #23244B",
"M  c #2B234D",
"N  c #232A4D",
"B  c #2A2A4B",
"V  c #312245",
"C  c #312C44",
"Z  c #34234D",
"A  c #342B4C",
"S  c #3E2E4F",
"D  c #233445",
"F  c #293346",
"G  c #24354B",
"H  c #27364B",
"J  c #233B4B",
"K  c #29394D",
"L  c #3D3245",
"P  c #36304C",
"I  c #2C2750",
"U  c #242D51",
"Y  c #2C2B51",
"T  c #362551",
"R  c #382652",
"E  c #352A53",
"W  c #392A55",
"Q  c #322E59",
"!  c #3C2D59",
"~  c #233352",
"^  c #2A3354",
"/  c #243B55",
"(  c #293B54",
")  c #2C3459",
"_  c #253D58",
"`  c #2B3D5A",
"'  c #303154",
"]  c #3B3155",
"[  c #34335A",
"{  c #3E315C",
"}  c #333B5D",
"|  c #3B3C5F",
" . c #3F3561",
".. c #363D62",
"X. c #3D3B62",
"o. c #4B1E51",
"O. c #402D5C",
"+. c #55285D",
"@. c #443357",
"#. c #41335E",
"$. c #423A5F",
"%. c #452D60",
"&. c #413561",
"*. c #443B65",
"=. c #4B3C63",
"-. c #4C346C",
";. c #463E68",
":. c #493F69",
">. c #144356",
",. c #1A4256",
"<. c #1A4A57",
"1. c #164658",
"2. c #1A4559",
"3. c #164B5B",
"4. c #1B4C5C",
"5. c #17515E",
"6. c #1B515E",
"7. c #22414F",
"8. c #224553",
"9. c #224A55",
"0. c #23445B",
"q. c #2A435C",
"w. c #234B5D",
"e. c #2B495D",
"r. c #31415D",
"t. c #22525E",
"y. c #1D5461",
"u. c #1E5A64",
"i. c #2E4561",
"p. c #254E61",
"a. c #2C4960",
"s. c #354163",
"d. c #3D4366",
"f. c #215562",
"g. c #295161",
"h. c #215C65",
"j. c #215F68",
"k. c #395067",
"l. c #246269",
"z. c #53445F",
"x. c #494566",
"c. c #4C426A",
"v. c #4D4A6D",
"b. c #544364",
"n. c #52466D",
"m. c #59466A",
"M. c #544A6E",
"N. c #5B4B6D",
"B. c #50566B",
"V. c #4F4D70",
"C. c #554B70",
"Z. c #5B4E72",
"A. c #555272",
"S. c #5D5174",
"D. c #575D76",
"F. c #5B5A73",
"G. c #625469",
"H. c #604F73",
"J. c #615375",
"K. c #645A77",
"L. c #695B77",
"P. c #665778",
"I. c #695778",
"U. c #655A78",
"Y. c #6B5C7A",
"T. c #705F7C",
"R. c #5A6577",
"E. c #586278",
"W. c #5F727A",
"Q. c #6B637C",
"!. c #69657D",
"~. c #636C7C",
"^. c #74637E",
"/. c #61767E",
"(. c #6D6B80",
"). c #766781",
"_. c #796681",
"`. c #756B81",
"'. c #7A6A82",
"]. c #647680",
"[. c #6E7482",
"{. c #657A82",
"}. c #747584",
"|. c #7B7284",
" X c #767C86",
".X c #7A7986",
"XX c #777F88",
"oX c #7C7D88",
"OX c #6E8287",
"+X c #6D8A88",
"@X c #738789",
"#X c #7D838A",
"$X c #738B8A",
"%X c #7D8D8D",
"&X c #6F9189",
"*X c #70928C",
"=X c #7D928F",
"-X c #7E9690",
";X c #7E9C92",
":X c #7EA394",
">X c #7FAA96",
",X c #809390",
"<X c #819F93",
"1X c #81A495",
"2X c #80A996",
"3X c #81AE98",
"4X c #81B29A",
"5X c #83B99C",
/* pixels */
"0 z y x r x <.x 0 0 k r 1.x z 0 0 0 r w x 6.x w ,.f.f.l.l.l.h.t.^ Z Z W Z Z Z Z Z Z Z Z 6 + o o o o o o p >.i >.w 1.3.>.>.j y 9 y 1.>.5.j i 9 r s >.5.5.4.0.y.7 ",
"r 0 y 4.4.,.0 r z r z k 1.z z 0 r r z x 4.2.z y 1.4.f.j.l.h.h.| H Z W T W R T T E E R R Z 5 + O o o o - = f f 1.1.1.6.3.>.j 1.y r j >.>.6.s y r k >.y.y.f.6.5.7 ",
"0 x y f.y.4.6.y 4.9 z 1.k k x 0 r x x y 4.,.,.x 6.4.u.j.l.e.q.D B V W W ! ! ! ! ! ! ! ! W A C v v + o o % = p <.,.s 1.z z s r w x s j 3.f y r y k 6.y.<.p.2.Y 6 ",
"z w y 6.x x 4.y.4.k x x k k 8 x y x r ,.f.z 4.u.6.x 6.6.h.t., ; # R ! &.&.{  .-.! &. . . .*.&.! Z E + o o O = ,.6.1.s k i 9 r r r s 1.k 9 9 r s 3.u.>.1.2.l 4 4 ",
"x r x y.r x 1.y.3.3.3.z k k r x r y.x ,.y.z x u.y <.,.4.` ( B # W W #.:.:.c.D.E.E.E.E.E.D.Z.M.b.=.W V O o o % = 6.<.s y y r r z 0 r 4.y r w y y u.3.>.>.6.y q 3 ",
"4.r <.x x z ,.1.3.y.z 4.z k r x x ,.<.y y.x x x 1.k z ` ^ B Z Z R #.:.Z.C.F.$X*X*X*X*X*XOX(.Y.I.I.b.! V + o o O g w s 9 9 w r x r r 8 r r y ,.6.3.<.>.>.<.r 0 2 ",
"r ,.4.0 z x 1.1.3.y.3.k z z r x 1.4.4.1.<.y.r r k r s N E T E W #.c.Z.N.|.-X2X4X4X>X>X:X-X#X|.'.^.Q.z.S V + o o o = w r 0 s x 1.r r 0 0 y y 2.f.z y.z k z 9 r 8 ",
"y x 6.f.0 r 1.3.>.1.y.2.>.k 9 f 1.6.>.x 4.l 0 k 1.& B v Z W W &.b.S.!.XX~.2X4X5X5X4X1X-X%X%X,X,X,X XK.z.@.$ + o o % % & 0 s u.s s 9 r r d 2.6.u.x k i 9 9 r 8 8 ",
"r 4.4.y.0 y 6.3.3.>.3.6.x z k >.y.3.>.4.z 4.0 k . X O 5 W W &.&.Z.Y..X~.2X3X3X4X4X2X=X.XoX-X2X3X2X=X.XL.b.W 5 O o o o X q i 6.3.1.i w y k 6.y.f.1.k y r 0 k 1.0 ",
"r 4.x 2.0 y 4.<.3.>.4.4.1.r f 6.y.3.3.3.4.x 2 d X v O V Z W #.c.J.^..X=X<X;X;X2X3X>X-X#X%X:X4X4X4X1X#X^.m.{ T 5 O o O O & f 3.>.>.3.s s f.4.j.f.2.l w r r y z y ",
"x x x x 0 r 4.s 3.y.1.4.1.y j 3.>.>.4.y.x q f X O o v # T W &.c.J._.|..XoXoXXX%X1X3X2X:X:X3X4X4X4X1X#X).Z.#.! W V # + M 0 f 3.>.3.3.x x 2.6.j.y.,.y r 0 y x <.x ",
"x z x 0 0 y 2.1.1.1.1.z x 9 1.>.3.3.f 4.z r p O > o 5 # T W &.c.J.^.'.'.'._.'.oX-X2X2X2X>X3X4X3X2X-X|.^.Z.:. .W V # o v * s 3.>.3.u.u.6.6.f.y.3.x y r y x 4.h.6.",
"4.x z x r r 6.w x 4.x 4.x 4.k 1.3.>.>.4.x 2 ~ Z v > v # Z W  .c.J.).'._._._._.|.oX%X%X=X;X>X3X2X=X XQ.S.C.c.&.! R # v o n & <.>.3.u.y.y.u.u.5.>.k 9 s k ,.u.l.l.",
"8 x 9 z 2.,.4.y x z 4.x 4.9 j >.3.f z y.r f B v o > + # Z W  .c.J.^.'.`._._._.'.'.|.|.|.#X:X>X=X.XQ.S.c.:.;.&.W Z # O o o   = f >.5.u.u.y.u.5.>.z k k 4.u.u.u.j.",
"8 x r 1.1.y.y.>.x y 6.4.<.9 y x 1.z r x & d : > o o o # Z W &.c.Z.P.Y.Y.Y.T.).'..X.X|.'.|.=X=X#XQ.S.c.*.&.&.{ W Z v ; o > o c w f >.5.y.u.u.5.3.1.4.4.f.6.u.u.y.",
"0 x r 4.k 3.3.4.r 1.4.x x r k 1.s r r 0 c n o o o o + # Z W &.:.c.C.C.M.Z.P.^..X%X=X#X'.'.oX.X!.Z.n.c.*.$.! W R Z V < E o o o - = f 3.5.5.5.3.3.4.y.f.y.5.u.5.5.",
"x r >.2.z y.3.y.y x 4.r r k r <.k k 2 X O > o + + O + 5 Z W &.*.;.;.:.:.C.U.`.#X1X>X-X|._.).).S.c.;.*.*.! E 7 Z Z n < < C V o o c w f >.6.5.5.3.5.u.h.6.6.6.>.>.",
"1.z x <.j 3.3.4.r x x 8 x 1.0 x 1.q X X v + O + 5 5 # v 7 W W { &.;.c.C.F.(.%X<X3X>X%X|.).P.C.M.c.&. .! W Z M 5 v > < C S Z V o o   = s f 3.f >.3.u.j.6.3.4.j k ",
"f.4.2.4.z k y >.r 0 4.x k 1.r x 2 X D > > O T V Z 6 Z T T T T W { *.n.P.`.#X1X3X4X:X%X'.I.C.c.:.;.&.! E T T 6 # O ; < A #.O.R V o o   = s ,.1.s 1.6.u.4.>.3.s 9 ",
"h.f.p.y.k 2.x 0 8 x 0 0 3.x r 6.2   o v O # T W W T T 6 M V T W &.*.C.Y.|.%X-X1X1X-X X).Z.n.;.;.;.&.W Z Z T 6 O o ; < P @.#.O.A + + o O = >.0 1.>.6.u.>.k 1.w r ",
"l.u.4.2.k x 2.r 2 r r y x y.4.s w * O V # Z W &.#.W T 5 ; V W $.*.;.C.).'.|.oXoX#X.X(.Z.n.:.*.:.;.&.W Z Z Z 5 # o ; < < A W ] O.O.# o 1 M a z f 1.6.>.>.i >.0 0 ",
"u.u.4.1.1.4.y 2 x r 2.k 1.w.,.x ,.= v V W W { &.$.W 6 # O > P *.*.;.n.J.).).).).).Y.S.:.*.*.*.*.*.$.W T T 7 # + o ; < < < C @.&.O.1 o o v % q x j.6.>.j i r 2 2 ",
"y.5.3.x k x 0 t.0 y k 4.6.t.<.J P % o ; W { &.{ W V # + o ; V P  .;.c.Z.J.J.J.J.J.S.M.:.&.&.{ ! ! ! R T 5 5 + + o o - ; < < A ] W ; o o V n = 9 f 3.>.>.i >.0 0 ",
"3.>.1.1.y 4.2 z 8 2.l 4.y.h.t.D - o v v ] &.#.W V # o o o o O ; E *.:.:.c.c.:.c.c.c.:.;.&.! W R W T T V 5 @ o o o o o ; < < C C < O o o O A q w 1.6.>.>.6.9 r 0 ",
"j j k 1.s 4.0 r r r l 1.f.f.8., > ; > S  .*.&.T 5 + o o o o o # A { *.&.$. . .&.&. .&.&.{ W Z Z Z T V 5 # O 1 1 L @.L L C < < < ; ; > o o C B q y 1.3.z 6.2.k k ",
"j j s 9 r y.0 0 z x s x ,.2./ A v A E $.;.*.{ T 5 + o o o O # 6 Z R W W W W W W W W W W W T T T Z V 5 + # > @.z.G.G.G.z.@.C n n < < < - o o v % q 2.5.y.4.6.x 2.",
"y r 1.r r z x x x x y y ,.~ e B - A $.c.;.*.! T 6 # o o + # V R R E R Z T T 7 T R T T T Z Z Z Z 7 M + + # Z =.J.^.^.^.G.$.Z v < < < < ; O o 1 v * q 6.l y.f.y.u.",
"w z 0 r r x 8 x x 0 r 2.q * B > V E *.;. .! W Z 6 5 # # > V W ! { { W T I 6 T E W ! W Z 5 5 # # 5 O o o v @.m.T.^.^.Q.N.#.Z > > ; ; ; ; ; ; o o X r y 2.6.f.u.u.",
"0 x 0 8 x x 0 r z 0 8 2 X O v o ; A *.$.! T T T T Z T Z Z E #.*.;.*.&.W Z Z T R { *.{ E 6 # O + + o o + C &.C.Y.).P.n.*.@.Z # + o o o C < < O v * u z 6.3.y.u.u.",
"z 8 0 x 8 x 0 x 2.0 & *   v o + ; C ] ] R Z T T T E W W W #.c.n.n.;.&.! W Z T W *.*.&.W Z # + o o o o # Z $.c.N.H.n.&.! T Z # # + o o ; ; ; O A v p ,.t.u.y.y.5.",
"z 0 0 x r x <.0 0 q c   O > v Z 6 V v V V Z T 7 E ! &.&.&.c.J.P.Z.:.*.&.{ W T T &.*.*.&.{ A v + o + # V Z W O.@.#.O.W E T 7 6 V # O o 1 o - o v v , D 9.u.4.3.3.",
"2.r x y y 2.z y 0 X   o o > + 5 V # + ; V T T T ! &.;.:.c.Z.Q.`.!.C.v.c.:.&.! %.*.c.c.;.&.W Z # + # V Z Z R E R R R E E T R T T V # O o o o o o > v , 9.y.6.4._ ",
"0 r x k x y.x w *   o O o o > # # # 5 5 V T W ! { *.:.n.S.!. X%XOX{.~.F.J.N.m.m.Z.Z.C.:.&.W Z A A Z V T T W ! W W ! ! ! { ! W T Z 5 5 O 5 + - ; - 1 , 8.j.q.q.} ",
"0 2.x x 1.w.x b   o + o V o v O O 5 6 Z T T ! *.*.*.c.Z.^. X=X>X>X:X=X}.).^.Q.).Y.).S.c.&.W R ! $.#.W W { *.*.;.*.*.;.*.*.&.{ E T 6 5 5 + o ; ; ; V , t.f.} y.#.",
"r x 4.x w.f.9.e > o + W > > V - @ 5 T T E ! *.n.C.C.S.!. X%X1X4X5X5X:X%X#XoXoXoX|._.Y.Z.n.=.=.&.;.c.x.B.B.E.E.E.E.E.D.D.Z.M.&.O.W T Z # > - < < C - , J a.q.6.+.",
"r y.y l 4.4.,.= O + # W A ] ' m 3 3 6 W O.*.N.P.Y.I.Q. X=X1X2X4X>X5X3X2X<X<X<X,X.X_.).I.Y.I.J.m.c.B.W.+X&X*X*X*X*X*X*XOX(.P.m.*.! W Z # + o < < < , b G g.q.6.+.",
"r 2.y s l x a B v + V E  .*...2.x N E ! &.:.J.^.'._.|.%X>X4X4X4X3X4X3X2X2X2X2X-X}.).).).).).Q.S.v.D.$X:X4X>X3X>X4X>X3X<X#X`.F.c.&.W T 5 o - < < C C F b Y ` 6.o.",
"r z x y w w =   o ; A { *.;...0.2.0.q.$.*.n.J.)..X,X,X1X4X4X4X4X4X4X2X;X%X=X%X X(.F.Z.J.J.J.J.J.J.!. X-X2X5X5X5X5X5X5X3X<X#X(.V.*.&.W v o - ; < P ! E v # H ,.o.",
"r x x 0 q % o o o V ] *.;.;.s.p.4.p.*.*.*.c.J.^.oX=X2X3X4X4X4X4X4X4X;X#X|.|.|.!.Z.c.c.c.c.c.c.S.Q.).'..X-X2X4X4X3X4X4X3X>X-X].c.*.*.&.C ; o < < ! ! O.1 O # ~ Z ",
"y 1.2.d e : o o + V { ;.c.;...p.4.` *.;.*.c.J.^.#X1X4X4X4X4X>X4X4X4X<XoX_._._.I.C.;.*.;.*.*.c.Z.I.^.).'.oX-X<X;X;X:X4X3X>X*X].v.*.;.*.S 1 ; < C S #.W > O b ( q.",
"z 3.5.p.x , o # 5 W { ;.:.:...l 2.) *.;.;.c.Z.).#X1X4X4X4X4X4X4X5X4X;XXX_._._.Y.C.;.*.c.;.;.;.c.C.J.^.'.|.oXoXXX%X-X3X2X=X.XF.c.;.;.*.! Z v < < C ] 1 ; - J t.l.",
"3.u.5.f.8., o $ R W &.;.;.*.) _ x ) *.;.;.c.Z.).oX,X2X3X4X3X3X2X>X:X,XoX'._.^.P.n.*.*.*.*.*.*.*.;.M.P.^._.'._._.|.%X;X;XoX).P.c.*.;.*.{ E Z C n C W < o - J t.u.",
"y.y.3.2.d = O # W ! &.;.X.[ Y _ _ [ *.:.;.c.J.)..XoX%X<X3X2X;X%X%X%X#X.X'.Y.P.n.*.{ ! { ! {  . .*.c.M.J.Y._._._.'.oX%X#X|.).P.:.;.;.*.{ T V n < L ! A # - a 3.u.",
"u.u.1.k * O + V Z ! { &.) t u m ` { *.*.*.c.Z.).'.'.|.,X2X;X#X|.|.|.'.'.^.J.n.*.! E T T T T W  .*.c.c.n.P.^._.'.'.'.|.'.'.).S.c.*.;.*. .R Z n C ] &.! > - p >.3.",
"u.y.1.r . O + V Z W ! [ Q k u p.R !  .&.*.c.J.)._._.'.,X-X%X|._._._.).^.P.C.c. .R Z Z T 6 T T W { &.&.;.C.P.Y.Y.Y.Y.U.U.J.S.M.c.;.;.;.! R V < C #.-.O.V - = j >.",
"5.3.k r .   Z # Z Y U h k x 6._ T T W { &.c.J.).'._.'..XoXoX|.'._._.Q.J.C.c.;.&.W Z Z Z 6 T 7 T E ! &.*.c.c.C.C.C.C.V.k.s.} | *.;.c.;.{ W Z n C #.%.%.1 o & w 9 ",
">.>.s w . @ O # V M l x k z p.I Z Z T W &.c.S.).).).^.^.).^.).^.).^.P.v.c.X.X. .W T T T T T T W ] $.c.V.V.V.v.c.*.;.x.i.0.x ^ X.*.*.*.! A Z V C O.&.O.1 o X 0 0 ",
"j i 9 r 0 . Y + v 4 x r i >.x I T Z T W &.;.M.Z.J.S.J.J.Z.J.S.J.P.J.C.d.q._ ) Q { { ! { { Q  .v.R.W.].].{.].E.V.*.&.{ _ t x x 0.i.! ! W A Z < C C @.A # o X 2 8 ",
"r r r x 0 0 2 * O J & r x 4.u M Z Z Z W  .;.:.c.c.c.c.c.c.c.c.c.c.:.d.e.1.6.,.U { ;.;.*.*.*.v.~.*X:X:X:X>X:X+XD.;.! E _ t r 2.4./ Y R T T Z n n C P < ; o X 0 0 ",
"8 0 r 4.0 0 M X D   e s z x t M T T M T  . .*.;.;.;.;.;.;.*.&. . .} ` 2.y.1.t Y *.C.C.C.C.D.R.OX:X2X5X>X5X4X*XE.*. .! q.m t x y.2.~ ' A V v n < < < < - X X 0 8 ",
"0 0 8 4.x u M   o = a 1.1.r t M ` 4 t m I W &.*.;.;.;.;.;.*.{ W Y _ 1.4.4.l M { N.Y.Y.Y.(.OX$X@X#X=X>X5X5X5X*XE.;.&.&.{ ` M h y.6.w.e.K > ; < < < P , * & 0 0 0 ",
"8 r x 0 x x r g % = <.3.s r q _ ` m 0 t I T ! *.*.*.*.;.*.{ W T m x i >.6.~ T =.J.^.`.|.#X:X:X%X|..X=X>X3X>X+XE.;.*.;.&.q.I ~ >.u.u.y.J : o ; < < < 8.w.r r 0 0 ",
"0 r x 2 y y _ y w g 4.s w * * c w.t 0 t 4 T W  .[ Q Q [  .! R Z 2.k j 3.1._ { ;.m.L.}.%X<X3X3X,X|.|.#X%X,X%X[.A.;.;.;.&.r.` N k 6.u.6.f * % < < P < F t.f.f r 2 ",
"0 r x 0 k ` / k x 4.r 0 *   % x x r 0 t I T T T I u t N T T Z q.^ z 3.5.>.i.X.*.:.V./.;X3X4X1X,X|.^.`.|.|.|.Q.C.;.;.;.$.! ` m y s u.y.f w q b < < < 7.t.f.6.y r ",
"0 r 4.s 4.y.q.>.<.0 . X : + : x 9 9 0 q 4 5 T 7 I u y t m Y E ) / ,.j y.x ..;.*.*.v.~.=X1X1X=X XQ.Y.L.P.Y.I.J.M.;.*.*.! Z v / * w <.6.1.s y b A A < D 9.u.6.2.s ",
"2 r z 4.2.4.y r 0 0 X   # ( B 2.k i r 2 @ # 5 6 Y l k k t l p.w.x k 4.d q.i.;.;.*.c.R. X#XoX X!.S.M.M.N.C.n.M.c.*.&.{ A v + J 8.g x y.j 4.g F W ; - , 8.u.y.f.f.",
"r s 1.y.f.1.8 2 0 X   O > A ^ 4.j j r 2 @ + 5 T Y x x k r k y.y.2.y 4.M ` ! *.:.;.c.S.Y.'.'.).J.c.;.;.;.;.;.:.*.*.! Z V J J O 8.+ x r j z 2.F C - O = a 3.u.u.l.",
"2.2.y.y.y.s 0 . X   o - F e.0.4.k 9 r 3 4 # 4 m N ^ l u y s 3.5.x k 0./ } { *.;.;.:.n.Z.I.^.^.J.c.;.*.;.;.;.*.&.! Z B K K K K K : x x 9 k ,.B v - * & y 3.u.l.l.",
"f.u.y.y.<.y 0 X O o o - 9.g.p.1.r 8 2 t 4 6 m 3 t I Y c 0 1.>.>.k y 4./ T O.*.;.;.;.:.c.Z.Y.).J.c.*.*.;.;.;.$.W Z > : 9.v Z Z Z _ t z 8 w N ^ v   q y 0 ,.1.j.l.",
"u.u.4.3.k 9 q X o o o <.9.y.4.k 8 2 r t I Z m r 2 m M N l 2.k k j x w.M T ! $.*.;.;.;.;.n.J.P.Z.c.*.*.&.&.&.{ Z B > J 9.c M Z T ( x z q q v H o X 8 0 2.y ,.u.u.",
"5.3.j 1.9 0 0 X Z o > - a 3.>.s 2 8 r t M Z m 2 0 3 u / 4.2.z y r 4.t M T R W O.*.;.;.;.c.c.C.n.:.&.#.W W ! Z > : J ,.4.u m I T _ x 0 3 M n > o X 0 2 r r z 6.5.",
"1.>.3.r 0 0 0 X v o Z - p f z 9 r 2 3 t Z I I 3 0 2 y x y.y.x 0 x x l M Z Z T W  .*.*.*.*.*.*.d.d.X.W Z Z V Z > : <.z j >.0 m M ` x q X Z > : - * w r 8 4.k 5.>.",
"3.>.1.r 8 2 8 & * v > o = s i 9 2 t m M I Z M m t 0 y z 6.3.s z t / _ I T M m M W !  .!  .Q Y ` p.0.( # # > < 8.9.g l i z 0 4 I ` l 0 c * = = 6.g ,.x r 9 i 3.3.",
">.>.1.r 0 0 0 8 q &   v X r r 8 2 m M T Z Z Z Z I 3 9 z 1.4.s x m _ 7 T M m t t I T W T I t u x 6.g 7.O o - 7.t.t.,.y r r 0 m T ( t m 0 0 y f 1.4.f.4.k 9 1.5.>.",
">.j 1.r r s l y r m M X c 0 0 8 0 4 v V Z T T T I 3 r 9 j 4.1.0 c ( ( Z Z m r 3 I Z 6 6 c e k z y.3.e O O ; 8.w.j.2.y 0 x _ M Z M I M 0 0 w 3.3.u.y.5.x k z 4.z ",
"i 9 4.r s 2.4.x r 2 M . 2 0 0 0 q 3 + 5 Z T T 7 M t 0 9 y r 6.2 q J K V Z m t t M Z 5 4 * f >.y.u.6.d q c / e.g.f.2.t 0 / _ T Z I 3 0 X   % w k >.u.y.5.4.x 1.y ",
"8 8 0 0 y.y.h.2.y r r y r r N r r T O @ 6 V Z Z M u y r r r y x = 8.# 6 M m 0 3 M Z 6 + * g 5.u.u.6.1.u ~ _ ^ e.f.2.y t _ Z T Z 4 t 0 X     & r j >.y.y.u.z y 8 ",
"0 0 0 0 y x 4.<.5.z x x s y r s G * v o + # $ # c ~ ,.s r y x 9.D 8.+ V T m 0 t M T 6 > c u 1.y.6.3.1.0 4.N ~ 2.5.>.y l ) Z V 5 4 0 0 2 X & q 8 j 5.5.y.5.x x 0 ",
"0 0 0 0 0 0 s k 5.y.y.y.x y 5.1._ p n Z o o o o b 9.f.x y k w.f.J D O V Z m 0 t M Z T V M t r k >.>.4.0 0 0 y ,.>.j x t M V $ +   * 0 0 0 0 0 r j 4.5.3.>.k y 2 ",
"9 s y 0 0 0 r y j y.y.u.6.>.y y.>.p % Z o o o   D t.f.2.y k 4.u.g = + c M c 3 q M V Z Z M m r i j s w & q t u k k s t m 5 $ + o o X . 0 8 8 0 r i z 3.z j s r 2 ",
"z z >.r 2 8 0 r y k 3.3.l y 9 z >.f 0 X v o   & d f.f.2.y s >.3.g q 2 q q M M O O R R ! E I U 9 9 w *   4 M m y y N m v 5 + o o o     . 0 0 0 r 9 y 2.z y r z r ",
"3.>.1.r 0 0 0 0 8 s j z i r y j j k r &     c 0 k 4.f.( y y j z s r 0 0 0 X O O o v # Z 4 t 0 0 & &   + # V M m t I E 6 # o o o o o   X 0 8 0 0 t z r y y x z 0 ",
"3.u.j 9 2 0 2 2 0 r s s y 9 r k s y r 0 3 X 2 2 k 2.q.H B & w s 9 9 0 8 8 X o 6 > o v # @ 2 0 2 X   o o + # # T I 4 T 6 + o o o o   X . 0 0 8 0 r z y 4.x l 0 2 ",
"5.y.i 9 0 2 0 r 0 r 8 r 0 0 0 r 9 8 0 r q 2 0 r k z >.p %   0 w r 0 0 0 0 X o o o o o O   q q X   o o o o O # 5 T T T M + o o o   . 0 0 w 8 0 0 0 x k y.y.x y 8 ",
"3.3.i 0 r s l s 0 8 2 0 8 0 0 0 r r y y y 8 8 2 9 j k w % X & 0 8 0 8 . X   o o - o o   * d d e         o o O v Z I M c , , : = = 0 r y 9 y r 8 0 x k f.f.4.x k ",
"y 9 x x k 2.4.z y 0 2 0 0 0 2 r r 1.x 1.>.4.r 0 r y r r & & 0 8 0 8 & X   o o o o 9.G * ,.6.f.x e . . X   o   c t t u u ,.<.f f f y y ,.6.k r w 2 x s >.y.5.6.p.",
"z x 0 y x f.j.x y r r r r 8 0 0 z k 5.6.y r 8 0 8 0 0 8 0 0 0 0 0 8 q * - - - - - O g w <.y.y.4.4.4.x 0 X     & 0 2 r 5.1.5.5.>.s 9 r 6.3.>.y r z 0 s k 5.y.j.j.",
"x x s 4.2.2.z l k x 2.>.y r 8 y ,.k 6.3.y r 2 0 0 0 0 0 0 8 r 8 8 w w p a g J D = ,.d ,.4.6.6.y.y r s j w & . . 8 0 r x y.5.3.j i w r 3.>.j 9 w k 0 r 9 1.4.j.l.",
"x y x y.p.l y 0 4.y.3.5.k r 0 0 y.6.y.3.9 0 2 8 0 r 0 0 0 0 0 0 r 0 4.6.3.u.t.t.,.w.f.j.u.5.>.1.r 9 z j s r 0 0 0 0 0 s z >.j 9 r 0 r k >.j 9 0 4.0 0 0 s 2.j.l.",
"8 y 2.h.6.l 8 2 0 y z >.j r 2 2 9 i >.>.s 0 0 r 0 2 8 0 0 8 0 0 r 8 9 j 3.u.j.y.z y 2.f.u.5.>.s y y j 1.k 9 0 0 0 0 8 y j >.k r 2 0 r i >.>.i r 0 0 2 2 r x f.l."
};
