/* XPM */
static char *result[] = {
/* columns rows colors chars-per-pixel */
"80 80 149 2 ",
"   c #5B553F",
".  c #675D3D",
"X  c #726A3F",
"o  c #7C6F3D",
"O  c #7C723F",
"+  c #101F44",
"@  c #0E2044",
"#  c #112346",
"$  c #122749",
"%  c #122B4B",
"&  c #12324E",
"*  c #19324E",
"=  c #143650",
"-  c #143B52",
";  c #193E54",
":  c #124356",
">  c #194256",
",  c #144658",
"<  c #1A4659",
"1  c #144B5A",
"2  c #1B4C5C",
"3  c #16515E",
"4  c #1B515E",
"5  c #2C454F",
"6  c #3C4244",
"7  c #3C4A48",
"8  c #3D534C",
"9  c #23415A",
"0  c #2A445A",
"q  c #234A5E",
"w  c #294D5F",
"e  c #24515F",
"r  c #34635D",
"t  c #1D5561",
"y  c #1E5963",
"u  c #284A60",
"i  c #215562",
"p  c #215B64",
"a  c #235F68",
"s  c #216067",
"d  c #236169",
"f  c #4C5043",
"g  c #41574E",
"h  c #5C5B43",
"j  c #525D4A",
"k  c #425B51",
"l  c #5D6246",
"z  c #53634D",
"x  c #5B6748",
"c  c #52684F",
"v  c #5F6D4B",
"b  c #436455",
"n  c #676B45",
"m  c #616E4D",
"M  c #62704E",
"N  c #6D744A",
"B  c #6E784A",
"V  c #767545",
"C  c #7D7540",
"Z  c #767A47",
"A  c #777A48",
"S  c #787C48",
"D  c #85733D",
"F  c #86793F",
"G  c #8D7D3E",
"H  c #937E3B",
"J  c #997E39",
"K  c #847C43",
"L  c #887D41",
"P  c #8E813F",
"I  c #94813C",
"U  c #9A843C",
"Y  c #9B893E",
"T  c #A98A34",
"R  c #A38639",
"E  c #A38D3D",
"W  c #AB8F3A",
"Q  c #A7903C",
"!  c #AC913B",
"~  c #B59235",
"^  c #BA9534",
"/  c #BE9B37",
"(  c #B4953C",
")  c #C49E37",
"_  c #C29F3C",
"`  c #C6A33C",
"'  c #CAA43A",
"]  c #D5AB37",
"[  c #DBAF37",
"{  c #D2AA3A",
"}  c #DDB239",
"|  c #E1B63B",
" . c #E5B93B",
".. c #EDC03E",
"X. c #878042",
"o. c #8C8342",
"O. c #918642",
"+. c #968841",
"@. c #9B8B40",
"#. c #BE9C41",
"$. c #B49749",
"%. c #C9A84F",
"&. c #DCB440",
"*. c #DFBD4E",
"=. c #E3BE59",
"-. c #EDC74A",
";. c #EDC84E",
":. c #F4C741",
">. c #FACC41",
",. c #FFD54D",
"<. c #FFDA4F",
"1. c #E5C451",
"2. c #EEC952",
"3. c #F4CD58",
"4. c #EFD25E",
"5. c #F5D457",
"6. c #F5D55F",
"7. c #FFDF5D",
"8. c #FFE35F",
"9. c #E7C565",
"0. c #EFCF66",
"q. c #F9DF6B",
"w. c #E3C77F",
"e. c #FFDE75",
"r. c #FEDD7A",
"t. c #FFE66E",
"y. c #FFE971",
"u. c #FCE67A",
"i. c #FFE97F",
"p. c #EFD99D",
"a. c #FFED83",
"s. c #FEEE8F",
"d. c #FFEF94",
"f. c #FFF197",
"g. c #FFF299",
"h. c #FFF2A4",
"j. c #FFF5AD",
"k. c #F9E8B6",
"l. c #FFF6B2",
"z. c #FFF4C4",
"x. c #FFF9C6",
"c. c #FFF3CA",
"v. c #FFFAC9",
"b. c #FFF9D3",
"n. c #FFFBDC",
"m. c #FFFCE1",
"M. c #FEF8E8",
"N. c #FFFDF2",
"B. c #FFFFFF",
/* pixels */
"# # = p 4 # # 2 e > 2 p > % i y 4 # # % # # e & > i i s d d d i < = % & ; i a a y y 4 = 3 4 % 1 y p 1 1 : 3 : # # 1 4 : : 4 % # t - : : - 1 % % & : 2 2 e 4 p % ",
"% % t i 4 # # & i 4 > ; < > i y # ; # 2 # # ; 2 = < i s d d d y ; = % = < i a t 3 1 1 & < - % & 1 y 3 , : : 1 & $ 1 = : 3 3 % % = 2 - : : 2 % % = 1 > < ; > ; & ",
"> > > p = # $ 2 4 * > # 2 2 > y # 4 * 2 % # # # 1 2 4 p s d a y q = & = < i t t 2 4 , & = > % & 3 3 y , : : = 4 = < = 1 4 4 % # 3 < - ; y > % % , : : 2 ; e % # ",
"2 > > y > # & > 2 1 1 * 4 4 4 4 # i 4 4 2 * + # * 2 2 t y d a y 3 ; = - t 3 4 1 > 1 t - # & % & : - 3 3 : : : 4 4 & = 4 = 1 % % t , t 4 3 % # - & - 1 ; > 2 % # ",
"< # 2 y - # < = 1 2 < , 4 p p y # > > 4 > e % # % - 4 t t y y y y 1 - , t 1 1 : 2 2 , > # # = - $ % 1 e 1 1 : 3 3 = - 4 % , % > - % i t % # & < & - 4 ; > - # # ",
"4 % e 4 1 # 4 2 : 4 2 % > e 4 y % 4 # < > 2 > % = , 1 t t y y y y t : 3 t : : - 2 < = % # = 2 > # % 4 4 3 1 : : 4 - 2 % # # > > ; % % ; # + i = - 1 2 1 & , * # ",
"2 = 2 * 4 % 2 4 : 4 : & ; < 2 y 2 > $ 2 > & > 4 4 y - - t t t t 3 t : 3 : : : , y = < > * t t > # # % / 4 4 : : : & 4 # * ..2 % % ; = + $ % = < > p - 1 & 4 4 # ",
"* > # # i > & 4 : 4 < & > 4 2 , 4 & % 4 & & 4 4 t < < & 3 1 1 t < 4 1 3 , : : t 2 < > q ; 2 u = $ # # % : & - : & % 4 5 ....= = = < ; $ * = < < , 1 4 % $ < = @ ",
"# * # # y # & 1 : 4 - % ..4 > 4 y - & # @ y 4 2 2 4 - % = y : t 3 2 % = 4 : : y t , % ; 2 i < 2 * # # * 4 % 4 y % # % 4 ....e , - & % % = 2 i t t p i $ # 2 > + ",
"# : # # e # % & 4 y = - ..e 4 4 4 3 & % @ s 4 y 1 = > % & / 1 y < >.$ = 3 - - t t , >.< 3 t i ; : & % 2 4 - # 4 # # > < * e : 4 2 - % - ; t a i i * $ # $ i > % ",
"# > # # 1 # % & 4 4 & % ....4 4 3 2 = = @ y & y < < < & / : / = % >.# t > = = t 4 >.% >.t t t 2 > 2 < 2 2 > # y @ % > 4 & & 3 , : 3 , t t i t 3 > % # $ % 2 ; ; ",
"# & # # 2 # # % % , % # ..% 4 4 y - 2 i $ # # e $ 2 2 : : / t % % >.& < < = < 2 2 < >.= t 2 3 t 4 2 > 4 e - # y % < / < 4 & : 4 1 2 t a t t 3 1 - % $ % ; < 2 t ",
": @ @ @ 4 # & > % # # # * $ e : y : y 1 % @ @ $ = t 2 t y y - % = > t # < 2 ; t 2 ; % = t : 3 >.e 4 4 > > > @ e 1 4 # 4 : % - : t 3 i t a 3 1 : - % & = 4 i p p ",
"5 @ % = 2 > 4 y # # # % > > y - p 2 y / , @ $ % 2 2 : : y 1 > > 2 % 2 # 2 % 1 % 2 * = = 2 : : >.s e e 4 * > @ e 2 4 # y > % & : 3 3 t a t 3 1 : - - 2 2 1 y y a ",
"& # > 4 y y y 2 # # # > 4 4 4 & - , t / 1 % % - t : : t t > - ; ; > ; $ % - 2 >.< < > = 2 y > >.p p 4 y $ # # 4 > > & e # & & & 3 t t y y 1 , 1 2 2 > < 3 y y t ",
"@ * 1 p 2 : 2 & & $ > 2 4 & # % 2 % t ) t % = 1 : : : t 2 > > ; >.; / % & t y t y y 4 > 1 t - 2 i p 2 y * $ ..e > 2 4 4 # > 1 % = y 3 1 y 1 3 y 1 2 t i t y s 1 ",
"& e < 4 : 4 - & > & & i s < # * 4 # 4 e 4 & : 2 1 : 1 t 1 , % >.q ..$ & - e 4 / 4 s e 4 4 e * < i i 4 4 % # @ * 1 2 4 s % > / # % & 1 : y : p t 3 t t t y y 1 : ",
"4 4 > 4 , 4 & 1 $ $ 4 p 4 # # 4 # & 4 # 4 & 2 / : : t 1 3 % # < ..2 * - - : : / s y 4 s 1 > > 2 t t p i : % # - 2 2 4 4 < & < # % % , = t - 1 t 2 t y y i y - - ",
"e e s > 4 & & 4 % > 4 e 4 $ & < * 2 ; # 4 : 4 : : : t t / $ # % ; 5 4 < 1 : - / 4 3 4 4 e 2 2 3 4 3 y 4 4 & % , > q 4 4 4 , 4 # $ $ - & t & : 2 4 1 3 t 3 1 & % ",
"s 4 s , 4 % # > > # 4 2 ; > * 2 > 2 # # % 4 4 : - 1 t / = / $ % ; 4 4 4 e 4 % & : s 3 4 s 4 4 ) 3 3 y : 4 1 & 4 * : ..r e s e % + $ - % t % , < 3 : 4 3 4 % % $ ",
"s s 4 4 & # # < # & 4 - 4 & e & 4 > # # $ % - : >.y p 4 _ & = - > p p y 2 & # % & 3 , 3 s s s s y 4 : : 1 y - 3 4 >.2 y 4 s s $ $ $ ; % < - $ t 2 ; t 1 1 % # + ",
"s 4 4 s * # # # # 4 e 4 > > > < p * & # # % & - >.t p < < 4 4 u 4 4 t i - % # % % & : 4 d ....y 4 y : 1 ( y 3 y 4 >.2 y s 4 & ) $ & 9 ; 2 ; $ q >.: 1 1 2 $ # + ",
"4 s 4 4 % # + % % e = d i i 4 4 e > & $ # $ % : >.t y # = i 2 4 e ..y : = % # # % % - 4 r y ..y 3 4 1 : 1 y y 3 4 >.4 3 4 : % $ $ ; 4 i a * $ $ >.t t - : $ # + ",
"y 4 4 s % # % > q % ; ..p s s s i 4 > & $ @ - # = t ; & q < t y y 3 4 : = & # # # $ & 4 p <...e 1 3 , : : y 3 y p t 4 4 4 = % & - 4 i i i < - % >.>.t - t % $ # ",
"y y 4 3 & $ > 2 4 % * < s 4 s e p y 4 ; - % < # 4 y 4 1 : 3 t y 4 y : : : 4 % $ # ) % e e 4 4 4 : 4 3 : , 1 y y p y 2 t - = & 1 t t i t 4 y :.>.>.= = ; = = & = ",
"4 4 4 % < = % e 2 % & 4 < 4 4 4 4 y 4 4 t >.q # # e q > 1 t t t 3 4 3 / 4 4 < > $ * ..e 3 4 4 : - t / : : 3 y a a i < 4 & - , >.< 4 t 4 y - 2 $ >.>.& = ; ; < < ",
"& 2 4 = > > < 4 % # $ 4 & = 4 3 t 4 i t i y 2 % * i 2 4 t 3 3 1 3 3 s 1 = 4 4 $ 1 ..* ..: , 1 * & / 1 / 1 1 t y p i ; 2 / 2 >.4 >.4 3 1 y 2 ; # @ $ % = ; 4 t y ",
"> # # 2 # 2 > e > & % 2 % % 4 4 y 3 y i / p p 1 > > i p y 3 t : 3 3 4 4 - 4 4 2 e q ..4 : , 3 : % 2 ( 1 t 1 t t p 2 ; < = i 2 >.y t 1 1 y y = # # $ % = < i y y ",
"# + # # % < * > q 4 > > + - 4 y 1 1 3 s y y y y 4 >.p a y t 1 : e ..1 4 , 4 s p > < % 4 : >., 4 % > / t 1 , 1 3 t 2 t < t < 4 t t 1 - t t i $ $ % & = ; 1 t y y ",
"# # # $ < # < # # # > 2 # e - 4 y 1 3 y 3 y s y ) i a s y 3 t : s < 2 4 % 4 # 4 # 4 > 4 2 4 4 1 t @ 2 2 & 1 t 2 3 3 y y i 2 4 4 >., - 4 < t # % = ; q 2 t 2 t 3 ",
"# # # > # # > # # # - 2 # 2 > s y 1 , 3 y y y y y a a a y 1 t : 4 4 > 4 # # # e # # s 4 - 3 1 & t # $ # $ = i 3 #.1 y y t 4 3 < >.2 > ; ; t $ % - q t t t 1 1 1 ",
"# # # $ % % % $ # # < < - 2 < 4 1 y , :.y 4 y y p p p y t t t - e 1 2 4 # # # 2 $ % p 4 , 4 - & % % $ # # 2 ; 2 4 1 t y y t 1 : >.& / ; 4 & $ % ; 2 y t 4 q > % ",
"# & > = 4 < ; - % # 4 = < 4 > 4 1 4 4 3 y y y 3 y y 4 4 3 3 1 : s ..4 4 % # # > % - - y y y = : - , / $ # 4 & : 4 3 3 3 3 3 : : < % ..% 4 $ # % - 2 4 i w % & % ",
"# 4 4 4 4 4 e 2 < % % * 2 4 4 1 > 1 4 s : y 3 3 3 4 y 3 3 3 1 , s * 4 * # # # 1 - 3 t t y t - y 4 y & % # < - 4 4 4 / 1 3 : - , % # ..5 4 # # & = 1 2 q % % # # ",
"# # q > s p s 4 * 4 > 2 * 4 # e % & y ..1 3 3 1 3 4 4 4 1 ..3 : 4 % 4 # # @ * M K n A C C h 2 t : y - % % 2 2 , 1 y 1 1 : - 2 $ # $ ..> ; & # 2 - t 1 9 % + + # ",
"# # % 4 4 4 r ..4 4 : e - 4 & 4 - % s ..3 1 3 3 3 y : : : y : : s % # # % 5 z P G n V o o H C r : t : & , > 2 , : 4 1 : : : < @ # $ 2 > < 4 $ 2 4 2 2 & * + # + ",
"# # $ e 4 s ..2 ..4 4 s 4 4 < 2 4 & 4 ..3 1 1 1 4 : & & - 4 : 3 t % $ % j Z V ` [ | } [ { H ! +.r 4 4 1 , 2 : , 4 4 : : : 4 % @ # & > 4 y y $ > t , 2 1 $ # + # ",
"# # # & = s e ..e 4 4 s s s e 4 y % y e ^ 1 1 3 1 - & % & 4 , : 4 % $ l P X.$.9.e.e.e.0.=.%.E Q O.M 4 y 4 3 & - 4 1 4 : : 4 % # % > 2 4 y % $ i t & % q ; $ # + ",
"# % # > 4 4 & 4 4 4 s s y s e 4 4 % 4 1 : 1 3 : : & % % & 4 2 : = & h +.K #.w.k.c.c.z.c.z.p.%.~ Y o.y y 4 4 = > - % 3 : : 4 % % % 1 3 4 y & $ # 4 4 * 2 # > # # ",
"# 2 ; & e < : % 4 , 4 4 s ' ..4 - % 4 4 : 3 : & & & % % < , = - 8 l L L / 3.f.M.B.B.B.B.B.z.r.&.T O c 4 s 3 - , > % & & - & % % % 1 : t 4 & $ # ; i t # # < + # ",
"& i 2 4 y # = % > : : e y 1 4 4 5 % 3 : 1 1 - : & > > 2 > & % & l o.K ( *.y.l.N.B.B.B.B.B.n.d.6.{ Y O x y y = 4 # # % & & % # # % 2 1 y , = $ # & i e # $ 0 0 i ",
"4 2 * > 4 # = # % 4 4 4 s , 4 % & & : 5 y : : y - & 2 e & ; # & V +.) -.t.s.z.N.B.B.B.B.B.n.h.u.5.} ~ P r y = > # # # & < # # # % 4 t y >.>.) $ 4 4 4 # < w p y ",
"e > # > 2 # > # - 4 e 4 3 1 e % % : & ..4 : y y 4 e 4 & # % # & K Y } <.y.g.v.N.B.B.B.B.B.n.l.a.8.../ P n s & % # / % 2 < + # # % 1 y y - >.$ ; & 2 ; $ i i y s ",
"4 # % > # # > $ 4 4 4 & 2 4 % % @ 1 & ..p 4 > 2 4 > # # $ 2 # $ G P | <.t.g.v.N.B.B.B.B.B.m.l.a.8.} ^ X l & % & & > 2 > # # # & # & 4 t , >.% 4 % < 4 w i i y y ",
"; # < # # # = < * # % % 1 e & # # - * ..2 3 / 1 s : % # < > & % F F } <.t.f.x.N.B.B.B.B.B.m.j.a.8...^ X X % & < < < 4 # + # # < # - * = t t 2 p e i e e y y y 3 ",
"# # 4 # $ % < e > # # % 1 > < % # > < p : 5 4 p e 4 > # e & > # O O  .<.y.g.v.B.B.B.B.B.B.m.l.a.t...^ D D % > > & e > % & & & 2 % > - & t i i t ; e p t y 4 t : ",
"# # $ % ; 4 4 e > $ @ : 2 > > > # e # 4 > > 4 p 4 s # % 4 2 < % O P ] ,.t.f.x.M.B.B.B.B.B.n.j.i.8...^ I P > & # 4 4 & = e e 2 4 * > 2 2 i - 2 2 ; p p i i , 1 - ",
"+ # & - e 4 < 4 % > @ @ 5 2 - 4 % > # > > 2 3 y e 4 % > 4 # 2 # f C I ` 4.i.j.b.m.m.m.m.n.z.f.t.1./ U Q   + + # q 4 4 e 4 ..4 e * 2 4 4 2 t # 2 > p y p i - 1 & ",
"+ $ < e 2 i >.; % + # # ; 2 ; e = % $ e , 4 s 4 4 : % > 4 $ 4 % % g I Y ` 2.a.h.l.l.l.l.j.d.t.-.( P ! Y 2 * % / % t 4 u t < t 4 - 2 2 4 2 e @ 4 < 4 s e t 2 % # ",
"& < < > 2 >.2 >.% # # $ > 2 % 1 < > & 4 4 4 4 4 4 4 - > 4 @ < < > % m o.@.` 1.u.a.a.a.a.a.q.;.` Q ! E N 2 t < < < ; 4 i t t i - y 5 = = 2 = > 4 4 s i 4 t < # + ",
"4 2 > > 2 4 >.= % # # % * ..< # e $ # > < 4 s 4 4 , 4 # e & 2 4 < > k V L P ` 1.8.8.8.8.7.*.( O.! Y N g i t i 2 ; < 4 t p 4 2 > r ..* & ..> e 2 4 4 4 4 2 < # # ",
"i q 2 < > q % % $ $ % = < y 1 * > > % & < p : 4 : 4 < # 4 > > 2 i = > b h K o.{  .| } { ) / Q +.S r 4 4 2 i i 4 2 4 3 i 2 4 t % ....> > ..' 4 4 4 y 1 4 = - % # ",
"a i i ; ; > $ # # # & 4 4 s 4 , > / > # 3 y - t : 1 > # # < % e ; % 1 2 6 S D V C O.G J R W Q Z 4 1 y 4 s y p p y t 3 t : t < - # ....4 ..: 4 : 3 3 1 t > > % @ ",
"s p t < 2 # # @ % & : 4 4 4 4 > > & - # 4 y - t : : < - & % 4 * * < 2 i & g h v h B N . l M N 8 4 1 4 y s d s s y y 3 t : t - < # % r s ..3 3 1 4 3 1 4 t % & @ ",
"y t 2 - < $ # % - 1 1 : 3 : 4 2 * % 4 # 4 y & & < % 3 4 2 2 4 - % e i ; * # # 4 # > 2 7 j b r = 4 1 4 y d s s y t t 1 3 t t = 2 % 3 s 4 ..r 3 3 3 y y 1 y - @ % ",
"1 1 : : < $ % = ..: : 3 : : > 2 % > * % 4 2 % * * % - e ) 4 # > > 2 1 2 # # # 2 % 2 = e * > - 1 4 3 3 s s s >.4 1 1 1 t t >.- - & 4 4 4 s 3 4 3 3 y y 4 y 4 % & ",
"1 : : 3 2 % 5 ..4 ..: 4 : : & : >.@ @ > > > % > # # > 2 / ; $ 2 < t > > # & % 4 > # 2 e % = > 4 t 1 3 t p i t 1 : : : : y 1 1 , 2 4 4 3 4 1 1 4 4 y p 4 i 4 % # ",
": : : 3 % % 2 ..2 ..: 2 : - & : >.% % & > # > * >.# 1 / < ) - * e 4 < = = e * 4 2 = 4 2 4 # 2 2 y 1 1 t t t 1 1 : 1 : : y : t > 4 4 1 3 4 4 4 4 1 t y q e i % % ",
"1 : : 4 % : 3 ..1 ..2 1 - & & 1 >.= % # 2 # < # # # 4 i / # 2 1 y 4 > % 2 4 2 i i y > < y $ % ) : : 1 t t 1 , 4 3 y : : y = , 4 2 4 3 , s 4 4 4 , y 4 2 4 y % # ",
": : : 4 % e , - ..2 e : % % & 4 - : & $ & % # # # # > 2 # & > y 4 > # ; i i i t ; 4 = i 4 = & 1 : : 1 1 1 t 4 4 t t 1 t t - < t 2 4 4 : : 4 % % 4 t 1 2 e y # + ",
": : : 3 % 4 % & : : y & % = : : 1 4 - = % < $ # # # i # # 4 % i t $ * i i q t 2 2 % > 2 t y % 1 : : : : : 4 y / < - & 1 y & 3 - > 4 4 - 4 i $ $ & y y ; 4 1 # # ",
": & & : - 4 % % = & & # @ 4 y 4 t t 2 - = 2 $ # # $ e # % i 2 i 2 ; 2 i 1 ) < 4 < $ $ i < y / 1 : : : : 2 4 - > > @ & & & - i 1 < 4 4 : 4 > % # = t 2 1 y 2 # + ",
"& % % & 4 4 % & 1 - & # # y > 2 p p i t q ; * # # - ; # 2 p 2 ; * t i 2 > ; 2 p % $ * ; y p 1 1 : : : : i > > > > # $ % = > i 1 4 2 - 4 > = < # 4 % % 2 p + + # ",
"@ # # : 4 5 : = > 2 # # # 4 4 e p p p p i < = % # 2 # # < 4 > < < i i i > = < # # # @ # 2 t : 3 : : 1 1 - 2 # > > $ $ % 2 > e # e < & % > # 2 # 2 # # # # + # # ",
"# # * % 2 > > > , 4 + # # % ..e e s s s e e 2 > ..e # # e > 2 < 4 4 s e < - > # # # # # y % 4 4 4 4 1 % > e = & & & % % > - > % & 4 # ; = # e # % - & * % & # # ",
"# # > > e > * > * > # # # % * e e e e s s s 4 ..e ..# # 2 = < ) y 4 4 ..> 2 # + + # # # e # 4 % 4 - % % - # e > < 4 2 : : 4 % 2 - 4 # > > + 4 & > 4 , 1 % % % @ ",
"# # : & 5 # > > < > = # # # $ ..2 > 4 s s s s e ..< & % 2 2 4 p 3 4 1 : 3 1 # # # # # > e # # # & % # # > = 4 p 4 s y 4 ) 4 % 4 > e # > - # e 4 - - - 4 - % & & ",
"# % 3 # % % 1 # q # > # # # ..* ..4 2 e s s s s r 2 & > 2 i p s y ^ : - 2 * # # # # # 2 # # # # # # # # > 4 p p s 4 s 1 2 & % # ; ..# > > # # < 3 - : - 1 & % % ",
"# < & % & = & * $ # > # # # * ..9 2 1 4 e d d s t < = 2 4 y p p y 3 1 : 4 # # # % * > & % # # $ # + + # 2 p 4 4 4 s 3 4 ..& $ & < % = - > $ # % > 4 - - 2 2 & % ",
"+ < % * , > > * % # # + # # > < ..* 4 4 3 s s s >.t 1 t e y p >.y 3 1 1 4 & - % & 4 4 4 < / # > + # + # 2 i > ..4 e 4 = * % # < % = 4 4 4 % # # % i & & - 4 1 & ",
"+ # * ; 2 i 2 ; % # # $ * = > # % % - 4 3 4 s ,.p >.y 1 1 t p >.y 3 4 4 , : # & 4 4 4 : , % & > # # # $ 4 , ..< ..4 4 % % # # # % 2 4 : 4 % % @ # 2 = = < t y y ",
"% * = 2 t t 2 > & * $ > & ; # # & & * 4 : 3 4 ..y >.3 1 3 t y >.4 4 1 4 & # # & 4 : 4 , < 4 4 ..& % $ ; 4 4 5 .., , 4 > # # & $ % 1 4 : 3 & % % $ i = ; < i y s ",
"; - < y y t 1 - % t = = 2 , & % : * = & : 4 4 ..t >.3 3 1 3 y t 4 3 3 3 - # # : 4 3 4 1 4 s 5 ..q > = < 1 > > 1 : 2 4 > $ # < # % 4 s 3 3 % & = ; i 4 1 4 4 y y ",
"i u t y t 1 : , - i & 2 4 : - = # # % % 2 4 s 3 >.3 1 t 1 t 3 y 4 3 1 3 & % # 3 : e 2 > , e 2 ..< 4 e > $ $ > 2 1 1 y 4 ; # q # & 4 1 4 - = , = * 4 4 e 3 3 t 3 ",
"a a y y t : > p t & , 4 3 4 : & % @ # > e 4 : , : t t 3 3 1 y y 3 : : 3 & % % 4 - 4 4 1 - * e 1 4 y e < = % > 2 y 2 y y = # 2 % 2 4 4 4 > 1 > e > p p i 3 1 : : ",
"y y y t y : 2 t = < t i 1 : - 1 & & # > 3 s : , : 1 1 1 3 t 3 s 3 : : & & - & 1 - 3 1 > % : 4 > 4 y 4 2 2 , - 2 y - 4 2 < # 2 4 4 4 4 4 2 4 , 4 4 t t t 1 : : - ",
"t y t t 1 1 > t ; ; & 1 y 3 1 - : 3 : # 4 e 3 : : 4 = 2 1 t 4 y 4 - & & : 3 4 4 - 4 2 > # % 4 4 2 4 y 2 2 y - = , > e > 4 % 2 4 4 > 2 4 , 4 > % 1 i 3 1 : - & & ",
"y 1 t 1 t % i ; 2 % % - 3 3 y , > e > $ 4 s , : 1 1 & > 1 , t y y * & & 2 4 : & 1 4 4 # # # 3 2 : 3 y y p y ; = < - 4 # 2 4 > 4 4 # 4 < < # > & < 4 , : - % % % ",
"y 1 t t % = 2 # ; % % - 3 1 4 3 4 y : > 4 4 4 : 1 < % 4 > 1 4 4 4 3 - % & : : : 4 % e # # # & 3 : 3 3 y p t < ; > 4 4 # p 4 & 2 2 % 2 * > > > > & : : - - % @ @ ",
": : t 1 % 2 ; + + % = - : y 1 1 y e 4 4 % 4 4 4 4 & % # 4 1 y : y > > % & : : 3 y # # # # # % s : y y y a p i 2 4 p > # e 2 4 e > < 4 > 4 s < % & - : - & $ @ @ "
};
