/* XPM */
static char *result[] = {
/* columns rows colors chars-per-pixel */
"80 80 211 2 ",
"   c #040302",
".  c #070709",
"X  c #080A0B",
"o  c #070807",
"O  c #0A0C14",
"+  c #0D0F1B",
"@  c #110F1A",
"#  c #0D1513",
"$  c #0E111C",
"%  c #0F1917",
"&  c #141515",
"*  c #171817",
"=  c #14121D",
"-  c #17181B",
";  c #191A1B",
":  c #0F1221",
">  c #0F182F",
",  c #151622",
"<  c #161927",
"1  c #1A1B24",
"2  c #12152B",
"3  c #151A2B",
"4  c #1A1D29",
"5  c #181723",
"6  c #0C1636",
"7  c #0E1836",
"8  c #151C36",
"9  c #181E36",
"0  c #161E3A",
"q  c #181F3A",
"w  c #1E2122",
"e  c #1D212D",
"r  c #152624",
"t  c #1C2236",
"y  c #1B223C",
"u  c #1B293C",
"i  c #1E3935",
"p  c #1B332F",
"a  c #212223",
"s  c #22262A",
"d  c #262D2D",
"f  c #2A2A2B",
"g  c #252827",
"h  c #222534",
"j  c #252A35",
"k  c #2B2E32",
"l  c #21273E",
"z  c #242B3C",
"x  c #2A2D3B",
"c  c #282335",
"v  c #332B37",
"b  c #2C3535",
"n  c #2D3935",
"m  c #27303C",
"M  c #2B333B",
"N  c #2F3A3B",
"B  c #343434",
"V  c #34363B",
"C  c #3C353A",
"Z  c #323D3B",
"A  c #3B3A3C",
"S  c #383737",
"D  c #452A1B",
"F  c #4A2E1D",
"G  c #42271A",
"H  c #4E321F",
"J  c #50321F",
"K  c #4B3521",
"L  c #543521",
"P  c #5C3B23",
"I  c #543D22",
"U  c #402E34",
"Y  c #4C3433",
"T  c #453E39",
"R  c #52383D",
"E  c #653C31",
"W  c #693C30",
"Q  c #623F25",
"!  c #22433F",
"~  c #36413E",
"^  c #3B453E",
"/  c #554729",
"(  c #454C39",
")  c #474637",
"_  c #544334",
"`  c #5B4B3A",
"'  c #5B4537",
"]  c #55553C",
"[  c #4D4026",
"{  c #6C4629",
"}  c #644026",
"|  c #764D2C",
" . c #67582E",
".. c #7D512B",
"X. c #674636",
"o. c #794632",
"O. c #764832",
"+. c #625837",
"@. c #795D3C",
"#. c #76573A",
"$. c #5C633B",
"%. c #666B3C",
"&. c #786637",
"*. c #74793E",
"=. c #67703C",
"-. c #121F48",
";. c #162147",
":. c #1B2446",
">. c #1C264A",
",. c #1E284E",
"<. c #1A2445",
"1. c #1F2950",
"2. c #1F2652",
"3. c #212742",
"4. c #232B43",
"5. c #2B2E42",
"6. c #2D3143",
"7. c #263C45",
"8. c #313546",
"9. c #343A44",
"0. c #343A4A",
"q. c #3A3D4C",
"w. c #3D3941",
"e. c #212C56",
"r. c #222D58",
"t. c #253757",
"y. c #312C43",
"u. c #283D62",
"i. c #423743",
"p. c #244544",
"a. c #364041",
"s. c #3A4542",
"d. c #3B424F",
"f. c #3B4646",
"g. c #3B4354",
"h. c #3F4952",
"j. c #3F4858",
"k. c #2E5C57",
"l. c #30605C",
"z. c #2E4E6A",
"x. c #3D7B78",
"c. c #376E6A",
"v. c #454444",
"b. c #4C4B45",
"n. c #4D4B4C",
"m. c #494548",
"M. c #554E48",
"N. c #424551",
"B. c #414B53",
"V. c #494A56",
"C. c #444D5D",
"Z. c #4D4E59",
"A. c #46515E",
"S. c #545353",
"D. c #585657",
"F. c #5D5A5A",
"G. c #5A575A",
"H. c #6C5744",
"J. c #755A43",
"K. c #795E44",
"L. c #615F5E",
"P. c #7A6F44",
"I. c #475161",
"U. c #495363",
"Y. c #5A5A62",
"T. c #646263",
"R. c #6E6A6A",
"E. c #696566",
"W. c #716D6D",
"Q. c #74706E",
"!. c #757172",
"~. c #7A7675",
"^. c #7E7979",
"/. c #7D7877",
"(. c #736F71",
"). c #884D2F",
"_. c #83562F",
"`. c #915831",
"'. c #904F2F",
"]. c #83643C",
"[. c #8E693C",
"{. c #9A6533",
"}. c #8A783B",
"|. c #96713E",
" X c #9C753C",
".X c #A86D35",
"XX c #A97C3D",
"oX c #B67638",
"OX c #916E43",
"+X c #AC7E41",
"@X c #827C7B",
"#X c #89893C",
"$X c #928A39",
"%X c #868743",
"&X c #939244",
"*X c #9F9846",
"=X c #A39142",
"-X c #B08240",
";X c #87827F",
":X c #C58F42",
">X c #D1A940",
",X c #EDB842",
"<X c #E8AB42",
"1X c #DFCD41",
"2X c #CCC940",
"3X c #F9D643",
"4X c #3E7385",
"5X c #4C9B96",
"6X c #44858D",
"7X c #5AB8B5",
"8X c None",
/* pixels */
"8X8X8X8X8X8X8X8X8X8X8X8X8X8X8X8X8X8X8X8X8X8X8X8X8X8X8X8X8X8X8X8X8X8X8X8X8X8X8X8X8X8X8X8X8X8X8X8X8X8X8X8X8X8X8X8X8X8X8X8X8X8X8X8X8X8X8X8X8X8X8X8X8X8X8X8X8X8X8X8X",
"8X8X8X8X8X8X8X8X8X8X8X8X8X8X8X8X8X8X8X8X8X8X8X8X8X8X8X8X8X8X8X8X8X8X8X8X8X8X8X8X8X8X8X8X8X8X8X8X8X8X8X8X8X8X8X8X8X8X8X8X8X8X8X8X8X8X8X8X8X8X8X8X8X8X8X8X8X8X8X8X",
"8X8X8X8X8X8X8X8X8X8X8X8X8X8X8X8X8X8X8X8X8X8X8X8X8X8X8X8X8X8X8X8X8X8X8X8X8X8X8X8X8X8X8X8X8X8X8X8X8X8X8X8X8X8X8X8X8X8X8X8X8X8X8X8X8X8X8X8X8X8X8X8X8X8X8X8X8X8X8X8X",
"8X8X8X8X8X8X8X8X8X8X8X8X8X8X8X8X8X8X8X8X8X8X8X8X8X8X8X8X8X8X8X8X8X8X8X8X8X8X8X8X8X8X8X8X8X8X8X8X8X8X8X8X8X8X8X8X8X8X8X8X8X8X8X8X8X8X8X8X8X8X8X8X8X8X8X8X8X8X8X8X",
"8X8X8X8X8X8X8X8X8X8X8X8X8X8X8X8X8X8X8X8X8X8X8X8X8X8X8X8X8X8X8X8X8X8X8X8X8X8X8X8X8X8X8X8X8X8X8X8X8X8X8X8X8X8X8X8X8X8X8X8X8X8X8X8X8X8X8X8X8X8X8X8X8X8X8X8X8X8X8X8X",
"8X8X8X8X8X8X8X8X8X8X8X8X8X8X8X8X8X8X8X8X8X8X8X8X8X8X8X8X8X8X8X8X8X:.:.:.>.:.:.>.:.>.,.e.r.r.e.r.e.e.:.:.:.>.8X8X8X8X8X8X8X8X8X8X8X8X8X8X8X8X8X8X8X8X8X8X8X8X8X8X",
"8X8X8X8X8X8X8X8X8X8X8X8X8X8X8X8X8X8X8X8X8X8X8X8X8X8X8X8X8X8X8X8X8X:.:.<.:.:.:.:.:.>.:.e.e.e.r.r.e.e.,.>.>.>.:.8X8X8X8X8X8X8X8X8X8X8X8X8X8X8X8X8X8X8X8X8X8X8X8X8X",
"8X8X8X8X8X8X8X8X8X8X8X8X8X8X8X8X8X8X8X8X8X8X8X8X8X8X8X8X8X8X8X8X8X8X<.y -.:.:.:.:.>.,.,.e.e.e.e.e.e.,.,.,.,.,.>.8X8X8X8X8X8X8X8X8X8X8X8X8X8X8X8X8X8X8X8X8X8X8X8X",
"8X8X8X8X8X8X8X8X8X8X8X8X8X8X8X8X8X8X8X8X8X8X8X8X8X8X8X8X8X8X8X8X8X8X8X0 0 0 :.:.:.:.:.>.2.e.e.e.r.r.r.r.1.1.,.,.:.8X8X8X8X8X8X8X8X8X8X8X8X8X8X8X8X8X8X8X8X8X8X8X",
"8X8X8X8X8X8X8X8X8X8X8X8X8X8X8X8X8X8X8X8X8X8X8X8X8X8X8X8X8X8X8X8X8X8X8X8 0 q <.<.-.3.:.:.:.2.e.2.1.1.r.r.r.t.e.,.,.,.8X8X8X8X8X8X8X8X8X8X8X8X8X8X8X8X8X8X8X8X8X8X",
"8X8X8X8X8X8X8X8X8X8X8X8X8X8X8X8X8X8X8X8X8X8X8X8X8XD G 8X8X8X8X8X8X8X8X8 8 8 0 <.-.:.:.:.>.>.>.>.,.1.1.r.r.r.e.e.1.1.:.8X8X8X8X8X8X8X8X8X8X8X8X8X8X8X8X8X8X8X8X8X",
"8X8X8X8X8X8X8X8X8X8X8X8X8X8X8X8X8X8X8X8X8X8X8X8X8XF F F 8X8X8X8X8X8X8X8 8 8 8 q :.:.>.:.:.>.:.>.:.>.,.1.1.1.,.,.,.:.:.,.8X8X8X8X8X8X8X8X8X8X8X8X8X8X8X8X8X8X8X8X",
"8X8X8X8X8X8X8X8X8X8X8X8X8X8X8X8X8X8X8X8X8X8X8X8XH L L L D 8X8X8X8X8X8X8X8 8 8 0 :.:.:.:.:.:.3.>.>.y 2 2 2 > 2 2 2 q :.1.8X8X8X8X8X8X8X8X8X8X8X8X8X8X8X8X8X8X8X8X",
"8X8X8X8X8X8X8X8X8X8X8X8X8X8X8X8X8X8X8X8X8X8X8XF L Q { P F G 8X8X8X8X8X8X8X8 8 q -.:.:.:.:.:.-.3.:.8 : X X X o X + 8 ,.r.8X8X8X8X8X8X8X8X8X8X8X8X8X8X8X8X8X8X8X8X",
"8X8X8X8X8X8X8X8X8X8X8X8X8X8X8X8X8X8X8X8X8X8X8XD P ....{ P H H 8X8X8X8X8X8X8X8 q q :.:.:.>.>.:.q 0 u p.! r X % n p.t.e.r.8X8X8X8X8X8X8X8X8X8X8X8X8X8X8X8X8X8X8X8X",
"8X8X8X8X8X8X8X8X8X8X8X8X8X8X8X8X8X8X8X8X8X8X8X8X..{.{._.{ P H D G G 8X8X8X8X8 8 q q q :.>.:.-.2 $ i 6X5Xk.% p x.5X4Xu.e.8X8X8X8X8X8X8X8X8X8X8X8X8X8X8X8X8X8X8X8X",
"8X8X8X8X8X8X8X8X8X8X8X8X8X8X8X8X8X8X8X8X8X8X8X8X8XoX.X{.{ P H D H H [ 8X8Xj 8 8 8 9 q :.>.3.-.+ X p.5X7Xc.% i 5X7X6Xz.2.8X8X8X8X8X8X8X8X8X8X8X8X8X8X8X8X8X8X8X8X",
"8X8X8X8X8X8X8X8X8X8X8X8X8X8X8X8X8X8X8X8X8X8X8X8X8X8X.X..} L D H I  .&.%XP.^ t 8 8 8 -.:.>.3.-.+ X r l.c.! # r l.x.z.t.e.8X8X8X8X8X8X8X8X8X8X8X8X8X8X8X8X8X8X8X8X",
"8X8X8X8X8X8X8X8X8X8X8X8X8X8X8X8X8X8X8X8X8X8X8X8X8X8X8XP H D D K  .#X&X&X%X] l 8 8 8 -.3.>.:.-., X o % % O o X # r <.e.r.8X8X8X8X8X8X8X8X8X8X8X8X8X8X8X8X8X8X8X8X",
"8X8X8X8X8X8X8X8X8X8X8X8X8X8X8X8X8X8X8X8X8X8X8X8X8X8X8X8XG D K / &.%X*X=X}.] c 7 8 8 q q -.0 2 + o               . 2 >.r.8X8X8X8X8X8X8X8X8X8X8X8X8X8X8X8X8X8X8X8X",
"8X8X8X8X8X8X8X8X8X8X8X8X8X8X8X8X8X8X8X8X8X8X8X8X8X8X8X8X8X[ / $.*.&X$X-X`.X.h 6 7 8 q 9 > , O .                   < ,.r.8X8X8X8X8X8X8X8X8X8X8X8X8X8X8X8X8X8X8X8X",
"8X8X8X8X8X8X8X8X8X8X8X8X8X8X8X8X8X8X8X8X8X8X8X8X8X8X8X8X8X8X$.%.*.%X}.{.'.E v e 8 8 0 9 2 O . . X   o         X O 8 e.r.8X8X8X8X8X8X8X8X8X8X8X8X8X8X8X8X8X8X8X8X",
"8X8X8X8X8X8X8X8X8X8X8X8X8X8X8X8X8X8X8X8X8X8X8X8X8X8X8X8X8X8X=.%.$.] ] X.E W W Y c 7 6 8 2 , + + $ O o       X $ 8 <.e.e.r.8X8X8X8X8X8X8X8X8X8X8X8X8X8X8X8X8X8X8X",
"8X8X8X8X8X8X8X8X8X8X8X8X8X8X8X8X8X8X8X8X8X8X8X8X8X8X8X8X8X8X%.] ( m h h v W '.o.U 9 7 0 8 8 > > 7 : O       $ 8 3.e.e.r.e.e.8X8X8X8X8X8X8X8X8X8X8X8X8X8X8X8X8X8X",
"8X8X8X8X8X8X8X8X8X8X8X8X8X8X8X8X8X8X8X8X8X8X8X8X8X8X8X8X8X8X( ( n t 6 6 9 Y o.o.X.T k q 8 8 8 0 0 2 $ + + + 3 >.r.r.r.r.e.e.r.8X8X8X8X8X8X8X8X8X8X8X8X8X8X8X8X8X",
"8X8X8X8X8X8X8X8X8X8X8X8X8X8X8X8X8X8X6 8 6 8 8 > 8 8 8 8 8 t x b t 0 8 8 9 c U X.[.[.` h 6 7 8 8 8 8 8 8 0 y :.e.r.r.e.r.e.r.r.e.8X8X8X8X8X8X8X8X8X8X8X8X8X8X8X8X",
"8X8X8X8X8X8X8X8X8X8X8X8X8X8X8X8X8Xx l l l l l y y t 8 8 8 8 8 8 8 8 8 8 3 7 9 T [.XX@.C h q 9 0 0 0 <.:.,.1.r.e.r.r.r.e.e.r.e.r.r.8X8X8X8X8X8X8X8X8X8X8X8X8X8X8X",
"8X8X8X8X8X8X8X8X8X8X8X8X8X8XD.8XS.Z.Z.Z.Z.V.N.q.8.x h e 4 < < 2 < < < < < > 8 v ' @.].@.M.v -.8 0 <.:.:.,.1.1.1.1.e.e.r.e.e.r.e.e.8X8X8X8X8X8X8X8X8X8X8X8X8X8X8X",
"8X8X8X8X8X8X8X8X8X8X8X8X8XG.D.D.F.E.R.Q.!.R.T.S.m.S k a 1 - - - - - - - 5 < 8 t t C @.XXOXi.3.-.:.:.:.:.:.>.:.:.>.>.e.e.r.e.r.r.r.8X8X8X8X8X8X8X8X8X8X8X8X8X8X8X",
"8X8X8X8X8X8X8X8X8X8X8X8XL.T.T.T.E.E.R.R.R.E.F.S.m.B f a * * * - - * - * - < 8 7 6 h ` |.+XJ.n.0.>.;.-.:.;.:.:.:.>.>.e.e.e.r.r.e.r.8X8X8X8X8X8X8X8X8X8X8X8X8X8X8X",
"8X8X8X8X8X8X8X8X8X8XD.F.E.W.Q.~.W.L.M.m.b.m.v.T B g ; ; * * * * * * * * - < 8 7 7 9 B ` @.|.OXM.4.-.-.;.:.:.:.:.<.>.:.e.e.e.r.r.e.8X8X8X8X8X8X8X8X8X8X8X8X8X8X8X",
"8X8X8X8X8X8X8X8X8X8XD.F.R.~.^.~.R.Z.S b k B B k f w ; ; - ; - - - ; - - 5 < 3 t y l x S X. X-XK.i.y.8.5.5.>.:.:.>.<.<.>.e.r.r.e.r.8X8X8X8X8X8X8X8X8X8X8X8X8X8X8X",
"8X8X8X8X8X8X8X8X8X8X8XL.!.^.!.Y.V.8.j e e t h h e 1 < < < 1 < < < < < < < < < c q.V.N.v.] #.].].@.K.K.H.i.e.3.-.:.:.:.>.e.e.e.e.r.8X8X8X8X8X8X8X8X8X8X8X8X8X8X8X",
"8X8X8X8X8X8X8X8X8X8X8X8X@X^.E.g.l t t 8 t t t 8 t 8 8 8 8 8 8 8 8 8 8 8 3 < ; b G.R.E.D.n.) _ ].-X:X:X-XH.8.:.>.:.:.:.,.e.e.r.e.e.8X8X8X8X8X8X8X8X8X8X8X8X8X8X8X",
"8X8X8X8X8X8X8X8X8X8X8X8X8X^.Y.5.8 6 8 8 8 8 8 8 8 8 8 8 8 8 8 8 8 8 0 0 8 2 < A T.^.Q.F.N.V S }.>X,X<X:XK.y.-.:.:.:.>.:.e.r.e.r.r.8X8X8X8X8X8X8X8X8X8X8X8X8X8X8X",
"8X8X8X8X8X8X8X8X8X8X8X8X8X8XN.l 8 8 8 7 8 8 8 8 8 8 0 8 8 8 0 8 0 8 8 8 8 > 3 9.T./.Q.G.m.V ) $X1X3X,X:XK.y.-.-.:.:.:.e.e.e.r.r.r.8X8X8X8X8X8X8X8X8X8X8X8X8X8X8X",
"8X8X8X8X8X8X8X8X8X8X8X8X8X8X8X8 8 8 8 8 8 8 8 8 8 8 8 8 8 8 8 8 8 8 8 8 8 > 9 0.Y.^.!.T.Z.T ) $X2X1X>XXXK.i.3.-.3.-.:.>.e.e.r.e.e.8X8X8X8X8X8X8X8X8X8X8X8X8X8X8X",
"8X8X8X8X8X8X8X8X8X8X8X8X8X8X8X8 8 8 8 8 8 8 8 8 8 8 8 8 8 8 8 8 8 8 8 8 8 8 0 0.T./.~.R.F.n.b.%.#X$X}.&.O.X.R y.>.:.:.:.>.e.r.e.r.8X8X8X8X8X8X8X8X8X8X8X8X8X8X8X",
"8X8X8X8X8X8X8X8X8X8X8X8X8X8X8X8 8 8 8 8 8 8 8 8 8 8 8 8 0 8 8 8 8 8 8 8 8 6 8 0.T./.@X^.W.L.S.b.( ) ) Y o.`.o.i.:.-.3.e.e.r.r.r.r.8X8X8X8X8X8X8X8X8X8X8X8X8X8X8X",
"8X8X8X8X8X8X8X8X8X8X8X8X8X8X8X8 8 8 8 8 8 8 0 8 8 8 8 8 8 9 8 8 8 8 8 8 8 8 8 0.T.@X;X@X/.R.L.n.A A V T X.).O.w.3.:.-.:.e.e.r.e.e.8X8X8X8X8X8X8X8X8X8X8X8X8X8X8X",
"8X8X8X8X8X8X8X8X8X8X8X8X8X8X8X8 8 8 8 8 8 8 8 8 8 8 8 8 8 8 8 8 8 8 8 8 8 > 9 0.E.@X;X@X@X~.W.L.Z.m.n.b.' _ Y 5.>.-.:.,.e.e.e.e.r.8X8X8X8X8X8X8X8X8X8X8X8X8X8X8X",
"8X8X8X8X8X8X8X8X8X8X8X8X8X8X8X8 8 8 8 8 8 8 8 8 0 8 8 8 8 8 8 8 8 8 8 8 8 6 9 y.Y.(.~.!.!.@X~.W.L.G.D.S.m.S x l >.:.:.>.e.e.e.e.r.8X8X8X8X8X8X8X8X8X8X8X8X8X8X8X",
"8X8X8X8X8X8X8X8X8X8X8X8X8X8X8X0 8 8 8 8 8 8 8 8 8 8 8 8 8 8 8 8 8 8 8 8 8 8 9 3.q.Z.Z.G.T.~.@X@XQ.E.T.D.m.B x u :.-.3.,.e.r.e.e.e.8X8X8X8X8X8X8X8X8X8X8X8X8X8X8X",
"8X8X8X8X8X8X8X8X8X8X8X8X8X8X8X8 8 8 8 8 8 8 8 8 9 8 8 8 8 8 8 8 9 9 8 8 8 8 0 0 y l x A M.E.~.@X~.Q.L.S.v.B x l :.:.>.2.e.e.r.r.r.8X8X8X8X8X8X8X8X8X8X8X8X8X8X8X",
"8X8X8X8X8X8X8X8X8X8X8X8X8X8X8X8 8 8 8 8 8 8 8 8 8 8 8 8 8 8 8 8 8 8 8 8 8 8 8 8 8 8 s k T S.L.T.L.D.M.v.A f c l :.:.:.>.2.e.e.e.r.8X8X8X8X8X8X8X8X8X8X8X8X8X8X8X",
"8X8X8X8X8X8X8X8X8X8X8X8X8X8X8X8 8 8 8 8 9 8 8 8 8 8 8 8 8 8 9 8 8 8 8 8 8 9 8 8 8 8 h k B B B B B B f f a w e y :.:.:.,.e.e.e.e.e.8X8X8X8X8X8X8X8X8X8X8X8X8X8X8X",
"8X8X8X8X8X8X8X8X8X8X8X8X8X8X8X8 8 8 8 8 8 8 0 8 8 8 8 8 0 8 8 8 8 8 8 8 8 8 8 8 8 9 j k f a * * - - - ; * * 4 q :.>.:.,.e.r.e.e.r.8X8X8X8X8X8X8X8X8X8X8X8X8X8X8X",
"8X8X8X8X8X8X8X8X8X8X8X8X8X8X8X8 9 8 8 8 8 8 8 8 8 8 8 8 8 8 8 8 8 8 8 8 8 8 8 8 8 8 j k f ; & & & & & & & * < 0 :.:.:.>.e.e.r.r.r.8X8X8X8X8X8X8X8X8X8X8X8X8X8X8X",
"8X8X8X8X8X8X8X8X8X8X8X8X8X8X8X8 8 8 8 8 8 8 8 8 8 8 t 8 8 8 8 8 8 8 8 8 8 8 8 8 8 8 c k f w - - - * * * * - r y :.>.:.>.1.r.r.e.e.8X8X8X8X8X8X8X8X8X8X8X8X8X8X8X",
"8X8X8X8X8X8X8X8X8X8X8X8X8X8X8X8 8 8 8 8 8 8 8 8 8 8 8 8 8 8 8 8 8 8 8 8 8 8 8 8 8 t j b b g w w w w w w w w e t :.:.>.2.1.r.r.r.r.8X8X8X8X8X8X8X8X8X8X8X8X8X8X8X",
"8X8X8X8X8X8X8X8X8X8X8X8X8X8X8X8 8 8 8 8 8 8 8 8 8 8 8 8 8 8 8 8 8 8 8 8 8 8 8 8 8 8 x Z n b d g d d d d d d b u :.:.>.>.1.e.r.e.r.8X8X8X8X8X8X8X8X8X8X8X8X8X8X8X",
"8X8X8X8X8X8X8X8X8X8X8X8X8X8X8X8 8 8 8 8 0 8 8 8 8 8 8 8 8 8 8 8 8 8 8 8 8 8 8 8 0 t b ~ ^ Z n n n n n n n n M u :.;.:.>.1.e.r.r.e.8X8X8X8X8X8X8X8X8X8X8X8X8X8X8X",
"8X8X8X8X8X8X8X8X8X8X8X8X8X8X8X8 8 8 8 8 8 8 8 8 8 0 8 8 8 8 0 8 0 8 8 8 8 8 8 8 t m M s.^ Z n n n n n n n n M <.:.:.>.>.e.r.r.e.r.8X8X8X8X8X8X8X8X8X8X8X8X8X8X8X",
"8X8X8X8X8X8X8X8X8X8X8X8X8X8X8X8 8 0 8 8 8 8 8 8 8 8 8 8 8 8 8 8 8 8 8 8 8 8 8 t j n ~ ^ ~ Z n n n n n n n n M <.:.:.:.,.1.r.r.e.r.8X8X8X8X8X8X8X8X8X8X8X8X8X8X8X",
"8X8X8X8X8X8X8X8X8X8X8X8X8X8X8 8 8 8 8 8 8 8 8 8 8 8 8 8 8 8 8 8 8 8 8 0 0 t u u M n ~ ~ ~ Z Z Z ~ n n n n n b m :.:.>.>.e.r.r.e.r.8X8X8X8X8X8X8X8X8X8X8X8X8X8X8X",
"8X8X8X8X8X8X8X8X8X8X8X8X8X0 8 8 8 8 8 8 8 8 8 8 8 8 8 8 8 8 8 8 8 8 8 8 t z n ~ ^ ~ ~ n Z ~ ~ s.~ ~ n n n n n M M z >.:.1.e.r.r.e.8X8X8X8X8X8X8X8X8X8X8X8X8X8X8X",
"8X8X8X8X8X8X8X8X8X8X8X8X8X8 8 8 8 8 8 8 t 8 8 8 8 8 8 8 8 8 8 0 8 8 8 8 0 m 9.s.s.^ Z n n Z ~ Z ~ ~ n n n n n n n z <.4.e.r.e.r.r.8X8X8X8X8X8X8X8X8X8X8X8X8X8X8X",
"8X8X8X8X8X8X8X8X8X8X8X8X8 8 8 8 8 8 8 8 8 8 8 0 8 8 8 8 8 8 8 8 8 8 7 8 t m ^ s.s.s.~ n b b f j d d b n n n n n M m <.>.e.r.e.r.r.8X8X8X8X8X8X8X8X8X8X8X8X8X8X8X",
"8X8X8X8X8X8X8X8X8X8X8X8X8 8 8 8 8 8 8 8 8 8 8 8 8 8 8 8 8 8 8 8 8 8 8 8 t m a.s.s.s.~ n d w 5 , 1 w d n n n n n n u <.>.1.e.r.r.e.8X8X8X8X8X8X8X8X8X8X8X8X8X8X8X",
"8X8X8X8X8X8X8X8X8X8X8X8X8X8 8 8 8 8 8 8 8 8 8 8 8 8 8 8 8 8 8 8 8 8 8 8 y m a.s.s.^ ~ Z d 1 = @ = 1 d n n n n n M m >.,.e.r.r.e.r.8X8X8X8X8X8X8X8X8X8X8X8X8X8X8X",
"8X8X8X8X8X8X8X8X8X8X8X8X8X8 8 8 8 8 8 8 8 8 8 8 8 y 8 8 8 8 8 8 8 8 8 8 t m a.s.s.s.~ n f 1 = @ - e b ~ ~ b n n b x >.,.1.e.r.e.r.8X8X8X8X8X8X8X8X8X8X8X8X8X8X8X",
"8X8X8X8X8X8X8X8X8X8X8X8X8 8 8 9 8 8 8 0 8 8 8 8 8 8 8 8 8 8 8 8 8 8 8 t t m a.s.s.~ Z b d 1 = @ = 4 b Z ~ n n n n m <.,.1.e.r.r.e.8X8X8X8X8X8X8X8X8X8X8X8X8X8X8X",
"8X8X8X8X8X8X8X8X8X8X8X8 8 8 8 0 8 8 8 8 8 8 8 8 8 8 8 8 8 8 8 8 8 8 t u M 9.f.s.s.s.N s 1 1 = @ = 1 s f b b n n M u <.:.,.,.1.e.r.8X8X8X8X8X8X8X8X8X8X8X8X8X8X8X",
"8X8X8X8X8X8X8X8X8X8X8 8 8 8 8 8 8 8 8 8 8 8 8 8 8 8 8 8 8 8 8 8 8 8 u M a.f.s.s.f.Z k 1 - = = = = = 5 1 g b n n M m :.>.:.,.1.e.r.8X8X8X8X8X8X8X8X8X8X8X8X8X8X8X",
"8X8X8X8X8X8X8X8X8X8X8 8 8 8 8 8 9 8 8 8 8 8 0 8 8 8 8 8 8 8 8 8 8 8 u Z s.s.s.^ s.n d - = = = = = = = - s V Z Z N m 4.<.<.>.,.e.e.8X8X8X8X8X8X8X8X8X8X8X8X8X8X8X",
"8X8X8X8X8X8X8X8X8X8X8 8 8 8 8 8 8 0 8 8 8 8 8 8 8 8 8 8 8 8 8 8 8 8 j N s.s.s.s.~ b s , @ = = = = = @ 5 s Z ^ ~ Z Z M m 3.>.,.e.r.8X8X8X8X8X8X8X8X8X8X8X8X8X8X8X",
"8X8X8X8X8X8X8X8X8X8Xq 8 8 8 8 8 8 8 8 8 8 8 8 8 8 8 8 8 8 8 8 8 8 8 u 9.s.f.f.f.a.b s 5 = @ = = = @ @ 5 k 9.s.s.a.Z n m 4.<.e.e.e.8X8X8X8X8X8X8X8X8X8X8X8X8X8X8X",
"8X8X8X8X8X8X8X8X8X8 8 8 8 8 8 8 8 8 8 8 8 8 8 8 9 8 8 8 8 8 8 0 8 8 z 0.B.B.B.B.h.a.x 5 = = = = , @ = 1 m h.h.a.V M N z :.<.>.e.8X8X8X8X8X8X8X8X8X8X8X8X8X8X8X8X",
"8X8X8X8X8X8X8X8X8 8 8 8 8 8 8 0 8 8 9 0 8 8 8 8 8 8 8 8 8 9 8 8 8 8 :.g.I.I.I.I.A.h.M 1 @ 8X8X= = = @ 1 M B.B.0.x x x 4.3.:.:.8X8X8X8X8X8X8X8X8X8X8X8X8X8X8X8X8X",
"8X8X8X8X8X8X8X8 8 8 8 8 8 8 8 8 8 8 8 8 8 8 8 8 8 8 0 8 8 8 8 8 8 0 4.g.U.U.I.C.g.0.c 5 = 8X8X8X= = = 5 x 9.q.0.8.m 5.z :.:.8X8X8X8X8X8X8X8X8X8X8X8X8X8X8X8X8X8X",
"8X8X8X8X8X8X8 8 8 8 8 8 8 8 8 9 8 8 8 8 8 8 8 8 8 8 8 8 8 8 8 8 8 8 4.g.I.U.I.B.8.h 1 = = 8X8X8X= , = = 1 h 5.q.g.0.x z 3.>.>.8X8X8X8X8X8X8X8X8X8X8X8X8X8X8X8X8X",
"8X8X8X8X8X8 8 8 8 8 8 8 8 8 8 8 8 8 8 8 8 8 8 8 8 8 8 8 8 8 8 8 8 t 4.g.U.U.C.q.s , @ = = 8X8X8X= @ = = @ , h q.C.g.6.l >.>.8X8X8X8X8X8X8X8X8X8X8X8X8X8X8X8X8X8X",
"8X8X8X8X8 8 8 0 8 8 8 8 8 8 8 8 0 8 8 8 8 8 8 8 8 8 8 8 8 8 8 8 8 8 3.g.I.C.g.m 4 = @ = 8X8X8X8X8X= = = @ = h g.C.q.6.z <.8X8X8X8X8X8X8X8X8X8X8X8X8X8X8X8X8X8X8X",
"8X8X8X8 8 8 9 8 8 8 8 8 8 8 8 8 8 8 9 8 8 8 8 8 8 9 8 8 8 8 8 8 8 0 4.g.C.g.6.c 1 = @ 8X8X8X8X8X8X8X= , @ - h q.C.g.x z 8X8X8X8X8X8X8X8X8X8X8X8X8X8X8X8X8X8X8X8X",
"8X8X8X8 8 8 8 8 8 8 8 8 8 8 8 8 8 8 8 8 8 8 8 8 8 8 8 8 8 8 8 q <.4.t.q.g.0.m h 4 = 8X8X8X8X8X8X8X8X8X= @ = x N.C.g.q.8.6.8X8X8X8X8X8X8X8X8X8X8X8X8X8X8X8X8X8X8X",
"8X8X8X8X8X8X8X8X8X8X8X8X8X8X8X8X8X8X8X8X8X8X8X8X8X8X8X8X8X8X8X8X0.g.q.0.8.6.x z e 8X8X8X8X8X8X8X8X8X8X8X8X8X8.C.U.C.C.q.8.x 8X8X8X8X8X8X8X8X8X8X8X8X8X8X8X8X8X8X",
"8X8X8X8X8X8X8X8X8X8X8X8X8X8X8X8X8X8X8X8X8X8X8X8X8X8X8X8X8X8X8X8X8XI.B.0.x x x x 8X8X8X8X8X8X8X8X8X8X8X8X8X8X8XU.U.U.I.j.8.z 8X8X8X8X8X8X8X8X8X8X8X8X8X8X8X8X8X8X",
"8X8X8X8X8X8X8X8X8X8X8X8X8X8X8X8X8X8X8X8X8X8X8X8X8X8X8X8X8X8X8X8X8X8X8X8X8Xz 8X8X8X8X8X8X8X8X8X8X8X8X8X8X8X8X8X8X8XU.8Xj.0.8X8X8X8X8X8X8X8X8X8X8X8X8X8X8X8X8X8X8X",
"8X8X8X8X8X8X8X8X8X8X8X8X8X8X8X8X8X8X8X8X8X8X8X8X8X8X8X8X8X8X8X8X8X8X8X8X8X8X8X8X8X8X8X8X8X8X8X8X8X8X8X8X8X8X8X8X8X8X8X8X8X8X8X8X8X8X8X8X8X8X8X8X8X8X8X8X8X8X8X8X",
"8X8X8X8X8X8X8X8X8X8X8X8X8X8X8X8X8X8X8X8X8X8X8X8X8X8X8X8X8X8X8X8X8X8X8X8X8X8X8X8X8X8X8X8X8X8X8X8X8X8X8X8X8X8X8X8X8X8X8X8X8X8X8X8X8X8X8X8X8X8X8X8X8X8X8X8X8X8X8X8X"
};
