/* XPM */
static char *result[] = {
/* columns rows colors chars-per-pixel */
"80 80 235 2 ",
"   c #020203",
".  c #08090C",
"X  c #040513",
"o  c #090614",
"O  c #0C0A16",
"+  c #0D0C1A",
"@  c #05091A",
"#  c #100E1A",
"$  c #0D1415",
"%  c #101113",
"&  c #12131C",
"*  c #171B1B",
"=  c #1B1B1C",
"-  c #13150B",
";  c #3B1C10",
":  c #0D221E",
">  c #322F1A",
",  c #0A0D25",
"<  c #040C2E",
"1  c #050A29",
"2  c #0D1222",
"3  c #0B122C",
"4  c #091626",
"5  c #111522",
"6  c #181B27",
"7  c #050D31",
"8  c #040E3A",
"9  c #061132",
"0  c #0D1533",
"q  c #0B153B",
"w  c #121A34",
"e  c #1A1E34",
"r  c #131B3B",
"t  c #111733",
"y  c #231E32",
"u  c #1D212C",
"i  c #1C2629",
"p  c #1C2234",
"a  c #1C233C",
"s  c #1B2737",
"d  c #133134",
"f  c #252423",
"g  c #222B2B",
"h  c #2A2B2D",
"j  c #262729",
"k  c #302C2A",
"l  c #39352E",
"z  c #232B35",
"x  c #2B2B33",
"c  c #242B3A",
"v  c #292C3D",
"b  c #212535",
"n  c #372A32",
"m  c #263232",
"M  c #293533",
"N  c #2D3936",
"B  c #2C343D",
"V  c #2A363B",
"C  c #333333",
"Z  c #32343A",
"A  c #323D3B",
"S  c #39383A",
"D  c #25312E",
"F  c #462816",
"G  c #49351B",
"H  c #55351B",
"J  c #47372B",
"K  c #453B34",
"L  c #523732",
"P  c #653A2A",
"I  c #35413E",
"U  c #3C4638",
"Y  c #1C403D",
"T  c #454937",
"R  c #5A4836",
"E  c #524C2D",
"W  c #654526",
"Q  c #774929",
"!  c #674433",
"~  c #635B39",
"^  c #795A37",
"/  c #6F502D",
"(  c #5C6338",
")  c #656939",
"_  c #776935",
"`  c #70763B",
"'  c #061343",
"]  c #0A1643",
"[  c #0D1944",
"{  c #0D1A4A",
"}  c #131E45",
"|  c #131F49",
" . c #121F53",
".. c #0E1E53",
"X. c #162045",
"o. c #192345",
"O. c #17214B",
"+. c #19234D",
"@. c #1F2845",
"#. c #142254",
"$. c #1A2654",
"%. c #1C2956",
"&. c #1D2A59",
"*. c #193A40",
"=. c #2A2C43",
"-. c #222A48",
";. c #2D3244",
":. c #2D3548",
">. c #313543",
",. c #31364A",
"<. c #343B4D",
"1. c #393947",
"2. c #212C57",
"3. c #283558",
"4. c #363F51",
"5. c #323C5B",
"6. c #253D64",
"7. c #473F44",
"8. c #364240",
"9. c #384541",
"0. c #3B424C",
"q. c #3B4355",
"w. c #3B435D",
"e. c #384356",
"r. c #29544F",
"t. c #326F6D",
"y. c #2E5A6E",
"u. c #434443",
"i. c #4A4848",
"p. c #54544D",
"a. c #5C5C4E",
"s. c #555B48",
"d. c #434D5D",
"f. c #464B56",
"g. c #555455",
"h. c #5D5B5B",
"j. c #595855",
"k. c #554E4B",
"l. c #785D42",
"z. c #615E5E",
"x. c #6A5942",
"c. c #5E605A",
"v. c #5D6147",
"b. c #676446",
"n. c #61635B",
"m. c #696957",
"M. c #7A7956",
"N. c #736F51",
"B. c #444E61",
"V. c #485262",
"C. c #575962",
"Z. c #5D6264",
"A. c #646264",
"S. c #6D6A6A",
"D. c #686767",
"F. c #726D6D",
"G. c #73736B",
"H. c #747564",
"J. c #757172",
"K. c #7A7675",
"L. c #7D7877",
"P. c #7F7A79",
"I. c #8C512B",
"U. c #856438",
"Y. c #956937",
"T. c #8A7938",
"R. c #97743B",
"E. c #99612D",
"W. c #AB7E3C",
"Q. c #AE7033",
"!. c #8D7543",
"~. c #827D7C",
"^. c #817F64",
"/. c #AC7F40",
"(. c #3C807A",
"). c #628163",
"_. c #8E8B38",
"`. c #B1833E",
"'. c #D2AA3E",
"]. c #E0CE3F",
"[. c #CDCA3E",
"{. c #888245",
"}. c #8A8557",
"|. c #958C57",
" X c #95914B",
".X c #A29441",
"XX c #A89857",
"oX c #B59C59",
"OX c #8E8A61",
"+X c #858469",
"@X c #928D63",
"#X c #95916A",
"$X c #9C9865",
"%X c #959372",
"&X c #9A9772",
"*X c #8C8B72",
"=X c #A39F6C",
"-X c #AAA368",
";X c #B4AA68",
":X c #ABA573",
">X c #B2AC78",
",X c #BEB573",
"<X c #BDB675",
"1X c #BDB76D",
"2X c #B5A25D",
"3X c #C69040",
"4X c #ECB540",
"5X c #C5B96C",
"6X c #C5BC79",
"7X c #C6BD75",
"8X c #C1AE64",
"9X c #CCC37D",
"0X c #CBC176",
"qX c #D7CB79",
"wX c #DFD57D",
"eX c #E3D67D",
"rX c #EADA7E",
"tX c #F9D741",
"yX c #3C7486",
"uX c #3A8283",
"iX c #479294",
"pX c #55B0AF",
"aX c #4FA19A",
"sX c #888380",
"dX c #E2D682",
"fX c #E5D982",
"gX c #EADC82",
"hX c #EEE182",
"jX c #FDEE8A",
"kX c #F5E786",
"lX c #FFF18B",
"zX c #FFF98E",
"xX c #FFFD92",
"cX c #CCC380",
"vX c None",
/* pixels */
"vXvXvXvXvXvXvXvXvXvXvXvXvXvXvXvXvXvXvXvXvXvXvXvXvXvXvXvXvXvXvXvXvXvXvXvXvXvXvXvXvXvXvXvXvXvXvXvXvXvXvXvXvXvXvXvXvXvXvXvXvXvXvXvXvXvXvXvXvXvXvXvXvXvXvXvXvXvXvXvX",
"vXvXvXvXvXvXvXvXvXvXvXvXvXvXvXvXvXvXvXvXvXvXvXvXvXvXvXvXvXvXvXvXvXvXvXvXvXvXvXvXvXvXvXvXvXvXvXvXvXvXvXvXvXvXvXvXvXvXvXvXvXvXvXvXvXvXvXvXvXvXvXvXvXvXvXvXvXvXvXvX",
"vXvXvXvXvXvXvXvXvXvXvXvXvXvXvXvXvXvXvXvXvXvXvXvXvXvXvXvXvXvXvXvXvXvXvXvXvXvXvXvXvXvXvXvXvXvXvXvXvXvXvXvXvXvXvXvXvXvXvXvXvXvXvXvXvXvXvXvXvXvXvXvXvXvXvXvXvXvXvXvX",
"vXvXvXvXvXvXvXvXvXvXvXvXvXvXvXvXvXvXvXvXvXvXvXvXvXvXvXvXvXvXvXvXvXvXvXvXvXvXvXvXvXvXvXvXvXvXvXvXvXvXvXvXvXvXvXvXvXvXvXvXvXvXvXvXvXvXvXvXvXvXvXvXvXvXvXvXvXvXvXvX",
"vXvXvXvXvXvXvXvXvXvXvXvXvXvXvXvXvXvXvXvXvXvXvXvXvXvXvXvXvXvXvXvXvXvXvXvXvXvXvXvXvXvXvXvXvXvXvXvXvXvXvXvXvXvXvXvXvXvXvXvXvXvXvXvXvXvXvXvXvXvXvXvXvXvXvXvXvXvXvXvX",
"vXvXvXvXvXvXvXvXvXvXvXvXvXvXvXvXvXvXvXvXvX} X.X.o.$.%.%.%.&.%.$.+.| X.} | } | | X.X.vXvXvXvXvXvXvXvXvXvXvXvXvXvXvXvXvXvXvXvXvXvXvXvXvXvXvXvXvXvXvXvXvXvXvXvXvXvX",
"vXvXvXvXvXvXvXvXvXvXvXvXvXvXvXvXvXvXvXvX| X.X.o.+.$.$.%.%.%.%.$.+.X.X.} | | } r X.X.vXvXvXvXvXvXvXvXvXvXvXvXvXvXvXvXvXvXvXvXvXvXvXvXvXvXvXvXvXvXvXvXvXvXvXvXvXvX",
"vXvXvXvXvXvXvXvXvXvXvXvXvXvXvXvXvXvXvXO.+.+.+.O.$.$.%.%.%.%.$.O.O.X.} } } q q q 8 vXvXvXvXvXvXvXvXvXvXvXvXvXvXvXvXvXvXvXvXvXvXvXvXvXvXvXvXvXvXvXvXvXvXvXvXvXvXvX",
"vXvXvXvXvXvXvXvXvXvXvXvXvXvXvXvXvXvXX.O.$.$.&.%.%.%.%.%.2.$.| | X.X.| X.} r t r vXvXvXvXvXvXvXvXvXvXvXvXvXvXvXvXvXvXvXvXvXvXvXvXvXvXvXvXvXvXvXvXvXvXvXvXvXvXvXvX",
"vXvXvXvXvXvXvXvXvXvXvXvXvXvXvXvXvXO.+.+.$.&.&.&.%.$.$.$.$.+.| [ [ [ [ q } 1.p.N.vXvXvXvXvXvXvXvXvXvXvXvXvXvXvXvXvXvXvXvXvXvXvXvXvXvXvXvXvXvXvXvXvXvXvXvXvXvXvXvX",
"vXvXvXvXvXvXvXvXvXvXvXvXvXvXvXvXO.O.$.%.&.&.2.&.$.+.| O.} | { ] ] [ 8 8 a m.-XqXhXlXzXlXlXzXlXlXzXzXzXzXzXjXlXvXvXvXvXvXvXvXvXvXvXvXvXvXvXvXvXvXvXvXvXvXvXvXvXvX",
"vXvXvXvXvXvXvXvXvXvXvXvXvXvXvX| X.O.O.+.O.O.+.+.O.o.} } } -.:.,.<.<.;.;.u.@XdXzXzXlXlXlXjXrXrXrXgXrXrXfXkXjXlXvXvXvXvXvXvXvXvXvXvXvXvXvXvXvXvXvXvXvXvXvXvXvXvXvX",
"vXvXvXvXvXvXvXvXvXvXvXvXvXvXvX+.O.t , , , 4 , 1 3 r } ] [ <.H.#X&X#X#XOX$X,XkXvXvXvXvXxXqX2XXXXXoXoXXXXX8XgXzXlXlXlXlXlXlXvXvXvXvXvXvXvXvXvXvXvXvXvXvXvXvXvXvXvX",
"vXvXvXvXvXvXvXvXvXvXvXvXvXvXvX&.$.t X         . @ t } [ o.j.-XdXgXfXdXeXeXdXvXvXvXvXvXvXvXW W Q U.Q W P W vXvXzXlXlXjXjXlXjXvXvXvXvXvXvXvXvXvXvXvXvXvXvXvXvXvXvX",
"vXvXvXvXvXvXvXvXvXvXvXvXvXvXvX&.2.*.Y d .   : Y *.r t >.z.^.:X6X7X6X7X7X7XvXvXvXvXvXvXvXvXF H W Q Q H ; vXvXvXzXjXjXlXlXlXlXlXvXvXvXvXvXvXvXvXvXvXvXvXvXvXvXvXvX",
"vXvXvXvXvXvXvXvXvXvXvXvXvXvXvX$.6.yXaX(.d $ r.aXuXd * ~ ;X>X).c.a.a.a.a.a.vXvXvXvX; ; ; F H W I.E.E.Q vXvXvXvXvXvXvXvXvXvXvXlXlXlXvXvXvXvXvXvXvXvXvXvXvXvXvXvXvX",
"vXvXvXvXvXvXvXvXvXvXvXvXvXvXvX$.6.iXpXaXY $ t.pXaXr.> !.0X:Xj.o.q t t t 6 s vXvXG G F F H H Q E.Q.Q.vXvXvXvXvXvXvXvXvXvXvXvXvXlXlXvXvXvXvXvXvXvXvXvXvXvXvXvXvXvX",
"vXvXvXvXvXvXvXvXvXvXvXvXvXvXvX%.2.y.t.r.: $ d t.).).{.XX#XH.e.[ 8 9 < < 0 U N._.` / H F F G W Q Q.vXvXvXvXvXvXvXvXvXvXvXvXvXvXvXlXlXvXvXvXvXvXvXvXvXvXvXvXvXvXvX",
"vXvXvXvXvXvXvXvXvXvXvXvXvXvXvX&.$.a 4 .     . : ( -X0X@Xf.@.+.X.q t 0 9 s E {..X_._.~ G F F G H vXvXvXvXvXvXvXvXvXvXvXvXvXvXvXvXvXlXlXvXvXvXvXvXvXvXvXvXvXvXvXvX",
"vXvXvXvXvXvXvXvXvXvXvXvXvXvXvX&.| ,         - G _ XXXXb.i 7 q r r q 9 q s R !..X.X_._ H F F F vXvXvXvXvXvXvXvXvXvXvXvXvXvXvXvXvXvXlXlXlXvXvXvXvXvXvXvXvXvXvXvXvX",
"vXvXvXvXvXvXvXvXvXvXvXvXvXvXvX&.| ,       . ( .XXX_ E = X @ 3 t t 0 9 9 y P Y.W._..X` ) E G vXvXvXvXvXvXvXvXvXvXvXvXvXvXvXvXvXvXvXvXvXlXlXlXvXvXvXvXvXvXvXvXvXvX",
"vXvXvXvXvXvXvXvXvXvXvXvXvXvXvX&.+.0 .   - > {.5XXXE       X , 0 q 0 0 e y P I.E._.{.` ) ) vXvXvXvXvXvXvXvXvXvXvXvXvXvXvXvXvXvXvXvXvXvXvXlXlXvXvXvXvXvXvXvXvXvXvX",
"vXvXvXvXvXvXvXvXvXvXvXvXvXvX&.&.$.q 7 h _ {. X{.~ f X X X @ 3 0 8 7 b J P P P R E ( ) ) ) vXvXvXvXvXvXvXvXvXvXvXvXvXvXvXvXvXvXvXvXvXvXvXvXlXlXvXvXvXvXvXvXvXvXvX",
"vXvXvXvXvXvXvXvXvXvXvXvXvX%.&.&.%. .-.h.:X5X{.> % , 4 3 3 3 3 0 0 0 J Q I.P n e e m U ( ) vXvXvXvXvXvXvXvXvXvXvXvXvXvXvXvXvXvXvXvXvXvXvXvXvXjXlXvXvXvXvXvXvXvXvX",
"vXvXvXvXvXvXvXvXvXvXvXvX%.%.%.#.2.w.A.*X>X>Xb.& X 1 0 0 q 0 9 t x L ! Q Q L t 8 9 0 M T T vXvXvXvXvXvXvXvXvXvXvXvXvXvXvXvXvXvXvXvXvXvXvXvXvXlXlXlXvXvXvXvXvXvXvX",
"vXvXvXvXvXvXvXvXvXvXvX%.%.%.#...5.G.>X>X*XZ.<.t 1 0 0 0 0 0 9 e R Y.Y.! n y t 9 0 0 s z z p 0 q q 0 9 0 0 3 0 0 0 vXvXvXvXvXvXvXvXvXvXvXvXvXvXvXlXlXlXvXvXvXvXvX",
"vXvXvXvXvXvXvXvXvXvX&.%.%.%.2.3.V.%XcX>XZ.2.| | } w t q q t e S ^ W.Y.K t 0 0 0 3 0 0 3 0 3 0 0 t t e e e a a a a -.vXvXvXvXvXvXvXvXvXvXvXvXvXvXvXlXlXvXvXvXvXvX",
"vXvXvXvXvXvXvXvXvXvX%.%.#.%.d.G.%X&X#XH.4.| { | } [ r q r v R ^ l.^ R v 0 3 , & 2 2 2 2 2 2 5 6 b z =.1.q.f.f.f.f.g.g.vXg.vXvXvXvXvXvXvXvXvXvXvXvXvXlXlXvXvXvXvX",
"vXvXvXvXvXvXvXvXvXvX%.%.#.&.Z.>X9X#Xf.-.+.} } } } } } } } 7.Y.W.^ S p t 3 2 # % % % % % % % * = j Z u.g.z.S.J.J.F.D.z.j.j.h.vXvXvXvXvXvXvXvXvXvXvXvXvXlXjXvXvXvX",
"vXvXvXvXvXvXvXvXvXvX%.%.#.2.D.cXgX#X:.' } } } } [ [ } =.i.^ R.R.R e 7 9 0 2 % % % % % % % % % = f l u.k.z.D.S.S.D.D.A.A.A.n.z.vXvXvXvXvXvXvXvXvXvXvXvXlXlXlXvXvX",
"vXvXvXvXvXvXvXvXvXvX%.$.#.&.D.9XfX#X,.] ] } } ] [ { @.x.!.!.^ R C t 9 9 0 2 % % % % % % % % % % * f C S u.i.i.i.k.z.F.K.J.F.D.h.g.vXvXvXvXvXvXvXvXvXvXlXjXlXvXvX",
"vXvXvXvXvXvXvXvXvXvX&.$.#.&.D.9XfX#X4.] } | -.=.=.=.1.l.W.Q.! S z p p w 3 2 # % % O % % % % + % % = j x x k j x C k.D.K.~.K.S.z.j.vXvXvXvXvXvXvXvXvXvXlXlXlXvXvX",
"vXvXvXvXvXvXvXvXvXvX%.%...%.Z.cXgX#X1.] { -.7.x.l.l.^ U.U.^ i.u.f.f.1.b 5 2 2 2 2 2 2 2 5 2 2 2 2 5 6 p u u u u p >.f.C.J.P.J.z.vXvXvXvXvXvXvXvXvXvXvXjXjXlXvXvX",
"vXvXvXvXvXvXvXvXvXvX%.&.#.2.D.cXdX#X<.] ] -.x./.3X3XW.U.R K i.g.D.D.j.C # , 3 0 0 0 0 0 3 0 0 0 0 3 t t w 0 0 t w t a 0.D.~.~.vXvXvXvXvXvXvXvXvXvXvXvXlXlXlXvXvX",
"vXvXvXvXvXvXvXvXvXvX%.2.w.Z.+X:X:XS.2.] ' =.l.3X4X4X'.T.K M i.h.F.~.z.n & 4 3 t 0 0 t t t 0 0 t t 0 0 0 0 0 0 0 0 3 0 -.C.~.vXvXvXvXvXvXvXvXvXvXvXvXvXlXlXjXvXvX",
"vXvXvXvXvXvXvXvXvXvX..5.G.>X:XH.j.<.-.] { =.l.3X4XtX]._.T C 7.z.F.~.A.>.3 3 0 0 0 0 q 0 0 0 0 0 q 0 0 0 0 0 0 0 0 0 0 e 0.vXvXvXvXvXvXvXvXvXvXvXvXvXvXvXvXlXlXlX",
"vXvXvXvXvXvXvXvXvXvX#.w.%XdX6XA.o.] } } -.1.I./.'.].[._.E S f.z.J.L.Z.,.t 0 0 0 0 0 0 0 0 0 0 0 0 0 0 0 0 0 0 0 0 0 0 t vXvXvXvXvXvXvXvXvXvXvXvXvXvXvXvXvXlXlXjX",
"vXvXvXvXvXvXvXvXvXvX .w.&XgX6Xc.} ' } v 7.P l.I.T._._._ i.f.z.S.L.P.A.,.t 0 0 0 0 0 0 0 t 0 0 0 0 0 0 0 0 0 0 0 0 0 0 0 vXvXvXvXvXvXvXvXvXvXvXvXvXvXvXvXvXlXlXlX",
"vXvXvXvXvXvXvXvXvXvX .w.%XfX6Xn.| ' } K Q I.Q L K T T i.k.z.S.~.~.~.Z.,.0 0 0 0 0 0 0 0 0 0 0 0 0 0 0 0 0 0 0 0 0 0 0 0 vXvXvXvXvXvXvXvXvXvXvXvXvXvXvXvXvXlXjXjX",
"vXvXvXvXvXvXvXvXvXvX .w.%XdX6Xn.| ] | n ! I.! K M N S k.z.S.L.~.sX~.A.,.0 7 0 0 0 0 0 0 0 0 0 0 0 0 0 0 0 0 0 0 0 0 0 t vXvXvXvXvXvXvXvXvXvXvXvXvXvXvXvXvXlXlXlX",
"vXvXvXvXvXvXvXvXvXvX .w.%XdX6Xn.+.] | v L L R i.i.7.i.z.F.L.~.~.sX~.A.,.t 0 0 0 0 0 0 0 0 0 0 0 0 0 0 0 0 0 0 0 0 0 0 0 vXvXvXvXvXvXvXvXvXvXvXvXvXvXvXvXvXjXlXjX",
"vXvXvXvXvXvXvXvXvXvX .w.%XdX6Xn.o.] | b b n u.g.j.z.A.S.K.~.L.J.J.J.C.=.0 9 0 0 0 0 0 0 0 0 0 0 0 0 0 0 0 0 0 0 0 0 t 0 vXvXvXvXvXvXvXvXvXvXvXvXvXvXvXvXvXlXlXlX",
"vXvXvXvXvXvXvXvXvXvX .w.%XdX6Xn.} ] } } z Z u.j.z.S.F.~.~.K.A.j.g.f.4.a t 0 0 0 0 0 0 0 0 0 0 0 0 0 0 0 t 0 0 0 0 0 t 0 vXvXvXvXvXvXvXvXvXvXvXvXvXvXvXvXvXlXjXlX",
"vXvXvXvXvXvXvXvXvXvX .w.%XdX6Xn.+.] } y z C K g.z.F.K.~.~.D.k.C v b r r 0 0 0 0 0 0 0 0 0 0 0 0 0 0 0 0 0 0 0 0 0 0 0 0 vXvXvXvXvXvXvXvXvXvXvXvXvXvXvXvXvXlXlXlX",
"vXvXvXvXvXvXvXvXvXvX .w.%XfX6Xn.o.] } a b h C T i.h.z.A.z.k.K h 6 0 9 0 0 0 0 0 0 0 0 0 0 0 0 0 0 t 0 0 0 0 0 0 0 0 0 0 vXvXvXvXvXvXvXvXvXvXvXvXvXvXvXvXvXlXlXlX",
"vXvXvXvXvXvXvXvXvXvX .w.%XdX6Xn.o.] } r 5 = = f h C C C C C x h y 0 3 0 0 0 0 0 0 0 0 0 0 0 0 0 0 0 0 0 0 0 0 0 0 0 0 0 vXvXvXvXvXvXvXvXvXvXvXvXvXvXvXvXvXjXlXjX",
"vXvXvXvXvXvXvXvXvXvX .w.%XdX6Xn.o.] } w & % % % % % % % % = j h b t 0 0 0 0 0 0 0 0 0 0 0 0 0 0 0 0 0 0 0 0 0 0 0 0 t q vXvXvXvXvXvXvXvXvXvXvXvXvXvXvXvXvXlXlXjX",
"vXvXvXvXvXvXvXvXvXvX .w.%XdX6Xn.o.] | w 5 % . O . - . . . * f h y t 0 0 0 0 0 0 0 0 0 0 0 0 0 0 0 0 0 0 0 0 0 0 0 0 t 0 vXvXvXvXvXvXvXvXvXvXvXvXvXvXvXvXvXlXlXlX",
"vXvXvXvXvXvXvXvXvXvX .w.%XdX6Xn.o.[ } r 2 $ - $ - % % % - * f h u t 0 0 0 0 0 0 0 0 t 0 0 0 0 0 0 t 0 0 0 0 0 0 0 t 0 0 vXvXvXvXvXvXvXvXvXvXvXvXvXvXvXvXvXlXlXlX",
"vXvXvXvXvXvXvXvXvXvX#.w.&XfX6Xc.X.' [ p 6 * * * * * * * * f D M b t 0 q 0 0 0 0 0 0 0 0 0 0 0 0 0 0 0 0 0 0 0 0 0 0 t 0 vXvXvXvXvXvXvXvXvXvXvXvXvXvXvXvXvXlXlXjX",
"vXvXvXvXvXvXvXvXvXvX .w.&XgX6Xn.[ ' [ a s i g g g g g i g D N M z t 0 0 0 0 0 0 0 0 0 0 0 0 0 0 0 0 0 0 0 0 0 0 0 0 t 0 vXvXvXvXvXvXvXvXvXvXvXvXvXvXvXvXvXlXjXlX",
"vXvXvXvXvXvXvXvXvXvX#.5.+X9X,XS.<.+.O.a m M M M M M M M M M I I c p 0 0 0 0 0 0 0 0 0 0 0 0 0 0 0 0 0 0 0 0 0 0 0 0 0 0 vXvXvXvXvXvXvXvXvXvXvXvXvXvXvXvXvXlXlXjX",
"vXvXvXvXvXvXvXvXvXvX%.3.C.+X%X&X+Xg.-.X.D M M M M M M M M N I I V s p 0 0 0 0 0 0 0 0 0 0 0 t 0 0 0 0 0 0 0 0 0 0 0 0 0 vXvXvXvXvXvXvXvXvXvXvXvXvXvXvXvXvXlXlXlX",
"vXvXvXvXvXvXvXvXvXvX%.&.2.w.G.<X9X+X:.a D M M M M M M M M N I I N M d p 0 q 0 0 0 0 0 0 0 0 0 0 0 0 0 0 0 t 0 0 0 0 0 0 vXvXvXvXvXvXvXvXvXvXvXvXvXvXvXlXlXlXvXvX",
"vXvXvXvXvXvXvXvXvXvX&.%...#.Z.cXgX$X9.s s M M M M M N N N N I I A N m z p w t 0 0 0 0 0 0 0 0 0 0 0 0 0 0 0 0 0 0 0 0 0 0 vXvXvXvXvXvXvXvXvXvXvXvXvXvXlXjXlXvXvX",
"vXvXvXvXvXvXvXvXvXvX%.%...%.D.cXhX$X9.s D M M M M U I I I I N N A I A V V a w 0 0 0 0 0 0 0 0 0 0 0 0 0 0 0 0 0 0 0 q 0 t t vXvXvXvXvXvXvXvXvXvXvXvXvXlXlXlXvXvX",
"vXvXvXvXvXvXvXvXvXvX%.%. .2.D.cXrX$XT D D M M M M A A A A A M N N I 9.9.I s p q 0 0 0 0 0 0 0 0 0 0 0 0 0 0 0 0 0 0 0 0 0 0 vXvXvXvXvXvXvXvXvXvXvXvXvXjXlXlXvXvX",
"vXvXvXvXvXvXvXvXvXvX%.%. .&.D.cXrX$XU D D M M M x g g j j g M M I I 9.9.8.c 0 0 0 0 0 0 0 0 0 0 0 0 0 0 0 0 0 0 0 0 0 t 0 0 0 vXvXvXvXvXvXvXvXvXvXvXvXlXlXlXvXvX",
"vXvXvXvXvXvXvXvXvXvX&.%.#.2.D.6XeX$XT D D M M M g 5 & # # 6 g M A I I 9.8.m w 0 0 0 0 0 0 0 0 0 0 0 0 0 0 0 0 0 0 0 0 0 0 0 w vXvXvXvXvXvXvXvXvXvXvXvXlXlXlXvXvX",
"vXvXvXvXvXvXvXvXvXvX%.&.#.&.V.%X1X$XM.s.I D M Y D 5 O o O & g M A I I U >.s w 0 0 0 0 0 0 0 0 0 0 0 0 0 0 0 0 0 0 0 0 0 0 0 vXvXvXvXvXvXvXvXvXvXvXvXvXlXlXvXvXvX",
"vXvXvXvXvXvXvXvXvXvX%.%.%.%.3.f.S.$X5X$Xs.M M A M = O o O & g M A I 9.9.I c w 0 0 0 0 0 0 0 0 0 0 0 0 0 0 q 0 0 0 0 0 0 0 0 vXvXvXvXvXvXvXvXvXvXvXjXlXvXvXvXvXvX",
"vXvXvXvXvXvXvXvXvXvX&.%.&.%.O.O.4.).9X1XM.T I A h 6 O o O & i M A I 9.9.I c s w 0 0 0 0 0 0 0 0 0 0 0 0 0 0 0 0 0 t 0 0 0 0 t vXvXvXvXvXvXvXvXvXlXjXjXvXvXvXvXvX",
"vXvXvXvXvXvXvXvXvXvX%.%.$.$.| ] @.v.|.XX-X|.v.h 5 + O O + & 5 f M A 8.9.8.B d a w 0 0 0 0 0 0 0 0 0 t 0 t 0 0 0 0 0 0 0 0 0 0 0 vXvXvXvXvXvXvXlXjXlXvXvXvXvXvXvX",
"vXvXvXvXvXvXvXvXvXvX%.$.O.O.} | o.;.T ).1X0X}.h O O O O O O + 5 g A 9.9.9.8.A V s 0 0 0 0 0 0 0 0 0 0 0 0 0 0 t 0 0 0 0 0 0 0 0 t vXvXvXvXvXjXlXlXvXvXvXvXvXvXvX",
"vXvXvXvXvXvXvXvXvXvX2.$.+.| X.a a s m v.-X5X|.b.K = o X O o O # j N I I I U 9.V s 0 9 0 0 0 0 0 0 0 0 0 t 0 0 q 0 0 0 0 0 0 0 0 7 vXvXvXvXvXlXjXvXvXvXvXvXvXvXvX",
"vXvXvXvXvXvXvXvXvXvX&.%.+.| o.s m V 8.9.b.).-X;X|.J X @ O O O # = M A I 8.9.9.N s 0 0 0 0 0 q 3 0 0 0 0 0 0 0 3 0 0 0 0 0 0 0 0 7 vXvXvXlXlXvXvXvXvXvXvXvXvXvXvX",
"vXvXvXvXvXvXvXvXvXvX%.$.+.o.a z M N 8.8.I s.$X0X;X) j & O o o # i D V 8.9.9.9.:.s 0 0 0 0 t 0 0 0 0 0 0 0 0 0 0 0 0 0 0 0 0 0 0 e vXvXvXlXlXvXvXvXvXvXvXvXvXvXvX",
"vXvXvXvXvXvXvXvXvXvXvX%.O.| o.z V m V :.<.f.m.}.|.|.!.b.= X X + 6 z >.0.q.d.f.8.s 0 0 0 0 0 0 0 0 0 0 t 0 0 0 0 0 0 0 0 0 0 7 0 >.$XzXxXvXvXvXvXvXvXvXvXvXvXvXvX",
"vXvXvXvXvXvXvXvXvXvXvXvX} | } c s c c >.q.f.>.k ~ ;XqXeXvXvXo + 6 b ;.q.d.V.d.e.@.q 0 0 0 0 0 0 0 0 0 0 0 0 0 0 0 0 0 0 0 0 9 w p.;XkXzXvXvXvXvXvXvXvXvXvXvXvXvX",
"vXvXvXvXvXvXvXvXvXvXvXvXvX| o.a c v ;.>.0.:.e + J }.5XfXvXvXf O , 6 b :.e.B.B.e.a 0 0 0 0 0 0 0 0 0 0 0 0 t 0 0 0 7 7 7 9 w >.p.}.=X1X$XvXvXvXvXvXvXvXvXvXvXvXvX",
"vXvXvXvXvXvXvXvXvXvXvXvX| } a a =.,.e.<.c 6 5 O = l ) 2XeX;XK X X O 6 a :.e.w.e.-.w 9 0 0 0 0 0 q 3 0 0 0 0 0 9 7 3 7 < < s m.;X-XM.p.>.e vXvXvXvXvXvXvXvXvXvXvX",
"vXvXvXvXvXvXvXvXvXvXvXvXvX} } a c e.d.<.u + o O o o k |.eX5Xb.k f j k S 9.f.B.e.a w 3 0 0 0 0 9 0 0 0 0 9 0 e c ;.B B v v u.OX0X:Xg.t 3 q 0 vXvXvXvXvXvXvXvXvXvX",
"vXvXvXvXvXvXvXvXvXvXvXvXvXvXa a v 4.d.4.6 O o O X X = vXeXqXXX}.}.}.|.|.@XH.V.:.r 7 < 7 7 7 7 7 7 9 < 7 < 7 ;.m.}.@XOX@X@XOX@XOXm.Z 7 < 0 0 0 vXvXvXvXvXvXvXvXvX",
"vXvXvXvXvXvXvXvXvXvXvXvXvXvXvXc v 4.d.4.b O o O o vXvXvXvXvXrXeXeXeXrXrXcX&XZ.5.-.t 0 0 t t t t t t t t 9 e p.-XdXgXfXgXgX9XOXu.s w 0 0 0 0 t 0 vXvXvXvXvXvXvXvX",
"vXvXvXvXvXvXvXvXvXvXvXvXvXvXv ;.>.q.d.q.b O O O vXvXvXvXvXvXvXzXxXzXhXqX6X=X*XG.m.a.a.a.a.a.a.a.a.a.a.a.p.a.}.0XzXxXzXxXxXhX}.c < 3 0 0 0 0 0 0 vXvXvXvXvXvXvXvX",
"vXvXvXvXvXvXvXvXvXvXvXvXvXz ;.e.q.d.d.d.>.vXvXvXvXvXvXvXvXvXvXvXvXvX:XM.N.$X6XcX6X<X5X<X<X<X<X<X<X<X<X<X,X<X6XwXvXvXvXvXvXvXvXvXvXvXvXvXvXvXvXvXvXvXvXvXvXvXvXvX",
"vXvXvXvXvXvXvXvXvXvXvXvXvXc ;.q.V.V.V.V.vXvXvXvXvXvXvXvXvXvXvXvXvXvXvXb u.@XgXlXlXjXjXkXjXjXjXjXjXjXjXjXjXkXlXvXvXvXvXvXvXvXvXvXvXvXvXvXvXvXvXvXvXvXvXvXvXvXvXvX",
"vXvXvXvXvXvXvXvXvXvXvXvXvXvX,.q.vXV.vXvXvXvXvXvXvXvXvXvXvXvXvXvXvXvXvXvXvXOXvXvXvXvXvXvXvXvXvXvXvXvXvXvXxXvXvXvXvXvXvXvXvXvXvXvXvXvXvXvXvXvXvXvXvXvXvXvXvXvXvXvX",
"vXvXvXvXvXvXvXvXvXvXvXvXvXvXvXvXvXvXvXvXvXvXvXvXvXvXvXvXvXvXvXvXvXvXvXvXvXvXvXvXvXvXvXvXvXvXvXvXvXvXvXvXvXvXvXvXvXvXvXvXvXvXvXvXvXvXvXvXvXvXvXvXvXvXvXvXvXvXvXvX",
"vXvXvXvXvXvXvXvXvXvXvXvXvXvXvXvXvXvXvXvXvXvXvXvXvXvXvXvXvXvXvXvXvXvXvXvXvXvXvXvXvXvXvXvXvXvXvXvXvXvXvXvXvXvXvXvXvXvXvXvXvXvXvXvXvXvXvXvXvXvXvXvXvXvXvXvXvXvXvXvX"
};
