/* XPM */
static char *result[] = {
/* columns rows colors chars-per-pixel */
"80 80 244 2 ",
"   c #040302",
".  c #070709",
"X  c #080A0C",
"o  c #070807",
"O  c #0B0B14",
"+  c #0D0E1A",
"@  c #110F1A",
"#  c #0E1317",
"$  c #171817",
"%  c #14121D",
"&  c #16181B",
"*  c #1A1B1C",
"=  c #161618",
"-  c #0F1222",
";  c #0B132F",
":  c #131522",
">  c #161927",
",  c #1A1B25",
"<  c #12152B",
"1  c #15192B",
"2  c #1A1A27",
"3  c #0D1534",
"4  c #0F1836",
"5  c #0F183C",
"6  c #101733",
"7  c #141B36",
"8  c #181E36",
"9  c #161E3A",
"0  c #181F39",
"q  c #070F2D",
"w  c #1B2227",
"e  c #1B2135",
"r  c #1B223C",
"t  c #1B293C",
"y  c #1D3733",
"u  c #2A2A2B",
"i  c #232729",
"p  c #36362D",
"a  c #222534",
"s  c #252A35",
"d  c #2C2E34",
"f  c #242B3C",
"g  c #292D3C",
"h  c #21263D",
"j  c #2C3535",
"k  c #2E3935",
"l  c #27313B",
"z  c #2B333C",
"x  c #2F3A3A",
"c  c #323235",
"v  c #333D3A",
"b  c #3A3A3C",
"n  c #373939",
"m  c #342F34",
"M  c #201F33",
"N  c #452A1B",
"B  c #4A2E1D",
"V  c #432718",
"C  c #4E321F",
"Z  c #55371E",
"A  c #583923",
"S  c #443A38",
"D  c #4F3522",
"F  c #6B3F31",
"G  c #36413E",
"H  c #3B443A",
"J  c #22433F",
"K  c #46463A",
"L  c #544A36",
"P  c #574D37",
"I  c #5A5236",
"U  c #4A523E",
"Y  c #6A4528",
"T  c #665938",
"R  c #754D2E",
"E  c #7A6636",
"W  c #72682F",
"Q  c #141E46",
"!  c #0F1A44",
"~  c #162147",
"^  c #1B2446",
"/  c #1C264A",
"(  c #1E284E",
")  c #1C2644",
"_  c #1F2950",
"`  c #1F2652",
"'  c #232B44",
"]  c #272A43",
"[  c #2D3143",
"{  c #293748",
"}  c #313645",
"|  c #31374D",
" . c #343A4B",
".. c #393E4D",
"X. c #373A43",
"o. c #212C56",
"O. c #222D58",
"+. c #363C55",
"@. c #253757",
"#. c #283D62",
"$. c #443C44",
"%. c #364141",
"&. c #3A4442",
"*. c #3C444B",
"=. c #3B4353",
"-. c #3F4955",
";. c #29504E",
":. c #2E4E6A",
">. c #3A7471",
",. c #30605C",
"<. c #484847",
"1. c #5A5949",
"2. c #444D5D",
"3. c #464955",
"4. c #4B5457",
"5. c #595856",
"6. c #4C504C",
"7. c #615E5E",
"8. c #705743",
"9. c #67664A",
"0. c #676757",
"q. c #787856",
"w. c #746F56",
"e. c #444C61",
"r. c #485262",
"t. c #585A67",
"y. c #605F66",
"u. c #5D616A",
"i. c #5D6274",
"p. c #646264",
"a. c #6E6B6B",
"s. c #676768",
"d. c #7A7675",
"f. c #7A7776",
"g. c #6F706F",
"h. c #5F6056",
"j. c #87582F",
"k. c #856E34",
"l. c #996336",
"z. c #897437",
"x. c #947B3A",
"c. c #9F622E",
"v. c #AC6C39",
"b. c #857651",
"n. c #827D7B",
"m. c #827565",
"M. c #AB7F43",
"N. c #7C825A",
"B. c #A48638",
"V. c #BA9638",
"C. c #84823B",
"Z. c #DDB13C",
"A. c #C7A13B",
"S. c #E4B63C",
"D. c #8A885A",
"F. c #928C5D",
"G. c #9C965D",
"H. c #8E8E45",
"J. c #AE9241",
"K. c #B39252",
"L. c #898765",
"P. c #948D67",
"I. c #9A9563",
"U. c #87867A",
"Y. c #959377",
"T. c #928E74",
"R. c #A19D6B",
"E. c #AAA268",
"W. c #B4AB6C",
"Q. c #ABA676",
"!. c #B9B475",
"~. c #BAB46E",
"^. c #B4A35F",
"/. c #C28E44",
"(. c #DFB742",
"). c #D0AA52",
"_. c #ECBA58",
"`. c #C3BA77",
"'. c #CEB369",
"]. c #C99169",
"[. c #F9CA43",
"{. c #FFD74F",
"}. c #FAD859",
"|. c #EAC753",
" X c #FFE25F",
".X c #CCC377",
"XX c #D6CA79",
"oX c #E7D67B",
"OX c #FFDC75",
"+X c #EFD370",
"@X c #FEE676",
"#X c #FFE56E",
"$X c #3E7385",
"%X c #6C7084",
"&X c #4C9B96",
"*X c #44858D",
"=X c #5AB8B5",
"-X c #959488",
";X c #969698",
":X c #888B8E",
">X c #A39C95",
",X c #A8A795",
"<X c #9497A3",
"1X c #8E92A2",
"2X c #A9A9AA",
"3X c #B1B4B3",
"4X c #9FA5A3",
"5X c #C2BC92",
"6X c #CFC789",
"7X c #E4D886",
"8X c #E8D89C",
"9X c #FFED82",
"0X c #F8E887",
"qX c #FFF087",
"wX c #FFF18A",
"eX c #FFFE8E",
"rX c #FBEC95",
"tX c #FFF297",
"yX c #FFF59A",
"uX c #EFE081",
"iX c #C9C8B9",
"pX c #D4CBA9",
"aX c #E2DBAE",
"sX c #FFF5AC",
"dX c #FFF7A4",
"fX c #FFF7B2",
"gX c #F3E7AF",
"hX c #B7B9C1",
"jX c #C6C6C8",
"kX c #DBDAD9",
"lX c #D5D2CC",
"zX c #E1DFCE",
"xX c #FFF4C4",
"cX c #FFF9C8",
"vX c #FFFBDD",
"bX c #FFFAD5",
"nX c #E7E5D2",
"mX c #E4E4E6",
"MX c #FCFAE8",
"NX c #FFFDF2",
"BX c #FFFFFE",
"VX c #F7F7F8",
"CX c #EFF0ED",
"ZX c None",
/* pixels */
"ZXZXZXZXZXZXZXZXZXZXZXZXZXZXZXZXZXZXZXZXZXZXZXZXZXZXZXZXZXZXZXZXZXZXZXZXZXZXZXZXZXZXZXZXZXZXZXZXZXZXZXZXZXZXZXZXZXZXZXZXZXZXZXZXZXZXZXZXZXZXZXZXZXZXZXZXZXZXZXZX",
"ZXZXZXZXZXZXZXZXZXZXZXZXZXZXZXZXZXZXZXZXZXZXZXZXZXZXZXZXZXZXZXZXZXZXZXZXZXZXZXZXZXZXZXZXZXZXZXZXZXZXZXZXZXZXZXZXZXZXZXZXZXZXZXZXZXZXZXZXZXZXZXZXZXZXZXZXZXZXZXZX",
"ZXZXZXZXZXZXZXZXZXZXZXZXZXZXZXZXZXZXZXZXZXZXZXZXZXZXZXZXZXZXZXZXZXZXZXZXZXZXZXZXZXZXZXZXZXZXZXZXZXZXZXZXZXZXZXZXZXZXZXZXZXZXZXZXZXZXZXZXZXZXZXZXZXZXZXZXZXZXZXZX",
"ZXZXZXZXZXZXZXZXZXZXZXZXZXZXZXZXZXZXZXZXZXZXZXZXZXZXZXZXZXZXZXZXZXZXZXZXZXZXZXZXZXZXZXZXZXZXZXZXZXZXZXZXZXZXZXZXZXZXZXZXZXZXZXZXZXZXZXZXZXZXZXZXZXZXZXZXZXZXZXZX",
"ZXZXZXZXZXZXZXZXZXZXZXZXZXZXZXZXZXZXZXZXZXZXZXZXZXZXZXZXZXZXZXZXZXZXZXZXZXZXZXZXZXZXZXZXZXZXZXZXZXZXZXZXZXZXZXZXZXZXZXZXZXZXZXZXZXZXZXZXZXZXZXZXZXZXZXZXZXZXZXZX",
"ZXZXZXZXZXZXZXZXZXZXZXZXZXZXZXZXZXZXZXZXZXZXZXZXZXZXZXZXZXZXZXZXZX^ ^ ^ ^ ^ ^ ^ ^ / ( o.O.O.o.O.o.o./ / ^ ^ ZXZXZXZXZXZXZXZXZXZXZXZXZXZXZXZXZXZXZXZXZXZXZXZXZXZX",
"ZXZXZXZXZXZXZXZXZXZXZXZXZXZXZXZXZXZXZXZXZXZXZXZXZXZXZXZXZXZXZXZXZX^ ^ ^ ^ ^ ^ ^ ^ / ( o.o.o.O.O.o.o./ ^ ^ / / ZXZXZXZXZXZXZXZXZXZXZXZXZXZXZXZXZXZXZXZXZXZXZXZXZX",
"ZXZXZXZXZXZXZXZXZXZXZXZXZXZXZXZXZXZXZXZXZXZXZXZXZXZXZXZXZXZXZXZXZXZX~ r ~ ^ ^ / / / ^ / o.o.o.O.o.o._ ( _ _ / ^ ZXZXZXZXZXZXZXZXZXZXZXZXZXZXZXZXZXZXZXZXZXZXZXZX",
"ZXZXZXZXZXZXZXZXZXZXZXZXZXZXZXZXZXZXZXZXZXZXZXZXZXZXZXZXZXZXZXZXZXZXZX9 7 ~ ^ ^ ^ ^ ^ / ` ` O.o.O.O.O.O._ _ ( ( / ZXZXZXZXZXZXZXZXZXZXZXZXZXZXZXZXZXZXZXZXZXZXZX",
"ZXZXZXZXZXZXZXZXZXZXZXZXZXZXZXZXZXZXZXZXZXZXZXZXZXZXZXZXZXZXZXZXZXZXZX7 8 9 r ^ ^ ^ ^ ^ ^ ` o._ _ _ O.O.O.@.o.( / / ZXZXZXZXZXZXZXZXZXZXZXZXZXZXZXZXZXZXZXZXZXZX",
"ZXZXZXZXZXZXZXZXZXZXZXZXZXZXZXZXZXZXZXZXZXZXZXZXZXN N ZXZXZXZXZXZXZXZX8 7 9 9 ~ ^ ^ ^ ^ ' ` / o.( _ _ O.O.O.o.o.o._ ^ ZXZXZXZXZXZXZXZXZXZXZXZXZXZXZXZXZXZXZXZXZX",
"ZXZXZXZXZXZXZXZXZXZXZXZXZXZXZXZXZXZXZXZXZXZXZXZXZXB B B ZXZXZXZXZXZXZX7 7 7 8 9 Q ^ / ^ Q ' Q Q / / ( _ _ _ ( ( / / / / ZXZXZXZXZXZXZXZXZXZXZXZXZXZXZXZXZXZXZXZX",
"ZXZXZXZXZXZXZXZXZXZXZXZXZXZXZXZXZXZXZXZXZXZXZXZXC C A B B ZXZXZXZXZXZXZX7 7 7 9 ^ ^ ^ ^ ^ ^ ^ ' ^ r 3 - - 1 1 ; < 9 ^ o.ZXZXZXZXZXZXZXZXZXZXZXZXZXZXZXZXZXZXZXZX",
"ZXZXZXZXZXZXZXZXZXZXZXZXZXZXZXZXZXZXZXZXZXZXZXN A Y Y A B V ZXZXZXZXZXZXZX7 7 r ~ ^ ^ ^ ^ ^ ^ ^ ^ 8 % O X o X X + 8 / O.ZXZXZXZXZXZXZXZXZXZXZXZXZXZXZXZXZXZXZXZX",
"ZXZXZXZXZXZXZXZXZXZXZXZXZXZXZXZXZXZXZXZXZXZXZXN A R j.Y A B B ZXZXZXZXZXZXZX7 9 0 ^ ^ ^ ^ ^ Q 9 6 t J J w o $ y ;.@.o.O.ZXZXZXZXZXZXZXZXZXZXZXZXZXZXZXZXZXZXZXZX",
"ZXZXZXZXZXZXZXZXZXZXZXZXZXZXZXZXZXZXZXZXZXZXZXZXj.l.c.j.R A Z V V V ZXZXZXZX7 7 9 9 Q ' / / ^ < # { *X&X,.# y >.&X$X#.o.ZXZXZXZXZXZXZXZXZXZXZXZXZXZXZXZXZXZXZXZX",
"ZXZXZXZXZXZXZXZXZXZXZXZXZXZXZXZXZXZXZXZXZXZXZXZXZXv.v.c.R Z B B N Z L ZXZXt 8 7 7 9 r ~ ^ ^ ~ + X J &X=X>.$ y &X=X*X:.` ZXZXZXZXZXZXZXZXZXZXZXZXZXZXZXZXZXZXZXZX",
"ZXZXZXZXZXZXZXZXZXZXZXZXZXZXZXZXZXZXZXZXZXZXZXZXZXZXc.R Z B V V Z Y W C.q.K e 6 7 8 9 ^ / ^ ~ - X w ,.>.J # w ,.>.:.#.` ZXZXZXZXZXZXZXZXZXZXZXZXZXZXZXZXZXZXZXZX",
"ZXZXZXZXZXZXZXZXZXZXZXZXZXZXZXZXZXZXZXZXZXZXZXZXZXZXZXA Z B N B W C.H.H.C.U h 7 7 7 ~ ^ ^ / r - X o # # X o o # w t @._ ZXZXZXZXZXZXZXZXZXZXZXZXZXZXZXZXZXZXZXZX",
"ZXZXZXZXZXZXZXZXZXZXZXZXZXZXZXZXZXZXZXZXZXZXZXZXZXZXZXP.m.w.m.m.R.Q.W.K.z.I a 3 6 8 9 r ~ 9 6 + o     o         X ; / @.ZXZXZXZXZXZXZXZXZXZXZXZXZXZXZXZXZXZXZXZX",
"ZXZXZXZXZXZXZXZXZXZXZXZXZXZXZXZXZXZXZXZXwXwXqXwXqXqXtXaXiXiXjXjXzXzXpX^.l.A r 3 6 7 9 9 6 % O o o                 > ( O.ZXZXZXZXZXZXZXZXZXZXZXZXZXZXZXZXZXZXZXZX",
"ZXZXZXZXZXZXZXZXZXZXZXZXZXZXZXZXZXZXZXZXwXwXwXwXqXqXtXxXNXVXCXCXmXmXpX].v.R $.' r 7 7 7 < O o o o o o         . O 7 o.O.ZXZXZXZXZXZXZXZXZXZXZXZXZXZXZXZXZXZXZXZX",
"ZXZXZXZXZXZXZXZXZXZXZXZXZXZXZXZXNXbXyXZXZXeXeXeXeXeXZXZXZXCXiX5X2X<X>X].).].I.0.x 6 3 7 1 - + + # O o       o - 7 ) o.o.O.ZXZXZXZXZXZXZXZXZXZXZXZXZXZXZXZXZXZXZX",
"ZXZXZXZXZXZXZXZXZXZXZXZXZXZXZXBXNXxXrX9XZXZXZXZXZXZXZXZXZXZXN.9.6.+.0.~.oX0XoXE.6.r 6 7 7 7 6 8 3 - O       # r ^ o.o.O.o.O.ZXZXZXZXZXZXZXZXZXZXZXZXZXZXZXZXZXZX",
"ZXZXZXZXZXZXZXZXZXZXZXZXZXZXZXBXMXaX!.E.ZXZXZXZXZXZXZXZXZXZXK H u 7 &.L.~..X`.Q.f.i.@.9 6 7 7 9 7 < - O O % 1 / O.O.O.o.O.O.O.ZXZXZXZXZXZXZXZXZXZXZXZXZXZXZXZXZX",
"ZXZXZXZXZXZXZXZXZXZXZXZXZXeXdXZXZXU.5.<.g 6 q 3 3 3 3 3 < 8 s s e 6 f <.1.1.h.f.2XhX%X' 3 6 6 9 8 7 8 7 9 ) ^ _ O.O.O.O.O.o.O.o.ZXZXZXZXZXZXZXZXZXZXZXZXZXZXZXZX",
"ZXZXZXZXZXZXZXZXZXZXZXZXoXoXoXZXZX9 ' f ] h h h r 0 8 7 7 7 7 7 7 7 e e e 6 r t.2XjX;X3.h e 8 7 9 r ~ ^ ( _ _ O.O.o.o.o.o.O.O.o.O.ZXZXZXZXZXZXZXZXZXZXZXZXZXZXZX",
"ZXZXZXZXZXZXZXZXZXZXZX0X`.I.b.K 6 ' 3.2.2.3.$. .} g a w 2 > > > > > : - - q 3 +.%X;X-XP.0.X.9 5 9 ~ ^ / ( _ _ ` o.o.o.O.O.o.O.O.o.ZXZXZXZXZXZXZXZXZXZXZXZXZXZXZX",
"ZXZXZXZXZXZXZXZXZXZXwXoXR.I b M h 3.a.d.g.a.p.5.<.b m i * $ & & > & & $ & > 7 r ' 3.P..XQ.5.' Q ~ ) ^ ^ / / / / ^ _ o.o.o.o.O.o.O.ZXZXZXZXZXZXZXZXZXZXZXZXZXZXZX",
"ZXZXZXZXZXZXZXZXZXaX6XW.D.6.X. ...4.p.a.a.s.7.6.<.m u * $ $ & $ $ $ $ $ & 1 6 3 ; s 0.W.W.L.5.../ ~ ~ ~ ~ ^ ^ ^ ^ / _ o.o.O.o.O.O.ZXZXZXZXZXZXZXZXZXZXZXZXZXZXZX",
"ZXZXZXZXZXZXZXZXBXiXT.9.0.7.p.p.y.5.6.$.<.<.<.b c u * * $ $ $ $ $ $ $ $ $ > 7 6 ; 8 b 9.F.W.Q.a.{ ! Q ~ / ^ ^ ^ ^ / ' _ o.o.O.o.o.ZXZXZXZXZXZXZXZXZXZXZXZXZXZXZX",
"ZXZXZXZXZXZXZXZXVXjXg.<.5.g.n.d.a.6.b d m m m m u , * * & & & & & & & $ > > 7 e r h d n w.W..XP.3.| [ [ ] ^ / ^ / ^ ^ ^ o.o.O.O.O.ZXZXZXZXZXZXZXZXZXZXZXZXZXZXZX",
"ZXZXZXZXZXZXZXBXBXjXZXX.y.f.d.y.3.X.s a a a a a w 2 > 1 > 1 > > > > > > > 7 7 f $.3.$.$.1.b.G.I.P.m.b.8.$.] ` ^ ` ^ ^ / ` O.O.o.O.ZXZXZXZXZXZXZXZXZXZXZXZXZXZXZX",
"ZXZXZXZXZXBXBXBXZXZXZXZXd.f.s.+.h 8 8 8 8 8 8 9 e 7 7 8 6 8 7 8 7 8 8 7 8 6 7 } t.a.s.t.6.<.1.I..X+X).v.8.` Q ^ ^ ^ ^ ` ` o.O.O.o.ZXZXZXZXZXZXZXZXZXZXZXZXZXZXZX",
"ZXZXZXZXZXvXvXvXZXZXZXZXZXn.5.[ 7 6 7 6 7 7 7 7 7 7 4 4 6 9 6 7 6 7 7 7 7 7 9  .p.n.g.7.<.g K G.uX@X_./.8.| Q Q ^ ^ ^ ^ ` o.O.o.O.ZXZXZXZXZXZXZXZXZXZXZXZXZXZXZX",
"ZXZXZXZXZXsXsXsXZXZXZXZXZXZX3.h 7 7 7 7 7 7 7 7 7 4 3 4 4 3 3 6 7 7 7 9 7 6 9  .y.n.a.5.<.m K I.uXOX_.J.j.[ Q Q ^ ^ ^ ` o.O.O.o.O.ZXZXZXZXZXZXZXZXZXZXZXZXZXZXZX",
"ZXZXZXZXZXwXwXZXZXZXZXZXZXZXZX9 7 9 7 7 7 8 7 7 9 a d c c c c d a 8 7 7 7 6 9  .y.n.g.7.<.$.L F.XX+X_./.b.S ] ^ ^ / / / o.o.o.o.o.ZXZXZXZXZXZXZXZXZXZXZXZXZXZXZX",
"ZXZXZXZXqX9XZXZXZXZXZXZXZXZXZX6 7 7 7 7 7 7 6 4 c T k.k.k.k.k.E K 9 3 4 7 7 7  .y.f.n.a.7.6.<.9.D.^.'.'.K.R $.] ^ Q ^ / ` o.O.o.O.ZXZXZXZXZXZXZXZXZXZXZXZXZXZXZX",
"ZXZXZXwXwXZXZXZXZXZXZXZXZXZXZX8 9 7 8 7 9 7 < 8 L B.Z.S.Z.S.S./.E m 6 7 9 6 7  .y.n.n.n.a.7.5.$.<.q.`.OX].v.F m ^ Q ^ ` o.o.O.o.O.ZXZXZXZXZXZXZXZXZXZXZXZXZXZXZX",
"ZXZXsXsXsXZXZXZXZXZXZXZXZXZXZX8 7 7 7 7 6 8 u L b.'.OX@XOXOXOX+XK.8.S a 6 6 7  .p.n.n.n.d.a.7.$.S w.6X8X'.v.F $.^ / ^ ] o.O.O.o.o.ZXZXZXZXZXZXZXZXZXZXZXZXZXZXZX",
"ZXZXvXvXvXZXZXZXZXZXZXZXZXZXZX9 7 7 7 4 3 a T B.'.8XxXxXxXxXxXgXXX/.k.b 6 3 9  .p.n.:Xn.n.d.a.5.6.n.iXnX,X8.S s ^ / ^ / o.o.o.O.O.ZXZXZXZXZXZXZXZXZXZXZXZXZXZXZX",
"ZXZXBXBXBXZXZXZXZXZXZXZXZXZXZX7 7 7 7 7 h S x.(.OXxXBXBXBXBXBXMXdX|.A.T d e 7 } t.g.d.g.d.n.d.p.p.-XkXmX>X<.a h ^ ^ / / o.o.o.O.O.ZXZXZXZXZXZXZXZXZXZXZXZXZXZXZX",
"ZXZXBXBXBXZXZXZXZXZXZXZXZXZXZX7 7 7 9 c T x.).|.rXbXBXBXBXBXBXNXfX@X_.B.E S a ' ..3.6.5.0.n.n.g.d.>XkXmX>X<.a h ^ ^ ^ / o.o.O.O.o.ZXZXZXZXZXZXZXZXZXZXZXZXZXZXZX",
"ZXZXBXBXBXZXZXZXZXZXZXZXZXZXZX7 7 6 8 L B.Z.}.@XdXvXBXBXBXBXBXNXxXtX X|.A.E d 7 Q g g b 6.p.n.d.n.>XkXmX4X6.a r / ^ ^ / o.O.O.o.O.ZXZXZXZXZXZXZXZXZXZXZXZXZXZXZX",
"ZXZXBXBXBXZXZXZXZXZXZXZXZXZXZX7 7 3 8 P V.[. X9XfXvXBXBXBXBXBXNXcXtX#X{.S.z.c 3 6 8 8 u S 6.7.7.y.:XkXmX>X<.8 r ^ Q / / ` o.o.o.O.ZXZXZXZXZXZXZXZXZXZXZXZXZXZXZX",
"ZXZXBXBXBXZXZXZXZXZXZXZXZXZXZX7 7 3 8 P V.[. X9XfXvXBXBXBXBXBXNXcXtX#X XS.z.j 3 6 7 a d c b c p b d.jXmX;XX., 8 ^ / ^ / o.o.o.o.o.ZXZXZXZXZXZXZXZXZXZXZXZXZXZXZX",
"ZXZXNXNXNXZXZXZXZXZXZXZXZXZXZX7 7 3 8 P V.[. X9XsXvXBXBXBXBXBXNXcXtX#X{.Z.k.c 3 6 8 a m u i $ O $ 7.iXkX-Xm % 7 ^ / ^ / o.o.O.o.O.ZXZXZXZXZXZXZXZXZXZXZXZXZXZXZX",
"ZXZXxXxXcXZXZXZXZXZXZXZXZXZXZX7 7 3 e P V.[. X9XfXMXBXBXBXBXBXNXcXyX#X{.S.z.c 3 4 8 s m u * = . = 7.5XaXT.u % 8 ^ / ^ / o.o.O.O.O.ZXZXZXZXZXZXZXZXZXZXZXZXZXZXZX",
"ZXZXtXtXtXZXZXZXZXZXZXZXZXZXZX8 7 4 7 P V.[.}.9XsXvXBXBXBXBXBXNXcXtX#X{.Z.k.d 4 4 8 a j u * $ # * 9.`.7XG.p - 7 ^ / ^ / _ O.O.o.o.ZXZXZXZXZXZXZXZXZXZXZXZXZXZXZX",
"ZXZXqXqXqXZXZXZXZXZXZXZXZXZXZX6 7 6 9 S k.V.|.#XrXxXvXvXvXMXMXcXsX0X|.(.B.T s 4 6 e s c p i w & * T '.oXH.H > r ^ ~ / ( ` O.O.O.O.ZXZXZXZXZXZXZXZXZXZXZXZXZXZXZX",
"ZXZXqXqXqXZXZXZXZXZXZXZXZXZXZX7 7 7 8 h b T J.|.#XrXsXfXsXsXsXdX@X}.).z.L g e 7 6 r l v G j i w u 9.`.oXG.H e t ^ ^ / / _ O.O.o.O.ZXZXZXZXZXZXZXZXZXZXZXZXZXZXZX",
"ZXZXZXwXwXZXZXZXZXZXZXZXZXZXZX7 7 7 7 7 4 d E A.|.#X9X9X9X9X0X@X}.(.B.L e 6 7 7 8 e l G G k p J U N.~..XF.K l t ^ ^ ^ / _ o.O.o.o.ZXZXZXZXZXZXZXZXZXZXZXZXZXZXZX",
"ZXZXZXZXqX9XZXZXZXZXZXZXZXZXZX7 7 7 7 7 3 8 S E V._.}. X X X X}.).x.I d 4 3 6 e e l x %.G k H 9.D.G.G.D.9.H l ) ^ / ^ ( _ o.O.O.O.ZXZXZXZXZXZXZXZXZXZXZXZXZXZXZX",
"ZXZXZXZXZXwXwXZXZXZXZXZXZXZXZX7 7 7 7 7 7 8 e z T V.[.[.[.[.[.Z.x.K h 7 8 7 7 r s k v &.G k U F..X~.N.H H J l ) ^ ^ ^ / o.O.O.o.O.ZXZXZXZXZXZXZXZXZXZXZXZXZXZXZX",
"ZXZXZXZXZXsXsXsXZXZXZXZXZXZXZX7 8 7 9 7 8 6 3 4 b k.V.V.V.V.V.B.T a 3 4 7 e t l k k G G J u &.Q.rX6Xq.k w k j f ) ) ^ / _ O.O.o.o.ZXZXZXZXZXZXZXZXZXZXZXZXZXZXZX",
"ZXZXZXZXZXvXvXvXZXZXZXZXZXZXZX9 7 7 8 7 7 7 9 7 s H L P L P P L c r 6 6 e t z X.%.G G x H J 4.,XnXiXg.J y p j j l f / / o.o.O.O.O.ZXZXZXZXZXZXZXZXZXZXZXZXZXZXZX",
"ZXZXZXZXZXBXBXBXZXZXZXZXZXZXZX8 7 7 7 8 6 7 7 7 7 8 8 r r 7 8 8 8 6 7 7 9 l X.&.&.&.v k G H 0.4XlX3Xs.k u j k k k ' ) / o.O.O.o.O.ZXZXZXZXZXZXZXZXZXZXZXZXZXZXZX",
"ZXZXZXZXZXZXZXBXBXZXZXZXZXZXZX7 7 6 7 r 7 7 7 7 6 4 3 3 3 3 3 4 7 7 7 7 r l &.&.&.&.l k U D.R.-X:Xg.6.k y k k k k l / / o.o.O.o.o.ZXZXZXZXZXZXZXZXZXZXZXZXZXZXZX",
"ZXZXZXZXZXZXZXBXBXBXZXZXZXZXZX8 7 8 7 7 7 r 8 7 7 7 9 6 9 6 7 7 7 7 7 7 r l %.&.&.&.n S 9.~..XF.*.d d k k p k k z t / / o.O.O.o.O.ZXZXZXZXZXZXZXZXZXZXZXZXZXZXZX",
"ZXZXZXZXZXZXZXZXBXNXZXZXZXZXZX3 r 7 7 7 7 7 6 7 r 7 8 6 9 8 7 7 7 7 7 7 e l &.&.%.<.4.a.T.Q.E.T i - y k G k k k j l / / o.o.O.O.O.ZXZXZXZXZXZXZXZXZXZXZXZXZXZXZX",
"ZXZXZXZXZXZXZXZXZXZXyXwXZXZXZX3 8 6 8 6 7 7 8 7 7 7 7 8 9 6 8 7 8 6 8 6 e l %.G v 4.&X3X2Xm.P u = , j G G k k k j f / / ( o.O.O.o.ZXZXZXZXZXZXZXZXZXZXZXZXZXZXZX",
"ZXZXZXZXZXZXZXZXZXZXwXwXZXZXZXr 8 6 7 8 8 7 7 7 7 7 7 9 7 8 7 9 9 9 8 e r l G &.6.0.,XlX3X5., O % , j v x k k k k l ) ( ( o.O.o.O.ZXZXZXZXZXZXZXZXZXZXZXZXZXZXZX",
"ZXZXZXZXZXZXZXZXZXZXZXyXbXVX<X=.3 ; 3 3 6 9 7 7 8 7 7 7 7 7 7 7 6 8 e t y l G 1.D.R.>X-Xa.[ @ O % , i u j k k k z l ) ^ / o.o.o.O.ZXZXZXZXZXZXZXZXZXZXZXZXZXZXZX",
"ZXZXZXZXZXZXZXZXZXZXZXZXZXVXhXi.r 3 e 7 8 7 9 7 7 7 7 7 7 7 8 7 9 7 e { %.&.&.w.~..XF.S M : % % % % : , i k k k l f / ^ ^ / / o.O.ZXZXZXZXZXZXZXZXZXZXZXZXZXZXZX",
"ZXZXZXZXZXZXZXZXZXZXZXZXZXBXjXU.h.5.i.-.] 6 4 4 3 6 3 < 3 < 4 7 3 6 [ 1.q.N.N.-X,XW.W w O O % % % % @ , i c v v x z ' ) ) / ( _ O.ZXZXZXZXZXZXZXZXZXZXZXZXZXZXZX",
"ZXZXZXZXZXZXZXZXZXZXZXZXZXZXpX6X`.pXjX1Xe.6 ; 3 3 3 3 ; 3 6 6 ; q 4 <.G.6XiXlX3XY.9.H & @ % % % % @ @ % i n G G G x l l ) / _ o.O.ZXZXZXZXZXZXZXZXZXZXZXZXZXZXZX",
"ZXZXZXZXZXZXZXZXZXZXZXZXZXZXZXoX7XaXkX3Xi.X.z v } | | | | | | | { x 0.Q.7XfXmX3Xs.k w # % % % : % % % , d %.*.&.X.v k g f / _ o.O.ZXZXZXZXZXZXZXZXZXZXZXZXZXZXZX",
"ZXZXZXZXZXZXZXZXZXZXZXZXZXZXZXF.T.-X;X:XT.P.F.L.Y.-X<X<X<X<X1X;X-XP.I.Q.,X,X2X:Xr.s > & % % % % % % @ , z *.-.&.v z z f ) ) ( ` ZXZXZXZXZXZXZXZXZXZXZXZXZXZXZXZX",
"ZXZXZXZXZXZXZXZXZXZXZXZXZXZXZXn { [  .0.Q.XXoXoX8XzXmXmXmXmXmXkXaX7X!.N.s.i.i.r.*.f 2 : % % % % % @ @ , z 3.-. .z g g ' ) / / ZXZXZXZXZXZXZXZXZXZXZXZXZXZXZXZXZX",
"ZXZXZXZXZXZXZXZXZXZXZXZXZXZX< 6 3 ; ; <.L.`..X!.,XiXhXjXjXjXjXhXpX!.I.s.2.e.2.=.z e 2 % % % % % % % % , s  ... .} [ g f ^ ^ ZXZXZXZXZXZXZXZXZXZXZXZXZXZXZXZXZXZX",
"ZXZXZXZXZXZXZXZXZXZXZXZXZX% : 6 4 3 3 f <.1.h.h.h.u.i.i.i.i.i.i.u.5.5.4.e.r.2.*.s 2 : % % % % % % % @ % 2 a g ..=. .[ f ' ^ ^ ZXZXZXZXZXZXZXZXZXZXZXZXZXZXZXZXZX",
"ZXZXZXZXZXZXZXZXZXZXZXZXZX% : 6 7 7 e 8 e e e e e t 9 e r 5 r r e r ' =.r.r.2...a & @ % % % % % % % % % @ : a *.2...[ h ) ^ ZXZXZXZXZXZXZXZXZXZXZXZXZXZXZXZXZXZX",
"ZXZXZXZXZXZXZXZXZXZXZXZX% % : 1 7 7 7 7 6 3 3 3 3 ; 3 ; ; ; ; ; ; 3 ^ =.e.2.=.g 2 % @ & ZXZXZXZX% % % % @ % a ..2...[ f ' ZXZXZXZXZXZXZXZXZXZXZXZXZXZXZXZXZXZXZX",
"ZXZXZXZXZXZXZXZXZXZXZXZXZX% > 1 9 9 7 7 7 7 7 7 7 7 8 6 7 7 7 8 7 7 ' =.2.=.} a 2 : @ ZXZXZXZXZXZXZX% % % % a *.2.=.[ g ZXZXZXZXZXZXZXZXZXZXZXZXZXZXZXZXZXZXZXZX",
"ZXZXZXZXZXZXZXZXZXZXZXZXZX% > 1 8 7 7 7 7 7 7 7 7 e 7 8 6 8 6 r t ' { =.=. .z a 2 : ZXZXZXZXZXZXZXZXZX% @ % f 3.2.-. .} [ ZXZXZXZXZXZXZXZXZXZXZXZXZXZXZXZXZXZXZX",
"ZXZXZXZXZXZXZXZXZXZXZXZXZXZXZXZXZXZXZXZXZXZXZXZXZXZXZXZXZXZXZXZX| =.+. .} [ g h M ZXZXZXZXZXZXZXZXZXZXZXZXZX} 2.r.e.-...} ] ZXZXZXZXZXZXZXZXZXZXZXZXZXZXZXZXZXZX",
"ZXZXZXZXZXZXZXZXZXZXZXZXZXZXZXZXZXZXZXZXZXZXZXZXZXZXZXZXZXZXZXZXZXr.3. .g f g g ZXZXZXZXZXZXZXZXZXZXZXZXZXZXZXr.r.r.r.-.[ g ZXZXZXZXZXZXZXZXZXZXZXZXZXZXZXZXZXZX",
"ZXZXZXZXZXZXZXZXZXZXZXZXZXZXZXZXZXZXZXZXZXZXZXZXZXZXZXZXZXZXZXZXZXZXZXZXZXg ZXZXZXZXZXZXZXZXZXZXZXZXZXZXZXZXZXZXZXr.ZX2.} ZXZXZXZXZXZXZXZXZXZXZXZXZXZXZXZXZXZXZX",
"ZXZXZXZXZXZXZXZXZXZXZXZXZXZXZXZXZXZXZXZXZXZXZXZXZXZXZXZXZXZXZXZXZXZXZXZXZXZXZXZXZXZXZXZXZXZXZXZXZXZXZXZXZXZXZXZXZXZXZXZXZXZXZXZXZXZXZXZXZXZXZXZXZXZXZXZXZXZXZXZX",
"ZXZXZXZXZXZXZXZXZXZXZXZXZXZXZXZXZXZXZXZXZXZXZXZXZXZXZXZXZXZXZXZXZXZXZXZXZXZXZXZXZXZXZXZXZXZXZXZXZXZXZXZXZXZXZXZXZXZXZXZXZXZXZXZXZXZXZXZXZXZXZXZXZXZXZXZXZXZXZXZX"
};
