/* XPM */
static char *result[] = {
/* columns rows colors chars-per-pixel */
"80 80 238 2 ",
"   c #010102",
".  c #03040C",
"X  c #0B0C0D",
"o  c #040B08",
"O  c #040613",
"+  c #0A0714",
"@  c #0C0A16",
"#  c #060B1E",
"$  c #0D0C19",
"%  c #04071D",
"&  c #100E1B",
"*  c #0D1213",
"=  c #091417",
"-  c #111214",
";  c #12131C",
":  c #171B1B",
">  c #1B1C1D",
",  c #05100B",
"<  c #312216",
"1  c #090D23",
"2  c #01062B",
"3  c #030A2E",
"4  c #070D22",
"5  c #0C1124",
"6  c #0C132C",
"7  c #091629",
"8  c #131422",
"9  c #191C23",
"0  c #13192B",
"q  c #1B1C2A",
"w  c #141826",
"e  c #050D31",
"r  c #071131",
"t  c #0D1533",
"y  c #0E1834",
"u  c #0A163D",
"i  c #101732",
"p  c #131A34",
"a  c #191E33",
"s  c #111A3B",
"d  c #191F3A",
"f  c #221F32",
"g  c #1B2228",
"h  c #1B2335",
"j  c #1D243B",
"k  c #1F2A3C",
"l  c #182334",
"z  c #1A393A",
"x  c #122D29",
"c  c #23262B",
"v  c #232B2B",
"b  c #2C2C2D",
"n  c #252522",
"m  c #232534",
"M  c #232C36",
"N  c #2B2D33",
"B  c #212639",
"V  c #242A3A",
"C  c #292D3C",
"Z  c #362832",
"A  c #263233",
"S  c #2A3533",
"D  c #2D3A36",
"F  c #2B323D",
"G  c #2E393D",
"H  c #323232",
"J  c #31353C",
"K  c #323D3B",
"L  c #3B3A3A",
"P  c #353736",
"I  c #0C211B",
"U  c #422413",
"Y  c #452916",
"T  c #4A2A17",
"R  c #4C2D18",
"E  c #4D361C",
"W  c #53321B",
"Q  c #5B361E",
"!  c #463B34",
"~  c #573B35",
"^  c #4E3330",
"/  c #653B28",
"(  c #613C38",
")  c #1D423E",
"_  c #35413E",
"`  c #3C4139",
"'  c #454737",
"]  c #584435",
"[  c #5B5A3A",
"{  c #534B2A",
"}  c #694325",
"|  c #7C492A",
" . c #685537",
".. c #7C5B39",
"X. c #6E4D31",
"o. c #5F6635",
"O. c #666839",
"+. c #746C35",
"@. c #5A411F",
"#. c #0B1945",
"$. c #141E45",
"%. c #171E49",
"&. c #1A1E52",
"*. c #152046",
"=. c #1B2342",
"-. c #16214A",
";. c #19234E",
":. c #1A2652",
">. c #1C2956",
",. c #1C2A59",
"<. c #1F3453",
"1. c #2A2D44",
"2. c #252843",
"3. c #2D3344",
"4. c #2B344C",
"5. c #2B3548",
"6. c #323642",
"7. c #353A42",
"8. c #3A3B42",
"9. c #343C4D",
"0. c #3B3E4D",
"q. c #343E53",
"w. c #483F43",
"e. c #374340",
"r. c #394541",
"t. c #39444E",
"y. c #3B4354",
"u. c #3E445B",
"i. c #3F4958",
"p. c #275353",
"a. c #2E5371",
"s. c #35726D",
"d. c #32686A",
"f. c #1F4342",
"g. c #434444",
"h. c #4B4645",
"j. c #4B4B46",
"k. c #49484B",
"l. c #574B45",
"z. c #4F5048",
"x. c #54544C",
"c. c #5E5D4D",
"v. c #57594C",
"b. c #434452",
"n. c #414B5C",
"m. c #484C56",
"M. c #545253",
"N. c #5D5A5B",
"B. c #565559",
"V. c #775B42",
"C. c #625F58",
"Z. c #69664C",
"A. c #646451",
"S. c #6B6A54",
"D. c #686751",
"F. c #7D7A5B",
"G. c #797655",
"H. c #7C7042",
"J. c #465262",
"K. c #4A5465",
"L. c #4B5365",
"P. c #696665",
"I. c #6A6767",
"U. c #656878",
"Y. c #6C7078",
"T. c #767272",
"R. c #797574",
"E. c #7E7979",
"W. c #7C7876",
"Q. c #736E6D",
"!. c #5E6051",
"~. c #874B2C",
"^. c #945C2C",
"/. c #82532C",
"(. c #83633A",
"). c #856637",
"_. c #9B6A37",
"`. c #997239",
"'. c #A7783A",
"]. c #B47336",
"[. c #8D784C",
"{. c #A37941",
"}. c #827D7B",
"|. c #7E8039",
" X c #3D817C",
".X c #87853E",
"XX c #958839",
"oX c #AE893B",
"OX c #B7B13B",
"+X c #DCB03F",
"@X c #C3953E",
"#X c #DCD33F",
"$X c #979543",
"%X c #84815D",
"&X c #89845B",
"*X c #918B5B",
"=X c #908E4E",
"-X c #B58F41",
";X c #928D63",
":X c #969163",
">X c #999365",
",X c #89847B",
"<X c #989573",
"1X c #ADA66B",
"2X c #A8A066",
"3X c #B2AA6C",
"4X c #B6AD75",
"5X c #B5AC74",
"6X c #EAB640",
"7X c #C6BB6C",
"8X c #C8BF76",
"9X c #C6BC74",
"0X c #D49B40",
"qX c #F4D241",
"wX c #CBC176",
"eX c #CCC279",
"rX c #DACE7E",
"tX c #E2D67F",
"yX c #499897",
"uX c #55B1B0",
"iX c #909295",
"pX c #B6B393",
"aX c #A9ACB5",
"sX c #EBDE83",
"dX c #E6DA87",
"fX c #F7ED90",
"gX c #D5D0AB",
"hX c #F1E9A8",
"jX c #FFFFB2",
"kX c #C3C4C7",
"lX c #D8D8D2",
"zX c #FCF9C7",
"xX c #E8E6D9",
"cX c #F9F5DD",
"vX c #FCFCF2",
"bX c #FFFFFF",
"nX c #F2F3E4",
"mX c None",
/* pixels */
"mXmXmXmXmXmXmXmXmXmXmXmXmXmXmXmXmXmXmXmXmXmXmXmXmXmXmXmXmXmXmXmXmXmXmXmXmXmXmXmXmXmXmXmXmXmXmXmXmXmXmXmXmXmXmXmXmXmXmXmXmXmXmXmXmXmXmXmXmXmXmXmXmXmXmXmXmXmXmXmX",
"mXmXmXmXmXmXmXmXmXmXmXmXmXmXmXmXmXmXmXmXmXmXmXmXmXmXmXmXmXmXmXmXmXmXmXmXmXmXmXmXmXmXmXmXmXmXmXmXmXmXmXmXmXmXmXmXmXmXmXmXmXmXmXmXmXmXmXmXmXmXmXmXmXmXmXmXmXmXmXmX",
"mXmXmXmXmXmXmXmXmXmXmXmXmXmXmXmXmXmXmXmXmXmXmXmXmXmXmXmXmXmXmXmXmXmXmXmXmXmXmXmXmXmXmXmXmXmXmXmXmXmXmXmXmXmXmXmXmXmXmXmXmXmXmXmXmXmXmXmXmXmXmXmXmXmXmXmXmXmXmXmX",
"mXmXmXmXmXmXmXmXmXmXmXmXmXmXmXmXmXmXmXmXmXmXmXmXmXmXmXmXmXmXmXmXmXmXmXmXmXmXmXmXmXmXmXmXmXmXmXmXmXmXmXmXmXmXmXmXmXmXmXmXmXmXmXmXmXmXmXmXmXmXmXmXmXmXmXmXmXmXmXmX",
"mXmXmXmXmXmXmXmXmXmXmXmXmXmXmXmXmXmXmXmXmXmXmXmXmXmXmXmXmXmXmXmXmXmXmXmXmXmXmXmXmXmXmXmXmXmXmXmXmXmXmXmXmXmXmXmXmXmXmXmXmXmXmXmXmXmXmXmXmXmXmXmXmXmXmXmXmXmXmXmX",
"mXmXmXmXmXmXmXmXmXmXmXmXmXmXmXmXmXmXmXmXmXmXmXmXmXmXmXmX$.$.$.$.;.>.,.>.,.,.>.:.-.$.*.*.$.%.$.$.$.$.mXmXmXmXmXmXmXmXmXmXmXmXmXmXmXmXmXmXmXmXmXmXmXmXmXmXmXmXmXmX",
"mXmXmXmXmXmXmXmXmXmXmXmXmXmXmXmXmXmXmXmXmXmXmXmXmXmXmX-.-.$.*.-.;.>.>.>.>.>.>.:.-.$.$.$.$.$.$.$.$.$.mXmXmXmXmXmXmXmXmXmXmXmXmXmXmXmXmXmXmXmXmXmXmXmXmXmXmXmXmXmX",
"mXmXmXmXmXmXmXmXmXmXmXmXmXmXmXmXmXmXmXmXmXmXmXmXmXmX%.-.;.;.;.;.:.>.,.>.>.>.;.-.-.$.*.*.$.s s $.$.mXmXmXmXmXmXmXmXmXmXmXmXmXmXmXmXmXmXmXmXmXmXmXmXmXmXmXmXmXmXmX",
"mXmXmXmXmXmXmXmXmXmXmXmXmXmXmXmXmXmXmXmXmXmXmXmXmX*.*.;.>.>.>.:.>.>.>.>.:.:.-.*.$.$.$.*.$.y t y mXmXmXmXmXmXmXmXmXmXmXmXmXmXmXmXmXmXmXmXmXmXmXmXmXmXmXmXmXmXmXmX",
"mXmXmXmXmXmXmXmXmXmXmXmXmXmXmXmXmXmXmXmXmXmXmXmX*.-.;.:.>.,.,.,.>.:.:.:.:.-.$.$.$.*.$.s s y t mXmXmXmXmXmXmXmXmXmXmXmXmXmXmXmXmXmXmXmXmXmXmXmXmXmXmXmXmXmXmXmXmX",
"mXmXmXmXmXmXmXmXmXmXmXmXmXmXmXmXmXmXmXmXmXmXmX-.-.:.:.>.,.,.,.,.:.;.-.-.-.-.*.$.$.$.$.y p y t i mXmXmXmXmXmXmXU U mXmXmXmXmXmXmXmXmXmXmXmXmXmXmXmXmXmXmXmXmXmXmX",
"mXmXmXmXmXmXmXmXmXmXmXmXmXmXmXmXmXmXmXmXmXmXmX%.-.-.;.;.;.;.;.-.-.*.$.$.*.$.$.$.$.$.s y t t t mXmXmXmXmXmXmXmXT T T mXmXmXmXmXmXmXmXmXmXmXmXmXmXmXmXmXmXmXmXmXmX",
"mXmXmXmXmXmXmXmXmXmXmXmXmXmXmXmXmXmXmXmXmXmX:.:.$.6 1 1 5 5 # 4 i $.*.$.$.$.$.$.$.$.s y r t mXmXmXmXmXmXmXmXR W W W Y mXmXmXmXmXmXmXmXmXmXmXmXmXmXmXmXmXmXmXmXmX",
"mXmXmXmXmXmXmXmXmXmXmXmXmXmXmXmXmXmXmXmXmXmX,.>.d 1       o   O 5 s $.$.*.$.$.$.$.$.$.y t mXmXmXmXmXmXmXmXU W } } Q T U mXmXmXmXmXmXmXmXmXmXmXmXmXmXmXmXmXmXmXmX",
"mXmXmXmXmXmXmXmXmXmXmXmXmXmXmXmXmXmXmXmXmXmX,.,.<.f.) I o , ) f.k y y $.$.$.$.$.$.$.y t t mXmXmXmXmXmXmXR W } | /.} R U mXmXmXmXmXmXmXmXmXmXmXmXmXmXmXmXmXmXmXmX",
"mXmXmXmXmXmXmXmXmXmXmXmXmXmXmXmXmXmXmXmXmXmX&.,.a.yXyXp., x  XyXd.7 O t *.*.*.$.s y y t r mXmXmXU < U T W @.| ^._.^.mXmXmXmXmXmXmXmXmXmXmXmXmXmXmXmXmXmXmXmXmXmX",
"mXmXmXmXmXmXmXmXmXmXmXmXmXmXmXmXmXmXmXmXmXmX&.,.a.uXuXd.= z yXuXs.= . 6 $.%.$.$.s i t y l mXmX@.W R Y Y W } /._.].mXmXmXmXmXmXmXmXmXmXmXmXmXmXmXmXmXmXmXmXmXmXmX",
"mXmXmXmXmXmXmXmXmXmXmXmXmXmXmXmXmXmXmXmXmXmX:.>.a.s.s.z , I p.s.)   . 6 *.%.$.$.y t r i M [ =X+.+.@.W Y R Q } ^.mXmXmXmXmXmXmXmXmXmXmXmXmXmXmXmXmXmXmXmXmXmXmXmX",
"mXmXmXmXmXmXmXmXmXmXmXmXmXmXmXmXmXmXmXmXmXmX,.>.=.0 = o     = = o   . t $.*.%.s y t r i D O.=X$XXX+.@.U U T E mXmXmXmXmXmXmXmXmXmXmXmXmXmXmXmXmXmXmXmXmXmXmXmXmX",
"mXmXmXmXmXmXmXmXmXmXmXmXmXmXmXmXmXmXmXmXmXmXmX>.s .                   # t s s u u t r y L +.oX$X$X|. .E Y Y mXmXmXmXmXmXmXmXmXmXmXmXmXmXmXmXmXmXmXmXmXmXmXmXmXmX",
"mXmXmXmXmXmXmXmXmXmXmXmXmXmXmXmXmXmXmXmXmXmXmX>.s .                     O 1 i s i t e t Z ~.].oX$X.XO.o.{ mXmXmXmXmXmXmXmXmXmXmXmXmXmXmXmXmXmXmXmXmXmXmXmXmXmXmX",
"mXmXmXmXmXmXmXmXmXmXmXmXmXmXmXmXmXmXmXmXmXmX,.>.$.#                     . % 6 t t i s f ^ | ^._.=X|.O.o.o.mXmXmXmXmXmXmXmXmXmXmXmXmXmXmXmXmXmXmXmXmXmXmXmXmXmXmX",
"mXmXmXmXmXmXmXmXmXmXmXmXmXmXmXmXmXmXmXmXmX,.,.,.-.p 1 .           O O O + 1 6 r e t Z / / ( / ~ { [ o.o.mXmXmXmXmXmXmXmXmXmXmXmXmXmXmXmXmXmXmXmXmXmXmXmXmXmXmXmX",
"mXmXmXmXmXmXmXmXmXmXmXmXmXmXmXmXmXmXmXmX>.>.>.,.>.:.*.1         O 5 t 6 6 r i t u a / ~.~.^ f a k D [ o.O.mXmXmXmXmXmXmXmXmXmXmXmXmXmXmXmXmXmXmXmXmXmXmXmXmXmXmX",
"mXmXmXmXmXmXmXmXmXmXmXmXmXmXmXmXmXmXmX,.>.>.>.>.,.,.>.p # O . O 4 t y y t r t d P ] X.~./ f u e 6 k ` ' ` mXmXmXmXmXmXmXmXmXmXmXmXmXmXmXmXmXmXmXmXmXmXmXmXmXmXmX",
"mXmXmXmXmXmXmXmXmXmXmXmXmXmXmXmXmXmX,.>.,.>.>.>.,.,.,.;.$.i t t t t t y t e t H .._...^ Z a t e t 0 k M k p t t t t r t r 6 6 r mXmXmXmXmXmXmXmXmXmXmXmXmXmXmXmX",
"mXmXmXmXmXmXmXmXmXmXmXmXmXmXmXmXmXmX>.>.>.>.>.>.,.,.:.>.:.:.-.$.s y u y s s m ] `.{. .m e 6 t 6 t 6 6 6 6 6 t i i p a d d 2.j j j mXmXmXmXmXmXmXmXmXmXmXmXmXmXmX",
"mXmXmXmXmXmXmXmXmXmXmXmXmXmXmXmXmX,.>.>.>.>.>.>.>.;.;.;.:.:.-.$.$.s u u d !  .(.....! p e 6 5 8 5 5 # # # # 1 0 a V 6.0.b.m.m.m.b.L b c mXmXmXmXmXmXmXmXmXmXmXmX",
"mXmXmXmXmXmXmXmXmXmXmXmXmXmXmXmXmX,.>.>.>.>.>.>.;.;.*.*.*.*.$.$.%.%.%.#.1.V.{._.] m a i 6 ; - - * - - : * - > n H 8.z.N.I.Q.T.Q.P.g.N N H S mXmXmXmXmXmXmXmXmXmX",
"mXmXmXmXmXmXmXmXmXmXmXmXmXmXmXmXmX,.>.>.>.>.>.:.;.*.$.*.$.$.$.$.#.#.2.8.l.(.'.(.H r e t 6 ; * X X n { [  .o.O.Z.Z.c.M.B.P.I.Q.I.A.M.h.g.g.g.! mXmXmXmXmXmXmXmXmX",
"mXmXmXmXmXmXmXmXmXmXmXmXmXmXmXmXmX,.>.>.>.>.:.;.-.*.$.$.$.*.$.#.#.#.8.(.{.). .! h 6 r t 6 ; X o X ! =X3XwX7XwXwX7X[.j.L w.h.k.k.M.N.I.I.P.N.g.b mXmXmXmXmXmXmXmX",
"mXmXmXmXmXmXmXmXmXmXmXmXmXmXmXmXmX,.>.>.>.>.;.*.*.$.*.$.*.*.2.1.1.1.l.{.'.(.! N k j p y 5 & - : < O.1XtXtXtXtXsXeX&X! m c b b N w.N.T.E.W.P.j.N mXmXmXmXmXmXmXmX",
"mXmXmXmXmXmXmXmXmXmXmXmXmXmXmXmXmX,.>.,.,.:.;.*.$.$.$.$.%.1.l.V.V.V...).). .g.t.b.b.1.w 1 % w ' &X=X>X>X;X;X:X:X%Xv.N 0 0 0 0 q C 0.B.I.}.T.M.mXmXmXmXmXmXmXmXmX",
"mXmXmXmXmXmXmXmXmXmXmXmXmXmXmXmXmX,.>.>.>.,.;.*.$.$.$.$.%.w.{.-X@X@X`.X.' ' M.N.Q.P.g.9 $ 4 F %X8X3XD.J C F 3.F F B p i p p i p p p 1.L.T.}.mXmXmXmXmXmXmXmXmXmX",
"mXmXmXmXmXmXmXmXmXmXmXmXmXmXmXmXmX,.>.>.>.>.;.*.$.$.$.#.%.w.{.0X6X6XoX[ H 7.M.P.R.T.k.9 g ' D.>X5X;Xg.r 2 3 3 e e r t C j.x.7.a e 3 a t.Q.mXmXmXmXmXmXmXmXmXmXmX",
"mXmXmXmXmXmXmXmXmXmXmXmXmXmXmXmXmX,.>.>.,.:.;.$.$.%.$.#.%.w.{.+XqXqX@X+.H L M.P.R.T.b.l ` *X5X>XD.g.B t 3 3 e 3 r 3 y j.:X1XS.j 3 e y 1.mXmXmXmXmXmXmXmXmXmXmXmX",
"mXmXmXmXmXmXmXmXmXmXmXmXmXmXmXmXmX,.>.,.>.>.;.%.$.$.$.$.1.l.{.@X#X#XOXO.L g.B.P.R.T.B.8.A.3X8X%XF r t i B C N a t e i x.1X8X;Xg.j p y t mXmXmXmXmXmXmXmXmXmXmXmX",
"mXmXmXmXmXmXmXmXmXmXmXmXmXmXmXmXmX,.>.>.>.>.;.$.$.$.%.^ ( X.| (.XXXX+.[ g.M.P.T.E.}.,X;X:X:X%Xz.a 2 2 0 z.G.Z.H 3 2 t 7.S.;X>X&XA.6.t mXmXmXmXmXmXmXmXmXmXmXmXmX",
"mXmXmXmXmXmXmXmXmXmXmXmXmXmXmXmXmX>.>.>.>.>.;.%.%.#.2.( ~.~.} ! ' ' ' x.B.P.T.E.E.,XpXrX3XD.F a i r r 1.%XeX3Xv.a e t p j r.:XeX1Xx.p mXmXmXmXmXmXmXmXmXmXmXmXmX",
"mXmXmXmXmXmXmXmXmXmXmXmXmXmXmXmXmX>.>.,.>.>.;.%.#.#.2.~ | | ~ L F H w.M.P.T.}.}.E.,X1X4X;Xg.r 2 t *.n.Y.pXhXgXiXL.4.s e 2 C :XsX8Xc.p 2 mXmXmXmXmXmXmXmXmXmXmXmX",
"mXmXmXmXmXmXmXmXmXmXmXmXmXmXmXmXmX,.>.>.>.>.;.*.$.$.=.Z ~ ] h.k.g.h.M.P.T.E.}.,X}.}.Q.C.g.V r 2 e u.iXkXxXcXcXlXaXU.=.2 2 C >XsX8Xc.p 2 mXmXmXmXmXmXmXmXmXmXmXmX",
"mXmXmXmXmXmXmXmXmXmXmXmXmXmXmXmXmX,.>.>.>.>.;.*.$.$.$.m N L j.B.N.N.P.T.}.E.R.R.R.I.b.j t t i a 3.U.kXbXbXbXbXbXnXiXm.a r F [.eX1Xx.i 3 mXmXmXmXmXmXmXmXmXmXmXmX",
"mXmXmXmXmXmXmXmXmXmXmXmXmXmXmXmXmX,.>.>.>.>.;.-.$.$.$.j N L k.C.P.Q.R.}.}.I.N.M.m.b.2.y 3 3 h j.F.pXxXbXbXbXbXbXbXgX,XC.F j m.F.A.7.i e mXmXmXmXmXmXmXmXmXmXmXmX",
"mXmXmXmXmXmXmXmXmXmXmXmXmXmXmXmXmX,.>.>.>.>.;.*.$.$.$.B N L k.N.P.T.E.}.T.N.w.J B j s y r r C F.eXhXcXbXbXbXbXbXvXzXdX2Xz.y l F C a y t mXmXmXmXmXmXmXmXmXmXmXmX",
"mXmXmXmXmXmXmXmXmXmXmXmXmXmXmXmXmX,.>.>.>.>.;.*.$.$.*.h c b L j.M.N.C.P.B.h.H c 0 t r r 6 e F *XsXjXvXbXbXbXbXbXvXcXfX9Xc.y 2 3 e r t t mXmXmXmXmXmXmXmXmXmXmXmX",
"mXmXmXmXmXmXmXmXmXmXmXmXmXmXmXmXmX,.>.>.>.>.;.*.$.%.$.q > > n n b H H H H H b c 0 t r 3 3 3 J *XsXjXcXbXbXbXbXbXvXzXfX9Xc.p 2 3 e t i y mXmXmXmXmXmXmXmXmXmXmXmX",
"mXmXmXmXmXmXmXmXmXmXmXmXmXmXmXmXmX,.>.>.>.>.;.*.$.$.$.0 & - - - - - - - ; n b m a i j C B i C F.wXhXcXbXbXbXbXbXvXzXdX2Xz.p d C B a y y mXmXmXmXmXmXmXmXmXmXmXmX",
"mXmXmXmXmXmXmXmXmXmXmXmXmXmXmXmXmX,.>.>.>.>.;.*.$.$.s 0 * X X X X X X X X > b c i B x.F.D.6.j g.[.pXxXbXbXbXbXbXvXgX<XA.F j z.F.D.7.y e mXmXmXmXmXmXmXmXmXmXmXmX",
"mXmXmXmXmXmXmXmXmXmXmXmXmXmXmXmXmX,.>.>.>.>.;.-.*.$.$.0 - - - * - - * * - n b m i C %X8X1Xx.p 6 5.Y.kXbXbXbXbXbXxXiXm.a t C %XwX1Xx.y 3 mXmXmXmXmXmXmXmXmXmXmXmX",
"mXmXmXmXmXmXmXmXmXmXmXmXmXmXmXmXmX,.>.>.>.>.;.*.$.*.*.0 : : : : : : : : g n b M i 6.>XsXeXA.i 2 r u.yXkXxXcXcXlXaXU.*.2 2 F :XsX8Xc.p 2 mXmXmXmXmXmXmXmXmXmXmXmX",
"mXmXmXmXmXmXmXmXmXmXmXmXmXmXmXmXmX,.>.>.>.:.;.*.*.*.*.l v v v x n v g v v S D M i F >XsXeXA.i 2 6 &.m.T.pXhXdXiXL.4.s 2 2 C :XsX8Xc.p 2 mXmXmXmXmXmXmXmXmXmXmXmX",
"mXmXmXmXmXmXmXmXmXmXmXmXmXmXmXmXmX,.>.>.>.>.;.-.$.$.=.k S S S S S S A S S _ _ F l F %X8X1Xx.p e i t t 1.%X8X1Xx.%.u t p j g.:XwX1Xx.p 2 mXmXmXmXmXmXmXmXmXmXmXmX",
"mXmXmXmXmXmXmXmXmXmXmXmXmXmXmXmXmX,.>.>.>.>.:.-.$.#.*.V S S S S S S S S D K _ D M A v.F.S.7.y r i e 2 a l.G.D.J 3 2 e 6.S.;X>X&XA.J p e mXmXmXmXmXmXmXmXmXmXmXmX",
"mXmXmXmXmXmXmXmXmXmXmXmXmXmXmXmXmX,.,.>.>.>.-.*.$.*.*.k S S S S S S S S S K _ _ D A A F V a t t t t t s f C V d t r p x.1XwX:Xg.j p y t mXmXmXmXmXmXmXmXmXmXmXmX",
"mXmXmXmXmXmXmXmXmXmXmXmXmXmXmXmXmX,.>.>.>.>.;.%.*.=.j V S S A S b ) _ S D K _ _ D D M a y y t t i i t e e e e r a 7.v.%X1X1XS.j 3 r i t mXmXmXmXmXmXmXmXmXmXmXmX",
"mXmXmXmXmXmXmXmXmXmXmXmXmXmXmXmXmX>.>.>.>.>.;.*.j k z A S S S S ` _ _ _ _ D D D K K G F k p t t t e e e e t e e V S.1X1XF.v.J i r t t i mXmXmXmXmXmXmXmXmXmXmXmX",
"mXmXmXmXmXmXmXmXmXmXmXmXmXmXmXmXmX,.>.>.>.>.;.$.l z S S S S S S S _ K K K D S D _ _ r._ F h t t u l V V B i r e F [.8X1Xx.p r t t t t t mXmXmXmXmXmXmXmXmXmXmXmX",
"mXmXmXmXmXmXmXmXmXmXmXmXmXmXmXmXmX,.>.>.>.>.;.*.j A S S S S S S v n c v v M A D _ _ r.r.G h t r y 7.G.%Xv.B e e k B.%XS.7.r e t t t i t mXmXmXmXmXmXmXmXmXmXmXmX",
"mXmXmXmXmXmXmXmXmXmXmXmXmXmXmXmXmX,.>.>.>.:.;.*.=.A S S S S S b x ; & * ; g b D _ r.r.e.G l y e y x.1XwX[.1.r r y k F V a t r t y t t t mXmXmXmXmXmXmXmXmXmXmXmX",
"mXmXmXmXmXmXmXmXmXmXmXmXmXmXmXmXmX,.,.>.>.>.;.-.j k S S S S D S n @ + + $ g A D _ _ r.e.F l t e y j.;X1XG.2.r r t r e r t t y t t t i i mXmXmXmXmXmXmXmXmXmXmXmX",
"mXmXmXmXmXmXmXmXmXmXmXmXmXmXmXmXmX,.,.>.>.>.:.*.=.M S S S D _ D c ; + + - g A D _ _ r.e.F l t r t V j.x.8.d t t t t r t r t t t t t i t mXmXmXmXmXmXmXmXmXmXmXmX",
"mXmXmXmXmXmXmXmXmXmXmXmXmXmXmXmXmX,.,.>.>.:.;.*.j z S S S D D D g & + + & 9 v S _ e.r.e.G j p t t y p p i t t t t t t t y y t t t t y t mXmXmXmXmXmXmXmXmXmXmXmX",
"mXmXmXmXmXmXmXmXmXmXmXmXmXmXmXmXmX,.>.>.:.;.*.$.k k S S S b v c 9 $ @ @ @ ; g v D e.r.e.K F k l i r e e r t i t t t t t t y t t t t y y mXmXmXmXmXmXmXmXmXmXmXmX",
"mXmXmXmXmXmXmXmXmXmXmXmXmXmXmXmXmX>.>.:.;.$.$.*.j M S S A v 9 ; $ @ @ @ @ @ - g D _ r.e.e.e.G V p t t t t t t t t t t t t t t t t t t y mXmXmXmXmXmXmXmXmXmXmXmX",
"mXmXmXmXmXmXmXmXmXmXmXmXmXmXmXmXmX,.>.:.-.*.*.j k G D D D v ; @ + @ $ @ $ + @ 9 N K _ r._ r._ V l t t t t t t t t t t t t y t t t t y t mXmXmXmXmXmXmXmXmXmXmXmX",
"mXmXmXmXmXmXmXmXmXmXmXmXmXmXmXmXmX,.>.:.-.*.j M F D _ _ _ A : @ + @ @ @ @ + @ 8 v D _ _ r._ _ A y t t t t t t t i t t t t t i t t t y i mXmXmXmXmXmXmXmXmXmXmXmX",
"mXmXmXmXmXmXmXmXmXmXmXmXmXmXmXmXmXmX>.:.-.*.k M D D e.e.e.F 9 $ + @ @ $ @ + @ 8 g D K e.r.r.e.V s r y y t t t t t t t t t t t t t t y mXmXmXmXmXmXmXmXmXmXmXmXmX",
"mXmXmXmXmXmXmXmXmXmXmXmXmXmXmXmXmXmXmX;.-.*.k M A F 6.t.t.7.g $ @ @ @ @ $ @ @ 8 h F e.t.i.i.t.3.p y t t t t t t t t t t t t y t t t t mXmXmXmXmXmXmXmXmXmXmXmXmX",
"mXmXmXmXmXmXmXmXmXmXmXmXmXmXmXmXmXmXmXmX*.*.j B M M 1.9.n.9.q @ + @ @ @ @ @ @ 8 g C 0.n.n.J.u.4.p t t t y t t t t t t t t t t y t t y i mXmXmXmXmXmXmXmXmXmXmXmX",
"mXmXmXmXmXmXmXmXmXmXmXmXmXmXmXmXmXmXmXmX*.*.=.2.C 3.3.9.t.F q $ @ @ @ @ @ @ @ & w m 9.n.L.L.i.4.d t t t t t t y t t t i t t t t t t t 6 mXmXmXmXmXmXmXmXmXmXmXmX",
"mXmXmXmXmXmXmXmXmXmXmXmXmXmXmXmXmXmXmXmX$.*.j B 1.9.0.3.m 9 & @ @ @ @ @ @ @ @ @ & q 3.n.L.K.n.4.s r r t y t t t t t i t y t t t t y 6 5 $ mXmXmXmXmXmXmXmXmXmXmX",
"mXmXmXmXmXmXmXmXmXmXmXmXmXmXmXmXmXmXmXmX$.*.j j 5.b.n.C 8 @ @ @ @ @ @ @ @ @ @ @ @ 8 C y.J.K.n.4.p t t t t t t t t t t t t t t t t t t 6 $ @ mXmXmXmXmXmXmXmXmXmX",
"mXmXmXmXmXmXmXmXmXmXmXmXmXmXmXmXmXmXmXmXmX%.d B 5.n.n.C 8 O + + @ @ mXmXmXmX@ + + & m 6.i.J.n.4.p r t t t t t t t t t t t t t t t t t 1 $ @ mXmXmXmXmXmXmXmXmXmX",
"mXmXmXmXmXmXmXmXmXmXmXmXmXmXmXmXmXmXmXmXmXmXB B 5.b.i.F 8 + @ @ @ mXmXmXmXmXmXmX@ & w B 9.u.u.4.d t t t t y y t y t t y t t t y y t i 1 $ @ mXmXmXmXmXmXmXmXmXmX",
"mXmXmXmXmXmXmXmXmXmXmXmXmXmXmXmXmXmXmXmXmXmX3.3.q.n.n.6.8 + + @ mXmXmXmXmXmXmXmXmX& q m 1.9.y.9.=.j p y y t t y t y t t i y t y t y 6 8 $ @ mXmXmXmXmXmXmXmXmXmX",
"mXmXmXmXmXmXmXmXmXmXmXmXmXmXmXmXmXmXmXmXV C 9.y.n.n.J.y.mXmXmXmXmXmXmXmXmXmXmXmXmXmXl B V F 5.9.y.q.1.mXmXmXmXmXmXmXmXmXmXmXmXmXmXmXmXmXmXmXmXmXmXmXmXmXmXmXmXmX",
"mXmXmXmXmXmXmXmXmXmXmXmXmXmXmXmXmXmXmXmXB C 9.n.L.J.J.mXmXmXmXmXmXmXmXmXmXmXmXmXmXmXmXV B V C 9.n.K.mXmXmXmXmXmXmXmXmXmXmXmXmXmXmXmXmXmXmXmXmXmXmXmXmXmXmXmXmXmX",
"mXmXmXmXmXmXmXmXmXmXmXmXmXmXmXmXmXmXmXmXmXC 9.mXmXmXmXmXmXmXmXmXmXmXmXmXmXmXmXmXmXmXmXmXmXmXmX0.mXmXmXmXmXmXmXmXmXmXmXmXmXmXmXmXmXmXmXmXmXmXmXmXmXmXmXmXmXmXmXmX",
"mXmXmXmXmXmXmXmXmXmXmXmXmXmXmXmXmXmXmXmXmXmXmXmXmXmXmXmXmXmXmXmXmXmXmXmXmXmXmXmXmXmXmXmXmXmXmXmXmXmXmXmXmXmXmXmXmXmXmXmXmXmXmXmXmXmXmXmXmXmXmXmXmXmXmXmXmXmXmXmX",
"mXmXmXmXmXmXmXmXmXmXmXmXmXmXmXmXmXmXmXmXmXmXmXmXmXmXmXmXmXmXmXmXmXmXmXmXmXmXmXmXmXmXmXmXmXmXmXmXmXmXmXmXmXmXmXmXmXmXmXmXmXmXmXmXmXmXmXmXmXmXmXmXmXmXmXmXmXmXmXmX"
};
