/* XPM */
static char *result[] = {
/* columns rows colors chars-per-pixel */
"80 80 166 2 ",
"   c #622C3D",
".  c #62303F",
"X  c #783F3E",
"o  c #071B43",
"O  c #091D44",
"+  c #072145",
"@  c #092246",
"#  c #072649",
"$  c #0A2649",
"%  c #072B4B",
"&  c #0A2B4C",
"*  c #102047",
"=  c #122E4D",
"-  c #07314E",
";  c #0A324E",
":  c #10324F",
">  c #073750",
",  c #0C3550",
"<  c #073C52",
"1  c #0B3C53",
"2  c #103551",
"3  c #123D54",
"4  c #253E57",
"5  c #633341",
"6  c #673C45",
"7  c #074355",
"8  c #0A4356",
"9  c #0C4659",
"0  c #0D4B5B",
"q  c #124256",
"w  c #134559",
"e  c #18435B",
"r  c #144C5D",
"t  c #184D5E",
"y  c #0E515E",
"u  c #14515F",
"i  c #18515F",
"p  c #394F4A",
"a  c #24455C",
"s  c #234D5F",
"d  c #2F605C",
"f  c #3F6252",
"g  c #1A4F60",
"h  c #155461",
"j  c #195561",
"k  c #165963",
"l  c #1A5B64",
"z  c #1E5F68",
"x  c #234960",
"c  c #205664",
"v  c #1B6067",
"b  c #1D6169",
"n  c #20646A",
"m  c #515E4A",
"M  c #634047",
"N  c #674148",
"B  c #68444A",
"V  c #7A4642",
"C  c #784A46",
"Z  c #5B6746",
"A  c #5F6D4A",
"S  c #446655",
"D  c #8B333A",
"F  c #8D3B3F",
"G  c #963C3B",
"H  c #9C3F39",
"J  c #AD3636",
"K  c #A73A37",
"L  c #AC3B36",
"P  c #A13738",
"I  c #A53A38",
"U  c #A83A38",
"Y  c #B53534",
"T  c #B93632",
"R  c #B23B35",
"E  c #BD3931",
"W  c #FF0000",
"Q  c #FF0A06",
"!  c #FC0D0A",
"~  c #FE150C",
"^  c #E41914",
"/  c #F01311",
"(  c #FE1512",
")  c #F31D13",
"_  c #FF1815",
"`  c #FF1818",
"'  c #E72815",
"]  c #E6261C",
"[  c #EA241C",
"{  c #F42216",
"}  c #FF2212",
"|  c #F4281B",
" . c #FF321C",
".. c #F6381D",
"X. c #C32F2E",
"o. c #DE2424",
"O. c #DC2C25",
"+. c #C3322F",
"@. c #CB362A",
"#. c #DD3226",
"$. c #DD3328",
"%. c #D43B28",
"&. c #C33C31",
"*. c #E12C26",
"=. c #EC2922",
"-. c #F92323",
";. c #F22F20",
":. c #F92B2B",
">. c #E13624",
",. c #E73926",
"<. c #E33228",
"1. c #FF3325",
"2. c #FF342D",
"3. c #F63332",
"4. c #FF3534",
"5. c #F43E3E",
"6. c #F93838",
"7. c #86443B",
"8. c #87493C",
"9. c #894C3D",
"0. c #97403D",
"q. c #9D413A",
"w. c #924E3A",
"e. c #94543C",
"r. c #9A553B",
"t. c #9E5A3B",
"y. c #A44337",
"u. c #A94636",
"i. c #AD4936",
"p. c #A44539",
"a. c #A94838",
"s. c #B34334",
"d. c #B64D31",
"f. c #BD4833",
"g. c #A25C3B",
"h. c #AA6038",
"j. c #B56435",
"k. c #D35E2C",
"l. c #C34D33",
"z. c #DE4637",
"x. c #C95537",
"c. c #E2472E",
"v. c #EB4129",
"b. c #E1492F",
"n. c #F45229",
"m. c #E84931",
"M. c #EC463C",
"N. c #D8622D",
"B. c #FF6836",
"V. c #8B5241",
"C. c #F54141",
"Z. c #F15F5F",
"A. c #FF6A4A",
"S. c #FF6F50",
"D. c #FF6E5B",
"F. c #FF7265",
"G. c #FF736D",
"H. c #EB7F7F",
"J. c #FF7474",
"K. c #F17C77",
"L. c #E8817F",
"P. c #E68484",
"I. c #E78887",
"U. c #E78989",
"Y. c #E88E8D",
"T. c #EB9C9B",
/* pixels */
"O + ; l i O O t i q t k q @ l k i + O $ @ O i & w l l c b b b l 3 ; $ = 3 j l l k j h - r r $ r k k 0 9 7 j , $ O w h 7 8 r % + h , < 7 < w $ $ % < r r c i i & ",
"$ $ j l t @ O & i t q 3 q q l j + : O r O O 3 e : q i b b b b l 3 ; $ & e l z l y 0 r - q < $ ; 0 k u 7 7 1 0 ; + w ; 7 r r & @ , w < 7 9 w $ $ , r 8 e 3 q 3 $ ",
"q q q j ; + + r i & w + t w J i @ i ; w $ O O O q u u l b b l l g , & , w l k h r r 8 - , 3 $ ; r u l 7 7 7 - u , w - 8 j r $ + h w 1 < l q $ $ 9 < 8 t 2 j @ O ",
"e 3 q l 3 + & q t w w & t J i J @ i i i w & O @ & r r j l b l W W W , 1 j 0 h w 8 r h o.+ ; $ & 1 < u 0 8 7 < j r , - j - w $ $ h q h g r $ o 1 - < r 2 q t $ O ",
"w O r i 2 + w - r w w q u l L i o q 3 t q t @ + & , u y j k o.l l 9 o.8 h 0 0 1 r e o.3 O @ , , % $ r k 8 8 8 r u > o.i $ q $ q 1 $ l j # O & w - > u 3 q 1 o O ",
"i @ i i w + t t 7 u r % q i u l % u @ q q t q & ; 9 t u y j l W W W 7 r h < 8 1 w *., W @ ; q e + @ w j u 0 7 8 o.; r @ + + q 3 3 $ O 3 O O g % ; 0 W 9 ; q ; o ",
"t 2 t ; i % r u 7 u 7 % 2 q r j w q @ r 3 ; 1 t u l 1 < j u j W W W 1 h 7 7 < 9 l 1 o.3 = u g 3 + + @ R u r 1 o.< o.r + + @ r $ $ q W O $ $ & g w i Q w % t u O ",
"; 3 O O i q % u 7 u r & q i r 9 i & % t & ; i J j q w ; u 0 o.r 9 r W h 8 7 1 k r q 3 t 3 i t , @ O + $ < ; 1 9 o.$ q q 1 ; ; ; & w W O & 2 3 g w w W % + w ; O ",
"+ : + o k + % r 7 u > & , r 1 r l < % @ + k J e J r 1 $ & l 8 W W W & & r 1 8 l h q $ 3 w h w t & + O & u $ t k $ + $ k k u r 8 1 - W $ 2 w j j j l j + O u 3 O ",
"@ ; O O i + $ - u i ; 1 @ q u u u r - @ O l t J e , q # & J 9 k w W # , u < < j h q J w g j j 3 3 ; $ r i : O t O O q e @ r 1 u 0 , & , 3 l l h j : @ O + r e $ ",
"O 3 O o t O $ & u i & @ @ $ u u u r , , + j = k w w e & L 8 J ; $ W O u 1 , < j u J $ J h h h r 3 r e u r 3 O l O + q t ; - t 8 8 r 3 h h j h h 3 & + @ $ r 2 3 ",
"@ : O o t O + @ % W $ + + $ u u k < r i O o O j + r r 1 9 J h $ $ W ; e q , q r r q J , k 0 r u t r 3 j i , O k $ w J q r - < u 0 r l l l h h 1 1 $ O $ 3 e g g ",
"; O O O i O & w + W + O + $ k 1 l 7 k q $ O O + & u r j l l < & ; q u + q i 1 i r 3 $ ; h 8 r W j j j 3 3 e O k q u O t 1 ; ; 8 h r h k l h 0 1 ; $ & 1 r l l z ",
"q O $ 2 r 3 u l O W O @ & , v ; l r k J q O + $ o.u 7 8 l e q 3 u @ r O t $ w $ t & ; , r 9 0 W l l t j @ w o i t t o l 3 $ ; < h y o.l k 0 0 7 1 , e t 9 h l l ",
"; O q i j k k i + O @ q r i u & ; w l J w $ % o.r o.8 u j 1 1 3 3 3 3 + $ ; u J w e 3 , r k 1 W l l t h $ O o u q q & k + & ; - r h y l l 0 9 0 r r q e h l l k ",
"o ; r i u 1 r & & @ 3 r k J @ $ r # j J i $ - r o.7 7 k r 8 3 3 J q Y $ % j k j k j r q w i 1 r j l t j @ o J i q r i u O q r & , l r 0 k 0 r k 0 u i u j J l 0 ",
"& i q k > t - ; q ; ; j l e + ; t O u h r & 1 u 7 o.0 j 0 q @ Y q L $ $ ; l k J h l l g l l , w j j g h $ O O ; e r i i & q J + $ - r 8 k 8 k u r h k j W l W 7 ",
"i i q i 9 u - r + $ j j i O + i O = j O i ; r J o.7 o.r r $ O r J e : , , < 1 J k h h k q 2 3 w j j l W W # + , t r j i q & q W W W 8 > i > r u r k h k W i W > ",
"i j l q i - & t $ 3 r j t @ & q ; r W O u 1 u 7 7 o.h j L + O @ ; 3 e w w 8 , J k h g k l w r r y r j r W ; % w 3 t j r i q J @ O $ J & j % 8 r r r h h W r W $ ",
"l k l e u @ + w 3 O i e 3 3 ; t 3 W W O @ j u 7 < 0 u J ; J + $ 3 r g j k j & ; , h 0 h j h h J y y j W W W % r ; 1 o.l l k j W W W , $ j $ q r r 8 0 r u J $ O ",
"l l j i ; @ O q O & j , t & j & i q W O @ & ; < o.l l u J & , , e j l j t & + $ > h 1 h l l l k k k 7 7 W v , r r o.r h j l l $ O @ e $ q 2 O h r < j 9 r $ O O ",
"l k u k & + O o O t j j q 3 W W W : $ @ + $ & < o.l l e w g g g j u j j 1 $ O + # > 1 r v b l k i l 9 7 L l 0 j h o.g h k j ; Y $ & 3 3 g q O e r 8 8 0 r + O O ",
"l l i k $ O O @ $ j , l l W l j j W : @ O + & w o.r l $ , l w g h J k 8 , $ O O + $ , h W l l j 0 u 7 7 7 k k j r o.u y l < $ $ $ 3 g j l : $ $ % h k < 1 $ o o ",
"k k i l & @ @ 3 r $ 2 J l W l l j W 3 & @ + ; + , j 2 & w e g l h y r 1 - , O O o $ & j W l l k 0 h 7 7 7 k u j l j u j r ; & & , r l j j w , # % r h < j $ + O ",
"j k j 9 ; @ 3 t i @ : r k W l l l W u 3 , $ e O r j t e 1 r l l y k 7 1 8 r $ + O J $ W W j h i 1 h h < 7 0 k l l l h h > > & h g h j k h h g O # > > , , 2 ; & ",
"r h k $ q ; $ i t @ & u q W u h j W r j j J J O $ j t q r r h h 0 h 0 J l r e 3 @ O o.i 9 u j 8 > h J 1 7 0 k l l j q h - , 1 W r r h r l , h O W # - , 3 3 3 w ",
"& r r ; 3 w J i $ @ @ r & W i 0 j W l g l j r $ & j r r h W h 0 0 y k 7 - r u @ w o.$ o.8 8 r ; & J 9 J 0 0 h l l g 3 w J r W W W h r 0 l r , O W # $ , 3 g k j ",
"3 + O e O t J i q ; @ r + $ L L J 0 h l J l l q q q j l k W h 7 h h j h , l u r u q o.u 1 9 r 1 # r J h y 0 y l l g 3 e , j W W W h 0 9 l k , O W O $ 2 w g l v ",
"O O O O $ e J 3 w i 3 q O ; i k 0 W y l k k l l i Y l z l W W 7 u L 9 k w k l l w q @ i 8 J 8 u & 1 J l r 8 0 h h h J q g 3 g W h r 1 j g l O $ W ; 2 3 r k k k ",
"O o O @ q O e O @ O q w @ i ; k j W 0 k h l l l J j l z l h h 7 u w w i + u + i O t 8 i r r u w g O r g % r r r 0 W k W l r h y W 9 < r 3 l O $ W 3 e g r y 0 W ",
"O O O 3 + @ 3 @ O @ : r @ r 1 l l W 9 h h k k l l z z z k h 0 < k u 1 i O O O t O + l k < r r - j O O O $ ; k r J W l W j h 0 0 W r e 1 1 j O & 2 w h h r r 0 W ",
"O O @ $ $ $ $ @ O O q r 2 r q i 0 j 7 L k j h l z l l l h y h < k q e k O O O t @ @ l i 9 r < - $ $ O O O w 1 r h W h W k h 0 1 W % J 3 j & O & 3 g j j j e e W ",
"O ; 8 2 r e 2 ; & O t : q r , j 9 u 0 r l l k u l k u u y u 8 8 k Y j j o o O q $ 1 1 k l j - 8 < 9 J + O i & 8 u y J k u 0 1 1 w + W + j O + $ 1 r h g x & & $ ",
"o t k t l j j t q $ + ; r j h w q w u u 7 u u y y k k y y u 9 8 k $ l & o O O e < r r j k j , j u l & @ + q ; k u k J 0 0 1 1 r $ + W 2 i o O & ; r r e & $ O o ",
"o O t 3 k l j t 2 r 3 r : r O j @ & i Q 7 k u 9 8 k i u 8 J u 7 j $ r O O   5 V.p.q.p.p.r.7.t k < k , & & r r 8 7 k 7 8 8 , e $ O O W q ; & O r , k 9 4 $ O o o ",
"o O $ u r t j J r j 1 j 3 u $ j 2 % l Q y 7 y u u l < 7 7 i 7 7 k $ + @ 5 P 0.u.y.L L p.w.u.r.C 8 j 8 - q 8 w 9 8 k 7 7 < 1 q + + + q J r j + r g 9 r , * O O o ",
"O O $ i k j J 8 W r j l l i q r i % i W k 9 7 9 u < - - - l 7 r j + + D J J T +.#.#.#.#.c.R u.L I B u 8 9 r 1 w u u 9 7 7 u $ + + & W u W k @ 3 h 9 e w @ O O O ",
"O O O = ; k i W W u k k l l j r l % j W J 7 0 y 7 - & % - r 8 7 u % D J R T O.O.O.$.<.o.o.+.Y u.L U k j u r ; 1 r w j 7 < j & @ $ 1 W j W $ $ j j , $ t 3 @ O o ",
"O & + 3 r l & r W u l l l l j j r % r 0 7 0 u < < & $ + ; u r 1 - 5 L Y @.O.z.M.` 2.D.C.M.=.+.E L L B k k i - 1 1 $ j < < j % J # r W i W & $ O r t = t O q o o ",
"O r 3 & j w w % r 1 j l l J J u 2 $ u u 7 u < < ; ; $ & w w ; 1 p I L d.O.c.A.` ( ` ! ` 4.1.[ #.J U I j j y - r 3 @ & > - & $ J # r 7 J u ; O O 3 j h o o e o o ",
"2 j t j j O , $ q 1 8 j l r u u q % i 7 0 r - 9 & q o.r 3 & & ; 9.J @.%.#.B.~ -.:.:.( ` 6._ m.v.T J J Z l l ; u + + $ $ ; $ + J & r 8 k 9 ; $ O : i i O @ a s x ",
"j w ; q r O , O + h r u l 1 l $ ; & - 8 k > 8 l 3 o.o.t ; 3 @ & K u.O.O.v.~ -.3.C.5.U.T.Y.` | _ b.Y J t.f l - w + O O ; w + O O $ i j k W W J * t i i O e x j l ",
"j 3 O 3 t O q O ; r W j u r r $ @ 1 ; o.u 8 i l i t *.; O $ O $ L g.O.>.~ Q 3.T.P.P.P.P.I.2.( } n.+.u.u.A l ; @ O R $ t q O O + $ w k j < W + 3 ; r 3 @ k c k v ",
"t O $ 3 O O 3 @ i h W & r h $ @ + q & o.k i q t j 2 o O @ r O $ L t.X.x.Q Q L.Y.P.U.P.U.Y.4.~  .] O.L e.8.- & & $ q r 3 O O O $ @ & u i 8 W $ j $ q w c i J l k ",
"3 O q O O O : q : + W @ e i ; @ + : $ *.r i J u J 8 J O w q $ @ L p.X.E Q Q I.I.P.P.P.T.H.4.( ~ *.O.J w.I % & q w e t O O O O r + 3 $ 3 h t r l t c i s j J l 0 ",
"@ O t @ @ $ w i q @ + $ w q w $ + 1 3 j ; q i k i l 3 O i & w @ J p.+.T Q Q K.T.Y.Y.T.K.Z.2.1.Q c.+.R y.y.$ q q & j 3 O $ : $ r @ q 1 $ i l j i 2 j l j l Y k < ",
"o O + $ 1 t t l q @ o 3 u q 3 q O i o j ; q u l r l o.@ i u q @ U U Y T Q Q 1.G.J.J.J.4.4.4.1.Q b.T i.L u.3 & O u u 2 2 r t r i : q r r l 3 t r 3 j l l k 8 r > ",
"o O $ 3 i i q i @ 3 O o q w 2 i @ q o r q r u l l i o.q i O t @ 7.U T Y ~ Q 1.2.4.2.2.4.F.1. .! #.Y u.L H o o @ t r w t j 3 r j & r t t r u O t 3 l l l j 1 9 % ",
"o $ e u r j o.2 $ O O O q r 3 i 2 $ @ i 3 i v i u 8 o.q i O i $ % I Y R >.W ~  .1.1.1.1.S.] ) ) O.u.L a.F & $ J & h g g g w h J ; e w i r i O j q j l j j r $ O ",
"$ e e q t o.r o.& O O + 3 t $ q w 3 ; i u k u u u O.; 3 i @ q q 3 . L s.E ^ )  . . .| { ;./ ! #.s.i.i.U F k q e q 2 w h k h J , J 3 ; : t : , j u k j g h w O o ",
"t r 3 q e r *.; $ O @ $ & J q @ i @ O q q k i u r w i + i $ r i w 3 V e.s.J f.] ..| [ { ,.{ ' s.i.a.I L 6 k g g 3 q h k l r g J t o ; ; W ; j 0 h h g r e q O o ",
"j t r e 3 t & $ O @ $ , 7 i r ; q 3 @ ; q l 8 i 7 u q + l q 2 q j ; w 0.7.r.t.l.l.l.&.N.k.j.h.U p.0.F F g l h g g g r k w h h $ = O q 3 W J u i 0 k 0 j , 1 $ O ",
"l l g q , e O O + + % u k l r q q Y 3 O j k < k < t < + o w $ l 3 $ r N G r.r.e.r.t.t.u.i.L i.K B M k h k l l l k h 0 k 1 h w , O o q u W 8 o.7 r 0 9 j 1 q & O ",
"l l g 3 e + O + @ ; 2 u u r u 8 q ; 1 O i k - j 8 < w 2 : $ u ; & e u i . V 7.V.7.e.e.K q.q.e.V r 0 k l l z b z l k y J 9 k , w + @ i l W u o.9 k y 0 h l # % o ",
"k k r 3 w + + # > r r 7 u < u t : & i O t i & ; w % r i t r i ; @ t i 3 ; O O u   6 N X m S d > k 9 y l b b b k h y 0 L j j & r @ r k r W j o.0 u k j 9 l , O $ ",
"r 0 8 < w + @ , ] 7 8 u 7 7 8 w @ q & $ u r $ & 2 @ 2 i J i O q q t r r o O O r $ e , h = q 1 9 j 9 y l l b k J 0 0 9 J j h 1 , & j k u k W u u 0 l l r h h & & ",
"0 8 < r r # & W r W 8 u 7 < ; 8 W O O q 3 3 $ q + + q t J 3 @ w w i q 3 @ ; @ i q O t k $ : 8 i h 7 y h l l h 9 8 7 7 7 l r r 8 r J u r i Q 8 k u l k t l i $ O ",
"7 7 7 u $ + r W 7 W 7 0 < - - r W $ @ ; q O q : J O w J q J 3 ; i u q ; : i : i r 1 t q u + w u k 9 h k k h w 9 1 0 < 7 l 1 g 3 j J 8 0 k W u u 0 j j t i j $ $ ",
"7 7 < j $ 1 r W < W 8 r - - & r W - # O t O q O o O i i J + t w k u 3 $ t r e k j i 3 e j @ $ J < 0 0 y y h 8 h h l < 8 l > w u r J u 7 k u w u 8 j r t i i $ O ",
"9 7 < u $ j w ; o.7 u - $ $ - u W 9 % $ ; @ O O O O 3 t @ & q l i q + 3 j l k i 3 u ; j i ; & t < 7 7 0 7 g r i g j 0 h y , w j w u i 8 1 k $ % u j r t j j o o ",
"7 7 < i $ u $ ; 1 < l $ @ , 8 W 0 W , & $ e @ O O O i + @ i $ l j $ = j i t j r r $ 3 u r k & w < 9 7 7 8 r j J q 1 - r l - J 1 q u r < r j @ @ % k j 3 r r o O ",
"< - ; 1 ; j $ & < ; & $ + i j W j W r 3 2 w $ O O + i O $ k q i t 2 r j e J e t e $ @ i w l J 9 7 J 7 < r i 1 q q + $ ; ; ; J q q t u 8 i w $ + , j r r j t O O ",
"& $ $ & i i $ & r , $ O + l q W j W l j w 3 & @ o 3 3 O r k t 3 : j j i q 3 t k $ @ & 3 l l q r 7 < 1 1 j 3 3 q 3 + + $ , q J e t r 1 i 1 , W + r # $ t l O o o ",
"+ + @ q j q 1 , q r O O O j r r *.l b c j w : @ O t O @ q r 3 e q j j g 3 & w O O O + o r g 1 h 9 0 w h 1 t @ 3 3 @ $ O r q u O j q ; @ q W r W e W o o o O o o ",
"O O : $ t 3 3 q q t o o O $ w t j l c n l j q 2 J r O O g q e w j h k r 3 , e o o o o O l + t j j j r $ q i 2 $ & & & $ q 1 3 $ ; j o , 2 O W O W , W ; % $ O O ",
"O O 3 q u 3 : q ; q @ O @ $ = t e j l l z l j J e J $ @ e , r J j j u J 1 r O o o o O @ j O t $ h % $ + ; $ j q w r r 1 8 r + e , j o q 3 O j ; W h W e & % & O ",
"O + 3 & w O q 3 q 3 2 O O @ @ & w e g l b b l l J q $ & e t j k j u 0 1 r q O O O O O q j O O $ $ $ + O q , j j k l l k Y j # h 3 r O q ; O j t W > W r ; $ & $ ",
"O $ t + @ @ r @ t O q O O O O O & i e j b b b l l 3 & 3 r j l k l J 8 < r , O O O @ + e O O O O O + O o 3 j l l k k i 0 r - & O W W W 3 q O O q r J 1 < r ; & % ",
"o q 2 $ : : ; & $ O 2 O O O @ @ 3 e w u k b b l k w , w k j l l k 0 8 < k $ @ + @ ; 1 , $ O o @ o o o O e k t r k k u i J & @ Y r + , L 1 @ + @ q r , , r r & % ",
"o e $ = q e q : $ o.O O O @ q q o.& u y u l b l k g 9 l i j l *.k u 9 0 j $ ; $ ; r k r w Y O 3 o o o O r k < Y y i u ; & $ @ w W W W i j $ @ + + k ; , 1 g r % ",
"o O $ 3 t j t 2 o.O *.@ : ; 3 *.+ o.> u 0 k l l l l k 9 9 h l *.o.y u u 1 ; $ % r r k 1 q $ ; , O O o O j 1 J 8 J w t & + + @ @ $ r r < u & @ @ o r , , 3 g l l ",
"$ & 2 r t j t 3 & o.O q $ 3 + O o.& ; l 8 r h l h h h 9 y h j o.i J 9 k & $ @ & h 8 r 9 9 r j J ; * $ 2 j r , J 9 9 r 1 O O $ O # r j 8 J & @ @ $ j 2 2 w j l v ",
"3 3 e l l h 0 , & j , & r w $ % q , 2 - 7 i y i y y y 0 0 y k h J 0 0 u % @ + ; u 0 r r J k & J t 3 2 3 w 3 8 J 8 r u w @ O r + $ j v W r W $ , 3 j t w r h l k ",
"g g j j h o.1 9 2 l & r i 1 1 ; O O + % u u i u o.h 7 h 0 h y l y k 8 k ; + + r < i u J q J t R e j g 3 $ $ 1 r 0 9 k r 3 O w @ & l 9 W < W w , = h g h h 0 h 0 ",
"l l l l r o.1 l h & q h j u 1 ; + O O 2 i i 1 r o.h h h 0 0 l l u 7 7 j - $ $ h < i u w J & i q j j j w & & 1 r k t k i 2 O r & w j j W 1 W 1 j 3 l l j r 0 8 7 ",
"l l k k l o.r j , q h l 9 8 < w & % @ q w v < 9 o.0 9 0 h h h k u < < - - ; , r - u r 8 @ q u q g j h r r W W W l > J t q o w t r r 0 k J j q i g h h h r 8 < < ",
"h k h h r 9 3 j 3 3 & r j y 0 < 8 u 8 O u k w < 8 r , w w h 0 l r , - ; < r u k < i r 8 @ @ i r 0 h l h J k 3 , J w i q i $ i i j < r k 1 i q $ w h r 0 8 , & & ",
"k 0 h r r $ j 3 w $ & < r W W W q i q $ i k 9 8 0 r % 9 w 9 j k k W W W t i < - r t i + O @ t r 8 0 y l l W W W q 2 i O r u 3 i t + u w q O w & w u 9 8 < & $ @ ",
"k 8 k h & & j O 3 $ & > J 0 u y L i 1 2 u k r 8 0 W W W 1 r k r J w , % J < 1 1 u @ i O o + & y 1 y h l l j w , 8 u i O i i ; w r & e 2 q 8 q q ; < 7 1 ; $ + o ",
"7 7 h w $ r 3 o O $ & < 7 W W W i l i i + l u r J ; $ + J w k < l W W W ; 7 7 t l + O o o + % v < l j l z l j t i l 3 o l w i i 3 q i 3 j l e @ % < < < ; + O o "
};
