/* XPM */
static char *result[] = {
/* columns rows colors chars-per-pixel */
"80 80 140 2 ",
"   c #622E3E",
".  c #071B43",
"X  c #091D44",
"o  c #072146",
"O  c #092246",
"+  c #072649",
"@  c #0A2649",
"#  c #072B4B",
"$  c #0A2B4C",
"%  c #102047",
"&  c #122E4D",
"*  c #07314E",
"=  c #0A324E",
"-  c #10314F",
";  c #073750",
":  c #0C3550",
">  c #073B52",
",  c #0B3C53",
"<  c #103551",
"1  c #123D54",
"2  c #1E3F5A",
"3  c #253E57",
"4  c #623241",
"5  c #653B46",
"6  c #074355",
"7  c #0A4356",
"8  c #0C4659",
"9  c #0C4B5B",
"0  c #124256",
"q  c #134559",
"w  c #18435B",
"e  c #144C5D",
"r  c #184D5E",
"t  c #0E515E",
"y  c #14515F",
"u  c #18515F",
"i  c #394946",
"p  c #24455C",
"a  c #234D5F",
"s  c #2F605C",
"d  c #1A4F60",
"f  c #155461",
"g  c #195561",
"h  c #165963",
"j  c #1A5B64",
"k  c #1E5F68",
"l  c #234960",
"z  c #205664",
"x  c #1B6067",
"c  c #1D6169",
"v  c #20646A",
"b  c #405B4F",
"n  c #515E4A",
"m  c #674349",
"M  c #68464B",
"N  c #794441",
"B  c #7B4943",
"V  c #446655",
"C  c #8B333A",
"Z  c #8D3C3F",
"A  c #9E3E37",
"S  c #943A3A",
"D  c #9B3D39",
"F  c #BF392F",
"G  c #AD3636",
"H  c #A63A37",
"J  c #AB3B37",
"K  c #A63B38",
"L  c #B43634",
"P  c #BB3631",
"I  c #B23A35",
"U  c #BA3A34",
"Y  c #FF0A06",
"T  c #FF0B0A",
"R  c #FF160D",
"E  c #EB1C17",
"W  c #EC1E1D",
"Q  c #FF1712",
"!  c #FF1818",
"~  c #E4251E",
"^  c #EC291D",
"/  c #FF321C",
"(  c #C42E2D",
")  c #D22320",
"_  c #DE2523",
"`  c #DE2A24",
"'  c #C3312E",
"]  c #DD3125",
"[  c #D83D27",
"{  c #D2352E",
"}  c #DE342A",
"|  c #C13B30",
" . c #C93D33",
".. c #E32521",
"X. c #EC2B28",
"o. c #E43123",
"O. c #E0352A",
"+. c #FF3324",
"@. c #FF332A",
"#. c #FF3533",
"$. c #87453B",
"%. c #884A3D",
"&. c #95403E",
"*. c #9D413A",
"=. c #8F543F",
"-. c #95563E",
";. c #A44337",
":. c #A94636",
">. c #AD4937",
",. c #A34439",
"<. c #A94838",
"1. c #B24135",
"2. c #B94236",
"3. c #A65E39",
"4. c #AD6037",
"5. c #AA6038",
"6. c #DE4227",
"7. c #C64032",
"8. c #D24E35",
"9. c #D2503A",
"0. c #EC4328",
"q. c #E4492C",
"w. c #E44B32",
"e. c #8A5141",
"r. c #F15252",
"t. c #F15F5C",
"y. c #FF6D5A",
"u. c #FF7265",
"i. c #EB7271",
"p. c #EB7F7E",
"a. c #F17B76",
"s. c #F17B7A",
"d. c #E68585",
"f. c #E78888",
"g. c #E88E8E",
"h. c #EB9B96",
"j. c #EB9C9C",
"k. c #EDA8A8",
"l. c #F1BBBB",
"z. c #F7D6D6",
/* pixels */
"X O = j u O X r u 0 r j 1 @ j j u O X $ X X u $ q g j z v c c g 1 - @ & 1 g j j j f f * e y $ e h j 9 6 6 j = @ O q g 7 6 e @ @ g : > 6 > q @ @ # 6 e r u u j O ",
"@ @ g j e O X $ u r 0 1 0 0 j u O = X e X X 1 q - q u x c x c j q - # $ w j k j t 8 e * q : @ = 8 h h 6 6 > q = O q = > y e @ @ : e , 6 8 q @ @ : 9 7 q 1 0 1 $ ",
"0 0 1 j = O O e u $ q O e q 0 g O u = e @ X X X q y u j k x k j w : # : q j f f e e 7 $ : 0 @ * e y y 6 6 7 = u = q = 6 y e + @ f q , > g 0 O @ q > 7 q < a @ . ",
"q 1 0 j 1 O @ 0 e q q $ e u y y X u u u w $ X O $ e e f h k j h d , : : g t d 9 7 e f 1 o = @ @ 7 ; y t 6 6 > y y * * h * q O @ y 0 f e e @ X , * ; e 1 0 r $ . ",
"q X e u : O e = e q q 0 u j j h X 0 1 r 0 u @ O $ = y t f j k j f 9 > > f 9 8 7 e q 1 1 X X = 1 @ $ e j 7 6 6 u y = ; u @ 0 # 0 : @ j g @ @ $ q * > y 1 0 , X . ",
"u O u u q O e e 6 y e # 0 u u j # u X 0 1 r 1 $ : q e u y h h h h f 6 d f > 7 : e q , O O = q 0 O @ q y y 8 7 6 u ; q @ O O 0 1 1 @ O 1 X X f $ ; q y 7 * 0 = X ",
"r = r & u # e y > y 6 # : q e u q 0 O e 0 $ 1 e y g : > f y f f d f 7 f > 6 6 , g , 0 1 & u d 1 X X # G y y 7 > > = q O O O q @ @ q < X @ @ - q 0 j 7 q # u u . ",
"$ 0 O X u 0 # e 6 y e $ 0 u e q y $ # r = = u u y e q * y 9 e f 8 f q f 7 7 7 h e q 1 r 1 u e : O X X @ , * , 7 * $ q 0 , : = * $ q 1 X @ < q w q q e + O q * . ",
"X = X X u O # e 6 u ; * - e : y h > * O X u j q r r , @ * j 8 f e q # $ y 6 > k y 0 $ 1 e d q e & O X $ y $ r j @ O @ j u u q 7 , # @ @ - w g g g j g O X u 1 X ",
"X : X X u X @ * y u * : O 0 u y y e * @ O j e g q : 0 @ $ = 8 g q + @ : y > > g g 0 $ 0 d j d 0 1 $ $ e u = X e O X 0 q # e 7 y 9 : $ , 1 h h g d < O O O e 0 @ ",
"X 0 X X r X @ # y u * @ o + y y y e = = X u = j q q 0 $ * 7 f * $ , X y , * : g u = @ g f f f e 1 e q y e 1 X j X @ 1 e = * e 6 7 d , g f j f f 1 $ X O $ q 1 1 ",
"O = X X e O O # # 0 @ O O + u y j > y y X X X u @ q e , 8 j u @ @ g $ q 0 : q e e 0 @ : f 9 e f e e 1 u y - X g @ 0 G 0 u * ; u 9 e g k f f e 8 : $ X @ 1 q r u ",
"< X X X u X $ 8 X O O X O # u 7 h 7 h q @ X X O $ e y f f h , $ $ q u O q r 1 e r 1 @ * f 7 e f j g d 1 1 q X j q u X u : # = 6 f 9 f h f f 9 6 : @ * : e g j j ",
"0 X O : u , u u X X . O @ ; j = j e j G 0 X @ @ e y 6 6 h e 0 0 r @ e X e O q @ r $ = : e 8 8 f j j r g @ 0 X r e e X j 0 # * > f f f j f f 8 6 : : q r e u j x ",
"= X 0 u u j u u O X @ 0 e u u * = q h G q o @ : e 7 6 y u , , 1 1 1 1 o @ ; y 7 q q 1 : e f 7 r j g r f O X . y 0 0 $ u O $ : * e f f j j 9 8 9 e e 0 w y x j h ",
"X = q j e 6 u # $ O 0 e y $ O @ e @ h G u @ * e 7 6 6 f e 0 1 1 = 0 L @ # u j g j j e 1 q u : e g j r j @ . X u 0 e u u X 0 e @ : h 9 9 h 9 9 f e e f g y j j 9 ",
"$ u 0 j > e ; = 0 $ = g j q X = r X u u e $ 7 e 6 6 8 j e 0 O r 0 < O $ * k j G f h h g g h < q g g d f $ X X = q e u u $ 1 G O @ * e 6 h 6 j y e f h g j j 6 6 ",
"u u 0 u 7 u * e @ @ u j u X O r O & u X u * e G 6 6 u 9 e + O q r q < : = > > G j f g h q < 1 e g g h g = # O = r r u u q $ 0 O @ + , > f : e y e f f j x y ; ; ",
"u u j 0 u $ @ e @ 1 r g r @ $ 0 = e 1 X e 7 y 6 7 > f g G o X @ - 1 q q e 7 = G g G f g g w e e f e g e j * @ q 1 r u e u q r O X @ < $ g $ 7 e e 9 t f u q * @ ",
"j u x q e # O q 1 X u q 1 1 = r 1 q X X @ u u 6 7 8 y G : G O @ 1 e u u j u @ * : G 9 f f g f G 9 t g 6 y 8 # y = 1 j j j j u O X @ < O f @ 0 e f , f e y @ @ X ",
"x j u u = O X q X $ g = u @ g @ u 1 O X O $ ; > > h j e G $ : : w g h j e $ O @ * G 8 y j x j h h h 6 6 6 x : y e g e f u j j @ X O q $ q < X g e > f 8 e @ X X ",
"h h y u $ O . . X r g g 0 0 0 1 j & & O O o * ; q j k q q d d w g f f g 1 @ O O + : , e j k j f f h 6 6 G h 8 g g e e f j u = G O $ 1 1 e q X q e , 8 9 e @ . . ",
"h j y h & X . O @ g = j h g g u u 0 = O X O $ 0 @ f h @ : j d d f f f , : @ o X o @ : f h k j h 9 f 6 6 6 j j f e f y t j , $ O @ 1 d g j & @ @ # f f > , @ X . ",
"h h y j @ O O 0 e @ < k j k k x g e 1 @ O O - O : g < $ q w g j f t f , * * X X X @ $ g g j j h 8 f 8 6 6 h f h h g y u e = $ $ : r j g g q : X # e f > g @ O X ",
"h j g q $ @ 1 e u @ - q j u j j h g u 1 : @ q X e g r q 1 e f h t f 6 , 7 e @ @ . L @ u e g u u , t e 6 6 9 f j k j e g : ; $ e d f j f f f d + # * ; : : : - - ",
"e f h @ q - $ r r O $ u 0 j u y g f e g g 1 r X O g r 0 e e f f 9 f 9 G j e q 1 O X @ u q y u 7 : f G 7 6 t f k k g 7 f * : , g 8 d d f j : e @ X # * : < 1 1 1 ",
"$ e e $ 1 q e u @ X @ r * = y t f y g g g j e @ @ g q g f f f 9 9 9 h 6 * G r O q # + u 6 8 e ; $ J q G 8 t f j g d 1 w G e g d f f t 8 f d : X X + + = 1 d f j ",
"1 X X e X q 1 u 0 = @ e O $ y u f y f h L j h q 0 2 g j h 9 f 6 f f h f : j y e y 1 # y > 8 e : + d G 9 t 8 f f g d q q < d e g f f 9 8 j f : X X X + - d f j x ",
"X X X X @ q @ 1 q u 0 0 . - y y 9 9 t h h h j j u r j k h y e 6 y u 8 g 0 j j j 0 q @ u 6 y 6 y $ 1 G f e 6 e f f d f 1 f q d f f d > f d j X @ @ & : 1 e f f h ",
"X X X @ 0 X r X X X 0 q X u ; x h 9 9 h f j j h G g k k h f f 6 y q q y O f X u X e , u e e f q f . e d # e f 9 9 f j f g e e f 9 7 , d , g @ @ - 1 d d f 9 t t ",
"X X X 1 X X 1 X O X : e O e 0 u f 8 6 f f h j k j z v x f f 9 6 h y , j X X X r X O x u > y e * f X X X @ $ f f G 9 k h f f 9 9 7 d q : 1 f X @ < 9 d f f e 9 8 ",
"X X O @ @ $ @ O X X q q : e 0 u f f 8 9 h h f h k h k h f t f > j q q g X X X e o @ j u 8 e : * @ @ O X X q , e f 9 f j f f 9 , d # G 1 f - X @ 1 d f d d w w @ ",
"X = , : e 0 1 = $ X u = 0 g , u 7 y y t h x y t j h y y y y 6 6 g @ f u X . X 1 + : : j h h * 6 , 8 G X X e * 6 y t y y y e > , q o : O f X X @ , e f d l $ @ $ ",
"X r j r h g u r 0 $ O = q u y q q e y y 6 y y t t y h y t y 7 G h @ j $ X X O 5 5 m y h j f : h y k $ @ O q = u y h G t 9 6 , e @ O 0 = u X X = = e e w $ $ X X ",
". X r 1 j j g r - e 1 e - e X g o * u y 8 y y 9 8 h y y 7 t r 6 j @ e X X O C J ,.J ,.,.;.$.y y > h * * $ e q 8 6 h 8 6 6 : q O X X < 0 = $ X e , f 8 3 @ X X X ",
"X X $ e d r u r e g , g 1 u $ u = # u t t 9 y y y j 6 > 6 y 6 7 h @ O O C S K J <.J G J G :.,.&.6 u 7 = q , e q 6 f 6 6 > , 0 O O O 0 , e g X e d 8 e : % . . X ",
"X X @ r j g q 7 e e g h j u q e u # u u u 6 9 6 y ; * * * j 6 e f + X C H J G U | } 6.] | 1.I J &.M y 6 8 e , q y y 8 6 6 f @ O O $ 7 y h h O 1 f 7 e w @ X . . ",
"X X X $ = j u e e e j j j j u e u = u y J 8 9 t 6 * * $ * y 6 6 y +   G G P P o.O.O.w.} 6.` _ I ;.K m f y e * , e q f 7 , f @ O @ , e u h @ @ g g : X r 1 @ . . ",
"X $ O 1 e j * e e y j j j j j u e # e 9 6 8 y 7 ; * @ G * u u > ; 4 K G ' _ ....X.X.X.X.y.^ _ _ | J Z j h u * , , @ f > > h @ @ @ e e f g $ O X r r & e X 1 X . ",
"X e 1 $ g q 0 + y > f j j G e e : # y e 6 y > : * $ # $ 0 q * = N K G L _ ..W W T T ! T Q @.^ E _ P K m f y * e 1 @ * = * $ @ O @ e 6 g y * O X 1 g f X . 0 X X ",
": g r u g X = @ q 7 7 u h 8 u y 0 # u 6 9 e ; 7 # 0 0 e 0 $ # = D G J ` ~ R Y #.! i.p.t.r.t.+.R ~ ` J *.h j * u X O @ # $ @ O X $ y 6 j 7 = @ X $ j u X O p p a ",
"d e = 1 g X = X o u e u j 8 h + - $ * 6 u > 7 u 1 = q u = 1 @ $ J J [ ~ ~ Y Q p.p.d.g.j.s.p.+./ ^ ] L ;.V j = 0 X X X = q O X X + u f j > e G % u u u X q l z k ",
"g 1 X 0 r X 0 X = u u u u 8 u @ O 7 * ; u 7 u x u u r - . & X @ G ;.6.~ R R t.j.g.j.j.l.l.h.+./ ~ 6.L :.%.x * @ O G @ r 0 X X X o q j j > g O 1 $ e < @ u z h x ",
"r X @ 1 X X 1 @ u u u * e u $ @ O 0 $ 0 j u 0 e u < X X O q X @ G G ] o.Y R i.g.l.z.f.j.j.h.+./ ^ ] P *.*.* @ # $ 0 e 1 . X X $ O $ u u 7 d @ f $ 0 e a j u j h ",
"1 X 0 X X X - 0 = X O @ q r $ O O = $ j e u J e j 7 # X 0 q # @ G G ` q.Y R y.d.l.k.d.g.l.h.+.R 0.` ' ;.;.@ @ q q q r X . X X e O 1 @ : f f q j r a u z g h h 9 ",
"X X r O O $ q u 0 O X @ 0 0 e @ X 1 0 u = 0 u j u j 1 X u $ 1 @ G G ` 7.) +.@.g.l.l.j.j.l.h.+.Y q.` [ ;.;.@ 0 q = u 1 @ & $ $ q O 0 : $ u j g u 1 u j g j y g 6 ",
"X X O $ < e r u 0 O X 1 u 0 0 0 X u X g = 7 y j e j X @ u r 0 O G G ' 2.L { +.s.l.l.l.j.l.a.Q Y O.` F :.;.1 $ X u r $ - e r e u - q e e j 1 r e 1 g j j h 7 e ; ",
". X $ 1 u u q u O 1 . X 0 q - u O q . e 0 e u j j u O 0 u X e O D G G G I F { Q s.s.a.a.u.Q R ( ' ' J 5.A . . O r e r r u 1 e G $ e e r e u X d 1 g j j f , q # ",
". @ q u r u g 1 @ X X X 1 e 1 u < # O u 1 u x y u 7 + 0 u X u @ # S L G G G I ( { { +.+.{ { 8.I L L 4.3.Z $ O L # g d d d w f G = q q u e u O u 0 g j g g q @ X ",
"@ q q 1 r g e < $ X X @ 1 e @ q 0 1 = r y u u y y t = 0 u O 0 0 q @ *.L G G G L G I  .9.9.U I G G >.3.*.5 g q q q < e g f f f G G L - - e = , u u j g r g q X X ",
"r w 1 0 w y 1 : O X O @ * u q O u O . 1 0 x u y r 7 u X u $ q u q 1 B G G G G L I G L L U L G G <.<.-.N g j d e 1 q e f h d e q r . : = u - u 8 f f f e e 0 X . ",
"g r r q 1 r $ @ O X $ : 7 u q $ 0 0 O = q u 6 y 6 y q X u 0 0 q d - q &.J J J 1.2.I I I I I J <.-.B f e e g g d r d f f e e f @ = X 0 1 q J u u e f 9 f = 1 @ X ",
"k j d q : 1 O X O @ # y j j e 0 0 L 1 O u j 7 y 6 e 1 X X 0 $ u 1 @ e e S ,.;.,.J J J J <.>.>.;.Z 9 h f h h k j j f t f 6 g q , X X 0 u # 7 u 6 9 t 8 f , q # X ",
"k h g 1 q @ X X O * ; y y e u > 1 = 1 X u j * u 7 , q , = + u = - q e f $ b $.e.D ,.,.*.%.=.-.N m 8 f h k v x k h f t y 6 g : 0 X # u u * y t 6 f y 9 f f @ @ X ",
"f f e 1 q X X + = e e 6 u > u y - @ y X e u $ * 0 $ e u r q u : @ r g 1 & X X u X 0 e i n V s ; f 8 f j k x x h f f t t g f $ e + e x e 7 u t 9 t f h q j : X # ",
"9 9 8 , q O @ : e 6 6 y 6 6 > e @ q $ + u u @ $ < O : u L y O 0 1 e e q X X X e @ q , f $ 0 , q h 9 t j j x h f t 6 8 u f f , < * u u y u 6 y y y h h e g f # # ",
"8 6 6 e e o $ y e 7 6 y 6 > * 7 1 X X 0 0 1 # 1 X O q e G 1 @ q q g 0 1 O = @ r 1 X e g $ = 7 u f 8 t f h h f e 8 6 6 6 g e q 0 e u y y y 9 8 y e j j r g r $ X ",
"6 6 > y @ o e e 6 6 6 y > * * q q @ O $ 0 X 0 & X X q G q G , = g e 0 = - u - y e , r q r O q u f 8 t f j f 8 7 6 8 6 6 h 7 u 1 h u 6 9 h u y y 8 f g r u g @ @ ",
"9 6 > u @ , e = 6 7 7 q * * = e 7 * + X r X q X X X u u G X u q j u 1 @ r r q g g g 0 q g O $ G 6 8 9 t f e 8 y e h 6 8 j : q y e e y 6 h u e y 8 h e r u g @ X ",
"6 6 6 y @ u q = > 6 y * @ # * u > 6 # @ $ @ X X X X 1 r X $ 1 j y 1 O 1 g j g g 1 u = u y = @ e > 6 9 8 8 f e y y g e e t : q u q u u 6 7 y + $ y g e r g g . . ",
"6 7 ; u $ y @ * ; 7 j @ O * 7 7 8 y : $ @ 0 O X X X u X O y @ j g @ $ g g r r r e @ 1 u r g # e 6 6 8 6 7 y u L q = * e j = y , 0 e y > e u O @ $ h j 1 e e X . ",
"; ; = , , y @ $ : * $ O O u u u h u e 0 - r @ X X O u X @ j q u r < r g q G q u w O O u e h G 7 > 6 6 > e u , 0 0 @ @ * * = j q q e y , u 0 # O = f e e g r X . ",
"# # $ $ u u @ $ e ; @ X O j 0 e g j j g q 1 $ X . 1 1 O q j r 1 < r d r q 1 e g @ O $ 1 g j q e , 6 6 , j , 1 0 0 X @ @ * 0 g q r e 1 r , = 0 X e O @ e z X . . ",
"O O @ 0 u q < = 0 y X X O u r r j j k z g q - @ X y X X 0 r 1 q q g j d 1 & q X X X O X e u , e 8 8 e e < e O 1 1 O O O e 0 r X u 0 = @ 0 O e O q O X X X . . X ",
". . - # q 0 1 0 0 e X . X & r e r j v z x h q - & r O X d q w q g g j e , : q . X X . . h O r g f g e + 0 u : $ @ $ $ @ 0 , 1 @ = u X = < X r O # : # = # $ X X ",
". . 1 1 u 1 - 0 - 0 O . X O & u 0 g g v z h g q q e O O q < q G u g y q 1 e X . . X X O g X r # f $ @ O = @ g 1 e q e 7 , e @ q , u X 0 1 X u = 0 f q q $ # # X ",
"X X 1 - r X 0 1 0 1 - X X O O @ q 0 r k k k k h g 1 $ @ w r g h y y 8 7 e 0 X X X X X 1 g X O O @ @ O X 1 < g g j j x u L f @ y 1 r X 1 < X g e : : > e - # # @ ",
"X @ r O O @ q O r O 0 X X X X X $ r q g k v x h g 1 $ 1 e g j j j J 8 > e : X X X O O w X X X X X X X X 1 g j j j h y t e * @ @ 1 r X 1 1 X X 0 y , , > e $ $ $ ",
"X 0 - @ & - - $ O X 1 X X . O @ 1 q q y h x x j f q : q h g j k h y 6 > u O O O @ $ , = $ X X O . . . X e g r e y h u y = $ @ $ e o : : , O O O 0 e : : e e # $ ",
"X q @ & 1 q 0 - @ X X . % O 0 0 O $ y e f j k k h d 8 j g g k j y t 8 9 u # - @ = e g e q G X 1 . . . X e j : q y u y ; * @ O q @ = f u j @ O O O j * = 1 f e $ ",
"X X $ 1 r g r 1 $ O X O = - 1 . O @ : f 9 f h k k h f 9 8 f h h x t y y 7 < O # e y h 7 0 @ = : X X X O f , : 6 y 7 e $ O O O X @ e y > y $ O X X e : : 1 d j j ",
"@ $ - e r g e < @ = O 0 $ < O O $ $ = h 7 t f h f f f 9 9 f j k y y 7 u * @ O * u 6 e 8 0 e u q & O @ < g e : , 8 8 e < X . @ X o e y 6 e $ O O O f < < q g j x ",
"1 1 q j h f e : $ g : $ e q $ @ 0 : < * 7 y y y f 9 t 9 9 t h f y t 9 y * + O * y 9 e e u u = e w 1 < 1 q 0 , e 6 e y q O X q O @ f x 6 9 $ $ : 1 g r q e f h h ",
"d d g f f e , 7 < j # e u > , : X X O $ r y u r 9 t 9 f 9 f t h y y 6 y * + O e 6 u e 7 e u e 0 e g d 1 @ + 7 e 8 8 j e 1 X e O * j 8 u > : q : - y r f f y t 9 ",
"k k h h f 6 , j g # q d u u 7 * O X X < u y , 9 8 f f e 9 8 h k y 6 6 u * O O y ; u y e : $ u 0 g h j q $ $ , e h e j u < X e $ q u h y : e , g 1 j h g y 8 6 6 ",
"h h g g h , e f : q f h 8 7 ; q $ $ O 0 9 x 7 7 6 9 9 8 y f f h u 7 > * * = : r ; y 9 0 O 0 u 0 d f f w e q : w j : u e 0 X q e y e e h q g q r g g g f e 6 : > ",
"f j f e e q 1 j : 1 * e f y 9 > 7 y 7 O y x 7 6 6 y * q e f 9 j y > * * , e r u ; u e 0 O O u e e f h d q j , : 7 q u 0 e @ r u f , e j , u 0 @ q f e e 6 : # # ",
"j 9 f e f + g 1 e @ $ > y y j 6 0 u 0 O u u 9 6 8 e $ q q 8 f h u ; = $ e y 6 * e r u X . O e q 6 9 f h h j 1 - 0 : u X e u 0 u e O u 0 0 X 0 $ w e 8 6 : $ @ O ",
"f 6 f f @ = r X 1 X $ > 9 9 y t y u : : u u r 6 9 q @ y > e f y u e 1 O * 6 6 6 y O u X X O $ t > f t h j g w : 0 e y X u u = q e $ q - 0 0 q 0 * > 6 > * @ X X ",
"7 6 f e @ e 1 X X @ $ : 6 j 6 9 h x u u # u y y e * @ O u e j > u 0 0 O * 6 6 y u O X X . O $ x > h f k k h j r u x 0 X j q u u 1 0 g 1 g h 0 @ * > , > * @ X X "
};
