/* XPM */
static char *result[] = {
/* columns rows colors chars-per-pixel */
"80 80 127 2 ",
"   c #07112C",
".  c #0A122E",
"X  c #071630",
"o  c #0D1330",
"O  c #091A32",
"+  c #141333",
"@  c #191436",
"#  c #1E1539",
"$  c #22163C",
"%  c #28173F",
"&  c #25193E",
"*  c #29183F",
"=  c #0F293E",
"-  c #102C3F",
";  c #101F44",
":  c #1C1E44",
">  c #251E45",
",  c #2C1942",
"<  c #2B1E49",
"1  c #331A45",
"2  c #351C49",
"3  c #3A1E4B",
"4  c #0E2445",
"5  c #0F2D4C",
"6  c #112346",
"7  c #1B2146",
"8  c #102D40",
"9  c #122748",
"0  c #1C2449",
"q  c #122B4B",
"w  c #1D2C4D",
"e  c #0F334D",
"r  c #12324E",
"t  c #1A334F",
"y  c #143650",
"u  c #1B3451",
"i  c #133B52",
"p  c #193D54",
"a  c #212046",
"s  c #24264B",
"d  c #2D234B",
"f  c #232D4D",
"g  c #2A2C4E",
"h  c #35224D",
"j  c #3D214D",
"k  c #252F52",
"l  c #332652",
"z  c #392751",
"x  c #332B54",
"c  c #3B2A52",
"v  c #223351",
"b  c #2A3857",
"n  c #323455",
"m  c #383654",
"M  c #363158",
"N  c #3C3358",
"B  c #323A59",
"V  c #393D5F",
"C  c #401F4E",
"Z  c #41224D",
"A  c #48274E",
"S  c #502E4F",
"D  c #4E304D",
"F  c #51314F",
"G  c #442352",
"H  c #4A2555",
"J  c #422956",
"K  c #4B2951",
"L  c #4D2758",
"P  c #452E5A",
"I  c #4F295A",
"U  c #522E52",
"Y  c #51275A",
"T  c #532A5C",
"R  c #592E5F",
"E  c #4A3B53",
"W  c #4C325E",
"Q  c #553252",
"!  c #5C3555",
"~  c #543D55",
"^  c #5D345B",
"/  c #573A59",
"(  c #5B3B5A",
")  c #633B56",
"_  c #61375A",
"`  c #663B59",
"'  c #6A3E59",
"]  c #562C60",
"[  c #582C60",
"{  c #463D62",
"}  c #5D3160",
"|  c #0F4053",
" . c #134356",
".. c #194256",
"X. c #114857",
"o. c #194956",
"O. c #144658",
"+. c #1A4659",
"@. c #154B5B",
"#. c #1B4C5C",
"$. c #16515E",
"%. c #1C515F",
"&. c #29435A",
"*. c #234B5D",
"=. c #2B495E",
"-. c #3C4456",
";. c #21525F",
":. c #2C525E",
">. c #1D5561",
",. c #1E5963",
"<. c #364461",
"1. c #205662",
"2. c #215D65",
"3. c #2A5A64",
"4. c #235F68",
"5. c #355662",
"6. c #226066",
"7. c #226068",
"8. c #5E4456",
"9. c #54455D",
"0. c #524D5E",
"q. c #45515E",
"w. c #634257",
"e. c #694057",
"r. c #644259",
"t. c #6B4159",
"y. c #514E61",
/* pixels */
"6 6 y 2.>.9 6 #.>.+.%.1.+.q 1.2.>.6 6 r 6 6 1.q #.>.1.7.7.7.7.>.+.y q t ..1.4.4.,.7.,.4.,.4.#.+.,.4.@.,.>.4.y 5 6 +.>.| X.,.%.9 >.i | O.i @.9 9 e O.#.#.1.2.1.r ",
"q q >.,.#.6 6 q 4.#...p +.7.1.>.9 2.1.+.6 6 p +.u 2.7.2.7.7.7.2...y 9 y ..1.4.>.4.$.7.,.O.p 5 y @.4.7.X.X.,.,.y 9 +.i i >.,.5 9 y #.i | O.#.9 5 i @. .+.u ..p q ",
"......1.y 6 4 #.4.q +.9 7.7...,.6 2.4.#.q 6 6 9 #.,.2.7.,.7.7.7.+.y y y #.>.>.,.,.,.,.e y p q r @.@.7.>.X. .>.,.>.+.y X.4.,.5 9 >.O.O.p ,...9 5 @.i O.#.p 1.q 6 ",
"#.....2...9 r ..4.#.#.q 7.7.%.%.6 1.4.%.#.q 6 6 r #.#.7.7.7.4.7.4.p y i >.>.,.4.O.4.>.p q y q r O.i >.,.,.X.| 7.,.,.y >.4.+.q 5 #...>.%.%.q 6 p e  .@.u ..*.q ; ",
"+.1.#.,.y 9 +.i 7.#.7...7.7.2.%.6 +.7.%...;.1.9 q i %.>.,.7.7.,.4.4.O.O.,.7.,.O.#.4...p 6 9 i i 5 q +.,.7.7.X.%.>.4.y 4.4...5 ..i q 1.>.q 9 y +.r i %.i o.i 6 6 ",
">.4.;.#.o.9 %.#.7.7.2.q 7.2.%.2.7.#.+.+...#.7.2.>.O.@.>.>.7.7.,.,.,.>.4.7.,.,.,.#.4.i q q u +.+.9 5 +.>.,.7.|  .>.,.,.4.>.6 +.p p 5 q p 9 9 *.r i @.#.@.r ..r ; ",
"#.4.#.t >.q #.7.%.7. .r 7.o.#.,.2.+.q #...r 2.7.2.4.y i >.7.7.,.4.,.,.,.X.,.4.,.>.4.+.p q >.>.p 6 6 q #.>.,. .| i e >.,.9 9 #.q 5 ..u ; 9 5 r +...1. .#.r %.>.4 ",
"y 4.6 6 >.p q 7. .7.+.r 4.%.,.2.7.r q *.r y %.7.>.2.>.y $.,.,.,.4.,.,.,.,.,.O.,.%.4...*.p %.%.u 9 6 9 5 i r  ...e 5 #...i y y y 5 +...9 q u +.+.O.@.#.q q o.y ; ",
"6 4.6 6 ,.9 q 7. .7.i e 2.2.>.4.7.i e 9 4 ,.1.7.%.%.>.2.y >.X.>.$.+.4.#.,.i | ,.7.>.r p +.%.#.#.q 6 6 r >.q %.,.q q q 2.>.>.+.O.i e 5 q u +.2.>.%.4.%.9 9 %...6 ",
"6 2.6 6 %.9 5 2.%.7.i y ,.2.%.4.6.#.e 9 9 ,.#.7.+.i p ,.,.i X.,.@.5 9 y >.i | >.7.O.q +.%.>.;.p ..y q #.#.y 9 %.6 ; ..+.q #.i >.@.y r y p ,.,.,.;.r 9 9 9 #.+.q ",
"6 4.6 6 #.6 q #.#.%.e q 9 5 %.%.2.%.i y 6 1.r 6.1.+.+.5 ,.O.>.y 5 i 9 %.p i i >.2.i q 1.>.>.%.#.p #.+.%.#...; 1.6 q p %.y e @.O.O.%.O.,.>.>.>.%...r 9 9 q #.u p ",
"2.1.6 6 #.6 9 5 5 ..q 9 9 5 >.#.7.,.%.%.6 o.6 1.#.+.#.O.,.>.>.q q >.y +...i ..%.#...q i >.$.%.$.%.%...%.>.u 6 ,.q ..p +.%.e i >.$.@.>.,.,.>.$.O.y q q q u +.>.%.",
"2.6 6 6 %.1.;...6 6 9 9 6 q >.i 7.7.,.#.9 2.#.6 y %.2.,.,.,.i q y +.%.6 +.%.i >.#.p q y %.O.$.>.1.1.;.p +.+.6 1.+.%.6 #.i r i | >.@.>.,.,.>.@. .i r r y %.,.1.2.",
">.9 q r %.6.2.1.6 6 4 9 q i ,.i 2.7.%.q ..2.2.q 1.%.2.2.,.+.+...%.9 %.6 #.q +.5 +.y y y #.O.@.>.4.1.#.>.9 +.; 1.#.#.6 2...5 y i >.>.>.,.>.>.X. .i y #.#.+.,.,.7.",
"r 6 ..,.7.2.%.#.9 6 9 ..%.%.%.r i ,.2.9 o.6.4.i 2. .7.2.>...p ..p ..p 9 q i %.p +.+.p i %.>...%.2.4.#.>.9 6 ; >.+.+.r 2.9 q i e @.>.>.,.,.$.X.@.%.+...+.%.,.,.,.",
"6 y ..,.6. .%.r r 9 ..#.>.q q 5 +.9 ,.r %.2.4.#.4.X.6.7.@.....p u p 6 q q >.,.>.2.2.%.p O.>.>.+.1.1.2.4.9 ; 6 %...#.#.%.4 ..#.5 e ,.>.@.,.X.,.,.@.#.4.1.,.,.,.@.",
"q 1.+.,.,.#.i y ..t r ,.2.o.9 t %.6 %.%.%.2.6.#.6.%.6.6.%.o.9 #.#.i 9 r e 2.,.%.%.,.2.%.;.6.2.#.1.4.2.>.8 9 6 t +.#.;.%.t  .y 8 q i @.| ,.X.6.%.%.>.7.6.,.,.X.| ",
">.1...>.O.>.y >.9 #.2.,.%.6 9 1.9 r 6.2.%.2.2.X.6.6.6.#.@.8 9 +.#.+.u y i i  .6.7.,.,.,.o.6.6.+.>.4.4.>.i e #.y %.1.%.%.6.r +.6 9 q ..i 6.7.6.%.$.6.7.2.,.,. .i ",
"1.1.,.p %.e 5 6.8 6.6.6.#.q r 6.2.;.6.;.6. .;.%.6.6.6.%.>.9 6 q t ..+.+.o...i 2.7.%.%.%.,.2.6.#.6.6.4.#.%.i 6.6.2.;.,.#.7.+.4.1.6 9 y e 6.2.,.o.%.6.6.6.%.o.r r ",
"1.>.2.+.#.,.7.6...6.6.6.p ;.r 6.6.2.6.6 ;.6.6.6.%.6.6.6.y 9 6 q p #.%.%.,.,.5 6.6.%.2.7.>.7.6.2.2.$.7. .%.;.6.6.6.2.6.2.6.1.6.6.6 9 i 2.6.6.6.#.2.6.6.6.;.e 9 9 ",
"7.7.7.7.,.,.7.7.#.6.6.6.%.%.2.7.6.#.6.;.8 2.6.6.6.6.;.6.r  .X.X. .r q 4 6 9 r ,.6.X.6.6.1.7.6.6.6.q 1.1.2.1.6.6.%.2.6.i 2. .2.6.6 6 o.;.6.6.6.6 6 6.7.6.2.6 6 6 ",
"7.7.,.,.,.>.7.7.6.6.%.6.6. .6.7.2.6 2.7.7.2.%.6.6.6.6.6.r %. .%.i ,.;.r 9 9 r i 6.6.6.6.6.6.6.6.7.q 8 6.%.7.6.6.i q %.1.2.r #.6.9 9 1.9 6.6.;.6 8 ;.;.2.2.6 6 6 ",
"2.2.%.,.%.7.%.7.6.6.6 6.2.| 7.,.6.6 6 1.6.%.i ;.%.6.6.6.,.1.1.%.,.4.7...r q e  .6.6.%.6.7.6.,.7.7.%.%.;.i 6.6.;.i 8 4 7.4.8 9 ;.6 ;.#.o.;.6.6 6 9 2.6 6.;.6 #.6 ",
",.,.%.7.7.6.%.2.2.;.6 ,.;.i ,.y ;.2.6 8 e 6.i i t %.7.6.6.1.1.q 7.2.7.*.u 9 w ..o.6.:.2.6.;.#.4.6.6.6.t ..6.6. .y 5 3.2.4.9 6 9 7 2.9 #.9 6.6 6 9 2.1.6.6.%.1.9 ",
">.,.>.7.4.2.+.u 2.6 ; 6 2.r r q 2.7.6 6 q 2.i i ....2.6.2.*.7 2.,.4.7.;.b x e.e.( r.t.q.3.-.-.3.3.:.2.m B b b v r 2.7.2.+.6 7 > _ 1.0 7 9 +.6 9 ,.2.4.6.7.2.2.6 ",
"#.>.,.,.4...r 9 4.2.6 6 1.q q ,.7.7.6 6 9 9 r ..;.7.2.6.2.d s 1. .2.y.w.' ' t.t.' ' ' ' r.8.8.t.w.w.8./ W P z d 2.2.7.#.q ) > < ' ! > 7 6 9 9 q 7.7.3.6.1.7.7.6 ",
"y #.7.7.7.y 9 6 4.2.9 q 9 9 6 4.1.7 7 7 6 6 q &.5.4.4.=.m z h ~ w.0.w.t.t.t.' ' ' ' ' ' t.` _ t.' e.t.t.t.` L A 4.2.7.v s ` Q 1 t.' > 7 9 9 r 2.7.6.1.%.9 2.2.9 ",
"p q 7.,.6.r 6 4 ,.4.q 2.2.q #.1.a > , a : 6 f -.0.y.y.{ W t.t.' ' ' _ ` ' _ ` ` ` ' T R ` t.' _ ' ' t.t.t.` ' ' 9.` 9.t.! ' ' ` ' ' , : 9 r 6.6.6.2.r 9 9 2.2.6 ",
"4 9 2.>.4.q 9 1.6 4.i ,.7.5 #.> d 3.1 1 > 7 k E w.t.t.' t.' ' ' ' ` L _ ' ] T T T T T T ] ` ` _ ' ' t.t.t.t.' t.' ' ' t.' ' ` ' ' ' Q : 9 2.6.6.6.;.8 q 6 1.#.6 ",
"4 9 >.2.4.q 1.1.6 2.,.7.,.q 9 w 1.1.d 2 h d c e.' t.t.' t.' ` L G Y L ' ` ` L L H H L H H L T ] [ ' ' ' ' ` ' ` ' ' ' t.' ' ' ' ' G ! < a 2.%.6.;.9 6 6 6 6 9 6 ",
"6 #.4.4.4.4 2.6 6 4.4.>.i 5 q q 7.v d 2 ! ` t.' ' ' T T [ [ T T L ` ' ` ` ' L 3 3 C 3 3 3 C H ` [ } } _ ^ } ^ } ' ' e.t.t.e.' ' ' t.G j d 1...7.r 6 4 ; 6 6 6 6 ",
"6 2.4.4.,.9 7.6 6 2.,.i i ,.#.u 4.b ) ! ! ' t.` ' T [ ] T T Y _ ` ` ` 1 1 Y H , , , , _ Q 1 G ` ' _ ` _ T T ] [ ' ' e.) ) ) e.t.' t.U H j g ;.2.q 9 9 9 e ;.6.6 ",
"6 4.4.2.6 #.1.6 6 4.5 y 2.2.#.v / ` ` _ ' ' T T [ [ R T Y C C ^ ` 3 3 1 1 1 % $ @ @ @ _ S S ) ! ' _ ` ! ` H L ] T Q ' ) D S _ ` ` ' ' U H z *.w 9 9 ;.6.2.6.2.6 ",
"1.4.4.2.+.#.6 6 2.>.9 >.4.2.0 h ( ' ' ' ' _ T _ ` _ ' ` C C C 1 3 1 1 1 1 1 $ + o o o o . D ) Q ) Q 1 1 ` ) ! T ' ! j ! C A Y R ` ' ' ` ' H j h a 6.6.6.6.6.;.6 ",
"2.1.4.2.4.6 6 q 4.q q 4.1.7 a d ' ' ' ' ' ' _ _ ` _ ` A C 3 3 3 3 $ $ $ $ $ 1 , , 1 % 1 % . @ $ % S % $ $ ) ! H ` ! ` C C G G H S ! ) ) ' ' G 3 d 6.6.7.2.6.9 6 ",
"6 6 2.2.1.6 9 8 ,.i q 2.7 > ! ` ' ' ' _ ' _ _ T [ Y C 3 3 3 3 C , 2 1 , 3 2 2 , % 2 % 1 %   o + 3 1 + + + # 1 C G H ` _ _ H Z Z 3 A K ) ' ' _ G h :.2. .7.,.9 6 ",
"6 1.4.2.9 9 r 2.7.i r 6 > ' ` ' ' S ' 3 ' Y Y Y Y 3 3 2 3 3 1 1 , 2 , , 3 2 o o o + o . .     . 3 2 3 2 1 @ % 1 G H Y _ _ ' ! 3 3 3 A ! ' ' ) ` Z j *.u ;.r 7.7 ",
"6 4.>.6 w y 2.6.7.r w G ) ' ) ' ` % ! ! _ H H H H 3 3 1 1 # + o   o @ $ $ # $ $ $ $ # @ o       . @ C 1 1 2 3 3 3 3 G 3 G ` _ ^ ' G H S S ` ` ` ' G c g f s 6.> ",
"; 4.2.q r 6.4.4.r 0 I G ' ` ' ' F 3 H _ H 3 3 3 2 3 2 o o + o . o @ % % , , , , * 1 % $ +   .   + $ * * 1 3 3 3 3 3 3 3 3 G G _ ' _ H A Z C ` C ' ' H j h d 7.1 ",
"6 4.4.y 2.6.6.+.w : 3 ` ' ) ' ' 3 G H H C 3 1 , 2 2 o . o + @ @ @ # % % % % % % % % % # o   % % * $ $ * * * % 1 3 1 % , 3 3 3 G G _ ` A C 1 Q ` ' ' H ` j 1 2.> ",
"4.2.;.2.7.6.;...s L j ' e.' ' 3 H L G C 3 1 1 1 3 o   . @ $ * * % # @ @ + @ + @ @ @ + + .   % % * * * @ @ @ @ * 2 , 2 , 1 1 & > 1 j ` ! L G 3 ) ! ' ' ' ` h 2.7 ",
"4.#...4.2.6. .v Y Y j e.' ' ' A Y Y G 1 1 1 3 3 2 . . + $ % * * % @ o . .   . . . . .   .   .   * * * * $ o . % 1 2 3 # % $ @ @ # , 3 ! L G 3 3 1 ' ' ' ' l 7.4 ",
"2...i 4.2.>.t L Y j Z e.e.e.` H R Y Z 1 , $ 3 2 . o + # # $ $ $ # + o                           + @ $ * % @ o   1 1 1 2 1 # # 2 @ # & j G H G G 3 1 t.z ` z 2.4 ",
"2.q >.4.7.i 8 T Y 3 ' ' ' ' 3 H ` Y G 1 $ 2 , . . + % % # + + o o o                           . + $ * * * $ @       . 2 , 1 1 3 # + # , 3 H Y H C 3 t.3 I x *.4 ",
"p q %.6.2.e 9 G T 3 ' ' ' ` ) ` ' G C 1 $ 3 .   . @ % 1 # o       .     .     .                 + $ % * % $ $ + + + o .   , 1 3 & # > 2 3 G H H ! ` ' 3 I M u y ",
"9 8 $.6.i e 6 6 T 3 ' ` _ A ' ' C C 3 1 1 3     . @ * 1 #                               .       . + @ @ @ # $ $ % % $ + . . + 3 3 3 j G L G G G _ ' ' C W V 6.#.",
"6 9 r ,.i q 6 9 R 3 ' Q T H ' ' 3 1 1 , 3 3     . @ % % #                 .                   . . . . . . + $ * * 1 % # o .   3 3 j T T T H C Z H ' ` 3 W <.6.,.",
"; 6 r i r q 9 q T 3 ' U H H ` ` 1 1 $ $ 3 1     . * # # + o                                               o # $ $ $ $ $ # o   3 , j Y ] ] Y G G N ' 3 3 M &.6.%.",
"; q y r 9 9 9 u 7.j Z K : T 1.F 1 % # + 3 3     , * + o o .       .                                         o + + + @ $ % # + 1 # 2 G Y R T T P ' w.j 3 w 2.6.$.",
"q +.u q 6 6 9 r 4.h j K j G G J 1 , @ 1 3 1     1 * . . .                     .                             .       o @ % $ @ * # & 2 G T T T ' ' j h 3 r 7.6.X.",
"4.+.r 9 6 ; 9 q 2.n 6.W z K A A j 2 , 3 3 >     * *                   . .                         .                   + @ $ $ $ # @ & 1 G Y T Z j 3 ,.n ,.6.6.| ",
"4.#.p q 6 6 2.9 9 q 6.2.2.e.( K j 3 2 . 2 ,     * *       .                     .                                     . o @ % * # + @ * 3 j 3 3 3 2.4.2.7.6.6.X.",
"4.;...y r 1.4.6 4 9 r ,.2.4.7.I J 3 2   + .     % $             .           .                                           . @ % 1 , # # + 2.3 3 3 2.4.1.2.2.6.7.X.",
"6.6.;.;.2.,.1.; 6 6 8 q 2.4.7.u c G Y o . =.2               . .       .             .                   .                 + * 1 , . + @ 4.3 r.2.2.4.6 q r 2.7.X.",
"2.2.6.6.7.2.+.2.+.4.1.9 r 7.6.2.9 7 Y 2.;.6.@ d   . .         X X .                             .                         + % * + o o =.4.z 2.>.4.2.; 6 q r %.| ",
"6.6.6.6.,.2.#.2.#.4.1.9 4 ,.7.7.,.1.*.3.6.6.. ..    .         o .                                                         . + o @ 3 @ 4.4.2.2.1.,.,.6 ; 9 q r r ",
"6.6.;.6.| r 6 6 9 1.1.6 6 q 4.7.2.1.#.7 2.2.,.o.      .                                                                       X @ . @ 7.2.i #.2.6 2.,.6 6 9 6 q ",
"6.6.X.| y ;.#.r y >.2.2.2.2.7.4.7.6 9 9 #.#.6.6.2.X   X o                                                                     @ @ . 6.7.6.r #.4 q >.4.>.6 6 6 6 ",
"2.6.e t ;.6.6.%.4.2.;.2.6.6.2.7.7.6.4 9 #.%.7.6.7.%.8 X - O -     >. .6...                            %.          2...  ;.. . @ h 2.6.6.6.i 8 9 y ,.y 4.6 6 6 6 ",
"6.6.r e 6.6.;.%.4.4.%.9 o.6.6.7.7.2.; 9 2.2.2.6.7.2.8 ;.;.6.2.    7.6.6...                  %.  %.  %.6.          ;...  2.< h 8 r 6.6.6.6.e 5 q y 4.2.,.1.; 6 6 ",
"6.6.r 8 2.6.;.6.2.2...8 6 7.6.2.6.6.2.8 2.2.2.7.7.6.%.2.6 2.6.2.6.7.6.6.X =   X . O O     %.6.  6.%.6.6.      O   7.  r #.6 6 q 2.6.6.6.>.y q 8 i 6.6.,.1.4.>.6 ",
";.6.y y 2.2.6.6.7.>.r 9 9 2.6.6.2.6.6...y 2.,.6 7.2.;.6.r 6.2.6.6.6.6.6.6.6.6.6.2.#.9 O O 6.6.O 6.6.%.o.O = - 7.>.#.%.r r i ,.2.4.4.6.%.>.+.q 9 y 6.7.,.1.4.4.; ",
"q q q r 6.6.2.2.7.y 9 6 9 2.6.6.7.6.6.%.#.u r 9 ;.6.6.6.#.1.%.6.;.6.6.6.6.6.6.6.9 9 r ;.%.6.6.;.6.6.6. .6.2.6.6...9 9 q y o.>.7.6.7.7.#.p y ..9 %.#.7.6.4.; #.; ",
"q 9 q 2.7.7.6.4.2.>.6 6 6 %.2.6.7.7.6.7.1.+.u 9 8 6.6.6...%...o.6.,.6.6.6.;.o.4 9 1.9 8 %.6.6.6.X.6.6.#.7.6.+.2...9 9 q #...1.2.6.6.r q ..4 #.9 ..9 6 4 ; 6 ; 6 ",
"6 >.4.2.2.2.4.4.4.4.; ; 6 t #.4.4.4.4.4.2.1.+.t q 7.6.4.#...#.2.7.7.7.7.,.y +.; 4.2.6 ; 2.2.2.>.>.2.2.q 7.2.y 6.r t 5 q ..i >.,.7.2.6 r u 6 %.6 5 y y y 5 5 ; ; ",
"2.7.4.p 6.4.1.2.2.4.6 6 ; q y 7.+.1.6.4.7.,.>.#.+.#.1.4.+.u 2.7.,.7.6.7. .#.6 >.2.6 6 q >.2.%.q >.r #.9 6.9 %.;.#.#.O.....%.q 2.6.%.6 ....9 %.r +.,.@.+.q 5 5 ; ",
"4.4.2.y ;.1.......4.2.6 6 6 q q +.+.*.7.7.7.4.,.>...q 2.+.2.7.7.,.,.,.X.#...,.2.+.6 6 ..>.>.9 q q ,.9 6 2.y ,.1.,.,.,.,.>.>.5 4.1.#.6 ..y 6 1.2.4.,.i ,.u 5 r r ",
"2.#.#.9 q 9 o.9 %.; 4.6 6 6 ; 6 r %.+.7.7.7.7.,.1...y p #.7.2.2.,.>.,.i %.1.2.6 9 9 9 +.6 6 6 1.2.4.6 6 p %.7.2.,.,.,.@.@.y q #.p %.9 p ..6 9 2.7.7.,.4.#.y q 5 ",
"#.+.y q r u r q 9 6 4.6 6 6 q q ..+.+.%.2.7.7.,.,.+.i +.,.7.2.2.,.@.X.i >.4.9 2.q r i y q 4 6 2.7.1.; 4 #.7.7.#.7.>.4.>.i q q r +.9 i i i q 9 9 ,.4.,.4.#.#.5 e ",
"; #.9 u ..+.2.u 9 6 *.6 9 1...+.9 r %.,.7.7.7.6.,.,.4.2.%.7.2.7.,.@.X.@.>.q ,.,.y #.,.#.+.9 6 4.2.; ; 6 #.6.7.7.7.2.7.y 5 q 9 +.q e >.>.1.q 9 9 9 4.,.4.4.;.#.e ",
"; 6 q p 2.7.7.p q #.6 q y 4.p 6 9 q i ,.7.>.7.6.4.4.7.@.@.4.2.,.,.>.@.>.i i 4.q #.#.,...+.q y 2.,.6 9 9 2.7.7.7.7.7.2.r q 6 6 9 5 +.%.i >.q 8 6 9 #.4.y ,.4.,.,.",
"q q 2.2.7.7.1...#.>.9 p q 4.6 6 q q i ,.>.,.,.7.>.$.7.@.@.4.,.2.>.>.X.>.r q 4.5 >. .$.O...@.>.+.y q q u 7.2.i 7.2.2.7.y 6 6 q 6 q #.>. .@.e 9 9 9 >.,.p 7.4.,.,.",
"4.2.2.4.4.4.@.4.#.>.y y #.7.q q ..y i r  .7.$.7.,.>.,.7.$.>.>.>.>.X.$.>.e 4 4.>.%.@.%.#.>.1.y #.#.p u +.4.+.,.4.4.@.4.+.q 6 +.9 5 >.,.X.#.y e y p 1.2.+.,.7.,.,.",
"7.4.4.7.7.7.4.,.i 1.q #.>.7.O.y 6 9 9 q #.,.7.$.,.,.$.7.@.>.$.,.>.>.X.>.e 5 ,.,.i ,.#.O.+.1.#.p +.1.>.p #.#.4.%.>.@.4.%.p 6 #.9 y ,.X.>.i y ..i y >.#.%.>.,.>.>.",
"4.2.4.7.4.,.4.2.>.q O.>.>.7.,.y 9 6 6 y >.>.6.@.X.,.>.7.$.@.,.,.>.| | >.e 5 9 >.i ,.%.@.y r >...>.1.>.+.y #.4.@.,.@.4.>.u 6 #.r +.,.,.>.i @.p >.p 2.2.1.>.,.| O.",
"2.2.7.2.7.i 4.>.i +.>.2.@.,.4.#.q r q ..+.2.>.,.X.,.,.,.$.,.$.,.>.| i y e y y @.i $.+...q ..>.+.>.>.>.#.#.+.y #.,.i 4.#...6 #.#.%.#.@.>.#.>...%.%.>.>.>.@.X.i i ",
">.7.,.>.,.,.4.>.i ..5 @.>.7.7.,. .%.i 9 %.,.o.4. .%.4.4.@.>.$.,.%.y e y i $.%.%.i %.#...6 9 %.#.#.%.,.>.@.>.p y ..@.7...%.q ;.%.>.y #.2.p >...q +.>.$.@.O.y r 5 ",
",.4.%.%.>.,.1.p #.9 e i >.7.,.7.%.2...9 %.,.o.4.@.#.2.>.@.O.,.>.,.i 5 e %.%.i i @.#.%.9 6 8 #.#.O.@.>.,.,.,.p y +.y 1.6 #.%.p #.#.q ;.....4 ..r +.%.X.X.y e q q ",
",.>.>.>.q y %.; p q q i #.4.,.,.7.%. .y %.,.,.,.@.+.#.>.i %.>.$.>.+.i 5 r |  . .%.9 ,.6 6 4 r $.i >.>.,.,.,.#.p ..%.%.6 2.1.r #.#.q #.y ....O...y i X.| i 5 9 ; ",
"| X.>.@.q %.p ; 6 q y i | 7.,.X.%.6.%.;.q 2.2.%.@.r 5 9 >.@.,.i 4...p 8 i  . .@.,.9 ; 6 6 9 5 6.| ,.>.,.4.,.>.#.%.2...6 1.o.#.1...+.>.p >.2.+.q e i i i e 9 ; ; "
};
