/* XPM */
static char *result[] = {
/* columns rows colors chars-per-pixel */
"80 80 216 2 ",
"   c #010101",
".  c #040A07",
"X  c #03030C",
"o  c #06110E",
"O  c #040613",
"+  c #090D10",
"@  c #060A19",
"#  c #0A1618",
"$  c #321F1C",
"%  c #0D211D",
"&  c #34211D",
"*  c #3C231A",
"=  c #080D26",
"-  c #06112C",
";  c #0A122E",
":  c #0E1A2A",
">  c #1C1A2A",
",  c #0D1533",
"<  c #0D1935",
"1  c #0A1638",
"2  c #0E1B3A",
"3  c #141433",
"4  c #191536",
"5  c #121935",
"6  c #1C1639",
"7  c #171A38",
"8  c #111B3C",
"9  c #271E27",
"0  c #211C35",
"q  c #22163B",
"w  c #29183F",
"e  c #122B27",
"r  c #182428",
"t  c #0E253D",
"y  c #11233D",
"u  c #18233A",
"i  c #193A36",
"p  c #2A222E",
"a  c #382725",
"s  c #262737",
"d  c #362B3A",
"f  c #293532",
"g  c #2A3738",
"h  c #313D3A",
"j  c #432413",
"k  c #462916",
"l  c #4A2B18",
"z  c #4E3319",
"x  c #56341C",
"c  c #613A1C",
"v  c #412B27",
"b  c #4C3525",
"n  c #4E373B",
"m  c #593C36",
"M  c #623E23",
"N  c #653D37",
"B  c #1C413E",
"V  c #54482D",
"C  c #6C4526",
"Z  c #66582A",
"A  c #6C4337",
"S  c #7A543B",
"D  c #6F6D3D",
"F  c #766E37",
"G  c #7B7639",
"H  c #0A1847",
"J  c #0C1A45",
"K  c #141F45",
"L  c #1C1D44",
"P  c #171F4A",
"I  c #241E46",
"U  c #2C1A42",
"Y  c #2B1E49",
"T  c #331A45",
"R  c #351D49",
"E  c #3A1E4B",
"W  c #0E2844",
"Q  c #112346",
"!  c #1A2245",
"~  c #132B44",
"^  c #1F2944",
"/  c #132549",
"(  c #1A234D",
")  c #122B4B",
"_  c #1C2C4D",
"`  c #133146",
"'  c #13324E",
"]  c #18304E",
"[  c #16394D",
"{  c #152356",
"}  c #1A2653",
"|  c #1C2956",
" . c #1E2A59",
".. c #143650",
"X. c #1B3354",
"o. c #133B52",
"O. c #193D54",
"+. c #1C3459",
"@. c #1D395B",
"#. c #212345",
"$. c #222B44",
"%. c #2C2C44",
"&. c #24234A",
"*. c #2D234C",
"=. c #252A48",
"-. c #33224D",
";. c #3C214D",
":. c #3A2C49",
">. c #243142",
",. c #2B3646",
"<. c #323446",
"1. c #3E3844",
"2. c #272957",
"3. c #222D55",
"4. c #3B2351",
"5. c #382A53",
"6. c #263453",
"7. c #363458",
"8. c #2A3663",
"9. c #303C6B",
"0. c #401F4E",
"q. c #40214E",
"w. c #412B4F",
"e. c #4A3A47",
"r. c #442453",
"t. c #4A2555",
"y. c #4A2951",
"u. c #472959",
"i. c #4E295B",
"p. c #512659",
"a. c #532A5D",
"s. c #4C345C",
"d. c #583757",
"f. c #5C3556",
"g. c #633A56",
"h. c #61375A",
"j. c #663C59",
"k. c #6A3F59",
"l. c #572C61",
"z. c #1E4240",
"x. c #134356",
"c. c #194256",
"v. c #164857",
"b. c #154658",
"n. c #1A4659",
"m. c #154B5A",
"M. c #1B4C5C",
"N. c #16515E",
"B. c #1C525E",
"V. c #274548",
"C. c #364146",
"Z. c #28485B",
"A. c #3D4858",
"S. c #285B57",
"D. c #3F545C",
"F. c #1D5561",
"G. c #1E5963",
"H. c #274664",
"J. c #204F61",
"K. c #354D69",
"L. c #205461",
"P. c #215D65",
"I. c #285D66",
"U. c #235F68",
"Y. c #226066",
"T. c #226068",
"R. c #336D67",
"E. c #356679",
"W. c #367370",
"Q. c #4B4343",
"!. c #454E4A",
"~. c #5C4A43",
"^. c #525744",
"/. c #484A51",
"(. c #565257",
"). c #615348",
"_. c #735B42",
"`. c #7A5E46",
"'. c #61435A",
"]. c #6A4059",
"[. c #586151",
"{. c #6A6E49",
"}. c #7E6243",
"|. c #6E7347",
" X c #4D526B",
".X c #576177",
"XX c #854A32",
"oX c #886742",
"OX c #8D7542",
"+X c #937247",
"@X c #997241",
"#X c #A67A41",
"$X c #3E827E",
"%X c #DDA33F",
"&X c #EAB63F",
"*X c #F8CB3F",
"=X c #888A44",
"-X c #BE8B41",
";X c #B09345",
":X c #B2AF48",
">X c #C69440",
",X c #DABD40",
"<X c #D9D242",
"1X c #F2DA41",
"2X c #485485",
"3X c #525D8B",
"4X c #5B6591",
"5X c #6B768E",
"6X c #6570A1",
"7X c #4A9997",
"8X c #7781B7",
"9X c #56B2B1",
"0X c #8691AC",
"qX c #8F99BE",
"wX c #8A94C4",
"eX c #8E98C6",
/* pixels */
"Q Q ..P.F.Q Q M.F.n.M.P.c.) P.F.B.Q Q ) Q Q F.) n.L.P.P.T.T.T.G.c.X.) ) n.L.U.P.G.T.G.T.G.T.N.n.G.T.m.G.G.Y.o.) Q b.F.x.x.G.m.) G.o.x.x.o.m.Q ) ' x.m.M.L.P.S.' ",
") ) F.G.M.Q Q ) T.M.c.c.n.T.P.F.Q P.P.n.Q Q c.n...T.U.P.T.T.T.G.c...) ..n.L.P.G.U.m.T.G.b.O.) ' m.T.Y.m.x.G.F...Q M.o.o.N.T.) ) ..M.o.x.v.m.) ) o.m.v.n.O.c...) ",
"n.c.c.P.o.Q Q M.T.' n.Q P.T.c.F.Q P.U.M.) Q K Q n.U.U.U.T.T.U.T.n.o.) ..M.L.G.U.G.P.P.' ..c.) ' [ ` t < < t [ M.F.b...b.G.U.) Q B.n.x.[ c.` Q ) b.x.x.M.O.B.) J ",
"n.O.n.F.c.Q ' n.U.n.n.' T.T.B.B.Q P.U.B.M.' Q Q ' M.m.T.T.T.G.T.U.O.o.o.F.N.G.U.b.U.F.o./ ' ) Q t < , < < < < c.F.G...F.T.b.) ) N.n.N.c.t < 8 O.' o.m.O.c.M.' Q ",
"n.P.M.G...Q n.o.T.M.G.c.P.T.P.F.Q n.T.B.n.M.P.Q ) o.B.F.Y.T.T.T.T.G.x.m.U.G.G.x.M.T.n.c.Q Q ` y < , , , , , < ` n.P...T.U.c.) ..' Q c.` < < y c.' o.B.O.v.O.Q Q ",
"F.P.B.F.M.Q B.M.T.T.P.' T.T.B.P.T.M.n.n.c.M.U.P.F.b.m.F.F.T.G.G.G.G.G.T.G.U.U.G.M.T.[ ) Q ) ~ y < , , , , , < ~ M.P.P.T.G./ [ ) 8 8 < 5 < 5 ` ` o.m.N.b.' v.] Q ",
"M.U.M.] F.) M.P.F.T.x.' T.n.n.G.T.n.) M.c.] P.T.P.U.o.o.F.Y.G.G.G.T.G.G.b.G.G.U.F.P.n.v.) ` 2 , , , , , , , 5 W [ ..F.B.Q Q [ 2 , , , , , 5 y c.x.G.x.n.) M.M.Q ",
"] T.Q Q B.c.' P.x.P.n.' T.B.P.P.G.' ) B.] ..B.U.B.P.F.' N.G.T.G.T.G.G.G.G.G.x.G.N.P.c.Z.O.` < , , , , , , , < ` ' ) [ t W ~ y < , , , , , < ~ c.b.M.M.) ) v.] K ",
"Q U.Q Q G.Q ' T.x.T.o.' G.T.F.T.T.o.' W Q G.G.T.B.J.F.G.' G.x.G.N.n.G.J.G.x.x.G.T.F.) O.n.` 8 , , , , , , , 5 [ W W 2 2 < 8 < , , , , , , < ] B.F.G.F.Q Q n._ K ",
"Q G.Q Q G.Q ) G.N.T...o.G.G.N.U.T.M.' ) Q G.M.T.n...n.G.G.o.b.G.M.) / o.B.o.x.B.T.v.) c.[ ~ 5 , , , , , , , < ~ J 2 8 , < , , , , , , 5 y ` c.B.F.] ) K Q X.Q K ",
"Q T.Q Q M.Q ) M.M.F.' ) Q ) F.N.T.M.o...Q G.' P.F.n.n.' G.b.F...) o./ F.o.' o.B.P...~ [ y 8 < , , , , , , , < 8 < < < , , , , , , , ; y ` c.B.B.c.' Q / / ~ / K ",
"G.G.Q Q M.Q Q ) ) n.) Q / ) L.N.P.P.N.B.Q M.Q F.M.n.N.o.F.F.N.) / F...b.n.O.v.M.M.O.y 8 , , , , , , , , , , , , , , < , , , , , , , , ~ c.N.M.v...) / / / K K K ",
"U.Q Q / B.L.B.c.Q Q Q Q Q ) G.o.T.P.G.n.) P.M.Q ..J.G.F.M.H...) ..b.B.Q n.B.o.B.c.~ y < , , , , , ; 3 , , , , , , , , , , , , , , , , ~ n.F.v.] ) Q / / L K K K ",
"F.Q ) ..B.U.P.P.Q Q Q ) ' ..G.o.T.P.G.) n.P.P.) F.F.G.J.@.+.+.O.B.) N.Q M.) n.) [ < , , , , , < , , , , , < , , , , , , , , , , , , , ~ n.b...) / K / ! / K K K ",
"] Q c.F.P.T.G.B.W Q ) c.M.B.N.' [ G.P./ v.P.T.o.G.o.T.J.+.| ..@.+.c.c.Q ) ' n.` y < , , , 3 , < 8 8 5 < < 1 , ; , , , , , , , , , 2 y [ v.o.) ( K K K K K K K K ",
"Q ..b.G.U.x.M.' ) ) c.n.G.' ) ) M.) B.' B.U.P.N.T.b.U.F.+.| | | X.+.Q W ' v.[ y 5 < , , , ; , 5 K ( / K 2 1 1 , ; , , , , , 3 , < ` [ [ [ ) / K K K K K K K K / ",
"' F.c.G.U.M.o...c.' ' F.P.n./ ' M.Q F.B.B.P.U.M.P.P.Y.S. .| | | X.X./ ' ' v.) < < , < 1 < < < 8 ( } ( Q K 5 3 > 7 > 5 , , , , < < Q c.[ ) / Q K K K K K K Q K K ",
"B.F.c.F.b.B...G.W M.P.P.B.Q / G./ ' G.G.B.G.P.x.Y.Y.P.c.+.| | | | @. .....' ) K 8 , 5 8 K K 8 J P ( ( K L > p & a d r , 1 , , 8 8 K ) ) / K K K K K K K K K K / ",
"F.L.G.O.F.' ) G.) Y.Y.G.M./ ' U.T.G.Y.S.P.x.G.G.P.T.P.M.+.| | | { | +.@.n.O.] ( K 3 5 ( ( P K K K P P K s $ l x C b s , ; , 5 8 K K / P / L K K K / K K K K K P ",
"L.G.P.n.N.G.Y.T.c.T.Y.Y.c.S...G.T.P.Y.Q B.G.T.T.B.U.P.L.| | | | | | | +.Z.n.| | P K K } | } P K K K K K s v x c C b p < ; , 5 J K K K K K K K K K K K K K K Q Q ",
"T.T.T.T.G.G.T.T.M.Y.P.Y.G.B.P.Y.Y.n.P.G.) G.T.T.P.P.P.B.| | | | | | | | } } | | } ( ( | | ( K K K K J / d b c c x a 9 , 1 , 3 K K K K K K K K K L K K K K K P Q ",
"U.P.P.G.F.F.Y.T.Y.Y.S.T.Y.[ Y.T.Y.Q G.Y.Y.S.B.T.T.P.Y.Z.| | | | | | | | | | | | | | | | | ( P K K K K K d m C c l $ > , 1 , 5 J K K K K L K K K K K K / / / Q Q ",
"P.P.F.P.N.T.F.T.T.Y.Q Y.G.x.T.G.Y.Q Q G.Y.G.[ G.L.P.P.J.@.| | | | | | | | |  . . . .| | ( ( / K K K J 8 s m C c l $ > , , , 3 K K K K K K K K / K K K _ X.K n.Q ",
"F.G.N.T.T.T.B.G.P.B.Q G.G.[ G.' B.P.Q Q ' Y.o.[ ) P.T.B.@.| | | | | | | | | | | | | } Q K K K K Q K 1 5 s m C c l $ > , ; 1 , K K / K K K K K K K K / O.S.n.G.Q ",
"G.F.F.T.P.U.n...P.Q Q Q P.' ' ) P.T.Q Q ) G.o.o.c.c.P.J.@.| | | | | | | | } K , 5 8 5 ; ; 1 K K Q K 5 > a x c x j & > , < < 8 K L K K K / K K K K L ( O.G.G.T.Q ",
"M.F.G.T.T.c.] ) U.L.Q Q P.) ) G.T.T.Q Q Q ) ' n.L.P.P.F.@.| | | | | | | | K = X X X O X X = 8 / P K 9 9 * k z z j & > 5 1 K K K K K K K K K K K K Q / O.F.T.T.Q ",
"' M.T.T.T...Q Q T.U.Q ) ) Q / T.P.! ! ! / Q ` Z.K.P.I.Z.2. .| | | | | | | ^ : # .   . o : : 8 K K 7 p b z k j j j & 9 5 8 K K K K K K K K K K K K / ) O./ U.T./ ",
"O.) T.G.T.' Q Q G.G...G.U.) n.L.U I Y I L Q $.A.(. X'.9.2.| | | | | | | | H.E.R.B . % S.W.V.: - 1 $.V Z Z z * j j & 7 8 J K K K K K K K K K K K _ ] ) / Q U.G.Q ",
"Q Q G.G.U...Q L.Q U.o.T.T.) M.#.Y P.T U I ! =.s.'.].].s.7. .| | | | | }  .E.9X9XR.# i 7X9XW.# O - =.^.|.G M k j j a 0 K K K K K K K K / K K K Q _ n.Q Q Q G.M.Q ",
"Q Q G.U.G.) G.G.Q U.G.G.G.) Q ( P.L.-.T -.-.5.k.].g.].d.7.|  .| | | | }  .I.7X7XS.# e $X7XS.+   - #.!.|.D Z V z a p 6 K K K K K K K K K K K K K ] Q Q Q Q Q Q Q ",
"Q B.U.G.U./ P.Q Q U.U.F.x.) ) ' U.6.*.R d.j.].k.].k.a.u.2. .| | | | | | | +.6.z.%   o i z.e . X ; ! =.C.^.D F V d u L K K K K K K K Q L K K K K / Q Q Q Q Q Q Q ",
"Q G.U.T.G.Q T.Q Q P.G.o...G.m.X.P.6.g.f.f.k.k.k.k.a.a.u.2.2.| | | | |  .| 8 @ X               O ; K ! %.Q.|.|.^.$.K K K K K K K K K K K K K / / Q Q Q Q ) G.G.Q ",
"Q U.U.T.Q M.G.Q Q T.) ' P.P.M.6.d.k.j.h.j.k.l.l.l.l.l.u.2.2.| | | | |  .| 8 X               @ ; 1 L :.N A ^.^.C.^ J K K K K K / K K K K K P _ ( / / S.G.P.Y.P.Q ",
"L.T.P.P.n.n.Q Q G.G.Q G.P.P.( -.f.j.j.k.k.h.a.h.j.j.j.s.2.} | | | |  . .} 8 O             @ < 2 J =.N XXXXn =.^ Q P K K K K K K K K K K Q L &.&.L P.T.T.Y.Y.S.Q ",
"P.L.P.P.T.Q Q ) T.) / T.L.( &.*.k.].k.k.j.j.f.h.j.j.h.r.2.} | | | | |  .| 8 O     X X O @ - J I d n N XXN d K J K K K K K K K K L K K K K #.-.R Y T.T.T.P.T./ Q ",
"Q Q P.P.P.Q Q ) Y.o.) P.! I f.g.].k.k.j.j.j.f.l.l.a.E R 2.| | | | | |  .| 5 O   O = , , , 1 J :.N XXN n :.L K K K K K K K K K K / K K K K ! 5.t.R S.G.c.P.G.) Q ",
"Q P.P.P./ ~ ) Y.T.o.) / q ].].].k.y.].;.k.p.p.p.a.E E *.2.} } | | | |  .| 8 @ X = 5 K / Q ( %.m XXXXN %.K K K K K K K L K K K K K K K K Q &.5.f.r.E Z.6.B.[ U.! ",
"Q P.L.Q ) [ U.T.Y.' _ r.f.k.g.].j.U d.f.j.t.t.t.r.R R Y 2.| | | | | |  .| L ; = , K J H ! Q._.S XXN d ! J J K K K K K K K K K K K K K K / ! w.d.j.t.5.2.=.=.T.I ",
"Q U.P.) ] Y.T.T.] / i.r.k.k.k.k.d.E t.h.t.E E E R E R J } | | | | | | |  .( / 8 8 K K K %._.#X@X~.#.L K K K K K K / K K K K K K K K K / K L w.;.k.j.u.;.*.Y T.U ",
"Q T.G.X.P.Y.Y.n._ L ;.g.k.g.k.k.E t.t.t.0.E T U E R , 3 P } | | | | | | | { P K J J =.1.~.oX@X`.e.K J K K K K K K K K K K / K K K K K K L I w.f.].k.t.j.E R T.Y ",
"T.P.B.P.Y.Y.S.O.=.i.E k.k.k.k.E r.t.r.0.E E w E E 3 - 8 P | | | | | | | | ( P H H K 1.}.@X}.~.1.$.K K K / K K K K K K K K / K K K K K &.*.-.R h.f.].k.j.g.-.T.L ",
"T.M.n.T.P.Y.x.3.p.p.E ].k.k.k.t.p.p.0.R R U E E T - ; 6 (  .| | | | | | | 3.,.<.,.%.~.@X#X_.,.K J K K K K K K K K K K K K K L K K K K *.4.t.E R R j.k.k.].5.P.Q ",
"P.c...T.T.B.' i.p.E q.k.].k.g.t.a.p.q.T w w E T ; 3 4 L ( {  .| | | | {  .A.{.=XOX}.`.}.S Q.! J K K K K K K K K K K K K K K K K K K P I 4.t.t.r.E T k.r.j.5.P.W ",
"P.) F.T.T.o.) a.a.E k.k.k.k.E t.k.p.r.T q E U = = 3 q I ( 2. .| | | | {  .[.:X<X,X-X@X~.%.! K K K K K L K K K K K K K K K K K K K K K L R r.t.t.E E k.E u.5.M.Q ",
"n.W B.Y.G.' W r.a.E k.k.k.g.g.j.j.t.0.T q E - - = 6 U Y P | | | | | | {  .[.:X1X*X%X#XQ.K H K K K K K K K K K K L K K K K K / K K K K L R r.t.t.f.k.k.E i.7.+.' ",
"Q W N.Y.x.' Q K a.E k.k.h.t.k.k.0.0.E T R E - = ; 4 U Y } | | | | |  .{ 3.(.;X&X&X%X#XQ.K H K K K K K K K K K K Q K K K K K K K K K K &.4.r.r.r.h.k.k.E s.7.U.M.",
"Q Q ' G...' W Q a.E g.f.a.t.k.k.E T T U E E - - ; 4 U I ( 2.| | | | | { 3./.+X>X>X-XoXQ.Q J K K K Q K K K K K K K K K K K K K K P K ( *.r.t.0.q.t.k.j.E u.K.Y.Y.",
"Q Q ....' ) / ) i.E k.d.t.t.g.g.T T q q E R - - ; w 6 L P | | | | | | { 3.7.).`.}.}.~.<.K K K K K P K K K K / P K K K K K K K K P P -.4.i.i.t.r.7.k.E E 7.Z.Y.B.",
"Q ) o.' ) Q ) ..T.E q.y.L a.P.d.U w q 3 E E - - w w 3 4 P | | | | | | |  .3.6.7.<.%.=.! K K K K K K K K K K K K K K K K K K L K K I E p.l.p.p.u.].'.E ;._ G.Y.m.",
"' c.../ Q Q Q ..U.;.;.y.;.r.r.q.T w 4 R E T - - U U ; , K P } } { | | | | | { { { J K J P K K K K K K K K K K K K K K K K K / K K I R r.i.l.l.k.k.-.;.R ' Y.Y.m.",
"T.n.] / Q Q / ) G.7.T.s.;.y.w.y.q.R T R E w - - U U - ; 1 8 K P } | | | | | | { P J K K Q K K K K K K K K K K K K K K K K K K K K 8 q T r.p.l.q.q.-.P.7.G.Y.Y.x.",
"T.M...) Q Q G.Q ) ) T.G.P.].f.y.q.R R ; E w - - w U - - - , ( 8.8. .| | | | | | } ( K 8 8 K K K K / K K K / L K K / K K K K K K L 8 7 w E E E E E P.P.G.Y.Y.Y.x.",
"T.S.v.[ ) P.U.P Q W ' P.T.T.T.i.u.E R - 3 ; - - q q - - - 8 K.4X3X9.{ ( | | | | | ( J = = 3 K K K K / K K K K K K K K K K K L L L 6 6 3 I.E ;.R P.U.P.G.T.T.Y.m.",
"P.U.B.B.P.P.P.Q Q Q Q ) P.P.P.O.5.r.p., ; Z.R - - = - - ; 8 2XqX8X2X .{ | | | | | | 8 @ X # 5 P K K K P K K K K K K K K K K L U U ; 3 6 U.E '.P.P.U.Q Q ' P.T.x.",
"P.P.T.Y.P.G.M.L.M.P.F.Q ) P.T.P./ K p.I.G.T.4 T - ; ; - - ! 3XeXwX6X2X9.3.| | |  ._ u # . = 8 K K K K K K K K K K K K K K K L U 4 ; , Z.U.;.T.F.U.P.Q Q ) ' N.x.",
"T.T.P.Y.P.P.M.L.M.T.P.Q ) G.T.T.G.G.Z.P.P.T.: c.- - ; - - u .X0XqXwX8X3X8.} | | _ s f p r u K K K K K K K K K K K K K K 1 , 8 ; 4 E 4 T.T.P.G.G.P.L.K Q W ) ' ' ",
"P.Y.G.G.o.) Q Q / G.L.Q / ) T.U.Y.G.M.Q P.P.P.c.- - - - - u A.5X0XeXqX4X9.( _ 3.^ g f f f u ^ / K K K K K K Q Q K K Q K < - ; ; 4 ; 4 U.P.' M.G./ G.G./ Q Q ) Q ",
"Y.T.x.x...G.M.) ..B.G.G.G.T.T.T.Y.Q Q Q M.M.Y.Y.T.- - - ; , =.A..X5X7X X:.%.^ s f f f f g g >.^ ! K K K K K K J 8 1 < 1 , ; - 4 5 ; P.T.T.o.M.W ) L.P.F.Q Q W Q ",
"Y.Y.o.' G.G.P.S.U.T.B.G.G.Y.P.T.Y.Y.Q Q M.B.T.P.Y.N.W < t t ` y >. XD.C.g f g g f f f f f h h h ! / K K K K J 2 ; L.c.- B., , 3 R G.T.T.Y...) Q ' G...G.Q Q Q Q ",
"Y.Y.' ) T.T.P.B.U.U.S./ M.T.T.T.Y.Y.Q ~ U.P.P.T.Y.Y.) m.S.P.S.- : V.f f f f f f f f f f f h h ,.s $.^ $.^ 8 2 ; ; P.n.- P.Y R Q [ Y.T.Y.P.[ ) ) o.T.G.G.G.W Q Q ",
"Y.Y.' ) Y.G.G.P.P.T.c.Q Q Y.Y.Y.Y.Y.P.Q G.Y.G.T.Y.Y.N.T.Q T.Y.Y.S.V.f f f f f f f f f f f f g g ,.g ,.,.g 2 1 < - Y.- ' M.Q Q ) Y.Y.Y.Y.B...) ) o.T.Y.G.G.L.P.Q ",
"B.Y.' [ S.P.T.T.Y.N.' ) Q Y.Y.Y.Y.Y.Y.c.[ P.P.Q Y.Y.P.Y.) T.P.Y.P.Y.T.Y.Y.G.Y.T.P.M./ < : T.T.: Y.Y.S.M.: t ~ Y.G.M.M.' ..' G.P.P.Y.Y.B.B.n.) Q ..Y.T.G.G.P.P.P ",
"' ) ) ' Y.Y.U.T.Y.[ ) Q ) G.Y.Y.T.T.P.B.n.O.] Q G.T.Y.Y.n.P.B.P.S.G.Y.Y.Y.P.P.Y.) / ' F.G.Y.Y.P.G.T.Y.x.Y.P.T.T.c.Q ) ) ' n.F.T.T.Y.P.F.c.[ n.Q M.M.T.T.P.Q M.Q ",
"Q Q ) P.Y.P.U.T.P.B.Q Q Q B.P.Y.T.T.T.T.L.n.' ) Q T.T.S.n.M.n.n.T.G.Y.Y.Y.P.v.Q Q G.Q Q F.G.T.T.b.T.G.M.T.T.n.P.c.W / ) M.c.P.P.T.P...Q v.Q B.Q n.W Q Q Q Q J J ",
"Q G.T.P.P.P.T.T.U.P.Q Q Q ) n.T.T.P.Y.T.P.L.n.X.' P.P.U.B.c.n.P.T.Y.Y.Y.G.o.n.Q U.G.Q K G.P.P.G.F.G.Y.) Y.G...P...' ) ) c.o.F.P.P.P.Q ....Q M./ ) o.....) ) Q W ",
"G.T.U.O.T.P.P.P.P.U./ Q Q ) ] T.n.P.Y.T.T.G.F.n.n.M.P.T.n.[ P.T.G.T.Y.Y.O.m.Q L.U.Q Q ) G.P.M.) F...M.) Y.) F.B.n.M.b.n.b.B.) G.T.F.Q c.c.Q F.' c.F.b.n.) ' ) Q ",
"U.T.P.' M.P.c.O.n.P.P.Q Q Q ) ) n.n.Z.Y.T.U.U.G.B.c.) G.n.P.T.T.G.T.G.x.m.n.L.G.M.Q Q c.G.G.Q Q Q G.Q Q P...P.F.G.G.G.G.G.G./ U.L.Z.Q c...Q F.P.G.U.o.U.o.) ) ) ",
"P.M.B./ ~ ) n.Q M.Q U.Q Q Q Q Q ] N.M.Y.T.T.T.G.P.c.] O.M.T.P.P.G.N.G.x.N.P.P.Q Q Q / n.Q Q Q G.T.U.Q Q O.B.T.P.G.G.G.m.M.' ) m.o.B.Q v.c.Q / P.T.T.G.T.M...) ' ",
"n.n.X.) X.' ] ) / / U.Q Q Q / ) c.n.b.F.G.T.T.U.G.n.o.M.G.T.P.P.G.N.x.o.F.G.) G.) ' o...) Q Q U.T.G.K Q n.U.T.M.G.G.T.G.o.' ) ' n.) ..o.o.) Q / G.T.U.T.m.m.) ' ",
"Q n.) ..c.n.P.O.) / n.Q / G.c.b.Q ' F.G.T.G.T.T.G.U.G.L.F.U.U.P.F.N.b.m.F.' G.F.o.m.G.M.b.Q Q U.P.J Q Q B.T.T.T.T.T.U...) ) Q M.) ..F.N.G.) W Q Q U.G.G.U.F.N.' ",
"Q Q ) O.U.T.P.O.) M.J ) X.G.c.Q Q ) o.G.T.G.G.T.G.T.T.m.m.U.P.P.G.N.F.N.@.o.G...M.m.G.c.b.) ..P.P.Q Q / T.T.T.T.T.T.G.' ) W Q Q ) n.M.x.N.' ) Q Q M.U...G.U.G.G.",
") ) P.G.U.U.P.O.M.B.) c.' T.Q Q ) ' o.G.G.G.G.T.G.F.T.m.m.U.F.P.F.F.x.G.' ) G.' F.x.F.x.n.M.F.n.] ) ) ..T.P...T.T.G.T.O.Q J ) Q ) M.G.x.m.' Q ) / F.U.o.U.T.G.T.",
"P.P.P.T.U.U.M.U.B.F...X.m.T.' ) O.......o.P.N.T.G.F.T.G.N.N.G.G.F.N.m.N.' W G.F.B.b.N.M.B.G.X.M.n.O.o.n.U.c.P.U.G.M.T.n.) K n./ ) F.Y.b.m.' ' ..+.F.P.n.G.T.G.G.",
"T.U.T.T.U.T.G.G.o.F.' M.F.T.O...Q Q ) ` N.P.T.N.G.G.m.T.m.N.N.G.F.N.x.G.o.W G.F.o.P.N.b.n.G.n.O.M.F.F.O.B.M.U.M.G.m.T.m.c.Q M.Q ..G.m.N.o.o.c.o...F.M.F.F.G.F.N.",
"U.P.U.T.P.P.P.P.F.) b.F.G.G.G...) Q Q o.P.B.T.m.b.T.F.T.m.m.G.G.N.x.x.F.' W ) F.o.G.B.m.[ ' F.n.F.P.L.n...M.G.M.G.M.T.G...Q n.] n.P.F.N.o.m.o.F.c.P.P.L.N.G.x.x.",
"P.P.T.P.T.x.T.L...n.F.F.m.T.T.m.' ) Q c.n.P.F.P.x.G.G.G.N.G.N.T.N.x.o.o.' o.o.N.[ N.b.c.) c.B.n.B.F.F.n.n.M.o.m.G.o.T.M.n.Q M.M.M.N.m.G.M.F.c.F.B.F.F.F.N.x.o.o.",
"F.T.T.N.P.P.P.F.O.v.' m.G.G.G.G.c.N.o.Q B.B.v.T.x.N.P.U.N.F.m.G.M.o.' ' o.m.m.G.o.G.n.n.Q ) B.N.M.M.G.m.m.G.O...x.v.U.O.F.) B.B.F...n.P.c.N.c.) n.F.N.m.x.o.' ' ",
"G.T.B.N.B.P.F.o.M./ ' o.F.T.G.T.F.G.n.) G.G.v.T.m.M.P.F.m.m.G.G.G.o.' ) N.F.o.o.b.B.F.Q Q W M.M.x.m.G.G.P.G.c.' n.o.G.Q M.B.c.M.B.) B.n.n.Q c.' n.N.m.x.o.' ) W ",
"F.G.G.N.) X.M.Q O.Q ' o.m.T.G.G.P.G.o.o.M.G.G.P.b.M.M.F.o.N.F.m.G.n.o.) o.o.x.x.F.Q F.Q Q Q ' B.x.F.F.G.P.L.M.@.c.m.G.Q P.F.X.n.n.` M.[ c.c.n.c...x.x.o.' ) W Q ",
"x.x.F.m.) M.O.Q Q ) ' o.x.T.G.m.F.P.B.F.) P.P.N.M.' ) / G.m.G.o.G.c.c.) o.x.x.m.G.Q Q Q Q Q ) G.x.G.F.G.U.G.F.M.S.G.O.Q G.n.M.F.c.n.F.+.F.P.n.) ' o.x.o.' ) J Q "
};
