/* XPM */
static char *result[] = {
/* columns rows colors chars-per-pixel */
"80 80 211 2 ",
"   c #010101",
".  c #040A07",
"X  c #03030D",
"o  c #06110E",
"O  c #040613",
"+  c #060A1A",
"@  c #091717",
"#  c #321F1C",
"$  c #0D211D",
"%  c #34211D",
"&  c #3C231A",
"*  c #090D24",
"=  c #070C2B",
"-  c #06122C",
";  c #0B112D",
":  c #0E1B2C",
">  c #1C1A2A",
",  c #0D1533",
"<  c #0D1A36",
"1  c #091638",
"2  c #0E1A3A",
"3  c #131635",
"4  c #141936",
"5  c #1A1B34",
"6  c #111738",
"7  c #1D1739",
"8  c #121A3B",
"9  c #1C1C3B",
"0  c #271E27",
"q  c #211E31",
"w  c #22163C",
"e  c #211C3B",
"r  c #29183F",
"t  c #0E2420",
"y  c #10202C",
"u  c #15322E",
"i  c #0B243A",
"p  c #12223B",
"a  c #193A36",
"s  c #2A222E",
"d  c #332325",
"f  c #3C2A26",
"g  c #2A2635",
"h  c #24213A",
"j  c #29213E",
"k  c #322A33",
"l  c #352B3E",
"z  c #3D2C3F",
"x  c #432413",
"c  c #462916",
"v  c #4A2B16",
"b  c #492B1A",
"n  c #4E3319",
"m  c #55341C",
"M  c #58341A",
"N  c #613A1C",
"B  c #412B27",
"V  c #533829",
"C  c #4E373B",
"Z  c #593C36",
"A  c #623E23",
"S  c #653D37",
"D  c #1C413E",
"F  c #5B4622",
"G  c #4E4A38",
"H  c #6C4526",
"J  c #66582A",
"K  c #6C4337",
"L  c #7A543B",
"P  c #6F6D3D",
"I  c #766E37",
"U  c #7B7639",
"Y  c #0D1B45",
"T  c #0C1B49",
"R  c #141F45",
"E  c #1A1E45",
"W  c #171F49",
"Q  c #251D45",
"!  c #2B1B43",
"~  c #271E49",
"^  c #2A1E48",
"/  c #331B45",
"(  c #341D49",
")  c #3A1E4B",
"_  c #0E2344",
"`  c #112346",
"'  c #1A2245",
"]  c #132D44",
"[  c #132549",
"{  c #1A234C",
"}  c #122B4B",
"|  c #1C2C4D",
" . c #0F334D",
".. c #133446",
"X. c #12324E",
"o. c #18374C",
"O. c #15394B",
"+. c #19394B",
"@. c #1A2552",
"#. c #1C2956",
"$. c #1E2A59",
"%. c #143650",
"&. c #1B3552",
"*. c #133B52",
"=. c #193D54",
"-. c #212245",
";. c #2B2442",
":. c #232C45",
">. c #25234A",
",. c #2C224B",
"<. c #282C48",
"1. c #312443",
"2. c #352B43",
"3. c #3C2B46",
"4. c #33224D",
"5. c #3C224E",
"6. c #322A4D",
"7. c #24314A",
"8. c #232553",
"9. c #2D2251",
"0. c #222B55",
"q. c #2C2A54",
"w. c #2D2A59",
"e. c #342654",
"r. c #3C2554",
"t. c #332B54",
"y. c #3A2A52",
"u. c #332E58",
"i. c #223250",
"p. c #2A3756",
"a. c #323353",
"s. c #3C3358",
"d. c #36385B",
"f. c #401F4E",
"g. c #40214E",
"h. c #442C4B",
"j. c #4C314D",
"k. c #52334E",
"l. c #442453",
"z. c #4A2555",
"x. c #472A55",
"c. c #4A2951",
"v. c #432B5B",
"b. c #4E2A5B",
"n. c #50275A",
"m. c #532A5C",
"M. c #483455",
"N. c #4B335C",
"B. c #533452",
"V. c #5C3556",
"C. c #553A57",
"Z. c #5D3A55",
"A. c #5F3658",
"S. c #5C3B59",
"D. c #633A56",
"F. c #62375A",
"G. c #663C59",
"H. c #6A3F59",
"J. c #562C60",
"K. c #463D62",
"L. c #503160",
"P. c #134355",
"I. c #194256",
"U. c #114857",
"Y. c #1A4A56",
"T. c #144658",
"R. c #1A4659",
"E. c #154B5B",
"W. c #1B4C5C",
"Q. c #16515E",
"!. c #1C525E",
"~. c #22444F",
"^. c #364147",
"/. c #29445B",
"(. c #234B5D",
"). c #284A59",
"_. c #354B57",
"`. c #2A5D57",
"'. c #20545F",
"]. c #1D5561",
"[. c #1E5963",
"{. c #2B4B62",
"}. c #354862",
"|. c #205662",
" X c #215D65",
".X c #285D66",
"XX c #235F68",
"oX c #32566B",
"OX c #226066",
"+X c #226068",
"@X c #336D67",
"#X c #356679",
"$X c #367370",
"%X c #474A46",
"&X c #515644",
"*X c #545845",
"=X c #524E5E",
"-X c #635944",
";X c #634257",
":X c #63435A",
">X c #6B4059",
",X c #6F7043",
"<X c #6F7345",
"1X c #494763",
"2X c #514E61",
"3X c #854A32",
"4X c #967443",
"5X c #3E827E",
"6X c #4A9997",
"7X c #53A8B0",
"8X c #57B7B2",
/* pixels */
"` ` %. X].[ ` W.!.W.W.|.R.} [.|.].` ` } [ ` !.X.R.[.|.OX+X+X+X|.R.%.} X.I.|.XX X[.+X[.XX[.XX].E.[.XXE. X].[.*.} } T.].*.T.[.Q.} |.*.P.P.*.E.} }  .P.W.W.'.|.|.X.",
"} } ].[.W.` ` } XXW.I.I.R.+X|.[.`  X|.W.` ` =.R.&. XXX X+X+X+X[.I.%.[ %.I.|.XX[.XXE.+X[.T.=.}  .E. X[.E.U.[.[.%.[ R.*.P.].[.} } %.E.*.P.U.W.[ } %.E.P.W.=.I.=.} ",
"I.I.I.|.%.[ [ W.XX} R.[ OXOXI.[.`  XXXW.} ` ` [ W.[. X+X+X+XXX+XR.%.%.%.R.].].XX[.XX[. .%.I.} X.E.Q.+X].U.P.].[.(.E.%.P.[.[.} } ].R.*.P.].R.[ } I.P.I.W.=.|.} R ",
"W.I.I. XI._ X.I.XXW.W.} OXOX!.!.` |.XX!.W.} ` [ X.W.W.+X+X+X[.XXXX=.%.*.].!.[.XXT.XX].=.[ %.} } P.*.].[.[.P.P.+X[.[.*.].XXT.[ } !.T.].W.W.} _ P. .*.E.=.R.W.} ` ",
"R.|.W.|.*.[ E.%.+XW. XI.+XXX X].` R. X!.I.'.|.` } *.].E.+X+X+XXX+X[.*.E.+X[.[.T.W.XXR.I.` ` &.*.} X.E.|.+X XP.E.].XX%.XXXXI.} R.%.}  X].[ ` %.E. .P.!.*.W.*.` R ",
"].XX!.(.Y.[ !.W.+X+X XX.+XOX!.[.XX!.W.I.I.W.+X X].T.E.].].+X[.[.[.+X[.[.XX[.XX[.W.XX%.} [ %.R.R._ } E.[. XOXU.P.].[.[. X[.[ R.=.=.} } =.} ` !.#.%.E.W.E.X.I.X.` ",
"W.XXW.X.].} W.OX].XXP.}  XR.W.[.+XI.[ E.I.%.XXOX X X*.*.].[.+X[.+X[.[.+XT.[.[.[.].XXI.=.%.].|.=.` [ } W.].[.P.P.*. .]. X` [ W.} } I.*._ [ } X.R.P.|.P.W. .W.!.` ",
"%.XX` ` !.I.} +XP.XXE.X.XX!. X X+XX.} (.%.X.!.XX]. X].%.!.[.+X[.+X[.[.[.[.[.T.[.!.XXI.!.&.!.W.*.[ ` _ } =.X.*.T. .} W.P.*.*.%. .%.I.P.[ @.%.R.R.R.E.W.} [ E.O.` ",
"`  X` ` ].} X.+XP.+X*. .XX X].XXOX*.X.} ` ].[.+X!.!.].[.%.[.U.].Q.R.[.!.[.P.P.[.+X].} =.W.(.W.W.} [ [ } ].} ].[.} } }  X|.].R.P.*. .} } &.E.|.|.].[.].[ ` !.I.` ",
"`  X` ` |._ } [.!.+X .O.[. X]. XOXW. .} [ [.W.OXR.%.R.].[.%.U.].E.} [ *.].*.*.].+XU.} W.!.].(.T.P.%.} W.!.%.` W.` ` I.R.} W.P.].!.*.} *.=.[.XX[.].o.} [ ` ].I.} ",
"` XX` ` W.[ } W.W.].X.} [ } !.].+XQ.*.%._ |.X. X|.I.R.X.XXP.].%.} *.[ !.=. .*.]. X%.}  X].].].W.I.W.R.].W.=.` [.T } I.!.%.%.E.U.T.W.T.[.].].].W.P.} [ [ } W.&.=.",
"|. X` _ W.` [ } } T.} [ ` } ].E.+X[.W.(.` W.` |.W.W.Q.I.].].].} } [.X.R.R.%.R.W.W.I.} %.].Q.Q.!.!.W.=.!.].&.` ].} R.=.I.W. .*.!.E.W.].[.[.!.Q.E.*.} } } &.R.!.].",
"XX` ` ` !.|.W.I._ [ [ _ ` } ].*.+XXX[.E.[  XE.[ X.!. X[.]. X=.} %.R.!.T R.!.*.].W.I.} %.!.U.Q.].|.|.|.&.I.I.` [.R.!.` !.*.X. .P.].Q.].[.[.Q.E.P.*.X.} *.W.]. X[.",
"].` } %.!.XX X X[ ` ` } X.%.[.*.OX X[.} I. XXX} |.]. X X XE.P.I.!.[ !.` W.} R.} W.X.%.%.W.T.T.]. X XW.].} R.R ].!.!.R ].I.X. .*.!.!.].[.[.Q.T.P.=.%.R.W.E.].[.+X",
"} ` R.]. X+X[.W._ [ [ I.W.].]. .*.].[.[ Y.OX X*.OXP.XX X].P.%.I.=.R.=.} } %.W.P.R.R.I.*.!.].=.!. X X!.].[ ` R ].I.I.}  X_ %.*. .E.].Q.[.[.Q.E.E.!.R.I.W.].[.[.[.",
"` %.R.[.+XP.W. .X.[ =.E.].X.} } E.} ].o.!.OXOXW. XP.XXOXW.I.I.=.%.=.[ [ X.].[.[. X].!.=.R.].].E.|.|. X X} ` Y ].I.W.!.!.` R.W.} %.[.Q.Q.[.E. X].E.!. X].[.[.[.E.",
"X.].R.[.[.W.*.%.I.o.X.]. XE.[ X.W.` !.!.!.OXOX!.OX[.OXOXE.I.} !.I.=.[ X.O.[.[.].].[.|.!.|.OX XW.|.XXXX].} [ _ %.R.W.'.!.} I.O.[ X.X.Q.P.[.P.OX!.Q.].OXOX[. XP.P.",
"!.|.I.].T.]. .].[ W. X[.(.` [  X` X. X X!.|.OXP.OXOXOXW.Q.} _ Y.(.E.&.%.*.*.P.OXOX].].[.R. X XW.].XXXX].*.} W.O.!.|.[.'. XX.R.[ _ X.I.O.OXOXOX!.Q. XOXOX[.].*.*.",
"|.|.[.=.].X.X.XX] OXOXOXW.} X. XOX|.OX'.OXP.'.!.[.OX[.].!.[ ` [ %.=.I.R.E.P.O.OXOX!.!.[.|.OXOXW.OX XXXW.!.O. X X X|.|.E.OXI. X|.[ [ *.} OXOX[.W.'.OXOXOX!.E.X. .",
"|.]. XR.W.[.OX XI.OXOXOXI.!.o. XOX XOX` '.OXOXOX].+XOX`.=.` [ } &.!.].].[.].} OXOX[.OXOX'.OXOX XOXQ.OXP.!. XOXOX X XOX XOX[.OXOX` ` *. XOXOXOXE. X XOXOX].X.} [ ",
"+X+X+X[.[.[.+X+XW.OX XOX|.!. XOXOXY.OX'.]  XOXOX X X XOX*.P.U.U.P.*.} _ _ [  .[.OXU.!.Y...p < 8 ] p Y.].|. XOXOX!.|. XO.OXO.[.Y.8 ` Y.!.OXOX X` ` OXOX XOX` ` ` ",
"+X+X[.[.].].OXOXOXOX'.OXOXP. XOXOX`  XOX X X'.OXOX XOXOX .!.*.!.*.[.].X.[ [  .P.OX[.Y...8 , < , < 2 p '.|. XOXOX*.} [.|.OXX.+.] 6 8 !.[ OXOX!.` `  X'. X`.` ` ` ",
"XX[.].[.].+X].OXOXOX_  X XP.OX XOX` ` !.OX[.O.[.'.OXOXOX[.[. X!.|.XXXX=.X._  .*.'.Y.O.p , , , , , 8 ..!.O.OXOX[.*.} ` Y.W._ p p , ..R.Y.'.OX` ` `  X`  X X` W.` ",
"[.[.]. XXX+X].[.|.[.R [.[.O.[. .'. X` `  .OX*.X.X.'. XOXOX|.|.} XX XXX!.&.| | =.+...p 6 , , , , , 2 +.| =.OXOXP.*._ +...p 2 < , 3 +.` W.[ OX` [ ]  X|.OX+XW.|.` ",
"].].].+XXX XR.&. X` R _ OXX.X.}  X+X` [ }  XO.*.I.I. XXXOX(.' |. XXX+X|.p.t.G.Z.2.9 , , , , , , , 8 +.a.d.p.i.i.X.I.p < < , , , 4 +.E ' ` E.` [  X+X XOX+XOX X` ",
"!.].[.[.+XI.X.[ XX X` ` |.} } [.OXOX` [ [ ` o.R.]. XOX X|.,.<.|.*.XX=X:XH.H.>XD.3.4 , , , , , , , 5 2.C.M.6.Q 9 +.] p , , , , , 4 1.Q ' ` ` [ X.+XOX XOX|.OXOX` ",
"X.!.+X+XOX%.[ ` XX[.[ } } [ [ XX X' ' ' ` ` | /.oXOXXX}.s.r.6.C.:X=X:X>XH.>X>XZ.3.5 , , , , , , ; 5 3.Z.B.;.3 3 8 8 < , , , , , 9 3.! E ` } } |.OX X|.W.[  XOX[ ",
"=.} +X[.OXX.` _ [.XX%.[. X[ W.|.Q Q ! Q ' ` | _.=X2X1XK.N.>XH.H.H.H.F.G.H.Z.V.h.j 4 , , , , , , < 4 1.j.3.e , , ; , ; < , , 4 5 ;.j.! E ` o. XXXOX XX.} [  X|.` ",
"` [ [.].XX%.[ [.` XX*.[.+XX.W.-.^ |./ ^ Q ' <.M.;X>X>XH.>XH.H.H.H.G.b.F.H.z.1.E 4 6 , , ; , , , , 3 9 h e 4 , , , , , , , , 9 3.k.Z.B.E [ |.Y.OX X X` ` ` [.W.` ",
"_ [  X[. X} |.|.`  X[.XX[.} [ { XX|.( / ( 9.y.:X;X>X>XH.>XH.G.z.f.b.n.D.V.h.7 3 , , , , 3 , , , , , , < , , , , , , , , , 3 j k.G.l.B.~ -.|.o.OX X` ` ` [ _ ` ` ",
"` W.XXXXXX[ [._ ` XXXX].*.X.` } XXi.1.( V.G.S.N.M.S.m.m.J.J.m.m.z.H.G.B.h.;.4 , , , , ; , , , , , , , , , , , , , , , , , , j k.H.Z.9.~ -.&.| '.X.` ` ` [ [ ` ` ",
"` [.XXXX].[ OX[ `  X[.*.*.[.W.%.XXp.G.V.A.>XC.u.w.u.J.J.m.m.m.F.G.G.V.w 3 3 , , , , , , , , , , , , , , , , , , , , , , : 3 j k.D.M.>.E E [ `  XX.` ` [ ] !.OX` ",
"` XXXX+X` W.!.` _ +X} X. XXXW.0.S.G.G.A.G.>Xv.w.$.w.s.b.n.l.l.A.F./ ! 7 , , , , , , , 8 8 8 8 , , , 1 , , , , , , , , 3 4 e 1.x.M.6.' R R W R | [ [ [.OXOXOXOX` ",
" X+X X XW.W.] `  X[.[ [. X X' 6.S.G.G.H.>XF.v.w.$.0.u.v.r.) ) ( / w 3 3 , , ; , , , 2 R W [ 8 8 2 , , , , , , , , , , 4 7 1.5.6.,.-.R R R R R ,.Q OXOXOXOXOX'.[ ",
"|.|. X X XR ` [ XX} [ +X XE >.^ G.H.H.H.G.G.b.u.@.$.#.q.9.) ) ) ! 4 6 , , , 6 < , 6 R { @.{ R R 3 3 3 > > 3 , , , , , 3 Q ) 6.~ R ` R R R R R ) ,.OXOXOX[.OX[ ` ",
"` `  X X|.` [ } [.*.}  X' Q A.D.H.H.H.G.G.G.N.w.$.@.#.8.8.9.) ) Q ' R 8 < 6 8 R 8 8 R W @.{ W 8 > s f f k 5 , , , , 2 R >.,.~ E R W R R ` R R z.) '.OX*. X[.} ` ",
"` |.XX X[ } X.OX+X*.X.[ e H.H.H.H.j.G.) H.n.v.w.@.#.#.#.#.8.,.^ Q 8.@.R 6 8 ' @.{ R R R W W R h d c M A V q , 1 , 6 8 R ' { E E R ` R R R R R G.g.5.).&.'.X.XXE ",
"` XX].` [ o. XOXOXX.| l.F.H.F.H.G.! V.F.G.l.r.8.0.$.#.#.#.#.' R R { @.[ 8 ` @.#.@.W R R R R R g f m N A V g , ; , 3 R R R R R R R R R R R R R H.H.l.y.q.7.<.XX~ ",
"` XX X} X.OXXXXXo.{ n.l.H.H.H.H.k.) l.F.l.5.) 8.#.#.#.#.#.#.@.[ { #.#.@.{ { #.#.@.R R R R Y R g V A N M B 0 , 1 , 6 8 R R R R R W R R E R R R ) H.H.z.5.( ^ XX! ",
"` +X[.&. XOXXXR.| E ) D.H.D.H.H.) l.z.z.l.) ^ @.#.#.#.#.#.#.#.#.#.#.#.#.#.#.#.@.{ [ R R ` Y ` l G H N v # > , ; , 2 R R W R R ` R R R ` R R E D.H.H.z.G.) ( XX^ ",
"XX X(.OXOX X[.=.<.m.) H.H.H.H.) z.n.z.f.) / ^ 8.#.#.#.#.#.#.#.#.#.#.$.$.0.$.#.{ { R R R R Y 8 g Z H N c # > , , , , 8 R R R R R R R R R R E E F.V.H.H.H.G.4.XXE ",
"XXW.R.OXOXOXP.i.n.n.) H.H.H.H.l.n.n.f./ / / ( 8.$.#.#.#.#.#.#.#.#.#.#.#.#.@.[ ` R R W R R 2 6 k V H N v # > , 1 , 8 R R W R R R R R R R ` E ~ ( / H.H.H.H.e.XX_ ",
" XI.*. XOX].o.b.n.) f.H.H.H.D.z.m.m.g./ ! w 9.8.#.#.#.#.#.#.$.#.' R 6 8 8 6 , ; 6 R ` W R 6 5 d V N M c # > , 6 6 2 R R R R R R ` R R E W E ,.l.) / H.g.G.e. X_ ",
"OX} ]. X X*.[ m.n.) H.H.H.>X) z.G.n.l./ w ( ~ { #.#.#.#.#.#.#.#.R * X X O X X O = R ` W p s 0 & v m v x # > , 2 8 R R R ` R R W R W R R R E 9.n.f.) H.) b.t.W.[ ",
"I.[ [.OX X .` l.m.f.H.H.H.D.D.D.G.l.f./ w ( , [ #.#.#.#.#.#.$.#.' : @ .     o @ : 3 8 R E k b n c x x x % 0 < 2 R R R W R R R R R R R R R ~ 4.z.V.H.H.) L.u.i.%.",
"_ [ E.OXP. .` R m.) H.G.F.z.H.H.f.f.) / ) ) 6 W #.#.#.#.#.#.@.#.{.#X$Xa . $ `.$X~.: = 1 ' G J J n x x x % q 8 R R ` R R R R R R R R R W >.,.5.l.V.H.H.) L.d.XXW.",
"_ [ X.[.O. .` [ m.) H.B.m.z.H.H.f.( / r ) ) 1 [ #.#.#.#.#.#.@.$.#X7X8X@X@ a 6X8X$X: X = :.*XU I F c x x d h R R R R R R R R W R R W R >.r.l.r.5.z.H.G.) N.}.OX[.",
"_ [ X.*. .} [ } m.) H.k.z.z.D.D./ / ! 7 ) ) 1 { #.#.#.#.#.#.{ $.oX6X6X'.o u 5X6X`.o . = ' %X<XP J F n f s 9 R W R R R R R ` R R R R R >.v.n.l.l.v.H.) ) a./.OX].",
"` } %.o.[ _ } %.XX) g.c.E m.|.B./ ! 7 3 ) ) 1 { #.#.#.#.#.#.#.$.i.~.D $ . o u D t   X ; ` 7.a.&XP U G k 7 E W R R ` R R R R E [ R R R >.l.J.m.b.>XG.) ) | |.OXQ.",
"} R.%.} ` ` [ %.XX5.5.c.g.g.l.x./ ! 3 / ) / 6 W #.#.#.#.#.#.$.@.8 +                 O 1 ` ' g G ,X<X*X:.Y R R R R R R ` R R R R R R E ^ l.m.m.H.H.6.4.) X.OXOXU.",
"XXR.X.[ ` ` ` X. Xd.OXN.l.c.h.c.g.1.! ) ) r , [ #.#.#.#.#.#.$.#.8 O               + = 2 ' C S K J &X^.| R R R R R W R [ R E [ R R R E ! r.n.J.g.5.4. Xa.[.OXOXU.",
"XXW.=.[ [ ` |.` [ }  X X[.G.S.c.y.).( ; /.>.2 { #.#.#.#.#.$.$.@.8 O             + 6 Y R Q Z 3X3Xj.:.' ` R R ` R R R R W.R R |.} E I.R r ( g.) ) ) |.XX XOXOXOXP.",
"OX'.R.O.} |.XX_ [ _  .[.OX+XOXb.{.)..X XOX< < [ #.#.#.#.#.#.$.$.8 O     X X X + ; R E 2.C S 3XS 2.` Y R R R R R R R ` Y.|.[. X[. X X9 > |.) ) ) |.+X|. XOXOXOXU.",
"OXXX'.'. X X[.W _ [ [ }  X X X=.{. X XOX[.!.-.Y.@.#.#.#.#.#.$.@.8 O   X ; , , , 1 T 3.S 3XK C z ' R R R R R R E R ' ` [ +X X]. XOXY.P.p +X) :X XXXXX_ [ X.OXOXU.",
" X XOXOXOX[.W. XW. X].[ } +XOX|.I.OXOXOX[.OX[.[.E.< [ #.#.#.$.$.8 + X * 8 [ R E ' <.Z 3X3XS j R R ` R R R ` R ` R =.] _ [.OXOX+XOX!.!.< W.y. X].XX X` ` } X.!.P.",
"OXOXOX X[. XW.|.W.OX[.[ }  X+X+X[.OX+X+XOXOXOX[.[.i - U.X.#.$.@.` p * , R W.T -.`.-XL L S z ` Y R [ R R W [ [ ` i , !.W.[.OXOX+XOXOX!.I.XX X[. X X|.R ` ` } X. .",
"OXOX[.[.*.O.` ` ` |. X` ` } XXXXOXOX|.W. XOXOXOX!.OX[.[.Y.O.I.&.{ W.8 R Y.!.|.|.OX4X4XG <.' ` R [ Y.` R W.!.O.P.].Y.!.OXOXOXOXOX+XOX!.OXOX*.!.[.` |. X` [ [ [ [ ",
"OXOXP.P.X.|.W.} %.'.[. X X XOX+XOX%.[ [  X!.OXOXOXOX+XOXOXOX].[...Y. X!. XY.XX+X[.] P.O.Y.< < Y.Y.I.!. XOX[.|. X+X[.OXOXOX!.OXOX[.OXOX+XOXO.E.[ }  X[.[._ _ _ ` ",
" XOXO.X.[.OXOX!.OXOX'.|.OXOX XOXOXOX_ [ W.[.[.OXOXOXOX[.[.OXOX X XXXOXOXOXY.XXOX+X+XOX[. X XOXOXY.OXOXOX XOXOXOX+XOX X!.p P.OXOX XOXOXOXOX .} _  . XX.XX[ _ ` ` ",
"OXOXX.}  XOX|.'.XXOX|.[ E.OXOXOXOX X` ] OX'.OXOXOXOXOXOX[.+XOXOXOXOXOXOX X'.OXOX[.OXOXOX XOXOXOXOXOXOXOX[.OXOXOX!.P.p - y (.OXOXX.OXOXOXOX*.} } *. X[. X|.` ` ` ",
"OXOXX.[  X X'.OXOXOXI.] ` OXOXOXOXOX X[ [.OX X XOXOXOXOX=. X XOXOX+XOXOX[. XOXOX X X X+X+XOXOXOXOXOXOXOXOXOXOX..- XX-  .!.=.W.} XXOXOXOX].O._ [ *.OXOX[.[. X|.` ",
" X|.O.*. XOXOXOX X!. .[ `  XOX XXXOXOXI.%.OX|.` +X+XOXOXW.XX XOXOXOXOX+XOXOXOXOXOX]. X|.+X XOXOXOXOX X!. X XY.OX].W.W. . . .[.[.OXOXOX'.].I.X.[ %. XOXOX[. X X` ",
"} } } X. XOX XOXOX%.[ ` [  XOXOX+XOX X!.W.=.X.[ [.OXOXOXW.|.W. X X XOXOXOX+XOX X[ [ W. X XOX XOX[.OXOXI.OXOXOX XI.[ } } %.R.[. XOXOXOXW.*.*.Y.[ Q.W. XOX|.` E.` ",
"_ [ }  XOXOXOX+X X].` ` ` '. XOX+X+XOX|.|.W.%.} _ OXOX[.R.!.I.W.OX|.OXOXOX|.E._ `  X*._ !.OXOXOXU.OXOXW.OXOXY. XI.[ [ [ W.I. XOX XXXo.} P.[ W.` R.[ ` ` R ` R ` ",
"[ [.+X XXX|.OXOXXX XR ` ` } W.XXOXOXOX+X X|.R.&.X. XOXXXW.I.R. X+X+X+XOX[.*.R.R XX].` `  X X X[.].[.OX} OX[.O.OXX.X.} } T.*.]. X X X` X.%.` !.` } *.%.%.} } Y ` ",
"[.+X XI.XXXX X X XXX[ _ ` } X.+XR.|.OX+X X X].R.R.W.|.XXR.=. X+X[.+X+XOX=.W.`  XXX_ ` } ].OXW.} ].X.W.[ OX[ ].].W.W.R.I.=.!.} [.OX].` I.I.` ].o.R.].R.E.X.} X.Y ",
"XX+X XX.!.|.I.I.R. X X` ` [ [ } W.R.(.+X+X+XXX[.].I.}  XW.XX X+X[.[.[.U.E.R. X|.W.` ` I.].].[ [ }  X[ `  X%.].|.[.[.[.[.[.[.} XX|.W.[ I.%.` ]. X[.[.*.XX%.} X.} ",
" XW.!.[ [ [ Y.[ W.` XX` ` ` ` ` } W.W.+X+X+X+X[.|.I.%.=.W. X XOX[.].[.*.!.[.].` ` [ [ R.` ` _  X XXX_ ` =.].+X X[.[.[.E.W. .} W.=.W.[ I.=.` `  X+X+X[.XXW.%.} X.",
"W.I.%.} o.%.X.} [ ` XX` _ R } } I.R.R.!.+XOX+X[.[.R.*.W.].XX X X[.Q.U.*.]. X}  X} X.*.%.} [ `  X X[.Y ` W. X+XW.+X].+X].*.X.[ } R.} *.*.=.[ _ [  XXX[.XXW.W.X. .",
"R W.} &.I.R.XX&.[ [ W.` [  XI.T.[ X.].[.+X[.+X+X[.XX[.].].XX X X[.E.T.U.].} [.[.%.W.[.W.T.[ ` XX XR ` ` W.XX+X+X+X XXX%.} } } W.}  .!.!.[.X.} [ [ XX X[.XX!.E. .",
"` ` } =.XX+XXX=.} W.` } %. X=.` [ X.*.[.+X].[.+X[.+X+XW.E.XX X X].Q.].].=.%.XX} W.Q.[.I.R.} %. X|.[ [ } +X+X+X+X+XXX+XX.} ` ` [ } E.!.P.E. .[ _ ` W.XX%.XX X[.[.",
"} }  X|.+X X X=.W.].[ I.} XX[ [ } } X.[.[.XX[.+X].].+XE.E.XX]. X].].U.]. .} XX} ].P.E.T.I.E.].R.X.} [ %.+XXX%.+XXX X X%._ ` } ` } W.].P.W. .[ } [ ]. X*.XXXX[. X",
"XX X X+X+XXXW.XX!.].%.%.W.XX} [ P.O.%.X.P.+X].OX[.].[.+XQ.Q.[.].].E.E.]. .} XX].!.E.W.W.].|.%.W.W.=.=.I.XXI. X X[.!.XXR.} ` E.` } ]. XU.E.%.} &.*.]. XR.[.+X[.[.",
" XXX+X+X+X+X[.[.*.|.X.W.].+XP.*.[ [ [ X.W.[.[.Q.[.[.Q.+XE.].Q.[.Q.Q.U.]. .} [.].*.[.!.T.R.|.W.=.W.].!.=.W.W.XX!.[.E.[.W.=.R W.` %.[.U.].*.%.T.*.&.].!.].].+X].Q.",
"XX XXX+XXX[.XX X].X.T.!.].+X[.%.[ ` ` %.[.].+XE.U.[.].[.Q.E.[.[.].U.P.]. .} } ].O.[.!.E.%.X.|.I.|.|.|.R.%.W.[.W.[.E.+X[.%.` W.X.E.].].].*.Q.*.].I. X|.].].].P.P.",
" X X+X X+X*.XX].%.R.].|.E.[.XXW.} X.} =.R. X].[.U.[.[.+XQ.].].[.].P.*. . . .%.E.*.E.W.=.} I.!.E.].].].W.W.R.*.Q.[.*.XXW.R.` W.W.W.W.E.].R.|.R.!.!.].].].E.P.*.*.",
"].+X[.].[.[. X].=.=. .E.].+X+X[.P.Q.*.[ !.[.I.+XP.!.XXXXE.].E.[.]. . . .*.W.E.].*.].E.I.[ _ ].W.E.!.[.Q.E.[.*.%.T.R. X=.!.} (.].|.%.W.|.P.|.I.} R.].Q.E.*.*. . .",
"].XX!.Q.].XX].=.W.}  .*.].XX[.+X[.[.I.[ ].[.E.OXE.!.[.].E.E.[.[.].%.%.X.W.].P.*.E.!.].[ _ ] W.W.I.E.].[.[.].=.&.T.=. X` W.!.I.W.!.} !.R.I.` I.%.R.].U.U.*. .} [ ",
"[.].].].X.%.W._ =.} } *.Q.XX[.[.OX!.*.*.W.[.[.[.T.W.W.].*.E.].Q.[.W.*.}  .P.P.P.].[ ].` ` [ X.Q.P.].].[.[. XR.=.I.W.].`  X].X.R.W.} W.%.I.I.I.I.%.*.P.*. .} } ` ",
"U.P.].E.[ W.=.` ` [  .*.P.XX].U.[.OX!.'.} XX[.W.E.%.} [ [.E.[.*.[.I.=.X. .P.P.E.[.` _ R [ _ } [.*.[.].[.+X[.].!.]. X=.`  XR.W.|.=.R.|.=.]. XR.}  .*.U.*. .[ T ` "
};
