/* XPM */
static char *result[] = {
/* columns rows colors chars-per-pixel */
"80 80 180 2 ",
"   c #050303",
".  c #070609",
"X  c #070A0C",
"o  c #08090E",
"O  c #08070B",
"+  c #070F12",
"@  c #0B0C15",
"#  c #0B121C",
"$  c #081117",
"%  c #0E1322",
"&  c #0C1925",
"*  c #0C1F2B",
"=  c #101324",
"-  c #121629",
";  c #13192F",
":  c #1E1D2F",
">  c #0D1835",
",  c #151C36",
"<  c #171E3A",
"1  c #181F3D",
"2  c #1A1E36",
"3  c #0C212E",
"4  c #0D2534",
"5  c #0F293B",
"6  c #14233B",
"7  c #18203E",
"8  c #1F2035",
"9  c #23222F",
"0  c #342624",
"q  c #3F3C2E",
"w  c #282537",
"e  c #262B35",
"r  c #262C3B",
"t  c #282D3D",
"y  c #242439",
"u  c #342934",
"i  c #3E2F3A",
"p  c #3A2E33",
"a  c #2C3635",
"s  c #2E3935",
"d  c #26313D",
"f  c #2B343A",
"g  c #2E3A3C",
"h  c #333D3C",
"j  c #313136",
"k  c #452A1B",
"l  c #4A2D1D",
"z  c #4C301E",
"x  c #53321D",
"c  c #4D3521",
"v  c #543521",
"b  c #5A3B22",
"n  c #4C3232",
"m  c #5E3A33",
"M  c #50383D",
"N  c #693D2F",
"B  c #623F25",
"V  c #613E39",
"C  c #673D30",
"Z  c #36413E",
"A  c #544528",
"S  c #4A4E37",
"D  c #5D5635",
"F  c #644026",
"G  c #6B4629",
"H  c #7D462E",
"J  c #794F2C",
"K  c #704727",
"L  c #6E4134",
"P  c #6A4139",
"I  c #794B34",
"U  c #6D5A3D",
"Y  c #766338",
"T  c #141F46",
"R  c #131E48",
"E  c #172247",
"W  c #1B2447",
"Q  c #1E2844",
"!  c #15214A",
"~  c #1B2549",
"^  c #1E284E",
"/  c #102D41",
"(  c #12344D",
")  c #1F2951",
"_  c #1D2958",
"`  c #1B2752",
"'  c #153D5A",
"]  c #232746",
"[  c #212A43",
"{  c #2B2B44",
"}  c #272E4B",
"|  c #392F42",
" . c #2C3445",
".. c #2F3A41",
"X. c #2A364B",
"o. c #2D394D",
"O. c #263245",
"+. c #313446",
"@. c #323D43",
"#. c #333D49",
"$. c #383F4F",
"%. c #222D56",
"&. c #222D59",
"*. c #263153",
"=. c #2C3452",
"-. c #21315A",
";. c #363F51",
":. c #1D3E66",
">. c #223763",
",. c #423C46",
"<. c #423D4A",
"1. c #533D40",
"2. c #14415F",
"3. c #374243",
"4. c #3A4542",
"5. c #3D4555",
"6. c #3C4659",
"7. c #174B6E",
"8. c #18466B",
"9. c #19567F",
"0. c #4D4445",
"q. c #45484B",
"w. c #514545",
"e. c #544845",
"r. c #5C4C44",
"t. c #485147",
"y. c #5A5B46",
"u. c #454151",
"i. c #554B51",
"p. c #5A4C51",
"a. c #6B5644",
"s. c #725A44",
"d. c #7B5D44",
"f. c #6A6946",
"g. c #7C6145",
"h. c #444E64",
"j. c #485262",
"k. c #48546A",
"l. c #525668",
"z. c #4F5C72",
"x. c #526074",
"c. c #7A7373",
"v. c #81542E",
"b. c #814B35",
"n. c #8C4D31",
"m. c #875830",
"M. c #955C35",
"N. c #96602F",
"B. c #9B6537",
"V. c #A56C36",
"C. c #B27438",
"Z. c #816344",
"A. c #9C7444",
"S. c #977042",
"D. c #8E6E57",
"F. c #A17743",
"G. c #A47B43",
"H. c #A97D45",
"J. c #8D6D61",
"K. c #8A9146",
"L. c #A38543",
"P. c #B5A143",
"I. c #B8B445",
"U. c #CC9442",
"Y. c #D29E42",
"T. c #D8A041",
"R. c #D4B443",
"E. c #E0A441",
"W. c #EEC942",
"Q. c #F2C642",
"!. c #EBDD43",
"~. c #1B5A86",
"^. c #225487",
"/. c #1F6496",
"(. c #226DA6",
"). c #5C6E89",
"_. c #586983",
"`. c #787A83",
"'. c #768395",
"]. c None",
/* pixels */
"].].].].].].].].].].].].].].].].].].].].].].].].].].].].].].].].].].].].].].].].].].].].].].].].].].].].].].].].].].].].].].].].].].].].].].].].].].].].].].].].",
"].].].].].].].].].].].].].].].].].].].].].].].].].].].].].].].].].].].].].].].].].].].].].].].].].].].].].].].].].].].].].].].].].].].].].].].].].].].].].].].].",
"].].].].].].].].].].].].].].].].].].].].].].].].].].].].].].].].].].].].].].].].].].].].].].].].].].].].].].].].].].].].].].].].].].].].].].].].].].].].].].].].",
"].].].].].].].].].].].].].].].].].].].].].].].].].].].].].].].].].].].].].].].].].].].].].].].].].].].].].].].].].].].].].].].].].].].].].].].].].].].].].].].].",
"].].].].].].].].].].].].].].].].].].].].].].].].].].].].].].].].].].].].].].].].].].].].].].].].].].].].].].].].].].].].].].].].].].].].].].].].].].].].].].].].",
"].].].].].].].].].].].].].].].].].].].].].].].].].].].].].].].].].].].].].].].].].].].].].].].].].].].].].].].].].].].].].].].].].].].].].].].].].].].].].].].].",
"].].].].].].].].].].].].].].].].].].].].].].].].].].].].].].].].].].].].].].].].].].].].].].].].].].].].].].].].].].].].].].].].].].].].].].].].].].].].].].].].",
"].].].].].].].].].].].].].].].].].].].].].].].].].].].].].].].].].].].].].].].].].].].].].].].].].].].].].].].].].].].].].].].].].].].].].].].].].].].].].].].].",
"].].].].].].].].].].].].].].].].].].].].].].].].].].].].].].].].].].].].].].].].].].].].].].].].].].].].].].].].].].].].].].].].].].].].].].].].].].].].].].].].",
"].].].].].].].].].].].].].].].].].].].].].].].].].].].].].].].].].].].].].].].].].].].].].].].].].].].].].].].].].].].].].].].].].].].].].].].].].].].].].].].].",
"].].].].].].].].].].].].].].].].].].].].].].].].].].].].].].].].].].].].].].].]., , , , < E W W W W W W W W ~ %.&.].].].].].].].].].].].].].].].].].].].].].].].",
"].].].].].].].].].].].].].].].].].].].].].].].].].].].].].].].].].].].].].].].]., , , , , E W W ~ W ~ W W W W %.%.%.].].].].].].].].].].].].].].].].].].].].].].",
"].].].].].].].].].].].].].].].].].].].].].].].].].].].].].].].].].].].].].].].].]., , , < 7 7 W W W W W W W ~ ^ ) ) %.].&.].].].].].].].].].].].].].].].].].].].",
"].].].].].].].].].].].].].].].].].].].].].].].].].].].].].].].].].].].].].].].].].]., , , , < 7 W W ~ W W W W ~ ~ ] %.&.%.&.].].].].].].].].].].].].].].].].].].",
"].].].].].].].].].].].].].].].].].].].].].].].].].].].].].].].].].].].].].].].].].].]., , , , 7 7 W W W W W W W ~ ) &.&.&.&.&.].].].].].].].].].].].].].].].].].",
"].].].].].].].].].].].].].].].].].].].].].].].].].].].].].].].].].].].k k ].].].].].].]., , , < < 1 W W W W W W W %.&.&.&.&.&.%.].].].].].].].].].].].].].].].].",
"].].].].].].].].].].].].].].].].].].].].].].].].].].].].].].].].].].].k k l ].].].].].].]., , , , < E W W W W W ~ ] %.] ` ] %.%.&.].].].].].].].].].].].].].].].",
"].].].].].].].].].].].].].].].].].].].].].].].].].].].].].].].].].].].k k v G ].V.].].].]., , , , < E W ~ W ~ ~ ^ ) %.W , , W ) &.].].].].].].].].].].].].].].].",
"].].].].].].].].].].].].].].].].].].].].].].].].].].].].].].].].].].].k l b G m.V.C.].].]., , , , < 7 W ~ W W W W ~ W , # @ , ~ &.].].].].].].].].].].].].].].].",
"].].].].].].].].].].].].].].].].].].].].].].].].].].].].].].].].].].].].l v F J N.B.N.].]., , , , < Q W ~ W 7 , ; , , # O . - ] -.].].].].].].].].].].].].].].].",
"].].].].].].].].].].].].].].].].].].].].].].].].].].].].].].].].].].].].].z v F J v.K l 0 : 3 , , < E W W W < = @ + @ X   . - ^ &.].].].].].].].].].].].].].].].",
"].].].].].].].].].].].].].].].].].].].].].].].].].].].].].].].].].].].].].].k v F G b c 0 9 , , , < 7 W W 7 , & $ X . X + % 6 ^ &.].].].].].].].].].].].].].].].",
"].].].].].].].].].].].].].].].].].].].].].].].].].].].].].].].].].].].].].].].l x b A A n e 2 , , < W W 2 - 6 ' 8.4 o # ( 8.:.-.%.].].].].].].].].].].].].].].].",
"].].].].].].].].].].].].].].].].].].].].].].].].].].].].].].].].].].].].].].].].z c A D S t , > , 1 W 1 = @ 5 ~./.' $ 4 ~.(.^.>.%.].].].].].].].].].].].].].].].",
"].].].].].].].].].].].].].].].].].].].].].].].].].].].].].].].].].].].].].].].].e.r.U Y P a , > , < W 7 % . 3 7.~.( $ * 7./.9.>.].].].].].].].].].].].].].].].].",
"].].].].].].].].].].].].].].].].].].].].].].].].].].].].].].].].].].].].].].].].`.`.D.B.I p , > , < W 1 % O + 3 5 & . + 3 / ( ].].].].].].].].].].].].].].].].].",
"].].].].].].].].].].].].].].].].].].].].].].].].].].].].].].].].].].].].].].].].`.`.J.M.H n y 2 , 7 E 1 - @ O .             O ].].].].].].].].].].].].].].].].].",
"].].].].].].].].].].].].].].].].].].].].].].].].].].].].].].].].].].].].].].].].z.l.p.V C G m p 7 T W W , = @               @ , ].].].].].].].].].].].].].].].].",
"].].].].].].].].].].].].].].].].].].].].].].].].].].].].].].].].].].].].].].].].] ] y y n b.n.V t W W W ~ T - +           O - 1 W ].].].].].].].].].].].].].].].",
"].].].].].].].].].].].].].].].].].].].].].].].].].].].].].].].].].].].].].].]., ; > > , u C b.N M | ] W W W < - @ @ @ @ @ @ ; E W ^ ].].].].].].].].].].].].].].",
"].].].].].].].].].].].].].].].].].].].].].].].].].].].].].].].].].].].].].]., , , , > , 8 u n N b.V | W E W W , , , 2 ; , , < W ~ %.%.].].].].].].].].].].].].].",
"].].].].].].].].].].].].].].].].].].].].].].].].].].].].].].].].].].].].]., , , , , , , , < w C n.b.1.+.] W W W W W E W W W W W ^ %.%.].].].].].].].].].].].].].",
"].].].].].].].].].].].].].].].].].].].].].].].].].].].].].].].].].].].]., < , , , , , , < < 7 n m I d.s.0.] R R ! ! E E ^ ^ W ` ] &.&.&.].].].].].].].].].].].].",
"].].].].].].].].].].].].].].].].].].].].].].].].].].].].].].].].].].]., , , , , , , , , < E W W } r.S.H.s.+.E W W ~ ~ W W W ^ %.%.&.&.%.].].].].].].].].].].].].",
"].].].].].].].].].].].].].].].].].].].].].].].].].].].].].].].].].]., , , , , , , , , , < 7 W E ~ ,.d.A.Z.r.w.0.w.e.w.,.{ ^ ) %.%.%.&.%.].].].].].].].].].].].].",
"].].].].].].].].].].].].].].].].].].].].].].].].].].].].].].].].]., , , , , , , , , , , < E W W W { $.r.Z.S.G.F.A.F.A.g.u.%.` %.&.%.%.&.].].].].].].].].].].].].",
"].].].].].].].].].].].].].].].].].].].].].].].].].].].].].].].].]., , , , , , , , , , , < E W ~ W W E  .a.H.U.Y.Y.Y.U.A.i.&._ %.&.%.%.%.].].].].].].].].].].].].",
"].].].].].].].].].].].].].].].].].].].].].].].].].].].].].].].].< , , , < , , , , , 7 7 E W W ] ~ E R ] ,.s.L.R.Q.Q.E.L.p.*._ %.%.%.&.%.].].].].].].].].].].].].",
"].].].].].].].].].].].].].].].].].].].].].].].].].].].].].].].]., , , , , , , , , , 7 7 W W W W W ~ E W ] +.f.I.!.W.T.A.i.&._ _ %.&.%.&.].].].].].].].].].].].].",
"].].].].].].].].].].].].].].].].].].].].].].].].].].].].].].].]., , , , , , , < , < W W W W ~ W W W W W R W q.K.I.P.G.d.u.*._ %.%.&.%.%.].].].].].].].].].].].].",
"].].].].].].].].].].].].].].].].].].].].].].].].].].].].].].].< , , , , , , , , 7 W W W W ~ W W W W W W W W X.t.f.p.e.u.X.%.%.%.%.%.&.&.].].].].].].].].].].].].",
"].].].].].].].].].].].].].].].].].].].].].].].].].].].].].]., , , , , , , , < 7 W W W W W W W W W ~ W W W W W ] ~ ~ ~ ^ %.%.%.%.%.&.%.%.].].].].].].].].].].].].",
"].].].].].].].].].].].].].].].].].].].].].].].].].].].].]., , , , , , 8 , < < W W W W W ~ W W W W W W ~ W ~ T T E ! ! ` ) &.%.%.%.%.%.%.].].].].].].].].].].].].",
"].].].].].].].].].].].].].].].].].].].].].].].].].].].]., , , , < , , , , < W W W W W W W W W ~ W ~ W W W W W ~ W ) %.&.&.%.%.%.%.&.%.&.].].].].].].].].].].].].",
"].].].].].].].].].].].].].].].].].].].].].].].].].].]., , , , , , 6 < < 1 E W W W W W ~ W W W W W W ~ W W ~ W W ~ ) ) %.&.%.&.%.%.%.&.%.].].].].].].].].].].].].",
"].].].].].].].].].].].].].].].].].].].].].].]., , , , , , , , , < E 7 E 7 W ~ W W W W W W W W W W W W W W W W W ~ ) %.%.&.%.&.%.%.&.%.%.].].].].].].].].].].].].",
"].].].].].].].].].].].].].].].].].].].].].]., , , , , , < , < < 1 W Q W W W W W W W W W W W W W W W W ~ W W W W ~ ^ %.%.&.%.%.%.%.%.%.%.].].].].].].].].].].].].",
"].].].].E < ].].].].].].].]., 2 , , , ].]., , , < < 7 E 7 1 1 < E W W W W W W W W W W W ~ W W ~ ~ W W W ~ W W ~ ~ ^ %.%.%.%.&.%.%.&.%.&.].].].].].].].].].].].].",
"].].].W 7 < , ].].].].].]., , , 2 , , , , , , , < 7 W E W W W W W W W W W W ^ W W W W W W W W W W W ~ W W W W W W ) _ -.%.%.%.%.%.%.%.].].].].].].].].].].].].].",
"].].].W E 7 7 7 ].].].].7 < 1 < < < < < < < 2 , W W W W W ~ W W W W ~ W ~ W ~ W W ~ W W W ~ ^ W W W W W W W Q Q Q ^ %.&.%.%.%.%.&.%.%.].].].].].].].].].].].].].",
"].].].].W 7 W W W W W W E Q E 7 7 E E E E W 7 E W W W W ~ W W W W W W W W W W W W ~ ~ W W ~ W W W W W W E W Q [ O.O.-.%.&.%.%.%.%.%.].].].].].].].].].].].].].].",
"].].].].].W W W W W ~ W W W W W W W Q W W W W W W W W W W W W ~ ~ W ~ W W W W W W W W W W W W W ~ W W ~ Q Q [ g g X.*.%.%.%.&.%.&.].].].].].].].].].].].].].].].",
"].].].].].].~ W ~ W W W W W W ~ ~ ~ ~ W ~ ~ W ~ W W W W W ~ W W W W W W W W W W W ~ W W W W W W W W ~ W [  .@.Z @.X.*._ %.%.&.%.%.].].].].].].].].].].].].].].].",
"].].].].].].].W W W W ~ W W W W W W W W W W W ~ W W W W W W W W W W W W W W W W W W W W W W W W W W ~ Q O.@.4.4.3.o.*.&.%.%.%.%.%.].].].].].].].].].].].].].].].",
"].].].].].].].].W W W W W ~ W W ] ~ W ~ W W W W W W W W W W W ~ W W W W W W W W ~ W W ~ E W W W W W W ]  .3.4.4.3.#.=.*.*.%.&.%.].].].].].].].].].].].].].].].].",
"].].].].].].].].].].].].W W W W W W W W W W W W W W W W W ~ W ] W W W W W W W W W W W W ^ W W W ~ W T ~  .3.4.4.3.3.3.o.*.%.&.].].].].].].].].].].].].].].].].].",
"].].].].].].].].].].].].].W ~ W W W W ~ W W W ~ ~ W W ~ ~ W W W W W W W W W W W W W W W W W W W W W W Q ..4.4.4.4.4.4.3.*.-.].].].].].].].].].].].].].].].].].].",
"].].].].].].].].].].].].].].W ].].].].].].W W W W W W W W W W ~ W W W ~ ~ W ~ W W W W W W W W W W Q r O...4.4.4.4.4.4.3.o.].].].].].].].].].].].].].].].].].].].",
"].].].].].].].].].].].].].].].].].].].].].].W W W W W W W W W W W ~ W W W ~ W W W Q W W W E W W W Q d a Z 3.4.4.4.4.4.4.].].].].].].].].].].].].].].].].].].].].",
"].].].].].].].].].].].].].].].].].].].].].].~ W W W W W ~ W W W W ^ W W W W W W W W ~ W W ^ W Q Q r a s Z Z 4.4.4.4.4.4.].].].].].].].].].].].].].].].].].].].].",
"].].].].].].].].].].].].].].].W W W W W W W ~ W ~ W W ~ W W W ~ ~ W W W W W W W ~ W W ~ W W W Q d f s s Z Z 4.4.4.4.4.4.].].].].].].].].].].].].].].].].].].].].",
"].].].].].].].].].].].].].].].W W ~ ~ W W W W W W W W W ~ W W W W W W W W ~ W W W W W W W W Q d s s s s Z Z 4.Z 4.4.4.4.].].].].].].].].].].].].].].].].].].].].",
"].].].].].].].].].].].].].].].].W W W ~ ~ W W W W W W W W W W W ~ W W W W ~ ~ W E ~ W ~ Q 7 r f a s s s h Z Z Z Z 3.4.4.4.].].].].].].].].].].].].].].].].].].].",
"].].].].].].].].].].].].].].].].].W W W W W ~ W W W ~ W W W ~ W ~ W W W W W W W Q ~ E Q Q f a s s s s s s ].].s g h 4.4.4.4.].].].].].].].].].].].].].].].].].].",
"].].].].].].].].].].].].].].].].].].~ W W W ~ W W ~ W W W W W W W W ~ W W W W W W ~ ~ W [ f s s s s s s ].].].a s h Z Z h h @.].].].].].].].].].].].].].].].].].",
"].].].].].].].].].].].].].].].].].].].].].].W W W W W W ~ W W ~ W W W W W ~ ~ W W W W ].].].].].].].].].].].].s s s s g f f f ].].].].].].].].].].].].].].].].].",
"].].].].].].].].].].].].].].].].].].].].].].].W W W W ~ W W W W W ~ W ~ W ~ W W W W ].].].].].].].].].].].].].s a a s f +.+.+.].].].].].].].].].].].].].].].].].",
"].].].].].].].].].].].].].].].].].].].].].].].].] ~ W W W ~ W W W W W W W W W W W ].].].].].].].].].].].].].].].a a f +.6.h.k.].].].].].].].].].].].].].].].].].",
"].].].].].].].].].].].].].].].].].].].].].].].].].].].].].].].].].].].].].].].].].].].].].].].].].].].].].].].].].e t 5.k._.).].].].].].].].].].].].].].].].].].",
"].].].].].].].].].].].].].].].].].].].].].].].].].].].].].].].].].].].].].].].].].].].].].].].].].].].].].].].].].].t ;.z._.).].].].].].].].].].].].].].].].].].",
"].].].].].].].].].].].].].].].].].].].].].].].].].].].].].].].].].].].].].].].].].].].].].].].].].].].].].].].].].].t #.h.z.x.].].].].].].].].].].].].].].].].].",
"].].].].].].].].].].].].].].].].].].].].].].].].].].].].].].].].].].].].].].].].].].].].].].].].].].].].].].].].].r t +.5.j.].].].].].].].].].].].].].].].].].].",
"].].].].].].].].].].].].].].].].].].].].].].].].].].].].].].].].].].].].].].].].].].].].].].].].].].].].].].].].].r t +.5.j.].].].].].].].].].].].].].].].].].].",
"].].].].].].].].].].].].].].].].].].].].].].].].].].].].].].].].].].].].].].].].].].].].].].].].].].].].].].].].].r t +.5.j.j.].].].].].].].].].].].].].].].].].",
"].].].].].].].].].].].].].].].].].].].].].].].].].].].].].].].].].].].].].].].].].].].].].].].].].].].].].].].].].e t +.$.5.5.].].].].].].].].].].].].].].].].].",
"].].].].].].].].].].].].].].].].].].].].].].].].].].].].].].].].].].].].].].].].].].].].].].].].].].].].].].].].].t t t ..+.{ t t ].].].].].].].].].].].].].].].",
"].].].].].].].].].].].].].].].].].].].].].].].].].].].].].].].].].].].].].].].].].].].].].].].].].].].].].].].].].].t t t t t t t ].].].].].].].].].].].].].].].",
"].].].].].].].].].].].].].].].].].].].].].].].].].].].].].].].].].].].].].].].].].].].].].].].].].].].].].].].].].].].].].].r t ].].].].].].].].].].].].].].].].",
"].].].].].].].].].].].].].].].].].].].].].].].].].].].].].].].].].].].].].].].].].].].].].].].].].].].].].].].].].].].].].].].].].].].].].].].].].].].].].].].].",
"].].].].].].].].].].].].].].].].].].].].].].].].].].].].].].].].].].].].].].].].].].].].].].].].].].].].].].].].].].].].].].].].].].].].].].].].].].].].].].].]."
};
