/* XPM */
static char *result[] = {
/* columns rows colors chars-per-pixel */
"80 80 184 2 ",
"   c #010101",
".  c #03040C",
"X  c #040612",
"o  c #020A12",
"O  c #050B1B",
"+  c #08091C",
"@  c #04111C",
"#  c #2D1C1D",
"$  c #0A0E24",
"%  c #070C20",
"&  c #0C132D",
"*  c #041C2B",
"=  c #061325",
"-  c #1B192B",
";  c #061132",
":  c #0D1533",
">  c #0E1837",
",  c #0F1A38",
"<  c #091539",
"1  c #101735",
"2  c #101836",
"3  c #111A3B",
"4  c #151935",
"5  c #231F33",
"6  c #062234",
"7  c #08243B",
"8  c #1C253D",
"9  c #1F2B3C",
"0  c #352620",
"q  c #3D392A",
"w  c #212432",
"e  c #262E34",
"r  c #212739",
"t  c #232A3A",
"y  c #2B2E36",
"u  c #312431",
"i  c #392A37",
"p  c #253235",
"a  c #293532",
"s  c #2C3835",
"d  c #23323C",
"f  c #29343B",
"g  c #2E3C3D",
"h  c #313D3A",
"j  c #303C37",
"k  c #432614",
"l  c #462916",
"z  c #4A2A17",
"x  c #522E17",
"c  c #4C321B",
"v  c #53321B",
"b  c #5A3E1F",
"n  c #4B2E2E",
"m  c #5E372E",
"M  c #4D3335",
"N  c #583937",
"B  c #633E21",
"V  c #6A3B2C",
"C  c #673A2C",
"Z  c #613C36",
"A  c #6A3F36",
"S  c #36423E",
"D  c #38443F",
"F  c #4F4424",
"G  c #564725",
"H  c #484D34",
"J  c #5D4C3F",
"K  c #5D5632",
"L  c #6B4524",
"P  c #7E442A",
"I  c #774B27",
"U  c #6E4033",
"Y  c #764C39",
"T  c #6D5A3A",
"R  c #7E5B3E",
"E  c #776335",
"W  c #0C1945",
"Q  c #0D1B49",
"!  c #0B1745",
"~  c #141F45",
"^  c #191F44",
"/  c #111F4B",
"(  c #0D2D48",
")  c #152046",
"_  c #192343",
"`  c #1D2942",
"'  c #16214A",
"]  c #18244D",
"[  c #1B284C",
"{  c #09334D",
"}  c #152455",
"|  c #1A2652",
" . c #1C2956",
".. c #1D2A59",
"X. c #0C3C5C",
"o. c #242C44",
"O. c #2B2D44",
"+. c #252844",
"@. c #362B40",
"#. c #263244",
"$. c #2C3344",
"%. c #27344C",
"&. c #29364B",
"*. c #2E3A47",
"=. c #323E43",
"-. c #3F3944",
";. c #333A4C",
":. c #212D53",
">. c #283151",
",. c #333D50",
"<. c #1D3463",
"1. c #173C66",
"2. c #413C4B",
"3. c #433A44",
"4. c #433F50",
"5. c #364340",
"6. c #384440",
"7. c #3C4455",
"8. c #384254",
"9. c #0E476C",
"0. c #11446B",
"q. c #104B70",
"w. c #4D4243",
"e. c #434E45",
"r. c #534543",
"t. c #5D4D43",
"y. c #574848",
"u. c #465045",
"i. c #5A5A44",
"p. c #594B50",
"a. c #534950",
"s. c #6B5542",
"d. c #735A42",
"f. c #7A5E46",
"g. c #6A6944",
"h. c #7D6143",
"j. c #424D64",
"k. c #475162",
"l. c #44526A",
"z. c #515568",
"x. c #495770",
"c. c #4E5C72",
"v. c #506074",
"b. c #7B7474",
"n. c #884A2C",
"m. c #85552C",
"M. c #935F2D",
"N. c #824932",
"B. c #985836",
"V. c #97602C",
"C. c #9C6534",
"Z. c #A76C32",
"A. c #B37636",
"S. c #826342",
"D. c #9C7442",
"F. c #9F7845",
"G. c #8F6E56",
"H. c #A37B41",
"J. c #A97D42",
"K. c #A17741",
"L. c #8E6D61",
"P. c #D19A3F",
"I. c #D9A13F",
"U. c #E1A53F",
"Y. c #F4C13F",
"T. c #8B9244",
"R. c #A48641",
"E. c #B6A241",
"W. c #B9B543",
"Q. c #C99340",
"!. c #D4A040",
"~. c #D5B541",
"^. c #EECA40",
"/. c #F0CC40",
"(. c #ECDE41",
"). c #145987",
"_. c #195385",
"`. c #196497",
"'. c #1C6DA7",
"]. c #576985",
"[. c #5D6E8B",
"{. c #797B84",
"}. c #768497",
"|. c None",
/* pixels */
"|.|.|.|.|.|.|.|.|.|.|.|.|.|.|.|.|.|.|.|.|.|.|.|.|.|.|.|.|.|.|.|.|.|.|.|.|.|.|.|.|.|.|.|.|.|.|.|.|.|.|.|.|.|.|.|.|.|.|.|.|.|.|.|.|.|.|.|.|.|.|.|.|.|.|.|.|.|.|.|.",
"|.|.|.|.|.|.|.|.|.|.|.|.|.|.|.|.|.|.|.|.|.|.|.|.|.|.|.|.|.|.|.|.|.|.|.|.|.|.|.|.|.|.|.|.|.|.|.|.|.|.|.|.|.|.|.|.|.|.|.|.|.|.|.|.|.|.|.|.|.|.|.|.|.|.|.|.|.|.|.|.",
"|.|.|.|.|.|.|.|.|.|.|.|.|.|.|.|.|.|.|.|.|.|.|.|.|.|.|.|.|.|.|.|.|.|.|.|.|.|.|.|.|.|.|.|.|.|.|.|.|.|.|.|.|.|.|.|.|.|.|.|.|.|.|.|.|.|.|.|.|.|.|.|.|.|.|.|.|.|.|.|.",
"|.|.|.|.|.|.|.|.|.|.|.|.|.|.|.|.|.|.|.|.|.|.|.|.|.|.|.|.|.|.|.|.|.|.|.|.|.|.|.|.|.|.|.|.|.|.|.|.|.|.|.|.|.|.|.|.|.|.|.|.|.|.|.|.|.|.|.|.|.|.|.|.|.|.|.|.|.|.|.|.",
"|.|.|.|.|.|.|.|.|.|.|.|.|.|.|.|.|.|.|.|.|.|.|.|.|.|.|.|.|.|.|.|.|.|.|.|.|.|.|.|.|.|.|.|.|.|.|.|.|.|.|.|.|.|.|.|.|.|.|.|.|.|.|.|.|.|.|.|.|.|.|.|.|.|.|.|.|.|.|.|.",
"|.|.|.|.|.|.|.|.|.|.|.|.|.|.|.|.|.|.|.|.|.|.|.|.|.|.|.|.|.|.|.|.|.|.|.|.|.|.|.|.|.|.|.|.|.|.|.|.|.|.|.|.|.|.|.|.|.|.|.|.|.|.|.|.|.|.|.|.|.|.|.|.|.|.|.|.|.|.|.|.",
"|.|.|.|.|.|.|.|.|.|.|.|.|.|.|.|.|.|.|.|.|.|.|.|.|.|.|.|.|.|.|.|.|.|.|.|.|.|.|.|.|.|.|.|.|.|.|.|.|.|.|.|.|.|.|.|.|.|.|.|.|.|.|.|.|.|.|.|.|.|.|.|.|.|.|.|.|.|.|.|.",
"|.|.|.|.|.|.|.|.|.|.|.|.|.|.|.|.|.|.|.|.|.|.|.|.|.|.|.|.|.|.|.|.|.|.|.|.|.|.|.|.|.|.|.|.|.|.|.|.|.|.|.|.|.|.|.|.|.|.|.|.|.|.|.|.|.|.|.|.|.|.|.|.|.|.|.|.|.|.|.|.",
"|.|.|.|.|.|.|.|.|.|.|.|.|.|.|.|.|.|.|.|.|.|.|.|.|.|.|.|.|.|.|.|.|.|.|.|.|.|.|.|.|.|.|.|.|.|.|.|.|.|.|.|.|.|.|.|.|.|.|.|.|.|.|.|.|.|.|.|.|.|.|.|.|.|.|.|.|.|.|.|.",
"|.|.|.|.|.|.|.|.|.|.|.|.|.|.|.|.|.|.|.|.|.|.|.|.|.|.|.|.|.|.|.|.|.|.|.|.|.|.|.|.|.|.|.|.|.|.|.|.|.|.|.|.|.|.|.|.|.|.|.|.|.|.|.|.|.|.|.|.|.|.|.|.|.|.|.|.|.|.|.|.",
"|.|.|.|.|.|.|.|.|.|.|.|.|.|.|.|.|.|.|.|.|.|.|...| ' ~ ~ ^ ~ ~ ~ ~ ^ ~ > : : : : |.|.|.|.|.|.|.|.|.|.|.|.|.|.|.|.|.|.|.|.|.|.|.|.|.|.|.|.|.|.|.|.|.|.|.|.|.|.|.|.",
"|.|.|.|.|.|.|.|.|.|.|.|.|.|.|.|.|.|.|.|.|.|...| | ' ) ~ ~ ~ ~ ~ ~ ~ 3 2 : : : : |.|.|.|.|.|.|.|.|.|.|.|.|.|.|.|.|.|.|.|.|.|.|.|.|.|.|.|.|.|.|.|.|.|.|.|.|.|.|.|.",
"|.|.|.|.|.|.|.|.|.|.|.|.|.|.|.|.|.|.|...|. .| ] ' ' ~ ~ ~ ~ ^ ~ ~ , 2 2 : : : |.|.|.|.|.|.|.|.|.|.|.|.|.|.|.|.|.|.|.|.|.|.|.|.|.|.|.|.|.|.|.|.|.|.|.|.|.|.|.|.|.",
"|.|.|.|.|.|.|.|.|.|.|.|.|.|.|.|.|.|. .:. . .] ' ) ^ ~ ~ ~ ~ ~ ~ W > : : : : |.|.|.|.|.|.|.|.|.|.|.|.|.|.|.|.|.|.|.|.|.|.|.|.|.|.|.|.|.|.|.|.|.|.|.|.|.|.|.|.|.|.",
"|.|.|.|.|.|.|.|.|.|.|.|.|.|.|.|.|... ... . .' ' ~ ~ ~ ~ ~ ~ ~ ~ 2 > & : : |.|.|.|.|.|.|.|.|.|.|.|.|.|.|.|.|.|.|.|.|.|.|.|.|.|.|.|.|.|.|.|.|.|.|.|.|.|.|.|.|.|.|.",
"|.|.|.|.|.|.|.|.|.|.|.|.|.|.|.|. . ..... . .] ) ) ~ ~ ) ~ ~ > 2 > : : : |.|.|.|.|.|.|.k k |.|.|.|.|.|.|.|.|.|.|.|.|.|.|.|.|.|.|.|.|.|.|.|.|.|.|.|.|.|.|.|.|.|.|.",
"|.|.|.|.|.|.|.|.|.|.|.|.|.|.|..... .] ] |  .] ^ ~ ~ ) ~ ~ W 2 : : : : |.|.|.|.|.|.|.z k l |.|.|.|.|.|.|.|.|.|.|.|.|.|.|.|.|.|.|.|.|.|.|.|.|.|.|.|.|.|.|.|.|.|.|.",
"|.|.|.|.|.|.|.|.|.|.|.|.|.|.|...| ~ : 4 ^ ] ' ' ) ^ ~ ~ ) 3 > : : : : |.|.|.|.Z.|.L v l k |.|.|.|.|.|.|.|.|.|.|.|.|.|.|.|.|.|.|.|.|.|.|.|.|.|.|.|.|.|.|.|.|.|.|.",
"|.|.|.|.|.|.|.|.|.|.|.|.|.|.|...] & . X : ~ ' ~ ) ~ ~ ~ ) ~ , : : : : |.|.|.A.Z.m.L v z k |.|.|.|.|.|.|.|.|.|.|.|.|.|.|.|.|.|.|.|.|.|.|.|.|.|.|.|.|.|.|.|.|.|.|.",
"|.|.|.|.|.|.|.|.|.|.|.|.|.|.|.:.' $     O & & & : W ~ ^ ) 3 , : : : & |.|.V.Z.V.I L v z |.|.|.|.|.|.|.|.|.|.|.|.|.|.|.|.|.|.|.|.|.|.|.|.|.|.|.|.|.|.|.|.|.|.|.|.",
"|.|.|.|.|.|.|.|.|.|.|.|.|.|.|...' $       X . . O > ~ ' ^ ! 2 : : : - # z L m.I B v z |.|.|.|.|.|.|.|.|.|.|.|.|.|.|.|.|.|.|.|.|.|.|.|.|.|.|.|.|.|.|.|.|.|.|.|.|.",
"|.|.|.|.|.|.|.|.|.|.|.|.|.|.|...[ , @ .       o = : 3 ~ ~ ~ > : ; > - 0 c b L B v k |.|.|.|.|.|.|.|.|.|.|.|.|.|.|.|.|.|.|.|.|.|.|.|.|.|.|.|.|.|.|.|.|.|.|.|.|.|.",
"|.|.|.|.|.|.|.|.|.|.|.|.|.|.|. ...1.0.{ @ . 6 X.X., $ : ~ 3 3 : : : 9 q F b v x z |.|.|.|.|.|.|.|.|.|.|.|.|.|.|.|.|.|.|.|.|.|.|.|.|.|.|.|.|.|.|.|.|.|.|.|.|.|.|.",
"|.|.|.|.|.|.|.|.|.|.|.|.|.|.|.| <._.'.).* o X.`.).7 . + 3 ~ > : & & e H K G c z |.|.|.|.|.|.|.|.|.|.|.|.|.|.|.|.|.|.|.|.|.|.|.|.|.|.|.|.|.|.|.|.|.|.|.|.|.|.|.|.",
"|.|.|.|.|.|.|.|.|.|.|.|.|.|.|.|.<._.`.9.* . { ).q.*   O 3 ~ > : ; : y K E T U r.|.|.|.|.|.|.|.|.|.|.|.|.|.|.|.|.|.|.|.|.|.|.|.|.|.|.|.|.|.|.|.|.|.|.|.|.|.|.|.|.",
"|.|.|.|.|.|.|.|.|.|.|.|.|.|.|.|.|.( 7 * .   @ 6 * .   O 2 ~ 2 : ; : u I C.G.b.{.|.|.|.|.|.|.|.|.|.|.|.|.|.|.|.|.|.|.|.|.|.|.|.|.|.|.|.|.|.|.|.|.|.|.|.|.|.|.|.|.",
"|.|.|.|.|.|.|.|.|.|.|.|.|.|.|.|.|.                  . $ 3 ~ 3 2 1 5 n P B.L.{.}.|.|.|.|.|.|.|.|.|.|.|.|.|.|.|.|.|.|.|.|.|.|.|.|.|.|.|.|.|.|.|.|.|.|.|.|.|.|.|.|.",
"|.|.|.|.|.|.|.|.|.|.|.|.|.|.|.|.: .               . $ : ~ ~ W 4 i m V C N p.z.v.|.|.|.|.|.|.|.|.|.|.|.|.|.|.|.|.|.|.|.|.|.|.|.|.|.|.|.|.|.|.|.|.|.|.|.|.|.|.|.|.",
"|.|.|.|.|.|.|.|.|.|.|.|.|.|.|.' 3 %             . & ~ ~ ~ ~ W +.Z n.P n w 4 +.` |.|.|.|.|.|.|.|.|.|.|.|.|.|.|.|.|.|.|.|.|.|.|.|.|.|.|.|.|.|.|.|.|.|.|.|.|.|.|.|.",
"|.|.|.|.|.|.|.|.|.|.|.|.|.|.] ' 3 & + . . . . . % > ~ ~ ~ ^ @.N A N.C u > ; ; & & |.|.|.|.|.|.|.|.|.|.|.|.|.|.|.|.|.|.|.|.|.|.|.|.|.|.|.|.|.|.|.|.|.|.|.|.|.|.|.",
"|.|.|.|.|.|.|.|.|.|.|.|.|. .| ' ^ , : & : : & : 2 3 ~ W ~ @.Z N.V n u 4 : ; : & : : |.|.|.|.|.|.|.|.|.|.|.|.|.|.|.|.|.|.|.|.|.|.|.|.|.|.|.|.|.|.|.|.|.|.|.|.|.|.",
"|.|.|.|.|.|.|.|.|.|.|.|.|. .| ' ' ~ ~ ~ ~ ~ ~ ~ ~ ~ ~ [ O.N N.n.Z 5 : : : : : : : : : |.|.|.|.|.|.|.|.|.|.|.|.|.|.|.|.|.|.|.|.|.|.|.|.|.|.|.|.|.|.|.|.|.|.|.|.|.",
"|.|.|.|.|.|.|.|.|.|.|.|... . .| ' ' ' ~ ~ / Q ~ Q ! ) w.d.h.Y Z i 4 < < : : : : : : 1 : |.|.|.|.|.|.|.|.|.|.|.|.|.|.|.|.|.|.|.|.|.|.|.|.|.|.|.|.|.|.|.|.|.|.|.|.",
"|.|.|.|.|.|.|.|.|.|.|.|. . . . . .| ~ ^ ~ ^ ^ ^ ) ~ O.d.J.C.r.+.^ ^ , > : : : : : : : : > |.|.|.|.|.|.|.|.|.|.|.|.|.|.|.|.|.|.|.|.|.|.|.|.|.|.|.|.|.|.|.|.|.|.|.",
"|.|.|.|.|.|.|.|.|.|.|.|... . . . .} ] +.3.3.3.y.w.w.t.S.D.h.-.~ W ~ ~ > : : : : : : : : : : |.|.|.|.|.|.|.|.|.|.|.|.|.|.|.|.|.|.|.|.|.|.|.|.|.|.|.|.|.|.|.|.|.|.",
"|.|.|.|.|.|.|.|.|.|.|.|... . . .| } :.2.f.K.J.K.K.H.D.h.t.-.o.~ ^ ~ ~ > : : : : : : : : : : : |.|.|.|.|.|.|.|.|.|.|.|.|.|.|.|.|.|.|.|.|.|.|.|.|.|.|.|.|.|.|.|.|.",
"|.|.|.|.|.|.|.|.|.|.|.|... . . . .} :.p.F.Q.!.P.P.Q.R.s.O.~ ~ ) ^ ~ ~ 2 : : : : : : : : : : : |.|.|.|.|.|.|.|.|.|.|.|.|.|.|.|.|.|.|.|.|.|.|.|.|.|.|.|.|.|.|.|.|.",
"|.|.|.|.|.|.|.|.|.|.|.|... . . . .} ..p.J.U././.~.R.d.3.) ! W ) ~ ~ ~ 3 3 > : : : : : : : : : : |.|.|.|.|.|.|.|.|.|.|.|.|.|.|.|.|.|.|.|.|.|.|.|.|.|.|.|.|.|.|.|.",
"|.|.|.|.|.|.|.|.|.|.|.|... . . ...}  .a.F.!.^.(.W.g.O.^ ) ~ ) ~ ~ ~ ~ ~ ~ 3 : : : : : : : : : : |.|.|.|.|.|.|.|.|.|.|.|.|.|.|.|.|.|.|.|.|.|.|.|.|.|.|.|.|.|.|.|.",
"|.|.|.|.|.|.|.|.|.|.|.|... . . . . . .4.f.H.E.W.T.e.^ W ~ ~ ~ ~ ~ ~ ~ ^ ~ ! 3 2 : : : : : : : : |.|.|.|.|.|.|.|.|.|.|.|.|.|.|.|.|.|.|.|.|.|.|.|.|.|.|.|.|.|.|.|.",
"|.|.|.|.|.|.|.|.|.|.|.|... . . . . . .>.2.r.i.i.u.#.~ W ) ~ ~ ~ ~ ~ ~ ~ ) W 3 3 , : : : : : : : : |.|.|.|.|.|.|.|.|.|.|.|.|.|.|.|.|.|.|.|.|.|.|.|.|.|.|.|.|.|.|.",
"|.|.|.|.|.|.|.|.|.|.|.|... . . . . . . .' ) ) ) ) ) ~ ) ) ~ ) ~ ~ ~ ~ ~ ~ ~ ) ~ , : : : : : : : : > |.|.|.|.|.|.|.|.|.|.|.|.|.|.|.|.|.|.|.|.|.|.|.|.|.|.|.|.|.|.",
"|.|.|.|.|.|.|.|.|.|.|.|. . . . . . . .} } / ~ Q W ~ ~ ~ ~ ~ ) ~ ~ ~ ~ ~ ~ ~ ) W ~ 2 , : : : : : : : : |.|.|.|.|.|.|.|.|.|.|.|.|.|.|.|.|.|.|.|.|.|.|.|.|.|.|.|.|.",
"|.|.|.|.|.|.|.|.|.|.|.|... . . . . . . . . .' ~ ) W ) ~ ~ ~ ~ ~ ~ ~ ~ ~ ) ) ) ) ~ ~ 2 > : : : : : : : : |.|.|.|.|.|.|.|.|.|.|.|.|.|.|.|.|.|.|.|.|.|.|.|.|.|.|.|.",
"|.|.|.|.|.|.|.|.|.|.|.|... . . . . . . . . ./ ~ ~ ~ ~ ~ ^ 7 W ) ~ ~ ~ ~ ~ ) ~ ~ ~ ~ 3 2 2 2 > > : : : : : |.|.|.|.|.|.|.|.|.|.|.|.|.|.|.|.|.|.|.|.|.|.|.|.|.|.|.",
"|.|.|.|.|.|.|.|.|.|.|.|... . . . . . . . . .| ~ ~ ) ) ~ ^ ) ) ) ~ ) ~ ) ~ ~ ~ ~ ~ ~ ~ W ~ ~ ~ , > : : : : : : : : |.|.|.|.|.|.|.|.|.|.|.|.|.|.|.|.|.|.|.|.|.|.|.",
"|.|.|.|.|.|.|.|.|.|.|.|... ... . . . . . .| | ^ ~ ~ ~ ~ ~ ~ ) ) ~ ) ~ ~ ~ ~ ~ ) ~ ^ ~ ~ ~ ~ ~ 3 > , : > 2 > : : 1 : |.|.|.|.|.|.|.|.|.|.|.|.|.|.|.|.|.|.|.|.|.|.",
"|.|.|.|.|.|.|.|.|.|.|.|. . . . . . . . . .| } ~ ~ ~ ~ ~ ~ ^ ) W ~ ~ ~ ~ ~ ) ~ ~ ~ ~ ~ ~ ~ ~ ~ 3 3 3 3 2 3 3 2 > : : : |.|.: 1 : & : |.|.|.|.|.|.|.|.> ~ |.|.|.|.",
"|.|.|.|.|.|.|.|.|.|.|.|.|. . . . . . . . . .] ) ) ) ) ) W ) ) ) ~ ~ ~ ~ ^ ^ ) ) ~ ~ ~ ~ ~ ) ~ ~ ~ ~ ~ W ~ W 3 , : : , : : : > : : : : |.|.|.|.|.|.> > ~ ^ |.|.|.",
"|.|.|.|.|.|.|.|.|.|.|.|.|. . . . . . . . . .[ _ _ ) ) ) ) ) ) ) ~ ~ ~ ~ ~ 7 ) ) ~ ) ~ ~ ~ ~ ~ ~ ^ ~ ^ ) ) ~ ) 3 2 2 2 2 , 2 2 2 > 2 2 2 |.|.|.|.3 , 3 3 ) |.|.|.",
"|.|.|.|.|.|.|.|.|.|.|.|.|.|... . . . . . . .o.#.9 ) , ) ) ) ) ) ~ ~ ~ ~ ~ ~ ) W ~ ) ~ ) ~ ~ ~ ) ) ~ ~ ) ~ ~ ) , ~ W 3 3 , ~ ~ 3 W ~ ~ ~ ^ ~ ~ ~ ~ W ~ ~ |.|.|.|.",
"|.|.|.|.|.|.|.|.|.|.|.|.|.|.|. . . . ... . .#.f d ` ) ) ) , ) ) ' ~ ~ ~ ~ ~ ~ ~ ~ ~ ~ ~ ~ ) ~ ~ ~ ~ ~ ~ ~ ) ~ ~ ~ ^ ) ) ~ ~ ~ ^ ~ ~ ^ ~ ~ ~ ~ ~ ~ ~ ^ |.|.|.|.|.",
"|.|.|.|.|.|.|.|.|.|.|.|.|.|.|. . . . . . . .%.g S d #.` ) ) W ) ~ ~ ~ ~ ~ ~ ~ ~ ~ W ) ) ' ~ ~ ~ ~ ~ ) ~ ~ ~ ) ~ ' ~ ~ ) ~ ~ ~ ~ ~ ~ ~ ~ ~ ~ ~ ~ ~ ~ |.|.|.|.|.|.",
"|.|.|.|.|.|.|.|.|.|.|.|.|.|.|... . . . . . .%.=.S S g #.) ) ) ) ~ ~ ~ ~ ~ ) ) ~ ~ ) ) ) ~ ~ ~ ~ ) ~ ~ ~ ) ~ ~ ~ ~ ~ ~ ~ ' ~ ~ ~ ~ ~ ~ ~ ~ ~ ~ ~ ^ |.|.|.|.|.|.|.",
"|.|.|.|.|.|.|.|.|.|.|.|.|.|.|.|... . .:.%.%.&.5.D 6.5.#.) ) ) ) ) ~ ~ ) ) ) ) ~ ~ ) ) ~ ~ ~ ~ ~ W ) ) ~ W ) ) ~ ~ ~ ~ ~ ~ ~ ~ ~ ~ ~ ~ ~ ~ ~ ^ ^ |.|.|.|.|.|.|.|.",
"|.|.|.|.|.|.|.|.|.|.|.|.|.|.|.|.|... .:.&.*.5.5.D D 5.#.) ) W ) ~ ~ ~ ~ ) ) W ~ ~ ~ ~ ~ ~ ~ ~ ~ ) ) ) ~ ) ) ) ~ ~ ~ ~ ~ ~ ~ ' ~ ~ ~ ~ ' |.|.|.|.|.|.|.|.|.|.|.|.",
"|.|.|.|.|.|.|.|.|.|.|.|.|.|.|.|.|.|. .>.*.S 6.5.6.6.=.f _ ) ) ) ~ ~ ) ~ ~ ) ~ ~ ~ ~ ~ ) ) ) ~ ~ ~ ) ~ ~ ~ ) ~ ~ ~ ~ ~ ~ ^ ~ ~ ~ / ^ ^ |.|.|.|.|.|.|.|.|.|.|.|.|.",
"|.|.|.|.|.|.|.|.|.|.|.|.|.|.|.|.|.|.|.&.5.D 6.6.5.5.S g t 8 7 ) ~ ~ ~ ~ ~ ~ ~ ~ ~ ) ) W 7 ) ~ ~ ~ ~ ~ ~ ~ ~ ~ ) ~ ~ ~ |.|.|.|.|.|./ |.|.|.|.|.|.|.|.|.|.|.|.|.|.",
"|.|.|.|.|.|.|.|.|.|.|.|.|.|.|.|.|.|.|.|.5.5.5.5.S 5.S g s t 8 W ~ ~ ~ ~ ) ~ ~ ) ~ ~ ) ) ^ ~ ~ ~ ~ ~ ~ ) ~ ~ ~ ~ ~ ~ |.|.|.|.|.|.|.|.|.|.|.|.|.|.|.|.|.|.|.|.|.|.",
"|.|.|.|.|.|.|.|.|.|.|.|.|.|.|.|.|.|.|.|.6.5.6.5.5.6.S h a p 9 8 ) ) ) ~ W ~ ~ ~ ~ ~ ) ) ^ ~ ~ ~ ~ ) ~ ~ ~ ) ~ ~ ~ ~ |.|.|.|.|.|.|.|.|.|.|.|.|.|.|.|.|.|.|.|.|.|.",
"|.|.|.|.|.|.|.|.|.|.|.|.|.|.|.|.|.|.|.|.6.6.D S 6.6.S h a a p 9 8 ) W ) ) ) ) ~ ~ ~ ~ ) ~ ~ ~ ~ ~ ) ~ ~ ^ ~ ~ ~ ~ ~ ~ ~ ~ ~ ~ ~ ~ |.|.|.|.|.|.|.|.|.|.|.|.|.|.|.",
"|.|.|.|.|.|.|.|.|.|.|.|.|.|.|.|.|.|.|.|.S 6.S S S S S j a a a a 9 8 ) ) ) ) ~ ~ ~ ) ) W ~ ) ~ ~ ~ ~ ~ ~ ' ~ ~ ~ ~ ~ ~ ~ ~ ' ~ ~ ~ |.|.|.|.|.|.|.|.|.|.|.|.|.|.|.",
"|.|.|.|.|.|.|.|.|.|.|.|.|.|.|.|.|.|.|.6.6.6.S h h S S s a a a a p 9 8 _ ) ) ~ ) ~ ~ ) ) ~ ) ) ) W ) ) ~ ~ ~ ~ ~ ~ ~ ~ ~ ~ ~ ~ ~ |.|.|.|.|.|.|.|.|.|.|.|.|.|.|.|.",
"|.|.|.|.|.|.|.|.|.|.|.|.|.|.|.|.|.|.6.S 5.S h s a |.|.a a a a a a a 9 8 ) W ~ ~ ~ ~ ) ) ) W ) ) ) ~ ~ ~ ~ ~ ~ ~ ' ~ ~ ~ ~ ~ / |.|.|.|.|.|.|.|.|.|.|.|.|.|.|.|.|.",
"|.|.|.|.|.|.|.|.|.|.|.|.|.|.|.|.|.=.g h h h s s a |.|.|.a a a a a a p _ ) ^ ~ ~ ~ ^ ~ ~ ~ ~ ~ ~ ~ ~ ^ ~ ~ ~ ~ ~ ^ ~ ~ ~ ~ ~ |.|.|.|.|.|.|.|.|.|.|.|.|.|.|.|.|.|.",
"|.|.|.|.|.|.|.|.|.|.|.|.|.|.|.|.|.y t y s a s a a |.|.|.|.|.|.|.|.|.|.|.|.^ ~ ~ ~ ' ~ ~ ~ ^ ~ ~ ~ ~ ^ ^ ~ ~ ~ ~ ^ ' |.|.|.|.|.|.|.|.|.|.|.|.|.|.|.|.|.|.|.|.|.|.",
"|.|.|.|.|.|.|.|.|.|.|.|.|.|.|.|.|.$.$.$.f a a a a |.|.|.|.|.|.|.|.|.|.|.|.|.^ ~ ~ ~ ~ ~ ^ ~ ^ / ~ / ~ / ~ ~ ~ ~ ^ |.|.|.|.|.|.|.|.|.|.|.|.|.|.|.|.|.|.|.|.|.|.|.",
"|.|.|.|.|.|.|.|.|.|.|.|.|.|.|.|.|.l.j.7.*.e e a |.|.|.|.|.|.|.|.|.|.|.|.|.|.|.~ ~ ~ ~ ~ ^ / ^ / ~ ~ / ^ / ~ ~ ~ |.|.|.|.|.|.|.|.|.|.|.|.|.|.|.|.|.|.|.|.|.|.|.|.",
"|.|.|.|.|.|.|.|.|.|.|.|.|.|.|.|.|.[.].x.,.t w |.|.|.|.|.|.|.|.|.|.|.|.|.|.|.|.|.|.|.|.|.|.|.|.|.|.|.|.|.|.|.|.|.|.|.|.|.|.|.|.|.|.|.|.|.|.|.|.|.|.|.|.|.|.|.|.|.",
"|.|.|.|.|.|.|.|.|.|.|.|.|.|.|.|.|.[.].x.,.t |.|.|.|.|.|.|.|.|.|.|.|.|.|.|.|.|.|.|.|.|.|.|.|.|.|.|.|.|.|.|.|.|.|.|.|.|.|.|.|.|.|.|.|.|.|.|.|.|.|.|.|.|.|.|.|.|.|.",
"|.|.|.|.|.|.|.|.|.|.|.|.|.|.|.|.|.v.c.j.;.t |.|.|.|.|.|.|.|.|.|.|.|.|.|.|.|.|.|.|.|.|.|.|.|.|.|.|.|.|.|.|.|.|.|.|.|.|.|.|.|.|.|.|.|.|.|.|.|.|.|.|.|.|.|.|.|.|.|.",
"|.|.|.|.|.|.|.|.|.|.|.|.|.|.|.|.|.|.k.7.$.t r |.|.|.|.|.|.|.|.|.|.|.|.|.|.|.|.|.|.|.|.|.|.|.|.|.|.|.|.|.|.|.|.|.|.|.|.|.|.|.|.|.|.|.|.|.|.|.|.|.|.|.|.|.|.|.|.|.",
"|.|.|.|.|.|.|.|.|.|.|.|.|.|.|.|.|.|.k.j.*.t r |.|.|.|.|.|.|.|.|.|.|.|.|.|.|.|.|.|.|.|.|.|.|.|.|.|.|.|.|.|.|.|.|.|.|.|.|.|.|.|.|.|.|.|.|.|.|.|.|.|.|.|.|.|.|.|.|.",
"|.|.|.|.|.|.|.|.|.|.|.|.|.|.|.|.|.k.k.7.$.t w |.|.|.|.|.|.|.|.|.|.|.|.|.|.|.|.|.|.|.|.|.|.|.|.|.|.|.|.|.|.|.|.|.|.|.|.|.|.|.|.|.|.|.|.|.|.|.|.|.|.|.|.|.|.|.|.|.",
"|.|.|.|.|.|.|.|.|.|.|.|.|.|.|.|.|.8.7.,.O.t 8 |.|.|.|.|.|.|.|.|.|.|.|.|.|.|.|.|.|.|.|.|.|.|.|.|.|.|.|.|.|.|.|.|.|.|.|.|.|.|.|.|.|.|.|.|.|.|.|.|.|.|.|.|.|.|.|.|.",
"|.|.|.|.|.|.|.|.|.|.|.|.|.|.|.r t t $.$.t t r |.|.|.|.|.|.|.|.|.|.|.|.|.|.|.|.|.|.|.|.|.|.|.|.|.|.|.|.|.|.|.|.|.|.|.|.|.|.|.|.|.|.|.|.|.|.|.|.|.|.|.|.|.|.|.|.|.",
"|.|.|.|.|.|.|.|.|.|.|.|.|.|.|.t t t t t t t |.|.|.|.|.|.|.|.|.|.|.|.|.|.|.|.|.|.|.|.|.|.|.|.|.|.|.|.|.|.|.|.|.|.|.|.|.|.|.|.|.|.|.|.|.|.|.|.|.|.|.|.|.|.|.|.|.|.",
"|.|.|.|.|.|.|.|.|.|.|.|.|.|.|.|.t t |.|.|.|.|.|.|.|.|.|.|.|.|.|.|.|.|.|.|.|.|.|.|.|.|.|.|.|.|.|.|.|.|.|.|.|.|.|.|.|.|.|.|.|.|.|.|.|.|.|.|.|.|.|.|.|.|.|.|.|.|.|.",
"|.|.|.|.|.|.|.|.|.|.|.|.|.|.|.|.|.|.|.|.|.|.|.|.|.|.|.|.|.|.|.|.|.|.|.|.|.|.|.|.|.|.|.|.|.|.|.|.|.|.|.|.|.|.|.|.|.|.|.|.|.|.|.|.|.|.|.|.|.|.|.|.|.|.|.|.|.|.|.|.",
"|.|.|.|.|.|.|.|.|.|.|.|.|.|.|.|.|.|.|.|.|.|.|.|.|.|.|.|.|.|.|.|.|.|.|.|.|.|.|.|.|.|.|.|.|.|.|.|.|.|.|.|.|.|.|.|.|.|.|.|.|.|.|.|.|.|.|.|.|.|.|.|.|.|.|.|.|.|.|.|."
};
