/* XPM */
static char *result[] = {
/* columns rows colors chars-per-pixel */
"80 80 172 2 ",
"   c #050303",
".  c #07070A",
"X  c #08070C",
"o  c #070A0C",
"O  c #08080C",
"+  c #070E11",
"@  c #0A0C13",
"#  c #0D0F1A",
"$  c #081015",
"%  c #0C121C",
"&  c #3D271E",
"*  c #3F281E",
"=  c #0F1221",
"-  c #0C1824",
";  c #0B1F2B",
":  c #101324",
">  c #111629",
",  c #13182D",
"<  c #0F1A38",
"1  c #151C36",
"2  c #1A1E33",
"3  c #161E3A",
"4  c #191F3D",
"5  c #221F2D",
"6  c #0B202C",
"7  c #0D2536",
"8  c #0E293A",
"9  c #15233D",
"0  c #18203F",
"q  c #23202E",
"w  c #2B2228",
"e  c #2C2227",
"r  c #342524",
"t  c #3E2820",
"y  c #332629",
"u  c #272335",
"i  c #2A2433",
"p  c #262B3C",
"a  c #292D3C",
"s  c #3A2B33",
"d  c #362B39",
"f  c #2A3236",
"g  c #2E3836",
"h  c #2A333A",
"j  c #2F3838",
"k  c #313C3A",
"l  c #41291D",
"z  c #4A2D1C",
"x  c #502F1C",
"c  c #4E311E",
"v  c #54341F",
"b  c #59321B",
"n  c #63381F",
"m  c #733E1F",
"M  c #4B2D20",
"N  c #49302C",
"B  c #533323",
"V  c #5B3A23",
"C  c #4C3333",
"Z  c #5E3931",
"A  c #50373D",
"S  c #533D3F",
"D  c #603D24",
"F  c #723F25",
"G  c #6A3F32",
"H  c #613E3B",
"J  c #36413E",
"K  c #664227",
"L  c #6E482B",
"P  c #724B2C",
"I  c #72412B",
"U  c #6C4135",
"Y  c #7E4730",
"T  c #754D3C",
"R  c #121E47",
"E  c #162145",
"W  c #1B2447",
"Q  c #152148",
"!  c #1B2549",
"~  c #1E284E",
"^  c #1A2B46",
"/  c #10344A",
"(  c #1E2A53",
")  c #1B2758",
"_  c #1D2958",
"`  c #143C59",
"'  c #123751",
"]  c #222643",
"[  c #232B45",
"{  c #2B2D46",
"}  c #222B4B",
"|  c #392E40",
" . c #2D3242",
".. c #2C3748",
"X. c #263044",
"o. c #303246",
"O. c #3F3140",
"+. c #323C43",
"@. c #38374C",
"#. c #343C4B",
"$. c #383D4F",
"%. c #222C56",
"&. c #222E59",
"*. c #263155",
"=. c #293454",
"-. c #24305D",
";. c #363D53",
":. c #303555",
">. c #1E3D65",
",. c #213F6C",
"<. c #403B46",
"1. c #14415F",
"2. c #3A4542",
"3. c #3B4355",
"4. c #3F485A",
"5. c #3D475A",
"6. c #154261",
"7. c #194A6E",
"8. c #234677",
"9. c #4B4246",
"0. c #5C4C45",
"q. c #504445",
"w. c #5F504D",
"e. c #4F4750",
"r. c #434C5C",
"t. c #404B54",
"y. c #5C5751",
"u. c #735A44",
"i. c #7B5C42",
"p. c #596152",
"a. c #7D6144",
"s. c #7C674C",
"d. c #606351",
"f. c #6C7551",
"g. c #424D63",
"h. c #495363",
"j. c #4A5566",
"k. c #4D5B72",
"l. c #54647D",
"z. c #8B4B2A",
"x. c #904D2B",
"c. c #814B34",
"v. c #8C4E32",
"b. c #836544",
"n. c #8E6B45",
"m. c #916F47",
"M. c #967043",
"N. c #987243",
"B. c #A57A42",
"V. c #A27742",
"C. c #89864E",
"Z. c #BC8A42",
"A. c #AF9248",
"S. c #A8AC4B",
"D. c #BAB049",
"F. c #C89141",
"G. c #C09344",
"H. c #DB9F41",
"J. c #DDA341",
"K. c #DABD44",
"L. c #EFB440",
"P. c #E4B541",
"I. c #D8D146",
"U. c #F8CA40",
"Y. c #F2D842",
"T. c #1B5A86",
"R. c #1A5782",
"E. c #205889",
"W. c #1F699D",
"Q. c #23679F",
"!. c #5D6F8B",
"~. c None",
/* pixels */
"~.~.~.~.~.~.~.~.~.~.~.~.~.~.~.~.~.~.~.~.~.~.~.~.~.~.~.~.~.~.~.~.~.~.~.~.~.~.~.~.~.~.~.~.~.~.~.~.~.~.~.~.~.~.~.~.~.~.~.~.~.~.~.~.~.~.~.~.~.~.~.~.~.~.~.~.~.~.~.~.",
"~.~.~.~.~.~.~.~.~.~.~.~.~.~.~.~.~.~.~.~.~.~.~.~.~.~.~.~.~.~.~.~.~.~.~.~.~.~.~.~.~.~.~.~.~.~.~.~.~.~.~.~.~.~.~.~.~.~.~.~.~.~.~.~.~.~.~.~.~.~.~.~.~.~.~.~.~.~.~.~.",
"~.~.~.~.~.~.~.~.~.~.~.~.~.~.~.~.~.~.~.~.~.~.~.~.~.~.~.~.~.~.~.~.~.~.~.~.~.~.~.~.~.~.~.~.~.~.~.~.~.~.~.~.~.~.~.~.~.~.~.~.~.~.~.~.~.~.~.~.~.~.~.~.~.~.~.~.~.~.~.~.",
"~.~.~.~.~.~.~.~.~.~.~.~.~.~.~.~.~.~.~.~.~.~.~.~.~.~.~.~.~.~.~.~.~.~.~.~.~.~.~.~.~.~.~.~.~.~.~.~.~.~.~.~.~.~.~.~.~.~.~.~.~.~.~.~.~.~.~.~.~.~.~.~.~.~.~.~.~.~.~.~.",
"~.~.~.~.~.~.~.~.~.~.~.~.~.~.~.~.~.~.~.~.~.~.~.~.~.~.~.~.~.~.~.~.~.~.~.~.~.~.~.~.~.~.~.~.~.~.~.~.~.~.~.~.~.~.~.~.~.~.~.~.~.~.~.~.~.~.~.~.~.~.~.~.~.~.~.~.~.~.~.~.",
"~.~.~.~.~.~.~.~.~.~.~.~.~.~.~.~.~.~.~.~.~.~.~.~.~.~.~.~.~.~.~.~.~.~.~.~.~.~.~.~.~.~.~.~.~.~.~.~.~.~.~.~.~.~.~.~.~.~.~.~.~.~.~.~.~.~.~.~.~.~.~.~.~.~.~.~.~.~.~.~.",
"~.~.~.~.~.~.~.~.~.~.~.~.~.~.~.~.~.~.~.~.~.~.~.~.~.~.~.~.~.~.~.~.~.~.~.~.~.~.~.~.~.~.~.~.~.~.~.~.~.~.~.~.~.~.~.~.~.~.~.~.~.~.~.~.~.~.~.~.~.~.~.~.~.~.~.~.~.~.~.~.",
"~.~.~.~.~.~.~.~.~.~.~.~.~.~.~.~.~.~.~.~.~.~.~.~.~.~.~.~.~.~.~.~.~.~.~.~.~.~.~.~.~.~.~.~.~.~.~.~.~.~.~.~.~.~.~.~.~.~.~.~.~.~.~.~.~.~.~.~.~.~.~.~.~.~.~.~.~.~.~.~.",
"~.~.~.~.~.~.~.~.~.~.~.~.~.~.~.~.~.~.~.~.~.~.~.~.~.~.~.~.~.~.~.~.~.~.~.~.~.~.~.~.~.~.~.~.~.~.~.~.~.~.~.~.~.~.~.~.~.~.~.~.~.~.~.~.~.~.~.~.~.~.~.~.~.~.~.~.~.~.~.~.",
"~.~.~.~.~.~.~.~.~.~.~.~.~.~.~.~.~.~.~.~.~.~.~.~.~.~.~.~.~.~.~.~.~.~.~.~.~.~.~.~.~.~.~.~.~.~.~.~.~.~.~.~.~.~.~.~.~.~.~.~.~.~.~.~.~.~.~.~.~.~.~.~.~.~.~.~.~.~.~.~.",
"~.~.~.~.~.~.~.~.~.~.~.~.~.~.~.~.~.~.~.~.~.~.~.~.~.~.~.~.~.~.~.~.~.~.~.~.~.~.~.~.~.~.~.~.~.~.~.~.~.~.~.~.~.~.~.~.~.~.~.~.~.~.~.~.~.~.~.~.~.~.~.~.~.~.~.~.~.~.~.~.",
"~.~.~.~.~.~.~.~.~.~.~.~.~.~.~.~.~.~.~.~.~.~.~.~.~.~.~.~.~.~.~.~.~.~.~.~.~.~.~.~.~.~.~.~.~.~.~.~.~.~.~.~.~.~.~.~.~.~.~.~.~.~.~.~.~.~.~.~.~.~.~.~.~.~.~.~.~.~.~.~.",
"~.~.~.~.~.~.~.~.~.~.~.~.~.~.~.~.~.~.~.~.~.~.~.~.~.~.~.~.~.~.~.~.~.~.~.~.~.~.~.~.~.~.~.~.~.~.~.~.~.~.~.~.~.~.~.~.~.~.~.~.~.~.~.~.~.~.~.~.~.~.~.~.~.~.~.~.~.~.~.~.",
"~.~.~.~.~.~.~.~.~.~.~.~.~.~.~.~.~.~.~.~.~.~.~.~.~.~.~.~.~.~.~.~.~.~.~.~.~.~.~.~.~.~.~.~.~.~.~.~.~.~.~.~.~.~.~.~.~.~.~.~.~.~.~.~.~.~.~.~.~.~.~.~.~.~.~.~.~.~.~.~.",
"~.~.~.~.~.~.~.~.~.~.~.~.~.~.~.~.~.~.~.~.~.~.~.~.~.~.~.~.~.~.~.~.~.~.~.~.~.~.~.~.~.~.~.~.~.~.~.~.~.~.~.~.~.~.~.~.~.~.~.~.~.~.~.~.~.~.~.~.~.~.~.~.~.~.~.~.~.~.~.~.",
"~.~.~.~.~.~.~.~.~.~.~.~.~.~.~.~.~.~.~.~.~.~.~.~.~.~.~.~.~.~.~.~.~.~.~.~.~.~.~.~.~.~.~.~.~.~.~.~.~.~.~.~.~.~.~.~.~.~.~.~.~.~.~.~.~.~.~.~.~.~.~.~.~.~.~.~.~.~.~.~.",
"~.~.~.~.~.~.~.~.~.~.~.~.~.~.~.~.~.~.~.~.~.~.~.~.~.~.~.~.~.~.~.~.~.~.~.~.~.~.~.~.~.~.~.~.~.~.~.~.~.~.~.~.~.~.~.~.~.~.~.~.~.~.~.~.~.~.~.~.~.~.~.~.~.~.~.~.~.~.~.~.",
"~.~.~.~.~.~.~.~.~.~.~.~.~.~.~.~.~.~.~.~.~.~.( ! W W ! ! ! ~.~.1 1 1 ~.~.~.~.~.~.~.~.~.~.~.~.~.~.~.~.~.~.~.~.~.~.~.~.~.~.~.~.~.~.~.~.~.~.~.~.~.~.~.~.~.~.~.~.~.~.",
"~.~.~.~.~.~.~.~.~.~.~.~.~.~.~.~.~.~.~.~.%.%.} ! W ! W ! ! 0 3 1 1 1 1 ~.~.~.~.~.~.~.~.~.~.~.~.~.~.~.~.~.~.~.~.~.~.~.~.~.~.~.~.~.~.~.~.~.~.~.~.~.~.~.~.~.~.~.~.~.",
"~.~.~.~.~.~.~.~.~.~.~.~.~.~.~.~.~.~.~.%.%.( ~ ! W W W W E 0 3 2 1 1 2 ~.~.~.~.~.~.~.~.~.~.~.~.~.~.~.~.~.~.~.~.~.~.~.~.~.~.~.~.~.~.~.~.~.~.~.~.~.~.~.~.~.~.~.~.~.",
"~.~.~.~.~.~.~.~.~.~.~.~.~.~.~.~.&.%.%.%.! ! ! ! W W W 0 4 3 2 1 1 ~.~.& l ~.~.~.~.~.~.~.~.~.~.~.~.~.~.~.~.~.~.~.~.~.~.~.~.~.~.~.~.~.~.~.~.~.~.~.~.~.~.~.~.~.~.~.",
"~.~.~.~.~.~.~.~.~.~.~.~.~.~.~.%.%.&.%.} ! ! ! ! W W W R 3 1 1 1 1 ~.~.z z z ~.~.~.~.~.~.~.~.~.~.~.~.~.~.~.~.~.~.~.~.~.~.~.~.~.~.~.~.~.~.~.~.~.~.~.~.~.~.~.~.~.~.",
"~.~.~.~.~.~.~.~.~.~.~.~.~.~.*.&.&.&.%.%.! ! W W W W W 4 1 1 1 1 2 M v V V V ~.~.~.~.~.~.~.~.~.~.~.~.~.~.~.~.~.~.~.~.~.~.~.~.~.~.~.~.~.~.~.~.~.~.~.~.~.~.~.~.~.~.",
"~.~.~.~.~.~.~.~.~.~.~.~.~.&.%.%.%.&.%.%.! W W W W W W 4 3 1 1 1 e l v D L L ~.~.~.~.~.~.~.~.~.~.~.~.~.~.~.~.~.~.~.~.~.~.~.~.~.~.~.~.~.~.~.~.~.~.~.~.~.~.~.~.~.~.",
"~.~.~.~.~.~.~.~.~.~.~.~.%.%.} ! W ! } %.~ W W W W W W R 1 1 1 2 e * v K P ~.~.~.~.~.~.~.~.~.~.~.~.~.~.~.~.~.~.~.~.~.~.~.~.~.~.~.~.~.~.~.~.~.~.~.~.~.~.~.~.~.~.~.",
"~.~.~.~.~.~.~.~.~.~.~.~.-.%.! , = 1 ! ! ~ ] W W W W W 4 1 1 < 2 e * v K P ~.~.~.~.~.~.~.~.~.~.~.~.~.~.~.~.~.~.~.~.~.~.~.~.~.~.~.~.~.~.~.~.~.~.~.~.~.~.~.~.~.~.~.",
"~.~.~.~.~.~.~.~.~.~.~.~.-.%.0 % . = 1 E 4 0 W W ! W W 4 3 1 1 2 e * v K P ~.~.~.~.~.~.~.~.~.~.~.~.~.~.~.~.~.~.~.~.~.~.~.~.~.~.~.~.~.~.~.~.~.~.~.~.~.~.~.~.~.~.~.",
"~.~.~.~.~.~.~.~.~.~.~.~.-.%.0 @   . = : = : , ! ! ! W 4 1 1 1 2 e * B K P ~.~.~.~.~.~.~.~.~.~.~.~.~.~.~.~.~.~.~.~.~.~.~.~.~.~.~.~.~.~.~.~.~.~.~.~.~.~.~.~.~.~.~.",
"~.~.~.~.~.~.~.~.~.~.~.~.-.%.W %     . . . $ > 0 ! ! W 3 1 1 1 2 e l v K P P ~.~.~.~.~.~.~.~.~.~.~.~.~.~.~.~.~.~.~.~.~.~.~.~.~.~.~.~.~.~.~.~.~.~.~.~.~.~.~.~.~.~.",
"~.~.~.~.~.~.~.~.~.~.~.~.&.%.( ^ 8 % . + 6 8 7 9 3 0 W W 4 3 1 2 e * v V K D ~.~.~.~.~.~.~.~.~.~.~.~.~.~.~.~.~.~.~.~.~.~.~.~.~.~.~.~.~.~.~.~.~.~.~.~.~.~.~.~.~.~.",
"~.~.~.~.~.~.~.~.~.~.~.~.%.%.,.E.T./ $ 6 7.T.1.- : 1 W W E 4 3 2 e & z z B c z ~.~.~.~.~.~.~.~.~.~.~.~.~.~.~.~.~.~.~.~.~.~.~.~.~.~.~.~.~.~.~.~.~.~.~.~.~.~.~.~.~.",
"~.~.~.~.~.~.~.~.~.~.~.~.~.&.8.Q.Q.1.$ 7 R.Q.1.$ @ , W ! W E 3 2 y z v z l l l l ~.~.~.~.~.~.~.~.~.~.~.~.~.~.~.~.~.~.~.~.~.~.~.~.~.~.~.~.~.~.~.~.~.~.~.~.~.~.~.~.",
"~.~.~.~.~.~.~.~.~.~.~.~.~.~.,.7.6.7 + % ' 6.8 O @ , R W ] R < 2 N F m b l & r 5 ~.~.~.~.~.~.~.~.~.~.~.~.~.~.~.~.~.~.~.~.~.~.~.~.~.~.~.~.~.~.~.~.~.~.~.~.~.~.~.~.",
"~.~.~.~.~.~.~.~.~.~.~.~.~.~.~.% $ o . . $ $ o . @ 2 ! ~ ] R R u Z x.z.D l 5 5 2 ~.~.~.~.~.~.~.~.~.~.~.~.~.~.~.~.~.~.~.~.~.~.~.~.~.~.~.~.~.~.~.~.~.~.~.~.~.~.~.~.",
"~.~.~.~.~.~.~.~.~.~.~.~.~.~.~..             . @ : 3 ! ! R ] | C G Y I B r 5 2 1 1 ~.~.~.~.~.~.~.~.~.~.~.~.~.~.~.~.~.~.~.~.~.~.~.~.~.~.~.~.~.~.~.~.~.~.~.~.~.~.~.",
"~.~.~.~.~.~.~.~.~.~.~.~.~.%.2 @             @ , 4 R ~ R R C G Y G C s w 5 2 1 1 3 1 ~.~.~.~.~.~.~.~.~.~.~.~.~.~.~.~.~.~.~.~.~.~.~.~.~.~.~.~.~.~.~.~.~.~.~.~.~.~.",
"~.~.~.~.~.~.~.~.~.~.~.~.~.%.0 #     . . . @ > 4 ] ~ ! ] { <.z.z.Z u 1 1 1 1 1 1 1 1 1 ~.~.~.~.~.~.~.~.~.~.~.~.~.~.~.~.~.~.~.~.~.~.~.~.~.~.~.~.~.~.~.~.~.~.~.~.~.",
"~.~.~.~.~.~.~.~.~.~.~.~.-.%.0 # . o = = : > 2 W W R ] | H G G G s 1 < 1 1 1 1 1 1 1 1 1 ~.~.~.~.~.~.~.~.~.~.~.~.~.~.~.~.~.~.~.~.~.~.~.~.~.~.~.~.~.~.~.~.~.~.~.~.",
"~.~.~.~.~.~.~.~.~.~.~.~.-.%.0 % O % 3 E R R R ! ! R { H v.c.C i 3 1 1 1 1 1 1 1 1 1 1 1 1 ~.~.~.~.~.~.~.~.~.~.~.~.~.~.~.~.~.~.~.~.~.~.~.~.~.~.~.~.~.~.~.~.~.~.~.",
"~.~.~.~.~.~.~.~.~.~.~.~.%.%.W > % , W ! ] ! W W { <.0.T c.G d 3 1 1 1 1 1 1 1 1 1 1 1 1 1 1 ~.~.~.~.~.~.~.~.~.~.~.~.~.~.~.~.~.~.~.~.~.~.~.~.~.~.~.~.~.~.~.~.~.~.",
"~.~.~.~.~.~.~.~.~.~.~.~.&.%.~ 0 1 4 ! ! ! W R W <.a.N.i.<.C ] R 3 1 1 1 1 1 1 1 1 1 1 1 1 1 1 ~.~.~.~.~.~.~.~.~.~.~.~.~.~.~.~.~.~.~.~.~.~.~.~.~.~.~.~.~.~.~.~.~.",
"~.~.~.~.~.~.~.~.~.~.~.~.&.&.%.! ! W W W W ! ] o.0.N.B.u.o.R R W R 3 1 1 1 1 1 1 1 1 1 1 1 1 1 1 ~.~.~.~.~.~.~.~.~.~.~.~.~.~.~.~.~.~.~.~.~.~.~.~.~.~.~.~.~.~.~.~.",
"~.~.~.~.~.~.~.~.~.~.~.~.%.%.%.%.( ~ R R R ] 9.u.b.b.u.9.} R ! W E 4 4 1 1 1 1 1 1 1 1 1 1 1 1 1 1 ~.~.~.~.~.~.~.~.~.~.~.~.~.~.~.~.~.~.~.~.~.~.~.~.~.~.~.~.~.~.~.",
"~.~.~.~.~.~.~.~.~.~.~.~.%.&.&.%.%.] ! W R ..u.B.M.0.o.] ] W W W ! W E 3 1 1 1 1 1 1 1 1 1 1 1 1 1 1 ~.~.~.~.~.~.~.~.~.~.~.~.~.~.~.~.~.~.~.~.~.~.~.~.~.~.~.~.~.~.",
"~.~.~.~.~.~.~.~.~.~.~.~.%.&.&.&.%.$.9.e.q.0.b.N.b.<.R R W ! W ! W W W 3 3 2 3 1 1 1 1 1 1 1 1 1 1 1 1 ~.~.~.~.~.~.~.~.~.~.~.~.~.~.~.~.~.~.~.~.~.~.~.~.~.~.~.~.~.",
"~.~.~.~.~.~.~.~.~.~.~.~.&.&._ &.:.w.n.V.V.M.i.0.<.} ! W W W W W ! W W W E 4 2 1 1 1 1 1 1 1 1 1 1 1 1 1 1 1 ~.~.~.~.~.~.~.~.~.~.~.~.~.~.~.~.~.~.~.~.~.~.~.~.~.~.",
"~.~.~.~.~.~.~.~.~.~.~.~.~.%.%.) ;.s.Z.J.J.Z.u.@.W Q W W W W W W W W ! W W 3 3 1 1 1 1 1 1 1 1 1 1 1 1 1 1 1 1 ~.~.~.~.~.~.~.~.~.~.~.~.~.~.~.~.~.~.~.~.~.~.~.~.~.",
"~.~.~.~.~.~.~.~.~.~.~.~.~.~.) %.$.C.K.U.L.F.i.{ R R W W W W ! W W W W W W W 0 3 3 1 1 1 2 1 1 1 1 1 1 1 1 1 1 1 ~.~.~.~.~.~.~.~.~.~.~.~.~.~.~.~.~.~.~.~.~.~.~.~.",
"~.~.~.~.~.~.~.~.~.~.~.~.~.~.~._ 3.C.I.Y.P.Z.u.o.Q R ! ! W W W W W ! W W W W W 4 3 1 1 1 1 1 1 1 1 1 1 1 1 1 1 1 1 ~.~.~.~.~.~.~.~.~.~.~.~.~.~.~.~.~.~.~.~.~.~.~.",
"~.~.~.~.~.~.~.~.~.~.~.~.~.~.~._ ;.f.S.D.A.m.0.X.W W W ! ! W ! W W W W W W W W W E 3 3 2 3 3 3 3 1 3 1 1 1 1 1 1 1 1 ~.~.~.~.~.~.~.~.~.~.~.~.~.~.~.~.~.~.~.~.~.~.",
"~.~.~.~.~.~.~.~.~.~.~.~.~.~.~.%.=.t.p.d.y.e.@.[ W W W W W W W W W W W ! W W ! W W 0 0 W E W 4 4 1 1 1 1 1 1 1 1 1 1 1 1 1 1 ~.~.~.~.~.~.~.~.~.~.~.~.~.~.~.~.~.~.",
"~.~.~.~.~.~.~.~.~.~.~.~.~.~.~.&.%.*.%.-.-.*.~ ! W W W ! ! W W ! W ! W W W ! W W W ! W ! W W W 4 3 3 3 2 1 3 1 2 2 3 3 1 1 1 1 ~.~.~.~.~.~.~.~.~.~.~.~.~.~.~.~.~.",
"~.~.~.~.~.~.~.~.~.~.~.~.~.~.~.~.&.) ) ) ) ( ~ ! W W W W W W W W W W ! W W W W W W W W W ! ! W W E 0 0 0 0 0 3 0 0 3 0 3 3 1 1 1 ~.1 ~.~.~.~.~.~.~.~.~.~.~.~.~.~.",
"~.~.~.~.~.~.~.~.~.~.~.~.~.~.~.~.~.%.%.%.&.( ~ ! W W W W W W W W W W W W W ! ! W W ! ! W W W W W W E 0 W E W W W ! W W 0 3 1 1 1 1 1 1 ~.~.~.~.~.~.~.~.~.~.~.~.~.",
"~.~.~.~.~.~.~.~.~.~.~.~.~.~.~.~.~.~.%.&.&.%.%.! ! W W W W W W W ! W W ! W W ! W W ! W W W W W W W ! ! ! ! ! W ! ! W W W 0 3 3 3 3 1 1 1 ~.~.~.~.~.~.~.~.~.~.~.~.",
"~.~.~.~.~.~.~.~.~.~.~.~.~.~.~.~.~.%.&.%.&.%.%.( ~ ~ W W W W W ! W W W W W W W W W W W W ! W W W W W W W W ! W W W W ! W W 0 W E 0 3 1 1 1 1 1 1 ~.~.~.~.~.~.~.~.",
"~.~.~.~.~.~.~.~.~.~.~.~.~.~.~.~.~.~.*.%.&.%.%.%.%.} W W W W W W W W W ! W W ! W W W W W W W W ! W W W W W W W W ! W W W W W W W W 3 2 1 1 1 1 1 1 ~.~.~.~.~.~.~.",
"~.~.~.~.~.~.~.~.~.~.~.~.~.~.~.~.~.~.~.&.%.&.&.&.~ ! ! W W W ! W W W W W W W W W W W ! W ! W W W W W ! W W W ! W W W W W ! W W ! E E 0 3 3 1 1 1 1 1 1 1 ~.~.~.~.",
"~.~.~.~.~.~.~.~.~.~.~.~.~.~.~.~.~.~.~.~.%.&.%.%.%.! W W ! W W W ! W W W W W W ! W W W W W W W W ! W ! W ! W W W W W W ! W W W W W W W 4 1 1 1 1 1 1 1 1 1 ~.~.~.",
"~.~.~.~.~.~.~.~.~.~.~.~.~.~.~.~.~.~.~.~.~.%.=.=.} ! W W W W ! W W W ! W ! W W W W W ] W W W ! W W W W W W W ! W W ! W W W W ! W W W W 0 3 1 1 1 1 1 3 1 2 ~.~.~.",
"~.~.~.~.~.~.~.~.~.~.~.~.~.~.~.~.~.~.~.~.~.~...#...} ! ! W W W W ! W W W W W ! W W W W W W W W W W W W W W W ! W W W ! W ~.~.~.~.~.~.~.~.~.~.~.~.~.~.~.~.~.~.~.~.",
"~.~.~.~.~.~.~.~.~.~.~.~.~.~.~.~.~.~.~.~.~.~.2.2.+.X.W ! W W W W W W W ! W W W W W ! W ! W W ! W W ! ! W W W W W W W W W ~.~.~.~.~.~.~.~.~.~.~.~.~.~.~.~.~.~.~.~.",
"~.~.~.~.~.~.~.~.~.~.~.~.~.~.~.~.~.~.~.~.~.~.~.2.2.h p ^ W W W W W W W W W W W W W W ! W W ! ! W W ! W W W ! W ! ! W W W ! ~.~.~.~.~.~.~.~.~.~.~.~.~.~.~.~.~.~.~.",
"~.~.~.~.~.~.~.~.~.~.~.~.~.~.~.~.~.~.~.~.~.~.~.2.J k f p ] W W W ! W W W ! W W ! W W W W W W W W W W W W W W W W W W ! W W ! ~.~.~.~.~.~.~.~.~.~.~.~.~.~.~.~.~.~.",
"~.~.~.~.~.~.~.~.~.~.~.~.~.~.~.~.~.~.~.~.~.~.2.2.J k g h X.[ ! W ! W W W W W ! W W W ! W W W W W W W W W ! W W W W W W W W W W ~.~.~.~.~.~.~.~.~.~.~.~.~.~.~.~.~.",
"~.~.~.~.~.~.~.~.~.~.~.~.~.~.~.~.~.~.~.~.~.~.2.2.J k g k +...[ W E W ! W ! W W W W W W W W ! W ! W W W W W W W ! W ! ! W W ! ! W ! ~.~.~.~.~.~.~.~.~.~.~.~.~.~.~.",
"~.~.~.~.~.~.~.~.~.~.~.~.~.~.~.~.~.~.~.~.~.~.~.2.J k g k 2.2.[ ! ! W W W W W ! W W W W W W W ! W ! W W W W W W W W W ! W W W ! W ! ~.~.~.~.~.~.~.~.~.~.~.~.~.~.~.",
"~.~.~.~.~.~.~.~.~.~.~.~.~.~.~.~.~.~.~.~.~.~.~.~.k f f j j j a ] ! W ! W W W W W W W W ! W W W E W W W ! ~.! W W W W W W W W W W ~.~.~.~.~.~.~.~.~.~.~.~.~.~.~.~.",
"~.~.~.~.~.~.~.~.~.~.~.~.~.~.~.~.~.~.~.~.~.~.~.~.~.p h h h h h p ] W W W W W ! ! ! W ! W ! W ! ! ! ! ~.~.~.~.~.! W W W ! ~.~.~.~.~.~.~.~.~.~.~.~.~.~.~.~.~.~.~.~.",
"~.~.~.~.~.~.~.~.~.~.~.~.~.~.~.~.~.~.~.~.~.~.~.~.~.3.3.+.j h h a p ! W W ! W W ! ] ] W ! W W ! ! ! ~.~.~.~.~.~.~.! ! W ~.~.~.~.~.~.~.~.~.~.~.~.~.~.~.~.~.~.~.~.~.",
"~.~.~.~.~.~.~.~.~.~.~.~.~.~.~.~.~.~.~.~.~.~.~.~.~.l.k.5.X.f f f h ~.~.~.~.~.~.] p p ] ~.~.~.~.~.~.~.~.~.~.~.~.~.~.~.~.~.~.~.~.~.~.~.~.~.~.~.~.~.~.~.~.~.~.~.~.~.",
"~.~.~.~.~.~.~.~.~.~.~.~.~.~.~.~.~.~.~.~.~.~.~.~.~.!.l.g. .f f g ~.~.~.~.~.~.~.~.p a ~.~.~.~.~.~.~.~.~.~.~.~.~.~.~.~.~.~.~.~.~.~.~.~.~.~.~.~.~.~.~.~.~.~.~.~.~.~.",
"~.~.~.~.~.~.~.~.~.~.~.~.~.~.~.~.~.~.~.~.~.~.~.~.~.l.k.r. .p f ~.~.~.~.~.~.~.~.~.~.~.~.~.~.~.~.~.~.~.~.~.~.~.~.~.~.~.~.~.~.~.~.~.~.~.~.~.~.~.~.~.~.~.~.~.~.~.~.~.",
"~.~.~.~.~.~.~.~.~.~.~.~.~.~.~.~.~.~.~.~.~.~.~.~.~.j.r.3.h p ~.~.~.~.~.~.~.~.~.~.~.~.~.~.~.~.~.~.~.~.~.~.~.~.~.~.~.~.~.~.~.~.~.~.~.~.~.~.~.~.~.~.~.~.~.~.~.~.~.~.",
"~.~.~.~.~.~.~.~.~.~.~.~.~.~.~.~.~.~.~.~.~.~.~.~.~.j.r.3.h p ~.~.~.~.~.~.~.~.~.~.~.~.~.~.~.~.~.~.~.~.~.~.~.~.~.~.~.~.~.~.~.~.~.~.~.~.~.~.~.~.~.~.~.~.~.~.~.~.~.~.",
"~.~.~.~.~.~.~.~.~.~.~.~.~.~.~.~.~.~.~.~.~.~.~.~.~.j.h.$.{ p ~.~.~.~.~.~.~.~.~.~.~.~.~.~.~.~.~.~.~.~.~.~.~.~.~.~.~.~.~.~.~.~.~.~.~.~.~.~.~.~.~.~.~.~.~.~.~.~.~.~.",
"~.~.~.~.~.~.~.~.~.~.~.~.~.~.~.~.~.~.~.~.~.~.~.~.~.r.r.$.h p ~.~.~.~.~.~.~.~.~.~.~.~.~.~.~.~.~.~.~.~.~.~.~.~.~.~.~.~.~.~.~.~.~.~.~.~.~.~.~.~.~.~.~.~.~.~.~.~.~.~.",
"~.~.~.~.~.~.~.~.~.~.~.~.~.~.~.~.~.~.~.~.~.~.~.~.r.3.@...{ p ~.~.~.~.~.~.~.~.~.~.~.~.~.~.~.~.~.~.~.~.~.~.~.~.~.~.~.~.~.~.~.~.~.~.~.~.~.~.~.~.~.~.~.~.~.~.~.~.~.~.",
"~.~.~.~.~.~.~.~.~.~.~.~.~.~.~.~.~.~.~.~.~.~.~.h.5.#.d a a a ~.~.~.~.~.~.~.~.~.~.~.~.~.~.~.~.~.~.~.~.~.~.~.~.~.~.~.~.~.~.~.~.~.~.~.~.~.~.~.~.~.~.~.~.~.~.~.~.~.~.",
"~.~.~.~.~.~.~.~.~.~.~.~.~.~.~.~.~.~.~.~.~.~.j.h.3.+.p p a a ~.~.~.~.~.~.~.~.~.~.~.~.~.~.~.~.~.~.~.~.~.~.~.~.~.~.~.~.~.~.~.~.~.~.~.~.~.~.~.~.~.~.~.~.~.~.~.~.~.~."
};
