/* XPM */
static char *result[] = {
/* columns rows colors chars-per-pixel */
"80 80 181 2 ",
"   c #040302",
".  c #070709",
"X  c #060A0C",
"o  c #08080C",
"O  c #070E11",
"+  c #0B0C14",
"@  c #0C0E19",
"#  c #0B121C",
"$  c #081117",
"%  c #12161B",
"&  c #3F281E",
"*  c #0C1824",
"=  c #0E1927",
"-  c #101324",
";  c #111629",
":  c #13182D",
">  c #1C1D2F",
",  c #0F1B3D",
"<  c #151C36",
"1  c #1B1E33",
"2  c #161D3A",
"3  c #191F39",
"4  c #0C202D",
"5  c #1F262D",
"6  c #0F293B",
"7  c #0D2536",
"8  c #18203E",
"9  c #182239",
"0  c #29222A",
"q  c #21282B",
"w  c #3A2721",
"e  c #22253A",
"r  c #262B3C",
"t  c #282C3C",
"y  c #282435",
"u  c #3A2B34",
"i  c #2E3935",
"p  c #26313E",
"a  c #2A343B",
"s  c #2E393A",
"d  c #323D3B",
"f  c #452A1B",
"g  c #4B2E1D",
"h  c #4D301E",
"j  c #52321F",
"k  c #422B2B",
"l  c #533520",
"z  c #5A3A23",
"x  c #402E35",
"c  c #4F3435",
"v  c #46343A",
"b  c #52383C",
"n  c #583731",
"m  c #623C25",
"M  c #673E31",
"N  c #35403D",
"B  c #38433F",
"V  c #4A433D",
"C  c #534C3F",
"Z  c #6B4528",
"A  c #6A4528",
"S  c #75422F",
"D  c #7A4E2B",
"F  c #7A422B",
"G  c #7C522E",
"H  c #6A4138",
"J  c #6F4234",
"K  c #7A4632",
"L  c #7D4B37",
"P  c #131E47",
"I  c #141E49",
"U  c #162147",
"Y  c #1B2447",
"T  c #1F2845",
"R  c #16224A",
"E  c #1B2549",
"W  c #1F284E",
"Q  c #152E4A",
"!  c #11344B",
"~  c #1E2A52",
"^  c #1D2A58",
"/  c #133A56",
"(  c #222746",
")  c #242B43",
"_  c #2D2942",
"`  c #222B4D",
"'  c #2C2F49",
"]  c #3A2F41",
"[  c #2D3343",
"{  c #26304C",
"}  c #28324F",
"|  c #2B3644",
" . c #323446",
".. c #353C4C",
"X. c #343A4B",
"o. c #222D56",
"O. c #222D59",
"+. c #24305D",
"@. c #273150",
"#. c #343A53",
"$. c #1E3C65",
"%. c #213F6C",
"&. c #413C46",
"*. c #453440",
"=. c #14415F",
"-. c #3A4543",
";. c #39404F",
":. c #3E494B",
">. c #394347",
",. c #3B4353",
"<. c #3B455A",
"1. c #3F4A52",
"2. c #154261",
"3. c #19496E",
"4. c #234677",
"5. c #4E4445",
"6. c #44404E",
"7. c #5F4F45",
"8. c #534948",
"9. c #495146",
"0. c #5A5F47",
"q. c #595749",
"w. c #414C51",
"e. c #434C5C",
"r. c #464253",
"t. c #554B51",
"y. c #594D51",
"u. c #46515D",
"i. c #674B40",
"p. c #6B5544",
"a. c #7B6145",
"s. c #7B604C",
"d. c #424D63",
"f. c #475162",
"g. c #4A5565",
"h. c #4D5A6B",
"j. c #49566C",
"k. c #515E74",
"l. c #55647C",
"z. c #824B26",
"x. c #83562F",
"c. c #8D4E30",
"v. c #8B5333",
"b. c #A65F2F",
"n. c #92632F",
"m. c #9A6433",
"M. c #956133",
"N. c #9B7638",
"B. c #AB6F36",
"V. c #B57638",
"C. c #8F6A42",
"Z. c #876744",
"A. c #926E43",
"S. c #9D7544",
"D. c #9D7548",
"F. c #A27B43",
"G. c #A97D44",
"H. c #A07540",
"J. c #A1813C",
"K. c #C0863E",
"L. c #8C9245",
"P. c #A2884B",
"I. c #AC904C",
"U. c #B5A145",
"Y. c #B4B245",
"T. c #D39F42",
"R. c #D09641",
"E. c #CFA74D",
"W. c #D6B553",
"Q. c #E0A441",
"!. c #EFCA42",
"~. c #F8C240",
"^. c #EBDC43",
"/. c #1B5985",
"(. c #205889",
"). c #1F699D",
"_. c #23669F",
"`. c #596B85",
"'. c #5C6E8A",
"]. c #627694",
"[. c None",
/* pixels */
"[.[.[.[.[.[.[.[.[.[.[.[.[.[.[.[.[.[.[.[.[.[.[.[.[.[.[.[.[.[.[.[.[.[.[.[.[.[.[.[.[.[.[.[.[.[.[.[.[.[.[.[.[.[.[.[.[.[.[.[.[.[.[.[.[.[.[.[.[.[.[.[.[.[.[.[.[.[.[.[.",
"[.[.[.[.[.[.[.[.[.[.[.[.[.[.[.[.[.[.[.[.[.[.[.[.[.[.[.[.[.[.[.[.[.[.[.[.[.[.[.[.[.[.[.[.[.[.[.[.[.[.[.[.[.[.[.[.[.[.[.[.[.[.[.[.[.[.[.[.[.[.[.[.[.[.[.[.[.[.[.[.",
"[.[.[.[.[.[.[.[.[.[.[.[.[.[.[.[.[.[.[.[.[.[.[.[.[.[.[.[.[.[.[.[.[.[.[.[.[.[.[.[.[.[.[.[.[.[.[.[.[.[.[.[.[.[.[.[.[.[.[.[.[.[.[.[.[.[.[.[.[.[.[.[.[.[.[.[.[.[.[.[.",
"[.[.[.[.[.[.[.[.[.[.[.[.[.[.[.[.[.[.[.[.[.[.[.[.[.[.[.[.[.[.[.[.[.[.[.[.[.[.[.[.[.[.[.[.[.[.[.[.[.[.[.[.[.[.[.[.[.[.[.[.[.[.[.[.[.[.[.[.[.[.[.[.[.[.[.[.[.[.[.[.",
"[.[.[.[.[.[.[.[.[.[.[.[.[.[.[.[.[.[.[.[.[.[.[.[.[.[.[.[.[.[.[.[.[.[.[.[.[.[.[.[.[.[.[.[.[.[.[.[.[.[.[.[.[.[.[.[.[.[.[.[.[.[.[.[.[.[.[.[.[.[.[.[.[.[.[.[.[.[.[.[.",
"[.[.[.[.[.[.[.[.[.[.[.[.[.[.[.[.[.[.[.[.[.[.[.[.[.[.[.[.[.[.[.[.[.[.[.[.[.[.[.[.[.[.[.[.[.[.[.[.[.[.[.[.[.[.[.[.[.[.[.[.[.[.[.[.[.[.[.[.[.[.[.[.[.[.[.[.[.[.[.[.",
"[.[.[.[.[.[.[.[.[.[.[.[.[.[.[.[.[.[.[.[.[.[.[.[.[.[.[.[.[.[.[.[.[.[.[.[.[.[.[.[.[.[.[.[.[.[.[.[.[.[.[.[.[.[.[.[.[.[.[.[.[.[.[.[.[.[.[.[.[.[.[.[.[.[.[.[.[.[.[.[.",
"[.[.[.[.[.[.[.[.[.[.[.[.[.[.[.[.[.[.[.[.[.[.[.[.[.[.[.[.[.[.[.[.[.[.[.[.[.[.[.[.[.[.[.[.Y E Y [.[.Y Y Y Y Y W o.o.O.[.[.[.[.[.[.[.[.[.[.[.[.[.[.[.[.[.[.[.[.[.[.",
"[.[.[.[.[.[.[.[.[.[.[.[.[.[.[.[.[.[.[.[.[.[.[.[.[.[.[.[.[.[.[.[.[.[.[.[.[.[.[.[.[.[.[.Y Y Y Y Y Y Y Y Y Y Y E W o.O.o.o.[.[.[.[.[.[.[.[.[.[.[.[.[.[.[.[.[.[.[.[.",
"[.[.[.[.[.[.[.[.[.[.[.[.[.[.[.[.[.[.[.[.[.[.[.[.[.[.[.[.[.[.[.[.[.[.[.[.[.[.[.[.[.[.[.Y T U U Y Y Y Y Y Y Y W o.o.O.O.o.o.[.[.[.[.[.[.[.[.[.[.[.[.[.[.[.[.[.[.[.",
"[.[.[.[.[.[.[.[.[.[.[.[.[.[.[.[.[.[.[.[.[.[.[.[.[.[.[.[.[.[.[.[.[.[.[.[.[.[.[.[.[.[.[.[.8 8 3 U Y E Y Y Y Y E o.o.O.o.o.o.O.O.o.[.[.[.[.[.[.[.[.[.[.[.[.[.[.[.[.",
"[.[.[.[.[.[.[.[.[.[.[.[.[.[.[.[.[.[.[.[.[.[.[.[.[.[.[.[.[.[.[.[.[.[.[.[.[.[.[.[.[.[.[.[.[.< < U U Y Y Y Y Y E o.o.o.o.o.o.o.o.o.O.[.[.[.[.[.[.[.[.[.[.[.[.[.[.[.",
"[.[.[.[.[.[.[.[.[.[.[.[.[.[.[.[.[.[.[.[.[.[.[.[.[.[.[.[.[.[.[.[.[.[.[.[.[.[.[.f f [.[.[.[.[.< 3 3 8 8 U 8 Y Y ` W o.o.o.O.O.O.O.O.O.[.[.[.[.[.[.[.[.[.[.[.[.[.[.",
"[.[.[.[.[.[.[.[.[.[.[.[.[.[.[.[.[.[.[.[.[.[.[.[.[.[.[.[.[.[.[.[.[.[.[.[.[.[.f & f f [.[.[.[.[.< < < < 3 P Y Y E E W o.o.o.o.o.O.o.O.O.[.[.[.[.[.[.[.[.[.[.[.[.[.",
"[.[.[.[.[.[.[.[.[.[.[.[.[.[.[.[.[.[.[.[.[.[.[.[.[.[.[.[.[.[.[.[.[.[.[.[.[.h l l g f f [.[.[.[.[.< < < < 2 E Y Y E W o.W ( P 8 8 Y o.O.O.[.[.[.[.[.[.[.[.[.[.[.[.",
"[.[.[.[.[.[.[.[.[.[.[.[.[.[.[.[.[.[.[.[.[.[.[.[.[.[.[.[.[.[.[.[.[.[.[.[.[.A m z g f [.[.[.[.[.[.< < < 3 2 Y Y Y E W ( 8 ; @ @ % : E O.O.[.[.[.[.[.[.[.[.[.[.[.[.",
"[.[.[.[.[.[.[.[.[.[.[.[.[.[.[.[.[.[.[.[.[.[.[.[.[.[.[.[.[.[.[.[.[.[.[.[.[.G G Z z g g [.[.[.[.[.< < < < 3 Y E E Y Y 8 : + .     % 3 O.+.[.[.[.[.[.[.[.[.[.[.[.[.",
"[.[.[.[.[.[.[.[.[.[.[.[.[.[.[.[.[.[.[.[.[.[.[.[.[.[.[.[.[.[.[.[.[.[.[.[.[.m.m.x.S z j g [.[.[.[.< < < < 3 Y E E U < - + .       @ 3 o.O.[.[.[.[.[.[.[.[.[.[.[.[.",
"[.[.[.[.[.[.[.[.[.[.[.[.[.[.[.[.[.[.[.[.[.[.[.[.[.[.[.[.[.[.[.[.[.[.[.[.[.[.B.m.G Z z g f [.[.[.< < < < 8 Y E Y 8 ; + X .     . # Y o.O.[.[.[.[.[.[.[.[.[.[.[.[.",
"[.[.[.[.[.[.[.[.[.[.[.[.[.[.[.[.[.[.[.[.[.[.[.[.[.[.[.[.[.[.[.[.[.[.[.[.[.[.V.m.D A j f f [.[.> < < < 3 8 Y U 2 < 9 6 4 O X # 7 Q ~ O.o.[.[.[.[.[.[.[.[.[.[.[.[.",
"[.[.[.[.[.[.[.[.[.[.[.[.[.[.[.[.[.[.[.[.[.[.[.[.[.[.[.[.[.[.[.[.[.[.[.[.[.[.[.G j g f & f f f 0 3 < < < U T 3 - = / /.3.4 $ ! /.(.4.o.o.[.[.[.[.[.[.[.[.[.[.[.[.",
"[.[.[.[.[.[.[.[.[.[.[.[.[.[.[.[.[.[.[.[.[.[.[.[.[.[.[.[.[.[.[.[.[.[.[.[.[.[.[.[.A j j j j f w 0 1 < < < 2 < ; o $ 2.)./.7 $ / )._.4.o.[.[.[.[.[.[.[.[.[.[.[.[.[.",
"[.[.[.[.[.[.[.[.[.[.[.[.[.[.[.[.[.[.[.[.[.[.[.[.[.[.[.[.[.[.[.[.[.[.[.[.[.[.[.[.J.N.n.z.m k 0 > < < < < : - +   X 6 =.! * O 6 2.3.$.[.[.[.[.[.[.[.[.[.[.[.[.[.[.",
"[.[.[.[.[.[.[.[.[.[.[.[.[.[.[.[.[.[.[.[.[.[.[.[.[.[.[.[.[.[.[.[.[.[.[.[.[.[.[.[.W.E.K.b.F x 1 < < < < < - + . . X O $ O X X X $ # [.[.[.[.[.[.[.[.[.[.[.[.[.[.[.",
"[.[.[.[.[.[.[.[.[.[.[.[.[.[.[.[.[.[.[.[.[.[.[.[.[.[.[.[.[.[.[.[.[.[.[.[.[.[.[.[.P.I.F.v.M n x y < < < < ; @ + + O .               [.[.[.[.[.[.[.[.[.[.[.[.[.[.[.",
"[.[.[.[.[.[.[.[.[.[.[.[.[.[.[.[.[.[.[.[.[.[.[.[.[.[.[.[.[.[.[.[.[.[.[.[.< < < a V C V v n F K b 9 < P 3 < < < < : @               [.[.[.[.[.[.[.[.[.[.[.[.[.[.[.",
"[.[.[.[.[.[.[.[.[.[.[.[.[.[.[.[.[.[.[.[.[.[.[.[.[.[.[.[.[.[.[.[.[.[.[.< < < < 3 2 < < 3 x z.c.M u e Y Y Y Y E E 8 ; + . X X . X o [.[.[.[.[.[.[.[.[.[.[.[.[.[.[.",
"[.[.[.[.[.[.[.[.[.[.[.[.[.[.[.[.[.[.[.[.[.[.[.[.[.[.[.[.[.[.[.[.9 < < < < < < < < , P 2 t b M M M c _ R R E E E Y < ; - - - ; ; < Y [.[.[.[.[.[.[.[.[.[.[.[.[.[.",
"[.[.[.[.[.[.[.[.[.[.[.[.[.[.[.[.[.[.[.[.[.[.[.[.[.[.[.[.[.[.< < < < < < < < < 2 P Y Y U Y ( ] H c.K *.E E E E Y Y Y P 2 P Y Y ( ` o.o.[.[.[.[.[.[.[.[.[.[.[.[.[.",
"[.[.[.[.[.[.[.[.[.[.[.[.[.[.[.[.[.[.[.[.[.[.[.[.[.[.[.[.[.< < < < < 2 < < 2 2 3 Y Y T Y Y E ( b L L i.5. .T U Y Y Y E E Y E ~ o.O.O.o.O.[.[.[.[.[.[.[.[.[.[.[.[.",
"[.[.[.[.[.[.[.[.[.[.[.[.[.[.[.[.[.[.[.[.[.[.[.[.[.[.[.[.< < < < < < 2 < 2 2 Y Y Y Y Y Y Y R E _ *.i.C.A.i.` P P Y Y E E E E ` O.O.O.o.O.[.[.[.[.[.[.[.[.[.[.[.[.",
"[.[.[.[.[.[.[.[.[.[.[.[.[.[.[.[.[.[.[.[.[.[.[.[.[.[.[.< < < < < < 2 2 < < 2 Y Y Y Y Y Y Y Y Y P ( 5.A.G.a.&.) ( Y Y Y E Y E W o.O.o.o.o.[.[.[.[.[.[.[.[.[.[.[.[.",
"[.[.[.[.[.[.[.[.[.[.[.[.[.[.[.[.[.[.[.[.[.[.[.[.[.[.< < < < < < < P 3 3 U U T Y E Y Y Y E Y Y I E  .i.s.Z.s.7. .R R U Y Y E W o.o.o.o.o.[.[.[.[.[.[.[.[.[.[.[.[.",
"[.[.[.[.[.[.[.[.[.[.[.[.[.[.[.[.[.[.[.[.[.[.[.[.[.< < < < < < < 3 Y Y Y Y Y Y Y Y Y Y Y Y Y E Y E Y ` &.x.P.A.5.T U Y Y Y E W o.O.o.O.o.[.[.[.[.[.[.[.[.[.[.[.[.",
"[.[.[.[.[.[.[.[.[.[.[.[.[.[.[.[.[.[.[.[.[.[.[.[.< < < < < 2 3 3 8 Y Y E Y Y Y Y Y Y Y Y Y E Y Y Y R P ) 7.A.C.p.5.5.5.&.' E W ^ o.o.o.o.[.[.[.[.[.[.[.[.[.[.[.[.",
"[.[.[.[.[.E U U 2 [.[.[.[.[.[.[.[.[.[.[.[.[.[.< < < < < < 2 9 U Y Y Y Y Y Y Y Y Y E Y Y Y Y Y Y Y Y U (  .5.p.Z.S.F.S.a.&.o.^ O.o.O.o.O.[.[.[.[.[.[.[.[.[.[.[.[.",
"[.[.[.[.[.E Y 3 2 < [.[.[.[.[.[.[.[.[.[.[.[.< < < < < < 3 3 U Y Y Y Y E Y Y Y Y Y Y Y Y E Y Y Y Y Y Y Y P ( 5.F.Q.Q.R.G.y.O.^ O.o.o.O.o.[.[.[.[.[.[.[.[.[.[.[.[.",
"[.[.[.[.[.[.Y 8 U 3 < [.[.[.[.[.[.[.[.[.[.< < < < < < 3 8 8 Y Y E Y Y Y Y Y Y Y Y Y E Y Y Y Y E Y Y Y E P E q.U.!.Q.Q.P.y.O.^ o.o.O.o.o.[.[.[.[.[.[.[.[.[.[.[.[.",
"[.[.[.[.[.[.[.Y U P 3 < [.[.[.[.[.[.[.[.< < < < < < < U Y Y Y Y Y Y Y Y Y Y Y Y Y E Y E Y Y Y Y Y Y Y Y P Y 0.Y.^.!.K.G.t.O.^ o.o.o.o.o.[.[.[.[.[.[.[.[.[.[.[.[.",
"[.[.[.[.[.[.[.[.T Y Y 3 < [.[.[.[.[.[.< < < < < 2 3 3 8 Y Y Y Y Y Y Y Y Y Y Y Y Y Y Y Y Y Y Y Y E Y Y Y P Y 9.L.Y.Y.P.s.r.O.^ o.o.O.o.O.[.[.[.[.[.[.[.[.[.[.[.[.",
"[.[.[.[.[.[.[.E Y Y Y P 3 3 < 2 < < < < < < < < < U U U Y Y Y Y Y W Y Y Y Y Y Y Y Y Y E Y Y Y Y Y Y Y Y Y Y [ 9.0.p.y.r.#.o.^ o.o.O.o.o.[.[.[.[.[.[.[.[.[.[.[.[.",
"[.[.[.[.[.[.[.[.Y E Y Y 3 3 < < < < < 3 < 3 < < 3 8 T Y Y Y Y Y Y Y Y Y Y E Y E Y Y Y Y Y Y Y E Y E Y Y E Y E Y ` o.O.O.o.o.o.o.o.o.o.o.[.[.[.[.[.[.[.[.[.[.[.[.",
"[.[.[.[.[.[.[.[.[.E Y Y U 3 3 3 U 9 8 3 3 9 U 8 U T Y E Y Y Y Y Y Y Y Y Y Y E Y Y Y Y Y Y E Y E Y Y Y Y Y Y Y P R R ^ ^ O.O.o.o.o.O.o.o.[.[.[.[.[.[.[.[.[.[.[.[.",
"[.[.[.[.[.[.[.[.[.[.Y E Y Y Y Y Y U Y Y Y U Y Y Y Y Y Y Y Y Y Y Y Y Y Y Y Y Y Y Y Y E Y Y Y Y Y Y E E Y Y Y Y Y E W o.O.o.o.o.o.o.o.O.o.[.[.[.[.[.[.[.[.[.[.[.[.",
"[.[.[.[.[.[.[.[.[.[.[.E Y Y E E Y Y Y Y Y E Y Y Y E Y Y Y Y Y Y Y Y E Y Y Y Y Y Y E E Y Y Y Y Y Y Y E Y E Y E W W ~ o.o.o.O.o.o.o.O.o.O.[.[.[.[.[.[.[.[.[.[.[.[.",
"[.[.[.[.[.[.[.[.[.[.[.[.Y Y Y Y Y E Y Y Y Y Y Y Y Y Y Y Y Y E Y Y Y Y Y Y Y Y Y Y Y Y Y Y Y Y Y Y Y Y Y Y Y W ` o.o.o.o.o.o.o.o.o.o.o.o.[.[.[.[.[.[.[.[.[.[.[.[.",
"[.[.[.[.[.[.[.[.[.[.[.[.[.E Y Y Y Y Y Y Y Y Y Y Y Y Y Y Y Y Y Y Y Y E Y Y Y Y E Y Y E Y E Y Y E Y Y Y Y Y Y E E E o.o.o.o.o.O.o.o.O.O.o.[.[.[.[.[.[.[.[.[.[.[.[.",
"[.[.[.[.[.[.[.[.[.[.[.[.[.[.Y Y E Y E Y Y Y Y E Y E Y Y Y E E Y Y Y Y Y E Y Y Y Y Y Y Y Y Y Y Y Y Y E Y Y Y 8 < : 8 o.O.O.O.o.o.o.o.o.o.[.[.[.[.[.[.[.[.[.[.[.[.",
"[.[.[.[.[.[.[.[.[.[.[.[.[.[.[.Y Y Y Y E Y Y Y Y Y Y Y Y Y E Y Y E Y Y Y Y Y Y Y Y Y Y E Y Y Y Y Y Y Y Y E E < # @ : W O.+.o.o.o.o.O.o.O.[.[.[.[.[.[.[.[.[.[.[.[.",
"[.[.[.[.[.[.[.[.[.[.[.[.[.[.[.[.Y E Y Y Y Y Y Y Y E Y Y Y Y Y Y Y Y Y E Y Y E Y E Y Y Y Y E Y Y E Y Y Y E E 9 # % 9 ` O.o.o.o.O.o.o.o.o.[.[.[.[.[.[.[.[.[.[.[.[.",
"[.[.[.[.[.[.[.[.[.[.[.[.[.[.[.[.[.[.[.[.Y Y Y E E Y E Y Y Y Y Y Y Y Y Y Y Y Y Y Y Y Y Y Y Y E Y Y Y E Y T R 9 5 q r o.o.O.o.o.o.O.o.O.o.[.[.[.[.[.[.[.[.[.[.[.[.",
"[.[.[.[.[.[.[.[.[.[.[.[.[.[.[.[.[.[.[.[.E Y Y Y Y Y Y Y Y E Y Y Y Y Y Y Y E E Y Y Y Y Y Y E Y Y E Y Y Y T T ) a i [ ` o.o.o.o.O.o.o.o.[.[.[.[.[.[.[.[.[.[.[.[.[.",
"[.[.[.[.[.[.[.[.[.[.[.[.[.[.[.[.[.[.[.Y Y Y Y E Y Y Y Y Y E E Y Y Y Y Y Y E Y Y Y Y Y Y Y E Y Y Y Y Y Y ) r a s N | | { o.o.o.o.o.o.[.[.[.[.[.[.[.[.[.[.[.[.[.[.",
"[.[.[.[.[.[.[.[.[.[.[.[.[.[.[.[.[.[.Y Y E Y Y Y Y Y Y Y Y Y Y Y E Y E Y Y Y Y Y E Y Y Y Y Y Y Y Y Y Y Y r a s N N N a | { o.O.o.O.[.[.[.[.[.[.[.[.[.[.[.[.[.[.[.",
"[.[.[.[.[.[.[.[.[.[.[.[.[.[.[.[.[.[.Y E Y Y Y Y Y Y Y E Y Y E Y Y E Y Y Y Y Y Y E Y E Y Y Y Y Y Y Y Y Y p s N B -.N s a { o.O.o.o.[.[.[.[.[.[.[.[.[.[.[.[.[.[.[.",
"[.[.[.[.[.[.[.[.[.[.[.[.[.[.[.[.[.[.[.Y Y Y Y Y E Y Y Y Y Y Y Y Y Y Y Y Y E Y Y Y Y Y Y E Y Y Y Y E Y Y | s B -.N N i p { O.O.o.o.[.[.[.[.[.[.[.[.[.[.[.[.[.[.[.",
"[.[.[.[.[.[.[.[.[.[.[.[.[.[.[.[.[.[.[.[.Y Y E Y E Y Y Y Y Y Y Y Y Y Y Y Y Y Y Y Y T E Y Y Y Y E E Y Y T [ -.-.:.-.N s a { o.~ o.O.[.[.[.[.[.[.[.[.[.[.[.[.[.[.[.",
"[.[.[.[.[.[.[.[.[.[.[.[.[.[.[.[.[.[.[.[.[.Y Y Y Y Y Y E Y Y E Y Y Y Y Y E Y E Y Y Y E Y Y E Y Y Y Y Y ` ;.w.w.w.:.-.-.s | | { o.[.[.[.[.[.[.[.[.[.[.[.[.[.[.[.[.",
"[.[.[.[.[.[.[.[.[.[.[.[.[.[.[.[.[.[.[.[.[.[.E Y Y Y Y Y Y E Y Y E Y Y Y Y E Y Y Y Y Y Y Y Y E Y Y Y [.[.u.f.f.f.u.:.-.N s s a [.[.[.[.[.[.[.[.[.[.[.[.[.[.[.[.[.",
"[.[.[.[.[.[.[.[.[.[.[.[.[.[.[.[.[.[.[.[.[.[.[.Y Y Y Y Y Y Y E Y Y Y Y E Y Y Y Y Y Y Y Y Y Y Y Y Y Y [.[.e.f.g.h.h.u.:.N N i [.[.[.[.[.[.[.[.[.[.[.[.[.[.[.[.[.[.",
"[.[.[.[.[.[.[.[.[.[.[.[.[.[.[.[.[.[.[.[.[.[.[.[.[.[.[.E E Y Y Y Y Y Y Y Y Y E Y Y Y Y Y Y Y [.[.[.[.e [ ;.e.h.l.l.g.:.B N [.[.[.[.[.[.[.[.[.[.[.[.[.[.[.[.[.[.[.",
"[.[.[.[.[.[.[.[.[.[.[.[.[.[.[.[.[.[.[.[.[.[.[.[.[.[.[.[.Y Y Y Y Y Y Y Y Y Y Y Y Y Y Y Y Y [.[.[.[.[.a [ ,.f.l.l.`.h.:.B [.[.[.[.[.[.[.[.[.[.[.[.[.[.[.[.[.[.[.[.",
"[.[.[.[.[.[.[.[.[.[.[.[.[.[.[.[.[.[.[.[.[.[.[.[.[.[.[.[.[.Y [.Y Y U Y Y Y Y Y Y r p ) Y [.[.[.[.[. ...,.u.k.l.'.`.h.[.[.[.[.[.[.[.[.[.[.[.[.[.[.[.[.[.[.[.[.[.[.",
"[.[.[.[.[.[.[.[.[.[.[.[.[.[.[.[.[.[.[.[.[.[.[.[.[.[.[.[.[.[.[.[.Y Y Y Y Y Y Y ) p a i [.[.[.[.[.t  .,.d.l.'.'.[.[.[.[.[.[.[.[.[.[.[.[.[.[.[.[.[.[.[.[.[.[.[.[.[.",
"[.[.[.[.[.[.[.[.[.[.[.[.[.[.[.[.[.[.[.[.[.[.[.[.[.[.[.[.[.[.[.[.[.} } } } ` ( ) a i [.[.[.[.[.[.t [ ,.e.k.'.].[.[.[.[.[.[.[.[.[.[.[.[.[.[.[.[.[.[.[.[.[.[.[.[.[.",
"[.[.[.[.[.[.[.[.[.[.[.[.[.[.[.[.[.[.[.[.[.[.[.[.[.[.[.[.[.[.[.[.[.<.<.<.<...) r t [.[.[.[.[.[.[.[.[ [ ..j.'.].[.[.[.[.[.[.[.[.[.[.[.[.[.[.[.[.[.[.[.[.[.[.[.[.[.",
"[.[.[.[.[.[.[.[.[.[.[.[.[.[.[.[.[.[.[.[.[.[.[.[.[.[.[.[.[.[.[.[.[.f.f.d.e...[ t [.[.[.[.[.[.[.[.[.[.r  .d.l.`.[.[.[.[.[.[.[.[.[.[.[.[.[.[.[.[.[.[.[.[.[.[.[.[.[.",
"[.[.[.[.[.[.[.[.[.[.[.[.[.[.[.[.[.[.[.[.[.[.[.[.[.[.[.[.[.[.[.[.[.g.u.,... .a [.[.[.[.[.[.[.[.[.[.[.[.[ <.d.d.[.[.[.[.[.[.[.[.[.[.[.[.[.[.[.[.[.[.[.[.[.[.[.[.[.",
"[.[.[.[.[.[.[.[.[.[.[.[.[.[.[.[.[.[.[.[.[.[.[.[.[.[.[.[.[.[.[.[.f.u.e...[ t [.[.[.[.[.[.[.[.[.[.[.[.[.[.[ [ [ [.[.[.[.[.[.[.[.[.[.[.[.[.[.[.[.[.[.[.[.[.[.[.[.[.",
"[.[.[.[.[.[.[.[.[.[.[.[.[.[.[.[.[.[.[.[.[.[.[.[.[.[.[.[.[.[.[.[.e.e... .t [.[.[.[.[.[.[.[.[.[.[.[.[.[.[.[.r r [.[.[.[.[.[.[.[.[.[.[.[.[.[.[.[.[.[.[.[.[.[.[.[.[.",
"[.[.[.[.[.[.[.[.[.[.[.[.[.[.[.[.[.[.[.[.[.[.[.[.[.[.[.[.[.[.[.u.,...[ [ [.[.[.[.[.[.[.[.[.[.[.[.[.[.[.[.[.[.[.[.[.[.[.[.[.[.[.[.[.[.[.[.[.[.[.[.[.[.[.[.[.[.[.[.",
"[.[.[.[.[.[.[.[.[.[.[.[.[.[.[.[.[.[.[.[.[.[.[.[.[.[.[.[.[.[.e.e...t t [.[.[.[.[.[.[.[.[.[.[.[.[.[.[.[.[.[.[.[.[.[.[.[.[.[.[.[.[.[.[.[.[.[.[.[.[.[.[.[.[.[.[.[.[.",
"[.[.[.[.[.[.[.[.[.[.[.[.[.[.[.[.[.[.[.[.[.[.[.[.[.[.[.[.[.[.,... .t r [.[.[.[.[.[.[.[.[.[.[.[.[.[.[.[.[.[.[.[.[.[.[.[.[.[.[.[.[.[.[.[.[.[.[.[.[.[.[.[.[.[.[.[.[.",
"[.[.[.[.[.[.[.[.[.[.[.[.[.[.[.[.[.[.[.[.[.[.[.[.[.[.[.[.[.[.[ _ t t t [.[.[.[.[.[.[.[.[.[.[.[.[.[.[.[.[.[.[.[.[.[.[.[.[.[.[.[.[.[.[.[.[.[.[.[.[.[.[.[.[.[.[.[.[.",
"[.[.[.[.[.[.[.[.[.[.[.[.[.[.[.[.[.[.[.[.[.[.[.[.[.[.[.[.[.[.r r r t t t [.[.[.[.[.[.[.[.[.[.[.[.[.[.[.[.[.[.[.[.[.[.[.[.[.[.[.[.[.[.[.[.[.[.[.[.[.[.[.[.[.[.[.[.",
"[.[.[.[.[.[.[.[.[.[.[.[.[.[.[.[.[.[.[.[.[.[.[.[.[.[.[.[.[.[.r t t t t t t [.[.[.[.[.[.[.[.[.[.[.[.[.[.[.[.[.[.[.[.[.[.[.[.[.[.[.[.[.[.[.[.[.[.[.[.[.[.[.[.[.[.[.",
"[.[.[.[.[.[.[.[.[.[.[.[.[.[.[.[.[.[.[.[.[.[.[.[.[.[.[.[.[.[.t t t t t r t [.[.[.[.[.[.[.[.[.[.[.[.[.[.[.[.[.[.[.[.[.[.[.[.[.[.[.[.[.[.[.[.[.[.[.[.[.[.[.[.[.[.[.",
"[.[.[.[.[.[.[.[.[.[.[.[.[.[.[.[.[.[.[.[.[.[.[.[.[.[.[.[.[.[.[.[.[.[.t t [.[.[.[.[.[.[.[.[.[.[.[.[.[.[.[.[.[.[.[.[.[.[.[.[.[.[.[.[.[.[.[.[.[.[.[.[.[.[.[.[.[.[.[.",
"[.[.[.[.[.[.[.[.[.[.[.[.[.[.[.[.[.[.[.[.[.[.[.[.[.[.[.[.[.[.[.[.[.[.[.[.[.[.[.[.[.[.[.[.[.[.[.[.[.[.[.[.[.[.[.[.[.[.[.[.[.[.[.[.[.[.[.[.[.[.[.[.[.[.[.[.[.[.[.[.",
"[.[.[.[.[.[.[.[.[.[.[.[.[.[.[.[.[.[.[.[.[.[.[.[.[.[.[.[.[.[.[.[.[.[.[.[.[.[.[.[.[.[.[.[.[.[.[.[.[.[.[.[.[.[.[.[.[.[.[.[.[.[.[.[.[.[.[.[.[.[.[.[.[.[.[.[.[.[.[.[."
};
