/* XPM */
static char *result[] = {
/* columns rows colors chars-per-pixel */
"80 80 237 2 ",
"   c #020103",
".  c #090A0B",
"X  c #070909",
"o  c #0C0C1B",
"O  c #070916",
"+  c #110F1B",
"@  c #0E1416",
"#  c #141515",
"$  c #171817",
"%  c #14121D",
"&  c #17181B",
"*  c #191A1B",
"=  c #15130C",
"-  c #3D2116",
";  c #312E1E",
":  c #0F1427",
">  c #151522",
",  c #161927",
"<  c #1A1C23",
"1  c #12162B",
"2  c #151A2A",
"3  c #1A1D2B",
"4  c #0D1533",
"5  c #0D173A",
"6  c #101734",
"7  c #151C36",
"8  c #181E36",
"9  c #151D3B",
"0  c #181F3A",
"q  c #060F31",
"w  c #1E2122",
"e  c #1A2329",
"r  c #1B2136",
"t  c #1C233A",
"y  c #19273B",
"u  c #1B3939",
"i  c #1B332F",
"p  c #222123",
"a  c #262D2D",
"s  c #2B2B2B",
"d  c #252628",
"f  c #322E2B",
"g  c #222534",
"h  c #242A35",
"j  c #2B2E32",
"k  c #242A3C",
"l  c #2A2D3B",
"z  c #23263B",
"x  c #2C3434",
"c  c #2D3935",
"v  c #27303B",
"b  c #2B343B",
"n  c #283336",
"m  c #343334",
"M  c #34363B",
"N  c #333D3B",
"B  c #3B383A",
"V  c #36302F",
"C  c #1F201B",
"Z  c #472B1C",
"A  c #52331F",
"S  c #493821",
"D  c #573922",
"F  c #463B35",
"G  c #463137",
"H  c #663C30",
"J  c #623F25",
"K  c #35413D",
"L  c #39433C",
"P  c #22423F",
"I  c #584729",
"U  c #464838",
"Y  c #594738",
"T  c #55563C",
"R  c #4B4429",
"E  c #65472A",
"W  c #764B29",
"Q  c #674636",
"!  c #784732",
"~  c #625A36",
"^  c #785938",
"/  c #6E562D",
"(  c #5C633B",
")  c #65693C",
"_  c #776839",
"`  c #70763D",
"'  c #0E1A44",
"]  c #131D45",
"[  c #111E48",
"{  c #162046",
"}  c #1B2446",
"|  c #1C264A",
" . c #1E284E",
".. c #1C2645",
"X. c #1A2555",
"o. c #1E2953",
"O. c #172354",
"+. c #1F3D42",
"@. c #232B43",
"#. c #212A49",
"$. c #272B42",
"%. c #2D3143",
"&. c #2B334B",
"*. c #313644",
"=. c #333943",
"-. c #343A4C",
";. c #393E4D",
":. c #393A44",
">. c #212C56",
",. c #232E59",
"<. c #253159",
"1. c #293557",
"2. c #333B56",
"3. c #322C43",
"4. c #283D62",
"5. c #423743",
"6. c #364141",
"7. c #3A4542",
"8. c #3B434B",
"9. c #3B4354",
"0. c #3D455D",
"q. c #3B4557",
"w. c #2D5450",
"e. c #2E4E6A",
"r. c #387370",
"t. c #454444",
"y. c #454B44",
"u. c #4D4B4C",
"i. c #494747",
"p. c #554E48",
"a. c #5C5C4F",
"s. c #55584B",
"d. c #444D5D",
"f. c #474B55",
"g. c #545353",
"h. c #5D5B5B",
"j. c #595A55",
"k. c #475054",
"l. c #685B43",
"z. c #775C43",
"x. c #615F5E",
"c. c #5E605A",
"v. c #5D6149",
"b. c #676447",
"n. c #62635B",
"m. c #6B6B59",
"M. c #797857",
"N. c #766E49",
"B. c #4A5362",
"V. c #475161",
"C. c #585962",
"Z. c #444E60",
"A. c #5D6264",
"S. c #507F6E",
"D. c #646264",
"F. c #6D6A6A",
"G. c #686867",
"H. c #716D6D",
"J. c #73726C",
"K. c #737464",
"L. c #7A7675",
"P. c #7E7979",
"I. c #777373",
"U. c #736F71",
"Y. c #8B522F",
"T. c #87663C",
"R. c #996332",
"E. c #8A783B",
"W. c #98723D",
"Q. c #AB763A",
"!. c #8A794B",
"~. c #AC7E41",
"^. c #827C7B",
"/. c #807F65",
"(. c #798159",
"). c #8D8A3B",
"_. c #888347",
"`. c #969445",
"'. c #8C8354",
"]. c #8C8A5D",
"[. c #948C58",
"{. c #988F58",
"}. c #A79758",
"|. c #AD8F49",
" X c #8E8A61",
".X c #858469",
"XX c #918C63",
"oX c #928F6A",
"OX c #94916B",
"+X c #9B9766",
"@X c #888578",
"#X c #949271",
"$X c #989672",
"%X c #A39E6A",
"&X c #ABA46B",
"*X c #A8A263",
"=X c #B4AA6A",
"-X c #BCB56F",
";X c #AAA472",
":X c #AFA973",
">X c #B2AC78",
",X c #BDB472",
"<X c #BAB379",
"1X c #B4A15D",
"2X c #C58F42",
"3X c #D1A940",
"4X c #EBB442",
"5X c #C4B86C",
"6X c #C4BB76",
"7X c #C5BD7B",
"8X c #C9BF74",
"9X c #C0AD64",
"0X c #D9CC41",
"qX c #CBC27D",
"wX c #CBC175",
"eX c #D6C978",
"rX c #DFD37D",
"tX c #E2D57D",
"yX c #E5D87E",
"uX c #EBDB7D",
"iX c #F9D643",
"pX c #3E7385",
"aX c #3D8182",
"sX c #4C9A97",
"dX c #458395",
"fX c #5AB8B5",
"gX c #50A099",
"hX c #DFD381",
"jX c #E2D682",
"kX c #E6DA82",
"lX c #E9DC82",
"zX c #FBED88",
"xX c #F6E885",
"cX c #FFF189",
"vX c #FFFA8E",
"bX c #FAF58D",
"nX c None",
/* pixels */
"nXnXnXnXnXnXnXnXnXnXnXnXnXnXnXnXnXnXnXnXnXnXnXnXnXnXnXnXnXnXnXnXnXnXnXnXnXnXnXnXnXnXnXnXnXnXnXnXnXnXnXnXnXnXnXnXnXnXnXnXnXnXnXnXnXnXnXnXnXnXnXnXnXnXnXnXnXnXnXnX",
"nXnXnXnXnXnXnXnXnXnXnXnXnXnXnXnXnXnXnXnXnXnXnXnXnXnXnXnXnXnXnXnXnXnXnXnXnXnXnXnXnXnXnXnXnXnXnXnXnXnXnXnXnXnXnXnXnXnXnXnXnXnXnXnXnXnXnXnXnXnXnXnXnXnXnXnXnXnXnXnX",
"nXnXnXnXnXnXnXnXnXnXnXnXnXnXnXnXnXnXnXnXnXnXnXnXnXnXnXnXnXnXnXnXnXnXnXnXnXnXnXnXnXnXnXnXnXnXnXnXnXnXnXnXnXnXnXnXnXnXnXnXnXnXnXnXnXnXnXnXnXnXnXnXnXnXnXnXnXnXnXnX",
"nXnXnXnXnXnXnXnXnXnXnXnXnXnXnXnXnXnXnXnXnXnXnXnXnXnXnXnXnXnXnXnXnXnXnXnXnXnXnXnXnXnXnXnXnXnXnXnXnXnXnXnXnXnXnXnXnXnXnXnXnXnXnXnXnXnXnXnXnXnXnXnXnXnXnXnXnXnXnXnX",
"nXnXnXnXnXnXnXnXnXnXnXnXnXnXnXnXnXnXnXnXnXnXnXnXnXnXnXnXnXnXnXnXnXnXnXnXnXnXnXnXnXnXnXnXnXnXnXnXnXnXnXnXnXnXnXnXnXnXnXnXnXnXnXnXnXnXnXnXnXnXnXnXnXnXnXnXnXnXnXnX",
"nXnXnXnXnXnXnXnXnXnXnXnXnXnXnXnXnXnXnXnXnXnXnXnXnXnXnXnXnXnXnXnXnXnXnXnXnXnX| | | { | } } } |  .>.,.,.>.,.>.o.| } } } nXnXnXnXnXnXnXnXnXnXnXnXnXnXnXnXnXnXnXnXnX",
"nXnXnXnXnXnXnXnXnXnXnXnXnXnXnXnXnXnXnXnXnXnXnXnXnXnXnXnXnXnXnXnXnXnXnXnXnXnX} } } } } } | } |  .o.>.>.>.,.>.>. .| | | | nXnXnXnXnXnXnXnXnXnXnXnXnXnXnXnXnXnXnXnX",
"nXnXnXnXnXnXnXnXnXnXnXnXnXnXnXnXnXnXnXnXnXnXnXnXnXnXnXnXnXnXnXnXnXnXnXnXnXnXnX5 5 9 ] } | } | |  .>.>.>.,.>.>. . . . . .| nXnXnXnXnXnXnXnXnXnXnXnXnXnXnXnXnXnXnX",
"nXnXnXnXnXnXnXnXnXnXnXnXnXnXnXnXnXnXnXnXnXnXnXnXnXnXnXnXnXnXnXnXnXnXnXnXnXnXnXnXt t } } } } } } |  .o.>.>.,.<.o.>.>.>.o.| } nXnXnXnXnXnXnXnXnXnXnXnXnXnXnXnXnXnX",
"nXnXnXnXnXnXnXnXnXnXnXnXnXnXnXnXnXnXnXnXnXnXnXnXnXnXnXnXnXnXnXnXnXnXnXnXnXnXnXnXm.s.:.t ] ] { { { |  .o.o.o.o.,.,.,.,.>.#.o.| nXnXnXnXnXnXnXnXnXnXnXnXnXnXnXnXnX",
"nXnXnXnXnXnXnXnXnXnXnXnXnXnXnXnXnXnXnXnXnXnXnXnXnXcXzXcXvXvXvXvXvXvXvXcXcXvXcXlXeX&Xm.@.5 ' ] ] ] { | |  . . .o.,.,.,.>.>.>. .| nXnXnXnXnXnXnXnXnXnXnXnXnXnXnXnX",
"nXnXnXnXnXnXnXnXnXnXnXnXnXnXnXnXnXnXnXnXnXnXnXnXnXcXxXxXuXuXuXuXuXtXxXxXcXcXcXvXvXtX Xt.%.*.;.;.;.&.#.} } } | |  . .o. .|  .| | | nXnXnXnXnXnXnXnXnXnXnXnXnXnXnX",
"nXnXnXnXnXnXnXnXnXnXnXnXnXnXnXnXnXnXnXzXzXcXcXcXvXvXuX9X}.|.1X1X|.}.1XeXvXnXnXnXnXxX,X+X XoXOX$XOXm.9.] ] } y 1 : : 1 1 1 1 0 | >.nXnXnXnXnXnXnXnXnXnXnXnXnXnXnX",
"nXnXnXnXnXnXnXnXnXnXnXnXnXnXnXnXnXnXcXcXcXcXcXcXcXnXnXE E E ! ^ ! E E nXnXnXnXnXnXnXyXtXtXjXyXlXhX;Xj. .{ { 7 : . . . . X o 7  .,.nXnXnXnXnXnXnXnXnXnXnXnXnXnXnX",
"nXnXnXnXnXnXnXnXnXnXnXnXnXnXnXnXnXcXcXcXcXcXcXzXvXnXnXnX- A W W E A Z nXnXnXnXnXnXnXnX6X6X6X5X7X6X&XK.c.b y y +.6.e O @ i w.1.<.,.nXnXnXnXnXnXnXnXnXnXnXnXnXnXnX",
"nXnXnXnXnXnXnXnXnXnXnXnXnXnXnXcXcXcXnXnXnXnXnXnXnXnXnXnXnXW R.R.Y.E A Z Z - - nXnXnXnXa.a.a.a.j.n..X:X&Xv., u aXsXw.@ i r.gXr.e.>.nXnXnXnXnXnXnXnXnXnXnXnXnXnXnX",
"nXnXnXnXnXnXnXnXnXnXnXnXnXnXnXcXzXnXnXnXnXnXnXnXnXnXnXnXnXnXQ.Q.Y.W D S Z Z A S nXnXk r 8 7 8 ] ..h.:X8X!.; w.gXfXr.$ P sXfXsXe.X.nXnXnXnXnXnXnXnXnXnXnXnXnXnXnX",
"nXnXnXnXnXnXnXnXnXnXnXnXnXnXcXcXnXnXnXnXnXnXnXnXnXnXnXnXnXnXnXQ.W E A Z Z R / _ ).N.K r 4 4 4 5 ] 9.K.oX{._.(.(.r.u . i w.r.e.,.>.nXnXnXnXnXnXnXnXnXnXnXnXnXnXnX",
"nXnXnXnXnXnXnXnXnXnXnXnXnXcXcXnXnXnXnXnXnXnXnXnXnXnXnXnXnXnXnXnXD A Z Z S / E.`.`.(.p.h 6 6 7 0 } | #.k.XXwX*XT @ X X X @ e y >.,.nXnXnXnXnXnXnXnXnXnXnXnXnXnXnX",
"nXnXnXnXnXnXnXnXnXnXnXnXcXcXcXnXnXnXnXnXnXnXnXnXnXnXnXnXnXnXnXnXnXZ Z S I _ `.`.|.).Y z 6 6 9 0 0 9 6 h b.*X}._ L = X     X :  .<.nXnXnXnXnXnXnXnXnXnXnXnXnXnXnX",
"nXnXnXnXnXnXnXnXnXnXcXcXcXnXnXnXnXnXnXnXnXnXnXnXnXnXnXnXnXnXnXnXnXnXR I ( ` `.`.Q.R.E g 6 6 9 9 0 6 o @ p R ` }.}.~ =       1  .,.nXnXnXnXnXnXnXnXnXnXnXnXnXnXnX",
"nXnXnXnXnXnXnXnXnXnXcXzXnXnXnXnXnXnXnXnXnXnXnXnXnXnXnXnXnXnXnXnXnXnXnX( ) ` ).E.R.Y.H V r 7 7 9 7 1 o .   . R }.5X_.; = . @ 7  .,.nXnXnXnXnXnXnXnXnXnXnXnXnXnXnX",
"nXnXnXnXnXnXnXnXnXcXcXnXnXnXnXnXnXnXnXnXnXnXnXnXnXnXnXnXnXnXnXnXnXnXnX` ) ( s.Y H H H H H g 6 5 7 1 > o O O s ) _.`._.b.m 1 9 o.,.,.nXnXnXnXnXnXnXnXnXnXnXnXnXnX",
"nXnXnXnXnXnXnXnXcXcXnXnXnXnXnXnXnXnXnXnXnXnXnXnXnXnXnXnXnXnXnXnXnXnXnX) ( U n g 8 V H Y.H G 8 7 7 7 6 1 6 2 , $ ; !.5X&Xc.>.X.o.>.>.,.nXnXnXnXnXnXnXnXnXnXnXnXnX",
"nXnXnXnXnXnXnXzXcXcXnXnXnXnXnXnXnXnXnXnXnXnXnXnXnXnXnXnXnXnXnXnXnXnXnXU U c r 6 5 r G ! ! Q G V 8 6 7 7 7 7 q O C b.:X>X@XG.0.<.X.,.,.,.nXnXnXnXnXnXnXnXnXnXnXnX",
"nXnXnXnXnXcXcXcXnXnXnXnXnXnXnXnXnXnXnXnXnXnXnX7 6 6 6 7 6 7 7 7 7 7 t h b y 7 7 6 8 s G Q T.!.Y z 5 6 7 7 7 6 1 t 8.n.@X>X>XJ.2.X.o.,.>.,.nXnXnXnXnXnXnXnXnXnXnX",
"nXnXnXnXnXcXcXnXnXnXnXnXnXnXnXnXnXnXnXnXnXnX$.$.t @.@.z t t 8 8 r 7 7 7 7 7 7 7 7 7 6 8 F !.Q.^ B g 0 8 7 9 9 } } o.,.D.:XqX$XB.1.<.,.,.>.>.nXnXnXnXnXnXnXnXnXnX",
"nXnXnXnXcXcXnXnXnXnXnXnXnXnXnXnXnXnXnXj.nXg.g.f.f.f.f.f.:.*.l g e 2 , , , , , , , 2 1 6 m Y ^ T.^ Y l ] 9 } } } } [ | 2.K.OX$X#XJ.e.,.,.>.,.nXnXnXnXnXnXnXnXnXnX",
"nXnXnXcXcXnXnXnXnXnXnXnXnXnXnXnXnXnXj.j.j.h.D.H.U.U.H.D.g.i.B j p < & & $ & & & & < , 7 0 g B _ ~.W.5.$.{ { | | | { }  .&.f.OXhX;XC.,.X.o.<.nXnXnXnXnXnXnXnXnXnX",
"nXnXcXcXcXnXnXnXnXnXnXnXnXnXnXnXnXx.D.n.D.D.D.F.F.H.G.x.g.t.m s < & $ $ $ $ $ & $ & , 7 5 4 r Q W.!.z.i.3.#.{ { { } } { ' *.oXhXhXG.,.X.o.<.nXnXnXnXnXnXnXnXnXnX",
"nXnXcXcXcXnXnXnXnXnXnXnXnXnXnXj.h.G.H.I.I.H.x.u.i.i.i.5.B m s p * $ $ $ $ $ & $ $ & < 7 6 5 7 m Y ^ W.!.l.#.[ ] { { { { ' -.oXjX<XG.<.X.<.o.nXnXnXnXnXnXnXnXnXnX",
"nXnXcXzXzXnXnXnXnXnXnXnXnXnXnXj.h.F.L.^.L.F.g.B j V m m j s w & & $ & < & & & $ & & , 7 8 t k v B Q Q.Q.z.5.%.&.*.#.| { { ;.OXhXhXG.<.X.o.<.nXnXnXnXnXnXnXnXnXnX",
"nXnXcXcXcXnXnXnXnXnXnXnXnXnXnXnXD.U.P.I.C.f.=.h r d g g g e 3 2 2 , , , , , , , , > , , h ;.f.f.5.p.^ T._ ^ z.z.z.i.#.] ] ;.$XkXqXA.o.O.,.,.nXnXnXnXnXnXnXnXnXnX",
"nXnXzXcXcXnXnXnXnXnXnXnXnXnXnXnXnX^.P.D.f.z 0 r 8 8 7 8 8 8 7 8 7 8 7 7 8 7 7 7 7 3 > < m h.H.D.j.i.U Y Y.|.2X2X~.l.3.[ ] -.oXjXqXG.<.X.>.,.nXnXnXnXnXnXnXnXnXnX",
"nXnXcXcXzXnXnXnXnXnXnXnXnXnXnXnXnXnX^.C.%.6 6 7 7 7 7 7 7 7 7 7 7 7 7 7 7 7 7 7 9 6 1 > B D.L.H.h.i.M F W.3X4X4X2Xz.3.[ [ &.m.;X;X.XA.0.<.X.nXnXnXnXnXnXnXnXnXnX",
"cXcXcXnXnXnXnXnXnXnXnXnXnXnXnXnXnXnXnX;.z 7 7 7 7 6 7 7 7 7 7 7 7 7 7 7 7 7 7 8 8 8 6 3 *.D.^.H.h.i.j U ).0XiX4X2Xz.&.[ ] #.;.h.L.;X;XJ.q.X.nXnXnXnXnXnXnXnXnXnX",
"cXcXzXnXnXnXnXnXnXnXnXnXnXnXnXnXnXnXnXnX7 7 7 7 7 7 7 7 7 7 7 7 7 8 7 7 7 7 7 7 7 7 6 8 -.D.L.U.C.g.B U ).0X0X3X~.z.5.3.| | ] #.m.,XhX#X0.X.nXnXnXnXnXnXnXnXnXnX",
"cXcXcXnXnXnXnXnXnXnXnXnXnXnXnXnXnXnXnXnX7 7 7 7 7 7 7 7 7 7 7 7 7 7 7 7 7 7 7 7 7 9 6 8 -.D.L.^.H.h.u.p.) ).).E.z.Y.H 5.3.} ' } h.7XlX$X0.X.nXnXnXnXnXnXnXnXnXnX",
"cXcXcXnXnXnXnXnXnXnXnXnXnXnXnXnXnXnXnXnX7 7 7 7 8 7 7 7 7 7 7 7 7 7 7 7 7 7 7 0 7 7 6 9 &.D.^.^.L.H.x.g.y.U U U F ! Y.H G | ' | n.7XjX#X0.X.nXnXnXnXnXnXnXnXnXnX",
"zXcXcXnXnXnXnXnXnXnXnXnXnXnXnXnXnXnXnXnX7 7 7 7 7 7 7 7 8 7 7 7 7 7 7 7 7 7 7 7 7 9 6 9 -.D.^.^.^.L.H.h.g.N B B F ! Y.! :.} ' | n.7XjX#X0.O.nXnXnXnXnXnXnXnXnXnX",
"cXcXcXnXnXnXnXnXnXnXnXnXnXnXnXnXnXnXnXnX7 7 7 7 7 7 7 7 7 7 7 7 7 7 7 7 7 7 7 7 7 7 6 0 -.D.^.@X^.^.L.H.x.u.i.i.u.p.Y G l } ' | n.6XjX#X0.X.nXnXnXnXnXnXnXnXnXnX",
"cXcXcXnXnXnXnXnXnXnXnXnXnXnXnXnXnXnXnXnX7 7 7 7 7 7 7 7 7 7 7 7 7 7 7 7 7 7 7 7 7 7 6 8 *.C.U.U.I.I.^.L.F.x.h.j.g.t.B j z | ]  .c.7XjX#X0.X.nXnXnXnXnXnXnXnXnXnX",
"cXcXcXnXnXnXnXnXnXnXnXnXnXnXnXnXnXnXnXnX7 7 7 7 0 7 7 7 7 7 7 7 7 7 0 7 7 0 7 7 7 7 7 7 $.;.f.g.j.D.I.^.P.U.F.D.j.i.M l z } ] | n.6XhX#X0.O.nXnXnXnXnXnXnXnXnXnX",
"cXzXcXnXnXnXnXnXnXnXnXnXnXnXnXnXnXnXnXnX7 7 7 7 7 7 7 7 7 8 7 7 7 7 7 7 7 7 7 7 7 7 7 7 0 t $.b B u.F.L.^.L.H.D.g.F M h ....] | n.6XjX#X0.X.nXnXnXnXnXnXnXnXnXnX",
"cXcXcXnXnXnXnXnXnXnXnXnXnXnXnXnXnXnXnXnX0 7 7 7 7 7 7 7 7 7 7 7 7 7 7 7 7 7 7 7 7 7 7 7 7 6 7 e j 5.g.x.D.x.j.u.U B j h z } ] | n.7XjX#X0.X.nXnXnXnXnXnXnXnXnXnX",
"cXzXcXnXnXnXnXnXnXnXnXnXnXnXnXnXnXnXnXnX7 7 7 7 7 7 7 7 7 7 0 7 7 7 7 7 7 7 7 7 7 7 7 7 7 7 7 g j V m m m B m f s p p e t } ] | n.6XjX#X0.X.nXnXnXnXnXnXnXnXnXnX",
"cXcXcXnXnXnXnXnXnXnXnXnXnXnXnXnXnXnXnXnX7 7 7 7 8 7 7 7 7 7 7 7 7 7 8 7 7 8 7 7 7 7 7 7 7 7 7 g V s p * # $ & & & $ $ < t } ] | n.7XjX#X0.X.nXnXnXnXnXnXnXnXnXnX",
"zXcXcXnXnXnXnXnXnXnXnXnXnXnXnXnXnXnXnXnX8 7 7 7 7 7 7 7 7 7 7 7 7 7 7 7 7 7 7 7 8 7 7 7 7 7 t h x s * # + # # # # # # , 0 | ] ..c.7XjX#X0.X.nXnXnXnXnXnXnXnXnXnX",
"cXcXcXnXnXnXnXnXnXnXnXnXnXnXnXnXnXnXnXnX7 7 7 7 7 7 7 7 7 7 7 7 7 7 7 7 7 7 7 7 7 7 7 7 7 5 7 h j s w & $ $ $ $ $ $ & 3 t } ] | n.6XjX#X0.X.nXnXnXnXnXnXnXnXnXnX",
"cXcXcXnXnXnXnXnXnXnXnXnXnXnXnXnXnXnXnXnX7 7 7 7 7 7 7 7 7 7 7 7 7 7 7 7 7 7 7 7 7 7 7 7 7 7 r h m f d w w w w w w w w e t | ' } n.6XkX#X0.X.nXnXnXnXnXnXnXnXnXnX",
"cXzXcXnXnXnXnXnXnXnXnXnXnXnXnXnXnXnXnXnX7 7 7 7 7 7 0 7 7 8 7 7 7 7 7 7 7 7 7 r 7 7 7 7 7 6 r l N K x a a a a a a a a i @.{ ' } h.6XkX#X0.X.nXnXnXnXnXnXnXnXnXnX",
"cXcXcXnXnXnXnXnXnXnXnXnXnXnXnXnXnXnXnXnX7 7 8 7 7 7 7 7 7 7 7 7 7 7 7 7 7 7 7 7 7 7 7 7 7 r y n K L c c c c c c c c c n ..| #.-.G.>XhX@X0.X.nXnXnXnXnXnXnXnXnXnX",
"cXcXcXnXnXnXnXnXnXnXnXnXnXnXnXnXnXnXnXnX7 7 7 7 7 7 7 7 7 7 7 7 7 7 7 7 7 7 7 7 7 7 7 7 r r h b 7.L K c c c c c c c c v ..&.g.K.OX#X(.C.4.X.nXnXnXnXnXnXnXnXnXnX",
"nXnXcXcXcXnXnXnXnXnXnXnXnXnXnXnXnXnXnXnX7 7 7 7 7 7 7 7 7 7 7 7 r 7 7 7 7 7 7 7 7 7 7 7 y h c K 7.6.c c c c c c c c c v y -..XqX<XH.0.4.<.,.nXnXnXnXnXnXnXnXnXnX",
"nXnXcXcXcXnXnXnXnXnXnXnXnXnXnXnXnXnXnX7 0 7 7 7 7 7 8 7 7 0 7 7 7 7 7 7 7 7 7 7 7 7 t y l b c K K K N N c N c c c c c h y 8.%XlXhXC.>.O.,.,.nXnXnXnXnXnXnXnXnXnX",
"nXnXcXzXzXnXnXnXnXnXnXnXnXnXnXnXnXnX7 7 7 7 7 7 7 7 7 7 7 7 7 7 7 7 7 7 7 7 7 7 7 r k %.N K K K N N K K L 7.K c c c c n n y.+XyX7XD.>.X.>.,.nXnXnXnXnXnXnXnXnXnX",
"nXnXcXcXcXnXnXnXnXnXnXnXnXnXnXnXnXnX7 7 7 7 7 7 7 7 0 7 7 7 0 7 7 7 7 7 r 7 7 7 7 t v 6.7.7.K K c c N N K N N c c c c n a y.*XyX<XA.<.X.o.,.nXnXnXnXnXnXnXnXnXnX",
"nXnXcXcXcXnXnXnXnXnXnXnXnXnXnXnXnX7 0 7 7 7 8 7 7 7 7 7 7 7 7 7 7 7 7 7 9 7 7 7 6 t v 6.7.7.7.K c x j j h j j c x c c a a L +XuXhXG.<.X.o.,.nXnXnXnXnXnXnXnXnXnX",
"nXnXcXzXcXnXnXnXnXnXnXnXnXnXnXnXnX7 7 7 7 7 7 7 7 7 7 7 7 7 7 7 7 7 7 7 7 7 7 7 7 t v 6.7.7.7.K c x p , & < e s c c c x P U +XyX7XG.<.X.,.o.nXnXnXnXnXnXnXnXnXnX",
"nXnXnXcXcXnXnXnXnXnXnXnXnXnXnXnXnXnX7 7 7 7 7 7 7 7 7 7 7 7 7 7 7 7 7 7 7 7 7 7 6 t v 6.7.7.7.7.c a < + + + < j c c c L ( (.+X=XoXC.,.o.,.,.nXnXnXnXnXnXnXnXnXnX",
"nXnXnXnXnXcXcXnXnXnXnXnXnXnXnXnXnXnX7 7 7 7 7 8 7 7 7 7 7 9 7 7 7 7 7 7 7 7 7 7 6 t v 6.7.7.7.N c h < % + % e c K c c T +X-X+Xm.d.2.,.>.,.>.nXnXnXnXnXnXnXnXnXnX",
"nXnXnXnXnXcXzXcXnXnXnXnXnXnXnXnXnX7 7 7 7 7 7 7 7 7 7 0 7 7 7 7 7 7 7 7 7 7 7 7 r t v 6.7.7.7.N c d < % + % w n K L U (.-XwX(.8.{ o.>.,.>.,.nXnXnXnXnXnXnXnXnXnX",
"nXnXnXnXnXnXcXcXcXnXnXnXnXnXnXnX7 7 7 7 7 7 7 7 7 7 7 7 7 7 7 7 7 7 7 7 7 7 7 t k v =.7.7.7.7.c d < & % % % > 2 n v.].*X%X].h.#.] {  .>.>.>.nXnXnXnXnXnXnXnXnXnX",
"nXnXnXnXnXnXnXcXcXcXnXnXnXnXnX7 8 7 7 7 7 7 7 7 7 7 7 7 7 7 7 7 7 7 7 7 7 7 7 y b 7.7.7.7.7.K j , < % % % % % @ f '.wX-X(.U %. .} } | >.>.,.nXnXnXnXnXnXnXnXnXnX",
"nXnXnXnXnXnXnXnXcXcXnXnXnXnXnX6 7 7 7 7 7 7 7 7 7 7 7 7 7 7 7 7 7 7 7 7 7 7 7 k N 7.7.7.7.L N a > % + % + + p F b.{.,X%Xv.b u @.| ..|  .>.,.nXnXnXnXnXnXnXnXnXnX",
"nXnXnXnXnXnXnXnXnXnXcXcXnXnXnX5 7 7 7 7 7 7 0 7 7 7 0 7 7 7 7 7 7 7 7 7 7 7 7 k N 6.7.7.K K c d > + % + o + F '.=X*X(.b.7.K b n l ..}  .>.>.nXnXnXnXnXnXnXnXnXnX",
"nXnXnXnXnXnXnXnXnXnXcXcXnXnXnXt 7 7 7 7 7 7 7 7 7 7 7 7 7 8 7 7 7 7 7 7 7 7 7 y =.7.7.8.7.N n p & + % + * s b.=XwX+Xs.6.7.6.K b v y  . .>.,.nXnXnXnXnXnXnXnXnXnX",
"nXnXnXnXnXnXnXnXnXnXnXnXvXvX+X:.6 5 7 7 7 7 7 7 7 7 7 7 7 7 7 7 7 7 7 7 7 7 7 @.8.k.k.k.8.=.l d > o O p b.!.[.[.'.n.k.8.6.=.n n l ..|  .o.nXnXnXnXnXnXnXnXnXnXnX",
"nXnXnXnXnXnXnXnXnXnXnXnXvXxX=Xs.r 6 7 7 7 7 7 7 7 7 7 7 7 7 7 7 7 7 7 7 7 7 r @.9.0.B.V.q.=.z 3 & + nXnXtXeX*Xl.m :.f.q.-.b l l k @.} | nXnXnXnXnXnXnXnXnXnXnXnX",
"nXnXnXnXnXnXnXnXnXnXnXnXOX=X&X/.s.*.8 4 6 6 6 6 6 7 7 7 7 7 7 7 7 7 7 7 7 6 7 @.q.V.Z.q.&.l 3 > + d nXnXuX5X'.F > g *.;.-.*.$.l k | { nXnXnXnXnXnXnXnXnXnXnXnXnX",
"nXnXnXnXnXnXnXnXnXnXnX8 :.s.M.&X&Xm.k 4 4 4 4 4 6 7 7 7 7 7 7 7 7 7 7 7 7 7 7 $.q.V.q.&.k e 1 O + U 1XyX*Xb.F C + > g b ;.9.-.%.$.| | } nXnXnXnXnXnXnXnXnXnXnXnX",
"nXnXnXnXnXnXnXnXnXnX8 7 6 t s.*XwXXXt.b b *.*.M $.t 7 7 7 7 7 7 7 7 7 7 7 6 7 @.q.0.k.y.B m f d V l.5XtX[.f % % % + % g ;.d.8.%.z ..} nXnXnXnXnXnXnXnXnXnXnXnXnX",
"nXnXnXnXnXnXnXnXnX7 7 7 4 6 *.m. X X X X X XXX Xm.M 4 q 4 4 4 4 4 4 4 4 4 4 5 y 2.B.K.XXXX[.'.'.'.}.eXtXnXp O o % + % g 9.d.9.$.k ..nXnXnXnXnXnXnXnXnXnXnXnXnXnX",
"nXnXnXnXnXnXnXnX7 7 7 7 7 7 r k y. XeXlXkXyXlXtX&Xs.t 7 7 t t 7 r t 7 t 7 7 r $.9.A.$XqXuXuXtXtXtXyXnXnXnXnXnX% % + % g 8.d.8.%.l nXnXnXnXnXnXnXnXnXnXnXnXnXnXnX",
"nXnXnXnXnXnXnXnX7 7 7 7 7 7 5 q l  XlXvXvXvXvXvX6X/.l.s.a.a.a.a.a.a.a.a.a.a.a.n.K..X%X,XeXxXvXvXvXnXnXnXnXnXnXnX% + % j q.d.q.-.*.%.nXnXnXnXnXnXnXnXnXnXnXnXnXnX",
"nXnXnXnXnXnXnXnXnXnXnXnXnXnXnXnXnXnXnXnXnXnXnXnXtX6X,X,X,X,X,X,X,X,X,X,X,X,X,X6XqX7XOXM.m.&XnXnXnXnXnXnXnXnXnXnXnXnXnX=.d.V.d.d.9.*.l nXnXnXnXnXnXnXnXnXnXnXnXnX",
"nXnXnXnXnXnXnXnXnXnXnXnXnXnXnXnXnXnXnXnXnXnXnXnXnXzXzXzXzXzXzXzXzXzXzXzXzXzXzXcXcXjXXXt.k nXnXnXnXnXnXnXnXnXnXnXnXnXnXnXB.B.B.V.q.*.v nXnXnXnXnXnXnXnXnXnXnXnXnX",
"nXnXnXnXnXnXnXnXnXnXnXnXnXnXnXnXnXnXnXnXnXnXnXnXnXnXnXvXnXnXnXnXnXnXnXnXnXnXnXnXnXnX XnXnXnXnXnXnXnXnXnXnXnXnXnXnXnXnXnXnXnXB.nX0.*.nXnXnXnXnXnXnXnXnXnXnXnXnXnX",
"nXnXnXnXnXnXnXnXnXnXnXnXnXnXnXnXnXnXnXnXnXnXnXnXnXnXnXnXnXnXnXnXnXnXnXnXnXnXnXnXnXnXnXnXnXnXnXnXnXnXnXnXnXnXnXnXnXnXnXnXnXnXnXnXnXnXnXnXnXnXnXnXnXnXnXnXnXnXnXnX",
"nXnXnXnXnXnXnXnXnXnXnXnXnXnXnXnXnXnXnXnXnXnXnXnXnXnXnXnXnXnXnXnXnXnXnXnXnXnXnXnXnXnXnXnXnXnXnXnXnXnXnXnXnXnXnXnXnXnXnXnXnXnXnXnXnXnXnXnXnXnXnXnXnXnXnXnXnXnXnXnX"
};
