/* XPM */
static char *result[] = {
/* columns rows colors chars-per-pixel */
"80 80 232 2 ",
"   c #040202",
".  c #090A0D",
"X  c #070708",
"o  c #0B0C14",
"O  c #0C0F1A",
"+  c #090711",
"@  c #120F1B",
"#  c #0D1517",
"$  c #131415",
"%  c #14121D",
"&  c #15191B",
"*  c #191A1C",
"=  c #0B120F",
"-  c #050D2E",
";  c #0E0F20",
":  c #0D1223",
">  c #08102F",
",  c #141522",
"<  c #161924",
"1  c #1B1B24",
"2  c #121629",
"3  c #151A2C",
"4  c #1C1E2D",
"5  c #181722",
"6  c #060E30",
"7  c #0D1533",
"8  c #0E1835",
"9  c #101734",
"0  c #141B36",
"q  c #191F36",
"w  c #161D3A",
"e  c #181F3C",
"r  c #1D2123",
"t  c #1E212B",
"y  c #142525",
"u  c #1B2236",
"i  c #1B223A",
"p  c #172333",
"a  c #1C3536",
"s  c #232425",
"d  c #21242A",
"f  c #262C2D",
"g  c #2C2D2D",
"h  c #282820",
"j  c #242534",
"k  c #262B32",
"l  c #292C32",
"z  c #21263D",
"x  c #242A3B",
"c  c #292E3C",
"v  c #282435",
"b  c #362934",
"n  c #2C3434",
"m  c #2D3935",
"M  c #27313B",
"N  c #2C333C",
"B  c #2F393C",
"V  c #203D3B",
"C  c #333334",
"Z  c #32363C",
"A  c #323D3B",
"S  c #3D3C3C",
"D  c #3A3537",
"F  c #2E312B",
"G  c #452A1B",
"H  c #4A2E1D",
"J  c #422619",
"K  c #4B311E",
"L  c #50321E",
"P  c #4E3922",
"I  c #553621",
"U  c #5B3A23",
"Y  c #493836",
"T  c #5B3B35",
"R  c #653D33",
"E  c #633F25",
"W  c #36413E",
"Q  c #3A433C",
"!  c #22423E",
"~  c #594827",
"^  c #464538",
"/  c #574739",
"(  c #5B5A3A",
")  c #4A4C34",
"_  c #684428",
"`  c #7B4A2E",
"'  c #754B35",
"]  c #68563A",
"[  c #715536",
"{  c #5F6639",
"}  c #666738",
"|  c #7B653A",
" . c #77783B",
".. c #121E48",
"X. c #162147",
"o. c #1B2446",
"O. c #1C2549",
"+. c #1F294E",
"@. c #1E2843",
"#. c #1F2950",
"$. c #1F2452",
"%. c #212742",
"&. c #212A43",
"*. c #2B2C45",
"=. c #2E3342",
"-. c #2E364B",
";. c #323542",
":. c #353A43",
">. c #3A3D43",
",. c #343B4B",
"<. c #373D4D",
"1. c #222D56",
"2. c #222E59",
"3. c #202754",
"4. c #2B3651",
"5. c #363F53",
"6. c #413845",
"7. c #244546",
"8. c #3A4542",
"9. c #3C424E",
"0. c #3A4545",
"q. c #3B4353",
"w. c #3F455D",
"e. c #2E5C57",
"r. c #315470",
"t. c #38716D",
"y. c #35686A",
"u. c #444445",
"i. c #4A4545",
"p. c #4B4B4A",
"a. c #484847",
"s. c #564A44",
"d. c #53544C",
"f. c #5A5B4D",
"g. c #54544B",
"h. c #444653",
"j. c #424B5B",
"k. c #474C56",
"l. c #555354",
"z. c #5D5B5B",
"x. c #595856",
"c. c #46505F",
"v. c #775C43",
"b. c #625F58",
"n. c #686547",
"m. c #646452",
"M. c #6B6A54",
"N. c #686752",
"B. c #7C795B",
"V. c #787556",
"C. c #7B7044",
"Z. c #495463",
"A. c #475060",
"S. c #53586A",
"D. c #625F61",
"F. c #696665",
"G. c #6A6768",
"H. c #676B79",
"J. c #767272",
"K. c #7A7574",
"L. c #7E7978",
"P. c #7D7877",
"I. c #706F70",
"U. c #5A6241",
"Y. c #86572E",
"T. c #854C31",
"R. c #945D30",
"E. c #865131",
"W. c #83663B",
"Q. c #9B6937",
"!. c #98723C",
"~. c #827F3E",
"^. c #A8793B",
"/. c #B27338",
"(. c #827F5C",
"). c #907044",
"_. c #A37942",
"`. c #827D7C",
"'. c #827D77",
"]. c #3F807B",
"[. c #91883A",
"{. c #AD8D3D",
"}. c #B6B03E",
"|. c #878641",
" X c #969445",
".X c #88845C",
"XX c #958B56",
"oX c #B48E43",
"OX c #928D63",
"+X c #969164",
"@X c #999466",
"#X c #908B75",
"$X c #A79F66",
"%X c #ACA56B",
"&X c #AFA76B",
"*X c #B3AB6E",
"=X c #B5AC76",
"-X c #CC9641",
";X c #DCB142",
":X c #EAB542",
">X c #C5BA6C",
",X c #C6BC74",
"<X c #C9BF76",
"1X c #F4D143",
"2X c #CCC276",
"3X c #CBC178",
"4X c #D9CD7D",
"5X c #E3D77F",
"6X c #DBD241",
"7X c #4B9A95",
"8X c #498E97",
"9X c #56B0AF",
"0X c #8F9194",
"qX c #B5B292",
"wX c #A8ABB4",
"eX c #DAD39F",
"rX c #EADD82",
"tX c #E5DA87",
"yX c #F7ED8F",
"uX c #CDCAB4",
"iX c #F1E8A7",
"pX c #FFFFB1",
"aX c #C2C3C6",
"sX c #D7D7D1",
"dX c #FCF9C6",
"fX c #E7E5D8",
"gX c #F9F5DC",
"hX c LightYellow",
"jX c #FCFCF2",
"kX c #FFFFFF",
"lX c #E4E5E6",
"zX c None",
/* pixels */
"zXzXzXzXzXzXzXzXzXzXzXzXzXzXzXzXzXzXzXzXzXzXzXzXzXzXzXzXzXzXzXzXzXzXzXzXzXzXzXzXzXzXzXzXzXzXzXzXzXzXzXzXzXzXzXzXzXzXzXzXzXzXzXzXzXzXzXzXzXzXzXzXzXzXzXzXzXzXzXzX",
"zXzXzXzXzXzXzXzXzXzXzXzXzXzXzXzXzXzXzXzXzXzXzXzXzXzXzXzXzXzXzXzXzXzXzXzXzXzXzXzXzXzXzXzXzXzXzXzXzXzXzXzXzXzXzXzXzXzXzXzXzXzXzXzXzXzXzXzXzXzXzXzXzXzXzXzXzXzXzXzX",
"zXzXzXzXzXzXzXzXzXzXzXzXzXzXzXzXzXzXzXzXzXzXzXzXzXzXzXzXzXzXzXzXzXzXzXzXzXzXzXzXzXzXzXzXzXzXzXzXzXzXzXzXzXzXzXzXzXzXzXzXzXzXzXzXzXzXzXzXzXzXzXzXzXzXzXzXzXzXzXzX",
"zXzXzXzXzXzXzXzXzXzXzXzXzXzXzXzXzXzXzXzXzXzXzXzXzXzXzXzXzXzXzXzXzXzXzXzXzXzXzXzXzXzXzXzXzXzXzXzXzXzXzXzXzXzXzXzXzXzXzXzXzXzXzXzXzXzXzXzXzXzXzXzXzXzXzXzXzXzXzXzX",
"zXzXzXzXzXzXzXzXzXzXzXzXzXzXzXzXzXzXzXzXzXzXzXzXzXzXzXzXzXzXzXzXzXzXzXzXzXzXzXzXzXzXzXzXzXzXzXzXzXzXzXzXzXzXzXzXzXzXzXzXzXzXzXzXzXzXzXzXzXzXzXzXzXzXzXzXzXzXzXzX",
"zXzXzXzXzXzXzXzXzXzXzXzXzXzXzXzXzXzXzXzXzXzXzXzXzXzXzXzXzXzXo.O.o.o.O.o.o.o.o.+.#.1.1.1.1.1.1.O.O.O.o.o.zXzXzXzXzXzXzXzXzXzXzXzXzXzXzXzXzXzXzXzXzXzXzXzXzXzXzXzX",
"zXzXzXzXzXzXzXzXzXzXzXzXzXzXzXzXzXzXzXzXzXzXzXzXzXzXzXzXzXzXo.o.o.o.X.@.o.O.o.O.#.1.1.1.1.2.1.#.O.O.O.O.O.zXzXzXzXzXzXzXzXzXzXzXzXzXzXzXzXzXzXzXzXzXzXzXzXzXzXzX",
"zXzXzXzXzXzXzXzXzXzXzXzXzXzXzXzXzXzXzXzXzXzXzXzXzXzXzXzXzXzXzXo.X.e X.o.o.o.O.O.#.#.1.1.2.1.1.1.#.#.+.+.O.O.zXzXzXzXzXzXzXzXzXzXzXzXzXzXzXzXzXzXzXzXzXzXzXzXzXzX",
"zXzXzXzXzXzXzXzXzXzXzXzXzXzXzXzXzXzXzXzXzXzXzXzXzXzXzXzXzXzXzXzXw w w o.o.O.o.O.O.O.3.1.1.1.1.1.1.1.1.1.+.O.o.zXzXzXzXzXzXzXzXzXzXzXzXzXzXzXzXzXzXzXzXzXzXzXzXzX",
"zXzXzXzXzXzXzXzXzXzXzXzXzXzXzXzXzXzXzXzXzXzXzXzXzXzXzXzXzXzXzXzXzX0 w i i o.o.o.o.o.O.3.1.1.#.1.1.2.2.1.#.+.+.O.zXzXzXzXzXzXzXzXzXzXzXzXzXzXzXzXzXzXzXzXzXzXzXzX",
"zXzXzXzXzXzXzXzXzXzXzXzXzXzXzXzXzXzXzXzXzXzXzXG G zXzXzXzXzXzXzX0 0 0 w e ..o.o.o.O.@.+.O.O.&.1.1.2.2.2.1.1.1.@.O.zXzXzXzXzXzXzXzXzXzXzXzXzXzXzXzXzXzXzXzXzXzXzX",
"zXzXzXzXzXzXzXzXzXzXzXzXzXzXzXzXzXzXzXzXzXzXH H K zXzXzXzXzXzXzXzX0 0 0 q ..o.o.o.o.o.o.o.O.O.o.O.+.3.O.+.+.O.o.O.zXzXzXzXzXzXzXzXzXzXzXzXzXzXzXzXzXzXzXzXzXzXzX",
"zXzXzXzXzXzXzXzXzXzXzXzXzXzXzXzXzXzXzXzXzXH P U I K zXzXzXzXzXzXzXzX0 0 w i o.o.O.o.O.o.o.O.X.0 2 , 2 2 2 : 9 X.+.3.zXzXzXzXzXzXzXzXzXzXzXzXzXzXzXzXzXzXzXzXzXzX",
"zXzXzXzXzXzXzXzXzXzXzXzXzXzXzXzXzXzXzXzXG H U _ _ L G zXzXzXzXzXzXzXzX0 w e o.o.o.O.o.o.o.o.X.2 # . . + . + 2 o.1.1.zXzXzXzXzXzXzXzXzXzXzXzXzXzXzXzXzXzXzXzXzXzX",
"zXzXzXzXzXzXzXzXzXzXzXzXzXzXzXzXzXzXzXzXJ K _ Y.` _ I K zXzXzXzXzXzXzX0 w e X.o.o.o.o.O.o.w i a ! a # . y 7.7.4.1.1.zXzXzXzXzXzXzXzXzXzXzXzXzXzXzXzXzXzXzXzXzXzX",
"zXzXzXzXzXzXzXzXzXzXzXzXzXzXzXzXzXzXzXzXzXzXY.Q.R.` _ I K G G G zXzXzX0 0 w 0 i o.o.O.o.9 ; 3 y.7X].a # e.7X8Xr.1.#.zXzXzXzXzXzXzXzXzXzXzXzXzXzXzXzXzXzXzXzXzXzX",
"zXzXzXzXzXzXzXzXzXzXzXzXzXzXzXzXzXzXzXzXzXzXzX/.Q.` _ I K G L P ~ zXzXp 0 0 0 w X.o.O.o.9 + & t.9X7X! y y.9X9Xr.#.$.zXzXzXzXzXzXzXzXzXzXzXzXzXzXzXzXzXzXzXzXzXzX",
"zXzXzXzXzXzXzXzXzXzXzXzXzXzXzXzXzXzXzXzXzXzXzXzXQ._ U L K L ~ }  .|.U.n u 9 0 w X.o.+.o.9 o = ! t.e.y = ! t.y.r.#.#.zXzXzXzXzXzXzXzXzXzXzXzXzXzXzXzXzXzXzXzXzXzX",
"zXzXzXzXzXzXzXzXzXzXzXzXzXzXzXzXzXzXzXzXzXzXzXzXzXL K G K ~ | [. X Xn.Q 0 9 0 w i o.O.o.0 o X = & # = X = & p O.2.2.zXzXzXzXzXzXzXzXzXzXzXzXzXzXzXzXzXzXzXzXzXzX",
"zXzXzXzXzXzXzXzXzXzXzXzXzXzXzXzXzXzXzXzXzXzXzXzXzXzXG K P ( ~.[.oX[.| S w 8 0 i i X.w 0 , .                 o e 2.zXzXzXzXzXzXzXzXzXzXzXzXzXzXzXzXzXzXzXzXzXzXzX",
"zXzXzXzXzXzXzXzXzXzXzXzXzXzXzXzXzXzXzXzXzXzXzXzXzXzXzX~ (  .|. X{.^.` D 0 9 0 0 w 0 2 O . X                 # i 2.zXzXzXzXzXzXzXzXzXzXzXzXzXzXzXzXzXzXzXzXzXzXzX",
"zXzXzXzXzXzXzXzXzXzXzXzXzXzXzXzXzXzXzXzXzXzXzXzXzXzXzX{ { } C.|.!.R.` Y v q 0 0 w 0 % . X X X X       X   . : o.1.2.zXzXzXzXzXzXzXzXzXzXzXzXzXzXzXzXzXzXzXzXzXzX",
"zXzXzXzXzXzXzXzXzXzXzXzXzXzXzXzXzXzXzXzXzXzXzXzXzXzXzXzX{ { ( ( T R R R R b 0 8 0 0 2 O O O O . X       o 2 i +.1.2.2.zXzXzXzXzXzXzXzXzXzXzXzXzXzXzXzXzXzXzXzXzX",
"zXzXzXzXzXzXzXzXzXzXzXzXzXzXzXzXzXzXzXzXzXzXzXzXzXzXzX{ { ( A x z v H T.T.T v 0 0 0 9 9 0 9 2 O X     . 2 o.#.#.1.2.2.2.zXzXzXzXzXzXzXzXzXzXzXzXzXzXzXzXzXzXzXzX",
"zXzXzXzXzXzXzXzXzXzXzXzXzXzXzXzXzXzXzXzXzXzXzXzXzXzXzX^ ) Q x 0 7 9 b R T.' / Y z 9 0 0 e 0 9 2 O o o , i #.2.2.2.1.1.2.1.zXzXzXzXzXzXzXzXzXzXzXzXzXzXzXzXzXzXzX",
"zXzXzXzXzXzXzXzXzXzXzXzXzXzXzXzX9 9 9 9 9 9 0 0 0 0 p x n k u 9 9 w q b Y ' !.| D 8 7 0 w 0 0 0 0 0 i o.+.2.2.2.1.1.1.2.2.1.zXzXzXzXzXzXzXzXzXzXzXzXzXzXzXzXzXzX",
"zXzXzXzXzXzXzXzXzXzXzXzXzXzXzXz x x x z z z i q 0 0 0 0 0 0 0 0 0 0 9 9 v ] _.!./ v u w 0 0 w e o.O.#.1.#.1.2.2.2.1.1.1.2.1.zXzXzXzXzXzXzXzXzXzXzXzXzXzXzXzXzXzX",
"zXzXzXzXzXzXzXzXzXzXzXzXg g >.h.k.Z.k.h.<.;.c j 1 2 : : ; : 2 < 3 3 3 9 e Y ] | ).] Y i ..w ..o.O.+.#.#.#.+.#.2.1.2.2.1.1.2.1.zXzXzXzXzXzXzXzXzXzXzXzXzXzXzXzXzX",
"zXzXzXzXzXzXzXzXzXzXC C C C u.D.J.J.J.F.z.p.>.C g r & & * * & & & & 5 0 q e v / Q._.v.*...o.o.o.o.O.O.O.O.O.+.#.1.1.1.1.2.2.1.zXzXzXzXzXzXzXzXzXzXzXzXzXzXzXzXzX",
"zXzXzXzXzXzXzXzXzXS u.i.i.a.l.D.G.G.G.D.x.l.m.C.n.n.} ] ] ) h $ $ & 5 3 0 7 0 Y W.!.).s.6.*...o.X.X.o.o.o.o.O.+.3.1.1.1.1.1.2.zXzXzXzXzXzXzXzXzXzXzXzXzXzXzXzXzX",
"zXzXzXzXzXzXzXzXC u.x.F.G.F.m.l.p.p.p.i.Y p.(.*X2X>X>X2X*X XY $ o & 5 3 9 8 8 v Y ] W._.).,.........X.o.o.o.o.O.+.3.1.1.2.1.1.zXzXzXzXzXzXzXzXzXzXzXzXzXzXzXzXzX",
"zXzXzXzXzXzXzXzXC p.F.P.P.J.D.u.b C l l k ^ .X2X5X5X5X5X5X&X} F * & < 3 q i @.x Z ^ W./.).s.-.*.;.-.&.o.O.o.o.o.@.3.1.2.1.2.1.zXzXzXzXzXzXzXzXzXzXzXzXzXzXzXzXzX",
"zXzXzXzXzXzXzXzXzXl.J.L.H.l.h.c j 4 q 3 4 N f..X+X+XOXOXOXXXXX(.( 4 : : t ;.h.k.h.i.] W.W.v.v.W.v.s.;.$...%.%.$.O.3.1.1.1.1.1.zXzXzXzXzXzXzXzXzXzXzXzXzXzXzXzXzX",
"zXzXzXzXzXzXzXzXzXzXL.J.l.=.u 0 q q u p q q x Z Z ;.=.N :.M.*X,X(.Z 2 , d u.G.G.z.d.u.Y [ !.{.-XoX).6.%...%...%.o.3.1.1.1.1.2.zXzXzXzXzXzXzXzXzXzXzXzXzXzXzXzXzX",
"zXzXzXzXzXzXzXzXzXzXzXI.h.e 7 7 u >.d.p.N 0 7 7 7 7 6 - 9 a.OX*X+XM.^ d d h.J.K.F.l.8.C ] {.:X:X;X_.6.*.....o.o.o.3.1.1.2.1.2.zXzXzXzXzXzXzXzXzXzXzXzXzXzXzXzXzX",
"zXzXzXzXzXzXzXzXzXzXzXzX*.w 7 7 x M.%X+Xp.w 7 9 7 7 7 7 9 x a.N.@X*X.X^ j h.J.K.F.l.>.C } }.1X1X;X_.6.%...$.o.o.o.3.1.1.1.2.1.zXzXzXzXzXzXzXzXzXzXzXzXzXzXzXzXzX",
"zXzXzXzXzXzXzXzXzXzXzXzX0 u i x u.OX3X%Xd.q 7 0 i c N x w 0 9 ;.(.,X*Xm.>.Z.J.J.G.x.9.S } }.6X;X-XQ.6.*.%.%.o.o.O.#.1.1.2.2.1.zXzXzXzXzXzXzXzXzXzXzXzXzXzXzXzXzX",
"zXzXzXzXzXzXzXzXzXzXzXzXzX0 :.m..X+XOXM.>.0 > 7 Z N.B.p.u 6 6 i d.(.+X+XOX#X'.K.I.F.l.a.( ~.[.[.E.v.v.R 6.*.o.o.O.&.1.2.1.1.2.zXzXzXzXzXzXzXzXzXzXzXzXzXzXzXzXzX",
"zXzXzXzXzXzXzXzXzXzXzXzXzX0 d.%X3XOXa.x q 0 7 0 f.&X2X.X;.9 9 w e ;.m.*X<XqX#X`.L.J.F.x.g.) ^ ^ Y / E.T.R *...o.O.#.1.1.2.1.1.zXzXzXzXzXzXzXzXzXzXzXzXzXzXzXzXzX",
"zXzXzXzXzXzXzXzXzXzXzXzX6 i f.<XrXOXN 6 7 i -.S.0XeXiXqXH.j.&.9 > 9 6.OX,X%X`.`.`.L.J.F.x.u.Z Z >.T T.T.T $...o.O.#.3.2.1.2.1.zXzXzXzXzXzXzXzXzXzXzXzXzXzXzXzXzX",
"zXzXzXzXzXzXzXzXzXzXzXzX6 q f.2XrX+XN 6 - &.H.wXsXgXgXfXaX0Xj.8 > 9 x i.b.I.'.`.#X`.L.J.F.l.p.p.p.i./ T D &.X.o.O.+.1.1.1.1.1.zXzXzXzXzXzXzXzXzXzXzXzXzXzXzXzXzX",
"zXzXzXzXzXzXzXzXzXzXzXzX7 0 g.%X,X.XB 9 u k.0XlXkXkXkXkXkXaXH.=.q q 0 0 z j.F.J.J.J.L.L.J.F.z.x.x.p.S C x o.o.O.O.+.1.1.1.1.1.zXzXzXzXzXzXzXzXzXzXzXzXzXzXzXzXzX",
"zXzXzXzXzXzXzXzXzXzXzXzX7 w >.M.B.d.x Z m.#XuXkXkXkXkXkXkXfXqXB.a.x 7 7 0 *.h.l.l.b.I.L.`.J.G.F.z.d.S c x o.o.X.O.+.1.1.2.1.1.zXzXzXzXzXzXzXzXzXzXzXzXzXzXzXzXzX",
"zXzXzXzXzXzXzXzXzXzXzXzX9 0 i c =.i i p.$XtXdXjXkXkXkXkXkXgXiX,XB.N 7 9 w i i c Z 6.z.J.`.'.J.G.z.p.D Z x %.o.O.O.3.1.1.1.1.2.zXzXzXzXzXzXzXzXzXzXzXzXzXzXzXzXzX",
"zXzXzXzXzXzXzXzXzXzXzXzX0 0 9 7 7 6 0 m.>XpXdXjXkXkXkXkXkXhXpXrXXXZ 7 7 8 8 9 4 k C i.z.m.F.z.l.i.S C v z o.o.o.@.+.1.1.1.1.1.zXzXzXzXzXzXzXzXzXzXzXzXzXzXzXzXzX",
"zXzXzXzXzXzXzXzXzXzXzXzXq 0 0 7 6 > 0 f.,XyXdXjXkXkXkXkXkXhXpXrXXX;.7 7 7 8 0 q k C C D C D C b g s r s t o.o.o.O.3.1.1.1.2.2.zXzXzXzXzXzXzXzXzXzXzXzXzXzXzXzXzX",
"zXzXzXzXzXzXzXzXzXzXzXzX9 w u c c i e d.%XtXpXjXkXkXkXkXkXgXiX3XB.N w x N z q j l C s * * & & & * * $ * 4 X.O.o.o.+.1.1.2.1.1.zXzXzXzXzXzXzXzXzXzXzXzXzXzXzXzXzX",
"zXzXzXzXzXzXzXzXzXzXzXzX8 q >.M.B.d.x N m.#XuXjXkXkXkXkXkXfXqXB.a.x :.N.B.d.x q v g s $ $ $ $ $ $ $ $ & 4 o.o.O.O.+.1.1.1.2.1.zXzXzXzXzXzXzXzXzXzXzXzXzXzXzXzXzX",
"zXzXzXzXzXzXzXzXzXzXzXzX6 u d.%X<X(.=.9 u k.0XlXkXkXkXkXkXaXH.=.0 i d.%X<X(.B 0 k n s * & & & & $ * $ * t o.o.o.O.+.#.2.1.1.2.zXzXzXzXzXzXzXzXzXzXzXzXzXzXzXzXzX",
"zXzXzXzXzXzXzXzXzXzXzXzX6 w f.<XrX+XN 6 > &.H.wXsXgXgXfXaX0Xw.8 - 0 m.2XrX+XZ 0 k C F r r r r r r r r s p o.O.o.O.#.1.1.2.1.1.zXzXzXzXzXzXzXzXzXzXzXzXzXzXzXzXzX",
"zXzXzXzXzXzXzXzXzXzXzXzX6 q m.<XrX+X=.6 7 i 4.S.0XeXiXqXH.j.&.9 - q m.2XrX+X;.i M A m F h f f f f f g f x o.O.o.O.+.1.1.2.1.1.zXzXzXzXzXzXzXzXzXzXzXzXzXzXzXzXzX",
"zXzXzXzXzXzXzXzXzXzXzXzX6 w d.%X2XOXa.x q 0 7 i g.&X3X.X;.0 9 0 7 q l.&X<X(.A i B 8.W m m m m m m m m n x o.o.o.O.+.1.1.1.1.2.zXzXzXzXzXzXzXzXzXzXzXzXzXzXzXzXzX",
"zXzXzXzXzXzXzXzXzXzXzXzX7 w :.N..X+XOXM.:.7 - 7 Z M.V.g.u > 9 0 9 q >.M.B.g.B k A 8.A m m m m m m m m m &.o.O.X.O.+.1.1.1.1.1.zXzXzXzXzXzXzXzXzXzXzXzXzXzXzXzXzX",
"zXzXzXzXzXzXzXzXzXzXzXzX9 0 u x u.OX3X%Xg.u 7 w u c N x q 0 0 0 0 0 i c B B n B >.8.W m m n m n m m m m M @.o.O.o.+.1.1.2.1.2.zXzXzXzXzXzXzXzXzXzXzXzXzXzXzXzXzX",
"zXzXzXzXzXzXzXzXzXzXzXzX0 0 8 7 x M.%X%X(.f.>.i 0 9 7 7 9 9 0 0 0 0 0 i u n m W W W W B A A A m m m m m M @.@.o.O.+.1.1.1.1.1.zXzXzXzXzXzXzXzXzXzXzXzXzXzXzXzXzX",
"zXzXzXzXzXzXzXzXzXzXzXzXq 0 9 7 u ;.d.(.%X%XM.c 9 7 9 9 9 9 0 0 0 0 u x M B W W A A W W Q 8.W A m m m m m M M @.O.+.1.1.2.2.1.zXzXzXzXzXzXzXzXzXzXzXzXzXzXzXzXzX",
"zXzXzXzXzXzXzXzXzXzXzXzX0 0 0 0 0 9 i d.&X<X(.N 8 9 w x N c i 0 0 0 x B 8.8.8.W W m m W A W A A m m m m m m M @.O.#.1.1.1.1.1.zXzXzXzXzXzXzXzXzXzXzXzXzXzXzXzXzX",
"zXzXzXzXzXzXzXzXzXzXzXzX0 w 0 0 0 7 9 :.M.(.f.x 9 7 x f.(.V.0.0 8 0 i :.8.8.8.W m n n f f k f n m m F m m m M x O.#.1.1.1.1.1.zXzXzXzXzXzXzXzXzXzXzXzXzXzXzXzXzX",
"zXzXzXzXzXzXzXzXzXzXzXzXw 0 0 q 0 0 q i N =.x w 9 8 N (.,X%Xg.u 7 0 x B 8.8.8.8.B m d 1 5 5 1 f F V m m m m M &.O.#.1.1.1.1.1.zXzXzXzXzXzXzXzXzXzXzXzXzXzXzXzXzX",
"zXzXzXzXzXzXzXzXzXzXzXzX0 0 0 0 0 0 0 0 9 8 9 0 9 9 *.V.%XOXp.i 7 0 i B 8.8.8.W A m t & @ @ % d m W W m m m M &.O.+.#.1.2.1.2.zXzXzXzXzXzXzXzXzXzXzXzXzXzXzXzXzX",
"zXzXzXzXzXzXzXzXzXzXzXzX0 q 0 0 0 w 0 0 0 9 0 0 0 0 i >.g.p.N 0 8 0 i B 8.8.8.8.A n r 5 @ @ 5 f A W A m m m n &.O.#.1.1.1.1.1.zXzXzXzXzXzXzXzXzXzXzXzXzXzXzXzXzX",
"zXzXzXzXzXzXzXzXzXzXzXzX0 0 0 0 0 0 0 0 0 0 0 0 0 0 q w i 0 0 0 0 i M B 8.8.8.W m l t * @ @ 5 f m A m m m m M i o.+.1.1.1.2.1.zXzXzXzXzXzXzXzXzXzXzXzXzXzXzXzXzX",
"zXzXzXzXzXzXzXzXzXzXzXzXq 0 0 w 0 0 0 0 0 0 0 w q 0 0 9 7 9 9 w i M B 8.8.8.8.W l s 1 5 % @ < 1 f n n m m m M @.O.O.+.3.1.1.2.zXzXzXzXzXzXzXzXzXzXzXzXzXzXzXzXzX",
"zXzXzXzXzXzXzXzXzXzXzXzX0 0 0 0 q 0 0 w 0 0 0 0 0 0 0 0 w 9 0 u M A 8.8.8.8.8.m d 5 % % % % % % < r f m m m M @.o.O.O.+.1.1.2.zXzXzXzXzXzXzXzXzXzXzXzXzXzXzXzXzX",
"zXzXzXzXzXzXzXzXzXzXzXzXq 0 0 0 0 0 0 0 0 0 w 0 0 0 0 0 0 0 0 u M 8.8.8.8.8.W n 1 % $ % % % % @ @ 1 l m W A m M @.@.o.O.1.1.2.zXzXzXzXzXzXzXzXzXzXzXzXzXzXzXzXzX",
"zXzXzXzXzXzXzXzXzXzXzXzX0 0 0 q w 0 0 q 0 0 0 0 0 q 0 u 0 w 9 i M W 8.8.W W W n 1 % % % % % 5 @ % t n W W W B B c &.o.O.1.1.2.zXzXzXzXzXzXzXzXzXzXzXzXzXzXzXzXzX",
"zXzXzXzXzXzXzXzXzXzXzXzXzX0 0 0 0 w 0 0 0 q 0 0 0 w 0 0 0 0 0 i M 8.0.0.8.8.m f < % % % 5 @ % % % d Z 0.8.8.W B B x o.O.+.1.zXzXzXzXzXzXzXzXzXzXzXzXzXzXzXzXzXzX",
"zXzXzXzXzXzXzXzXzXzXzXzXzXw 0 0 0 0 0 0 0 0 0 w 0 0 0 0 0 0 0 i -.9.k.k.9.0.B p < % % % % % % @ % d >.h.9.:.A M M &.%.O.+.zXzXzXzXzXzXzXzXzXzXzXzXzXzXzXzXzXzXzX",
"zXzXzXzXzXzXzXzXzXzXzXzX0 0 0 0 0 q 0 0 0 0 0 0 0 0 0 0 0 0 9 i -.j.A.Z.k.<.c j < % @ % % % @ @ 5 d <.j.9.N c c c %.o.O.zXzXzXzXzXzXzXzXzXzXzXzXzXzXzXzXzXzXzXzX",
"zXzXzXzXzXzXzXzXzXzXzXzX0 0 0 0 0 0 0 0 q 0 q 0 0 0 0 0 0 0 0 i -.c.Z.Z.A.<.x 4 5 % % % @ 5 5 @ % 4 ;.<.<.-.=.N x %.o.o.zXzXzXzXzXzXzXzXzXzXzXzXzXzXzXzXzXzXzXzX",
"zXzXzXzXzXzXzXzXzXzXzX, 2 q q w 0 0 w q 0 0 0 0 0 0 i 0 0 0 0 i 4.j.Z.Z.j.;.t 5 , % % % % % % @ % 5 4 l ;.9.5.;.c @.o.o.zXzXzXzXzXzXzXzXzXzXzXzXzXzXzXzXzXzXzXzX",
"zXzXzXzXzXzXzXzXzXzX% @ < 0 0 0 0 0 0 0 w 0 0 0 0 i 0 0 0 0 9 i -.c.Z.Z.h.=.5 @ % % % % % % 5 @ % @ % < =.j.w.,.c &.o.O.zXzXzXzXzXzXzXzXzXzXzXzXzXzXzXzXzXzXzXzX",
"zXzXzXzXzXzXzXzXzXzX% < 3 0 0 0 0 0 0 q 0 0 0 0 0 0 0 0 i 9 9 i -.j.Z.h.,.j 5 @ % % zXzXzXzX% % % @ @ 1 ;.j.h.;.x z o.zXzXzXzXzXzXzXzXzXzXzXzXzXzXzXzXzXzXzXzXzX",
"zXzXzXzXzXzXzXzXzXzX% % < 0 0 0 0 0 w 0 0 0 w 0 0 0 0 0 0 0 0 i 4.j.j.,.*.t < % zXzXzXzXzXzXzX% % % @ 1 ;.j.w.,.c x zXzXzXzXzXzXzXzXzXzXzXzXzXzXzXzXzXzXzXzXzXzX",
"zXzXzXzXzXzXzXzXzXzX% , 2 0 0 0 0 0 0 0 0 0 w 0 0 0 0 0 8 p &.*.,.q.5.;.x 4 < zXzXzXzXzXzXzXzXzX% % @ 4 :.j.j.5.;.=.zXzXzXzXzXzXzXzXzXzXzXzXzXzXzXzXzXzXzXzXzXzX",
"zXzXzXzXzXzXzXzXzXzXzXzXzXzXzXzXzXzXzXzXzXzXzXzXzXzXzXzXzX-.q.q.<.,.;.c k j zXzXzXzXzXzXzXzXzXzXzXzXzXzXq.c.c.j.w.,.=.c zXzXzXzXzXzXzXzXzXzXzXzXzXzXzXzXzXzXzXzX",
"zXzXzXzXzXzXzXzXzXzXzXzXzXzXzXzXzXzXzXzXzXzXzXzXzXzXzXzXzXzXZ.c.<.=.x x c zXzXzXzXzXzXzXzXzXzXzXzXzXzXzXzXZ.Z.Z.j.9.c x zXzXzXzXzXzXzXzXzXzXzXzXzXzXzXzXzXzXzXzX",
"zXzXzXzXzXzXzXzXzXzXzXzXzXzXzXzXzXzXzXzXzXzXzXzXzXzXzXzXzXzXzXzXq.zXzXzXzXzXzXzXzXzXzXzXzXzXzXzXzXzXzXzXzXzXzXzXzX9.=.zXzXzXzXzXzXzXzXzXzXzXzXzXzXzXzXzXzXzXzXzX",
"zXzXzXzXzXzXzXzXzXzXzXzXzXzXzXzXzXzXzXzXzXzXzXzXzXzXzXzXzXzXzXzXzXzXzXzXzXzXzXzXzXzXzXzXzXzXzXzXzXzXzXzXzXzXzXzXzXzXzXzXzXzXzXzXzXzXzXzXzXzXzXzXzXzXzXzXzXzXzXzX",
"zXzXzXzXzXzXzXzXzXzXzXzXzXzXzXzXzXzXzXzXzXzXzXzXzXzXzXzXzXzXzXzXzXzXzXzXzXzXzXzXzXzXzXzXzXzXzXzXzXzXzXzXzXzXzXzXzXzXzXzXzXzXzXzXzXzXzXzXzXzXzXzXzXzXzXzXzXzXzXzX"
};
