/* XPM */
static char *result[] = {
/* columns rows colors chars-per-pixel */
"80 80 153 2 ",
"   c #5B553F",
".  c #675D3D",
"X  c #726A3F",
"o  c #7C6F3D",
"O  c #7C723F",
"+  c #101F44",
"@  c #0E2044",
"#  c #112346",
"$  c #122749",
"%  c #122B4B",
"&  c #12324E",
"*  c #19324E",
"=  c #143650",
"-  c #143B52",
";  c #193E54",
":  c #124356",
">  c #194256",
",  c #144658",
"<  c #1A4659",
"1  c #154B5A",
"2  c #1B4C5C",
"3  c #16515E",
"4  c #1B515E",
"5  c #2C454F",
"6  c #3C4244",
"7  c #3C4A48",
"8  c #3D534C",
"9  c #23415A",
"0  c #2A445A",
"q  c #234A5E",
"w  c #294D5F",
"e  c #24515F",
"r  c #34635D",
"t  c #1D5561",
"y  c #1E5963",
"u  c #284A60",
"i  c #215562",
"p  c #215B64",
"a  c #235F68",
"s  c #216067",
"d  c #236169",
"f  c #4C5043",
"g  c #41574E",
"h  c #5C5B43",
"j  c #525D4A",
"k  c #425B51",
"l  c #5D6246",
"z  c #5B6748",
"x  c #52684F",
"c  c #5F6D4B",
"v  c #436455",
"b  c #676B45",
"n  c #6A6C46",
"m  c #616E4D",
"M  c #62704E",
"N  c #6D744A",
"B  c #6E784A",
"V  c #767545",
"C  c #7D7540",
"Z  c #767A47",
"A  c #787A47",
"S  c #777A48",
"D  c #787C48",
"F  c #85733D",
"G  c #86793F",
"H  c #8D7D3E",
"J  c #937E3B",
"K  c #997E39",
"L  c #847C43",
"P  c #8E813F",
"I  c #94813C",
"U  c #9A843C",
"Y  c #9B893E",
"T  c #A98A34",
"R  c #A38639",
"E  c #A38D3D",
"W  c #AB8F3A",
"Q  c #A7903C",
"!  c #AC913B",
"~  c #B59235",
"^  c #BA9534",
"/  c #BE9B37",
"(  c #B4953C",
")  c #BE9D3C",
"_  c #C49E37",
"`  c #C29F3C",
"'  c #C6A33C",
"]  c #CAA43A",
"[  c #D5AB37",
"{  c #DBAF37",
"}  c #D2AA3A",
"|  c #DDB239",
" . c #E1B63B",
".. c #E5B93B",
"X. c #EDC03E",
"o. c #878042",
"O. c #8C8342",
"+. c #918642",
"@. c #968841",
"#. c #BE9C41",
"$. c #B49749",
"%. c #CAAB45",
"&. c #C9A84F",
"*. c #DCB440",
"=. c #DFBD4E",
"-. c #CBAA52",
";. c #E3BE59",
":. c #EDC74A",
">. c #EDC84E",
",. c #F4C741",
"<. c #FACC41",
"1. c #FFD54D",
"2. c #FFDA4F",
"3. c #E5C451",
"4. c #EEC952",
"5. c #F4CD58",
"6. c #EFD25E",
"7. c #F5D457",
"8. c #F5D55F",
"9. c #FFDF5D",
"0. c #FFE35F",
"q. c #E7C565",
"w. c #EFCF66",
"e. c #F9DF6B",
"r. c #E3C77F",
"t. c #FFDE75",
"y. c #FEDD7A",
"u. c #FFE66E",
"i. c #FFE276",
"p. c #FFE971",
"a. c #FCE67A",
"s. c #FFE97F",
"d. c #EFD99D",
"f. c #FFED83",
"g. c #FEEE8F",
"h. c #FFEF94",
"j. c #FFF197",
"k. c #FFF299",
"l. c #FFE9A1",
"z. c #FFF2A4",
"x. c #FFF5AD",
"c. c #F9E8B6",
"v. c #FFF6B2",
"b. c #FFF4C4",
"n. c #FFF9C6",
"m. c #FFF3CA",
"M. c #FFFAC9",
"N. c #FFF9D3",
"B. c #FFFBDC",
"V. c #FFFCE1",
"C. c #FEF8E8",
"Z. c #FFFDF2",
"A. c #FFFFFF",
/* pixels */
"# # = p 4 # # 2 e > q i > % i p 4 # # * @ # e * < t i s d d d y > = $ * > i a a y y t = 1 4 % 1 y y 3 : : 4 - % # 1 4 : , 2 & # y - - : - 3 % % & : 1 4 e y i & ",
"% % t i 4 # # & i 4 > > 1 > i y # ; # 2 # # ; 1 = < i p d d d p > = % = > i p y 3 1 1 & < - % & 1 y 3 1 : : 1 & % < - : 3 3 & % = < : : 1 < $ % = 1 > 2 ; > ; % ",
"> > > p = # # 2 4 * > $ 4 2 <.y # 4 * 2 % @ # # 1 2 t p d d a y < = % = < y y t 1 3 : = = , % & 3 3 4 1 : : - 4 & < - : 4 2 $ # 4 < : - y , # % 1 : : 1 ; e % # ",
"2 > > y > # & > 2 1 1 % 4 <.e X.# i 4 4 2 * # # % 2 2 t y y a <.<.<.- ; t 4 4 1 < 2 t <.$ * $ & : - 4 3 : : : 4 4 & & 4 & , % % 4 , t 4 2 $ # ; & - 2 = > 2 % # ",
"< # 2 y - # < - 2 1 1 > e p X.p # > > 4 > 4 % @ % - 4 3 y y <.y y 1 <., t 1 1 : 2 2 <.> # # = - $ & 2 p 1 : : 4 4 - X.e % > % < = $ p t $ $ = < & - 4 = 2 ; # # ",
"4 % e 4 1 # 4 2 : 4 2 & > 4 e s % 4 # > > 4 > & = < 2 t t y y <.<.<.: 1 4 : : - 2 <.= <.$ * 2 > @ $ 1 4 4 1 , 1 X.- e % % # > : ; & % ; $ $ q = = 1 <.1 & > * # ",
"2 = 2 * 4 % 2 4 : 4 : % : < 2 4 2 > $ 1 > & > 4 t y = - t t t ,.<.<., t : : : , p = <.> * t t > $ # % / 4 2 : X.: X.2 # + $ 2 % $ > <.+ $ % = < < y <.1 % 2 4 # ",
"* > # # i > & 4 : 4 2 % > e 2 1 4 & % 4 * * r X.t < 1 & 3 1 <.t 1 2 ,.3 : : : y 2 < > 2 ; 2 q = $ # # % : & : : X.* < : : = - & = > <.$ % = < < < 1 <.% % 1 = @ ",
"# * # # y # % 2 : 4 - & & 2 - 4 y : & $ @ y X.e <.4 ; % & y , <.<.<.% & 4 : : y t , % ; 2 i < 2 & # + & e % 4 y * * % e y 4 2 : - & <.$ = 2 t t t p t $ # 2 > # ",
"# & # # y # % & 4 4 & : $ > 4 3 4 1 & $ $ y e X.< = > % & / , y < <.$ - 4 - - t t , <.1 4 y i ; > * % 2 4 = # 4 # # > < % 4 : 3 3 - & = ; y a y i = $ # $ i > % ",
"# > # # 2 # % & 4 e - % $ % 4 3 4 4 = = # 4 * s 2 > < % / : / = % <.# t ; = = i e <.$ <.t t t 2 > 1 < 4 4 > # y # % > 2 - & 2 , , 3 > t t y t 2 ; % $ $ % q = ; ",
"% & # # 2 # # % & X.% $ $ % 4 4 4 : 4 4 # # # 4 $ 1 1 : 1 / t % % ,.= < 1 = < 2 2 < <.= t 1 3 4 2 4 > e 4 = # 4 % < _ > 4 % : 4 1 2 y p t 4 2 1 ; % # % ; < 4 4 ",
"- @ @ # 4 # * : * X.# # # % 4 : y : y 2 % # # @ * t 2 t y y - % * < 4 # < 4 ; 4 1 > % = t , 4 <.e e 4 > : < + s < 4 # 4 : % : : t 3 t y y 3 1 : = & & = 2 i p a ",
"5 @ # : 4 : 4 y % X.# % & - y - i 2 y / > @ % % <.4 : , y 1 > > 2 % 4 # 2 % 1 % 2 * = = 1 , 1 <.s p 4 4 % 5 + 4 4 4 # y > $ % : 4 3 <.y y 3 1 : - = 1 2 1 y y a ",
"* @ > 4 4 y e 4 # # # > e p 4 & = 1 y / 1 % & ,.3 <.: t t > - ; > > ; @ % = 4 <.< 1 ; = 2 t > <.p p 2 y % + # 4 > > * y # & & & 3 t t y y 3 1 1 2 < > < t y y y ",
"@ = 1 p 3 : 4 * * % > 4 4 X.$ $ 1 % y / e % = 3 <.: : t 2 > > ; <.> / % & 4 y t i y 4 > 2 4 = 2 p p 2 i * # X.e > 2 4 3 # > 1 % & y 3 1 y 1 3 y 2 4 t i y <.y 1 ",
"* 4 > y : 2 : & > & & 4 s 2 # & 4 # e 4 4 & : 3 : <.1 y 1 < % <.q X.$ & & p 4 / 4 y p 4 4 e * 2 i i 4 4 * % # * > 2 4 s % > / $ % = 4 : y : y t 4 t y y <.y <.: ",
"4 4 : e : 4 & 2 $ % 4 e 4 # # 4 # & e # e & 2 / <.: <.1 3 % # < X.2 * = - : : / y y y y 2 ; > 1 4 i p <.X.& # : 4 2 4 4 < % e X.<.<.; - t - 1 t 1 t t y <.t <.= ",
"e y y > 4 & % 2 % > 4 4 4 $ % < * 4 X.# 4 : 4 : : <.t y / # # % ; 9 2 2 1 > - / y 4 4 i y 2 2 3 4 4 y 4 X.5 % > > 2 e 4 e 1 X.* $ $ <.% t & : 2 4 3 3 t <.1 <.% ",
"s 4 p 2 4 % # < > $ e < > > & e > 2 X.* % 4 3 : : 1 4 / = / # & ; 4 4 4 e 4 % & - y 1 4 y 4 4 / 3 4 p X.X.X.& 4 & > X.r e 4 r X.<.<.= % t % : 2 2 - 3 4 t <.% $ ",
"s p 4 4 & % # < # & 4 > e & e = e > X.# $ & - : <.y p q ` % = ; < e s 4 4 % % % = 3 1 3 d s s s 4 p : 1 X.s : 3 4 <.2 y 4 s s % + $ < % < ; $ i 4 - t 1 1 % # + ",
"s p 4 y & # + + + 4 e 4 > e X.X.X.; * # # % % - <.y y 1 < i 2 2 e 4 4 s - % # $ % & : 3 d d s 4 4 y 1 : / y 1 y e X.4 y s 4 & _ % % < ; 2 ; $ < 2 : : 3 3 % # + ",
"4 s 4 y % # # % % e - s y X.4 4 r X.* $ # # % : <.4 p # = i 2 4 4 X.4 1 - % $ @ $ % = 4 X.r p s 3 3 1 1 : s y 4 4 <.4 3 4 - % % % ; t i a * % % & t t - - $ @ @ ",
"s 4 4 y % # % > 2 % - 1.r X.s s r X.> % # # : $ * i ; = 2 < t y 4 3 4 : & & $ @ @ % * i X.4 s 4 1 4 : : 1 3 3 y p p 3 4 4 - % & - 4 i i i > = $ % 3 t - y % $ # ",
"4 s 4 1 & $ > 2 e % * 2 d X.r s s 2.e : > % < # 5 y 4 2 > 2 y y s 4 : : : 4 % # + _ % X.X.r 4 4 : t 3 : : 1 y y s i 2 t - = & 2 4 t y t 4 y t $ % = - - = = & & ",
"4 4 4 % > - % 4 2 % % 4 5 X.y y 4 X.4 e s X.X.* % 4 2 < 4 4 4 y 3 4 1 _ 4 4 < : % % X.p 4 4 4 : = t / : , 3 y y s t < 2 & - > <.< 4 t 4 y - 2 $ ,.% = = ; ; > > ",
"& 2 4 = > < X.4 % # % 4 * X.y 3 s X.y 4 4 y 4 % & e 2 e 4 <.3 1 3 3 s 1 - 4 4 % 2 X.* X.: : 2 - & ) , / , 3 y y p 4 > 2 / 2 <.<.<.t 2 1 y 2 - + ,.% % = > 4 y y ",
"> # # 2 # e 1.4 < & % < % * X.X.X.4 4 p _ y e : < 2 4 e y <.3 1 3 4 y 3 & e 4 2 e q X.4 : 1 2 : % 1 ) 1 3 1 t y p q > 1 = 4 <.<.<.t 1 1 y t = $ <.$ % = > t y s ",
"+ + # # % < X.5 < e > > + = 4 4 4 X.4 y y y y s 4 X.i d p X.<.: 4 X.3 4 , 4 s s > < % 4 : <., 4 % > / t 1 > 1 t t 4 <.> t < 4 <.t 1 : t t i $ $ <.= = ; 2 t y y ",
"# + # % < # 2 # # # > 2 # e : 4 r X.3 p 3 p p p / r s s d 4 3 : e , 2 4 % 4 $ 4 # 4 > 4 2 4 4 1 4 @ 2 4 & 1 t 1 3 <.y <.i 4 t 4 <.1 - 4 > i $ % <.> < 4 2 4 t <.",
"# # # > # + > # # # - 2 % 2 : s s X.3 p 4 y y s y s s s p 4 3 : s 4 > e # # + 4 # # p 4 - 3 1 & t # # # $ = y 4 / <.y <.t t 1 1 <.2 > - ; t # % ; < i i t 1 1 <.",
"# # # % % * % # # # 2 < = 2 > e 4 y 3 X.s y 4 y s s p i 4 4 4 : 4 2 1 e # # # 2 $ $ s 4 1 4 - & % % $ # @ 2 - 2 4 <.t ,.y t 1 : <.% ` ; 4 = # % ; 4 i i 2 q < <.",
"+ = : = 4 < > = % # 4 & > 4 : 4 , 4 3 3 y y y 3 y y y 4 3 3 1 : s X.y 4 # + # 2 % - - y y y - : - 1 / # # 4 * 1 4 3 X.y 3 3 : : 2 % X.% 4 $ # % > 1 4 e u & % % ",
"+ 4 e e y e 4 2 < & # & 2 e 4 3 , 3 4 s 1 y 3 3 3 4 y 3 3 3 : , e & e & + # + 2 - 4 4 y y t = y 4 y & % # < - 4 4 3 / 3 3 : - 1 % # X.5 e # # * = 1 1 q % % # # ",
"+ $ 2 > 4 s y e * 4 > 2 & 4 # e % & y X.: 3 3 1 1 4 3 4 1 X.3 : y % 4 # # # & b D n S O o h 2 y : y - % % 2 1 , , y 1 1 : - < % # # X.< - * # 2 - t 1 9 $ # + # ",
"+ # % 4 4 4 r X.4 e : e : e & 4 - % s X.3 1 3 3 4 y : : , y : : y & # # % 5 x P H n V o o J C r : 3 : - < : 2 < : 4 : : : : > # # % 2 <.1 4 $ 1 4 2 2 & * + # + ",
"# # % 4 e 4 X.4 X.e e s y e < 2 4 % 3 X.y 1 : 1 y & & & - 4 : 3 t % # % j Z V ' {  . .{ ] J W Y v y 4 1 1 < : < 4 3 , : : 2 % $ $ & X.4 <.y # > t < 2 2 $ # + # ",
"# # # & : y p X.X.p y y y y 4 2 r % r X./ : 1 3 : : & & & 4 1 : 4 % % l P L $.q.t.t.t.w.;.&.E Q O.c 4 y 4 3 & - 4 2 4 : : 4 & # % > X.r <.% $ i y & $ 2 ; $ # # ",
"# % % > 4 y & 4 X.3 y s p s p 4 1 % 4 3 : 1 1 : : & % @ & 4 2 : = & l @.L #.r.c.m.m.b.m.b.d.-.~ Y o.y y 4 4 - : : % 4 : : y % X.$ 1 <.e <.& $ # 2 4 * 2 # > # + ",
"# 1 ; * e < < & e : 4 y s ] X.4 : % y 3 : 1 : : % & & & > 2 & - 7 z o.G / 5.l.V.A.A.A.A.A.b.y.*.T O x 4 s 3 & 1 > # & = = = * X.& 1 1 X.4 = $ # > t t # # < + # ",
"* e q 4 4 # ; % < : : e y 3 4 4 : % y : 1 1 & , & > X.4 < & % = z O.L ( 3.i.v.Z.A.A.A.A.A.B.h.8.%.R O z s 4 & 4 # # % % & % $ X.% 4 1 y : = % # - e e + # 0 q q ",
"4 4 & > 4 # = # $ 4 4 4 y : 4 % * & : 5 y : : y 9 X.X.r & > % % V Y _ :.e.g.b.C.A.A.A.A.A.B.z.a.7.| ~ P 8 s - > # # # & 2 + # % % 4 4 y <.<._ # 4 4 4 # 2 w p s ",
"4 > # > 4 # > + = 4 X.e 4 2 4 % # > & X.4 : 4 y 4 4 X.& + % # % L Y { 2.p.k.M.Z.A.A.A.A.A.B.v.f.0.X./ P M s & % # _ % 2 < # # # % < y y - <.% ; * 2 ; $ e i y s ",
"4 $ % > # + > % 4 r X.& 2 4 % $ # 1 & X.y 4 > 4 4 5 % # % 2 # % H P  .2.p.k.M.Z.A.A.A.A.A.V.v.f.0.| ^ X z & % & & > 2 > # + + * $ & 4 t 1 X.& e & > e w a X.y y ",
"> # < + # # = < * $ X.% < 4 & # # * > X.4 4 _ 2 X.< X.% < < % % G L | 2.p.j.M.Z.A.A.A.A.A.V.x.f.0.X./ X X % % < < < e # + # + 2 # > % = t t 2 i 4 e e e y <.y 1 ",
"# + 4 $ # % 2 e < + * % < > 2 % # > > 4 : > 4 e 4 s 5 % 4 * > $ O O ..2.p.k.M.Z.A.A.A.A.A.V.v.f.0.X./ O F % > < & e > % * & & 2 % > - & 4 i y i ; e y y y <.4 1 ",
"+ # # % > 4 2 e > % + > 4 > : > # 4 # e : : 4 s 4 4 X.% 3 4 > % O P [ 1.p.j.n.Z.A.A.A.A.A.B.x.s.0.X.^ I P : * # 4 4 & = 2 4 2 4 * > 2 2 p ; 2 2 > y y p y : 1 - ",
"+ # & - e 4 < 4 % > + + > 2 - 3 % 5 # < > 2 4 y s r X.> e # 2 $ f O I ' 6.s.z.N.V.V.V.V.B.b.j.u.3.) U T   + + # 2 4 2 2 e > 4 e * 2 4 4 2 4 # 2 > i y p 4 > < & ",
"+ % < e 2 4 <.; % # # # > 2 ; e = % $ 4 > 4 s 4 4 4 X.e 4 # 4 % % g I Y ' 4.s.z.v.v.v.v.x.h.u.>.) P ! Y 1 * % / % i 4 u t > t <.; 5 2 4 2 e + e < 4 p 4 i 2 % # ",
"& < < > q <.2 <.% # # % ; 2 % 1 < > * 4 4 4 4 y 4 X.: > e # > < > % m P Y ] 3.s.f.f.f.f.f.e.>.' Y ! E N 2 t < < > ; 2 t y t <.- X.> & = 2 = : 4 4 s 4 e 4 2 # + ",
"4 4 > > 2 4 <.= $ # # % & <.< $ 4 % # > < 4 e 3 4 , e # 4 & 2 2 1 > k Z o.P ' 3.0.0.0.0.9.=.( +.! Y N g i y 4 q ; < 2 y p 4 2 <.2 # : * X.: e 2 4 y 4 4 2 > # @ ",
"e q 2 < > 2 * % $ $ % = 1 4 < & > > $ * < s : 4 : 4 > # e > > 2 i * > v h L o.} .. .| } _ / E @.D r 4 4 4 i i 2 2 t t y < 4 t % * + > : X.} 4 4 3 4 1 y = - & # ",
"s i e < = < # # # # & 3 4 y 2 < , / > # y y - t : 2 : # # < % y ; % 1 2 6 Z O A C +.H K R T W Z 4 1 y y y p p p y t t t : t < - # + 5 3 X.: X., 3 3 1 y > > % @ ",
"s p t > 2 # # # % & : 4 4 4 4 > > * - # 3 y & t : : < = & % 4 = * < 2 i * g   M h B N . b M N 8 4 1 3 y s d d s y t 1 <., y - < @ & 3 y X.r X.3 4 3 1 4 4 % & @ ",
"y 4 2 - < $ # % - 1 3 : 3 : 4 2 * % 4 # 3 y & & < % 2 e 4 2 e = % e i ; * # # 4 # > 2 7 j v r - 4 1 3 y s s s y t 3 1 <.t t % 2 # 3 s 1 2.r X.4 3 4 y 1 y = # % ",
"3 1 : : 1 # $ = X.: : 3 : : > 2 % < * $ 4 2 % & = $ : 4 _ 4 @ > > 2 1 2 # # # 2 % 2 - q & > = 1 e 3 3 s s s y <.3 3 1 <.t t > - % y y y p X.4 3 4 y s 3 y 4 & % ",
"1 : : 2 2 % 5 X.4 X.: 3 : : & : <.@ # > , ; % > # # > 2 / ; % 1 1 i < > # = $ e > # 2 e & * > 4 3 1 3 t y y t 1 : : : : y 1 1 , 4 X.e 4 4 X.3 4 3 s e 4 4 4 & # ",
": : : 4 % % 4 X.e X.: 4 : - & : <.% % * > # < * X.# 1 / > _ ; = i 2 < = * 4 * 4 2 > 4 < 4 $ 2 4 t 1 3 t y t 1 < : 1 : : y : t : r X.3 3 r X.3 3 3 4 y 2 e e % % ",
"1 : : 3 % : 2 X., X.4 2 & & & 1 <.& % # 2 # > # $ $ 4 i / # 4 < i 4 > % 2 4 2 y i 4 > 1 4 $ & / : 1 1 t 1 t < 4 1 y : : y = < t 2 X.3 : s 4 4 4 : 4 4 2 4 y & + ",
"1 : : 3 % e > - X.1 e = % % - 4 <.: & $ * % # # # # > 2 # & > y 4 > # ; i p i 4 ; 4 * 4 4 - % 1 : : 1 1 : y 4 4 t y 1 t t = < 4 2 4 3 : 1 4 % % 4 y 2 4 e y + + ",
": : : 3 % 4 % & : : y & % : : X.1 <.= & % > $ # # # e # # 4 % y i % = i t 2 i 2 4 $ > 4 4 y % 2 : : : : : 4 y / > = & 1 y & <.: < 4 4 : 4 4 % % & 4 s > 3 2 # @ ",
": & & : : 4 % & - & & $ @ 4 r X.y <.2 > = 2 % $ # $ e # & p < e q = 2 i < _ < t < $ % e 1 y / > : :.: : 1 t - > > $ & & = = <., < 2 4 : 4 5 % $ - 4 2 2 y 4 # # ",
"% % % & 4 4 % & , - $ # $ y > X.y <.i 4 2 ; * @ # - > # 1 i q ; = t i 4 > ; 2 i % # * > e y 1 1 : : : : i > ; > > # % % = < <.1 4 2 : 4 : = X.* 4 * % 2 e @ # # ",
"% # @ : e > = = > 2 # # $ 3 4 r <.p d p e 2 * $ # e # # < 4 > < > i i 4 > * < $ # # # # 4 4 : 3 1 : 3 : - 2 # > > % $ $ 2 > 2 # e < & & 5 X.e X.< X.# # # # # # ",
"@ @ = % 2 > > > > 4 + + # % 2 2 e s s s a t > = <.t $ # i > q < 4 4 y p 5 & > # # # # # p % 4 e 4 4 2 % : e - % & & % % > : > % * 4 # = ; # X.% X.5 X.: % & @ # ",
"@ # > > e : * > = > # # # % * e > e i d d y i <.> <.$ # > = 2 / y y 4 X.: 3 # @ + # # # 4 # 4 % 4 & % % - # e > > 2 2 : : 2 % 1 ; 4 + < > + e * X.e 2.4 % % % @ ",
"# # : * e # > > < > = # # # % % 1 > 4 p d a y y <.> % % < 4 y y 3 3 : : 2 > # # # # # > e # # % % % $ # > - 4 e y s y 4 _ 4 % 4 > e % 2 - + e 4 X.< X.2 * & % & ",
"# % 4 # $ % < # 4 # > # # # # # * e < i d d d y p ; = ; 4 i i p y / : : 4 - # # # $ # < # # # # % # @ # > 4 s s s 4 y 2 2 & % # X.X.X.5 > # # 2 e X.: : 2 & % % ",
"# > = % & * & & * # 5 # # # % % > < < 4 y s d s y < = < t i p p y 3 : : 4 % % % % & : & & # # # + # + # 1 y 4 4 4 y 4 4 X.% * X.2 5 > X.: % # % < 4 - - 2 1 % & ",
"# < % * > < > * * X.@ + # # > q <.% 4 1 t y s s y t < y i t a <.y 3 1 1 4 % & % - 2 4 4 < _ # > + + # # 4 e > X.3 e 3 : * % % 2 X.X.X.4 e % # # % e & & > 4 3 & ",
"# # * : 4 e 4 > X.* X.% * * > X.# <.= y 3 t y y y y y 1 1 t p <.X.r 4 4 : - % % 2 4 4 : > % & > # # # # 4 > X.2 X.e 2 % * # # # * 2 4 : 3 & % # # 2 = * > e 4 s ",
"% % * 2 4 4 e = * X.% > & > $ # <.& = y : 3 t y y t 4 1 1 t y <.y X.: t & % @ & 4 : 3 < : 4 e X.* % # : e e > X.1 : 4 > # # % # % 4 4 , X.& # % % 4 - ; < 4 s s ",
"; ; 1 i y t 1 - % t = = 2 1 % % > = - & : y 4 4 t 3 3 3 1 3 y t X.4 3 4 & % % & 4 1 4 4 X.s 5 X.2 > = > < > : <.: 2 4 > # # 2 # % 4 s X.2 X.* : = 4 e 2 2 4 y y ",
"e e t y t <.: , ; i % 2 4 : - = # # @ % 3 4 4 4 :.3 1 4 1 t 3 y y 3 : y & % % 2 : y 4 X.e X.4 X.2 e 4 > % % > 1 1 1 y 4 > # 2 # * y e X.: 2.5 : * 4 4 3 4 3 3 3 ",
"p y i p 4 <.: p t % , t 4 4 , & # # @ : e 4 : : <.t t 3 1 1 y s 3 , , e & # % 3 - 4 4 2 X.* 4 < e s e < * % > 4 y 2 y y = # 2 % 2 p y X.< X.: e > p y e 3 1 : : ",
"p y y y y <.2 i - > t y 1 : - 1 & & % 5 1 y : 1 <.1 1 1 3 y 3 y 1 : : > & - - 1 - 4 2 : & 5 4 < 4 4 4 2 1 <.<.<.p - <.1 < + 2 2 4 3 3 r X.e > 4 4 4 s 4 1 : : : ",
"y y t 4 4 1 , t ; > & 1 y 3 1 - : 3 > @ 3 y , : : 4 = e 1 t 2 y y : & > : 4 3 4 - 4 2 > $ $ 4 2 3 4 y 4 X.s ; = X.q 4 > 4 % 4 e 4 : 2 e : 4 > % 2 4 3 1 : - & % ",
"y 1 4 3 4 % t ; 2 $ & - 3 <.<.<., p > # y e 1 : 1 2 & e 1 1 y y r X.X.X.2 4 : & , 4 4 # # @ 2 4 : 3 4 y d X.<.<.> : 4 $ 2 e > 4 4 # 4 > > $ > & 2 4 : : : % % $ ",
"y 1 t 4 % * 4 + ; $ = - <.1 3 3 X.4 : : 4 p 4 2 1 X.X.X.; 1 4 4 X.e > * X.: : : 3 % e # @ % % 3 : 3 4 y d y < = > 2 4 + p e & 2 < & < = > > < > & : : : & % @ # ",
": : t 1 % 2 ; # # $ % - : <.<.<.r p 4 e # p 4 p X.* % % X.1 y : r X.X.X.= : : 2 s # # # @ % % s : 4 y s d r t 2 e s > + 4 4 4 4 > < e > 4 s < % & : : & & % @ @ "
};
