/* XPM */
static char *result[] = {
/* columns rows colors chars-per-pixel */
"80 80 149 2 ",
"   c #5B553F",
".  c #675D3D",
"X  c #726A3F",
"o  c #7C6F3D",
"O  c #7C723F",
"+  c #101F44",
"@  c #0E2044",
"#  c #112346",
"$  c #122749",
"%  c #122B4B",
"&  c #12324E",
"*  c #19324E",
"=  c #143650",
"-  c #143B52",
";  c #193E54",
":  c #124356",
">  c #194256",
",  c #144658",
"<  c #1A4659",
"1  c #144B5B",
"2  c #1B4C5C",
"3  c #16515E",
"4  c #1B515E",
"5  c #2C454F",
"6  c #3C4244",
"7  c #3C4A48",
"8  c #3D534C",
"9  c #23415A",
"0  c #2A445A",
"q  c #234A5E",
"w  c #294D5F",
"e  c #24515F",
"r  c #34635D",
"t  c #1D5561",
"y  c #1E5963",
"u  c #284A60",
"i  c #215562",
"p  c #215B64",
"a  c #235F68",
"s  c #216067",
"d  c #236169",
"f  c #4C5043",
"g  c #41574E",
"h  c #5C5B43",
"j  c #525D4A",
"k  c #425B51",
"l  c #5D6246",
"z  c #53634D",
"x  c #5B6748",
"c  c #52684F",
"v  c #5F6D4B",
"b  c #436455",
"n  c #676B45",
"m  c #6A6C46",
"M  c #616E4D",
"N  c #62704E",
"B  c #6D744A",
"V  c #767545",
"C  c #7D7540",
"Z  c #767A47",
"A  c #787A47",
"S  c #777A48",
"D  c #85733D",
"F  c #86793F",
"G  c #8D7D3E",
"H  c #937E3B",
"J  c #997E39",
"K  c #847C43",
"L  c #887D41",
"P  c #8E813F",
"I  c #94813C",
"U  c #9A843C",
"Y  c #9B893E",
"T  c #A98A34",
"R  c #A38639",
"E  c #A38D3D",
"W  c #AB8F3A",
"Q  c #A7903C",
"!  c #AC913B",
"~  c #B59235",
"^  c #BA9534",
"/  c #BD9935",
"(  c #B4953C",
")  c #BE9D3C",
"_  c #C49E37",
"`  c #C29F3C",
"'  c #C6A33C",
"]  c #CAA43A",
"[  c #D5AB37",
"{  c #DBAF37",
"}  c #D2AA3A",
"|  c #DDB239",
" . c #E1B63B",
".. c #E5B93B",
"X. c #EDC03E",
"o. c #878042",
"O. c #8C8342",
"+. c #918642",
"@. c #968841",
"#. c #9B8B40",
"$. c #BE9C41",
"%. c #B49749",
"&. c #CAAB45",
"*. c #C9A84F",
"=. c #DCB440",
"-. c #DFBD4E",
";. c #E3BE59",
":. c #EDC84E",
">. c #FFD54D",
",. c #FFDA4F",
"<. c #E5C451",
"1. c #EEC952",
"2. c #F4CD58",
"3. c #EFD25E",
"4. c #F5D457",
"5. c #F5D55F",
"6. c #FFDF5D",
"7. c #FFE35F",
"8. c #E7C565",
"9. c #EFCF66",
"0. c #F9DF6B",
"q. c #E3C77F",
"w. c #FFDE75",
"e. c #FEDD7A",
"r. c #FFE66E",
"t. c #FFE276",
"y. c #FFE971",
"u. c #FCE67A",
"i. c #FFE97F",
"p. c #EFD99D",
"a. c #FFED83",
"s. c #FFEF94",
"d. c #FFF197",
"f. c #FFF299",
"g. c #FFE9A1",
"h. c #FFF2A4",
"j. c #FFF5AD",
"k. c #F9E8B6",
"l. c #FFF6B2",
"z. c #FFF4C4",
"x. c #FFF9C6",
"c. c #FFF3CA",
"v. c #FFFAC9",
"b. c #FFF9D3",
"n. c #FFFBDC",
"m. c #FFFCE1",
"M. c #FEF8E8",
"N. c #FFFDF2",
"B. c #FFFFFF",
/* pixels */
"# # = p e # # 4 e > q i > % i i t # # % # # e & < i i s d d d t < = $ * > i a a y t t - 1 3 % 1 y p 1 1 : 3 : $ $ < 4 : : 1 & $ t - ; , - 1 % % & - 3 2 e y i & ",
"% % t i 4 # # % i 4 < ; 1 > p y # = # 1 # # ; < = < i s d d d i > = % = < i a t t 1 1 & < - % & 1 y 3 , : : : - % < - : 3 4 % $ = 2 - : , 1 $ % - 1 : < ; > ; % ",
"> > > p = # # 2 4 & < # 4 < > y # t * 2 % # # # 1 2 4 p d s a t < = & = < t t t < 4 : = = > % & 3 3 4 1 : : - 4 - , - , 4 4 % # t 1 ; ; y < $ % 1 - : 2 ; e % + ",
"2 > > y > # & < 2 1 < & 4 4 4 4 # y e 4 q & # # % 2 2 t y a a p 4 ; = - y 2 t 1 , 1 t ; # = % & > - 3 3 : , : 4 2 & & 4 & , % % 2 , t 3 3 $ # ; & - 1 ; < 2 % # ",
"< # 2 y - # 1 & 1 2 < < 2 s p 4 # < > 2 > 4 % # % = 4 3 y y a p y 1 : : t 1 1 : 2 < < > # # = ; # & 2 4 1 , : 1 3 & - 4 & < % < - $ y t $ $ & < & : 3 ; 2 ; # # ",
"4 % e 4 1 # 4 3 : 4 1 & > e 4 s % 4 # < > 2 > & = 1 2 t 3 y y y y t : 1 t : : - 2 < = % $ = < > @ % 2 4 3 1 : : 4 - 2 % # # < > ; % % ; $ # u = & 1 3 < & > * # ",
"2 = 2 * 4 & 2 4 : 4 : % - < 2 4 2 > # 2 > & > 2 i i - - y 3 t t 3 t : t : : : : y - > > & i i ; $ $ % 2 4 3 : : : & 2 # # $ > % $ < ; # $ % & < : y : 1 % 4 4 # ",
"* > # # e > % 4 : 3 2 & < 4 4 < 4 & % 4 & * 4 e t < 1 & 3 1 2 t , 3 , t : : : y 2 < > 2 ; q 4 * $ @ @ & > & - : & & > > : - & & = ; ; # % - < 2 , 2 2 % % : = # ",
"# * # @ 4 $ % 2 : 4 - & & 4 = 4 y - & % @ y y 1 4 2 - % & y : y 2 , % = 3 : : s 4 : & ; < t 2 2 * @ @ * 2 & 4 p % # % e s 4 < : - & $ $ = q i t t a i $ # 4 < # ",
"# - # # p # % & 4 e & - % : 4 4 t 2 & % @ y 2 t < - > % & - , y < & $ = 3 - - 4 y > % < t t 4 > : * & 2 4 = $ 4 # @ > > % 3 : 4 3 - & - ; y y i t * $ # # 4 > % ",
"# > # # 2 # % & 4 4 & % $ % 4 4 t 1 - = # y & y < < < & & : t & % = # t > & - t 4 - % i t t t 2 > 2 > 4 2 > # 4 @ $ : 2 & & 3 : , 3 ; y t t t 4 ; & # $ & < * ; ",
"$ * # # 2 # # % & : % $ $ % 4 4 t : 1 t # # # i % < 3 : : y t % % t = < < = < 3 2 > % = t 1 t 3 2 2 < 4 e = $ p & < > < 4 & : 4 1 1 y y y 3 3 1 - % $ % ; < 4 4 ",
": @ @ # 4 # & : # # # # # % 4 : y : y < % @ @ @ = 2 t t y y - % = < 4 # 2 2 - t 2 > % & t : 3 t i e 4 > > < # e < 4 # 3 - & - : t 3 y y y 1 3 - = % = = 2 y y a ",
"> @ % - 2 > 4 p # # # % & - s & y 2 y % , @ % % < t : : y < < > 2 % 2 # q % < % 2 * = = 2 < < t p p 2 4 $ < + 4 e 2 # s > % & : 3 3 t y y t , : - = < 2 1 t y d ",
"* @ > e 4 p e 2 # # % > 3 4 4 & - < y # 1 % & - t : : t t > - > > > ; # % - 4 > 1 2 ; = 3 y : 4 p p e y $ # # 4 < > & e @ & & & 3 t t y y 3 1 3 2 < < < t y y y ",
"@ - < y 3 : 4 & & % > 2 4 & # % < % t = t % & 1 : : : t 2 > > ; = > # % & 4 y 4 i i 4 > 1 e = 2 i p 2 y % + # 4 > 2 2 4 # > 1 & - y 1 1 y 1 2 t 3 4 i t y y y 3 ",
"& e < 4 : 3 - = > & & y p 2 # & 4 # 4 e 2 & : 2 , : 1 y 1 1 % 2 < ; % % & y y t t y a t t y ; < i i t 4 % @ @ & < 2 e y & > - $ & & 3 : y : a 2 3 y i y y y : : ",
"4 4 < 4 : 4 & 2 % % 4 i 4 # # e # & i # 4 & 3 : : : t 1 1 % # 2 q < = = - - : y y t 2 y < ; ; 2 t t p t - & % - 2 3 4 4 : * > # $ % ; - t - 1 t 1 t t y y t - - ",
"e 4 p > 4 & & 2 % ; 2 t 2 % * < * 2 > # 2 : 3 : : : t t t $ @ % & > < < 1 : & : y t t t i < < 1 3 1 y 2 4 & % , > q 4 2 e > 4 $ # $ ; & t & : 2 4 1 3 t t , % = ",
"s 4 p 2 2 % $ > > # e 2 ; ; & 2 ; 1 # # % y 4 : - 1 t t = # # % ; 2 t t y t % & - y 1 t t y t t 3 3 y : 4 1 & 3 & > e s e p 4 $ # @ - % t % : 1 3 ; 3 3 t % % # ",
"4 s 4 y = $ # < # % i = 4 & 4 & e > % # $ & - - : y p t < & = - < p p t t % % % & t : t p p p y y i : : : s - 3 4 4 4 y y s s % $ $ 9 % < ; # t 4 - t 1 1 % # # ",
"s s 3 4 & # + + # 2 i i > > > > y * % # # % & - < i y < < t u 4 i t t t - % $ $ % - : 1 p a p t y y : 1 : y 1 y e 2 4 4 y 4 & % % % ; ; q ; $ 2 2 , , 3 < % + + ",
"s 4 4 s & # # $ % i & p i i e 4 e > & % # # % : % 4 y # = y 2 4 t t t , & % # # $ % = t p p p y 1 y : : 1 s s y 3 4 4 3 4 : & $ % ; q i y = $ $ & 3 t - : % + # ",
"4 s 4 e % # % > 2 % ; p p a s p i 3 > % $ # - # = t ; & q < t y t 1 t - & & $ # @ # = t t p y y 1 4 , : : 3 3 3 p i 4 4 4 & % & - 3 y i t 2 - $ & 1 t ; t % # # ",
"4 s 4 1 & # > 2 4 % * 2 p 4 s s p y 2 ; - % < # q y 2 2 - 3 t y t t : : : 2 % % # # % t 2 i t 3 , 3 3 : , 1 t y s y < t - - & 1 q t y t 4 p 4 $ % = - - = = & = ",
"4 4 4 & 2 = % e 2 % * 4 < 4 4 4 y t 3 t t > 2 # % t q > 1 t t t 3 t 1 3 y 1 1 ; # # % t 1 2 t : - t 3 : , 3 y a p i < t & - > t 2 4 3 4 a - q $ % % & - ; ; < , ",
"& 2 4 = > > 2 4 % # # 2 & - 4 1 t 3 i i i y 2 % % i 2 4 t t t 1 1 3 y : & 3 4 % , % % t > : 1 - & 3 1 1 , 1 y y p i ; < & < t 4 t t 3 1 t 4 - # @ % % = ; 4 t y ",
"> # # 2 + 2 ; e > & % 2 # & 4 y y 3 t p y y y 1 < > i p y 3 3 : 3 t y 3 = i 4 2 t > % 2 - 1 3 ; $ 2 & 3 3 1 3 y p 2 > < * i 4 i y 3 1 , y t = # $ @ % * < i y s ",
"+ # # # % < % > 2 e > > + = 4 4 1 1 t y y t y y e q p a y t 3 : 3 e , 4 < i p p < < % 4 - t ; t & ; 2 t 2 ; 1 t 4 4 4 < t < t t t 1 , y 4 i % % $ & = ; < t y y ",
"# + # $ > # 2 # # # > 2 # 4 - s y 1 3 y t y y y t p a d y 3 3 : 4 1 2 4 % 4 # 4 # 2 > t 3 3 t 1 4 + q 4 & 1 t 1 3 4 y y i 2 3 3 2 , - 2 < i $ % = ; 2 q 3 t t 3 ",
"# # # > # + > # # # = 2 % 2 : 4 y 1 1 3 t y y y p a a p y 1 t : y 4 - p # # # 4 @ # y t - t 1 & y # $ $ $ = t 4 1 4 y y t t 3 1 < 2 < ; ; 4 # % - q t t 2 1 1 < ",
"# # # % % * % $ # # < 2 ; < < e 1 y : 1 y y y y p p p p t t t - p < 2 i # # # 2 $ % y t 1 3 - & % $ # @ # 2 - 3 4 1 t y y t 1 ; 3 & % ; 4 & # % - 4 i t i 2 < % ",
"# & > = 3 > : * & @ 3 * < 4 : 4 1 4 3 3 y y y 3 y s 4 4 3 3 : : y % y 4 # # # > % - ; y y t & 1 - : % $ # 4 & : 4 3 3 3 3 3 : : < % = $ y # # % ; 1 t i u & % % ",
"# 4 e 4 e e 4 e > * $ - 2 e 4 < , 1 3 y : 3 y 3 3 4 y 3 3 4 1 1 y % i & # + # 1 - 2 t y y t - y 3 y & % $ < & 4 4 y 1 1 3 , - 2 % $ > = 4 # # & - < 1 q % % # # ",
"@ # 2 > s s p 4 * 2 > < * 3 # 4 % & 3 3 1 3 3 1 1 4 3 3 : 3 3 : y % 4 # # # & M K n S C V   2 y : y - & & 2 2 1 1 y 1 : : - < # # # = > & & # 2 - y < 9 * + # + ",
"# # % 2 4 4 4 2 4 4 : e > 4 & e - % y 3 3 1 3 3 3 s : : : y : : y % # # % 5 z L G n V o o H C r : 4 : & < : < : : 3 : 1 : : , # # # < > 1 i # 2 t < 2 & % # + # ",
"# # $ 4 y 4 2 : 3 2 4 p y e > 2 4 % 4 4 y 1 : 1 4 : & & - 4 1 3 y % # % j A V _ {  .| { } H ! @.r e 3 1 , 2 > : 4 4 : : : 4 % # @ & : 3 y p # > t , 2 1 % + # + ",
"# # # * * s 4 4 2 4 4 p p p 4 4 y % y 4 3 1 1 3 : - & % & 2 : : 2 % # l @.K %.8.w.w.w.9.;.*.E Q P N y 4 4 3 & - 4 1 4 : : 4 % % % > 2 y y & # i t = % q ; % + # ",
"# * $ > 4 4 & 3 4 4 s s p p y e 2 % 2 1 : 1 1 : : & # % & 4 1 : - & l @.L $.q.k.c.c.z.c.z.p.*.~ E o.y s 4 s & : - & 3 : : 4 % % % 1 2 4 t & $ # 2 4 * 2 + > # + ",
"# 2 - & e 2 > % 3 : y 4 y 3 4 4 : % 4 3 : 3 : & & & % & < 1 * = 8 l o.L / 2.g.M.B.B.B.B.B.z.e.=.T O c 3 4 4 - 1 > $ & - & & % # % 2 : y 3 & % # ; t t # # < + # ",
"& 4 4 e y # & % , > : 4 y 2 3 4 5 % 4 : 1 1 & : & > > 2 > & & & l O.K ( <.t.l.N.B.B.B.B.B.n.s.5.&.E O x y p = 4 @ $ % & & % $ $ % 3 , y , - # # & i e # $ 0 w e ",
"4 2 & > 4 # = # # 4 4 4 s : y % & & & : y : : y > & 2 2 & > $ & V @._ :.0.s.z.M.B.B.B.B.B.n.h.u.4.| ~ P b 4 - : # # # = > # # # % 4 t y - 2 % $ 4 4 4 # < w i y ",
"e > # > 2 # > # = 4 y 4 2 2 4 % # : & : 4 > y y e 4 e & # & # % F Y { ,.y.f.v.N.B.B.B.B.B.n.l.a.7.X.^ P v s & $ # $ & 2 < # # # % < i y - y % ; * 2 ; % i i y s ",
"4 # % > # # > $ 4 4 e & 2 4 % % # , & : y 4 , 2 4 - # # $ < # $ G P  .,.y.f.v.N.B.B.B.B.B.m.l.a.7.| ^ X l & & & & > > > + + + & $ & 4 t : 4 % 4 % > 2 e i i y y ",
"> # > # # # = > - # $ $ < 4 * # # * & p 2 e < 2 s : % # > < % % F L | ,.r.d.v.N.B.B.B.B.B.m.j.a.7.X.^ X X % & > < < 2 # # # # 2 # ; % = t t < i e e e e y y y 3 ",
"# # 4 # # * < 4 > # # % < > 2 % # : > y : > 4 y 4 p > # e & > % O C ..,.y.f.v.N.B.B.B.B.B.m.l.a.7.X./ D D $ > < & e > % & & & < $ > ; & t p p t ; i p t p 4 t : ",
"# # # % - 4 4 e > % + > 4 > > > # 4 @ e - < 4 s 4 p # % 4 2 > % O G [ >.r.d.x.M.B.B.B.B.B.n.j.i.7.X.~ I G > & # 4 4 * = 2 4 2 e = < 2 2 i ; 2 2 > i y p i : 1 - ",
"+ # & : e e < 4 $ > # + > 2 - 4 $ < # < > 2 3 y e 4 % > 4 # 2 # f C I ' 3.a.j.b.m.m.m.m.n.z.d.r.<.) U Q   + + $ e 2 2 4 e ; 4 4 & 2 4 4 < t # 4 ; p y p i - 1 & ",
"+ % 2 e 2 i i ; % + # # > < > t = % $ e : 4 s 4 4 : % > 4 $ 2 % % g I Y ' 1.a.h.l.l.j.l.j.s.r.:.( +.! Y 2 = # > % i 4 i 4 < t 4 = 2 > e 1 e # 4 > 4 s e e 1 % # ",
"% < < > 2 i q - % # # # > 2 % 2 < > & 2 4 e y 4 4 3 - > 4 $ < < > % M P #.] <.u.a.a.a.a.a.r.:.' Q ! E m < t 2 < < ; 2 i i i t ; 4 > * - 2 - : e 4 p e 4 4 2 # # ",
"2 2 ; < < i ; = % # $ % & 3 < # e $ # > 2 4 e 4 4 1 4 # e & 1 3 1 > k Z L O.` <.7.7.7.7.6.-.! +.! Y B k i i 4 2 ; < 4 t a 4 2 ; 2 # * = 2 = e 1 4 4 4 4 2 > # + ",
"i q 2 < ; 2 = % # $ % = > y < = < ; % & : s , 3 : 4 > # e > > 2 i * > b h K O.} ..| | } ' ^ Q Y A r t 2 4 i i 4 2 4 4 t < 4 t % & # > > 2 & 4 4 4 3 3 y - - % # ",
"a p 4 < - > # # @ % & 2 y y 2 > > & > # 4 y - y : 2 > # # < & e ; % 2 2 6 A D V K +.G J R W W Z 4 1 y y y y y a y t 3 t : t < - @ # < 4 & : 4 : 3 3 1 4 : > % # ",
"p p t > < # # # % & - 4 3 2 4 : > * > # 4 y - 4 : : > : & % 2 = & < 2 i & k   N h B B . l N B 8 4 1 4 y s d s s y t 3 t , t - < # % 4 y & 4 3 1 4 3 3 4 y % & @ ",
"y t 2 > < # # % - , 1 1 4 : 4 4 & % e # 3 4 & & < % 2 e 2 1 e - % e i ; * # # 4 # > 2 7 j b r - 4 1 4 s s d p y t 3 1 3 t t & < % 2 s 4 : 4 3 3 3 4 y , y ; # % ",
"1 1 : ; 2 % % = 4 : : 4 : : : 2 % : * % 4 4 $ * - # - 4 2 e # > > 2 2 1 # # # 2 % < ; 2 * > - < y 1 3 y p d y t 3 1 1 t t t ; ; & 4 y 3 4 : 4 4 3 s s 3 4 4 & % ",
"1 : : 1 2 $ & 4 3 : : 3 : : & : - # # > > > % > # # > 2 > > # 2 < t < > # = % 4 > # 2 i % & > 4 3 1 t t y y t < : : : : y 1 1 : 2 4 4 4 4 1 : 4 t y y e p 2 % # ",
": : : 4 % $ 1 < : : , 3 : - & , : % $ & > # < & # # 1 4 2 # - = t 2 < = & e * 4 2 ; 2 2 2 % 2 4 y 1 1 t t t 1 , : 1 : : y : t : 4 4 , 3 y 4 4 3 1 t t 2 e i & % ",
"1 : : 4 % - 2 - : : : 1 & & & 1 > & % # 2 # < # # # 4 e # # 4 < i e > % 2 4 2 i i t ; < i $ & 1 : : 1 3 t 3 , 4 3 y : : y & < t 4 4 4 : s 4 1 2 , y 2 4 4 t % # ",
"1 : : 3 & e : - : : 3 & & & & 4 : : & # * % # # # # > 2 # * > y 4 > $ - i p i 4 ; 4 = t 4 = % 2 : : 1 1 1 t 4 3 t t 1 t t - < t < 4 4 : : 4 & & 3 t 2 2 i i + # ",
": : - 3 % 4 % & - : p % @ - : : 1 3 - & % 2 # # # # i # @ 4 % p i $ & i i q 4 4 i # ; t 4 t & 1 : : : : : t t 2 > - & 2 y & t - < 4 4 - 4 4 $ $ & y y ; 4 1 # + ",
"- - & : : 4 $ & - & & $ # 4 4 4 y 4 2 > = q % # # # e # * y < 4 2 ; 2 i < 2 < e < $ $ i < t = , : : : : < t - < , $ & = & - y 1 < 2 4 : 4 < % # = t 2 1 y 2 + # ",
"& & % & 4 e % & 1 - $ $ # p < 4 y y i q < ; % $ @ ; > @ 2 p q ; = i t 4 < ; 2 i $ # = ; p y : 3 : : : : y > ; > > # # % = < t 1 4 1 ; 4 > = < # 3 % % q p + # + ",
"@ @ @ : 4 < = = > 4 # # # 4 4 4 p s s a i < = % # 4 # # > 4 > < > i y q > * 1 # # # # + 4 t : 3 1 : 1 1 ; 2 # > > # % # 2 > 2 # e 2 & % > # 2 # 2 # # # # # + # ",
"# # & % 2 > > > > 4 # # # % 2 2 e i d d a t > * = 4 $ # i < < < 4 4 s 4 > * > # # # # # p $ 4 e 4 4 2 % : e = * & * % % > ; ; % & 4 # = ; + 4 # % - & = % % # + ",
"# @ > > e ; = > = > # # # $ * e < i i a d a t < < 2 $ # < * 2 t y 4 4 2 > 1 # # + # # # 4 $ 4 % 4 - % % = % 4 > 1 2 1 > > 2 % < = t # > ; # t = , t , 1 & % & # ",
"# @ > & 2 # < ; < ; * # # $ $ % < < e p d y s y i < % % < 2 i a 4 4 : : 1 > # # # # # > 4 # # $ % % $ # > = 4 i y y y y y y % t < 2 # > = # i 2 - & - 3 = % % % ",
"# & 4 # # % 2 # 4 # > # # # # # = 2 2 t d d d y t ; = ; 4 t a t y 3 : : 4 = # # # # # 2 # # # # # # @ # > 4 s p y y 4 1 1 & % $ ; 2 # > > # # > 3 - : - 2 & & % ",
"# < = % * * & * % # ; # # # # % ; < < 2 y d d y t < = 1 t i a a y 3 : : 4 % % # % & : = & # # $ + # + + 2 p 2 4 y t 4 4 - & % * 2 % - - ; # # % < t = - 2 1 % % ",
"+ < $ * > < > * % # # # # # > 2 # % t 1 t y s s y t 1 t i t a p y 3 1 1 4 % & % & 2 4 2 > # # > + + # # 2 i - < 3 4 4 - % % @ q $ & 3 4 y % $ # # p & = > t 1 & ",
"+ # * ; 2 i 2 > % # # $ * = > # % & - t 1 t y y a y t 1 3 t i y p 3 3 4 : : % % 3 4 e : > & & * # # # % 4 - - : 3 1 2 & % @ # # % 1 4 : 3 % % # # 2 = = > t y s ",
"% % = 2 t t 2 ; % = # > & ; # # % % = y : t t y t t t 1 1 t t p 4 4 1 4 & $ # & 4 : 4 1 > 4 4 2 * % % - e 1 - : 1 < 2 - # @ % # % 2 4 : 2 & % $ % t * ; < t y y ",
"; ; < i y t 1 - % t = = 4 , & % > = - & , 4 4 4 t 1 1 1 1 3 y t 4 3 3 4 & % $ - 4 1 2 1 4 4 & 2 2 ; = < < > > 2 : 3 3 < % # 1 # % 4 s < 1 & & = ; i e < 1 t y y ",
"i i i t t 1 > , - i = < 4 : - = # # # & 3 4 4 3 1 t 1 t 1 3 3 y 3 4 1 3 & % $ 3 : e 4 < 2 e 2 > 2 e t ; % $ : 1 1 < y 2 ; # 2 # & p 1 4 - - : = = t 2 t t 3 t 3 ",
"a y p y t : : y t & , t 3 4 : & # # # - e 4 - 1 , t 3 t 3 1 s s 3 : : 4 & % # 3 - 4 4 1 : % e < i p i < = & : 2 y 2 y i * # 2 * 1 4 4 4 : < ; t > p p t 3 1 : : ",
"y y a t t : 4 t = < t t , : - 1 & & $ > 2 s : 1 : 1 3 1 3 t 3 y 1 : : - & - - 1 - 4 1 > % > 4 < 2 t 4 2 < < - < y - t 2 < # 1 2 4 4 3 y < t < e t t t t 1 : : - ",
"t y t t 1 < > t ; > & 1 y 3 1 - > 4 : # 4 s : : : 4 = 1 3 t t y 4 : & & : 2 3 4 - 4 2 < $ % 4 3 2 t y 3 < y ; = : 1 e > 4 % 4 4 e - 2 p > 4 > % < t 3 1 : - & & ",
"t 3 t 1 t % t ; < % % - 3 3 y , : 4 < % 4 p 2 : 1 2 % , , , t t 4 - % & 2 4 : - 1 3 4 # # $ 2 2 : 1 t y a y ; = < - 4 # 2 4 ; 4 4 $ 4 > > # > & < t : : - & % % ",
"t 1 t t % = 2 # ; % % - 3 1 4 3 4 4 - - 4 4 4 : 2 1 % 3 : < t 3 y 1 - % * : : : 4 $ e # # # & 3 : t 3 y p i < ; > 4 4 # p e & 2 2 % 2 = > : < > & - : : & % @ @ ",
", : t 1 % 2 ; # # % = - : y 1 1 s s 4 e % 4 4 4 2 & % $ t 1 y : e > : % & : : 3 y $ @ # @ # % y : t y y a y t 4 e y > # 4 2 4 e ; < 4 ; y p < % & - : - & % @ @ "
};
