/* XPM */
static char *result[] = {
/* columns rows colors chars-per-pixel */
"80 80 199 2 ",
"   c #010102",
".  c #03040C",
"X  c #040B08",
"o  c #05100B",
"O  c #040613",
"+  c #0A0714",
"@  c #0C0A16",
"#  c #070C1D",
"$  c #0D0B19",
"%  c #06061A",
"&  c #100E1B",
"*  c #061312",
"=  c #0B1415",
"-  c #0A1917",
";  c #121415",
":  c #13141E",
">  c #15181E",
",  c #1A1B1A",
"<  c #0C211B",
"1  c #3F2112",
"2  c #090D23",
"3  c #070D22",
"4  c #0C1125",
"5  c #0B122D",
"6  c #0C1B24",
"7  c #131422",
"8  c #151926",
"9  c #191B25",
"0  c #11162D",
"q  c #191B2A",
"w  c #15192B",
"e  c #030E33",
"r  c #061133",
"t  c #0D1533",
"y  c #0E1837",
"u  c #0E173B",
"i  c #0F193B",
"p  c #07143D",
"a  c #111633",
"s  c #121934",
"d  c #191C33",
"f  c #10173A",
"g  c #111A3B",
"h  c #181F3C",
"j  c #221F32",
"k  c #0D2220",
"l  c #1E222C",
"z  c #192126",
"x  c #15322D",
"c  c #1D2233",
"v  c #1C243E",
"b  c #1F2A3C",
"n  c #1B3D39",
"m  c #18323D",
"M  c #242525",
"N  c #242826",
"B  c #22262A",
"V  c #222A2B",
"C  c #282C2D",
"Z  c #27322E",
"A  c #222435",
"S  c #252B36",
"D  c #2A2C32",
"F  c #21263B",
"G  c #222A3A",
"H  c #312331",
"J  c #392B38",
"K  c #263235",
"L  c #293433",
"P  c #2D3934",
"I  c #2F3B3B",
"U  c #2B353E",
"Y  c #383436",
"T  c #323D3A",
"R  c #363839",
"E  c #422414",
"W  c #482917",
"Q  c #4D2D18",
"!  c #442A16",
"~  c #4D361C",
"^  c #57351D",
"/  c #4B2E2E",
"(  c #5E372D",
")  c #402E3D",
"_  c #463638",
"`  c #53383B",
"'  c #65392D",
"]  c #673D28",
"[  c #613B37",
"{  c #6B3F35",
"}  c #1D423E",
"|  c #35413E",
" . c #384035",
".. c #5A411F",
"X. c #5C4823",
"o. c #594636",
"O. c #554135",
"+. c #4C5436",
"@. c #575A3B",
"#. c #544D2A",
"$. c #6B4423",
"%. c #7D4729",
"&. c #754634",
"*. c #6E5538",
"=. c #7A5A3B",
"-. c #63572B",
";. c #5C643B",
":. c #5D6535",
">. c #6D602D",
",. c #666B39",
"<. c #786936",
"1. c #757539",
"2. c #071746",
"3. c #091645",
"4. c #0C1945",
"5. c #141F45",
"6. c #191F43",
"7. c #152045",
"8. c #1A2243",
"9. c #16214A",
"0. c #19244E",
"q. c #1F2A43",
"w. c #1A2652",
"e. c #1C2956",
"r. c #1E2A59",
"t. c #172851",
"y. c #1F3453",
"u. c #232443",
"i. c #232B44",
"p. c #2C2D44",
"a. c #292742",
"s. c #312941",
"d. c #2B3344",
"f. c #323D43",
"g. c #3E3844",
"h. c #333244",
"j. c #483F44",
"k. c #1F4342",
"l. c #21424D",
"z. c #374341",
"x. c #394443",
"c. c #2A5C57",
"v. c #345F7C",
"b. c #2A4D6C",
"n. c #2F6465",
"m. c #35726D",
"M. c #346B6D",
"N. c #4E4244",
"B. c #5C4C43",
"V. c #524643",
"C. c #565B44",
"Z. c #745A42",
"A. c #7B5E42",
"S. c #7D6242",
"D. c #7A7F40",
"F. c #6B7344",
"G. c #87492B",
"H. c #965C2D",
"J. c #884C31",
"K. c #815431",
"L. c #82532A",
"P. c #816139",
"I. c #9B6B35",
"U. c #97713A",
"Y. c #977136",
"T. c #A7783A",
"R. c #886742",
"E. c #946C40",
"W. c #997341",
"Q. c #977241",
"!. c #867D43",
"~. c #A57A41",
"^. c #3D817C",
"/. c #878A3F",
"(. c #88843E",
"). c #9D873E",
"_. c #AB8A3C",
"`. c #C9923F",
"'. c #DDA33F",
"]. c #F0B63F",
"[. c #F8CC3F",
"{. c #979543",
"}. c #888A43",
"|. c #AC8F41",
" X c #BE8B40",
".X c #A39742",
"XX c #B8AF42",
"oX c #A7AB43",
"OX c #C19340",
"+X c #DABE41",
"@X c #E5B640",
"#X c #D9D142",
"$X c #F2DA41",
"%X c #499A96",
"&X c #4B9D98",
"*X c #478F98",
"=X c #52A6AF",
"-X c #57B7B3",
";X c None",
/* pixels */
";X;X;X;X;X;X;X;X;X;X;X;X;X;X;X;X;X;X;X;X;X;X;X;X;X;X;X;X;X;X;X;X;X;X;X;X;X;X;X;X;X;X;X;X;X;X;X;X;X;X;X;X;X;X;X;X;X;X;X;X;X;X;X;X;X;X;X;X;X;X;X;X;X;X;X;X;X;X;X;X",
";X;X;X;X;X;X;X;X;X;X;X;X;X;X;X;X;X;X;X;X;X;X;X;X;X;X;X;X;X;X;X;X;X;X;X;X;X;X;X;X;X;X;X;X;X;X;X;X;X;X;X;X;X;X;X;X;X;X;X;X;X;X;X;X;X;X;X;X;X;X;X;X;X;X;X;X;X;X;X;X",
";X;X;X;X;X;X;X;X;X;X;X;X;X;X;X;X;X;X;X;X;X;X;X;X;X;X;X;X;X;X;X;X;X;X;X;X;X;X;X;X;X;X;X;X;X;X;X;X;X;X;X;X;X;X;X;X;X;X;X;X;X;X;X;X;X;X;X;X;X;X;X;X;X;X;X;X;X;X;X;X",
";X;X;X;X;X;X;X;X;X;X;X;X;X;X;X;X;X;X;X;X;X;X;X;X;X;X;X;X;X;X;X;X;X;X;X;X;X;X;X;X;X;X;X;X;X;X;X;X;X;X;X;X;X;X;X;X;X;X;X;X;X;X;X;X;X;X;X;X;X;X;X;X;X;X;X;X;X;X;X;X",
";X;X;X;X;X;X;X;X;X;X;X;X;X;X;X;X;X;X;X;X;X;X;X;X;X;X;X;X;X;X;X;X;X;X;X;X;X;X;X;X;X;X;X;X;X;X;X;X;X;X;X;X;X;X;X;X;X;X;X;X;X;X;X;X;X;X;X;X;X;X;X;X;X;X;X;X;X;X;X;X",
";X;X;X;X;X;X;X;X;X;X;X;X;X;X;X;X;X;X;X;X;X;X;X;X;X;X;X;X;X;X;X;X;X;X;X;Xr.r.;X;X;X;X;X;X;X;X;X;X;X;X;X;X;X;X;X;X;X;X;X;X;X;X;X;X;X;X;X;X;X;X;X;X;X;X;X;X;X;X;X;X",
";X;X;X;X;X;X;X;X;X;X;X;X;X;X;X;X;X;X;X;X;X;X;X;X;X;X;X;X;X;X;X7.5.5.9.w.e.e.e.e.e.e.0.9.;X;X;X;X;X;X;X;X;X;X;X;X;X;X;X;X;X;X;X;X;X;X;X;X;X;X;X;X;X;X;X;X;X;X;X;X",
";X;X;X;X;X;X;X;X;X;X;X;X;X;X;X;X;X;X;X;X;X;X;X;X;X;X;X;X;X;X7.7.5.5.7.0.0.e.e.e.r.e.w.0.w.;X;X;X;X;X;X;X;X;X;X;X;X;X;X;X;X;X;X;X;X;X;X;X;X;X;X;X;X;X;X;X;X;X;X;X",
";X;X;X;X;X;X;X;X;X;X;X;X;X;X;X;X;X;X;X;X;X;X;X;X;X;X;X;X;Xi g 5.7.5.5.7.9.0.e.e.e.e.e.w.e.e.e.0.;X;X;X;X;X;X;X;X;X;X;X;X;X;X;X;X;X;X;X;X;X;X;X;X;X;X;X;X;X;X;X;X",
";X;X;X;X;X;X;X;X;X;X;X;X;X;X;X;X;X;X;X;X;X;X;X;X;X;X;X;Xy t g 5.5.5.7.5.5.0.w.w.w.w.e.e.r.r.e.w.9.;X;X;X;X;X;X;X;X;X;X;X;X;X;X;X;X;X;X;X;X;X;X;X;X;X;X;X;X;X;X;X",
";X;X;X;X;X;X;X;X;X;X;X;X;X;X;X;X;X;X;X;X;X;X;X;X;X;X;X;Xt t y g g 5.5.5.5.9.5.9.9.9.w.r.r.r.r.e.e.t.;X;X;X;X;X;X;X;X;X;X;X;X;X;X;X;X;X;X;X;X;X;X;X;X;X;X;X;X;X;X",
";X;X;X;X;X;X;X;X;X;X;X;X;X;X;X;X;X;X;X;X;X;X;X;X;X;X;X;Xt t t a i 5.7.5.5.5.5.5.6.7.9.9.0.9.0.9.9.9.9.;X;X;X;X;X;X;X;X;X;X;X;X;X;X;X;X;X;X;X;X;X;X;X;X;X;X;X;X;X",
";X;X;X;X;X;X;X;X;X;X;X;X;X;X;X;X;X;X;X;X;X;X;X;X;X;X;X;X;Xt t t g 5.5.5.5.7.5.5.9.5.t 2 2 2 5 2 2 5 5.;X;X;X;X;X;X;X;X;X;X;X;X;X;X;X;X;X;X;X;X;X;X;X;X;X;X;X;X;X",
";X;X;X;X;X;X;X;X;X;X;X;X;X;X;X;X;X;X;X;X;X;X;X;X;X;X;X;X;X;Xt t g 5.7.5.5.5.5.5.5.g 4 X .         2 5.;X;X;X;X;X;X;X;X;X;X;X;X;X;X;X;X;X;X;X;X;X;X;X;X;X;X;X;X;X",
";X;X;X;X;X;X;X;X;X;X;X;X;X;X;X;X;X;X;X;X;X;X;X;X;X;X;X;X;X;Xt t i 5.5.5.7.5.5.5.t a m l.x o   < l.l.y.;X;X;X;X;X;X;X;X;X;X;X;X;X;X;X;X;X;X;X;X;X;X;X;X;X;X;X;X;X",
";X;X;X;X;X;X;X;X;X;X;X;X;X;X;X;X;X;X;X;X%.] ^ W E 1 E ;X;X;Xt t y a i g 5.9.5.t % 6 n.&Xm.n * c.&X*Xb.r.;X;X;X;X;X;X;X;X;X;X;X;X;X;X;X;X;X;X;X;X;X;X;X;X;X;X;X;X",
";X;X;X;X;X;X;X;X;X;X;X;X;X;X;X;X;X;X;XI.L.$.^ W ! Q ~ ..;X;Xs t t t i i 5.9.5.5 . - m.-X%Xn - n.-X=Xv.r.;X;X;X;X;X;X;X;X;X;X;X;X;X;X;X;X;X;X;X;X;X;X;X;X;X;X;X;X",
";X;X;X;X;X;X;X;X;X;X;X;X;X;X;X;X;X;X;XH.$.^ Q E ~ X.>.1./.;.K t t t a 5.5.9.7.5   X } m.c.< o n m.m.b.e.;X;X;X;X;X;X;X;X;X;X;X;X;X;X;X;X;X;X;X;X;X;X;X;X;X;X;X;X",
";X;X;X;X;X;X;X;X;X;X;X;X;X;X;X;X;X;X;X;XQ W E W ..1./.{.{.F.Y t r t a 5.5.7.5.5 .   X * *     X - w 8.e.;X;X;X;X;X;X;X;X;X;X;X;X;X;X;X;X;X;X;X;X;X;X;X;X;X;X;X;X",
";X;X;X;X;X;X;X;X;X;X;X;X;X;X;X;X;X;X;X;X;X! ! ~ -./..X.X).<.Y t r t i g g i t # .                 . g t.;X;X;X;X;X;X;X;X;X;X;X;X;X;X;X;X;X;X;X;X;X;X;X;X;X;X;X;X",
";X;X;X;X;X;X;X;X;X;X;X;X;X;X;X;X;X;X;X;X;X;X#.#.,./.)._.T.K.J t r t t g t 3 O .                   . g e.;X;X;X;X;X;X;X;X;X;X;X;X;X;X;X;X;X;X;X;X;X;X;X;X;X;X;X;X",
";X;X;X;X;X;X;X;X;X;X;X;X;X;X;X;X;X;X;X;X;X;X:.,.,.D./.Y.H.%./ j a t t t 5 #                       # h e.;X;X;X;X;X;X;X;X;X;X;X;X;X;X;X;X;X;X;X;X;X;X;X;X;X;X;X;X",
";X;X;X;X;X;X;X;X;X;X;X;X;X;X;X;X;X;X;X;X;X;X;X,.,.@.o.o.' ' ' ' H a r t 5 2 O O O O           . 4 g 9.e.r.;X;X;X;X;X;X;X;X;X;X;X;X;X;X;X;X;X;X;X;X;X;X;X;X;X;X;X",
";X;X;X;X;X;X;X;X;X;X;X;X;X;X;X;X;X;X;X;X;X;X;X:.+.T A q j / %.G.' d t t t t 5 t 5 2 O         2 5.w.e.e.e.e.;X;X;X;X;X;X;X;X;X;X;X;X;X;X;X;X;X;X;X;X;X;X;X;X;X;X",
";X;X;X;X;X;X;X;X;X;X;X;X;X;X;X;X;X;X;X;X;X;X+.+.T c t r t H ' G.&.O.Y c t r u t t t 3 O . O # g e.r.r.e.e.e.;X;X;X;X;X;X;X;X;X;X;X;X;X;X;X;X;X;X;X;X;X;X;X;X;X;X",
";X;X;X;X;X;X;X;X;X;X;X;X;X;X;X;X;X;X;X;X;X;XK D A s t r t d H / =.Y.=.Y t r t t t t t t t f h 0.e.e.r.e.e.r.r.;X;X;X;X;X;X;X;X;X;X;X;X;X;X;X;X;X;X;X;X;X;X;X;X;X",
";X;X;X;X;X;X;X;X;X;X;X;X;X;X;X;X;X;X;X;X;X;Xt t t t t t t r t A *.T.Y.o.S s a u t t g 5.9.0.w.e.e.e.e.e.e.e.e.;X;X;X;X;X;X;X;X;X;X;X;X;X;X;X;X;X;X;X;X;X;X;X;X;X",
";X;X;X;X;X;X;X;X;X;X;X;X;X;X;X;X;X;X;X;X;X;Xt t t t t t t t r s _ *.<.K.*._ h p u 4.5.5.9.0.w.0.0.0.e.e.e.r.e.;X;X;X;X;X;X;X;X;X;X;X;X;X;X;X;X;X;X;X;X;X;X;X;X;X",
";X;X;X;X;X;X;X;X;X;X;X;X;X;X;X;X;X;X;X;X;X;Xt t t t t t t t t t a S o.U.T.Z.p.4.5.5.5.5.5.7.7.7.7.0.w.e.e.e.e.;X;X;X;X;X;X;X;X;X;X;X;X;X;X;X;X;X;X;X;X;X;X;X;X;X",
";X;X;X;X;X;X;X;X;X;X;X;X;X;X;X;X;X;X;X;X;X;Xy a t t t t t t t t r t Y =.W.R.B.g.i.4.4.5.5.5.5.7.5.9.0.w.w.e.e.;X;X;X;X;X;X;X;X;X;X;X;X;X;X;X;X;X;X;X;X;X;X;X;X;X",
";X;X;X;X;X;X;X;X;X;X;X;X;X;X;X;X;X;X;X;X;X;Xy t t 5 t t t t t t t r d g.B.R.W.S.j.4.2.4.4.5.5.5.5.9.9.9.w.e.e.;X;X;X;X;X;X;X;X;X;X;X;X;X;X;X;X;X;X;X;X;X;X;X;X;X",
";X;X;X;X;X;X;X;X;X;X;X;X;X;X;X;X;X;X;X;X;X;Xt t t t t t t t t t t t u 5.p.Z.~.W.B.p.p.p.i.7.7.5.5.5.5.5.0.e.e.;X;X;X;X;X;X;X;X;X;X;X;X;X;X;X;X;X;X;X;X;X;X;X;X;X",
";X;X;X;X;X;X;X;X;X;X;X;X;X;X;X;X;X;X;X;X;X;Xt t t t t t t t t t f g 4.4.8.j.Z.R.R.Z.A.Z.B.s.5.5.5.5.5.0.0.w.e.e.;X;X;X;X;X;X;X;X;X;X;X;X;X;X;X;X;X;X;X;X;X;X;X;X",
";X;X;X;X;X;X;X;X;X;X;X;X;X;X;X;X;X;X;X;X;X;Xt a t t t t t t t y a 5.5.5.8.7.p.V.W.OXOXOXE.j.6.4.5.5.5.5.0.t.e.r.;X;X;X;X;X;X;X;X;X;X;X;X;X;X;X;X;X;X;X;X;X;X;X;X",
";X;X;X;X;X;X;X;X;X;X;X;X;X;X;X;X;X;X;X;X;X;Xt t t t t t t t t t g 5.5.5.7.3.5.V.|.@X@XOX~.V.5.4.5.5.5.5.t.w.e.e.;X;X;X;X;X;X;X;X;X;X;X;X;X;X;X;X;X;X;X;X;X;X;X;X",
";X;X;X;X;X;X;X;X;X;X;X;X;X;X;X;X;X;X;X;X;X;Xt a t t t t t t t y g 5.5.5.5.3.7.C.OX$X$X@X~.j.5.4.5.5.5.5.t.e.e.e.;X;X;X;X;X;X;X;X;X;X;X;X;X;X;X;X;X;X;X;X;X;X;X;X",
";X;X;X;X;X;X;X;X;X;X;X;X;X;X;X;X;X;X;X;X;X;Xt t t t t 5 t t t t 4.5.7.5.5.4.7.C.oX#X+XOXE.j.a.6.6.0.5.5.t.e.e.e.;X;X;X;X;X;X;X;X;X;X;X;X;X;X;X;X;X;X;X;X;X;X;X;X",
";X;X;X;X;X;X;X;X;X;X;X;X;X;X;X;X;X;X;X;X;X;Xf t t t t t t y g g g 5.5.5.5.4.7.x.F.}.!.S.=.&.[ ) u.4.5.9.0.e.e.e.;X;X;X;X;X;X;X;X;X;X;X;X;X;X;X;X;X;X;X;X;X;X;X;X",
";X;X;X;X;X;X;X;X;X;X;X;X;X;X;X;X;X;X;X;X;X;Xt a t t t t t y i 5.7.7.7.5.5.5.5.u.d.h.h.s.` J.J.{ u.4.9.5.0.e.e.e.;X;X;X;X;X;X;X;X;X;X;X;X;X;X;X;X;X;X;X;X;X;X;X;X",
";X;X;X;X;X;X;X;X;X;X;X;X;X;X;X;X;X;X;X;X;X;Xt t t t t f i i 7.5.5.7.5.5.7.5.5.5.4.4.2.4.s.{ &.` u.5.5.7.0.e.e.e.;X;X;X;X;X;X;X;X;X;X;X;X;X;X;X;X;X;X;X;X;X;X;X;X",
";X;X;X;X;X;X;X;X;X;X;X;X;X;X;X;X;X;X;X;X;X;Xa y t t t s 5.5.5.5.5.5.5.7.5.5.7.5.4.4.2.5.u.J g.s.9.5.5.7.0.e.e.e.;X;X;X;X;X;X;X;X;X;X;X;X;X;X;X;X;X;X;X;X;X;X;X;X",
";X;X;X;X;X;X;X;X;X;X;X;X;X;X;X;X;X;X;X;X;X;X;Xt t t y g 5.5.7.5.7.5.5.5.7.5.5.5.7.7.5.9.8.6.5.5.5.5.5.7.0.e.e.e.;X;X;X;X;X;X;X;X;X;X;X;X;X;X;X;X;X;X;X;X;X;X;X;X",
";X;X;X;X;X;X;X;X;X;X;X;X;X;X;X;X;X;X;X;X;X;X;Xt t t y g 5.7.7.5.5.5.7.5.5.5.7.5.5.7.8.F 8.8.4.5.5.7.5.7.0.e.e.r.;X;X;X;X;X;X;X;X;X;X;X;X;X;X;X;X;X;X;X;X;X;X;X;X",
";X;X;X;X;X;X;X;X;X;X;X;X;X;X;X;X;X;X;X;X;X;X;Xt t t y g g 7.5.7.7.5.7.5.7.5.5.5.5.7.F D S 8.5.5.5.5.5.7.0.w.e.e.;X;X;X;X;X;X;X;X;X;X;X;X;X;X;X;X;X;X;X;X;X;X;X;X",
";X;X;X;X;X;X;X;X;X;X;X;X;X;X;X;X;X;X;X;X;X;X;Xt t t y g 5.5.5.5.5.5.5.5.7.5.7.5.5.8.G D D v 5.5.7.5.7.7.0.e.e.e.;X;X;X;X;X;X;X;X;X;X;X;X;X;X;X;X;X;X;X;X;X;X;X;X",
";X;X;X;X;X;X;X;X;X;X;X;X;X;X;X;X;X;X;X;X;Xt a t t 5 t g 5.5.7.7.5.7.7.5.5.5.5.5.5.7.S D D 8.5.5.5.5.5.7.0.w.e.e.;X;X;X;X;X;X;X;X;X;X;X;X;X;X;X;X;X;X;X;X;X;X;X;X",
";X;X;X;X;X;X;X;X;X;X;X;X;X;X;X;X;X;X;X;X;Xt t t t t y i 5.5.5.5.5.5.5.5.7.7.5.7.5.7.A C D v 6.5.5.5.5.7.0.e.e.r.;X;X;X;X;X;X;X;X;X;X;X;X;X;X;X;X;X;X;X;X;X;X;X;X",
";X;X;X;X;X;X;X;X;X;X;X;X;X;X;X;X;X;X;X;X;Xt t t t t t i 5.5.5.7.5.7.7.5.5.5.5.5.7.5.c 9 M j v v 7.5.5.9.0.e.r.r.;X;X;X;X;X;X;X;X;X;X;X;X;X;X;X;X;X;X;X;X;X;X;X;X",
";X;X;X;X;X;X;X;X;X;X;X;X;X;X;X;X;X;X;X;X;Xt t t t t t g 5.5.5.5.7.5.7.5.5.5.7.7.7.g w ; , N D F 7.5.5.7.0.e.e.e.;X;X;X;X;X;X;X;X;X;X;X;X;X;X;X;X;X;X;X;X;X;X;X;X",
";X;X;X;X;X;X;X;X;X;X;X;X;X;X;X;X;X;X;X;X;X;Xt t t t y g 5.5.7.5.5.5.5.5.5.7.5.7.g a 7 ; , N C F 7.5.5.7.0.e.e.e.;X;X;X;X;X;X;X;X;X;X;X;X;X;X;X;X;X;X;X;X;X;X;X;X",
";X;X;X;X;X;X;X;X;X;X;X;X;X;X;X;X;X;X;X;X;X;Xt t t t y g 5.5.5.7.5.5.5.5.5.7.5.i 0 7 @ ; , M D G 9.5.5.7.0.e.e.r.;X;X;X;X;X;X;X;X;X;X;X;X;X;X;X;X;X;X;X;X;X;X;X;X",
";X;X;X;X;X;X;X;X;X;X;X;X;X;X;X;X;X;X;X;X;X;Xt t t t y g 5.5.5.5.7.5.7.5.5.5.5.i 8 ; ; , , M D G 5.5.5.7.0.e.e.e.;X;X;X;X;X;X;X;X;X;X;X;X;X;X;X;X;X;X;X;X;X;X;X;X",
";X;X;X;X;X;X;X;X;X;X;X;X;X;X;X;X;X;X;X;X;X;Xt t y g i 5.5.5.7.5.5.7.5.5.5.5.5.v c V z N N C Z G 7.5.5.5.w.e.e.e.;X;X;X;X;X;X;X;X;X;X;X;X;X;X;X;X;X;X;X;X;X;X;X;X",
";X;X;X;X;X;X;X;X;X;X;X;X;X;X;X;X;X;X;X;X;X;X5 t a g 5.7.5.5.5.5.5.5.5.5.7.7.7.q.I T P Z Z Z K b 7.5.5.7.0.w.e.e.;X;X;X;X;X;X;X;X;X;X;X;X;X;X;X;X;X;X;X;X;X;X;X;X",
";X;X;X;X;X;X;X;X;X;X;X;X;X;X;X;X;X;X;X;X;X;Xt t g 5.5.5.5.7.5.5.5.5.7.5.7.8.q.d.x.| | I P P K b 7.5.5.5.0.e.e.e.;X;X;X;X;X;X;X;X;X;X;X;X;X;X;X;X;X;X;X;X;X;X;X;X",
";X;X;X;X;X;X;X;X;X;X;X;X;X;X;X;X;X;X;X;X;X;Xa t a 5.5.5.5.5.5.7.7.5.5.5.8.q.d.z.x.| | | T P L b 8.5.5.5.0.e.e.e.;X;X;X;X;X;X;X;X;X;X;X;X;X;X;X;X;X;X;X;X;X;X;X;X",
";X;X;X;X;X;X;X;X;X;X;X;X;X;X;X;X;X;X;X;X;X;Xt t i g 5.7.5.5.5.5.5.5.5.5.7.q.I | T | | z.T P K b 7.5.5.5.0.e.e.e.;X;X;X;X;X;X;X;X;X;X;X;X;X;X;X;X;X;X;X;X;X;X;X;X",
";X;X;X;X;X;X;X;X;X;X;X;X;X;X;X;X;X;X;X;X;Xt t t g 4.5.5.7.7.5.7.7.5.7.5.7.b V l V C P | | I K b 7.5.5.9.0.e.e.e.;X;X;X;X;X;X;X;X;X;X;X;X;X;X;X;X;X;X;X;X;X;X;X;X",
";X;X;X;X;X;X;X;X;X;X;X;X;X;X;X;X;X;X;X;X;X;Xt a g g 7.5.4.7.5.5.5.5.7.5.h a 7 & & 7 V T | P K b 8.5.5.5.0.e.e.e.;X;X;X;X;X;X;X;X;X;X;X;X;X;X;X;X;X;X;X;X;X;X;X;X",
";X;X;X;X;X;X;X;X;X;X;X;X;X;X;X;X;X;X;X;X;X;Xt t y 5.5.7.7.7.7.5.7.7.5.i y 4 $ + + & 9 Z L P L b 5.5.5.9.0.t.r.e.;X;X;X;X;X;X;X;X;X;X;X;X;X;X;X;X;X;X;X;X;X;X;X;X",
";X;X;X;X;X;X;X;X;X;X;X;X;X;X;X;X;X;X;X;X;X;Xt t f 5.5.5.7.5.5.5.7.7.g 5 4 $ @ + + @ ; 9 l Z K b 8.5.5.5.0.e.e.;X;X;X;X;X;X;X;X;X;X;X;X;X;X;X;X;X;X;X;X;X;X;X;X;X",
";X;X;X;X;X;X;X;X;X;X;X;X;X;X;X;X;X;X;X;X;X;X0 a u g 5.7.5.5.7.5.7.7.d 4 @ @ @ $ @ @ @ $ > V K G v 5.5.9.0.e.e.;X;X;X;X;X;X;X;X;X;X;X;X;X;X;X;X;X;X;X;X;X;X;X;X;X",
";X;X;X;X;X;X;X;X;X;X;X;X;X;X;X;X;X;X;X;X;X;X5 t u g 5.5.5.7.7.7.8.b c 7 @ + @ @ @ @ @ @ > l L K b b 7.7.9.0.w.;X;X;X;X;X;X;X;X;X;X;X;X;X;X;X;X;X;X;X;X;X;X;X;X;X",
";X;X;X;X;X;X;X;X;X;X;X;X;X;X;X;X;X;X;X;X;Xt t t i 5.5.7.5.5.5.7.b K V > @ + @ $ @ @ @ @ > V Z K K b v 5.5.7.9.;X;X;X;X;X;X;X;X;X;X;X;X;X;X;X;X;X;X;X;X;X;X;X;X;X",
";X;X;X;X;X;X;X;X;X;X;X;X;X;X;X;X;X;X;X;X;Xt ;X;Xi 5.7.5.5.5.5.7.b P l > @ @ @ @ @ @ + @ 7 V K P P K 7.7.5.5.9.;X;X;X;X;X;X;X;X;X;X;X;X;X;X;X;X;X;X;X;X;X;X;X;X;X",
";X;X;X;X;X;X;X;X;X;X;X;X;X;X;X;X;X;X;X;X;Xt ;X;Xg g 7.5.7.5.5.7.b K Z > @ @ $ @ @ $ + $ > V Z P Z b v 5.5.7.;X;X;X;X;X;X;X;X;X;X;X;X;X;X;X;X;X;X;X;X;X;X;X;X;X;X",
";X;X;X;X;X;X;X;X;X;X;X;X;X;X;X;X;X;X;X;X;X;X;X;Xi g 7.7.7.5.7.7.G K V 7 @ * + @ @ @ @ @ 7 V L L Z K 7.7.7.7.;X;X;X;X;X;X;X;X;X;X;X;X;X;X;X;X;X;X;X;X;X;X;X;X;X;X",
";X;X;X;X;X;X;X;X;X;X;X;X;X;X;X;X;X;X;X;X;X;X;Xt i 5.7.7.5.7.8.v F S B : @ @ + $ @ @ @ @ 7 B D K K G v 7.4.7.;X;X;X;X;X;X;X;X;X;X;X;X;X;X;X;X;X;X;X;X;X;X;X;X;X;X",
";X;X;X;X;X;X;X;X;X;X;X;X;X;X;X;X;X;X;X;X;X;X;Xt ;X;X9.7.5.8.v F F G q 7 @ @ @ @ $ @ + @ 7 l S G G F 8.7.7.7.;X;X;X;X;X;X;X;X;X;X;X;X;X;X;X;X;X;X;X;X;X;X;X;X;X;X",
";X;X;X;X;X;X;X;X;X;X;X;X;X;X;X;X;X;X;X;X;X;X;X;X;X;X;X7.8.v F A A A q : @ @ @ $ @ @ @ @ : q c F G v 8.7.7.;X;X;X;X;X;X;X;X;X;X;X;X;X;X;X;X;X;X;X;X;X;X;X;X;X;X;X",
";X;X;X;X;X;X;X;X;X;X;X;X;X;X;X;X;X;X;X;X;X;X;X;X;X;X;X;X;XF G A q 7 : $ @ @ @ @ @ @ @ @ $ 7 7 q A F 8.7.;X;X;X;X;X;X;X;X;X;X;X;X;X;X;X;X;X;X;X;X;X;X;X;X;X;X;X;X",
";X;X;X;X;X;X;X;X;X;X;X;X;X;X;X;X;X;X;X;X;X;X;X;X;X;X;X;X;X;XG A q & + $ @ @ @ @ $ @ @ $ + + $ q A v 8.;X;X;X;X;X;X;X;X;X;X;X;X;X;X;X;X;X;X;X;X;X;X;X;X;X;X;X;X;X",
";X;X;X;X;X;X;X;X;X;X;X;X;X;X;X;X;X;X;X;X;X;X;X;X;X;X;X;X;X;XG A w $ + @ @ @ @ $ @ @ $ @ @ @ $ 9 A u.;X;X;X;X;X;X;X;X;X;X;X;X;X;X;X;X;X;X;X;X;X;X;X;X;X;X;X;X;X;X",
";X;X;X;X;X;X;X;X;X;X;X;X;X;X;X;X;X;X;X;X;X;X;X;X;X;X;X;X;X;X;XA q $ @ @ @ @ @ @ @ @ @ @ + @ $ q A ;X;X;X;X;X;X;X;X;X;X;X;X;X;X;X;X;X;X;X;X;X;X;X;X;X;X;X;X;X;X;X",
";X;X;X;X;X;X;X;X;X;X;X;X;X;X;X;X;X;X;X;X;X;X;X;X;X;X;X;X;XG G A ;X;X+ $ @ @ @ @ @ @ + $ @ @ & ;X;X;X;X;X;X;X;X;X;X;X;X;X;X;X;X;X;X;X;X;X;X;X;X;X;X;X;X;X;X;X;X;X",
";X;X;X;X;X;X;X;X;X;X;X;X;X;X;X;X;X;X;X;X;X;X;X;X;X;X;X;XF F F G ;X;X;X+ @ @ $ @ @ ;X;X;X;X;X;X;X;X;X;X;X;X;X;X;X;X;X;X;X;X;X;X;X;X;X;X;X;X;X;X;X;X;X;X;X;X;X;X;X",
";X;X;X;X;X;X;X;X;X;X;X;X;X;X;X;X;X;X;X;X;X;X;X;X;X;X;X;X;X;X;X;X;X;X;X;X;X$ $ @ ;X;X;X;X;X;X;X;X;X;X;X;X;X;X;X;X;X;X;X;X;X;X;X;X;X;X;X;X;X;X;X;X;X;X;X;X;X;X;X;X",
";X;X;X;X;X;X;X;X;X;X;X;X;X;X;X;X;X;X;X;X;X;X;X;X;X;X;X;X;X;X;X;X;X;X;X;X;X;X;X;X;X;X;X;X;X;X;X;X;X;X;X;X;X;X;X;X;X;X;X;X;X;X;X;X;X;X;X;X;X;X;X;X;X;X;X;X;X;X;X;X",
";X;X;X;X;X;X;X;X;X;X;X;X;X;X;X;X;X;X;X;X;X;X;X;X;X;X;X;X;X;X;X;X;X;X;X;X;X;X;X;X;X;X;X;X;X;X;X;X;X;X;X;X;X;X;X;X;X;X;X;X;X;X;X;X;X;X;X;X;X;X;X;X;X;X;X;X;X;X;X;X",
";X;X;X;X;X;X;X;X;X;X;X;X;X;X;X;X;X;X;X;X;X;X;X;X;X;X;X;X;X;X;X;X;X;X;X;X;X;X;X;X;X;X;X;X;X;X;X;X;X;X;X;X;X;X;X;X;X;X;X;X;X;X;X;X;X;X;X;X;X;X;X;X;X;X;X;X;X;X;X;X"
};
