/* XPM */
static char *result[] = {
/* columns rows colors chars-per-pixel */
"80 80 175 2 ",
"   c #07112C",
".  c #0B122E",
"X  c #10152F",
"o  c #0E1230",
"O  c #141433",
"+  c #191636",
"@  c #161832",
"#  c #1B1A35",
"$  c #1D1539",
"%  c #1D193A",
"&  c #211E37",
"*  c #23163C",
"=  c #28173F",
"-  c #241C3B",
";  c #2A1C3E",
":  c #321F3F",
">  c #262037",
",  c #282137",
"<  c #2D233B",
"1  c #2C283E",
"2  c #32253E",
"3  c #35293F",
"4  c #3A2B3F",
"5  c #101F44",
"6  c #1D1F45",
"7  c #251E46",
"8  c #2C1B43",
"9  c #2B1E48",
"0  c #331C45",
"q  c #341D49",
"w  c #3B1E4C",
"e  c #0E2345",
"r  c #0F2D4C",
"t  c #112346",
"y  c #1B2146",
"u  c #122748",
"i  c #1C2549",
"p  c #122B4B",
"a  c #1D2C4D",
"s  c #0F334D",
"d  c #12324E",
"f  c #1B344F",
"g  c #143650",
"h  c #1B3451",
"j  c #133B52",
"k  c #193D54",
"l  c #212046",
"z  c #2E2143",
"x  c #24264B",
"c  c #2D234B",
"v  c #232D4D",
"b  c #2A2C4D",
"n  c #332243",
"m  c #3C2446",
"M  c #362840",
"N  c #3C2B42",
"B  c #34224A",
"V  c #3C224B",
"C  c #322F4C",
"Z  c #3F294A",
"A  c #303346",
"S  c #3A374A",
"D  c #252F52",
"F  c #2E2B51",
"G  c #332652",
"H  c #392751",
"J  c #332B54",
"K  c #3B2A52",
"L  c #223351",
"P  c #2A3955",
"I  c #2D3959",
"U  c #323556",
"Y  c #383654",
"T  c #363158",
"R  c #323A59",
"E  c #393D5F",
"W  c #432D45",
"Q  c #482F47",
"!  c #43254D",
"~  c #48274D",
"^  c #452A4B",
"/  c #4B2C4D",
"(  c #512F4D",
")  c #443145",
"_  c #4A3347",
"`  c #44374E",
"'  c #4C344A",
"]  c #4E384A",
"[  c #53354C",
"{  c #59364E",
"}  c #55394C",
"|  c #5B3B4E",
" . c #442552",
".. c #4A2554",
"X. c #462951",
"o. c #4C2B55",
"O. c #442F5A",
"+. c #4F2B5A",
"@. c #522E55",
"#. c #532D5A",
"$. c #582E5C",
"%. c #4C3D53",
"&. c #4C335E",
"*. c #4B3B5B",
"=. c #553354",
"-. c #5B3555",
";. c #553A53",
":. c #5D3A53",
">. c #553159",
",. c #5B3459",
"<. c #573958",
"1. c #5E3959",
"2. c #603757",
"3. c #633C55",
"4. c #693F57",
"5. c #61365B",
"6. c #643B59",
"7. c #693E59",
"8. c #572C60",
"9. c #463D62",
"0. c #503160",
"q. c #0F4053",
"w. c #134356",
"e. c #194256",
"r. c #114857",
"t. c #144658",
"y. c #1A4659",
"u. c #154B5B",
"i. c #1B4C5C",
"p. c #16515E",
"a. c #1C525F",
"s. c #29435A",
"d. c #234C5E",
"f. c #3D4556",
"g. c #334A5A",
"h. c #3A4A5B",
"j. c #24515F",
"k. c #2C525E",
"l. c #36555F",
"z. c #3C545E",
"x. c #1D5561",
"c. c #1E5963",
"v. c #364461",
"b. c #205562",
"n. c #2C5761",
"m. c #215D65",
"M. c #2C5B64",
"N. c #235F68",
"B. c #345661",
"V. c #3E5661",
"C. c #355963",
"Z. c #226066",
"A. c #226068",
"S. c #444C5B",
"D. c #4A4F5D",
"F. c #5D4254",
"G. c #574856",
"H. c #52465A",
"J. c #5C435A",
"K. c #544D5C",
"L. c #5C4C5A",
"P. c #45525E",
"I. c #4C515D",
"U. c #52505C",
"Y. c #63404F",
"T. c #654153",
"R. c #6C4356",
"E. c #674957",
"W. c #694857",
"Q. c #654259",
"!. c #6B4158",
"~. c #634A58",
"^. c #704556",
"/. c #494763",
"(. c #514E61",
/* pixels */
"t t g m.x.t t a.x.y.i.m.e.p b.m.x.t t p u t b.p i.b.m.m.A.A.A.x.y.g p d e.b.N.m.N.N.c.N.c.N.d.t.c.N.u.c.a.Z.q.p t y.a.Z.a.Z.p.u x.g j r.j u.r u s j x.i.j.m.b.p ",
"p p x.c.a.t t p N.i.y.k y.N.b.x.t m.m.y.t 5 k y.h m.N.m.A.A.A.c.e.g u g e.b.m.m.c.u.A.c.y.j r s u.N.A.r.p.Z.m.j d i.u.Z.a.Z.p p j y.w.w.t.i.u u g p.w.y.j e.k p ",
"e.e.e.b.g t u i.N.p y.u m.Z.y.c.t m.N.i.p 5 t u i.c.N.m.A.A.A.A.y.j d g i.b.c.N.c.N.c.g j k p g i.p.A.c.p.a.m.Z.j.p.a.Z.Z.Z.p u a.i.w.j x.y.u d u.j w.i.k b.p t ",
"i.e.y.b.e.t p e.N.i.i.p A.Z.a.a.t b.N.a.i.d t t d i.i.N.A.A.c.A.m.k g j x.p.c.m.t.N.x.k u g p d w.s x.c.Z.a.a.Z.m.c.j.Z.j.y.p p a.t.x.a.i.u e k s j u.k e.i.p 5 ",
"y.m.i.c.g t u.g A.i.c.e.Z.A.m.x.t y.m.a.e.a.m.t p j p.x.c.A.A.c.N.c.j t.N.N.c.j i.N.t.k t u j j r r y.c.A.Z.a.c.a.Z.a.Z.Z.e.p y.j u b.x.u 5 d i.g j a.j i.j 5 t ",
"x.m.j.a.y.t a.i.Z.A.m.d A.m.x.c.N.a.i.e.e.i.N.m.x.y.i.x.x.A.c.c.c.N.c.N.N.c.c.c.i.N.j u u h e.t.t r y.c.Z.Z.r.a.a.Z.Z.Z.m.e y.e.k p p k u u d.d j u.i.u.d e.f t ",
"i.N.d.d c.p i.Z.x.A.w.d A.y.i.x.N.e.u i.e.d m.A.c.N.j j x.A.A.A.N.c.c.A.r.A.N.c.x.m.y.k d a.x.k u t p y.x.c.w.w.w.d j.m.e u i.p p y.j 5 u p d i.e.c.j u.d a.a.t ",
"d N.t t x.e.p Z.w.N.y.d N.a.m.m.A.d p i.f g a.N.x.c.x.g p.c.c.c.N.c.c.c.x.c.t.c.a.m.y.d.k a.d.h u t u r j d j t.d s y.e.q.g g s d y.k u d h y.y.y.u.i.r r e.g e ",
"t m.t t c.u p N.w.A.j s m.m.x.m.Z.j s u t x.c.A.a.a.x.c.d c.t.a.p.u.c.a.c.w.w.c.c.x.d k i.d.i.a.p t t p x.p a.c.p e p m.b.a.y.w.j r r u g y.b.x.a.m.x.u t i.e.t ",
"t m.t t x.u p m.p.A.j g m.m.x.m.Z.i.s p t c.i.A.y.g y.c.m.j t.c.u.r u g x.j j c.A.t.d y.a.b.x.k e.g p i.x.g t a.t t e.y.p i.w.x.p.g d j y.b.N.b.b.g p t u x.e.p ",
"t N.t t i.t p i.i.x.s p t r a.a.A.a.j g t b.d Z.b.e.y.d m.w.a.j r j u a.k g g x.m.j p x.x.x.p.i.e.d.y.x.i.k t b.t p e.a.j s i.t.t.a.t.c.x.b.x.a.k p t u p d.k k ",
"b.m.t t i.t t p p y.p t t r x.i.Z.c.i.x.t i.t b.i.i.y.w.c.c.a.p p b.d y.t.g y.a.i.e.u j p.p.x.a.a.i.e.b.i.j t b.p e.k e.a.s j p.u.i.x.c.x.p.p.u.k p u p k y.i.a.",
"N.t t t i.m.i.t.t t t t t p x.j Z.A.c.y.p m.i.t d a.m.m.a.m.w.p d y.a.t y.a.j x.i.k p g a.t.p.x.b.b.a.k e.e.t b.e.a.t a.j d j w.x.p.x.c.c.p.u.w.j r d g a.c.b.Z.",
"x.t p g a.N.m.m.t t t r d g c.j Z.Z.c.p e.m.m.p b.a.c.Z.m.y.e.e.d.p a.t a.u y.r d.d d g i.t.t.x.m.m.d.x.p y.t a.a.a.t b.e.p s j x.p.x.c.x.p.u.r.j j y.i.y.c.c.Z.",
"d t e.x.m.A.c.a.t t u e.i.x.x.s j a.c.t y.Z.m.j Z.w.Z.Z.a.w.j e.k k k u u g a.k y.y.k j a.c.j a.c.N.d.x.u 5 e x.e.e.d b.e d j s p.x.x.c.c.x.t.u.i.i.e.i.p.c.m.a.",
"5 g y.c.N.w.i.d p p k i.x.g u p i.u c.d a.Z.Z.i.Z.w.Z.Z.i.w.e.k j k u p d x.c.x.c.c.p.y.y.x.x.i.m.c.c.c.p t t j.e.i.a.a.t e.i.p s c.u.u.c.u.c.c.i.i.m.b.c.c.m.p.",
"d b.y.c.c.i.j g e.d g a.Z.i.u d i.t a.a.a.Z.Z.i.Z.m.Z.Z.i.e.p j.e.j p d j c.m.a.a.c.m.a.j.Z.Z.y.x.N.N.x.p u t g y.i.a.a.d e.j u p d a.r.c.w.Z.a.a.a.Z.Z.j.Z.r.r.",
"a.x.e.x.t.x.g c.u i.j.m.a.t p j.u d Z.a.a.Z.Z.r.Z.Z.Z.u.p.p u y.j.y.f g j j w.m.Z.c.c.c.y.m.Z.i.x.N.m.x.q.p i.g a.j.a.j.Z.d y.t u d w.s Z.Z.Z.a.u.Z.Z.Z.Z.a.q.s ",
"b.b.m.k x.d r c.p Z.Z.Z.a.u d Z.Z.j.Z.j.Z.w.j.a.Z.Z.Z.a.a.t t p d e.i.y.t.w.j Z.Z.a.a.a.c.Z.Z.i.Z.Z.N.i.a.j Z.Z.Z.m.a.p.Z.e.Z.j.t u j s Z.Z.c.i.j.Z.Z.Z.a.p.d s ",
"b.b.m.e.i.c.Z.A.e.Z.Z.Z.e.a.d Z.Z.Z.Z.u a.Z.Z.Z.a.Z.Z.Z.j t t p k i.a.a.c.j.p Z.Z.c.m.m.c.Z.Z.m.Z.p.Z.w.a.j.Z.Z.Z.j.Z.Z.Z.Z.Z.Z.t t j Z.Z.Z.Z.i.m.Z.Z.Z.a.r u u ",
"A.A.A.c.c.c.A.Z.a.Z.j.Z.b.a.m.m.Z.a.Z.c.p Z.Z.Z.m.m.j.Z.j w.r.r.w.d r t e t d c.Z.r.Z.Z.m.Z.Z.Z.Z.p m.a.m.j.Z.Z.a.a.Z.j Z.j Z.Z.t t i.a.Z.Z.m.t e Z.Z.Z.Z.e t t ",
"A.N.c.c.c.x.Z.Z.Z.Z.c.Z.Z.w.Z.Z.Z.e j.Z.Z.j.c.Z.Z.Z.Z.Z.d a.j a.j m.a.d u u s q.Z.c.m.Z.Z.Z.Z.m.Z.r t Z.m.Z.Z.Z.q.s j.a.Z.s i.Z.e u j.u Z.Z.j.t t Z.j.Z.Z.u t u ",
"c.N.x.c.x.A.x.m.Z.Z.t Z.c.w.Z.m.Z.t t j.Z.j.s Z.a.Z.Z.Z.a.m.m.a.m.N.N.e.d u d q.m.Z.a.Z.Z.Z.c.Z.Z.b.i.b.j Z.Z.j.j p p Z.Z.p u j.e j.i.i.j.Z.t t t j.u Z.j.t i.e ",
"c.c.x.Z.N.A.x.c.c.j.t m.a.j c.d j.Z.t u s Z.q.s d c.Z.Z.Z.j.b.u N.m.m.d.f a a e.y.m.M.Z.Z.b.y.m.Z.m.Z.f q.Z.Z.w.g p j.Z.Z.t t u y m.t i.u Z.t t u Z.a.Z.Z.a.j.u ",
"c.c.x.c.N.N.e.h m.t t t Z.d d p c.Z.e t p m.j w.e.e.m.Z.Z.d.y m.c.m.N.d.P J Q.Q.1.Q.Q.P.n.S.h.n.N.k.m.Y R I L L f a.N.m.i.t 7 l 5.b.i y t y.t p m.N.N.Z.A.Z.A.t ",
"i.x.c.A.N.e.g u N.x.t t x.p r c.Z.Z.t t t u d e.j.m.Z.Z.b.c x b.w.N.(.Q.7.7.7.7.7.7.!.!.J.=.:.,.:.:.:.<.>.O.K c Z.Z.N.a.u 2.7 8 !.>.z t t t u p m.N.m.Z.b.A.Z.t ",
"d i.A.A.A.g t t N.N.u p u u u N.b.y y y t t p s.B.N.N.g.R H B ;.Q.K.Q.!.7.!.!.7.7.7.7.7.7.>.>.#.#.@.>.5.6.6.@.~ Z.m.m.L x 7.=.0 7.7.8 6 t p d m.Z.N.b.i.t N.Z.t ",
"k r A.c.A.d t t c.N.p m.N.u i.b.l 7 7 1 6 t a f.K.(./.9.0.!.!.7.4.7.6.Q.!.6.7.7.7.7.$.5.7.,.,.>.#.#.>.,.!.7.7.7.K.T.H.7.,.,.,.2.7.7.8 6 u g N.m.Z.m.d p u m.m.t ",
"e u c.x.N.d t b.e N.j c.A.r i.7 z m.0 8 7 i b %.Q.!.!.7.7.!.!.!.!.7.$.T.7.5.$.5.,.,.5.$.,.4.#.>.>.#.>.=.6.!.!.!.7.7.7.7.,.@.+.>.4.6.;.7 p j.Z.Z.m.m.t t t b.i.t ",
"t t m.c.N.p m.x.t m.c.N.c.p u i m.b.q 0 q G K 7.!.!.7.7.!.7.7.2.@.,.,.6.6.5.-.-.2.R.4.4.4.4.>.>.#.,.>.>.5.!.7.7.7.7.7.7.5.>.+.+.#.~ =.9 l Z.a.Z.m.t t t t t t t ",
"t i.m.N.N.u m.t t m.N.x.w.r u d N.D c 0 >.7.7.7.7.7.8.#.5.$.>.>.=.,.:.4.2.,.=.$.=.2.R.4.4.T.>.,.!.,.+.>.7.!.7.6.!.!.!.!.!.,.>.@.#.,. .w c m.e.Z.j t t t t t t t ",
"t N.N.N.x.t Z.t t N.c.j g c.i.h m.I 6.-.,.7.7.7.6.8.8.8.$.>.>.5.1.=.>.>.,.>.5.=.,.4.3.4.4.7.4.4.Q.>.,.!.7.6.5.6.7.!.R.R.T.T.!.@.#.1.$. .m b j.m.p t t t p b.Z.t ",
"t N.N.m.u i.a.t t N.p d m.N.d.D <.6.7.,.6.7.#.#.$.8.8.>.7.=.,.5.5.>.>.,.5.7.7.7.6.6.4.7.6.4.7.7.7.5.6.6.7.6.5.5.5.6.R.R.4.3.4.7.-.7.7.$...V d.v u t b.Z.m.Z.m.t ",
"b.N.N.N.i.i.t t c.c.u c.N.x.i b 1.6.,.2.,.-.#.>.>.6.!.!.-.| R.4.6.5.6.6.5.!.4.6.3.4.3.3.2.Q.!.T.7.4.7.T.R.4.6.6.6.6.2.4.4.3.6.7.4.^.^.7.7.o.V c l m.Z.Z.Z.Z.b.t ",
"b.b.N.m.m.t t u N.p p N.b.i l B ,.6.>.,.$.=.#.>.5.7.T.:.4.4.R.4.5.6.!.6.^.R.R.R.R.R.R.4.} Y.3.:.-.4.3.| | ^.^.4.^.7.6.,.6.3.3.2.4.3.4.4.T.7...w z Z.Z.Z.m.Z.u t ",
"t t m.m.b.t t d A.j r c.6 7 >.5.>.,.,.2.,.,.2.#.,.5.2.3.4.4.4.2.!.!.R.R.R.3.:.3.3.{ | { ; 3 4 4 { [ [ _ | | 4.3.,.-.7.7.6.6.,.-.{ | 4.^.^.!.6...B j.Z.e.Z.c.u t ",
"t b.Z.m.t u d Z.m.j p u 7 T.>.,.=.=.T.=.6.=.-.,.7.4.6.2.6.4.4.R.^.^.^.4.3.Q _ | | | | _ # + & < / ~ / / ~ { { 3.:.4.4.R.6.4.6.-.@.-.3.3.4.^.4.4. .w d.L x.d N.y ",
"t N.m.t a j b.Z.Z.d a  .,.7.>.,.1.=.2.,.6.-.,.7.5.=.2.4.R.3.3.R.^.4.{ W - & + 2 : : : X         o + ! ~ / ~ { @.-.{ / 3.4.^.6.2.5.2.2.3.3.^.7.4.7...K F v x N.7 ",
"t N.b.p d Z.N.N.g u +. .7.7.:.>.>.,.3.6.4.2.-.5.,.T.R.T._ - M [ 4 [ ~ : & + - ~ w ! 0 O .       O * = = q ~ ~ / ~ / ; Q 4.3.6.R.4.6.2.( { 3.^.4.!.7...H B 0 N.8 ",
"t N.m.g m.Z.Z.e.v 7 w 5.7.2.>.>.:.:.^.R.R.3.| =.6.3.| ) 2 4 [ Q 4 : $ o o O = = * * $ O X   $ 8 0 $ = 0 = = m / / ! + 2 / -.{ 3.7.7.7.@.{ 3.4.4.!.!...6.w q N.7 ",
"N.N.j.m.Z.N.c.L 9 +.w 7.7.7.$.@.,.R.^.^.{ ( ! { 3.| 4 . + $ * = * $ o o o + + 7 B + O + +   8 8 ! 0 ; 0 0 + ; 8 0 ; - ! / 0 N | 3.6.R.R.,.4.:.R.6.7.7.7.6.B Z.y ",
"N.i.y.Z.Z.Z.w.L #...w 7.7.!.,.=.2.4.R.{ ( ! { 3.R.W . X ; * 8 0 : +   o @ + o B o.% o B B o z z  .0 = w V - 8 m 0 $ * $ * & 2 Q R.Q.6.R.6.-.4.| { 4.7.7.!.G m.e ",
"m.e.j Z.m.x.j o.#.w ! 7.5.7.R.,.T.5.5.^ Q ' 2.4._ ; O * ! + 8 8 w +   o + % . X.+.8   B m + B n 0 + $ = ! - 8 8 0 + 8 q $ O $ ( 3.6.6.6.3.@.3.3.-.( 7. .6.J m.e ",
"m.u a.Z.Z.g p #.#.w 7.7.2.T.R.7.R.5.#.^ Q { 3.[ # 8 = ; ..* - 8 ! O     + # o z K #   - 7   - > O * 8 8 q * O n O + 8 ! O = q / :.!.5.7.R.@.6.4.-.( 7.w +.J d.e ",
"w.u a.Z.m.s t  .8.w 7.!.4.R.R.1.2.$.( ~ { 4.| W 2 ~ w w o.% + 3 ( * @ # + o @ @ + & # .   . > # O $ 8 w 0 = * * + 8 o. .O 8 0 { ' T.5.7.3.{ 3.4.4.R.7.w &.T h g ",
"t u a.Z.j s t t #.V 7.^.!.7.T.@.@.@.-.{ :.4.Q & M @.~ ! H # % ) [ , < # , o # @ X 2 2 X     2 N & O $ 2 N - * * q  .#.o.. O W w 3.!.6.7.6.2.3.3.,.R.7.w 0.E N.y.",
"t t d c.j p t t 8.w 7.T.^.^.R.@.@.#.2.( 3.3.] _ ;.,.,.~ q $ + 1 ) 3 3 @ + X # @ # 2 &       < 4 &   . 2 & O * ;  .#.#.- # 4 & 3.2.6.5.R.T.6.-.3.@.2.4.w &.v.Z.c.",
"t t d j d p u d >.w !.R.^.^.R.#.#.#.5.{ | | } | T.:.:.^ V + . . M n <   @ @   > & #     X .   <           . * 8 o.o.m ; W 2 { 2.6.5.R.4.4.4.R.,.#.,.V w J s.Z.c.",
"e p j d u t u g A.w =.T.^.^.T.#.+.>.,.{ 3.-.} Y.T.R.-.} W & m < n n & .       .   .     % +         O - z n B B ^ Z ; M 0 =.:.6.5.T.7.R.R.R.4.>.+.<./ ^ a b.Z.p.",
"d e.f u t t u h N.V =.T.^.^.R.#.@.>.:.2.3.3.3.| R.R.T.| [ Z @.o.N ^ < 2 @ @ @ . . . . . B @ . . X X + 2 Z ^ Z Z @   2 ' 2.3.3.6.T.T.4.3.!.R.:.>.>.=.-.@.d Z.Z.r.",
"N.y.d u t 5 u p c.U C.!.R.^.^.>.,.>.+.,.Y.R.T.3.{ R.2.:.[ :.,.,.<.;.[ ' N W W 3 < 1 & & M & & < # # & n - Z Q ) _ } } 3.4.2.T.T.3.| 6.3.T.:.=.+.+.3.D.Y c.Z.Z.r.",
"m.d.j p t t m.u p p C.P.E.^.^.R.>.:.>.>.3.R.Y.| | { 2.:.6.T.5.5.4.3.6.:.} [ N 3 ' 4 4 ) 3 3 N 3 4 # 3 N [ } { | | { | | [ T.4.T.{ 3.4.,.5.,.+.@.;.~.C.Z.Z.Z.Z.w.",
"Z.j.y.j p b.N.t t u r B.U.W.W.R.R.R.,.:.2.T.Y.Y.{ 3.:.Q.:.4.7.7.6.6.T.!.6.6.6.6.3.:.-.[ } } } } [ | [ } | } ] W ' ] [ | R.R.T.4.!.6.6.2.=.+.=.=.F.P.b.m.N.Z.Z.r.",
"Z.Z.a.j.m.m.b.5 t u u p B.U.L.E.R.T.R.6.6.T.R.Y.| R.Y.Y.:.4.Q.3.6.!.7.Q.6.6.5.1.1.5.5.1.5.4.T.4.T.F.T.| } ' | 3.Y.T.Q.!.3.R.7.7.7.T.T.;.*.:.T.L.P.Z.t p d m.Z.r.",
"Z.Z.Z.Z.Z.m.i.m.y.N.b.u p C.(.L.F.:.R.~.6.R.R.R.R.R.R.R.T.R.3.4.!.T.6.7.7.5.1.1.1.5.5.5.5.6.6.6.6.7.4.4.3.T.T.T.4.R.!.6.6.7.!.T.W.R.T.T.L.;.L.P.A.b.t t u d a.q.",
"m.Z.m.Z.m.c.i.b.y.A.m.t u m.C.D.K.K.H.K.J.W.Y.W.R.R.R.Y.R.R.R.T.R.4.6.7.7.7.6.5.Q.6.5.6.6.5.6.7.6.6.4.4.4.6.7.6.4.2.!.!.7.!.R.^.^.^.R.~.I.I.l.Z.m.m.t 5 t p d j ",
"Z.Z.Z.j.w.d t t p m.c.t t p m.A.l.P.S.` G.U.W.R.R.R.R.R.^.R.R.R.T.R.R.R.R.R.R.W.^.R.3.R.R.4.R.Q.T.R.R.R.4.R.R.R.6.T.^.^.W.^.^.^.R.R.R.I.z.P i.j.u x.m.t t u u u ",
"Z.Z.q.q.d j.i.d g i.m.m.m.m.Z.A.Z.t i C h.S.K.~.U.R.W.Y.^.R.^.W.R.R.^.^.^.^.^.^.^.R.R.^.^.R.^.^.R.^.^.^.R.^.R.^.^.^.^.^.R.^.^.R.R.R.P.l.Z.j p.u p m.c.x.t t t t ",
"Z.Z.j d a.Z.Z.a.N.Z.j.b.Z.Z.m.Z.Z.Z.t u i.j.K.L.~.E.Y.Y.Y.Y.Y.R.R.W.R.R.W.Y.R.W.^.^.W.R.R.W.^.^.W.^.^.R.^.R.W.^.^.^.R.R.W.R.W.R.T.P.Z.Z.Z.s p e d N.g N.t t t 5 ",
"Z.Z.d d Z.Z.a.j.N.N.a.p i.Z.Z.Z.Z.Z.t u Z.m.m.Z.l.U.F.G.L.~.U.Y.] W.W.W.R.^.^.^.R.R.^.R.R.R.R.R.W.R.W.R.R.R.R.R.R.W.^.R.~.3.:.` f Z.Z.Z.Z.g p p g m.c.m.x.t t t ",
"Z.Z.d p m.m.b.Z.Z.Z.e.p t Z.Z.Z.Z.Z.m.t a.Z.Z.Z.Z.Z.i.M.A P.I.I.U.L.U.L.) F.) ] | | | ' } K.L.] ~.L.L.L.F.] } ] ) K.' H.H.' b p Z.Z.Z.Z.a.j p p j Z.Z.c.m.b.b.t ",
"j.Z.d j m.Z.Z.Z.Z.a.p p t m.Z.m.Z.Z.Z.e.e.Z.j.t Z.Z.Z.Z.d Z.m.m.Z.M.V.z.I.U.I.U.K.S.` ) ) P.P.1 P.V.z.f.1 A S P.S.g.i.d d j c.m.m.N.Z.j.x.e.p t g Z.Z.c.x.N.N.t ",
"d p p d m.Z.m.Z.Z.g p t t c.Z.Z.Z.Z.Z.a.y.e.s t j.Z.Z.Z.i.j.i.Z.Z.Z.Z.Z.Z.Z.Z.Z.p u d a.b.Z.Z.m.m.Z.Z.w.Z.j.Z.Z.e.t u p j e.c.m.Z.Z.Z.a.j g y.t a.i.Z.Z.m.5 i.t ",
"u u p c.Z.N.Z.A.m.x.t t t b.m.Z.Z.Z.Z.Z.a.y.f p t Z.Z.Z.y.a.e.y.Z.Z.Z.Z.Z.j.y.e u b.u t a.Z.Z.m.t.Z.m.i.Z.Z.y.Z.e.u u u i.e.b.Z.Z.Z.d p y.t a.t y.e t t t 5 5 5 ",
"e b.A.m.N.b.Z.Z.N.m.5 5 u p i.N.N.N.N.N.N.m.e.h d m.Z.N.a.e.y.N.Z.Z.Z.Z.c.j y.5 N.b.t t m.m.m.x.x.m.m.p Z.m.d Z.d d p p t.j x.b.Z.Z.t g j t j.t p j g s p p e t ",
"b.Z.A.k N.N.m.m.m.N.u t t p h N.y.b.Z.Z.A.c.x.y.y.i.b.A.y.j N.N.c.A.Z.Z.j i.t m.N.t t p x.m.a.p x.d i.u Z.p x.j.i.i.y.e.e.a.p m.Z.x.t e.k t x.g e.x.y.y.p s p t ",
"Z.Z.m.d a.j.e.e.e.m.m.t t u u p y.y.d.A.A.A.c.c.x.e.p b.i.m.N.m.c.Z.A.w.i.y.c.x.y.t t e.x.x.u u p m.u e m.g c.x.c.c.c.c.x.c.r m.b.i.t e.g t x.m.c.N.j N.j p p d ",
"Z.i.a.u p p y.u a.t N.t t t t t g a.y.Z.A.A.A.c.m.k g k i.Z.m.m.x.x.x.j a.c.c.t u u u y.t t t c.m.m.t t k x.Z.m.c.c.c.u.i.g r y.k i.t e.k t t m.A.A.c.N.i.g p r ",
"i.y.g p d h f p u t N.t t 5 u p k y.y.i.A.A.A.A.c.y.j t.x.Z.m.m.c.p.r.j x.m.u m.p d j g p u 5 N.N.m.5 t i.N.A.i.A.x.N.x.j d p d y.p g g k p e u m.N.c.N.i.i.r r ",
"5 y.p h e.e.m.j u t d.5 u m.e.y.t d x.c.Z.A.A.A.c.N.c.c.b.N.m.N.c.u.r.u.x.p c.m.g i.x.i.y.u t N.m.5 5 t i.N.A.A.N.A.A.g r p t y.p g x.a.c.p t u u N.m.c.N.x.p.s ",
"t t p k Z.A.N.k p i.t p g N.k e u d j c.A.x.A.c.c.A.N.i.i.N.m.c.c.p.p.x.k j N.p i.x.x.w.y.p d m.b.t t u m.N.A.A.A.A.m.d u t t u p y.a.q.a.r p t t i.N.g c.N.c.c.",
"p p m.m.A.A.b.k i.x.u k p N.u t p p g c.x.c.c.A.c.x.A.u.u.A.x.m.x.x.t.x.s u m.d x.q.p.y.t.i.x.y.g p p g A.m.j N.c.m.A.j t t p u r a.x.w.u.d u p u x.N.j N.N.c.A.",
"N.m.m.N.A.N.i.N.a.x.j g i.A.p r e.j g d w.A.a.Z.c.x.c.N.p.p.c.x.c.p.u.a.s p m.a.a.u.a.y.a.c.d a.i.k k e.N.k N.N.c.p.m.y.p 5 y.t p x.Z.t.u.s d j j b.m.e.c.A.c.c.",
"N.N.N.A.A.A.c.c.j b.p i.x.N.e.g t t u d i.c.c.a.c.c.p.A.u.x.p.c.a.p.r.p.d p c.c.j c.a.t.y.j.i.e.y.b.a.k i.i.N.i.c.p.N.i.e.5 i.t d c.t.p.j j t.g h x.a.x.x.c.x.p.",
"N.m.N.m.N.c.N.m.x.d t.x.c.c.c.g t t t g c.x.m.u.r.c.x.c.u.p.c.c.p.r.w.a.s u r a.j a.a.u.j d a.e.b.b.b.y.r a.N.p.c.i.N.x.h t i.d y.a.c.a.j i.k b.e.m.b.b.x.c.r.q.",
"m.Z.A.m.A.j N.x.j y.x.b.u.N.N.u.d d p e.y.m.x.m.r.c.c.A.p.c.p.c.a.q.j j d j d a.j p.i.e.u e.a.e.a.x.x.i.i.i.g i.c.j N.i.y.t i.i.a.a.u.c.y.x.y.a.a.b.x.x.i.w.j j ",
"x.A.c.x.c.c.N.x.j k s u.x.N.A.c.j a.j u a.c.t.N.w.i.N.N.p.x.p.c.a.j s s j a.a.a.j a.i.e.t u a.a.i.a.c.p.p.c.k g w.y.Z.e.i.p j.a.c.g i.m.k a.e.p y.x.p.u.e.j g r ",
"c.N.a.a.x.m.x.k d.u s j x.A.c.A.a.m.e.u c.c.t.Z.u.i.N.x.t.t.x.x.a.j d d a.a.w.s u.a.a.u t t i.a.w.p.x.c.c.x.k d y.j c.t i.a.k i.a.p a.e.y.t e.d y.x.r.r.j r p u ",
"x.c.x.x.p g a.5 k p d j i.A.c.c.Z.c.w.j i.c.c.c.u.y.i.x.j p.x.x.c.y.j r s w.w.w.a.u a.t t t d p.j x.x.c.m.c.i.j t.a.x.t m.x.d i.y.d i.g e.t.e.e.g j w.q.g r e t ",
"r.q.x.u.p i.k 5 e u r j w.c.c.u.c.c.a.j.r Z.c.a.i.s r u x.u.c.j m.e.e.p d q.w.p.m.t t t t t r c.w.c.x.c.N.c.a.d.j.c.k t m.y.i.b.e.e.a.k x.m.y.p s j q.j s u t 5 "
};
