/* XPM */
static char *result[] = {
/* columns rows colors chars-per-pixel */
"80 80 151 2 ",
"   c #2C283E",
".  c #31253E",
"X  c #382A3F",
"o  c #101F44",
"O  c #1D1F45",
"+  c #251E46",
"@  c #2C1D46",
"#  c #2B1E48",
"$  c #331B46",
"%  c #331E49",
"&  c #3B1E4C",
"*  c #0E2345",
"=  c #0F2D4C",
"-  c #112346",
";  c #1B2146",
":  c #122748",
">  c #1C2549",
",  c #122B4B",
"<  c #1D2C4D",
"1  c #0F334D",
"2  c #12324E",
"3  c #1B344F",
"4  c #143650",
"5  c #1B3451",
"6  c #133B52",
"7  c #193D54",
"8  c #212046",
"9  c #24264B",
"0  c #2D234B",
"q  c #232D4D",
"w  c #2A2C4D",
"e  c #342343",
"r  c #3B2546",
"t  c #352842",
"y  c #3D2B42",
"u  c #32224C",
"i  c #3C224B",
"p  c #322F4C",
"a  c #3F2A48",
"s  c #303346",
"d  c #3A374A",
"f  c #2E2B51",
"g  c #332652",
"h  c #332B54",
"j  c #3B2A52",
"k  c #223351",
"l  c #2A3955",
"z  c #2D3959",
"x  c #323556",
"c  c #383654",
"v  c #363158",
"b  c #393658",
"n  c #323A59",
"m  c #393D5F",
"M  c #422E46",
"N  c #43264C",
"B  c #44294B",
"V  c #4A2D4D",
"C  c #512F4D",
"Z  c #453146",
"A  c #4A3346",
"S  c #44374E",
"D  c #4D334A",
"F  c #4E384A",
"G  c #53354C",
"H  c #5A374E",
"J  c #55394C",
"K  c #5B3C4E",
"L  c #452553",
"P  c #4A2554",
"I  c #4E2C53",
"U  c #442F5A",
"Y  c #4F2B5A",
"T  c #522D54",
"R  c #532D5A",
"E  c #592E5C",
"W  c #403855",
"Q  c #4C3D53",
"!  c #4C335E",
"~  c #4B3B5B",
"^  c #563353",
"/  c #5B3554",
"(  c #553B54",
")  c #5D3A53",
"_  c #563159",
"`  c #5B3459",
"'  c #573958",
"]  c #5E3959",
"[  c #603F4F",
"{  c #603757",
"}  c #633D54",
"|  c #693F56",
" . c #61365B",
".. c #643B59",
"X. c #693E59",
"o. c #572C60",
"O. c #463D62",
"+. c #0F4053",
"@. c #134356",
"#. c #194256",
"$. c #114857",
"%. c #144658",
"&. c #1A4659",
"*. c #154B5B",
"=. c #1B4C5C",
"-. c #16515E",
";. c #1C525F",
":. c #29435A",
">. c #234C5E",
",. c #3D4556",
"<. c #334A5A",
"1. c #24515F",
"2. c #2C525E",
"3. c #36555F",
"4. c #3C545E",
"5. c #1D5561",
"6. c #1E5963",
"7. c #364461",
"8. c #334B62",
"9. c #205562",
"0. c #2C5761",
"q. c #215D65",
"w. c #2C5B64",
"e. c #235F68",
"r. c #345661",
"t. c #3E5661",
"y. c #355963",
"u. c #226066",
"i. c #226068",
"p. c #444C5B",
"a. c #4A4F5D",
"s. c #5D4254",
"d. c #574856",
"f. c #52465A",
"g. c #5C435A",
"h. c #544D5C",
"j. c #5C4C5A",
"k. c #45525E",
"l. c #4C515D",
"z. c #52505C",
"x. c #63404F",
"c. c #654153",
"v. c #6B4355",
"b. c #674957",
"n. c #694857",
"m. c #654259",
"M. c #6B4158",
"N. c #634A58",
"B. c #704556",
"V. c #494763",
"C. c #514E61",
/* pixels */
"- - 4 q.5.- - ;.5.&.=.q.#., 9.q.5.- - , : - 9.2 &.9.q.e.i.i.i.6.&.4 , 2 7 9.e.q.6.i.6.e.6.i.=.=.6.e.*.6.;.u.+., - #.;.u.;.u.=., 5.6 6 @.6 *.= , 1 6 ;.=.1.9.9., ",
", , 5.6.;.- - , e.=.&.7 &.e.9.5.- q.9.=.- o 7 &.5 q.q.q.6.i.i.6.#.4 , 4 &.q.q.6.e.*.i.6.*.7 = 2 %.e.6.*.-.u.q.@., =.*.u.;.u., : 6 =.@.@.%.-.: : 4 -.@.&.7 #.7 2 ",
"#.#.#.9.4 - : =.e., &.: q.u.&.6.- e.e.=., o - - =.6.e.e.u.i.6.i.&.4 2 4 &.9.5.e.6.6.6.1 4 7 , 2 -.-.i.6.-.;.q.q.1.=.;.u.u.u., , ;.&.7 6 6.7 , , *.6 @.=.7 9., - ",
"=.#.&.9.#.- , #.e.=.=., i.u.;.;.- 9.e.;.=.2 - - 2 =.=.q.i.i.i.i.e.7 4 6 6.-.6.e.%.e.6.7 - 4 , 4 6 6 5.6.u.;.;.u.u.u.;.u.u.%.: , -.&.5.;.=., : 6 1 6 =.7 #.=., o ",
"&.q.=.6.4 - *.4 i.=.6.#.u.i.q.5.- &.q.=.&.=.q.- , 6 5.-.6.i.i.i.i.6.6 @.e.6.6.%.=.e.&.#.- - 6 6 = = =.6.i.q.6.6.;.u.q.u.q.#., #.6 , 6.5.: : 4 &.1 6 5.4 &.#.- o ",
"5.q.1.;.&.- ;.=.u.i.q.2 i.q.5.6.i.;.=.&.#.=.e.q.5.&.=.5.5.i.6.6.6.i.6.e.e.6.e.6.=.e.4 : : 4 &.&.- = &.5.e.i.+.5.;.6.u.u.1.: &.#.7 , , 7 : : >.4 6 *.=.*.2 %.3 - ",
"=.e.>.2 6., =.u.5.i.@.2 i.&.=.5.e.#., =.#.4 q.i.6.e.6 6 5.u.6.6.i.e.5.e.@.e.6.6.6.q.#.7 2 5.5.7 - - , =.5.6.@.6 6 6 1.6.* : =., , 7 6 - : = 5 &.#.q.6 &.= ;.;.- ",
"2 e.- - 5.#., u.@.e.&.2 e.;.q.q.q.2 , =.3 2 ;.e.5.6.5.4 5.6.u.6.6.6.e.6.5.6.%.6.;.e.#.>.7 ;.>.5 : - : = 6 1 6 *.2 = &.#.+.6 4 1 4 #.7 - , 4 &.&.%.*.;.= = #.4 * ",
"- q.- - 6.: , e.@.i.6 1 q.q.5.q.i.6 2 , - 5.6.u.;.;.5.6.2 6.$.6.-.*.6.-.6.+.+.6.i.5.2 7 &.5.=.=., : - , ;.2 ;.6.: : , q.6.;.&.@.6 = = : 4 =.5.5.5.q.5.: - 1.&.- ",
"- q.- - 5.: , q.-.i.6 4 q.q.5.q.u.*.2 = - 6.=.u.&.4 #.6.6.6 %.6.*.= : 5 5.6 6 6.i.%.2 &.;.5.9.7 #.4 , =.;.4 - ;.- * #.&., =.@.;.;.6 2 6 7 5.e.9.9.4 : - : =.#., ",
"- e.- - =.- , =.=.5.1 , - = ;.;.e.=.4 4 - 9.2 u.9.&.&.1 u.#.;.2 = 6 : ;.7 4 4 5.q.6 , 9.5.;.5.=.#.=.&.5.=.7 - 9.- , #.=.2 2 ;.@.6 -.7 6.5.q.;.-.7 2 - : , =.7 7 ",
"9.q.- - =.- - , , &., - - = 5.=.u.q.=.;.- =.- 9.=.&.=.@.5.6.;., , 5.4 &.&.4 %.;.=.#.: 4 5.-.-.;.;.=.7 9.=.7 - 9., #.#.#.;.1 @.-.-.-.6.6.6.;.-.&.4 , : , 7 &.=.;.",
"e.- - - =.q.=.%.- - - - - , 5.6 u.i.6.=., q.=.- 4 ;.9.q.6.6.7 , 2 &.;.- &.;.6 5.=.7 , 4 ;.%.-.5.9.9.9.7 #.&.- 9.#.;.- ;.7 2 6 @.5.;.5.6.6.-.-.+.6 , 2 4 ;.;.u.u.",
"5.- , 4 ;.e.q.q.- - - = 2 4 6.6 u.u.6., #.q.q., 6.;.u.u.q.&.%.#.>., ;.- ;.: &.= =.4 4 4 =.%.%.5.e.9.=.5.: &.- ;.;.;.- 9.@., 1 6 ;.-.5.6.6.-.*.+.6 6 =.=.;.;.6.u.",
"2 - #.5.q.i.6.;.- - : #.=.5.5.1 6 ;.6., &.u.q.6 q.@.q.u.;.@.6 #.7 #.7 : : 4 ;.7 &.#.7 6 =.5.#.;.q.q.>.6.: o - 5.#.#.2 9.* 2 6 1 -.5.5.6.6.-.$.=.=.=.&.&.-.q.q.;.",
"o 4 &.6.e.@.=.2 , , 7 =.5.4 : , =., ;.2 ;.u.u.=.u.@.u.u.=.@.#.7 4 7 : , 2 5.6.5.6.q.;.#.%.5.5.=.9.6.e.5., - * 1.#.=.;.;.- #.=., 1 6.-.*.6.*.6.6.=.=.q.9.6.;.q.-.",
"2 9.&.6.6.=.6 4 #.2 4 ;.u.=.: 2 =.- ;.;.;.u.u.=.u.1.u.u.;.%., 1.&.7 : 2 6 6.6.;.5.6.9.;.9.u.u.=.9.e.q.5., : - 4 &.=.1.;.2 #.6 - , 2 ;.@.;.$.u.;.;.;.u.u.6.q.$.+.",
";.5.#.5.%.5.4 6.: =.1.q.;.- , 1.: 2 u.;.;.u.u.$.u.u.u.*.=., - &.;.&.3 4 6 6 @.q.u.6.5.6.#.q.u.&.5.e.e.5.+., =.4 ;.1.;.;.u.2 &.: , , @.6 q.u.u.;.*.u.u.u.q.;.+.6 ",
"9.9.q.7 5.2 = 6., u.u.u.;.: 2 u.u.1.u.1.u.@.1.;.u.u.u.;.;.: - , 2 #.=.#.%.#.6 u.u.-.;.6.9.u.e.=.u.q.e.;.;.4 u.1.u.u.;.=.u.&.u.1.- , @.2 u.u.6.=.1.u.u.u.;.;.2 , ",
"9.9.q.#.=.6.u.i.#.u.u.u.#.;.2 u.u.u.u.: ;.u.u.u.;.u.u.u.6 - - , 7 =.;.q.;.;.= u.u.6.q.u.6.u.u.q.q.-.u.@.;.u.u.u.u.1.u.u.u.6.u.u.- - 6 ;.u.u.u.=.q.u.u.u.;., , : ",
"i.i.i.6.6.6.i.u.;.u.1.u.9.;.q.q.u.;.u.6., u.u.u.q.1.u.u.2 @.$.$.@.6 , * - - 2 6.u.$.u.u.6.u.u.u.u., ;.u.;.u.u.u.;.;.u.1 u.6 u.u.- - =.6.u.u.q.- : q.u.u.u.: - - ",
"i.e.6.6.6.5.u.u.u.u.6.u.u.@.u.u.u.* 1.u.u.1.6.u.u.u.u.u.2 ;.@.;.6 9.;.2 , : 1 6 u.q.q.u.q.u.u.u.u., : u.1.u.u.u.+., u.6.u.1 =.u.* : 1.: u.u.9.- * u.1.u.u.* - - ",
"6.e.5.6.5.i.5.q.u.u.- u.6.@.u.q.u.- - 1.u.1.1 u.;.u.u.u.6.6.9.;.q.q.e.#.2 - 1 @.u.u.;.u.u.u.q.u.u.6.=.1.6 u.u.q.6 , : u.u., : 1.- 1.=.&.1.u.- - - 1.: u.1.- =.- ",
"6.6.5.u.e.i.5.6.6.1.- q.;.6 6.2 1.u.- : 1 u.+.1 , q.u.u.u.9.9., q.q.e.>.7 > < 7 &.q.w.q.u.1.=.q.u.u.q.3 @.u.u.+.4 , 1.u.u.: - - ; q.- =., u.- - : u.;.u.u.;.;., ",
"6.6.5.6.e.e.#.5 q.- - - u.2 2 , 6.u.* - , q.6 7 #.#.q.u.u.>.; q.q.q.e.>.z h m.m.] M.m.k.w.,.,.0.e.2.w.c n z k k 3 ;.u.q.=.- 8 8 { w.; - - =.- , q.u.q.u.i.u.q.- ",
"=.5.6.i.e.#.4 : e.5.- - 5., = 6.u.u.- - - , 2 #.;.q.u.u.q.0 9 9.@.e.h.m...M.M.X.X.X.X.M.g._ ' ] / ) ( ' ! U j u u.u.i.=.: { @ @ | ` + ; - - - 2 e.i.q.u.9.u.u.- ",
"2 =.i.i.i.4 - - e.e.: , : : : e.9.; ; ; - - , :.r.u.w.8.b i u ( m.h.m.M.X.X.X.X.X.X.X.X.M.` _ R T _ `  .X...T N u.e.q.k 9 | ^ $ X.X.+ O - : 3 9.u.q.5.;.- i.u.- ",
"7 = i.6.i.2 - - 6.e., q.e.: =.9.8 + +   ; - < ,.l.C.V.O.! M.M.X.| X...m.M.X.X.X.X.X.E  .X.` _ _ Y R T ] X.X.X.X.h.c.f.X._ ` ` { X.X.@ O - 2 u.u.u.q.5 : - q.q.- ",
"* : 6.5.e.2 - 9.* e.6 6.i.= =.+ 0 9.$ @ + ; w Q m.M.X.X.M.X.X.M.X.X.R | X. .E ` ` ` ` ` ` | R _ _ _ _ _ ..M.M.M.X.M.X.X.` T R _ ..X.^ O , 1.u.u.q.q.- : - q.=.- ",
"- - q.6.e., q.5.- q.6.e.6., : > 9.w.% $ % g j X.X.M.X.X.B.X.X.` T ` ] | ..] { / ) X.X.X.| | _ _ R ` R _ ] M.X.X.X.X.X.X.{ _ Y I _ N / # 9 u.;.u.q.- - - - - - - ",
"- =.q.e.e.: q.- - q.e.5.@.= : 2 u.k 0 % / ..M.X.X.X.o.R E E _ ` ` ` ) ..) ` ` R _ ) | v.c.| _ ` M.` _ _ M.M.X.X.M.X.M.M.M.` _ Y R ` L i 0 ;.#.u.6 - o - - - - - ",
"- e.e.e.5.- u.- - e.6.6 4 6.=.5 q.l ../ ` X.X.X.X.o.o.o.` _ _  .) _ R _ ` ` ` ` / | | v...X.| X.M._ / ..X. . . .X.B.M.v.c.c.M._ R ] _ P i w 1.9.2 - - - , ;.q.- ",
"- e.q.u.- =.;.- - e.= 4 q.e.=.k ' ....{ ..X.R R E o.o._ | _ )  . ._ ` ]  ...X.{ { | | X.....| X.X. ...X.X... . . . .v.M.v.| | ../ X.X.E P i >.< > - 9.u.q.u.q.- ",
"5.i.i.u.=.=.- - q.5.- 6.e.q.; g ] ..] ` ` ` R R `  .B.B.^ ) v.X...]  . . .v.{ { ` ) } } ..M.m.v.| X.| | | | ....X... .| | ) | | M.M.B.X.M.P i 0 ; u.u.u.u.u.1., ",
"q.9.q.q.q.- - , e., , e.9.; 8 e ]  .` ` _ ` R _ ]  .M.^ | v.v... ...X.| v.} | | | | n.c.J [ } K ) } / ^ { | | } | { X.{ { ..{ | } | | M.M.M.P & + u.u.u.q.u.: - ",
"- - q.w.9.- * = 6.6 = 6.; # _ ` _ / _ { / ` ] R ] ..) | | ..| { M.M.v.| } } / } [ | c.) D c.c.G / / / G K H { / _ ^ ..X.| ..` ^ H [ | | M.v.| P & w.q.@.q.6., * ",
"- 9.e.q.- , 2 u.i.6 2 - + v.` ` _ _ v.^ | ` / / X...} { | v.v.v.v.v.v.} { D A [ c.c.c.x.x.c.v.[ | K ) K G G H [ { } X.| ..v...^ T / } | B.X.| | L & >.5 9.2 e.; ",
"- q.q.- , 4 w.q.i.2 < L ` X._ _ ` ^ { / { ` ` |  .` { | M.x.v.v.| | } } A . y G D H K J J H H [ x.x.} } } ^ } / / / H [ | M..... .{ { [ } B.| | | L j f q 9 e.+ ",
"- e.5., 3 u.e.e.2 : Y L X...] _ _ ` } ..| { } ` ] c.v.c.K G s.c.H / } / M X D [ } c.c.c.x.x.[ K K ) K c.} ) } c./ } D B | } ..M.{ X.{ C / } B.} M.| P i % % i.% ",
"- e.q.4 q.u.q.&.q + &  .X.} R _ ) { n.v.M.} H _ { v.c.x.F c.v.v.} / K H G G B V c.c.c.x.K H / { | c.c.c.H K c.v.} / K [ [ } [ | B.X.X.T H } | B.M.M.P X.& % q.+ ",
"e.e.1.q.u.u.6.7 # Y & X.X.X.T T / M.B.B.H C r ^ | c.c.c.v.c.c.c.} / [ } c.K D G H c.H V P C T C ^ } c.G V c.v.c.} } c.| c.} / x.v.M.M.M.) ..{ M.| M.X.X...u q.O ",
"e.=.#.u.u.q.@.k Y Y & X.X.X.` ` ..| M.H C N H | | [ x.c.v.v.c.} / ^ / [ s.K J ) / ^ T T T T T N N G } G G c.} c.| } G c.c.} ) K v.m...v.../ } [ ^ | X.X.M.g u.- ",
"e.#.6 e.q.5.2 R Y & N X.{ | B.{ |  .{ B V C } | A K c.} c.J G K ) T ^ } H H K ^ ` T T R T T T I N e V J c.) H c.K G ) c.v.} ^ c.c.......| T } | ^ C X.L ..h e.* ",
"q.: 5.e.u.4 : R Y & X.X.{ M.| | v. .T B D H [ G . H [ ) c.H K ) ^ G } } ) G K } / V V I T V T I r P ^ v.c.K Z } [ J c.) ^ ^ G | c.M. .M.c.T ..| / C X.& Y g =.* ",
"#.- ;.u.q.1 - L E & X.B.| M.M.) { E T N G [ } y G } H ) } } c.c.} H c.c.c.A J v.} V N r r r V G V V ) v.c.D A | c.G / ^ C ^ c.v.c.v. ...} ^ ..| | M.| & Y v 5 4 ",
"- , -.u.6 1 - - R i X.M.M.v.M._ T T { H } | M X ( } V V G ) } c.{ D ^ ) ) ) [ c.x.} G . e G ) } G A D c.| r ) } ) / / ` ^ x.c.c.c.|  .M...} } } { v.| & o.m q.=.",
"* - 2 q.6 , - : R & M.v.v.B.M.T I R / C [ { A J } ) / P D ) ) } c.G G ^ ) ` ) ^ ^ ) ) ) ) | } } ) } ) ) G G / ) ` ` ^ H c.c.[ v.| ....M.| | H } R ] X.& O.7.u.6.",
"- - 2 6 2 , , , _ & M.M.B.B.M.R T R E H / H H [ c.] / V M ^ ) ) } H ) x.) ) ) / ^ H ` ` ` / ^ ) ^ / / ) H / } } } / ) c.v.[ | ) { ..M.| | ..| ` Y / & N h :.u.6.",
"* , 7 2 : - : 5 i.& V v.B.B.v.R T _ _ H ) _ H ) v.v.^ K M t ) } } ) c.c.x.s.x.c.c.c.s.) | K ) } H } ) } } H [ ) c.c.c.c.c.c.m. .] | | v.v.M..._ ! / V B < 9.u.-.",
", #.3 , - - : 4 e.i _ v.v.B.v.R T _ ] ..[ c./ H } { { K G a _ ) c.m.c.c.K K x.c.c.c.x.x.v.c.c.v.c.c.c.) ( ( ) c.c.c.x.| v.| | } v.c.| } v.M.) _ _ ^ ^ T 2 u.u.$.",
"e.&.2 : o - : , 6.x y.M.v.B.v.` _ _ R ` | v.x.[ H } { / G ) ` ` } c.c.K K F K c.c.c.x.x.c.c.c.n.n.c.c.x.Z G c.c.v.n.v.c.) ) v.c.c.K { c.v.{ _ I T } l.W 6.u.u.$.",
"q.=.7 : - - q.: , , y.k.b.B.v.v.` / _ _ { v.v.K H H } ` ....] ..c...{ ) H J Z H x.J J K H [ x.x.K K x.K x.c.c.v.c.c.c.x.J | | v.) } .. .` _ I _ _ j.y.u.u.u.u.@.",
"u.1.#.2 2 6.e.o * : = r.z.n.n.M.v.B./ / ) | c.x.G | } } } ....X.....c.M.........) ( ) G H H J J J K J K c.c.} x.K D J K v.| c.| c... .) _ I _ ^ j.k.w.6.q.u.u.$.",
"u.u.6.1.q.9.q.o - - , , y.z.N.c.v.B.v...} v.v.x.K | x.c.} | M.....M.X.m..... .]  . . . ...c.m.} v.K c.K K J K K c.c.c.M.| v.v...M.| c./ ~ ) v.j.k.e.- : 2 q.u.$.",
"u.q.u.u.u.q.=.q.=.q.9.: , y.l.j.) ( M.N. .n.B.v.v.c.B.c.} B.c.} M.| ..X.X. .] ]  . . . ... ..... .c.M.v.| v.c.v.v.v.M.....X.M.M.B.v.c.c.j.( j.k.e.q.- - : 2 ;.+.",
"u.u.u.q.6.q.=.9.=.q.q.- , e.y.l.a.h.f.h.m.n.x.n.v.B.B.x.v.c.v.v.c.v...X.M.M. . .m.m. ... .............| { ....M.....M.M.X.M.v.v.B.n.v.N.l.l.3.u.9.q.o - * , 1 6 ",
"u.u.;.u.@.2 - - : 9.5.- - , e.e.3.k.p.S j.l.n.c.B.B.v.v.B.v.B.n.v.c.v.v.B.v.v.v.B.c.v.v.v...M.M...v.v.v.c.v.v.v...M.B.B.B.n.M.B.B.v.v.z.4.l =.;.: q.q.- - : : : ",
"u.u.@.+.2 1.=., 4 9.q.q.q.u.u.i.u.- > p ,.p.h.N.z.n.B.x.v.B.v.B.v.B.B.B.B.B.v.B.v.B.B.B.B.v.B.B.B.B.B.B.B.B.B.B.B.B.B.B.B.B.B.n.c.v.l.w.u.4 =.* , 9.6.6.- - - - ",
"u.u.4 2 ;.u.u.;.e.e.;.9.u.u.q.u.u.u.* - ;.1.h.j.j.x.s.x.x.x.x.v.v.n.v.n.n.v.B.B.v.B.n.v.v.v.B.B.v.B.n.B.B.M.v.B.B.v.B.v.n.v.v.v.c.k.u.u.u.6 , : = e.4 e.- - o - ",
"u.u.2 2 u.u.q.;.e.q.1., &.u.u.u.u.u.- , q.q.q.u.3.z.s.d.j.N.j.K F n.n.n.n.v.v.B.v.B.B.v.v.B.n.v.n.v.B.n.v.v.v.v.v.n.v.v.b.} } S k u.u.u.u.1 , , 4 e.5.q.6.- - - ",
"u.u.2 , q.q.1.u.u.u.#., - u.u.u.u.u.q.- 1.u.u.u.u.u.;.w.s 4.l.z.z.j.z.j.Z s.Z A K K K A H h.j.F j.j.j.j.J J H F Z h.F F f.D w : e.u.u.u.;.6 , , 4 u.u.6.q.q.q.o ",
"1.u.4 6 q.u.u.u.u.;., , - u.u.u.u.u.u.#.+.u.1.- u.u.1.u., u.u.u.u.w.t.4.l.z.l.z.h.p.S Z A k.4.  k.t.4.p.  s d k.p.<.;.2 2 6 6.q.u.u.u.;.5.#., - 4 i.u.6.5.e.q.o ",
"2 , , 2 q.u.q.u.u.4 , - - 6.u.u.u.u.u.;.=.7 , : 1.u.u.u.&.u.1.u.u.u.u.u.u.u.u.u., - 4 1.;.u.u.q.6.u.q.6 u.q.u.q.#.- , , 2 &.;.u.u.u.u.=.7 6 &.- ;.=.u.u.q.o =.o ",
"* - , q.u.e.u.e.q.5.- - - 5.q.u.u.u.u.u.1.&.6 , , u.u.u.&.=.#.&.u.u.u.u.u.;.&.- - 6., - ;.u.u.u.%.u.u.=.q.u.=.q.#., * , ;.#.u.u.u.u.2 , #.- =.- =.* - * o - o - ",
"- 9.i.q.e.q.q.u.e.e.o o - 2 =.e.e.e.e.e.q.5.&.5 4 q.u.e.;.&.&.q.i.u.u.u.6.6 &.- e.5.- - q.q.q.5.5.q.q., u.9.4 u.2 2 , , #.7 5.9.u.u.- 2 7 - ;.- 2 4 2 4 2 , - o ",
"9.u.q.#.e.e.9.q.q.e.- - - : 5 e.&.9.u.q.e.q.9.&.&.=.9.e.&.5 q.i.6.u.u.u.6 =.- 9.e.- - , 5.q.;., 5.4 =., u., 5.1.=.*.&.#.#.-., q.u.5.- #.7 - 5.2 #.5.%.&.= 2 , o ",
"u.u.q.4 =.w.#.#.#.e.q.- - - , , =.#.9.e.i.i.i.6.5.#., q.&.e.i.u.6.q.i.+.=.&.6.6.&.- - #.5.9.: , : 6.: - q.4 6.5.6.6.6.6.5.6.= 6.9.=.- #.4 - 9.q.6.e.6 q.4 , 2 2 ",
"u.=.;.- , , &.: ;.o e.- - - - - , 5.&.q.i.i.i.6.5.7 4 7 =.u.q.q.6.5.5.6 ;.6.6.- - : : &.- - - 5.6.i.- - 7 5.i.q.6.5.i.*.=.4 = =.7 =.- #.#.- - q.e.i.6.e.&.4 , = ",
"=.&.5 , 2 7 2 : : - e.- - - , , #.&.&.;.6.i.i.6.6.#.6 *.6.q.q.e.6.-.$.6 5.9., 9., 4 6 1 , : o e.e.q.o - =.q.i.=.q.5.i.5.4 2 : , &., 6 6 7 : * , q.e.q.e.=.=.= = ",
"o &., 4 #.#.q.5 , - >.o : 9.#.&.: 2 5.6.i.i.i.i.6.e.e.5.5.e.q.e.6.=.$.*.5., q.q.4 =.6.;.%.- - e.q.o o - =.e.i.i.i.e.i.4 2 , , =., 2 ;.;.6., , - - e.q.6.e.;.;.4 ",
"o - , 7 q.i.u.7 , =.o : 4 e.7 - - , 7 6.i.6.6.i.6.i.i.*.=.e.6.6.6.-.-.;.7 6 e., =.5.5.@.&., 4 q.9.- - : e.i.i.i.i.e.i.2 : * : - = &.;.6 ;.= : - o ;.e.4 e.e.6.6.",
", , q.q.i.i.q.7 =.5.: 7 2 e.- * , , 6 6.5.6.6.i.6.5.i.*.*.e.6.q.5.5.$.5.2 = e.2 5.+.=.&.&.=.;.&.4 , , 4 e.q.6 i.e.q.q.4 - - , - , ;.5.@.*.2 , : : 5.q.6 e.e.6.6.",
"e.q.q.e.e.e.=.e.;.5.4 4 =.6.2 , #.2 4 2 @.i.5.u.6.-.6.6.5.-.6.5.5.-.$.-.1 = q.;.;.-.;.=.1.9.2 =.=.7 5 &.e.7 e.e.6.=.e.&.: - =.- = 5.q.$.*.2 2 4 7 9.q.&.6.e.6.6.",
"e.e.e.i.i.i.6.6.6 5.2 =.6.e.7 6 - - , 2 =.6.6.-.6.6.-.i.*.5.-.6.5.5.$.5.1 = 6.6.6 ;.;.%.&.9.=.#.&.9.5.7 -.=.e.=.6.-.e.-.7 - =.- 2 6.$.;.6 4 #.4 4 5.;.5.;.e.6.-.",
"e.q.e.u.e.6.e.q.5.2 #.5.6.6.6.4 , - * 4 5.6.u.=.*.6.5.i.-.*.6.6.5.+.+.;.2 , = ;.6 -.;.&.7 2 ;.&.5.9.5.&.4 =.e.=.6.*.e.5.4 - =.2 &.6.6.;.7 *.7 5.7 q.9.9.-.5.$.+.",
"q.i.i.q.i.6 e.5.4 #.5.6.*.e.e.=.2 , , 7 &.q.5.q.$.6.6.6.-.5.5.6.;.+.6 6 1 2 6 =.6 -.*.@.: #.;.&.5.5.5.=.=.&.4 =.6.6 e.=.#.- =.=.;.=.*.6.*.5.&.;.5.5.5.6.-.$.6 4 ",
"5.6.6.5.6.6.q.5.6 #.1 *.5.e.6.6.@.;.7 , =.6.%.i.@.;.q.e.*.5.*.6.;.6 1 2 6 =.;.;.6 ;.;.#.- - ;.;.=.;.6.5.*.6.7 6 #.&.u.#.;., ;.1.5.4 =.6.#.;.#., #.5.-.-.#.4 1 4 ",
"6.i.5.-.5.6.9.7 =., = 6 5.e.6.i.5.9.#., 6.6.%.u.*.=.e.5.*.*.6.6.;.6 2 1 =.;.@.6 *.;.;.- * , =.=.@.*.5.6.6.6.7 4 &.6 9.- =.;.7 ;.;., ;.#.&.- &., &.5.@.$.6 1 , : ",
"6.6.6.5., 4 =.- 7 : 4 6 -.e.6.6.u.;.6 6 =.6.6.6.*.&.;.5.6 -.5.-.6.&.4 , 1 @.+.@.;., 1.- - - 1 ;.@.5.5.6.6.q.&.6 #.;.;.- q.9.2 &.&., =.3 #.&.&.#.1 6 $.+.1 , - - ",
"$.+.5.&., ;.7 o - : 2 6 +.e.6.*.6.q.;.;.= i.6.=.=.1 : : 5.*.6.6 q.#.#.= 6 +.@.-.6.- - - - - , 6.6 6.5.6.6.6.6.=.;.6.#.- 9.&.;.9.#.=.;.7 5.6.&.= 1 6 +.6 1 : - o "
};
