/* XPM */
static char *result[] = {
/* columns rows colors chars-per-pixel */
"80 80 172 2 ",
"   c #080D20",
".  c #070F2C",
"X  c #07102C",
"o  c #0A122E",
"O  c #10142F",
"+  c #0E1430",
"@  c #141633",
"#  c #1A1736",
"$  c #161834",
"%  c #1A1936",
"&  c #1E1B39",
"*  c #291C2E",
"=  c #221E37",
"-  c #2D1E31",
";  c #231D3A",
":  c #281F3C",
">  c #26203A",
",  c #2A213C",
"<  c #2C283E",
"1  c #322133",
"2  c #3B2536",
"3  c #31253F",
"4  c #37293F",
"5  c #101F44",
"6  c #1D1F45",
"7  c #251E46",
"8  c #2C1D46",
"9  c #2B1E48",
"0  c #331B46",
"q  c #331E49",
"w  c #3B1E4C",
"e  c #0E2345",
"r  c #0F2D4C",
"t  c #112346",
"y  c #1B2146",
"u  c #122748",
"i  c #1C2549",
"p  c #122B4B",
"a  c #1D2C4D",
"s  c #0F334D",
"d  c #12324E",
"f  c #1B344F",
"g  c #143650",
"h  c #1B3451",
"j  c #133B52",
"k  c #193D54",
"l  c #212046",
"z  c #2D2240",
"x  c #24264B",
"c  c #2D234B",
"v  c #232D4D",
"b  c #2A2C4D",
"n  c #342641",
"m  c #3B2744",
"M  c #372842",
"N  c #3B2944",
"B  c #32224C",
"V  c #3B214C",
"C  c #303346",
"Z  c #3A374A",
"A  c #2E2B51",
"S  c #332652",
"D  c #392751",
"F  c #332B54",
"G  c #3B2A52",
"H  c #223351",
"J  c #2A3955",
"K  c #2D3959",
"L  c #323556",
"P  c #383654",
"I  c #363158",
"U  c #393658",
"Y  c #323A59",
"T  c #393D5F",
"R  c #422D46",
"E  c #41244D",
"W  c #462D49",
"Q  c #4B2D4D",
"!  c #512F4E",
"~  c #453346",
"^  c #4A3347",
"/  c #44344B",
"(  c #4C334B",
")  c #4E384A",
"_  c #54364D",
"`  c #5B374F",
"'  c #54394B",
"]  c #5B3C4E",
"[  c #452553",
"{  c #4A2554",
"}  c #4E2C55",
"|  c #442F5A",
" . c #4F2B5A",
".. c #522E55",
"X. c #532D5A",
"o. c #592E5C",
"O. c #423751",
"+. c #4C3D53",
"@. c #4C335E",
"#. c #4B3B5B",
"$. c #553354",
"%. c #5B3555",
"&. c #553B54",
"*. c #5D3A53",
"=. c #553159",
"-. c #5B3459",
";. c #573958",
":. c #5E3959",
">. c #603757",
",. c #643C55",
"<. c #693E57",
"1. c #61365B",
"2. c #643B59",
"3. c #693E59",
"4. c #572C60",
"5. c #463D62",
"6. c #503160",
"7. c #0F4053",
"8. c #134356",
"9. c #194256",
"0. c #114857",
"q. c #144658",
"w. c #1A4659",
"e. c #154B5B",
"r. c #1B4C5C",
"t. c #16515E",
"y. c #1C515F",
"u. c #29435A",
"i. c #234C5E",
"p. c #3D4556",
"a. c #334A5A",
"s. c #3A4A5B",
"d. c #24515F",
"f. c #2C525E",
"g. c #36555F",
"h. c #3C545E",
"j. c #1D5561",
"k. c #1E5963",
"l. c #364461",
"z. c #334B62",
"x. c #205562",
"c. c #2C5761",
"v. c #215D65",
"b. c #2C5B64",
"n. c #235F68",
"m. c #345661",
"M. c #3E5661",
"N. c #355963",
"B. c #226066",
"V. c #226068",
"C. c #444C5B",
"Z. c #4A4F5D",
"A. c #5D4254",
"S. c #574856",
"D. c #52465A",
"F. c #5C435A",
"G. c #544D5C",
"H. c #5C4C5A",
"J. c #45525E",
"K. c #4C515D",
"L. c #52505C",
"P. c #63404F",
"I. c #654253",
"U. c #6C4356",
"Y. c #674957",
"T. c #694857",
"R. c #644259",
"E. c #6B4158",
"W. c #634A58",
"Q. c #704556",
"!. c #494763",
"~. c #514E61",
/* pixels */
"t t g v.j.t t y.j.w.r.v.9.p x.v.x.t t p t t x.p r.j.v.n.V.V.V.k.9.g p d w.x.n.n.k.n.k.n.k.n.j.w.k.v.j.k.B.B.8.p p y.B.y.e.d.t.p k.j 8.0.j e.u p s q.r.r.d.v.d.d ",
"p p j.k.y.t t p n.r.w.k w.n.x.j.t v.x.r.t t k w.h v.n.v.V.V.V.k.w.g u g k x.v.k.n.e.V.k.w.k p s e.n.B.k.y.B.v.j d B.y.t.y.B.p p g e.j 8.q.w.u r g e.8.r.j 9.9.p ",
"9.9.9.x.g t u r.n.p w.u B.V.9.k.t V.n.r.p t t u r.k.v.n.V.V.V.n.w.h g g w.k.k.n.k.n.k.s g 9.r d t.t.B.k.y.y.k.B.y.B.y.t.B.B.p u y.w.q.j k.w.u r e.j 8.r.j y.p t ",
"r.9.w.x.9.t p 9.n.r.r.p B.B.y.y.t x.n.y.r.p t t d r.r.n.V.V.k.V.n.j g j j.y.k.v.0.V.j.k u g u r 8.j y.k.B.k.r.v.v.v.d d.k.w.p p r.w.j.r.y.u t j d 8.e.h u.r.p t ",
"w.v.r.k.g t e.g V.r.k.w.V.n.v.j.u w.v.r.w.r.v.t p j j.e.V.V.V.n.n.n.q.q.n.k.k.q.r.n.w.k t u h j p p r.k.B.B.8.e.y.v.j B.B.9.p 9.h r k.k.u 5 g w.s j y.k w.j t t ",
"j.v.d.y.w.t y.r.B.V.B.p V.B.j.k.V.r.r.w.9.r.n.v.j.q.e.j.j.V.k.k.k.k.j.V.k.n.k.k.r.n.j u u h w.w.t p w.k.v.B.8.0.j.v.k.B.v.t 9.9.k r u k u u y.d j e.t.e.d 9.d t ",
"r.n.i.d k.p r.B.j.n.8.d n.r.w.k.n.9.p r.9.d n.B.v.n.j j j.k.V.k.k.n.k.k.q.k.n.k.k.v.w.k g j.j.k t t p r.y.v.8.8.j s d.v.t e r.p u w.g e u p h w.9.k.8.w.d y.y.t ",
"d n.t t j.9.p B.7.n.w.d n.y.k.v.B.d p r.d f y.n.y.v.k.d y.k.V.k.n.k.k.k.k.k.q.k.y.n.9.r.k r.y.h p t e p j d j 0.d d w.8.8.j g d d q.k u h h w.w.q.w.r.r u 0.h e ",
"t v.t t k.u p v.0.V.j s v.n.j.n.B.j s r t j.k.B.y.r.j.k.d k.0.k.t.w.k.y.k.7.8.k.V.k.p h r.y.w.w.p t u p j.p y.k.r t p v.k.j.w.0.j r p r g w.j.j.j.v.x.t t y.9.u ",
"t v.t t j.u p v.j.v.g g k.v.r.n.B.r.d p t k.r.V.w.g 9.k.v.g 0.k.e.r u g j.j j j.V.q.p e.t.j.x.w.9.g p r.j.g t r.t t w.w.p w.8.y.t.j g h k k.v.v.x.d p t t y.9.p ",
"t n.t t r.t r r.r.j.d p p p j.y.B.r.j g t x.d v.v.9.w.d B.8.y.g r j u y.j g g j.v.g p v.j.j.j.w.9.r.w.j.r.k t k.t p 9.r.g s r.0.q.y.k j.j.x.j.r.k d u p p r.h k ",
"x.v.t t r.t u p r 9.r t e p j.e.B.v.t.y.t r.t x.r.r.r.8.j.k.y.p u x.g w.w.j w.y.r.9.p g j.e.j.y.y.r.k y.j.h t x.p 9.k 9.y.s j y.e.e.k.v.k.t.t.e.g p u p h r.y.y.",
"n.t t t r.v.r.9.p t t t t p k.j B.V.k.w.p v.r.t d j.x.v.k.k.8.p g w.y.t w.y.j j.r.9.p g j.0.t.j.x.x.y.k 9.w.5 k.w.y.t r.g d j 0.j.t.k.k.k.j.e.8.j p d g y.d.B.v.",
"j.t p g y.V.v.v.e t t p p j k.j B.B.k.r 9.v.v.p x.y.B.v.k.w.9.9.y.p y.t y.u r.p r.g g s r.0.e.j.v.v.i.j.p w.t d.y.r.t v.9.p s j y.t.j.k.k.t.q.q.j j r.r.t.y.k.B.",
"d t 9.j.B.B.x.r.t t p 9.r.j.j.d g y.d.p w.B.n.j v.8.B.v.y.9.j 9.k 9.k u p g j.j w.w.k h y.j.j y.v.v.r.k.u t 5 j.w.9.p v.e d j s t.j.j.k.k.e.0.e.r.r.9.w.t.k.v.y.",
"5 g w.k.v.8.y.d d t 9.w.k.p u r r.p k.d y.v.B.r.v.0.B.B.r.9.9.j h k t p p j.k.j.v.k.y.9.w.j.j.r.x.v.v.k.u t t y.9.r.y.y.t 9.r.p s k.t.e.k.e.k.k.e.y.v.x.k.k.v.t.",
"g x.9.k.n.r.j s 9.d d y.B.r.e g y.t y.y.y.B.B.t.B.y.B.B.r.w.p d.w.g p d g k.k.k.y.k.v.y.d.v.v.r.x.n.n.j.p t t g w.r.d.y.g 9.j u p d t.8.k.8.B.t.t.d.B.B.d.v.0.7.",
"r.j.9.j.q.y.g k.u r.d.B.y.t u d.t d B.d.y.B.B.8.B.B.B.t.t.p u w.y.w.f j g j 8.B.B.k.y.k.w.n.v.r.y.n.n.x.7.p r.g y.d.y.y.B.p w.u p p 8.g v.B.B.y.t.B.B.B.B.y.7.j ",
"x.x.x.k j.d r v.p B.B.B.y.u d B.B.d.B.y.B.0.d.y.B.B.k.y.y.t t p d 9.w.w.e.8.g B.B.y.y.k.k.B.B.r.v.v.v.r.y.g B.d.B.B.y.r.B.w.B.d.t p j s B.B.v.r.d.B.B.B.y.t.d s ",
"v.j.v.w.r.k.V.B.9.B.B.B.9.y.f B.B.B.B.u y.B.B.B.y.B.B.B.j t t p k r.d.y.v.y.p B.B.k.v.v.k.B.B.v.B.t.n.0.y.B.B.B.B.d.B.B.B.k.B.B.t t j B.B.B.B.r.k.B.B.B.y.p p u ",
"V.V.V.k.k.k.B.B.r.B.v.B.k.y.v.B.B.r.B.B.u B.B.B.d.B.B.B.j 7.w.0.9.j u e e t d k.B.0.B.v.x.B.B.B.B.p v.x.x.v.B.B.y.y.B.g B.7.B.B.t t w.y.B.B.n.t e B.B.B.B.t t t ",
"V.n.k.k.k.j.B.B.B.B.d.B.B.8.B.B.B.e d.B.B.d.k.B.B.B.B.B.s y.j y.j k.y.d u u s 7.B.v.v.B.B.B.B.B.B.p e B.y.B.B.B.7.s d.B.B.s r.B.t p d.u B.B.d.t t B.y.B.d.t t t ",
"n.k.j.k.j.V.j.v.B.B.t B.x.8.B.k.B.e e d.B.d.j y.d.B.B.B.y.v.v.y.v.v.B.9.d u s 7.v.B.y.B.B.B.v.B.B.x.r.x.j B.B.v.j u e B.B.p u d.t d.r.r.x.B.t t t B.5 B.B.t r.u ",
"k.k.j.V.n.V.j.k.v.y.t v.y.j k.d d.B.e u s B.7.j d v.B.B.B.y.x.p n.v.V.i.f a a 9.w.v.b.B.B.x.w.B.B.B.B.f 9.B.B.7.j p d.B.B.u t t y v.t r.t B.t t u B.d.B.B.y.d.e ",
"k.j.k.k.n.n.w.h v.t 5 t v.d d p B.B.t t p v.g 9.9.9.k.B.B.i.y v.k.n.n.y.K F 2.R.:.R.E.J.c.p.p.c.v.c.x.P Y K J H f y.B.v.r.5 6 l ,.j.y t t r.t p x.n.n.B.V.V.v.t ",
"r.j.k.V.n.9.p p n.v.t t x.p p v.B.B.t t t p d 9.y.B.B.B.x.c x x.8.n.G.R.3.3.E.3.3.3.E.E.F.;.;.-.-.A.*.;.@.| D B B.B.V.r.u ,.7 0 3.$.9 y t t t p V.n.v.B.x.B.B.t ",
"d r.V.V.V.g t t n.n.u p u u t n.x.y y y t t p u.m.n.n.z.U D B &.R.G.R.3.E.3.E.3.3.3.3.3.3.-.=.=.....=.2.3.2...E B.n.n.H x 3.$.0 3.3.8 6 t p p n.B.B.x.r.t V.B.t ",
"k r V.k.V.d t t k.n.p v.n.p w.v.l 8 7 > 6 t a p.G.~.!.5.@.E.E.3.<.<.2.R.3.2.3.3.3.3.o.1.3.=.-.X.X.X...-.3.3.3.3.G.,.D.<.-.-.-.>.3.3.8 6 t g B.B.B.v.g p t v.v.t ",
"t u v.k.v.d u j.t n.j n.k.r r.l c x.0 0 l i b +.R.E.3.3.3.E.E.E.E.3.X.<.3.1.o.1.-.o.-.-.1.,.=.X.X.X.=.%.2.E.E.E.3.3.3.3.-.X.} =.3.3.$.6 p d.B.B.B.x.p t t k.r.t ",
"t t k.v.v.p x.k.e v.k.n.k.p u i n.x.q 0 q c G 3.E.E.3.3.E.3.3.>...-.-.E.3.-.>.%.,.<.3.<.<.<.X.=.=.-.=.X.1.3.E.3.3.E.3.3.,.X. .} ..[ %.9 x B.t.B.v.t t t t t t t ",
"t r.n.n.v.u n.5 t n.n.j.8.r p p n.v c q -.2.E.3.3.3.4.o.-.o.=.=.-.-.-.,.>.=.=.=.%.*.<.U.I.I.-.-.3.-.X.=.3.E.3.2.E.E.E.E.E.-.=. .X.%.[ w c d.w.B.d t t 5 t t t t ",
"t k.n.n.k.t n.t t v.k.j g k.r.h n.J ,.%.-.E.3.3.2.o.4.4.o.=.-.-.%.%.=.%.-.=.-.%.-.<.<.3.3.3.<.E.I.-.-.3.3.2.1.2.3.E.Q.I.I.,.E.=.X.:.o.W D b d.d.d p t t p x.B.t ",
"t n.B.V.t w.d.t t n.p s v.n.r.H ;.2.3.-.3.2.X.X.o.4.4.-.,.=.-.2.2.=.=.1.3.<.<.<.2.*.( ,._ *.W R <.<.<.2.3.2.1.1.1.1.E.U.I.<.<.3.%.3.3.=.{ D i.v t t x.B.v.B.B.t ",
"v.V.V.B.r.r.t t k.k.u k.n.v.i B :.3.=.1.%.-.X.X.=.2.E.U.%.*.U.3.:.Q =.W ,.,.,._ n ~ , 3._ ( M ; <.<.E.<.U.,.2.2.2.2.,.E.3.,.>.3.Q.U.U.3.3.{ V c l n.B.B.B.B.d.t ",
"x.x.B.x.v.t t p n.p u n.x.i l B -.2.%.=.=.=.=.%.-.3.U.%.,.,._ ,.,._ n = ,.*., o o & % ,.R n N & <.W % ; ; > ; ; n N *.,.,.,.>.,.<.,.<.3.U.3.{ w c B.B.B.v.v.u t ",
"t t v.v.x.t t d V.j r k.6 9 X.2.=.-.=.2.-.-.-.X.-.2.,.,.] 3 , 3.,.*.^ o *.` % # % ; ; %.W ; : , ` W ; ; ; ; ; ; : : *.*.3 m $.*.` *.,.Q.Q.U.2.{ V d.v.8.v.k.r t ",
"t x.n.v.t p d v.v.j d t 7 <.%.=.=.$.U.$.2.=.%.1.3.<.3.*.> o ; <.,.( 3 o W ; ; ; ; > % & N & z & % ; ; ( N : : # ; ; *.,.W , R =...%.,.<.<.Q.<.<.E V i.h x.d n.y ",
"t n.x.t p h v.B.B.d a [ -.3.=.=.-.$.,.-.2.-.-.,.1.<.<.*.W # % ,.,.# X X = @ & % ; + + . + X X X X X o 2 *.( , X # ; ; Q ,.( ` >.1.%.,.` ,.U.3.<.3.{ G A v x V.7 ",
"t n.v.p d B.n.v.d u  .[ 3.2.-.%.$.%.,.,.<.*._ ..m 3.<.,.&.= > W m X o , + + X o # + X X X . X X X X X 2 m X . X @ o o n 3.( _ W >.<.>.! ` ,.Q.,.E.3.{ V B 0 V.8 ",
"t n.v.g v.B.n.w.v 7 w >.3.,.=.=.%.:.U.U.U.` n 3 = <.<.%.$.: ; X X X X N , n @ ; n ; : & & % & % % $ % 2 N % @ @ o o o , <.( ^ , ( 3.3...` ,.<.Q.U.3.{ 3.w q v.8 ",
"n.v.i.B.B.B.k.k 9  .w 3.3.3.X.=.=.U.U.Q.%.` n n : ,.E.n N ; % X X X + N X ; ; ; W N N z : , z : : ; ; ; & ; ; # # o X ; <., m , N -.U.U.-.,.*.Q.,.E.3.2.2.B v.6 ",
"n.r.9.n.B.v.w.v  . .w 3.3.3.=.%.,.<.U.%.! ,.%._ , *.,.: : : X X X X X m X ; @ & R ; z M , ; : N ; & ; % % & % @ X o X X ,.X X ; M R 2.U.<.%.,.*.*.E.3.3.E.S v.t ",
"v.9.j n.B.j.d  .X.w E E.>.<.U.-.3.1.1.m ; ` ` ` ( $ N z ; . X X @ X X X X X . X m % @ R 3 n @ W n z + X # @ % % & @ & # W N $ % n $.2.2.,...,.<.%.Q 3.E 3.S n.e ",
"v.p j.n.B.d p X.X.w 3.E.>.U.<.<.U.1.Q ; % ,.,.Q n ; X ; @ . X % @ o % @ @ % @ % @ & ; 1 & ; = ~ > ; @ X & ; ; ; : & 7 : : ] R R / E.1.3.U...>.<.%.! E.w  .S r.p ",
"9.u y.B.k.s t [  .w 3.E.<.U.U.-.-.-.{ @ # ,.,.' + . . & @ % @ & ; & ; = % ; = ; & ; @ 1 $ & $ W & % + X ; $ ; % ; % ; , ; ,.> 3 , I.1.3.,.` ,.<.<.U.3.w @.I h d ",
"t p t.B.8.s t t o.w 3.E.E.U.U.=....._ o X <.( ` + . + : N : ; ; % = > % @ ; @ ; $ X X . + , @ o X X X + , o + X X X + ; % *.% X n 3.2.3.>.,.,.,.>.<.3.w 6.T n.w.",
"5 u d k.j p t t o.w 3.<.U.Q.U.X. .=.,.@ % <.m : > @ + z W - n + X ; , o + X X X X X X + . m > > X . X X * : , X X X X X o N o o n 2.2.<.I.<.%.,.$.-.<.w @.l.B.k.",
"5 t g g d p p p =.w U.U.Q.Q.I.X.} =.-.: ; ] N o @ & z > - X X X @ X * , , X X @ X X X X X * X o X X X X * X X X X X X X X o % : 2.1.U.3.3.<.R.-.} -.w E I u.B.y.",
"5 p j d u t u g V.w ..U.U.Q.I.X.$.=.-.` *.; ^ , R = @ % * X @ + O & - o X o o X X X o X o * X X X X X X * X X X X o X X O $.*.2.-.U.<.U.U.U.,.;. .%.} W a v.B.t.",
"d 9.f p t t u h n.V *.I.U.Q.Q...} =.-.,.,.,.P.] R < , >   X + + o + * + o o o o X o X o $   X o X X o X X X X o X X X o N *.2.2.U.,.,.I.U.E.:.=...=.*.! d B.v.0.",
"B.9.d p 5 t u p v.L N.R.U.Q.Q.=.-.X.X.%.U.,.P.] ` <.,.: $ @ ; @ @ > O $ + o o o o o o X o X X X X o X X . O 3 % ^ ] > > ,.*.I.U.I.] ,.,.3.*.=.} ..,.Z.U k.B.v.0.",
"B.r.f p t t v.u u p N.J.W.Q.Q.U.%.-.=.=.,.U.U.] ] ' ,.-.2.2.2.2.R.N > N > > > @ + o o o o o o o o o o + 3 ' ] ] ] ] ] ] ' U.<.I.$.,.2.*.>.%.} X.=.H.N.v.B.B.B.0.",
"B.d.9.g d x.n.5 e u r m.G.T.T.E.T.Q.%.;.,.,.I.U.' ,.,.,.2.>.2.E.R.2.I.E.2.2.2.E @ @ $ @ % $ ; 4 > > > > ' ' ) R ^ ) ' ] I.<.I.3.E.2.2.-.;.} $.$.H.J.x.v.B.B.B.0.",
"B.B.x.y.v.v.v.5 t u u p m.L.H.T.U.U.U.2.,.I.U.P.] U.P.P.2.I.E.,.>.U.3.3.2.2.:.:.:.2.2.:.2.2.R.,.I.A.P.,.' ) ] ,.P.I.R.E.,.U.3.3.I.<.I.*.#.%.U.W.J.n.t t d B.B.0.",
"B.B.B.B.v.v.r.v.r.v.v.t p N.G.H.*.&.U.W.2.R.U.I.Q.P.U.U.I.U.,.,.3.E.2.3.3.2.:.4.4.1.:.:.2.1.2.2.,.2.I.U.,.I.U.I.<.<.E.2.2.3.E.I.T.U.,.T.G.&.G.J.n.v.t t p d y.8.",
"B.B.B.v.v.k.r.x.r.n.x.t p v.N.Z.G.G.D.G.F.U.P.T.U.Q.U.P.U.U.U.U.U.I.2.3.E.3.R.2.E.2.2.2.2.2.2.2.2.2.2.,.,.2.3.2.2.,.3.E.3.E.Q.Q.Q.U.U.W.K.G.g.k.x.x.t t t p d d ",
"B.B.B.d.j d t t t v.x.t t p n.n.g.J.C./ H.K.T.U.Q.U.U.Q.Q.I.Q.U.U.U.U.Q.U.U.U.U.Q.U.,.<.U.,.E.U.,.U.U.U.R.U.U.U.3.E.Q.Q.Q.T.U.Q.U.U.P.L.h.J y.d.u x.k.t t u u u ",
"B.B.7.7.d v.r.p h r.v.x.n.v.B.V.B.t i C s.C.L.W.L.Q.I.T.U.Q.Q.T.U.U.Q.U.Q.Q.Q.Q.U.Q.Q.Q.Q.Q.Q.Q.Q.Q.Q.Q.Q.Q.Q.Q.Q.Q.Q.Q.Q.Q.Q.U.U.U.K.b.B.j r.t u v.k.k.t t u t ",
"B.B.g d y.B.B.y.v.B.j.v.B.B.v.B.B.B.t u r.f.G.H.W.P.A.P.P.P.P.I.U.U.T.U.Y.U.I.Q.U.Q.T.Q.U.Q.U.T.T.Q.U.U.U.U.U.U.U.Q.U.U.U.Q.T.U.I.J.B.B.B.g r e s n.g n.t t 5 t ",
"B.B.d d B.B.k.d.V.V.j.u w.B.B.B.B.B.t u v.v.k.B.N.L.A.S.H.W.S.P.) Y.T.T.U.U.U.Q.U.U.Q.T.U.U.Q.U.T.U.Q.T.U.U.U.U.U.T.U.U.W.] ,.O.f B.B.B.B.g p p s n.x.v.k.5 t t ",
"B.B.g p B.B.x.v.B.v.9.p e B.B.B.B.B.v.t d.B.d.B.B.B.y.b.C h.K.L.L.H.L.H.~ A.~ ^ ` P.' ^ ] G.H.' W.H.H.H.' ' ' ' ~ G.) +.D.) b r n.B.B.B.y.j p p j V.B.k.x.k.v.t ",
"v.d.g j x.B.B.B.B.y.d t t B.B.B.B.B.B.9.7.B.B.t B.B.B.B.s B.B.B.B.b.h.J.J.L.K.L.G.C.O.~ ~ J.h.< J.M.h.p.3 C Z J.J.a.r.d d g x.v.B.B.B.d.k.9.p t j v.B.v.k.n.v.5 ",
"r p r d B.B.v.B.B.g p t p x.B.B.B.B.B.y.w.9.d t d.B.B.B.r.d.d.B.B.B.B.B.B.B.B.B.p t d d.j.B.B.v.v.B.B.8.B.v.B.v.9.t p p g w.k.B.B.B.B.y.j g w.t y.r.B.B.v.5 r.5 ",
"u t p v.B.v.B.n.v.j.t t t j.v.B.B.B.B.B.d.w.g p e B.B.B.9.y.9.w.B.k.B.B.B.k.w.t t v.t t y.B.B.v.0.B.v.r.v.B.r.B.9.t e p r.9.x.B.B.B.d p 9.t r.t w.t t t 5 t 5 t ",
"t y.n.x.B.n.n.B.n.n.5 5 t d w.n.B.n.n.B.v.x.w.h d v.V.B.j.9.r.v.B.B.B.B.v.g w.5 n.x.t t v.v.v.k.j.k.v.p B.x.g B.p g p p w.g y.x.B.B.t d g t y.t d g d g r r t t ",
"v.B.n.9.B.B.x.v.x.n.p 5 t p g n.w.x.B.V.V.k.j.w.w.r.x.B.w.g v.n.k.V.B.B.k r.5 k.n.t t p j.v.r.p j.g r.u B.p j.d.r.e.r.w.q.r.p v.B.x.t 9.9.t x.d w.j.w.w.r d p 5 ",
"B.B.v.g y.d.9.9.w.v.v.t 5 t p a r.w.i.V.V.n.n.v.j.9.p v.w.n.v.V.k.B.V.8.r.w.k.v.r.t t 9.j.k.t u u k.u t v.g k.k.k.k.k.k.j.k.p v.x.i.t 9.g t j.v.n.k.j k.g p p d ",
"v.r.y.t p p r.t y.t n.t t t t t p y.w.V.V.V.V.k.v.k g h r.B.v.v.k.e.k.j y.k.k.t t u t w.t t t k.n.n.e t 8.j.V.x.k.j.V.e.r.s r r.j y.t 9.9.t t v.V.V.k.n.r.g p r ",
"r.w.h p f h d p p 5 n.5 t 5 p p 9.w.w.j.v.n.V.k.k.w.j w.k.v.n.v.j.t.7.8.j.k.p v.p d j g p t t n.V.x.5 5 r.n.B.r.V.j.n.j.g d p p w.p g g k p t u k.n.k.n.r.r.s r ",
"5 w.p g 9.9.B.h p t i.5 t v.9.w.u d j.k.V.k.V.V.k.n.n.k.j.n.v.n.k.t.0.e.j.p v.x.g r.j.r.w.u t n.v.5 t t r.n.V.V.n.n.n.g d p u r.p g j.y.k.p p t u n.v.v.n.j.r.s ",
"t t p k n.V.B.k p r.5 p g n.k t t p j k.V.k.k.V.k.V.n.e.e.n.v.k.k.t.t.y.k j n.p r.j.j.w.w.p g v.v.t t p v.V.V.V.V.V.v.d u t t u p w.r.8.y.r t t t y.n.h n.n.k.k.",
"p p v.k.V.V.k.k r.j.u 9.p n.t u p d g k.k.k.k.V.k.j.n.e.e.n.k.v.j.j.0.j.d p n.d j.7.y.0.8.r.j.9.g p p h V.n.g V.v.v.V.g e t p t r y.y.0.e.d p p u k.k.j n.k.k.k.",
"n.v.n.n.V.n.r.n.y.k.g g r.V.p u 9.d g d 8.V.j.B.k.t.k.V.t.t.k.j.t.t.t.t.s p v.y.y.e.y.r.y.x.d r.w.k h w.n.k n.n.k.r.n.w.p 5 r.t p y.B.0.e.d d g k j.v.w.k.k.k.k.",
"n.v.v.V.V.V.k.k.j x.p r.j.V.q.g t t p d r.k.k.t.k.k.t.V.e.j.t.k.y.y.0.k.d p v.x.8.d.t.0.r.x.r.9.w.x.y.w.w.y.n.y.k.e.k.y.k t r.t d k.0.y.j j 9.j h j.y.j.j.k.k.j.",
"n.v.V.V.n.k.n.v.j.d q.j.k.k.k.g p t t g k.j.B.e.q.k.j.V.e.e.k.k.t.0.0.y.s r p y.g y.t.w.g d y.9.j.x.j.w.g y.k.y.k.e.V.k.g t r.d w.k.k.j.j e.k j.k v.x.k.j.k.0.8.",
"v.V.V.v.V.j n.j.h 9.j.k.q.n.n.r.d p p k w.v.j.v.0.k.k.k.j.j.j.k.y.7.j g d d d t.j y.r.9.p 9.y.w.y.j.j.r.w.w.j e.k.j n.r.9.t i.r.r.r.e.k.w.j.w.y.j.j.j.j.e.8.j j ",
"j.n.v.j.k.k.n.j.j 9.r e.k.n.n.k.8.t.k p y.k.w.B.8.j.n.v.e.j.t.k.y.j j s j t.r.y.j y.y.9.t p y.r.r.y.k.t.e.k.k j q.w.v.9.r.p y.y.j.j r.x.9.j.9.p w.j.t.e.q.g d s ",
"k.n.t.y.j.v.j.k r.u s j y.n.k.V.j.x.9.p k.x.0.v.e.r.k.j.q.e.j.j.y.g s r r.y.7.j e.t.y.t t p r.r.0.e.j.k.v.k.k g w.g v.t r.y.k y.r.p y.9.w.t 9.d w.y.0.0.j r p u ",
"j.k.j.j.p g r.5 k u s j e.n.k.k.B.y.g j y.k.k.k.e.w.r.j.j t.k.t.k.w.j p g 8.8.8.t.p d.p t t s t.j j.j.k.v.v.w.h w.r.y.t v.x.d w.r.d r.g 9.9.9.9.s j 8.7.g r t t ",
"7.0.j.e.p r.k t t p d j 0.n.k.0.k.v.y.d.p k.v.y.e.d r u k.e.k.j v.9.9.p s 8.8.r.k.t t t t t r v.8.k.j.k.v.k.j.r.j.v.9.t x.w.y.x.9.9.y.k j.v.w.r g j 7.j s p 5 5 "
};
