/* XPM */
static char *result[] = {
/* columns rows colors chars-per-pixel */
"80 80 181 2 ",
"   c #040302",
".  c #070709",
"X  c #060A0C",
"o  c #08080C",
"O  c #070E11",
"+  c #0B0C14",
"@  c #0C0E19",
"#  c #0B121C",
"$  c #081117",
"%  c #12161B",
"&  c #3F281E",
"*  c #0C1824",
"=  c #0E1927",
"-  c #101324",
";  c #111629",
":  c #13182D",
">  c #1C1D2F",
",  c #0F1B3D",
"<  c #151C36",
"1  c #1B1E33",
"2  c #161D3A",
"3  c #191F39",
"4  c #0C202D",
"5  c #1F262D",
"6  c #0F293B",
"7  c #0D2536",
"8  c #18203E",
"9  c #182239",
"0  c #29222A",
"q  c #21282B",
"w  c #3A2721",
"e  c #22253A",
"r  c #262B3C",
"t  c #282C3C",
"y  c #282435",
"u  c #3A2B34",
"i  c #2E3935",
"p  c #26313E",
"a  c #2A343B",
"s  c #2E393A",
"d  c #323D3B",
"f  c #452A1B",
"g  c #4B2E1D",
"h  c #4D301E",
"j  c #52321F",
"k  c #422B2B",
"l  c #533520",
"z  c #5A3A23",
"x  c #402E35",
"c  c #4F3435",
"v  c #46343A",
"b  c #52383C",
"n  c #583731",
"m  c #623C25",
"M  c #673E31",
"N  c #35403D",
"B  c #38433F",
"V  c #4A433D",
"C  c #534C3F",
"Z  c #6B4528",
"A  c #6A4528",
"S  c #75422F",
"D  c #7A4E2B",
"F  c #7A422B",
"G  c #7C522E",
"H  c #6A4138",
"J  c #6F4234",
"K  c #7A4632",
"L  c #7D4B37",
"P  c #131E47",
"I  c #141E49",
"U  c #162147",
"Y  c #1B2447",
"T  c #1F2845",
"R  c #16224A",
"E  c #1B2549",
"W  c #1F284E",
"Q  c #152E4A",
"!  c #11344B",
"~  c #1E2A52",
"^  c #1D2A58",
"/  c #133A56",
"(  c #222746",
")  c #242B43",
"_  c #2D2942",
"`  c #222B4D",
"'  c #2C2F49",
"]  c #3A2F41",
"[  c #2D3343",
"{  c #26304C",
"}  c #28324F",
"|  c #2B3644",
" . c #323446",
".. c #353C4C",
"X. c #343A4B",
"o. c #222D56",
"O. c #222D59",
"+. c #24305D",
"@. c #273150",
"#. c #343A53",
"$. c #1E3C65",
"%. c #213F6C",
"&. c #413C46",
"*. c #453440",
"=. c #14415F",
"-. c #3A4543",
";. c #39404F",
":. c #3E494B",
">. c #394347",
",. c #3B4353",
"<. c #3B455A",
"1. c #3F4A52",
"2. c #154261",
"3. c #19496E",
"4. c #234677",
"5. c #4E4445",
"6. c #44404E",
"7. c #5F4F45",
"8. c #534948",
"9. c #495146",
"0. c #5A5F47",
"q. c #595749",
"w. c #414C51",
"e. c #434C5C",
"r. c #464253",
"t. c #554B51",
"y. c #594D51",
"u. c #46515D",
"i. c #674B40",
"p. c #6B5544",
"a. c #7B6145",
"s. c #7B604C",
"d. c #424D63",
"f. c #475162",
"g. c #4A5565",
"h. c #4D5A6B",
"j. c #49566C",
"k. c #515E74",
"l. c #55647C",
"z. c #824B26",
"x. c #83562F",
"c. c #8D4E30",
"v. c #8B5333",
"b. c #A65F2F",
"n. c #92632F",
"m. c #9A6433",
"M. c #956133",
"N. c #9B7638",
"B. c #AB6F36",
"V. c #B57638",
"C. c #8F6A42",
"Z. c #876744",
"A. c #926E43",
"S. c #9D7544",
"D. c #9D7548",
"F. c #A27B43",
"G. c #A97D44",
"H. c #A07540",
"J. c #A1813C",
"K. c #C0863E",
"L. c #8C9245",
"P. c #A2884B",
"I. c #AC904C",
"U. c #B5A145",
"Y. c #B4B245",
"T. c #D39F42",
"R. c #D09641",
"E. c #CFA74D",
"W. c #D6B553",
"Q. c #E0A441",
"!. c #EFCA42",
"~. c #F8C240",
"^. c #EBDC43",
"/. c #1B5985",
"(. c #205889",
"). c #1F699D",
"_. c #23669F",
"`. c #596B85",
"'. c #5C6E8A",
"]. c #627694",
"[. c None",
/* pixels */
"[.[.[.[.[.[.[.[.[.[.[.[.[.[.[.[.[.[.[.[.[.[.[.[.[.[.[.[.[.[.[.[.[.[.[.[.[.[.[.[.[.[.[.[.[.[.[.[.[.[.[.[.[.[.[.[.[.[.[.[.[.[.[.[.[.[.[.[.[.[.[.[.[.[.[.[.[.[.[.[.",
"[.[.[.[.[.[.[.[.[.[.[.[.[.[.[.[.[.[.[.[.[.[.[.[.[.[.[.[.[.[.[.[.[.[.[.[.[.[.[.[.[.[.[.[.[.[.[.[.[.[.[.[.[.[.[.[.[.[.[.[.[.[.[.[.[.[.[.[.[.[.[.[.[.[.[.[.[.[.[.[.",
"[.[.[.[.[.[.[.[.[.[.[.[.[.[.[.[.[.[.[.[.[.[.[.[.[.[.[.[.[.[.[.[.[.[.[.[.[.[.[.[.[.[.[.[.[.[.[.[.[.[.[.[.[.[.[.[.[.[.[.[.[.[.[.[.[.[.[.[.[.[.[.[.[.[.[.[.[.[.[.[.",
"[.[.[.[.[.[.[.[.[.[.[.[.[.[.[.[.[.[.[.[.[.[.[.[.[.[.[.[.[.[.[.[.[.[.[.[.[.[.[.[.[.[.[.[.[.[.[.[.[.[.[.[.[.[.[.[.[.[.[.[.[.[.[.[.[.[.[.[.[.[.[.[.[.[.[.[.[.[.[.[.",
"[.[.[.[.[.[.[.[.[.[.[.[.[.[.[.[.[.[.[.[.[.[.[.[.[.[.[.[.[.[.[.[.[.[.[.[.[.[.[.[.[.[.[.[.[.[.[.[.[.[.[.[.[.[.[.[.[.[.[.[.[.[.[.[.[.[.[.[.[.[.[.[.[.[.[.[.[.[.[.[.",
"[.[.[.[.[.[.[.[.[.[.[.[.[.[.[.[.[.[.[.[.[.[.[.[.[.[.[.[.[.[.[.[.[.[.[.[.[.[.[.[.[.[.[.[.[.[.[.[.[.[.[.[.[.[.[.[.[.[.[.[.[.[.[.[.[.[.[.[.[.[.[.[.[.[.[.[.[.[.[.[.",
"[.[.[.[.[.[.[.[.[.[.[.[.[.[.[.[.[.[.[.[.[.[.[.[.[.[.[.[.[.[.[.[.[.[.[.[.[.[.[.[.[.[.[.[.[.[.[.[.[.[.[.[.[.[.[.[.[.[.[.[.[.[.[.[.[.[.[.[.[.[.[.[.[.[.[.[.[.[.[.[.",
"[.[.[.[.[.[.[.[.[.[.[.[.[.[.[.[.[.[.[.[.[.[.O.o.o.` Y Y Y Y Y [.[.E E E [.[.[.[.[.[.[.[.[.[.[.[.[.[.[.[.[.[.[.[.[.[.[.[.[.[.[.[.[.[.[.[.[.[.[.[.[.[.[.[.[.[.[.[.",
"[.[.[.[.[.[.[.[.[.[.[.[.[.[.[.[.[.[.[.[.o.o.O.o.o.` Y Y Y Y Y Y Y Y Y Y E [.[.[.[.[.[.[.[.[.[.[.[.[.[.[.[.[.[.[.[.[.[.[.[.[.[.[.[.[.[.[.[.[.[.[.[.[.[.[.[.[.[.[.",
"[.[.[.[.[.[.[.[.[.[.[.[.[.[.[.[.[.[.[.+.o.o.o.o.` E Y Y Y Y Y Y Y Y 8 Y E [.[.[.[.[.[.[.[.[.[.[.[.[.[.[.[.[.[.[.[.[.[.[.[.[.[.[.[.[.[.[.[.[.[.[.[.[.[.[.[.[.[.[.",
"[.[.[.[.[.[.[.[.[.[.[.[.[.[.[.[.o.o.o.o.o.O.O.o.~ W Y Y Y Y Y Y Y 3 2 Y [.[.[.[.[.[.[.[.[.[.[.[.[.[.[.[.[.[.[.[.[.[.[.[.[.[.[.[.[.[.[.[.[.[.[.[.[.[.[.[.[.[.[.[.",
"[.[.[.[.[.[.[.[.[.[.[.[.[.[.[.o.o.o.o.o.o.o.o.o.~ E Y Y Y Y Y Y 3 < < [.[.[.[.[.[.[.[.[.[.[.[.[.[.[.[.[.[.[.[.[.[.[.[.[.[.[.[.[.[.[.[.[.[.[.[.[.[.[.[.[.[.[.[.[.",
"[.[.[.[.[.[.[.[.[.[.[.[.[.[.O.O.O.+.O.O.o.o.o.~ W E Y P Y 3 8 8 3 < [.[.[.[.[.f f [.[.[.[.[.[.[.[.[.[.[.[.[.[.[.[.[.[.[.[.[.[.[.[.[.[.[.[.[.[.[.[.[.[.[.[.[.[.[.",
"[.[.[.[.[.[.[.[.[.[.[.[.[.o.o.o.o.o.o.o.o.o.W E E Y Y 3 2 < < 2 2 [.[.[.[.[.f f f f [.[.[.[.[.[.[.[.[.[.[.[.[.[.[.[.[.[.[.[.[.[.[.[.[.[.[.[.[.[.[.[.[.[.[.[.[.[.",
"[.[.[.[.[.[.[.[.[.[.[.[.o.o.o.Y 8 8 Y Y W o.W Y Y E Y 3 2 < < < [.[.[.[.[.f f g h l j [.[.[.[.[.[.[.[.[.[.[.[.[.[.[.[.[.[.[.[.[.[.[.[.[.[.[.[.[.[.[.[.[.[.[.[.[.",
"[.[.[.[.[.[.[.[.[.[.[.[.O.o.T : @ @ @ ; 3 E W E Y E E 3 < < < < [.[.[.[.[.[.f g z m A [.[.[.[.[.[.[.[.[.[.[.[.[.[.[.[.[.[.[.[.[.[.[.[.[.[.[.[.[.[.[.[.[.[.[.[.[.",
"[.[.[.[.[.[.[.[.[.[.[.[.+.o.Y @ .     @ : Y Y Y E E Y P < < < < [.[.[.[.[.f g z Z D G [.[.[.[.[.[.[.[.[.[.[.[.[.[.[.[.[.[.[.[.[.[.[.[.[.[.[.[.[.[.[.[.[.[.[.[.[.",
"[.[.[.[.[.[.[.[.[.[.[.[.O.o.9 @       . @ # : Y E ( Y 3 < < < < [.[.[.[.g l z Z x.M.m.[.[.[.[.[.[.[.[.[.[.[.[.[.[.[.[.[.[.[.[.[.[.[.[.[.[.[.[.[.[.[.[.[.[.[.[.[.",
"[.[.[.[.[.[.[.[.[.[.[.[.+.o.Y #         . + ; 8 Y Y E 3 < < < < [.[.[.f g z A x.m.B.[.[.[.[.[.[.[.[.[.[.[.[.[.[.[.[.[.[.[.[.[.[.[.[.[.[.[.[.[.[.[.[.[.[.[.[.[.[.",
"[.[.[.[.[.[.[.[.[.[.[.[.O.O.W Q 6 # X $ : 6 6 < 2 Y Y 8 2 < < < 1 [.[.f f l m D m.V.[.[.[.[.[.[.[.[.[.[.[.[.[.[.[.[.[.[.[.[.[.[.[.[.[.[.[.[.[.[.[.[.[.[.[.[.[.[.",
"[.[.[.[.[.[.[.[.[.[.[.[.o.O.%.(./.! $ 4 3././ = - 2 Y P 2 < < < 0 f f f f f g z G [.[.[.[.[.[.[.[.[.[.[.[.[.[.[.[.[.[.[.[.[.[.[.[.[.[.[.[.[.[.[.[.[.[.[.[.[.[.[.",
"[.[.[.[.[.[.[.[.[.[.[.[.[.O.4._.).=.$ 7 /.).2.$ o : 3 3 < < < 1 0 w f g j z z z [.[.[.[.[.[.[.[.[.[.[.[.[.[.[.[.[.[.[.[.[.[.[.[.[.[.[.[.[.[.[.[.[.[.[.[.[.[.[.[.",
"[.[.[.[.[.[.[.[.[.[.[.[.[.[.$.3.2.7 O # / =.6 X . + - : < < < < > 0 k m z.n.N.J.[.[.[.[.[.[.[.[.[.[.[.[.[.[.[.[.[.[.[.[.[.[.[.[.[.[.[.[.[.[.[.[.[.[.[.[.[.[.[.[.",
"[.[.[.[.[.[.[.[.[.[.[.[.[.[.[.# $ O . . O $ O .   . + # < < < < < > k F b.K.E.W.[.[.[.[.[.[.[.[.[.[.[.[.[.[.[.[.[.[.[.[.[.[.[.[.[.[.[.[.[.[.[.[.[.[.[.[.[.[.[.[.",
"[.[.[.[.[.[.[.[.[.[.[.[.[.[.[.              . + @ @ @ ; < 2 < 2 y x M M c.F.I.I.[.[.[.[.[.[.[.[.[.[.[.[.[.[.[.[.[.[.[.[.[.[.[.[.[.[.[.[.[.[.[.[.[.[.[.[.[.[.[.[.",
"[.[.[.[.[.[.[.[.[.[.[.[.[.[.[.              @ : < : < < U 3 , 1 c K M n c b C 5.a < < < [.[.[.[.[.[.[.[.[.[.[.[.[.[.[.[.[.[.[.[.[.[.[.[.[.[.[.[.[.[.[.[.[.[.[.[.",
"[.[.[.[.[.[.[.[.[.[.[.[.[.[.[.+ o o . .   + ; 8 E E Y Y Y Y 3 u M c.K x 2 < < 9 2 < < < < [.[.[.[.[.[.[.[.[.[.[.[.[.[.[.[.[.[.[.[.[.[.[.[.[.[.[.[.[.[.[.[.[.[.[.",
"[.[.[.[.[.[.[.[.[.[.[.[.[.[.Y < : ; - * - ; < Y E E Y U R _ c A M J b t 3 , , , < < < < < < < < [.[.[.[.[.[.[.[.[.[.[.[.[.[.[.[.[.[.[.[.[.[.[.[.[.[.[.[.[.[.[.[.",
"[.[.[.[.[.[.[.[.[.[.[.[.[.o.o.` W Y Y 3 P 8 Y Y Y Y E U E *.L c.H ] ) Y Y U Y U 2 < < < < < < < < < [.[.[.[.[.[.[.[.[.[.[.[.[.[.[.[.[.[.[.[.[.[.[.[.[.[.[.[.[.[.",
"[.[.[.[.[.[.[.[.[.[.[.[.o.O.O.O.o.~ E E E Y E Y Y Y E X.5.i.L L b ( U R Y E Y Y 8 2 2 < < < < < < < < [.[.[.[.[.[.[.[.[.[.[.[.[.[.[.[.[.[.[.[.[.[.[.[.[.[.[.[.[.",
"[.[.[.[.[.[.[.[.[.[.[.[.o.o.O.O.o.~ E Y Y E E Y I U ) i.A.C.H *._ Y U Y Y Y Y Y Y 3 3 < < < < < < < < < [.[.[.[.[.[.[.[.[.[.[.[.[.[.[.[.[.[.[.[.[.[.[.[.[.[.[.[.",
"[.[.[.[.[.[.[.[.[.[.[.[.o.O.o.o.o.W E Y Y Y Y Y Y ) &.a.G.A.5.W Y Y Y Y Y Y Y Y Y Y U 2 2 2 2 < < < < 2 < [.[.[.[.[.[.[.[.[.[.[.[.[.[.[.[.[.[.[.[.[.[.[.[.[.[.[.",
"[.[.[.[.[.[.[.[.[.[.[.[.O.o.o.O.o.W Y Y U I P I  .7.a.Z.a.7. .U U E Y Y Y E Y Y E Y Y P 3 3 3 3 < < < < < < [.[.[.[.[.[.[.[.[.[.[.[.[.[.[.[.[.[.[.[.[.[.[.[.[.[.",
"[.[.[.[.[.[.[.[.[.[.[.[.o.o.o.o.o.~ Y Y T Y Y ` 5.A.G.a.&.' E Y Y Y Y E Y Y Y Y Y Y Y Y Y Y Y 3 2 < < < < < < [.[.[.[.[.[.[.[.[.[.[.[.[.[.[.[.[.[.[.[.[.[.[.[.[.",
"[.[.[.[.[.[.[.[.[.[.[.[.o.o.o.o.o.~ W ' &.5.5.5.p.C.A.i.) P U Y Y Y Y Y Y Y Y Y Y Y Y Y Y Y Y P 3 < < < < < < < [.[.[.[.[.[.[.[.[.[.[.[.[.[.[.[.[.[.[.[.[.[.[.[.",
"[.[.[.[.[.[.[.[.[.[.[.[.o.O.O.o.^ ~ o.&.a.S.H.S.Z.p.5. .E U Y Y Y Y Y Y Y Y Y E Y Y E Y Y Y Y Y Y P 3 < < < < < < [.[.[.[.[.[.[.[.[.[.[.[.[.[.2 8 Y E [.[.[.[.[.",
"[.[.[.[.[.[.[.[.[.[.[.[.o.o.o.o.o.^ o.t.D.R.Q.T.P.8.T U Y Y Y Y Y Y E Y Y Y Y Y Y Y Y Y E Y Y Y Y Y 3 3 < < < < < < [.[.[.[.[.[.[.[.[.[.[.[.< 2 8 Y E [.[.[.[.[.",
"[.[.[.[.[.[.[.[.[.[.[.[.O.o.O.o.o.^ O.y.G.Q.~.!.U.8.U P Y Y Y E Y Y Y Y E Y Y Y Y Y E Y Y Y Y E Y Y 3 2 3 < < < < 2 < [.[.[.[.[.[.[.[.[.[.2 2 2 8 Y [.[.[.[.[.[.",
"[.[.[.[.[.[.[.[.[.[.[.[.o.o.o.o.o.^ o.t.D.T.!.^.Y.0.T P Y E Y E Y E Y Y Y Y E Y Y E Y Y Y Y Y Y Y Y Y Y P < < < < < < < [.[.[.[.[.[.[.[.< 3 Y Y Y [.[.[.[.[.[.[.",
"[.[.[.[.[.[.[.[.[.[.[.[.O.o.o.O.o.o.O.r.a.P.U.Y.L.9.Y U Y Y Y Y Y Y Y Y E Y Y Y Y Y Y E Y Y Y E Y Y Y Y Y 2 2 < < < < < < [.[.[.[.[.[.< 2 U Y Y [.[.[.[.[.[.[.[.",
"[.[.[.[.[.[.[.[.[.[.[.[.O.O.o.o.o.o.O.#.&.y.q.0.9.| E Y Y Y Y Y Y Y E Y Y Y E Y Y E Y Y E Y Y Y Y Y Y Y Y Y 8 < < < < < < < < < < < < 2 Y Y Y Y E [.[.[.[.[.[.[.",
"[.[.[.[.[.[.[.[.[.[.[.[.O.O.o.O.o.o.O.O.+.O.o.` T Y E E Y Y Y Y Y Y Y Y Y Y Y Y Y Y Y Y Y Y Y Y Y Y Y Y Y Y Y 2 < 2 < 2 2 < 2 < 2 2 3 P Y Y Y Y [.[.[.[.[.[.[.[.",
"[.[.[.[.[.[.[.[.[.[.[.[.O.o.O.o.o.o.o.^ ^ ~ E I U U E Y E Y Y E Y Y Y Y Y Y Y Y Y Y Y Y Y Y Y Y Y Y Y Y Y Y Y P Y 2 2 3 8 2 8 8 3 3 3 Y Y Y Y [.[.[.[.[.[.[.[.[.",
"[.[.[.[.[.[.[.[.[.[.[.[.o.o.o.o.o.o.o.o.o.o.~ Y Y Y Y Y Y Y Y Y Y Y E Y E Y Y Y Y Y Y E Y E Y Y Y Y Y Y Y Y Y Y Y Y Y Y Y Y Y Y Y Y Y Y Y Y [.[.[.[.[.[.[.[.[.[.",
"[.[.[.[.[.[.[.[.[.[.[.[.O.o.O.o.o.O.o.o.o.^ o.W W Y Y Y E Y Y Y Y Y Y Y E Y E Y Y E Y Y Y Y Y Y Y Y Y Y Y Y Y Y Y E Y E Y Y E Y E E Y Y Y [.[.[.[.[.[.[.[.[.[.[.",
"[.[.[.[.[.[.[.[.[.[.[.[.o.o.o.o.o.o.o.o.o.O.o.o.~ E Y Y Y Y Y E Y E Y Y Y Y Y Y Y Y Y Y Y Y E Y Y Y Y Y Y Y Y E Y Y Y Y Y Y Y Y Y Y Y Y [.[.[.[.[.[.[.[.[.[.[.[.",
"[.[.[.[.[.[.[.[.[.[.[.[.o.o.o.o.o.O.o.o.o.o.~ W E E Y Y Y Y Y Y Y Y Y Y Y E Y Y Y Y W Y Y Y Y Y Y Y Y E Y E Y Y Y Y Y Y Y Y Y Y Y Y Y [.[.[.[.[.[.[.[.[.[.[.[.[.",
"[.[.[.[.[.[.[.[.[.[.[.[.o.O.O.o.o.o.o.o.o.` Y : < 8 Y E Y Y Y Y Y Y E Y Y Y Y Y Y Y Y Y Y Y Y Y E Y Y Y Y Y Y E Y Y E Y Y Y Y E E Y [.[.[.[.[.[.[.[.[.[.[.[.[.[.",
"[.[.[.[.[.[.[.[.[.[.[.[.o.o.o.o.o.o.O.+.o.W > @ # < Y E Y Y Y Y E Y Y Y Y Y Y Y Y Y Y Y Y Y Y Y Y Y Y E Y Y Y Y Y Y Y Y Y Y Y Y Y [.[.[.[.[.[.[.[.[.[.[.[.[.[.[.",
"[.[.[.[.[.[.[.[.[.[.[.[.o.O.o.O.o.O.o.O.O.` 4 % % < Y E Y Y Y E Y Y Y E Y Y E Y E Y Y E Y E Y Y Y Y Y Y Y E Y E Y Y Y Y E Y Y Y [.[.[.[.[.[.[.[.[.[.[.[.[.[.[.[.",
"[.[.[.[.[.[.[.[.[.[.[.[.O.o.o.o.o.o.o.o.O.o.e 5 q 9 Y E Y E Y Y Y Y Y Y Y E Y Y Y Y Y Y Y Y Y E Y Y Y Y Y Y E Y Y Y Y E [.[.[.[.[.[.[.[.[.[.[.[.[.[.[.[.[.[.[.[.",
"[.[.[.[.[.[.[.[.[.[.[.[.[.o.o.O.O.o.o.o.o.@.| s a r Y Y Y Y Y Y Y Y Y Y Y Y E Y Y Y Y Y Y E Y Y Y E Y Y Y Y Y Y E Y Y Y [.[.[.[.[.[.[.[.[.[.[.[.[.[.[.[.[.[.[.[.",
"[.[.[.[.[.[.[.[.[.[.[.[.[.[.o.o.o.O.o.o.{ | | d d | r T Y Y Y Y E Y Y Y E Y Y Y Y Y Y Y Y Y Y Y Y Y Y E Y Y Y Y Y Y Y Y E [.[.[.[.[.[.[.[.[.[.[.[.[.[.[.[.[.[.[.",
"[.[.[.[.[.[.[.[.[.[.[.[.[.[.[.O.o.O.o.{ a s N B d d a ) T Y Y Y Y Y E Y Y Y Y Y E Y E Y Y E E Y Y E Y Y Y Y Y Y Y Y E Y Y Y [.[.[.[.[.[.[.[.[.[.[.[.[.[.[.[.[.[.",
"[.[.[.[.[.[.[.[.[.[.[.[.[.[.[.o.o.O.O.{ | i d B B N i p Y Y Y Y Y E Y Y Y Y Y Y E Y Y Y Y Y E Y Y Y E Y Y Y Y E Y E Y Y Y Y [.[.[.[.[.[.[.[.[.[.[.[.[.[.[.[.[.[.",
"[.[.[.[.[.[.[.[.[.[.[.[.[.[.[.o.O.^ o.{ p i N -.-.B d [ Y Y Y Y Y Y Y Y Y E Y Y Y Y Y Y Y Y Y Y Y Y Y Y E Y Y Y Y Y Y E Y [.[.[.[.[.[.[.[.[.[.[.[.[.[.[.[.[.[.[.",
"[.[.[.[.[.[.[.[.[.[.[.[.[.[.[.o.o.o.o.{ a i N -.-.:.>.| Y Y Y Y Y Y Y Y E Y Y Y Y Y E Y Y Y Y Y Y Y Y E Y E Y Y Y Y Y E [.[.[.[.[.[.[.[.[.[.[.[.[.[.[.[.[.[.[.[.",
"[.[.[.[.[.[.[.[.[.[.[.[.[.[.[.[.o.{ | | d N -.:.w.w.1.;.` Y Y Y Y Y Y Y Y Y E Y Y Y Y Y Y E E Y Y Y Y Y Y Y Y Y E Y Y [.[.[.[.[.[.[.[.[.[.[.[.[.[.[.[.[.[.[.[.[.",
"[.[.[.[.[.[.[.[.[.[.[.[.[.[.[.[.[.a s d N -.1.e.f.f.u.e.[.[.Y Y E Y Y Y Y E Y Y Y Y Y Y Y E Y Y E Y Y Y Y Y E Y Y Y [.[.[.[.[.[.[.[.[.[.[.[.[.[.[.[.[.[.[.[.[.[.",
"[.[.[.[.[.[.[.[.[.[.[.[.[.[.[.[.[.[.i i N :.u.h.h.g.u.e.[.[.Y Y Y Y Y E Y Y Y Y Y Y Y Y Y Y Y Y Y Y Y Y E Y Y Y Y [.[.[.[.[.[.[.[.[.[.[.[.[.[.[.[.[.[.[.[.[.[.[.",
"[.[.[.[.[.[.[.[.[.[.[.[.[.[.[.[.[.[.[.N B :.u.l.l.h.e...[ e [.[.[.[.Y Y Y Y Y Y Y Y Y Y Y Y Y Y Y Y Y Y Y [.[.[.[.[.[.[.[.[.[.[.[.[.[.[.[.[.[.[.[.[.[.[.[.[.[.[.",
"[.[.[.[.[.[.[.[.[.[.[.[.[.[.[.[.[.[.[.[.B 9.h.`.`.l.f.,. .p [.[.[.[.[.Y Y Y ( Y Y Y Y Y Y E Y Y Y E Y Y [.[.[.[.[.[.[.[.[.[.[.[.[.[.[.[.[.[.[.[.[.[.[.[.[.[.[.[.",
"[.[.[.[.[.[.[.[.[.[.[.[.[.[.[.[.[.[.[.[.[.[.h.'.`.`.k.f.,...[ [.[.[.[.[.T r r ) T Y Y Y Y Y Y Y Y [.E [.[.[.[.[.[.[.[.[.[.[.[.[.[.[.[.[.[.[.[.[.[.[.[.[.[.[.[.[.",
"[.[.[.[.[.[.[.[.[.[.[.[.[.[.[.[.[.[.[.[.[.[.[.[.[.'.`.k.f.,. .t [.[.[.[.[.a a p ) Y E Y Y Y Y Y [.[.[.[.[.[.[.[.[.[.[.[.[.[.[.[.[.[.[.[.[.[.[.[.[.[.[.[.[.[.[.[.",
"[.[.[.[.[.[.[.[.[.[.[.[.[.[.[.[.[.[.[.[.[.[.[.[.[.].'.k.d.;.[ t [.[.[.[.[.[.i a r T ` { } } } [.[.[.[.[.[.[.[.[.[.[.[.[.[.[.[.[.[.[.[.[.[.[.[.[.[.[.[.[.[.[.[.[.",
"[.[.[.[.[.[.[.[.[.[.[.[.[.[.[.[.[.[.[.[.[.[.[.[.[.].'.j... .[ [.[.[.[.[.[.[.[.t r ) } <.<.<.<.[.[.[.[.[.[.[.[.[.[.[.[.[.[.[.[.[.[.[.[.[.[.[.[.[.[.[.[.[.[.[.[.[.",
"[.[.[.[.[.[.[.[.[.[.[.[.[.[.[.[.[.[.[.[.[.[.[.[.[.'.l.d.[ r [.[.[.[.[.[.[.[.[.[.t [ ;.e.e.f.f.[.[.[.[.[.[.[.[.[.[.[.[.[.[.[.[.[.[.[.[.[.[.[.[.[.[.[.[.[.[.[.[.[.",
"[.[.[.[.[.[.[.[.[.[.[.[.[.[.[.[.[.[.[.[.[.[.[.[.[.d.<.<.[ [.[.[.[.[.[.[.[.[.[.[.[.a  ...e.e.g.[.[.[.[.[.[.[.[.[.[.[.[.[.[.[.[.[.[.[.[.[.[.[.[.[.[.[.[.[.[.[.[.[.",
"[.[.[.[.[.[.[.[.[.[.[.[.[.[.[.[.[.[.[.[.[.[.[.[.[.[  .[ [.[.[.[.[.[.[.[.[.[.[.[.[.[.t [ X.w.u.f.[.[.[.[.[.[.[.[.[.[.[.[.[.[.[.[.[.[.[.[.[.[.[.[.[.[.[.[.[.[.[.[.",
"[.[.[.[.[.[.[.[.[.[.[.[.[.[.[.[.[.[.[.[.[.[.[.[.[.r r [.[.[.[.[.[.[.[.[.[.[.[.[.[.[.[.t  .#.e.e.[.[.[.[.[.[.[.[.[.[.[.[.[.[.[.[.[.[.[.[.[.[.[.[.[.[.[.[.[.[.[.[.",
"[.[.[.[.[.[.[.[.[.[.[.[.[.[.[.[.[.[.[.[.[.[.[.[.[.[.[.[.[.[.[.[.[.[.[.[.[.[.[.[.[.[.[.[.[  .X.,.f.[.[.[.[.[.[.[.[.[.[.[.[.[.[.[.[.[.[.[.[.[.[.[.[.[.[.[.[.[.[.[.",
"[.[.[.[.[.[.[.[.[.[.[.[.[.[.[.[.[.[.[.[.[.[.[.[.[.[.[.[.[.[.[.[.[.[.[.[.[.[.[.[.[.[.[.[.[.t t ..e.e.[.[.[.[.[.[.[.[.[.[.[.[.[.[.[.[.[.[.[.[.[.[.[.[.[.[.[.[.[.[.",
"[.[.[.[.[.[.[.[.[.[.[.[.[.[.[.[.[.[.[.[.[.[.[.[.[.[.[.[.[.[.[.[.[.[.[.[.[.[.[.[.[.[.[.[.[.r t  .....[.[.[.[.[.[.[.[.[.[.[.[.[.[.[.[.[.[.[.[.[.[.[.[.[.[.[.[.[.[.",
"[.[.[.[.[.[.[.[.[.[.[.[.[.[.[.[.[.[.[.[.[.[.[.[.[.[.[.[.[.[.[.[.[.[.[.[.[.[.[.[.[.[.[.[.[.t t t [ [ [.[.[.[.[.[.[.[.[.[.[.[.[.[.[.[.[.[.[.[.[.[.[.[.[.[.[.[.[.[.",
"[.[.[.[.[.[.[.[.[.[.[.[.[.[.[.[.[.[.[.[.[.[.[.[.[.[.[.[.[.[.[.[.[.[.[.[.[.[.[.[.[.[.[.[.t t r t t t [.[.[.[.[.[.[.[.[.[.[.[.[.[.[.[.[.[.[.[.[.[.[.[.[.[.[.[.[.[.",
"[.[.[.[.[.[.[.[.[.[.[.[.[.[.[.[.[.[.[.[.[.[.[.[.[.[.[.[.[.[.[.[.[.[.[.[.[.[.[.[.[.[.[.t t t t t r t [.[.[.[.[.[.[.[.[.[.[.[.[.[.[.[.[.[.[.[.[.[.[.[.[.[.[.[.[.[.",
"[.[.[.[.[.[.[.[.[.[.[.[.[.[.[.[.[.[.[.[.[.[.[.[.[.[.[.[.[.[.[.[.[.[.[.[.[.[.[.[.[.[.[.t t t t t t t [.[.[.[.[.[.[.[.[.[.[.[.[.[.[.[.[.[.[.[.[.[.[.[.[.[.[.[.[.[.",
"[.[.[.[.[.[.[.[.[.[.[.[.[.[.[.[.[.[.[.[.[.[.[.[.[.[.[.[.[.[.[.[.[.[.[.[.[.[.[.[.[.[.[.[.t t [.[.[.[.[.[.[.[.[.[.[.[.[.[.[.[.[.[.[.[.[.[.[.[.[.[.[.[.[.[.[.[.[.[.",
"[.[.[.[.[.[.[.[.[.[.[.[.[.[.[.[.[.[.[.[.[.[.[.[.[.[.[.[.[.[.[.[.[.[.[.[.[.[.[.[.[.[.[.[.[.[.[.[.[.[.[.[.[.[.[.[.[.[.[.[.[.[.[.[.[.[.[.[.[.[.[.[.[.[.[.[.[.[.[.[.",
"[.[.[.[.[.[.[.[.[.[.[.[.[.[.[.[.[.[.[.[.[.[.[.[.[.[.[.[.[.[.[.[.[.[.[.[.[.[.[.[.[.[.[.[.[.[.[.[.[.[.[.[.[.[.[.[.[.[.[.[.[.[.[.[.[.[.[.[.[.[.[.[.[.[.[.[.[.[.[.[."
};
