/* XPM */
static char *result[] = {
/* columns rows colors chars-per-pixel */
"80 80 172 2 ",
"   c #120C17",
".  c #120E1A",
"X  c #14121D",
"o  c #3F271C",
"O  c #151523",
"+  c #181723",
"@  c #1A1925",
"#  c #161729",
"$  c #17192E",
"%  c #1C1E2B",
"&  c #171923",
"*  c #0F1735",
"=  c #0F1A36",
"-  c #151C36",
";  c #191C34",
":  c #161D3A",
">  c #191E3A",
",  c #201E32",
"<  c #1D212C",
"1  c #1F2B34",
"2  c #19213E",
"3  c #1C2630",
"4  c #23212E",
"5  c #2E2A2F",
"6  c #3A2725",
"7  c #3E2B24",
"8  c #372728",
"9  c #232532",
"0  c #2A2534",
"q  c #252B36",
"w  c #282A37",
"e  c #242539",
"r  c #232B3B",
"t  c #292E3E",
"y  c #332C35",
"u  c #25323C",
"i  c #2A3439",
"p  c #3B393D",
"a  c #412719",
"s  c #44291B",
"d  c #492D1C",
"f  c #4E301E",
"g  c #52331E",
"h  c #4F3220",
"j  c #4A3527",
"k  c #5D3C23",
"l  c #402D34",
"z  c #4F3230",
"x  c #47363C",
"c  c #503538",
"v  c #583938",
"b  c #643F22",
"n  c #5A4728",
"m  c #5D4927",
"M  c #504A30",
"N  c #5E4231",
"B  c #4D513B",
"V  c #6D4629",
"C  c #754B2A",
"Z  c #774929",
"A  c #7E5028",
"S  c #644038",
"D  c #6C453B",
"F  c #634037",
"G  c #7A4633",
"H  c #77533B",
"J  c #736939",
"K  c #7F7735",
"L  c #141F44",
"P  c #191E42",
"I  c #162146",
"U  c #1B2446",
"Y  c #1F2942",
"T  c #162149",
"R  c #1C2549",
"E  c #1E284E",
"W  c #1F2A54",
"Q  c #1D2A58",
"!  c #1F2652",
"~  c #212544",
"^  c #242C45",
"/  c #2C2B42",
"(  c #222C4B",
")  c #312F40",
"_  c #2C3343",
"`  c #243149",
"'  c #293549",
"]  c #323445",
"[  c #3E3644",
"{  c #353B4A",
"}  c #36374E",
"|  c #222D56",
" . c #222D58",
".. c #202753",
"X. c #263156",
"o. c #283156",
"O. c #25385A",
"+. c #313655",
"@. c #373A54",
"#. c #3C3D54",
"$. c #293E62",
"%. c #433C45",
"&. c #4A3D43",
"*. c #443340",
"=. c #2B474E",
"-. c #3A414F",
";. c #2C4A52",
":. c #2A4456",
">. c #3B4251",
",. c #2F5059",
"<. c #2A4364",
"1. c #2F536D",
"2. c #32596E",
"3. c #355C73",
"4. c #386669",
"5. c #3A6B74",
"6. c #3D7275",
"7. c #4E4445",
"8. c #46414E",
"9. c #534745",
"0. c #5F4E45",
"q. c #554845",
"w. c #4F5440",
"e. c #545B4E",
"r. c #575C40",
"t. c #424A5A",
"y. c #4E4851",
"u. c #5D4B50",
"i. c #605046",
"p. c #6D5744",
"a. c #6F5944",
"s. c #64554E",
"d. c #7A5D43",
"f. c #7C6145",
"g. c #767843",
"h. c #4F5861",
"j. c #505366",
"k. c #505961",
"l. c #40787A",
"z. c #835329",
"x. c #8D4E31",
"c. c #855C3B",
"v. c #895A30",
"b. c #8D623E",
"n. c #9D6633",
"m. c #80793B",
"M. c #A96E36",
"N. c #8E6C44",
"B. c #80654C",
"V. c #8C6C4A",
"C. c #856644",
"Z. c #926E43",
"A. c #A27842",
"S. c #A97D42",
"D. c #7E867D",
"F. c #838545",
"G. c #868657",
"H. c #BA8844",
"J. c #80887E",
"K. c #8E9273",
"L. c #C79043",
"P. c #3F7487",
"I. c #427C82",
"U. c #6F7886",
"Y. c #47898C",
"T. c #468396",
"R. c #4F9C9B",
"E. c #4B94A1",
"W. c #53A5AC",
"Q. c #53A3A6",
"!. c #5DBBBA",
"~. c None",
/* pixels */
"~.~.~.~.~.~.~.~.~.~.~.~.~.~.~.~.~.~.~.~.~.~.~.~.~.~.~.~.~.~.~.~.~.~.~.~.~.~.~.~.~.~.~.~.~.~.~.~.~.~.~.~.~.~.~.~.~.~.~.~.~.~.~.~.~.~.~.~.~.~.~.~.~.~.~.~.~.~.~.~.",
"~.~.~.~.~.~.~.~.~.~.~.~.~.~.~.~.~.~.~.~.~.~.~.~.~.~.~.~.~.~.~.~.~.~.~.~.~.~.~.~.~.~.~.~.~.~.~.~.~.~.~.~.~.~.~.~.~.~.~.~.~.~.~.~.~.~.~.~.~.~.~.~.~.~.~.~.~.~.~.~.",
"~.~.~.~.~.~.~.~.~.~.~.~.~.~.~.~.~.~.~.~.~.~.~.~.~.~.~.~.~.~.~.~.~.~.~.~.~.~.~.~.~.~.~.~.~.~.~.~.~.~.~.~.~.~.~.~.~.~.~.~.~.~.~.~.~.~.~.~.~.~.~.~.~.~.~.~.~.~.~.~.",
"~.~.~.~.~.~.~.~.~.~.~.~.~.~.~.~.~.~.~.~.~.~.~.~.~.~.~.~.~.~.~.~.~.~.~.~.~.~.~.~.~.~.~.~.~.~.~.~.~.~.~.~.~.~.~.~.~.~.~.~.~.~.~.~.~.~.~.~.~.~.~.~.~.~.~.~.~.~.~.~.",
"~.~.~.~.~.~.~.~.~.~.~.~.~.~.~.~.~.~.~.~.~.~.~.~.~.~.~.~.~.~.~.~.~.~.~.~.~.~.~.~.~.~.~.~.~.~.~.~.~.~.~.~.~.~.~.~.~.~.~.~.~.~.~.~.~.~.~.~.~.~.~.~.~.~.~.~.~.~.~.~.",
"~.~.~.~.~.~.~.~.~.~.~.~.~.~.~.~.~.~.~.~.~.~.~.~.~.~.~.~.~.~.~.~.~.~.~.~.~.~.~.~.~.~.~.~.~.~.~.~.~.~.~.~.~.~.~.~.~.~.~.~.~.~.~.~.~.~.~.~.~.~.~.~.~.~.~.~.~.~.~.~.",
"~.~.~.~.~.~.~.~.~.~.~.~.~.~.~.~.~.~.~.~.~.~.~.~.~.~.~.~.~.~.~.~.~.~.~.~.~.~.~.~.~.~.~.~.~.~.~.~.~.~.~.~.~.~.~.~.~.~.~.~.~.~.~.~.~.~.~.~.~.~.~.~.~.~.~.~.~.~.~.~.",
"~.~.~.~.~.~.~.~.~.~.~.~.~.~.~.~.~.~.~.~.~.~.~.~.~.~.~.~.~.~.~.~.~.~.~.~.~.~.~.~.~.~.~.~.~.~.~.~.~.~.~.~.~.~.~.~.~.~.~.~.~.~.~.~.~.~.~.~.~.~.~.~.~.~.~.~.~.~.~.~.",
"~.~.~.~.~.~.~.~.~.~.~.~.~.~.~.~.~.~.~.~.~.~.~.~.~.~.~.~.~.~.~.~.~.~.~.~.~.~.~.~.~.~.~.~.~.~.~.~.~.~.~.~.~.~.~.~.~.~.~.~.~.~.~.~.~.~.~.~.~.~.~.~.~.~.~.~.~.~.~.~.",
"~.~.~.~.~.~.~.~.~.~.~.~.~.~.~.~.~.~.~.~.~.~.~.~.~.~.~.~.~.~.~.~.~.~.~.~.~.~.~.~.~.~.~.~.~.~.~.~.~.~.~.~.~.~.~.~.~.~.~.~.~.~.~.~.~.~.~.~.~.~.~.~.~.~.~.~.~.~.~.~.",
"~.~.~.~.~.~.~.~.~.~.~.~.~.~.~.~.~.~.~.~.~.~.~.~.~.~.~.~.~.~.~.~.~.o s ~.~.~.U U R U R U ~.~.~.~.~.~.~.~.~.~.~.~.~.~.~.~.~.~.~.~.~.~.~.~.~.~.~.~.~.~.~.~.~.~.~.~.",
"~.~.~.~.~.~.~.~.~.~.~.~.~.~.~.~.~.~.~.~.~.~.~.~.~.~.~.~.~.~.~.~.g g g ~.~.T U R U U U R R ~.~.~.~.~.~.~.~.~.~.~.~.~.~.~.~.~.~.~.~.~.~.~.~.~.~.~.~.~.~.~.~.~.~.~.",
"~.~.~.~.~.~.~.~.~.~.~.~.~.~.~.~.~.~.~.~.~.~.~.~.~.~.~.~.~.s s f V Z V x Y T U U U U U R R W | ~.~. .| ~.~.~.~.~.~.~.~.~.~.~.~.~.~.~.~.~.~.~.~.~.~.~.~.~.~.~.~.~.",
"~.~.~.~.~.~.~.~.~.~.~.~.~.~.~.~.~.~.~.~.~.~.~.~.~.~.~.~.s s s g A n.c.x R T U R R U U U R ..| X.| | | | ~.~.~.~.~.~.~.~.~.~.~.~.~.~.~.~.~.~.~.~.~.~.~.~.~.~.~.~.",
"~.~.~.~.~.~.~.~.~.~.~.~.~.~.~.~.~.~.~.~.~.~.~.~.~.~.~.~.s s s g z.M.b.&.R T R U U R U U R | | | | |  . . .~.~.~.~.~.~.~.~.~.~.~.~.~.~.~.~.~.~.~.~.~.~.~.~.~.~.~.",
"~.~.~.~.~.~.~.~.~.~.~.~.~.~.~.~.~.~.~.~.~.~.~.~.~.~.~.~.~.s s g z.M.b.&.Y T R U U U U U E | | |  . . . . .| ~.~.~.~.~.~.~.~.~.~.~.~.~.~.~.~.~.~.~.~.~.~.~.~.~.~.",
"~.~.~.~.~.~.~.~.~.~.~.~.~.~.~.~.~.~.~.~.~.~.~.~.~.~.~.~.~.~.o h Z n.c.&.Y I U U R U U U R W W | | | ....| | | ~.~.~.~.~.~.~.~.~.~.~.~.~.~.~.~.~.~.~.~.~.~.~.~.~.",
"~.~.~.~.~.~.~.~.~.~.~.~.~.~.~.~.~.~.~.~.~.~.~.~.~.~.~.~.~.0 6 f V v.H p 2 I I U U U U U R R R W | E 2 ; U ..| ~.~.~.~.~.~.~.~.~.~.~.~.~.~.~.~.~.~.~.~.~.~.~.~.~.",
"~.~.~.~.~.~.~.~.~.~.~.~.~.~.~.~.~.~.~.~.~.~.~.~.~.~.~.~.U e 6 f b C N y 2 2 U U U U U U R R R W | R ; % U .. .~.~.~.~.~.~.~.~.~.~.~.~.~.~.~.~.~.~.~.~.~.~.~.~.~.",
"~.~.~.~.~.~.~.~.~.~.~.~.~.~.~.~.~.~.~.~.~.~.~.~.~.~.~.~.U e 6 f g m z 9 = : U R R U U U O.1.3.<.( ` ;.,.:.X.| ~.~.~.~.~.~.~.~.~.~.~.~.~.~.~.~.~.~.~.~.~.~.~.~.~.",
"~.~.~.~.~.~.~.~.~.~.~.~.~.~.~.~.~.~.~.~.~.~.~.~.~.~.~.~.~.~.~.~.g g s 4 - 2 I U U U I R 1.E.W.5.^ =.Y.Q.P.:...~.~.~.~.~.~.~.~.~.~.~.~.~.~.~.~.~.~.~.~.~.~.~.~.~.",
"~.~.~.~.~.~.~.~.~.~.~.~.~.~.~.~.~.~.~.~.~.~.~.~.~.~.~.~.~.~.~.~.d s 7 5 r Y I U U U 2 U 2.W.!.6.1 =.R.!.T.<.! ~.~.~.~.~.~.~.~.~.~.~.~.~.~.~.~.~.~.~.~.~.~.~.~.~.",
"~.~.~.~.~.~.~.~.~.~.~.~.~.~.~.~.~.~.~.~.~.~.~.~.~.~.~.~.~.~.~.~.~.s j M B p 2 P I U - 2 ' 6.l.;.< u 4.P.5.O.| ~.~.~.~.~.~.~.~.~.~.~.~.~.~.~.~.~.~.~.~.~.~.~.~.~.",
"~.~.~.~.~.~.~.~.~.~.~.~.~.~.~.~.~.~.~.~.~.~.~.~.~.~.~.~.~.~.~.~.~.d m J g.B r : P U ; + @ < 1 < O & 3 1 E W  .~.~.~.~.~.~.~.~.~.~.~.~.~.~.~.~.~.~.~.~.~.~.~.~.~.",
"~.~.~.~.~.~.~.~.~.~.~.~.~.~.~.~.~.~.~.~.~.~.~.~.~.~.~.~.~.~.~.~.n m J G.G.e.r : P U $ O       . X X   . > .. .~.~.~.~.~.~.~.~.~.~.~.~.~.~.~.~.~.~.~.~.~.~.~.~.~.",
"~.~.~.~.~.~.~.~.~.~.~.~.~.~.~.~.~.~.~.~.~.~.~.~.~.~.~.~.~.~.~.~.m.m.G.K.J.k.Y = P U ; X   .   X X . . X > |  .~.~.~.~.~.~.~.~.~.~.~.~.~.~.~.~.~.~.~.~.~.~.~.~.~.",
"~.~.~.~.~.~.~.~.~.~.~.~.~.~.~.~.~.~.~.~.~.~.~.~.~.~.~.~.~.~.~.~.~.F.G.J.U.j.) e P U ; # X X X X X . X + 2 (  .~.~.~.~.~.~.~.~.~.~.~.~.~.~.~.~.~.~.~.~.~.~.~.~.~.",
"~.~.~.~.~.~.~.~.~.~.~.~.~.~.~.~.~.~.~.~.~.~.~.~.~.~.~.~.~.~.~.~.~.B e.k.j.u.v z / L : > $ O X X X X X X 2 ..X.~.~.~.~.~.~.~.~.~.~.~.~.~.~.~.~.~.~.~.~.~.~.~.~.~.",
"~.~.~.~.~.~.~.~.~.~.~.~.~.~.~.~.~.~.~.~.~.~.~.~.~.~.~.~.~.~.~.~.q q r 2 ] v x.x.*.U L P - # X X X X . @ 2 (  .~.~.~.~.~.~.~.~.~.~.~.~.~.~.~.~.~.~.~.~.~.~.~.~.~.",
"~.~.~.~.~.~.~.~.~.~.~.~.~.~.~.~.~.~.~.~.~.~.~.~.~.~.~.~.~.~.~.~.* - * * , z G G v *.) R P ; # # # @ # $ 2 .. . .~.~.~.~.~.~.~.~.~.~.~.~.~.~.~.~.~.~.~.~.~.~.~.~.",
"~.~.~.~.~.~.~.~.~.~.~.~.~.~.~.~.~.~.~.~.~.~.~.~.~.~.~.~.~.~.~.- - - * - ; 0 l v G x.&.^ L P > > > > > > R |  . .| ~.~.~.~.~.~.~.~.~.~.~.~.~.~.~.~.~.~.~.~.~.~.~.",
"~.~.~.~.~.~.~.~.~.~.~.~.~.~.~.~.~.~.~.~.~.~.~.~.~.~.~.~.~.~.- - - - - - ; - ; l G x.D [ ^ U U U U U R R E | |  .| ~.~.~.~.~.~.~.~.~.~.~.~.~.~.~.~.~.~.~.~.~.~.~.",
"~.~.~.~.~.~.~.~.~.~.~.~.~.~.~.~.~.~.~.~.~.~.~.~.~.~.~.~.~.- - - - : - - - * * e c D H d.i.] T T T R R R ( |  .|  .| ~.~.~.~.~.~.~.~.~.~.~.~.~.~.~.~.~.~.~.~.~.~.",
"~.~.~.~.~.~.~.~.~.~.~.~.~.~.~.~.~.~.~.~.~.~.~.~.~.~.~.~.- - - - - - - - - - - 2 ~ [ d.S.Z.9.~ T R R U R R |  .| | | ~.~.~.~.~.~.~.~.~.~.~.~.~.~.~.~.~.~.~.~.~.~.",
"~.~.~.~.~.~.~.~.~.~.~.~.~.~.~.~.~.~.~.~.~.~.~.~.~.~.~.- - - - - - - - - - - - : L ^ i.Z.Z.a.7.] R T T R E | | |  . .~.~.~.~.~.~.~.~.~.~.~.~.~.~.~.~.~.~.~.~.~.~.",
"~.~.~.~.~.~.~.~.~.~.~.~.~.~.~.~.~.~.~.~.~.~.~.~.~.~.~.~.- - - - - - - - - - - : I ~ ] 7.a.Z.Z.0.^ L U U R R R | | | | ~.~.~.~.~.~.~.~.~.~.~.~.~.~.~.~.~.~.~.~.~.",
"~.~.~.~.~.~.~.~.~.~.~.~.~.~.~.~.~.~.~.~.~.~.~.~.~.~.~.- : - - - - - - - - - - - U U T R 7.Z.S.f.%.^ R R R R R | |  .|  .~.~.~.~.~.~.~.~.~.~.~.~.~.~.~.~.~.~.~.~.",
"~.~.~.~.~.~.~.~.~.~.~.~.~.~.~.~.~.~.~.~.~.~.~.~.~.~.- - - - - - - - - - - - - - > U L T ] 0.f.C.d.i.] T L E ..| | | | | ~.~.~.~.~.~.~.~.~.~.~.~.~.~.~.~.~.~.~.~.",
"~.~.~.~.~.~.~.~.~.~.~.~.~.~.~.~.~.~.~.~.~.~.~.~.~.- - - - - - - - - - - - - - 2 U U R R R ^ %.f.S.Z.7.( ! ..| | |  . .| ~.~.~.~.~.~.~.~.~.~.~.~.~.~.~.~.~.~.~.~.",
"~.~.~.~.~.~.~.~.~.~.~.~.~.~.~.~.~.~.~.~.~.~.~.~.~.- - - - - - - - - - - - - - I U U U R T L ^ i.Z.Z.p.7.} |  .| | | | | ~.~.~.~.~.~.~.~.~.~.~.~.~.~.~.~.~.~.~.~.",
"~.~.~.~.~.~.~.~.~.~.~.~.~.~.~.~.~.~.~.~.~.~.~.~.~.- - : - - - - - - - - - : I U U U U U T I U ] 7.a.N.V.s.+.Q  . .| |  .~.~.~.~.~.~.~.~.~.~.~.~.~.~.~.~.~.~.~.~.",
"~.~.~.~.~.~.~.~.~.~.~.~.~.~.~.~.~.~.~.~.~.~.~.~.~.- 3 : - - - - - - - - : 2 U U U U U U U U R I ~ q.A.H.f.@.Q Q | | | | ~.~.~.~.~.~.~.~.~.~.~.~.~.~.~.~.~.~.~.~.",
"~.~.~.~.~.~.~.~.~.~.~.~.~.~.~.~.~.~.~.~.~.~.~.~.- - - - - - - - - - 2 2 : U U R U U U U U U T L R 9.S.L.V.@.Q Q  .|  . .~.~.~.~.~.~.~.~.~.~.~.~.~.~.~.~.~.~.~.~.",
"~.~.~.~.~.~.~.~.~.~.~.~.~.~.~.~.~.~.~.~.~.~.~.- - - - - - - - - - - - U U U U R U R U U R U R I R 9.A.H.B.@.Q Q | | | | ~.~.~.~.~.~.~.~.~.~.~.~.~.~.~.~.~.~.~.~.",
"~.~.~.~.~.~.~.~.~.~.~.~.~.~.~.~.~.~.~.~.~.~.- - - - - - - - - : - - : U U U U U R U U U U R U T U %.B.N.s.+. .W  .|  .| ~.~.~.~.~.~.~.~.~.~.~.~.~.~.~.~.~.~.~.~.",
"~.~.~.~.~.~.~.~.~.~.~.~.~.~.~.~.~.~.~.~.~.~.~.- - - - - - - - - - U U U U U U R U U R U U U U U U ' 8.y.#.o.| | | | | | ~.~.~.~.~.~.~.~.~.~.~.~.~.~.~.~.~.~.~.~.",
"~.~.~.~.~.~.~.~.~.~.~.~.~.~.~.~.~.~.~.~.~.~.- - - - - - - - - - U U U U R U R U U U U U U U U R R E | |  .| |  .|  . .| ~.~.~.~.~.~.~.~.~.~.~.~.~.~.~.~.~.~.~.~.",
"~.~.~.~.~.~.~.~.~.~.~.~.~.~.~.~.~.~.~.~.~.- - - - - - - - - - - 2 U U U U U U U R U R U U T R R E W ! |  .| | | | | | | ~.~.~.~.~.~.~.~.~.~.~.~.~.~.~.~.~.~.~.~.",
"~.~.~.~.~.~.~.~.~.~.~.~.~.~.~.~.~.~.~.~.- - - - - - - - - - - : 2 U T R U U U U R U R U U U U E | | W |  .| | | | | |  .~.~.~.~.~.~.~.~.~.~.~.~.~.~.~.~.~.~.~.~.",
"~.~.~.~.~.~.~.~.~.~.~.~.~.~.~.~.~.~.~.- - - - - - - - - - - : : U U U U U R U U U U U U Y Y Y ( | |  . .| | |  .|  .|  .~.~.~.~.~.~.~.~.~.~.~.~.~.~.~.~.~.~.~.~.",
"~.~.~.~.~.~.~.~.~.~.~.~.~.~.~.~.~.~.- - - - - - - - - - - : 2 U U U U U R U U R U U U U Y ^ u ` |  . .| |  .| | | | | | ~.~.~.~.~.~.~.~.~.~.~.~.~.~.~.~.~.~.~.~.",
"~.~.~.~.~.~.~.~.~.~.~.~.~.~.~.~.~.- - - - - - - - - - 2 - 2 2 U U U U R U U U U R U R R r u i ' |  . .| | |  .|  .| X. .~.~.~.~.~.~.~.~.~.~.~.~.~.~.~.~.~.~.~.~.",
"~.~.~.~.~.~.~.~.~.~.~.~.~.~.~.~.- - - - - - - - 2 2 2 2 2 2 U U U U U U U R U R U R T U ^ i i _ (  .| | |  .|  . .|  .| ~.~.~.~.~.~.~.~.~.~.~.~.~.~.~.~.~.~.~.~.",
"~.~.~.~.~.~.~.~.~.~.~.~.~.~.~.- - - - - - - - : - 2 I U I U U U U U U U U U U U U U U U ~ u i _ |  . .| | | |  .| | | | ~.~.~.~.~.~.~.~.~.~.~.~.~.~.~.~.~.~.~.~.",
"~.~.~.~.~.~.~.~.~.~.~.~.~.~.- - - - - - - - - - I U U U U U U R U T U U U R R U T U I 2 1 w i ` X.| | |  .|  .| |  . .| ~.~.~.~.~.~.~.~.~.~.~.~.~.~.~.~.~.~.~.~.",
"~.~.~.~.~.~.~.~.~.~.~.- - - - - - - - - - - 2 2 U U U U U U U U U U U U U U R R R U 3 $ % q t ` | | | | | | | | | | | | ~.~.~.~.~.~.~.~.~.~.~.~.~.~.~.~.~.~.~.~.",
"~.~.~.~.~.~.~.~.~.~.- - - - - - - - - - - 2 2 U U R U U U U U U U R U U U U U U U - $ O @ 9 t ( | |  . .| | | | |  .| | ~.~.~.~.~.~.~.~.~.~.~.~.~.~.~.~.~.~.~.~.",
"~.~.~.~.~.~.- - - - - - - - - - - 2 2 2 2 2 U U R U U R U U R U U U U R U 2 ; $ ; ; + O O 9 t / ^ ( |  . . .|  .| | |  . .~.~.~.~.~.~.~.~.~.~.~.~.~.~.~.~.~.~.~.",
"~.~.~.~.~.- - - - - - - - - - - - I U U I I U U U U U U R U U R U U R U U ; O O X X X X @ 9 r / t / | |  .| | | | |  .| |  .~.~.~.~.~.~.~.~.~.~.~.~.~.~.~.~.~.~.",
"~.~.~.~.~.- - - - - - - : > : 2 - 2 U U R U U U R U U R U U U U U R R R U ; X . X X X X @ % 9 t _ _ ^ ~ ( |  .|  .| | | | | | ~.~.~.~.~.~.~.~.~.~.~.~.~.~.~.~.~.",
"~.~.~.~.~.~.~.~.~.~.~.~.U I 2 U I U U U U U U U U U R U U R U R U U U R 2 ; O X X X X X X + < ] >.{ e ; U .. .|  .|  .| | | ~.~.~.~.~.~.~.~.~.~.~.~.~.~.~.~.~.~.",
"~.~.~.~.~.~.~.~.~.~.~.~.U U U U U U U U U R U R U U U U U U U U R U U U : $ X X X X X X X X @ i t.>.9 + ; R | | | | | |  .| | ~.~.~.~.~.~.~.~.~.~.~.~.~.~.~.~.~.",
"~.~.~.~.~.~.~.~.~.~.~.~.~.R U U R U U R R U U U U U R I R U R U R R U ; ; # X X X X X X X   @ ] t.>.9 O + > U ( |  .|  .| |  .| ~.~.~.~.~.~.~.~.~.~.~.~.~.~.~.~.",
"~.~.~.~.~.~.~.~.~.~.~.~.U U U U R U U U U U U U R U R U U U U U U U 2 # O X X X X X X X X X @ ] t.-.9 X X O ; R  .X.| |  .|  .|  .~.~.~.~.~.~.~.~.~.~.~.~.~.~.~.",
"~.~.~.~.~.~.~.~.~.~.~.~.R U U U U U U R R U U U U U U R U U U U U 2 $ + X X X X X X X X X X & w { i % X . X @ U  . . .| | | | |  .~.~.~.~.~.~.~.~.~.~.~.~.~.~.~.",
"~.~.~.~.~.~.~.~.~.~.U U U U R U R U ~.~.~.~.U R U R U U U R U U ; $ O X X X X X X X X X X X O % 4 4 @ X X X O ~.~.X.|  .|  . .| | ~.~.~.~.~.~.~.~.~.~.~.~.~.~.~.",
"~.~.~.~.~.~.~.~.~.~.U U R U R U U ~.~.~.~.~.U U U U U R U R R U ; O X X X X X X O X X X X X X X X X X X X X X ~.~.~. .| | | | | | ~.~.~.~.~.~.~.~.~.~.~.~.~.~.~.",
"~.~.~.~.~.~.~.~.~.~.~.R U U U U ~.~.~.~.~.U U R U R U U T R R - # X X X X X X X X X X X X X X X X . X X X X ~.~.~.~.~.|  .|  .|  .| ~.~.~.~.~.~.~.~.~.~.~.~.~.~.",
"~.~.~.~.~.~.~.~.~.~.~.~.~.~.~.~.~.~.~.~.R U U U R U R U U R ~.~.X X X X X X X X X X X ~.~.X X X X X X X X ~.~.~.~.~.~.~. .| | |  .|  .~.~.~.~.~.~.~.~.~.~.~.~.~.",
"~.~.~.~.~.~.~.~.~.~.~.~.~.~.~.~.~.~.~.U U U U R U U U U U ~.~.~.~.X X X X X X X X X ~.~.~.X X X X X X X ~.~.~.~.~.~.~.~.~.|  .| | | | | ~.~.~.~.~.~.~.~.~.~.~.~.",
"~.~.~.~.~.~.~.~.~.~.~.~.~.~.~.~.~.~.U U U U U ~.~.~.~.~.~.~.~.~.~.~.X X X X X X X X ~.~.~.X X X X X X X X ~.~.~.~.~.~.~.~.~.|  .| |  .|  .| ~.~.~.~.~.~.~.~.~.~.",
"~.~.~.~.~.~.~.~.~.~.~.~.~.~.~.~.~.~.R U R U ~.~.~.~.~.~.~.~.~.~.~.~.~.X X O X X X X ~.~.~.X X X X X X X ~.~.~.~.~.~.~.~.~.~.~.| |  .| | | | ~.~.~.~.~.~.~.~.~.~.",
"~.~.~.~.~.~.~.~.~.~.~.~.~.~.~.~.~.~.~.U U ~.~.~.~.~.~.~.~.~.~.~.~.~.~.O X X X X X ~.~.~.~.X X X X X X ~.~.~.~.~.~.~.~.~.~.~.~.~.|  .| | | ~.~.~.~.~.~.~.~.~.~.~.",
"~.~.~.~.~.~.~.~.~.~.~.~.~.~.~.~.~.~.~.~.~.~.~.~.~.~.~.~.~.~.~.~.~.~.~.X X X X X ~.~.~.~.~.X X X X O ~.~.~.~.~.~.~.~.~.~.~.~.~.~.~.~.~.~.~.~.~.~.~.~.~.~.~.~.~.~.",
"~.~.~.~.~.~.~.~.~.~.~.~.~.~.~.~.~.~.~.~.~.~.~.~.~.~.~.~.~.~.~.~.~.~.~.X X X X ~.~.~.~.~.~.X X X X ~.~.~.~.~.~.~.~.~.~.~.~.~.~.~.~.~.~.~.~.~.~.~.~.~.~.~.~.~.~.~.",
"~.~.~.~.~.~.~.~.~.~.~.~.~.~.~.~.~.~.~.~.~.~.~.~.~.~.~.~.~.~.~.~.~.~.~.~.~.~.~.~.~.~.~.~.~.X X X ~.~.~.~.~.~.~.~.~.~.~.~.~.~.~.~.~.~.~.~.~.~.~.~.~.~.~.~.~.~.~.~.",
"~.~.~.~.~.~.~.~.~.~.~.~.~.~.~.~.~.~.~.~.~.~.~.~.~.~.~.~.~.~.~.~.~.~.~.~.~.~.~.~.~.~.~.~.~.X X ~.~.~.~.~.~.~.~.~.~.~.~.~.~.~.~.~.~.~.~.~.~.~.~.~.~.~.~.~.~.~.~.~.",
"~.~.~.~.~.~.~.~.~.~.~.~.~.~.~.~.~.~.~.~.~.~.~.~.~.~.~.~.~.~.~.~.~.~.~.~.~.~.~.~.~.~.~.~.~.~.~.~.~.~.~.~.~.~.~.~.~.~.~.~.~.~.~.~.~.~.~.~.~.~.~.~.~.~.~.~.~.~.~.~.",
"~.~.~.~.~.~.~.~.~.~.~.~.~.~.~.~.~.~.~.~.~.~.~.~.~.~.~.~.~.~.~.~.~.~.~.~.~.~.~.~.~.~.~.~.~.~.~.~.~.~.~.~.~.~.~.~.~.~.~.~.~.~.~.~.~.~.~.~.~.~.~.~.~.~.~.~.~.~.~.~.",
"~.~.~.~.~.~.~.~.~.~.~.~.~.~.~.~.~.~.~.~.~.~.~.~.~.~.~.~.~.~.~.~.~.~.~.~.~.~.~.~.~.~.~.~.~.~.~.~.~.~.~.~.~.~.~.~.~.~.~.~.~.~.~.~.~.~.~.~.~.~.~.~.~.~.~.~.~.~.~.~."
};
