/* XPM */
static char *result[] = {
/* columns rows colors chars-per-pixel */
"80 80 172 2 ",
"   c #120C17",
".  c #120E1A",
"X  c #14121D",
"o  c #3F271C",
"O  c #151523",
"+  c #181723",
"@  c #1A1925",
"#  c #161729",
"$  c #17192E",
"%  c #1C1E2B",
"&  c #171923",
"*  c #0F1735",
"=  c #0F1A36",
"-  c #151C36",
";  c #191C34",
":  c #161D3A",
">  c #191E3A",
",  c #201E32",
"<  c #1D212C",
"1  c #1F2B34",
"2  c #19213E",
"3  c #1C2630",
"4  c #23212E",
"5  c #2E2A2F",
"6  c #3A2725",
"7  c #3E2B24",
"8  c #372728",
"9  c #232532",
"0  c #2A2534",
"q  c #252B36",
"w  c #282A37",
"e  c #242539",
"r  c #232B3B",
"t  c #292E3E",
"y  c #332C35",
"u  c #25323C",
"i  c #2A3439",
"p  c #3B393D",
"a  c #412719",
"s  c #44291B",
"d  c #492D1C",
"f  c #4E301E",
"g  c #52331E",
"h  c #4F3220",
"j  c #4A3527",
"k  c #5D3C23",
"l  c #402D34",
"z  c #4F3230",
"x  c #47363C",
"c  c #503538",
"v  c #583938",
"b  c #643F22",
"n  c #5A4728",
"m  c #5D4927",
"M  c #504A30",
"N  c #5E4231",
"B  c #4D513B",
"V  c #6D4629",
"C  c #754B2A",
"Z  c #774929",
"A  c #7E5028",
"S  c #644038",
"D  c #6C453B",
"F  c #634037",
"G  c #7A4633",
"H  c #77533B",
"J  c #736939",
"K  c #7F7735",
"L  c #141F44",
"P  c #191E42",
"I  c #162146",
"U  c #1B2446",
"Y  c #1F2942",
"T  c #162149",
"R  c #1C2549",
"E  c #1E284E",
"W  c #1F2A54",
"Q  c #1D2A58",
"!  c #1F2652",
"~  c #212544",
"^  c #242C45",
"/  c #2C2B42",
"(  c #222C4B",
")  c #312F40",
"_  c #2C3343",
"`  c #243149",
"'  c #293549",
"]  c #323445",
"[  c #3E3644",
"{  c #353B4A",
"}  c #36374E",
"|  c #222D56",
" . c #222D58",
".. c #202753",
"X. c #263156",
"o. c #283156",
"O. c #25385A",
"+. c #313655",
"@. c #373A54",
"#. c #3C3D54",
"$. c #293E62",
"%. c #433C45",
"&. c #4A3D43",
"*. c #443340",
"=. c #2B474E",
"-. c #3A414F",
";. c #2C4A52",
":. c #2A4456",
">. c #3B4251",
",. c #2F5059",
"<. c #2A4364",
"1. c #2F536D",
"2. c #32596E",
"3. c #355C73",
"4. c #386669",
"5. c #3A6B74",
"6. c #3D7275",
"7. c #4E4445",
"8. c #46414E",
"9. c #534745",
"0. c #5F4E45",
"q. c #554845",
"w. c #4F5440",
"e. c #545B4E",
"r. c #575C40",
"t. c #424A5A",
"y. c #4E4851",
"u. c #5D4B50",
"i. c #605046",
"p. c #6D5744",
"a. c #6F5944",
"s. c #64554E",
"d. c #7A5D43",
"f. c #7C6145",
"g. c #767843",
"h. c #4F5861",
"j. c #505366",
"k. c #505961",
"l. c #40787A",
"z. c #835329",
"x. c #8D4E31",
"c. c #855C3B",
"v. c #895A30",
"b. c #8D623E",
"n. c #9D6633",
"m. c #80793B",
"M. c #A96E36",
"N. c #8E6C44",
"B. c #80654C",
"V. c #8C6C4A",
"C. c #856644",
"Z. c #926E43",
"A. c #A27842",
"S. c #A97D42",
"D. c #7E867D",
"F. c #838545",
"G. c #868657",
"H. c #BA8844",
"J. c #80887E",
"K. c #8E9273",
"L. c #C79043",
"P. c #3F7487",
"I. c #427C82",
"U. c #6F7886",
"Y. c #47898C",
"T. c #468396",
"R. c #4F9C9B",
"E. c #4B94A1",
"W. c #53A5AC",
"Q. c #53A3A6",
"!. c #5DBBBA",
"~. c None",
/* pixels */
"~.~.~.~.~.~.~.~.~.~.~.~.~.~.~.~.~.~.~.~.~.~.~.~.~.~.~.~.~.~.~.~.~.~.~.~.~.~.~.~.~.~.~.~.~.~.~.~.~.~.~.~.~.~.~.~.~.~.~.~.~.~.~.~.~.~.~.~.~.~.~.~.~.~.~.~.~.~.~.~.",
"~.~.~.~.~.~.~.~.~.~.~.~.~.~.~.~.~.~.~.~.~.~.~.~.~.~.~.~.~.~.~.~.~.~.~.~.~.~.~.~.~.~.~.~.~.~.~.~.~.~.~.~.~.~.~.~.~.~.~.~.~.~.~.~.~.~.~.~.~.~.~.~.~.~.~.~.~.~.~.~.",
"~.~.~.~.~.~.~.~.~.~.~.~.~.~.~.~.~.~.~.~.~.~.~.~.~.~.~.~.~.~.~.~.~.~.~.~.~.~.~.~.~.~.~.~.~.~.~.~.~.~.~.~.~.~.~.~.~.~.~.~.~.~.~.~.~.~.~.~.~.~.~.~.~.~.~.~.~.~.~.~.",
"~.~.~.~.~.~.~.~.~.~.~.~.~.~.~.~.~.~.~.~.~.~.~.~.~.~.~.~.~.~.~.~.~.~.~.~.~.~.~.~.~.~.~.~.~.~.~.~.~.~.~.~.~.~.~.~.~.~.~.~.~.~.~.~.~.~.~.~.~.~.~.~.~.~.~.~.~.~.~.~.",
"~.~.~.~.~.~.~.~.~.~.~.~.~.~.~.~.~.~.~.~.~.~.~.~.~.~.~.~.~.~.~.~.~.~.~.~.~.~.~.~.~.~.~.~.~.~.~.~.~.~.~.~.~.~.~.~.~.~.~.~.~.~.~.~.~.~.~.~.~.~.~.~.~.~.~.~.~.~.~.~.",
"~.~.~.~.~.~.~.~.~.~.~.~.~.~.~.~.~.~.~.~.~.~.~.~.~.~.~.~.~.~.~.~.~.~.~.~.~.~.~.~.~.~.~.~.~.~.~.~.~.~.~.~.~.~.~.~.~.~.~.~.~.~.~.~.~.~.~.~.~.~.~.~.~.~.~.~.~.~.~.~.",
"~.~.~.~.~.~.~.~.~.~.~.~.~.~.~.~.~.~.~.~.~.~.~.~.~.~.~.~.~.~.~.~.~.~.~.~.~.~.~.~.~.~.~.~.~.~.~.~.~.~.~.~.~.~.~.~.~.~.~.~.~.~.~.~.~.~.~.~.~.~.~.~.~.~.~.~.~.~.~.~.",
"~.~.~.~.~.~.~.~.~.~.~.~.~.~.~.~.~.~.~.~.~.~.~.~.~.~.~.~.~.~.~.~.~.~.~.~.~.~.~.~.~.~.~.~.~.~.~.~.~.~.~.~.~.~.~.~.~.~.~.~.~.~.~.~.~.~.~.~.~.~.~.~.~.~.~.~.~.~.~.~.",
"~.~.~.~.~.~.~.~.~.~.~.~.~.~.~.~.~.~.~.~.~.~.~.~.~.~.~.~.~.~.~.~.~.~.~.~.~.~.~.~.~.~.~.~.~.~.~.~.~.~.~.~.~.~.~.~.~.~.~.~.~.~.~.~.~.~.~.~.~.~.~.~.~.~.~.~.~.~.~.~.",
"~.~.~.~.~.~.~.~.~.~.~.~.~.~.~.~.~.~.~.~.~.~.~.~.~.~.~.~.~.~.~.~.~.~.~.~.~.~.~.~.~.~.~.~.~.~.~.~.~.~.~.~.~.~.~.~.~.~.~.~.~.~.~.~.~.~.~.~.~.~.~.~.~.~.~.~.~.~.~.~.",
"~.~.~.~.~.~.~.~.~.~.~.~.~.~.~.~.~.~.~.~.~.~.~.~.~.~.~.~.~.~.~.~.~.~.~.~.U U U U U U ~.~.~.a a ~.~.~.~.~.~.~.~.~.~.~.~.~.~.~.~.~.~.~.~.~.~.~.~.~.~.~.~.~.~.~.~.~.",
"~.~.~.~.~.~.~.~.~.~.~.~.~.~.~.~.~.~.~.~.~.~.~.~.~.~.~.~.~.~.~.~.~.~.~.R R U U U R R T ~.~.g g f ~.~.~.~.~.~.~.~.~.~.~.~.~.~.~.~.~.~.~.~.~.~.~.~.~.~.~.~.~.~.~.~.",
"~.~.~.~.~.~.~.~.~.~.~.~.~.~.~.~.~.~.~.~.~.~.~.~.~.~.~.~.~.| | ~.~.| E R R U U R U U I R x C C V g a s ~.~.~.~.~.~.~.~.~.~.~.~.~.~.~.~.~.~.~.~.~.~.~.~.~.~.~.~.~.",
"~.~.~.~.~.~.~.~.~.~.~.~.~.~.~.~.~.~.~.~.~.~.~.~.~.~.~.~.| | |  . .| | R U U U U U U U R &.c.n.A g a s s ~.~.~.~.~.~.~.~.~.~.~.~.~.~.~.~.~.~.~.~.~.~.~.~.~.~.~.~.",
"~.~.~.~.~.~.~.~.~.~.~.~.~.~.~.~.~.~.~.~.~.~.~.~.~.~.~. . . . .|  .| | E U R U U R U T R &.b.M.z.g a a s ~.~.~.~.~.~.~.~.~.~.~.~.~.~.~.~.~.~.~.~.~.~.~.~.~.~.~.~.",
"~.~.~.~.~.~.~.~.~.~.~.~.~.~.~.~.~.~.~.~.~.~.~.~.~.~.|  . . . .|  .| W R U U U U U U T R &.b.M.z.g a s ~.~.~.~.~.~.~.~.~.~.~.~.~.~.~.~.~.~.~.~.~.~.~.~.~.~.~.~.~.",
"~.~.~.~.~.~.~.~.~.~.~.~.~.~.~.~.~.~.~.~.~.~.~.~.~.| | ..( .... . ...W R U U U R U U L Y x c.n.A g o ~.~.~.~.~.~.~.~.~.~.~.~.~.~.~.~.~.~.~.~.~.~.~.~.~.~.~.~.~.~.",
"~.~.~.~.~.~.~.~.~.~.~.~.~.~.~.~.~.~.~.~.~.~.~.~.~. .| U > 2 E  ...R U U U U U U U U L 2 p H v.V g 7 0 ~.~.~.~.~.~.~.~.~.~.~.~.~.~.~.~.~.~.~.~.~.~.~.~.~.~.~.~.~.",
"~.~.~.~.~.~.~.~.~.~.~.~.~.~.~.~.~.~.~.~.~.~.~.~.~. ...U $ ; ~ | ..E R R U R U U U U L > y n C k d 6 e R ~.~.~.~.~.~.~.~.~.~.~.~.~.~.~.~.~.~.~.~.~.~.~.~.~.~.~.~.",
"~.~.~.~.~.~.~.~.~.~.~.~.~.~.~.~.~.~.~.~.~.~.~.~.~.| X.:.,.;.` ( <.3.1.O.U U U R U U : - 0 z V g d 6 e R ~.~.~.~.~.~.~.~.~.~.~.~.~.~.~.~.~.~.~.~.~.~.~.~.~.~.~.~.",
"~.~.~.~.~.~.~.~.~.~.~.~.~.~.~.~.~.~.~.~.~.~.~.~.~...$.P.Q.Y.:.u 5.W.E.1.R P R U U U L * 4 7 g g ~.~.~.~.~.~.~.~.~.~.~.~.~.~.~.~.~.~.~.~.~.~.~.~.~.~.~.~.~.~.~.~.",
"~.~.~.~.~.~.~.~.~.~.~.~.~.~.~.~.~.~.~.~.~.~.~.~.~.! <.T.!.R.=.1 6.!.W.2.U P U U U U 2 r 5 7 s d ~.~.~.~.~.~.~.~.~.~.~.~.~.~.~.~.~.~.~.~.~.~.~.~.~.~.~.~.~.~.~.~.",
"~.~.~.~.~.~.~.~.~.~.~.~.~.~.~.~.~.~.~.~.~.~.~.~.~...$.4.P.4.u < ;.6.5.' ; : U U U 1 p B M j a ~.~.~.~.~.~.~.~.~.~.~.~.~.~.~.~.~.~.~.~.~.~.~.~.~.~.~.~.~.~.~.~.~.",
"~.~.~.~.~.~.~.~.~.~.~.~.~.~.~.~.~.~.~.~.~.~.~.~.~.Q W ` 1 3 @ X < 3 3 < O - U L : r w.g.J n d ~.~.~.~.~.~.~.~.~.~.~.~.~.~.~.~.~.~.~.~.~.~.~.~.~.~.~.~.~.~.~.~.~.",
"~.~.~.~.~.~.~.~.~.~.~.~.~.~.~.~.~.~.~.~.~.~.~.~.~. ...> X   X X X       X $ U 2 = r e.G.G.J m n ~.~.~.~.~.~.~.~.~.~.~.~.~.~.~.~.~.~.~.~.~.~.~.~.~.~.~.~.~.~.~.~.",
"~.~.~.~.~.~.~.~.~.~.~.~.~.~.~.~.~.~.~.~.~.~.~.~.~. .( > X   . X X .   X & - 2 I : ~ j.J.K.G.m.K ~.~.~.~.~.~.~.~.~.~.~.~.~.~.~.~.~.~.~.~.~.~.~.~.~.~.~.~.~.~.~.~.",
"~.~.~.~.~.~.~.~.~.~.~.~.~.~.~.~.~.~.~.~.~.~.~.~.~. ...2 + X X X X X X X O - I 2 0 ) j.U.J.G.F.~.~.~.~.~.~.~.~.~.~.~.~.~.~.~.~.~.~.~.~.~.~.~.~.~.~.~.~.~.~.~.~.~.",
"~.~.~.~.~.~.~.~.~.~.~.~.~.~.~.~.~.~.~.~.~.~.~.~.~. .( 2 O . . X X X X $ - 2 I / v v u.j.h.e.r.~.~.~.~.~.~.~.~.~.~.~.~.~.~.~.~.~.~.~.~.~.~.~.~.~.~.~.~.~.~.~.~.~.",
"~.~.~.~.~.~.~.~.~.~.~.~.~.~.~.~.~.~.~.~.~.~.~.~.~. .( > O X X X X X # ; U U R x G x.v ) Y r q r ~.~.~.~.~.~.~.~.~.~.~.~.~.~.~.~.~.~.~.~.~.~.~.~.~.~.~.~.~.~.~.~.",
"~.~.~.~.~.~.~.~.~.~.~.~.~.~.~.~.~.~.~.~.~.~.~.~. . ...U $ # # # # # ; L R / x v G G z , * * * - ~.~.~.~.~.~.~.~.~.~.~.~.~.~.~.~.~.~.~.~.~.~.~.~.~.~.~.~.~.~.~.~.",
"~.~.~.~.~.~.~.~.~.~.~.~.~.~.~.~.~.~.~.~.~.~.~.|  . .| R > > > > > > I L ~ v G G b l 0 - * - - - - ~.~.~.~.~.~.~.~.~.~.~.~.~.~.~.~.~.~.~.~.~.~.~.~.~.~.~.~.~.~.~.",
"~.~.~.~.~.~.~.~.~.~.~.~.~.~.~.~.~.~.~.~.~.~.~.|  . .| ( R U R R U U ~ ( [ D x.G y - - - - - - - - : ~.~.~.~.~.~.~.~.~.~.~.~.~.~.~.~.~.~.~.~.~.~.~.~.~.~.~.~.~.~.",
"~.~.~.~.~.~.~.~.~.~.~.~.~.~.~.~.~.~.~.~.~.~.| | | | | W R R R U T T ] i.d.H D c 0 = = - - - - - - - - ~.~.~.~.~.~.~.~.~.~.~.~.~.~.~.~.~.~.~.~.~.~.~.~.~.~.~.~.~.",
"~.~.~.~.~.~.~.~.~.~.~.~.~.~.~.~.~.~.~.~.~.~. .| | | ..E R U U R U R 7.Z.S.d.[ ~ 2 - - - - - : - - - - - ~.~.~.~.~.~.~.~.~.~.~.~.~.~.~.~.~.~.~.~.~.~.~.~.~.~.~.~.",
"~.~.~.~.~.~.~.~.~.~.~.~.~.~.~.~.~.~.~.~.~.~.|  .| | ..E R U L ..] 7.a.Z.Z.i.^ L = - - ; - - - - - - - - - ~.~.~.~.~.~.~.~.~.~.~.~.~.~.~.~.~.~.~.~.~.~.~.~.~.~.~.",
"~.~.~.~.~.~.~.~.~.~.~.~.~.~.~.~.~.~.~.~.~.| | | | E R R U T L ^ 0.Z.Z.a.7.] ~ L : - - - - - - - - - - - ~.~.~.~.~.~.~.~.~.~.~.~.~.~.~.~.~.~.~.~.~.~.~.~.~.~.~.~.",
"~.~.~.~.~.~.~.~.~.~.~.~.~.~.~.~.~.~.~.~.| |  . ...E R U U R ^ %.f.S.Z.7.( T U U : - - - - - - - - - - : - ~.~.~.~.~.~.~.~.~.~.~.~.~.~.~.~.~.~.~.~.~.~.~.~.~.~.~.",
"~.~.~.~.~.~.~.~.~.~.~.~.~.~.~.~.~.~.~.~.|  .| | | E E T T ] i.f.C.d.i.] U L U L : - - - - - - - - - - - - - ~.~.~.~.~.~.~.~.~.~.~.~.~.~.~.~.~.~.~.~.~.~.~.~.~.~.",
"~.~.~.~.~.~.~.~.~.~.~.~.~.~.~.~.~.~.~.~.| | | | | | W E Y 7.Z.S.f.%.^ R U U U I : - - - - - - - - - - - - - - ~.~.~.~.~.~.~.~.~.~.~.~.~.~.~.~.~.~.~.~.~.~.~.~.~.",
"~.~.~.~.~.~.~.~.~.~.~.~.~.~.~.~.~.~.~.~.|  .| | Q | X.} 7.p.Z.Z.i.^ L U U U U U 2 2 : - - - - - - - - - - - - ~.~.~.~.~.~.~.~.~.~.~.~.~.~.~.~.~.~.~.~.~.~.~.~.~.",
"~.~.~.~.~.~.~.~.~.~.~.~.~.~.~.~.~.~.~.~.| | |  .| Q +.s.N.N.a.7.] ~ L R U U R U U L > : - - - - - 2 - - - - - ~.~.~.~.~.~.~.~.~.~.~.~.~.~.~.~.~.~.~.~.~.~.~.~.~.",
"~.~.~.~.~.~.~.~.~.~.~.~.~.~.~.~.~.~.~.~. .| | | Q Q @.B.H.A.q.R L R R R U R U U U U : : - ; - - - - - - - - - ~.~.~.~.~.~.~.~.~.~.~.~.~.~.~.~.~.~.~.~.~.~.~.~.~.",
"~.~.~.~.~.~.~.~.~.~.~.~.~.~.~.~.~.~.~.~.| | X. .Q Q #.V.L.S.9.U L U U U U U U U R U U P 2 ; - - - ; - - - - - - ~.~.~.~.~.~.~.~.~.~.~.~.~.~.~.~.~.~.~.~.~.~.~.~.",
"~.~.~.~.~.~.~.~.~.~.~.~.~.~.~.~.~.~.~.~. .|  .| Q Q @.B.H.A.9.R L U U R U U U T U U U U I : - - - - - - - - - - - ~.~.~.~.~.~.~.~.~.~.~.~.~.~.~.~.~.~.~.~.~.~.~.",
"~.~.~.~.~.~.~.~.~.~.~.~.~.~.~.~.~.~.~.~.|  .| |  .Q +.s.V.B.%.R L ! R U U U U R U U R U U : : : - - - - : - - - - - ~.~.~.~.~.~.~.~.~.~.~.~.~.~.~.~.~.~.~.~.~.~.",
"~.~.~.~.~.~.~.~.~.~.~.~.~.~.~.~.~.~.~.~.| | |  ...| X.#.y.%._ R U T U U R U U U U U R U U U I : - - - - - - - - - ~.~.~.~.~.~.~.~.~.~.~.~.~.~.~.~.~.~.~.~.~.~.~.",
"~.~.~.~.~.~.~.~.~.~.~.~.~.~.~.~.~.~.~.~. .| | | |  .|  .o...E R U U U U U R U R R U R U U U U 2 - - - - - - - - - - ~.~.~.~.~.~.~.~.~.~.~.~.~.~.~.~.~.~.~.~.~.~.",
"~.~.~.~.~.~.~.~.~.~.~.~.~.~.~.~.~.~.~.~.| | |  .|  .|  .Q Q W ( E U U U U U U U U U U U R U U : 2 - - - - - - - - - - ~.~.~.~.~.~.~.~.~.~.~.~.~.~.~.~.~.~.~.~.~.",
"~.~.~.~.~.~.~.~.~.~.~.~.~.~.~.~.~.~.~.~.| | | | | | |  .|  .| ..E R U R U U U U R U U R U U U I - - - - - - - - - 2 - - ~.~.~.~.~.~.~.~.~.~.~.~.~.~.~.~.~.~.~.~.",
"~.~.~.~.~.~.~.~.~.~.~.~.~.~.~.~.~.~.~.~.|  . .|  .| | | |  . .| ( Y Y R U R U R U U U U U U U P 2 - - - - - - - - - - - - ~.~.~.~.~.~.~.~.~.~.~.~.~.~.~.~.~.~.~.",
"~.~.~.~.~.~.~.~.~.~.~.~.~.~.~.~.~.~.~.~.| | | | | |  .| |  . .| ` u r Y R U U U U U U U U U U U 2 2 : - - - - - - - - - - - ~.~.~.~.~.~.~.~.~.~.~.~.~.~.~.~.~.~.",
"~.~.~.~.~.~.~.~.~.~.~.~.~.~.~.~.~.~.~.~.|  .|  .|  .| | |  .| ` ' i i Y U U U U U R U R U U U U I I 2 - - - - = - - - - - - - ~.~.~.~.~.~.~.~.~.~.~.~.~.~.~.~.~.",
"~.~.~.~.~.~.~.~.~.~.~.~.~.~.~.~.~.~.~.~.| | | |  .|  .| |  .| | ' i i ^ R U U R U R U U U U R R R U I 2 2 2 2 - - - - - - - - - ~.~.~.~.~.~.~.~.~.~.~.~.~.~.~.~.",
"~.~.~.~.~.~.~.~.~.~.~.~.~.~.~.~.~.~.~.~. .|  . . .| | | |  .| | _ i i 1 U U U U U U U U U R U U U U U U U I 2 2 - - - - - - - - - ~.~.~.~.~.~.~.~.~.~.~.~.~.~.~.",
"~.~.~.~.~.~.~.~.~.~.~.~.~.~.~.~.~.~.~.~.| | | | |  .|  .|  .| o.` i r 1 : I U U U U R U U U U U U U U U U U U 2 2 - - - - - - - - - ~.~.~.~.~.~.~.~.~.~.~.~.~.~.",
"~.~.~.~.~.~.~.~.~.~.~.~.~.~.~.~.~.~.~.~. .| |  .| | | |  . . .| ^ t q ; $ : U U E R U U U U R U U U R U U U U U I 2 - - - - - - - - - - - ~.~.~.~.~.~.~.~.~.~.~.",
"~.~.~.~.~.~.~.~.~.~.~.~.~.~.~.~.~.~.~.~.|  .| |  .| | | | | | ( ^ / 9 @ O - > I I U U Y U U U R U R U U U U R U U 2 - - : - : - - - - - - - ~.~.~.~.~.~.~.~.~.~.",
"~.~.~.~.~.~.~.~.~.~.~.~.~.~.~.~.~.~.~.| | | |  .| |  . . .| ( ( ^ / 9 @ O O $ ; ; ; > U U U U U U U U R E U U U Y I I : 2 2 : - - - - - - - - - - - ~.~.~.~.~.~.",
"~.~.~.~.~.~.~.~.~.~.~.~.~.~.~.~.~.~.| | | | | | | | |  .| | ^ / i t 9 @ X X X O X @ ; I U U U R U U U U T U R U U U U U U 2 2 - - - - - - - - - - - - ~.~.~.~.~.",
"~.~.~.~.~.~.~.~.~.~.~.~.~.~.~.~.~. .|  . .|  .|  . . .( ~ ^ _ _ t 0 % O X X X X X X ; 2 U U U U U R U U U U U U U U U U U U I 2 > : > - - - - - - - - ~.~.~.~.~.",
"~.~.~.~.~.~.~.~.~.~.~.~.~.~.~.~.~.~. .| | | | |  . .| Y 3 e { >.i 4 O X X X X X X X ; U R R U U U R U U U U U U R U U R U U U I I I 2 2 ~.~.~.~.~.~.~.~.~.~.~.~.",
"~.~.~.~.~.~.~.~.~.~.~.~.~.~.~.~.~.| | |  .|  .| | ..~ - @ 9 >.t.] + X X X X X X X O $ 2 U U R I U U R U U R R U U U U U U U R R U U R R ~.~.~.~.~.~.~.~.~.~.~.~.",
"~.~.~.~.~.~.~.~.~.~.~.~.~.~.~.~. .|  .| | |  .| ( R > # X 9 -.t.] + . X X X X X X O O ; : I U E U U U U U U U U U U U U U U Y U R R R ~.~.~.~.~.~.~.~.~.~.~.~.~.",
"~.~.~.~.~.~.~.~.~.~.~.~.~.~.~.| | | | | |  . .| R ; O . X 9 -.t.] @ . X X X X X X X X X $ > R U U R U U U R U U R U U U U U U U U U U R ~.~.~.~.~.~.~.~.~.~.~.~.",
"~.~.~.~.~.~.~.~.~.~.~.~.~.~.~. .|  .| | |  . .| ~ # X . X 4 i { w + X X X X X X X X X X O ; 2 2 U U U U R U U R U U U R U U U U R U U U ~.~.~.~.~.~.~.~.~.~.~.~.",
"~.~.~.~.~.~.~.~.~.~.~.~.~.~.~.| | |  .| | |  .~.~.O X X X + 4 4 % O X X X X X X X X X X X O # 2 U U U U U U U U R U ~.~.~.~.U R U U R U U U ~.~.~.~.~.~.~.~.~.~.",
"~.~.~.~.~.~.~.~.~.~.~.~.~.~.~.|  .| | | |  .~.~.~.X X X X X X X X X X X X X X X X X X X X X O ; I R Y U R U U U U U ~.~.~.~.~.U U U U U U R ~.~.~.~.~.~.~.~.~.~.",
"~.~.~.~.~.~.~.~.~.~.~.~.~.~.|  .| | |  .| ~.~.~.~.~.X X X X X X X X X X X X X X X X X X X X X # 2 R U U U U U R U R U ~.~.~.~.~.R U R U U ~.~.~.~.~.~.~.~.~.~.~.",
"~.~.~.~.~.~.~.~.~.~.~.~.~. .|  .| | |  .~.~.~.~.~.~.~.X X X X X X X X ~.~.X O X X X X X X X X O ~.~.U R U R U U U U U U ~.~.~.~.~.~.~.~.~.~.~.~.~.~.~.~.~.~.~.~.",
"~.~.~.~.~.~.~.~.~.~.~.~.| | | | |  .| ~.~.~.~.~.~.~.~.~.X X X X X X X ~.~.~.X X X X X X X X X ~.~.~.~.R U U U U R U R U U ~.~.~.~.~.~.~.~.~.~.~.~.~.~.~.~.~.~.~.",
"~.~.~.~.~.~.~.~.~.~.|  .|  .| | | | ~.~.~.~.~.~.~.~.~.X X X X X X X X ~.~.~.X X X X X X X X ~.~.~.~.~.~.~.~.~.~.~.U U R U R ~.~.~.~.~.~.~.~.~.~.~.~.~.~.~.~.~.~.",
"~.~.~.~.~.~.~.~.~.~.| | | |  .|  .~.~.~.~.~.~.~.~.~.~.~.X X X X X X X ~.~.~.X X X X X X X ~.~.~.~.~.~.~.~.~.~.~.~.~.U U U U ~.~.~.~.~.~.~.~.~.~.~.~.~.~.~.~.~.~.",
"~.~.~.~.~.~.~.~.~.~.~. .| |  .| ~.~.~.~.~.~.~.~.~.~.~.~.~.X X X X X X ~.~.~.~.X X X X X X ~.~.~.~.~.~.~.~.~.~.~.~.~.~.R R ~.~.~.~.~.~.~.~.~.~.~.~.~.~.~.~.~.~.~.",
"~.~.~.~.~.~.~.~.~.~.~.~.~.~.~.~.~.~.~.~.~.~.~.~.~.~.~.~.~.~.X X X X X ~.~.~.~.~.X X O X X ~.~.~.~.~.~.~.~.~.~.~.~.~.~.~.~.~.~.~.~.~.~.~.~.~.~.~.~.~.~.~.~.~.~.~.",
"~.~.~.~.~.~.~.~.~.~.~.~.~.~.~.~.~.~.~.~.~.~.~.~.~.~.~.~.~.~.~.X X X X ~.~.~.~.~.~.X X X X ~.~.~.~.~.~.~.~.~.~.~.~.~.~.~.~.~.~.~.~.~.~.~.~.~.~.~.~.~.~.~.~.~.~.~.",
"~.~.~.~.~.~.~.~.~.~.~.~.~.~.~.~.~.~.~.~.~.~.~.~.~.~.~.~.~.~.~.~.X X X ~.~.~.~.~.~.~.~.~.~.~.~.~.~.~.~.~.~.~.~.~.~.~.~.~.~.~.~.~.~.~.~.~.~.~.~.~.~.~.~.~.~.~.~.~.",
"~.~.~.~.~.~.~.~.~.~.~.~.~.~.~.~.~.~.~.~.~.~.~.~.~.~.~.~.~.~.~.~.~.X X ~.~.~.~.~.~.~.~.~.~.~.~.~.~.~.~.~.~.~.~.~.~.~.~.~.~.~.~.~.~.~.~.~.~.~.~.~.~.~.~.~.~.~.~.~.",
"~.~.~.~.~.~.~.~.~.~.~.~.~.~.~.~.~.~.~.~.~.~.~.~.~.~.~.~.~.~.~.~.~.~.~.~.~.~.~.~.~.~.~.~.~.~.~.~.~.~.~.~.~.~.~.~.~.~.~.~.~.~.~.~.~.~.~.~.~.~.~.~.~.~.~.~.~.~.~.~.",
"~.~.~.~.~.~.~.~.~.~.~.~.~.~.~.~.~.~.~.~.~.~.~.~.~.~.~.~.~.~.~.~.~.~.~.~.~.~.~.~.~.~.~.~.~.~.~.~.~.~.~.~.~.~.~.~.~.~.~.~.~.~.~.~.~.~.~.~.~.~.~.~.~.~.~.~.~.~.~.~.",
"~.~.~.~.~.~.~.~.~.~.~.~.~.~.~.~.~.~.~.~.~.~.~.~.~.~.~.~.~.~.~.~.~.~.~.~.~.~.~.~.~.~.~.~.~.~.~.~.~.~.~.~.~.~.~.~.~.~.~.~.~.~.~.~.~.~.~.~.~.~.~.~.~.~.~.~.~.~.~.~."
};
