/* XPM */
static char *result[] = {
/* columns rows colors chars-per-pixel */
"80 80 218 2 ",
"   c #040302",
".  c #070709",
"X  c #080A0B",
"o  c #070807",
"O  c #0A0C14",
"+  c #0D0F1B",
"@  c #110F1A",
"#  c #0E111C",
"$  c #0E1614",
"%  c #141515",
"&  c #171817",
"*  c #14121D",
"=  c #17181B",
"-  c #191A1B",
";  c #0F1221",
":  c #0F182F",
">  c #151523",
",  c #161927",
"<  c #1A1B24",
"1  c #12152B",
"2  c #15192B",
"3  c #1A1C29",
"4  c #0D1533",
"5  c #0E1836",
"6  c #101733",
"7  c #151C36",
"8  c #181E36",
"9  c #161E3A",
"0  c #181F3A",
"q  c #1E2122",
"w  c #1E212D",
"e  c #152624",
"r  c #1C2236",
"t  c #1B223B",
"y  c #1B293C",
"u  c #1D3733",
"i  c #212223",
"p  c #262D2D",
"a  c #2A2A2B",
"s  c #222629",
"d  c #222434",
"f  c #242A35",
"g  c #2B2E32",
"h  c #242B3C",
"j  c #2A2D3B",
"k  c #23253A",
"l  c #332B37",
"z  c #2C3535",
"x  c #2D3935",
"c  c #27303C",
"v  c #2B333C",
"b  c #2F3A3B",
"n  c #343435",
"m  c #33363B",
"M  c #3C353A",
"N  c #323D3B",
"B  c #3A393A",
"V  c #452A1B",
"C  c #4A2E1D",
"Z  c #42271A",
"A  c #4E321F",
"S  c #50321F",
"D  c #4B3521",
"F  c #543521",
"G  c #5C3B23",
"H  c #543D22",
"J  c #402E34",
"K  c #483A37",
"L  c #52383D",
"P  c #663C30",
"I  c #623F25",
"U  c #22433F",
"Y  c #36413E",
"T  c #3A443E",
"R  c #554729",
"E  c #464837",
"W  c #5B4B3A",
"Q  c #584436",
"!  c #55553C",
"~  c #4D4026",
"^  c #6A4528",
"/  c #7D512B",
"(  c #674636",
")  c #784732",
"_  c #625837",
"`  c #785B3B",
"'  c #6E532D",
"]  c #5C633B",
"[  c #666B3C",
"{  c #786637",
"}  c #70763D",
"|  c #121F48",
" . c #162147",
".. c #1B2446",
"X. c #1C264A",
"o. c #1E284E",
"O. c #1A2445",
"+. c #1F2950",
"@. c #1F2652",
"#. c #232A43",
"$. c #272A42",
"%. c #2D3143",
"&. c #263C45",
"*. c #313544",
"=. c #343A44",
"-. c #343A4A",
";. c #3A3D4C",
":. c #3D3941",
">. c #212C56",
",. c #222D58",
"<. c #283654",
"1. c #312C43",
"2. c #283D62",
"3. c #423743",
"4. c #364041",
"5. c #3A4542",
"6. c #3C424D",
"7. c #3D4945",
"8. c #3B4354",
"9. c #3F4759",
"0. c #29504E",
"q. c #30605C",
"w. c #2E4E6A",
"e. c #3A7471",
"r. c #444444",
"t. c #4C4D45",
"y. c #4D4B4D",
"u. c #494548",
"i. c #564D46",
"p. c #55554B",
"a. c #4A4C55",
"s. c #444D5D",
"d. c #424953",
"f. c #46505E",
"g. c #545253",
"h. c #585656",
"j. c #5C5A5B",
"k. c #55545C",
"l. c #775C43",
"z. c #615E5E",
"x. c #6C5744",
"c. c #64634E",
"v. c #676555",
"b. c #7C7958",
"n. c #7A6F44",
"m. c #475161",
"M. c #495464",
"N. c #565865",
"B. c #646163",
"V. c #6E6A6B",
"C. c #696667",
"Z. c #716E6C",
"A. c #74706E",
"S. c #676B79",
"D. c #6C7077",
"F. c #757171",
"G. c #7A7675",
"H. c #7E7979",
"J. c #7D7877",
"K. c #736F71",
"L. c #884D2F",
"P. c #83562F",
"I. c #915831",
"U. c #904F2F",
"Y. c #87663C",
"T. c #9A6533",
"R. c #8A783B",
"E. c #98723D",
"W. c #A97C3D",
"Q. c #AC7036",
"!. c #916E43",
"~. c #AC7E41",
"^. c #827C7B",
"/. c #89893C",
"(. c #928A39",
"). c #868743",
"_. c #969445",
"`. c #85825F",
"'. c #908B5E",
"]. c #A39142",
"[. c #B08240",
"{. c #87827F",
"}. c #979472",
"|. c #ABA46A",
" X c #C58F42",
".X c #D1A940",
"XX c #EBB442",
"oX c #C4BA70",
"OX c #DFCD41",
"+X c #CCC940",
"@X c #F9D643",
"#X c #CBC179",
"$X c #3E7385",
"%X c #4C9B96",
"&X c #44858D",
"*X c #5AB8B5",
"=X c #909085",
"-X c #8F929C",
";X c #B2AF91",
":X c #B8B493",
">X c #A8ABB4",
",X c #DAD39F",
"<X c #E4D98D",
"1X c #EEE184",
"2X c #FFF899",
"3X c #CDCAB4",
"4X c #F1E8A7",
"5X c #FFFFB1",
"6X c #C2C3C6",
"7X c #D7D7D1",
"8X c #FCF9C6",
"9X c #E7E5D8",
"0X c #F9F5DC",
"qX c LightYellow",
"wX c #FCFCF2",
"eX c #FFFFFF",
"rX c #E4E5E6",
"tX c None",
/* pixels */
"tXtXtXtXtXtXtXtXtXtXtXtXtXtXtXtXtXtXtXtXtXtXtXtXtXtXtXtXtXtXtXtXtXtXtXtXtXtXtXtXtXtXtXtXtXtXtXtXtXtXtXtXtXtXtXtXtXtXtXtXtXtXtXtXtXtXtXtXtXtXtXtXtXtXtXtXtXtXtXtX",
"tXtXtXtXtXtXtXtXtXtXtXtXtXtXtXtXtXtXtXtXtXtXtXtXtXtXtXtXtXtXtXtXtXtXtXtXtXtXtXtXtXtXtXtXtXtXtXtXtXtXtXtXtXtXtXtXtXtXtXtXtXtXtXtXtXtXtXtXtXtXtXtXtXtXtXtXtXtXtXtX",
"tXtXtXtXtXtXtXtXtXtXtXtXtXtXtXtXtXtXtXtXtXtXtXtXtXtXtXtXtXtXtXtXtXtXtXtXtXtXtXtXtXtXtXtXtXtXtXtXtXtXtXtXtXtXtXtXtXtXtXtXtXtXtXtXtXtXtXtXtXtXtXtXtXtXtXtXtXtXtXtX",
"tXtXtXtXtXtXtXtXtXtXtXtXtXtXtXtXtXtXtXtXtXtXtXtXtXtXtXtXtXtXtXtXtXtXtXtXtXtXtXtXtXtXtXtXtXtXtXtXtXtXtXtXtXtXtXtXtXtXtXtXtXtXtXtXtXtXtXtXtXtXtXtXtXtXtXtXtXtXtXtX",
"tXtXtXtXtXtXtXtXtXtXtXtXtXtXtXtXtXtXtXtXtXtXtXtXtXtXtXtXtXtXtXtXtXtXtXtXtXtXtXtXtXtXtXtXtXtXtXtXtXtXtXtXtXtXtXtXtXtXtXtXtXtXtXtXtXtXtXtXtXtXtXtXtXtXtXtXtXtXtXtX",
"tXtXtXtXtXtXtXtXtXtXtXtXtXtXtXtXtXtXtXtXtXtXtXtXtXtXtXtXtXtXtXtXtX......X.......X.X.o.>.,.,.,.,.>.>.X.......tXtXtXtXtXtXtXtXtXtXtXtXtXtXtXtXtXtXtXtXtXtXtXtXtXtX",
"tXtXtXtXtXtXtXtXtXtXtXtXtXtXtXtXtXtXtXtXtXtXtXtXtXtXtXtXtXtXtXtXtX................X.@.>.>.>.>.,.>.>.X.X.X.X.X.tXtXtXtXtXtXtXtXtXtXtXtXtXtXtXtXtXtXtXtXtXtXtXtXtX",
"tXtXtXtXtXtXtXtXtXtXtXtXtXtXtXtXtXtXtXtXtXtXtXtXtXtXtXtXtXtXtXtXtXtX| O.9 O.X.X.....X.#.>.>.>.>.>.>.+.o.X.+.X.X.tXtXtXtXtXtXtXtXtXtXtXtXtXtXtXtXtXtXtXtXtXtXtXtX",
"tXtXtXtXtXtXtXtXtXtXtXtXtXtXtXtXtXtXtXtXtXtXtXtXtXtXtXtXtXtXtXtXtXtXtX0 9 0 X.O.........| ,.,.>.>.>.>.>.,.,.+.+...tXtXtXtXtXtXtXtXtXtXtXtXtXtXtXtXtXtXtXtXtXtXtX",
"tXtXtXtXtXtXtXtXtXtXtXtXtXtXtXtXtXtXtXtXtXtXtXtXtXtXtXtXtXtXtXtXtXtXtX7 7 9  .O.........@.#.>.>.+.>.>.,.,.,.+.+.@.X.tXtXtXtXtXtXtXtXtXtXtXtXtXtXtXtXtXtXtXtXtXtX",
"tXtXtXtXtXtXtXtXtXtXtXtXtXtXtXtXtXtXtXtXtXtXtXtXtXV V tXtXtXtXtXtXtXtX8 7 8 0 | X.........X.| >.o.+.>.,.,.,.,.+.>.o.X.tXtXtXtXtXtXtXtXtXtXtXtXtXtXtXtXtXtXtXtXtX",
"tXtXtXtXtXtXtXtXtXtXtXtXtXtXtXtXtXtXtXtXtXtXtXtXtXC C C tXtXtXtXtXtXtX7 7 7 8 9 | ..X...X.X.X.#.....o.o.+.+.X.X.X.X.X.X.tXtXtXtXtXtXtXtXtXtXtXtXtXtXtXtXtXtXtXtX",
"tXtXtXtXtXtXtXtXtXtXtXtXtXtXtXtXtXtXtXtXtXtXtXtXA F F F V tXtXtXtXtXtXtX8 7 7 9 t ..........#.| ..t 6 ; 1 1 1 1 1 0 X.+.tXtXtXtXtXtXtXtXtXtXtXtXtXtXtXtXtXtXtXtX",
"tXtXtXtXtXtXtXtXtXtXtXtXtXtXtXtXtXtXtXtXtXtXtXV F I ^ G C V tXtXtXtXtXtXtX7 7 9 ............| #...9 ; O X X X X + 7 o.,.tXtXtXtXtXtXtXtXtXtXtXtXtXtXtXtXtXtXtXtX",
"tXtXtXtXtXtXtXtXtXtXtXtXtXtXtXtXtXtXtXtXtXtXtXV I / / ^ G F A tXtXtXtXtXtXtX8 9 0 ............0 7 y &.U e X = u 0.&.>.>.tXtXtXtXtXtXtXtXtXtXtXtXtXtXtXtXtXtXtXtX",
"tXtXtXtXtXtXtXtXtXtXtXtXtXtXtXtXtXtXtXtXtXtXtXtX/ T.T.P.^ H A V Z Z tXtXtXtX7 8 9 0 | ....X.| 1 # U &X%Xq.$ u e.%X$X2.>.tXtXtXtXtXtXtXtXtXtXtXtXtXtXtXtXtXtXtXtX",
"tXtXtXtXtXtXtXtXtXtXtXtXtXtXtXtXtXtXtXtXtXtXtXtXtXQ.Q.I.' I A V A A H tXtXh 7 7 7 8 | ..X...| + X U %X*Xq.e u %X*X&Xw.@.tXtXtXtXtXtXtXtXtXtXtXtXtXtXtXtXtXtXtXtX",
"tXtXtXtXtXtXtXtXtXtXtXtXtXtXtXtXtXtXtXtXtXtXtXtXtXtXQ.P.I F V C H _ { /.n.T r 7 7 7 0 ....X.O.; X e q.e.U $ e q.e.w.<.>.tXtXtXtXtXtXtXtXtXtXtXtXtXtXtXtXtXtXtXtX",
"tXtXtXtXtXtXtXtXtXtXtXtXtXtXtXtXtXtXtXtXtXtXtXtXtXtXtXH C C V A _ /._._.).! k 7 6 0 0 ..X.X.t ; X o $ $ O o o $ e O.>.,.tXtXtXtXtXtXtXtXtXtXtXtXtXtXtXtXtXtXtXtX",
"tXtXtXtXtXtXtXtXtXtXtXtXtXtXtXtXtXtXtXtXtXtXtXtXtXtXtXtXZ V A R { /._.].R.! k 4 7 7 9 O.0 9 1 + o               X 6 X.<.tXtXtXtXtXtXtXtXtXtXtXtXtXtXtXtXtXtXtXtX",
"tXtXtXtXtXtXtXtXtXtXtXtXtXtXtXtXtXtXtXtXtXtXtXtXtXtXtXtXtX~ R ] } _._.[.T.P d 6 6 9 9 9 6 ; O .                   1 o.,.tXtXtXtXtXtXtXtXtXtXtXtXtXtXtXtXtXtXtXtX",
"tXtXtXtXtXtXtXtXtXtXtXtXtXtXtXtXtXtXtXtXtXtXtXtXtXtXtXtXtXtX] [ } /.R.T.U.P l w 9 7 9 7 1 O X o . o o       o . + 7 >.,.tXtXtXtXtXtXtXtXtXtXtXtXtXtXtXtXtXtXtXtX",
"tXtXtXtXtXtXtXtXtXtXtXtXtXtXtXtXtXtXtXtXtXtXtXtXtXtXtXtXtXtX[ [ ] ! W Q P P P K k 4 4 7 2 ; + # # O X       X # 2 O.>.>.,.tXtXtXtXtXtXtXtXtXtXtXtXtXtXtXtXtXtXtX",
"tXtXtXtXtXtXtXtXtXtXtXtXtXtXtXtXtXtXtXtXtXtXtXtXtXtXtXtXtXtX] ] E z d d l P U.) J 8 7 8 7 7 1 6 : ; X o     + 8 #.>.>.>.,.,.tXtXtXtXtXtXtXtXtXtXtXtXtXtXtXtXtXtX",
"tXtXtXtXtXtXtXtXtXtXtXtXtXtXtXtXtXtXtXtXtXtXtXtXtXtXtXtXtXtXE E N 8 5 5 r K P L.( K j 8 6 9 7 9 9 1 ; + O # 6 o.,.,.,.>.,.>.,.tXtXtXtXtXtXtXtXtXtXtXtXtXtXtXtXtX",
"tXtXtXtXtXtXtXtXtXtXtXtXtXtXtXtXtXtX7 7 6 6 7 6 7 7 7 7 8 r c z r 9 7 6 8 k J ( Y.E.W d 4 6 7 7 7 8 6 7 r t X.+.,.,.>.,.>.,.,.>.tXtXtXtXtXtXtXtXtXtXtXtXtXtXtXtX",
"tXtXtXtXtXtXtXtXtXtXtXtXtXtXtXtXtX$.t t ..k k k t t 8 8 7 7 8 7 7 7 7 7 6 7 8 K Y.W.` M k 9 8 7 8 9 ....o.+.+.,.,.,.>.>.,.>.>.,.,.tXtXtXtXtXtXtXtXtXtXtXtXtXtXtX",
"tXtXtXtXtXtXtXtXtXtXtXtXtXtXtXtXg.3.=.;.d.a.d.-.*.j d 3 3 , > 1 , , < , , 1 7 l W ` Y.` W 1.9 | t  .....+.+.+.+.+.>.,.,.>.,.>.>.>.tXtXtXtXtXtXtXtXtXtXtXtXtXtXtX",
"tXtXtXtXtXtXtXtXtXtXtXtXtXtXtXj.h.g.g.j.C.V.B.k.u.B a s = = = = - > = = > , 7 r k M ` W.!.3.#.|  .......X.X...X...>.>.>.,.,.>.,.,.tXtXtXtXtXtXtXtXtXtXtXtXtXtXtX",
"tXtXtXtXtXtXtXtXtXtXtXtXtXtXj.v.B.B.C.C.V.C.j.g.r.n a i - = & & & & & & - , 7 6 4 d W E.~.l.u.-... . .X...........X.X.>.>.>.>.,.,.tXtXtXtXtXtXtXtXtXtXtXtXtXtXtX",
"tXtXtXtXtXtXtXtXtXtXtXtXtXh.B.V.A.G.G.C.h.u.r.E n a - - & = & & & & & & & , 7 7 4 7 n W ` !.!.i.#.| |  ...........X.X.>.>.>.,.,.>.tXtXtXtXtXtXtXtXtXtXtXtXtXtXtX",
"tXtXtXtXtXtXtXtXtXtXtXtXtXh.B.F.H.H.K.j.r.n z a a q - = = = = = = = & - > , 6 r k k j M _ E.[.l.3.%.%.%.$.X...........X.>.,.,.>.,.tXtXtXtXtXtXtXtXtXtXtXtXtXtXtX",
"tXtXtXtXtXtXtXtXtXtXtXtXtXtXV.H.G.V.N.3.j d d d w 3 , , , , , , 2 , , , , , , f ;.a.d.r.i.` Y.Y.l.l.l.x.3.>.X.X.| ..X.X.@.,.,.,.,.tXtXtXtXtXtXtXtXtXtXtXtXtXtXtX",
"tXtXtXtXtXtXtXtXtXtXtXtXtXtXtX^.F.k.%.y r 7 8 8 8 7 7 6 7 6 7 7 7 8 7 7 2 , > z h.V.C.h.u.E Q { [. X X~.x.1. .X.....X.#.+.,.,.,.>.tXtXtXtXtXtXtXtXtXtXtXtXtXtXtX",
"tXtXtXtXtXtXtXtXtXtXtXtXtXtXtXB.N.;.t 4 6 8 7 7 7 7 7 7 7 7 7 7 8 7 7 7 7 1 > B B.J.F.j.u.m K R..XXXXX XY.1.| ........X.+.,.,.,.,.tXtXtXtXtXtXtXtXtXtXtXtXtXtXtX",
"tXtXtXtXtXtXtXtXtXtXtXtXtXtXtX-.%.#.8 6 7 7 7 7 7 7 7 7 6 4 7 9 7 9 9 7 7 7 3 =.B.J.A.j.u.v E (.OX@XXX Xl.1.| | ......X.+.>.,.,.,.tXtXtXtXtXtXtXtXtXtXtXtXtXtXtX",
"tXtXtXtXtXtXtXtXtXtXtXtXtXtXtX8 9 7 7 7 7 7 7 7 7 7 r y v v t 8 7 7 7 7 8 6 8 -.B.G.D.z.g.B E (.+XOX.X[.` :...........X.>.>.,.,.>.tXtXtXtXtXtXtXtXtXtXtXtXtXtXtX",
"tXtXtXtXtXtXtXtXtXtXtXtXtXtXtX7 7 7 7 7 7 7 7 7 4 4 r t.b.v.m 1 4 7 7 7 7 6 8 -.B.H.G.V.j.y.i.[ /.(.R.` ` P L 1.......o.@.>.,.>.,.tXtXtXtXtXtXtXtXtXtXtXtXtXtXtX",
"tXtXtXtXtXtXtXtXtXtXtXtXtXtXtX7 7 7 7 9 9 7 7 7 7 6 *.`.#X|.g.t 6 7 7 7 9 6 7 -.B.H.^.J.V.B.p.t.E E E Q ) U.) 3.X. ...X.>.,.,.>.,.tXtXtXtXtXtXtXtXtXtXtXtXtXtXtX",
"tXtXtXtXtXtXtXtXtXtXtXtXtXtXtX7 7 7 7 7 7 7 6 6 #.s.D.:X4X,X=XN.<.0 6 7 7 6 7 -.B.^.{.^.J.V.z.y.B m m K ( L.( 3.X. ...X.+.>.,.,.>.tXtXtXtXtXtXtXtXtXtXtXtXtXtXtX",
"tXtXtXtXtXtXtXtXtXtXtXtXtXtXtX8 7 7 7 7 7 7 4 4 s.-X6X9X0X9X7X>XS.$.4 6 7 6 9 -.B.^.=XH.^.G.V.z.a.y.y.u.i.G K $.X.....X.>.,.,.>.,.tXtXtXtXtXtXtXtXtXtXtXtXtXtXtX",
"tXtXtXtXtXtXtXtXtXtXtXtXtXtXtX7 8 7 7 7 7 0 r *.D.6XwXeXeXeXeXrX-Xa.d 8 8 6 8 %.N.K.F.F.G.^.G.V.v.h.h.g.r.M j #.X.....X.>.>.,.,.,.tXtXtXtXtXtXtXtXtXtXtXtXtXtXtX",
"tXtXtXtXtXtXtXtXtXtXtXtXtXtXtX7 7 7 7 7 7 k t.b.;X9XeXeXeXeXeXwX3X}.c.=.7 4 9 k ;.a.k.h.C.G.^.J.K.C.B.k.u.n j k .. .X.X.+.,.,.>.>.tXtXtXtXtXtXtXtXtXtXtXtXtXtXtX",
"tXtXtXtXtXtXtXtXtXtXtXtXtXtXtX8 7 7 9 6 4 v b.#X4X0XeXeXeXeXeXwX8X<X|.i.8 5 7 9 ..h j B y.C.J.^.G.Z.v.g.r.n g O.......X.>.>.,.>.,.tXtXtXtXtXtXtXtXtXtXtXtXtXtXtX",
"tXtXtXtXtXtXtXtXtXtXtXtXtXtXtX7 7 7 8 4 4 m '.1X5XqXeXeXeXeXeXwX8X2XoXc.8 4 7 7 6 8 d a E g.z.B.z.h.y.r.B a f k ..X.X.X.+.>.>.,.,.tXtXtXtXtXtXtXtXtXtXtXtXtXtXtX",
"tXtXtXtXtXtXtXtXtXtXtXtXtXtXtX7 7 7 7 7 6 *.'.1X5XqXeXeXeXeXeXwX8X2XoXp.8 4 7 7 6 8 d a l n n n m n a a i q s t ......X.>.>.,.>.>.tXtXtXtXtXtXtXtXtXtXtXtXtXtXtX",
"tXtXtXtXtXtXtXtXtXtXtXtXtXtXtX8 7 8 7 4 6 %.b.#X4X0XeXeXeXeXeXwX8X<X|.p.8 4 9 7 7 8 d g a i - & - & - - & = < 0 ..X...X.>.>.,.>.,.tXtXtXtXtXtXtXtXtXtXtXtXtXtXtX",
"tXtXtXtXtXtXtXtXtXtXtXtXtXtXtX7 7 7 7 7 7 h t.b.;X9XeXeXeXeXeXwX3X}.p.N 8 6 7 7 7 8 d n a - % % % % % % % & , 9 ..X.X.X.+.>.,.,.,.tXtXtXtXtXtXtXtXtXtXtXtXtXtXtX",
"tXtXtXtXtXtXtXtXtXtXtXtXtXtXtX8 7 7 7 7 7 8 r %.D.6XwXeXeXeXeXrX-Xa.f r 7 7 7 7 7 8 d z a q & % & - & & & - , t ......+.+.,.,.,.>.tXtXtXtXtXtXtXtXtXtXtXtXtXtXtX",
"tXtXtXtXtXtXtXtXtXtXtXtXtXtXtX7 9 7 8 7 7 7 4 5 9.-X6X9X0X0X7X>XS.O.4 4 7 7 7 7 7 8 f n z s q q < q q q q q w y ......X.+.,.,.,.,.tXtXtXtXtXtXtXtXtXtXtXtXtXtXtX",
"tXtXtXtXtXtXtXtXtXtXtXtXtXtXtX8 7 7 7 7 7 7 6 6 #.9.S.:X4X,X=XN.<.t 4 7 7 7 7 7 7 8 f N N z p p p p p p p p u y ..X...X.+.,.,.>.,.tXtXtXtXtXtXtXtXtXtXtXtXtXtXtX",
"tXtXtXtXtXtXtXtXtXtXtXtXtXtXtX7 7 7 7 8 7 7 7 7 5 7 %.`.#X|.h.t 6 7 7 7 7 9 7 7 8 t z T T x x x x x x x x z c #.......X.>.>.,.,.>.tXtXtXtXtXtXtXtXtXtXtXtXtXtXtX",
"tXtXtXtXtXtXtXtXtXtXtXtXtXtXtX8 7 7 7 7 8 7 9 7 6 4 r t.b.v.m 1 4 7 7 7 7 7 7 7 r f b 5.T N x x x x x x x x v #...X...o.+.>.>.>.,.tXtXtXtXtXtXtXtXtXtXtXtXtXtXtX",
"tXtXtXtXtXtXtXtXtXtXtXtXtXtXtX7 7 9 7 7 7 7 7 7 7 7 9 h v j t 7 7 7 7 7 7 7 9 r f x x 5.Y N x x x x x x x x z X.......X.>.>.,.,.,.tXtXtXtXtXtXtXtXtXtXtXtXtXtXtX",
"tXtXtXtXtXtXtXtXtXtXtXtXtXtXtX8 7 7 7 7 7 7 7 7 7 7 7 6 6 6 7 7 7 7 8 7 9 r y h z N Y 5.Y N N N N x x x x x z #.#...X.X.>.>.,.>.>.tXtXtXtXtXtXtXtXtXtXtXtXtXtXtX",
"tXtXtXtXtXtXtXtXtXtXtXtXtXtXtX7 7 7 8 7 7 7 7 7 7 7 7 7 7 6 7 7 7 7 7 7 r h z 4.4.Y Y x N Y T T T Y x x x x z z c h ..X.+.,.,.>.,.tXtXtXtXtXtXtXtXtXtXtXtXtXtXtX",
"tXtXtXtXtXtXtXtXtXtXtXtXtXtXtX8 7 7 7 7 7 8 8 7 7 7 7 7 7 7 8 7 7 8 7 7 8 j 4.5.5.5.N x x N N =.N N x x x z x x v h O.o.+.,.,.,.,.tXtXtXtXtXtXtXtXtXtXtXtXtXtXtX",
"tXtXtXtXtXtXtXtXtXtXtXtXtXtXtX7 7 8 7 7 7 7 7 7 7 7 7 7 9 7 7 7 7 7 7 7 8 c 4.7.5.5.Y x z z p g p z x x x x x x v c X.X.+.,.,.,.>.tXtXtXtXtXtXtXtXtXtXtXtXtXtXtX",
"tXtXtXtXtXtXtXtXtXtXtXtXtXtXtX8 7 7 9 7 7 7 7 7 9 7 8 7 7 7 7 7 7 7 7 7 r c 4.5.5.5.Y x a q > > > s p x x x x x z h O.X.+.,.,.+.,.tXtXtXtXtXtXtXtXtXtXtXtXtXtXtX",
"tXtXtXtXtXtXtXtXtXtXtXtXtXtXtX7 7 7 7 7 9 7 7 7 8 7 7 7 7 7 7 7 7 7 7 7 r c 4.7.5.5.Y x p < = @ * < p N x x x x z c X.o.+.,.,.,.>.tXtXtXtXtXtXtXtXtXtXtXtXtXtXtX",
"tXtXtXtXtXtXtXtXtXtXtXtXtXtXtX9 7 8 7 7 7 7 7 8 7 7 7 7 7 7 7 7 7 7 7 7 9 c 4.5.5.5.Y x a < * @ * s z Y Y x x x x c O.o.+.,.,.,.,.tXtXtXtXtXtXtXtXtXtXtXtXtXtXtX",
"tXtXtXtXtXtXtXtXtXtXtXtXtXtXtX7 7 7 7 7 7 7 7 7 7 7 7 7 9 7 8 7 7 7 7 8 t v 4.7.5.5.N z p < * @ * 3 z N x x x x v v O.X.+.,.,.,.>.tXtXtXtXtXtXtXtXtXtXtXtXtXtXtX",
"tXtXtXtXtXtXtXtXtXtXtXtXtXtXtX8 7 7 7 9 7 7 7 7 7 7 8 7 7 7 7 7 7 7 r h c b 5.5.5.4.z a 3 = * @ * < s a z z x x x y O.X.o.o.+.>.>.tXtXtXtXtXtXtXtXtXtXtXtXtXtXtX",
"tXtXtXtXtXtXtXtXtXtXtXtXtXtXtX7 7 7 7 7 7 8 7 7 9 7 7 7 7 7 7 7 7 7 k &.4.5.5.5.7.N g < > * * * * * > < p z x x z c X.O.O.o.o.>.,.tXtXtXtXtXtXtXtXtXtXtXtXtXtXtX",
"tXtXtXtXtXtXtXtXtXtXtXtXtXtXtX8 7 7 7 9 8 7 7 7 7 8 7 8 7 7 7 9 7 7 y *.5.5.5.5.T x p > @ * > * * * @ - s z N N b v #.O.X.O.o.>.,.tXtXtXtXtXtXtXtXtXtXtXtXtXtXtX",
"tXtXtXtXtXtXtXtXtXtXtXtXtXtXtX7 7 7 7 7 7 7 7 7 7 7 7 7 7 7 7 7 7 7 f b T 7.5.T Y x s > @ * * * * @ @ > a m Y T Y b c c O.X.o.>.,.tXtXtXtXtXtXtXtXtXtXtXtXtXtXtX",
"tXtXtXtXtXtXtXtXtXtXtXtXtXtXtX7 7 7 7 7 7 7 9 7 7 7 7 7 7 7 7 7 7 8 h &.7.7.7.5.x z w = @ * * * * * @ < f 5.7.5.4.N z c h X.o.,.,.tXtXtXtXtXtXtXtXtXtXtXtXtXtXtX",
"tXtXtXtXtXtXtXtXtXtXtXtXtXtXtX8 7 7 8 7 7 7 7 7 9 7 7 7 7 8 7 7 6 8 h -.9.d.d.7.=.g s > * * * * * * * < z 6.d.-.N v v j #.O.o.+.tXtXtXtXtXtXtXtXtXtXtXtXtXtXtXtX",
"tXtXtXtXtXtXtXtXtXtXtXtXtXtXtX7 7 7 7 9 7 7 7 7 7 7 7 7 7 8 7 7 7 8 #.8.m.M.m.d.=.h 3 > * * * * > @ @ < v d.d.-.%.h j h #.X.X.tXtXtXtXtXtXtXtXtXtXtXtXtXtXtXtXtX",
"tXtXtXtXtXtXtXtXtXtXtXtXtXtX1 7 8 7 7 7 7 7 8 7 9 8 7 7 7 7 7 7 6 9 #.8.M.M.M.8.%.r < > * * * * * * @ < f -.;.-.*.%.j #.....tXtXtXtXtXtXtXtXtXtXtXtXtXtXtXtXtXtX",
"tXtXtXtXtXtXtXtXtXtXtXtXtX* 1 7 7 7 7 7 7 7 7 7 7 7 7 7 7 7 9 7 6 9 #.8.M.M.M.8.g < * * * * * * * * * * < d %.-.8.-.j #.O.....tXtXtXtXtXtXtXtXtXtXtXtXtXtXtXtXtX",
"tXtXtXtXtXtXtXtXtXtXtXtXtX* > 2 7 9 7 7 8 7 7 7 7 7 7 8 7 7 7 7 7 r #.8.M.M.s.-.d * * * * * * * * * * * @ = d 8.d.8.1.h #...tXtXtXtXtXtXtXtXtXtXtXtXtXtXtXtXtXtX",
"tXtXtXtXtXtXtXtXtXtXtXtX* * > 2 7 7 9 7 7 7 7 7 7 7 7 7 7 7 7 7 6 7 #.8.m.s.8.v 3 * @ * tXtXtXtX* * * * @ * d ;.s.6.j j O.tXtXtXtXtXtXtXtXtXtXtXtXtXtXtXtXtXtXtX",
"tXtXtXtXtXtXtXtXtXtXtXtXtX* > 7 7 7 7 7 7 7 8 7 7 7 7 7 9 7 8 7 7 8 #.8.s.8.%.d < * * tXtXtXtXtXtXtX* * @ > d 6.f.8.$.j tXtXtXtXtXtXtXtXtXtXtXtXtXtXtXtXtXtXtXtX",
"tXtXtXtXtXtXtXtXtXtXtXtXtX* > 2 7 9 8 7 7 7 8 7 7 8 7 8 7 8 7 9 y $.%.8.8.-.j d 3 * tXtXtXtXtXtXtXtXtX* @ * k d.s.9.-.*.%.tXtXtXtXtXtXtXtXtXtXtXtXtXtXtXtXtXtXtX",
"tXtXtXtXtXtXtXtXtXtXtXtXtXtXtXtXtXtXtXtXtXtXtXtXtXtXtXtXtXtXtXtX<.8.8.-.-.%.j k d tXtXtXtXtXtXtXtXtXtXtXtXtX=.s.M.s.9.8.*.j tXtXtXtXtXtXtXtXtXtXtXtXtXtXtXtXtXtX",
"tXtXtXtXtXtXtXtXtXtXtXtXtXtXtXtXtXtXtXtXtXtXtXtXtXtXtXtXtXtXtXtXtXm.9.-.j j j j tXtXtXtXtXtXtXtXtXtXtXtXtXtXtXM.m.M.m.8.-.j tXtXtXtXtXtXtXtXtXtXtXtXtXtXtXtXtXtX",
"tXtXtXtXtXtXtXtXtXtXtXtXtXtXtXtXtXtXtXtXtXtXtXtXtXtXtXtXtXtXtXtXtXtXtXtXtXk tXtXtXtXtXtXtXtXtXtXtXtXtXtXtXtXtXtXtXM.tX9.=.tXtXtXtXtXtXtXtXtXtXtXtXtXtXtXtXtXtXtX",
"tXtXtXtXtXtXtXtXtXtXtXtXtXtXtXtXtXtXtXtXtXtXtXtXtXtXtXtXtXtXtXtXtXtXtXtXtXtXtXtXtXtXtXtXtXtXtXtXtXtXtXtXtXtXtXtXtXtXtXtXtXtXtXtXtXtXtXtXtXtXtXtXtXtXtXtXtXtXtXtX",
"tXtXtXtXtXtXtXtXtXtXtXtXtXtXtXtXtXtXtXtXtXtXtXtXtXtXtXtXtXtXtXtXtXtXtXtXtXtXtXtXtXtXtXtXtXtXtXtXtXtXtXtXtXtXtXtXtXtXtXtXtXtXtXtXtXtXtXtXtXtXtXtXtXtXtXtXtXtXtXtX"
};
