/* XPM */
static char *result[] = {
/* columns rows colors chars-per-pixel */
"80 80 210 2 ",
"   c #010101",
".  c #03040C",
"X  c #0B0C0D",
"o  c #050C0A",
"O  c #06110D",
"+  c #050613",
"@  c #0A0714",
"#  c #0C0A16",
"$  c #060B1B",
"%  c #0D0C19",
"&  c #06061A",
"*  c #100E1A",
"=  c #0E1114",
"-  c #091515",
";  c #101113",
":  c #12121D",
">  c #171B1B",
",  c #1A1B1C",
"<  c #0D211E",
"1  c #3F2113",
"2  c #0A0D25",
"3  c #090C26",
"4  c #0D1222",
"5  c #0B122C",
"6  c #091626",
"7  c #121422",
"8  c #191C22",
"9  c #1A1E2C",
"0  c #151927",
"q  c #040E33",
"w  c #061133",
"e  c #0D1533",
"r  c #0E1836",
"t  c #0B163D",
"y  c #111732",
"u  c #121A34",
"i  c #1A1E33",
"p  c #121A3C",
"a  c #101738",
"s  c #231E32",
"d  c #1C2226",
"f  c #1E222C",
"g  c #15322C",
"h  c #1C2334",
"j  c #1C233C",
"k  c #1F2A3B",
"l  c #192536",
"z  c #142F2B",
"x  c #242524",
"c  c #222A2B",
"v  c #2A2B2D",
"b  c #22252C",
"n  c #212433",
"m  c #232A36",
"M  c #2A2C33",
"N  c #222739",
"B  c #242B3A",
"V  c #292C3D",
"C  c #372A32",
"Z  c #273233",
"A  c #293532",
"S  c #2D3936",
"D  c #243039",
"F  c #2B353C",
"G  c #2D393B",
"H  c #333333",
"J  c #333438",
"K  c #323D3B",
"L  c #3B3A3D",
"P  c #363535",
"I  c #2C302E",
"U  c #432514",
"Y  c #452A17",
"T  c #492A16",
"R  c #4D2D19",
"E  c #4A321A",
"W  c #54321B",
"Q  c #59391E",
"!  c #502F1A",
"~  c #4C3429",
"^  c #443B34",
"/  c #483B34",
"(  c #543A35",
")  c #50342F",
"_  c #65392D",
"`  c #653C24",
"'  c #1C413D",
"]  c #35413E",
"[  c #3B443B",
"{  c #544927",
"}  c #454834",
"|  c #5B4B35",
" . c #594737",
".. c #52573B",
"X. c #6C4424",
"o. c #79492A",
"O. c #674433",
"+. c #774432",
"@. c #625834",
"#. c #7A5D39",
"$. c #77573A",
"%. c #6E5529",
"&. c #5C6338",
"*. c #666B39",
"=. c #776733",
"-. c #70763B",
";. c #0D1A45",
":. c #141F45",
">. c #151F48",
",. c #162045",
"<. c #1A2341",
"1. c #1F2841",
"2. c #17224B",
"3. c #19234D",
"4. c #1C3D41",
"5. c #1A2552",
"6. c #1C2956",
"7. c #1E2A59",
"8. c #2A2C43",
"9. c #212844",
"0. c #2D3244",
"q. c #2C354B",
"w. c #313544",
"e. c #313649",
"r. c #343B4B",
"t. c #393A47",
"y. c #213857",
"u. c #363F51",
"i. c #253D64",
"p. c #473F44",
"a. c #374341",
"s. c #384441",
"d. c #3D464F",
"f. c #374155",
"g. c #3C4454",
"h. c #3E4953",
"j. c #275451",
"k. c #2C605C",
"l. c #35716F",
"z. c #2E5A6E",
"x. c #434242",
"c. c #4A4545",
"v. c #45454B",
"b. c #4D4B4D",
"n. c #4C4C43",
"m. c #574E48",
"M. c #53514F",
"N. c #424D5D",
"B. c #484A56",
"V. c #44505E",
"C. c #555455",
"Z. c #595656",
"A. c #5D5B5B",
"S. c #5A565A",
"D. c #504F51",
"F. c #6C5642",
"G. c #795D42",
"H. c #725A41",
"J. c #615E5E",
"K. c #7D6041",
"L. c #454F61",
"P. c #465162",
"I. c #495566",
"U. c #5A5962",
"Y. c #646263",
"T. c #6E6A6A",
"R. c #696566",
"E. c #726D6D",
"W. c #75706E",
"Q. c #757172",
"!. c #7A7675",
"~. c #7D7877",
"^. c #7F7A79",
"/. c #894C2B",
"(. c #92572D",
"). c #88522B",
"_. c #856438",
"`. c #966936",
"'. c #8A7938",
"]. c #97743B",
"[. c #9B642E",
"{. c #AA6D32",
"}. c #AB7E3C",
"|. c #B77635",
" X c #926E42",
".X c #AC7F40",
"XX c #827D7C",
"oX c #3C807A",
"OX c #778042",
"+X c #8B8A39",
"@X c #938B36",
"#X c #B1833E",
"$X c #D2AA3E",
"%X c #CDCA3E",
"&X c #E0CE3F",
"*X c #838542",
"=X c #949342",
"-X c #908F41",
";X c #A29441",
":X c #C69040",
">X c #EDB940",
",X c #E9AC40",
"<X c #F9D741",
"1X c #3C7486",
"2X c #499A94",
"3X c #42868E",
"4X c #59B9B6",
"5X c #4EA0A0",
"6X c #888380",
"7X c None",
/* pixels */
"7X7X7X7X7X7X7X7X7X7X7X7X7X7X7X7X7X7X7X7X7X7X7X7X7X7X7X7X7X7X7X7X7X7X7X7X7X7X7X7X7X7X7X7X7X7X7X7X7X7X7X7X7X7X7X7X7X7X7X7X7X7X7X7X7X7X7X7X7X7X7X7X7X7X7X7X7X7X7X7X",
"7X7X7X7X7X7X7X7X7X7X7X7X7X7X7X7X7X7X7X7X7X7X7X7X7X7X7X7X7X7X7X7X7X7X7X7X7X7X7X7X7X7X7X7X7X7X7X7X7X7X7X7X7X7X7X7X7X7X7X7X7X7X7X7X7X7X7X7X7X7X7X7X7X7X7X7X7X7X7X7X",
"7X7X7X7X7X7X7X7X7X7X7X7X7X7X7X7X7X7X7X7X7X7X7X7X7X7X7X7X7X7X7X7X7X7X7X7X7X7X7X7X7X7X7X7X7X7X7X7X7X7X7X7X7X7X7X7X7X7X7X7X7X7X7X7X7X7X7X7X7X7X7X7X7X7X7X7X7X7X7X7X",
"7X7X7X7X7X7X7X7X7X7X7X7X7X7X7X7X7X7X7X7X7X7X7X7X7X7X7X7X7X7X7X7X7X7X7X7X7X7X7X7X7X7X7X7X7X7X7X7X7X7X7X7X7X7X7X7X7X7X7X7X7X7X7X7X7X7X7X7X7X7X7X7X7X7X7X7X7X7X7X7X",
"7X7X7X7X7X7X7X7X7X7X7X7X7X7X7X7X7X7X7X7X7X7X7X7X7X7X7X7X7X7X7X7X7X7X7X7X7X7X7X7X7X7X7X7X7X7X7X7X7X7X7X7X7X7X7X7X7X7X7X7X7X7X7X7X7X7X7X7X7X7X7X7X7X7X7X7X7X7X7X7X",
"7X7X7X7X7X7X7X7X7X7X7X7X7X7X7X7X7X7X7X7X7X7X7X7X7X7X:.:.>.2.3.6.6.6.6.6.6.3.2.,.:.:.,.:.>.>.,.7X7X7X7X7X7X7X7X7X7X7X7X7X7X7X7X7X7X7X7X7X7X7X7X7X7X7X7X7X7X7X7X7X",
"7X7X7X7X7X7X7X7X7X7X7X7X7X7X7X7X7X7X7X7X7X7X7X7X7X2.>.>.>.3.5.6.6.6.6.6.5.2.,.>.:.:.:.:.:.:.,.7X7X7X7X7X7X7X7X7X7X7X7X7X7X7X7X7X7X7X7X7X7X7X7X7X7X7X7X7X7X7X7X7X",
"7X7X7X7X7X7X7X7X7X7X7X7X7X7X7X7X7X7X7X7X7X7X7X7X2.2.3.3.2.3.6.6.6.6.5.5.3.2.,.:.>.:.p p p :.7X7X7X7X7X7X7X7X7X7X7X7X7X7X7X7X7X7X7X7X7X7X7X7X7X7X7X7X7X7X7X7X7X7X",
"7X7X7X7X7X7X7X7X7X7X7X7X7X7X7X7X7X7X7X7X7X7X7X,.,.5.6.7.5.6.6.6.6.6.6.3.,.:.,.,.,.,.a r r 7X7X7X7X7X7X7X7X7X7X7X7X7X7X7X7X7X7X7X7X7X7X7X7X7X7X7X7X7X7X7X7X7X7X7X",
"7X7X7X7X7X7X7X7X7X7X7X7X7X7X7X7X7X7X7X7X7X7X2.3.5.5.7.7.7.7.5.5.5.5.3.2.:.:.;.,.p ;.a e e 7X7X7X7X7X7X7X7X7X7X7X7X7X7X7X7X7X7X7X7X7X7X7X7X7X7X7X7X7X7X7X7X7X7X7X",
"7X7X7X7X7X7X7X7X7X7X7X7X7X7X7X7X7X7X7X7X7X>.3.5.6.6.7.7.7.6.3.2.2.2.2.:.,.:.,.:.p r r e e 7X7X7X7X7X7X7X7XU U 7X7X7X7X7X7X7X7X7X7X7X7X7X7X7X7X7X7X7X7X7X7X7X7X7X",
"7X7X7X7X7X7X7X7X7X7X7X7X7X7X7X7X7X7X7X7X2.,.2.2.3.3.3.2.3.2.,.;.:.:.:.:.:.:.:.:.p e e e e 7X7X7X7X7X7X7XY T T 7X7X7X7X7X7X7X7X7X7X7X7X7X7X7X7X7X7X7X7X7X7X7X7X7X",
"7X7X7X7X7X7X7X7X7X7X7X7X7X7X7X7X7X7X7X7X5.2.a 4 $ 4 2 2 2 5 a ,.,.:.,.:.:.:.,.p r e e e 7X7X7X7X7X7X7XY E W W E 7X7X7X7X7X7X7X7X7X7X7X7X7X7X7X7X7X7X7X7X7X7X7X7X",
"7X7X7X7X7X7X7X7X7X7X7X7X7X7X7X7X7X7X7X7X6.2.e $ o         $ e ,.,.,.:.:.;.2.,.;.a e e 7X7X7X7X7X7X7XY T Q X.` W Y 7X7X7X7X7X7X7X7X7X7X7X7X7X7X7X7X7X7X7X7X7X7X7X",
"7X7X7X7X7X7X7X7X7X7X7X7X7X7X7X7X7X7X7X7X6.7.y.' g o   < ' ' l e a :.:.:.,.:.p p r e 7X7X7X7X7X7X7XR R W X.).o.Q Y 7X7X7X7X7X7X7X7X7X7X7X7X7X7X7X7X7X7X7X7X7X7X7X",
"7X7X7X7X7X7X7X7X7X7X7X7X7X7X7X7X7X7X7X7X6.y.1X5XoXg O k.2X3X4.& 3 p 2.:.:.p a a e e 7X7X7X7XU 1 U ! Q X.(.[.[.o.7X7X7X7X7X7X7X7X7X7X7X7X7X7X7X7X7X7X7X7X7X7X7X7X",
"7X7X7X7X7X7X7X7X7X7X7X7X7X7X7X7X7X7X7X7X5.i.3X4X2Xg - l.4X2X' o & p >.>.:.p y e e y l 7X7XE E Y Y ! ` X.[.{.|.7X7X7X7X7X7X7X7X7X7X7X7X7X7X7X7X7X7X7X7X7X7X7X7X7X",
"7X7X7X7X7X7X7X7X7X7X7X7X7X7X7X7X7X7X7X7X5.y.z.1Xk.< O ' l.k.<   & p 2.>.:.p e w e l [ OX+X=.%.Q T U W ` o.{.7X7X7X7X7X7X7X7X7X7X7X7X7X7X7X7X7X7X7X7X7X7X7X7X7X7X",
"7X7X7X7X7X7X7X7X7X7X7X7X7X7X7X7X7X7X7X7X7.5.<.6 o     o O O     $ p >.>.:.a a e e i ..*X=X=X+X@.E U U T W 7X7X7X7X7X7X7X7X7X7X7X7X7X7X7X7X7X7X7X7X7X7X7X7X7X7X7X",
"7X7X7X7X7X7X7X7X7X7X7X7X7X7X7X7X7X7X7X7X7.2.2                   + 5 r a :.a e e w h ..+X#X=X=X=.{ E Y U 7X7X7X7X7X7X7X7X7X7X7X7X7X7X7X7X7X7X7X7X7X7X7X7X7X7X7X7X",
"7X7X7X7X7X7X7X7X7X7X7X7X7X7X7X7X7X7X7X7X7.3.4                     . $ 5 a a e w w i _ [.#X;X=X-.@.{ { 7X7X7X7X7X7X7X7X7X7X7X7X7X7X7X7X7X7X7X7X7X7X7X7X7X7X7X7X7X",
"7X7X7X7X7X7X7X7X7X7X7X7X7X7X7X7X7X7X7X7X7.3.e .                     + 2 e a e y u C _ /.[.'.*X-.*.&.7X7X7X7X7X7X7X7X7X7X7X7X7X7X7X7X7X7X7X7X7X7X7X7X7X7X7X7X7X7X",
"7X7X7X7X7X7X7X7X7X7X7X7X7X7X7X7X7X7X7X7.7.5.<.5 &           . + + + $ 5 e q q i ) _ _ _ O. ...&.*.*.7X7X7X7X7X7X7X7X7X7X7X7X7X7X7X7X7X7X7X7X7X7X7X7X7X7X7X7X7X7X",
"7X7X7X7X7X7X7X7X7X7X7X7X7X7X7X7X7X7X6.6.6.6.5.3.e +       . $ 5 5 5 5 e e w a ~ o./._ C i h D } &.&.7X7X7X7X7X7X7X7X7X7X7X7X7X7X7X7X7X7X7X7X7X7X7X7X7X7X7X7X7X7X",
"7X7X7X7X7X7X7X7X7X7X7X7X7X7X7X7X7X6.6.6.6.6.7.6.,.6 + + . & 5 e r e r e y M / O./.+.) u q q y A } } 7X7X7X7X7X7X7X7X7X7X7X7X7X7X7X7X7X7X7X7X7X7X7X7X7X7X7X7X7X7X",
"7X7X7X7X7X7X7X7X7X7X7X7X7X7X7X7X6.6.6.6.6.6.7.7.6.,.p r e e e e e e w w i  .`._.O.C s e w e e i m m l e w e r w w e e 5 5 w 7X7X7X7X7X7X7X7X7X7X7X7X7X7X7X7X7X7X",
"7X7X7X7X7X7X7X7X7X7X7X7X7X7X7X6.7.6.6.6.6.6.6.6.6.5.5.3.:.:.a r t r y i P #..X`.^ y e 5 e e 5 e e y e e y y u i l i p 9.j 9.B 7X7X7X7X7X7X7X7X7X7X7X7X7X7X7X7X7X",
"7X7X7X7X7X7X7X7X7X7X7X7X7X7X7X6.5.6.6.6.6.6.5.3.5.5.3.3.:.:.:.a t t V  .#._.#. .M w 5 6 4 7 4 4 4 4 4 7 0 n m 0.t.d.B.B.B.B.B.C.7XZ.7X7X7X7X7X7X7X7X7X7X7X7X7X7X",
"7X7X7X7X7X7X7X7X7X7X7X7X7X7X7X6.7.7.6.6.6.5.3.2.,.,.,.,.;.,.:.:.:.>.p.`..X#.P i r 5 4 : ; ; ; = = = = = 8 v P x.C.Y.T.Q.!.E.Y.J.Z.Z.Z.7X7X7X7X7X7X7X7X7X7X7X7X7X",
"7X7X7X7X7X7X7X7X7X7X7X7X7X7X7X6.6.6.6.6.5.5.2.,.,.,.,.,.;.;.:.,.8.c.H.].]. .i q e e 4 ; ; ; ; ; ; ; ; ; , x H x.M.J.R.T.T.T.R.Y.Y.Y.Y.J.7X7X7X7X7X7X7X7X7X7X7X7X",
"7X7X7X7X7X7X7X7X7X7X7X7X7X7X7X6.6.6.6.6.3.,.,.,.,.:.:.;.;.;.;.9.m. X]._.| C y q e 5 4 ; X ; ; ; ; ; ; ; ; , x H L x.c.c.c.b.J.E.!.Q.E.R.A.S.7X7X7X7X7X7X7X7X7X7X",
"7X7X7X7X7X7X7X7X7X7X7X7X7X7X7X6.6.6.6.3.2.,.,.,.:.:.,.1.8.8.8.t. X|.].@.H N j i u 5 4 : ; ; ; ; = ; ; ; ; ; , c v M M v v P D.T.!.^.~.T.A.C.7X7X7X7X7X7X7X7X7X7X",
"7X7X7X7X7X7X7X7X7X7X7X7X7X7X7X6.6.7.6.3.,.:.:.:.>.>.9.p.F._.G._.#._.$.m.s.v.B.t.n : 2 4 4 4 4 4 4 4 7 4 4 4 7 9 9 h f f 9 m 0.B.Y.Q.^.Q.Y.7X7X7X7X7X7X7X7X7X7X7X",
"7X7X7X7X7X7X7X7X7X7X7X7X7X7X7X6.6.6.6.5.3.:.:.:.;.;.8.F..X:X:X#X=. .} c.Z.R.T.S.H : * 5 e e e 5 e 5 e e 5 e e y y y e e e y y j u.Y.^.XX7X7X7X7X7X7X7X7X7X7X7X7X",
"7X7X7X7X7X7X7X7X7X7X7X7X7X7X7X6.6.6.6.5.2.:.:.:.;.;.8.G.:X,X>X$X'.^ H v.J.E.~.Y.P : 2 5 r e r r e r e e e e e e e e e e e w 5 e 8.U.XX7X7X7X7X7X7X7X7X7X7X7X7X7X",
"7X7X7X7X7X7X7X7X7X7X7X7X7X7X7X6.7.6.6.3.3.:.:.:.;.;.8.G.:X>X&X&X@X^ F x.S.Q.~.Y.w.5 5 e e e e e e e e r e e e e e e e e e e e e i d.7X7X7X7X7X7X7X7X7X7X7X7X7X7X",
"7X7X7X7X7X7X7X7X7X7X7X7X7X7X7X6.7.6.6.3.3.>.:.>.>.>.p.$.}.$X&X%X@X} t.b.J.E.XXY.e.e w e e e e e e e e e e e e e r e e e e e e e r 7X7X7X7X7X7X7X7X7X7X7X7X7X7X7X",
"7X7X7X7X7X7X7X7X7X7X7X7X7X7X7X6.6.7.6.3.>.>.:.>.8.( _ +.#.'.@X@XG.} b.J.E.!.~.Y.e.a e e e e e e e e e e e e r e e e e e e e e e e 7X7X7X7X7X7X7X7X7X7X7X7X7X7X7X",
"7X7X7X7X7X7X7X7X7X7X7X7X7X7X7X7.6.6.6.6.>.>.;.>.p.+.(.+.( } } } n.C.U.E.^.XX^.U.e.e w e e e e e e e e e e e e e e e e e e e e e e 7X7X7X7X7X7X7X7X7X7X7X7X7X7X7X",
"7X7X7X7X7X7X7X7X7X7X7X7X7X7X7X6.6.7.7.3.>.>.;.>.C +./.O.L J C L b.J.T.^.XX6XXXR.w.a e e e e e e e e e e e e e e e e e e e e e e e 7X7X7X7X7X7X7X7X7X7X7X7X7X7X7X",
"7X7X7X7X7X7X7X7X7X7X7X7X7X7X7X6.6.6.6.3.3.:.:.:.8.^ )  .c.v.v.b.J.E.~.OXXX6XXXY.q.r w e e e e e e e e e e e e e e e e e e e e e r 7X7X7X7X7X7X7X7X7X7X7X7X7X7X7X",
"7X7X7X7X7X7X7X7X7X7X7X7X7X7X7X7.5.7.7.5.>.>.:.>.j M P p.C.Z.J.J.T.~.XXXXQ.!.Q.U.q.r w e e e e e e e e e e e e e e e e e e e e e y 7X7X7X7X7X7X7X7X7X7X7X7X7X7X7X",
"7X7X7X7X7X7X7X7X7X7X7X7X7X7X7X6.7.7.6.3.2.:.:.:.j m H x.C.J.T.E.^.XX^.R.C.C.B.r.N y e e e e e e e e r e e e e e e e e e e e e e e 7X7X7X7X7X7X7X7X7X7X7X7X7X7X7X",
"7X7X7X7X7X7X7X7X7X7X7X7X7X7X7X6.6.6.6.3.3.:.:.:.j m H x.C.J.E.!.XX^.R.N.L M j i y e e e e e e e e e e e e e e e e e e e e e e e e 7X7X7X7X7X7X7X7X7X7X7X7X7X7X7X",
"7X7X7X7X7X7X7X7X7X7X7X7X7X7X7X6.6.6.6.5.2.:.:.:.j h v H } m.J.J.U.Y.M.L v 9 e e w r e e e e e e e e e e e e e e e e e e e e e e e 7X7X7X7X7X7X7X7X7X7X7X7X7X7X7X",
"7X7X7X7X7X7X7X7X7X7X7X7X7X7X7X7.6.6.6.5.2.:.>.:.l 0 , , x x I H H J C I v f 5 e e e e e e e e e e e e e e e e e e e e e e e e e y 7X7X7X7X7X7X7X7X7X7X7X7X7X7X7X",
"7X7X7X7X7X7X7X7X7X7X7X7X7X7X7X6.6.6.6.5.2.,.:.:.i 4 ; ; ; ; ; ; ; ; , x v n y e e e e e e e e e e e e e e e e e e e e e r e e e e 7X7X7X7X7X7X7X7X7X7X7X7X7X7X7X",
"7X7X7X7X7X7X7X7X7X7X7X7X7X7X7X6.6.6.6.3.2.:.:.:.u : # X X X X O X X > x v h a e e e e e e e e e e e e e e e e e e e e e e e e e r 7X7X7X7X7X7X7X7X7X7X7X7X7X7X7X",
"7X7X7X7X7X7X7X7X7X7X7X7X7X7X7X6.6.6.6.5.2.:.,.:.p 7 - ; O ; ; ; ; ; , x v n e e e e e e e e e e e e e e e e e e e e e e e e e e e 7X7X7X7X7X7X7X7X7X7X7X7X7X7X7X",
"7X7X7X7X7X7X7X7X7X7X7X7X7X7X7X6.6.6.6.5.3.:.:.:.p 8 > , > > , , > > x v A l e e e e e e e e e e e e e e e e e e e e y e e e e e e 7X7X7X7X7X7X7X7X7X7X7X7X7X7X7X",
"7X7X7X7X7X7X7X7X7X7X7X7X7X7X7X6.6.6.6.5.2.:.:.:.j f c c c c c c d c I S J m e e e e e e e e e e e e e e e e e e e e e e e e e e y 7X7X7X7X7X7X7X7X7X7X7X7X7X7X7X",
"7X7X7X7X7X7X7X7X7X7X7X7X7X7X7X6.6.6.6.5.2.:.:.:.,.Z A A A A A A A A S ] ] D l 5 e e e e e e e e e e e e e e e e e e e e e e e e e 7X7X7X7X7X7X7X7X7X7X7X7X7X7X7X",
"7X7X7X7X7X7X7X7X7X7X7X7X7X7X7X6.6.6.6.5.2.:.:.:.k D A A A A A A A A ] ] ] G l h e e e e e e e r e e e e e e e e e e e e e e e e a 7X7X7X7X7X7X7X7X7X7X7X7X7X7X7X",
"7X7X7X7X7X7X7X7X7X7X7X7X7X7X7X7.6.6.6.5.2.:.:.,.j D A A A A A g A A A ] ] S A m u e e e e e e e e e e e e a e e e e e e e e e r e 7X7X7X7X7X7X7X7X7X7X7X7X7X7X7X",
"7X7X7X7X7X7X7X7X7X7X7X7X7X7X7X6.6.6.6.5.2.,.,.j k D A A A A ] A A A ] A K K S Z m l u e e e e e e e e e e e e e e e e e e e e e e e 7X7X7X7X7X7X7X7X7X7X7X7X7X7X",
"7X7X7X7X7X7X7X7X7X7X7X7X7X7X7X6.6.6.6.5.2.,.1.m D Z A A A A ] ] [ ] ] ] S K ] ] G F l a w e e e e e e e e e e e e e e e e e e e e e e 7X7X7X7X7X7X7X7X7X7X7X7X7X",
"7X7X7X7X7X7X7X7X7X7X7X7X7X7X7X6.6.6.6.5.3.:.k A A A A A A A K K ] ] K A A S ] [ a.a.k u e e e e e e e e e e e e e e e e e e e e e e e 7X7X7X7X7X7X7X7X7X7X7X7X7X",
"7X7X7X7X7X7X7X7X7X7X7X7X7X7X7X7.6.6.6.5.2.<.k Z A A A A A Z c b d d c Z A ] a.s.s.K m r e e e e e e e e e e e e e e e e e e e a e e e y 7X7X7X7X7X7X7X7X7X7X7X7X",
"7X7X7X7X7X7X7X7X7X7X7X7X7X7X7X6.6.6.6.5.2.,.k Z A A A A A c 8 * - : , c A ] ] a.a.a.m u e e e e e e e e e e e e e e e e e e e e e e y e 7X7X7X7X7X7X7X7X7X7X7X7X",
"7X7X7X7X7X7X7X7X7X7X7X7X7X7X7X6.6.6.6.5.>.,.k Z A A A S S c 8 @ @ # : c Z ] a.s.a.] D u e e e e e e e e e e e e e e e e e e e e e e e 7X7X7X7X7X7X7X7X7X7X7X7X7X",
"7X7X7X7X7X7X7X7X7X7X7X7X7X7X7X7.6.6.6.5.2.,.k Z A A A ] K A 8 # + % > f A ] ] ] s.t.m r e e e e e e e e e e e e e e e e e e e e e e e 7X7X7X7X7X7X7X7X7X7X7X7X7X",
"7X7X7X7X7X7X7X7X7X7X7X7X7X7X7X6.6.6.5.5.3.,.k Z A A A A K M 8 @ @ % : f A S ] [ s.K D l y e e e e e e a e e e e e e e e e e e e e e e e 7X7X7X7X7X7X7X7X7X7X7X7X",
"7X7X7X7X7X7X7X7X7X7X7X7X7X7X7X6.6.5.3.3.2.<.k Z A A A I c d : % @ % * > f A ] a.s.] G D i a e e e e e e e e y e e e e e e e e e e e e r e 7X7X7X7X7X7X7X7X7X7X7X",
"7X7X7X7X7X7X7X7X7X7X7X7X7X7X7X6.6.3.2.;.,.,.g A A A I d : * % @ % # % % : c ] a.s.] ] t.D l e e e e e e e e e e e e e e e e e e e e e e e e 7X7X7X7X7X7X7X7X7X7X",
"7X7X7X7X7X7X7X7X7X7X7X7X7X7X7X7.5.5.:.:.<.k D G S S A d * @ # % # # # @ * f S ] ] [ s.a.G l e e e e e e e e e e e e e e e e e e e e e y e e 7X7X7X7X7X7X7X7X7X7X",
"7X7X7X7X7X7X7X7X7X7X7X7X7X7X7X7.6.5.:.<.k D G G ] ] S d * @ @ % % # @ # : d Z S ] ] s.[ F l e e e e e e e e e e e e e e e e e e e e e e e e 7X7X7X7X7X7X7X7X7X7X",
"7X7X7X7X7X7X7X7X7X7X7X7X7X7X7X7.5.3.,.<.m Z S K a.s.w.c : @ # # # # @ @ = f A ] s.s.s.s.F l e e e e e e e e e e e e e e e e e e e e e e e e 7X7X7X7X7X7X7X7X7X7X",
"7X7X7X7X7X7X7X7X7X7X7X7X7X7X7X7X6.2.,.<.m M F F a.h.d.D : @ # # # % @ # : n t.d.h.h.h.h.r.k e e e e e e e e r e e e e r e e e e e e e e e e r 7X7X7X7X7X7X7X7X7X",
"7X7X7X7X7X7X7X7X7X7X7X7X7X7X7X7X7X:.:.<.j N m V 0.B.g.V : # @ % % 7X7X@ : B g.N.P.V.P.P.u.<.e e e e e e e e e e e e e e e e e e e e e e e e e e 7X7X7X7X7X7X7X7X",
"7X7X7X7X7X7X7X7X7X7X7X7X7X7X7X7X7X7X:.:.N B V 0.e.r.w.n : @ @ # 7X7X7X@ : n e.B.h.I.I.P.f.1.e w e e e e e e e e e e e e e e e e e e e e e e e e e 7X7X7X7X7X7X7X",
"7X7X7X7X7X7X7X7X7X7X7X7X7X7X7X7X7X>.:.<.<.B e.f.r.V 9 8 * # % # 7X7X7X@ * 7 9 V h.P.I.P.f.1.e e e e e e e e e e e e e e e e e e e e e e e e e e e r 7X7X7X7X7X7X",
"7X7X7X7X7X7X7X7X7X7X7X7X7X7X7X7X7X7X>.j j 8.f.N.f.f % @ # # # # 7X7X7X# # @ * 9 u.N.I.P.f.1.e e e e e e e e e e e e e e e e e e e e e e e e e e e e e 7X7X7X7X7X",
"7X7X7X7X7X7X7X7X7X7X7X7X7X7X7X7X7X7X7Xj j B u.N.r.f # @ # # # 7X7X7X7X7X# @ # 7 V u.N.V.f.k e e e e e e e e e e e e e e e e e e e r e e e e e e e e e e 7X7X7X7X",
"7X7X7X7X7X7X7X7X7X7X7X7X7X7X7X7X7X7X7X7XN V u.N.r.b # @ # # 7X7X7X7X7X7X7X@ # 7 n F f.N.f.9.e e e e e e e r e e e e e e e e e e e y e e e e e e e e e e r 7X7X7X",
"7X7X7X7X7X7X7X7X7X7X7X7X7X7X7X7X7X7X7X8.0.e.g.L.g.n * @ # 7X7X7X7X7X7X7X7X7X% 4 9 B e.f.u.q.1.p r e e e e y e e y e e e y r e e y e e e y r e e e e r e e 7X7X7X",
"7X7X7X7X7X7X7X7X7X7X7X7X7X7X7X7X7X7Xm 0.f.g.N.P.N.0.7X7X7X7X7X7X7X7X7X7X7X7X7X9 n N 8.0.q.u.f.q.7X7X7X7X7X7X7X7X7X7X7X7X7X7X7X7X7X7X7X7X7X7X7X7X7X7X7X7X7X7X7X7X",
"7X7X7X7X7X7X7X7X7X7X7X7X7X7X7X7X7X7XB 0.g.P.I.P.P.7X7X7X7X7X7X7X7X7X7X7X7X7X7X7XN N N V e.g.P.7X7X7X7X7X7X7X7X7X7X7X7X7X7X7X7X7X7X7X7X7X7X7X7X7X7X7X7X7X7X7X7X7X",
"7X7X7X7X7X7X7X7X7X7X7X7X7X7X7X7X7X7X7X0.g.7XI.7X7X7X7X7X7X7X7X7X7X7X7X7X7X7X7X7X7X7XN 7X7X7X7X7X7X7X7X7X7X7X7X7X7X7X7X7X7X7X7X7X7X7X7X7X7X7X7X7X7X7X7X7X7X7X7X7X",
"7X7X7X7X7X7X7X7X7X7X7X7X7X7X7X7X7X7X7X7X7X7X7X7X7X7X7X7X7X7X7X7X7X7X7X7X7X7X7X7X7X7X7X7X7X7X7X7X7X7X7X7X7X7X7X7X7X7X7X7X7X7X7X7X7X7X7X7X7X7X7X7X7X7X7X7X7X7X7X7X",
"7X7X7X7X7X7X7X7X7X7X7X7X7X7X7X7X7X7X7X7X7X7X7X7X7X7X7X7X7X7X7X7X7X7X7X7X7X7X7X7X7X7X7X7X7X7X7X7X7X7X7X7X7X7X7X7X7X7X7X7X7X7X7X7X7X7X7X7X7X7X7X7X7X7X7X7X7X7X7X7X"
};
