/* XPM */
static char *result[] = {
/* columns rows colors chars-per-pixel */
"80 80 241 2 ",
"   c #010102",
".  c #03030D",
"X  c #070B0A",
"o  c #050613",
"O  c #0A0714",
"+  c #0C0A16",
"@  c #0D0B19",
"#  c #070A1D",
"$  c #100E1D",
"%  c #0D1214",
"&  c #0A1318",
"*  c #111213",
"=  c #12131B",
"-  c #1C1C1D",
";  c #05100B",
":  c #090D23",
">  c #040C2C",
",  c #040A27",
"<  c #0D1223",
"1  c #07112E",
"2  c #0C132C",
"3  c #0C1B24",
"4  c #1A1D2B",
"5  c #161925",
"6  c #050D32",
"7  c #061133",
"8  c #0D1533",
"9  c #0D1636",
"0  c #101733",
"q  c #121A34",
"w  c #191F32",
"e  c #121A3C",
"r  c #191E38",
"t  c #1A232A",
"y  c #1B2234",
"u  c #1B233C",
"i  c #1D283A",
"p  c #163332",
"a  c #2B2B2C",
"s  c #232729",
"d  c #23312D",
"f  c #222534",
"g  c #232C35",
"h  c #2B2B33",
"j  c #21263A",
"k  c #232A3A",
"l  c #292D3C",
"z  c #263234",
"x  c #2A3533",
"c  c #2D3935",
"v  c #2B333D",
"b  c #2E3A38",
"n  c #323132",
"m  c #323D3B",
"M  c #373937",
"N  c #34302E",
"B  c #262117",
"V  c #472815",
"C  c #53321B",
"Z  c #5C361E",
"A  c #4B2C14",
"S  c #423C33",
"D  c #4B382F",
"F  c #633E27",
"G  c #673D1A",
"H  c #1D423E",
"J  c #36423B",
"K  c #5B441E",
"L  c #474639",
"P  c #554A33",
"I  c #565135",
"U  c #665835",
"Y  c #704B26",
"T  c #796734",
"R  c #726B37",
"E  c #0B1845",
"W  c #141E45",
"Q  c #171E48",
"!  c #1A1E52",
"~  c #152046",
"^  c #1B2442",
"/  c #16214A",
"(  c #19234E",
")  c #1A2652",
"_  c #1C2956",
"`  c #1C2A59",
"'  c #1F3453",
"]  c #272B44",
"[  c #2C3244",
"{  c #2C344C",
"}  c #2B354C",
"|  c #313544",
" . c #343C4D",
".. c #383B48",
"X. c #343C53",
"o. c #473E42",
"O. c #364240",
"+. c #394442",
"@. c #3A424D",
"#. c #3B4354",
"$. c #3E4858",
"%. c #275353",
"&. c #34506A",
"*. c #346D6C",
"=. c #1F4342",
"-. c #434343",
";. c #4A4544",
":. c #494C4A",
">. c #57594A",
",. c #434553",
"<. c #414B5C",
"1. c #4B4C59",
"2. c #494C55",
"3. c #5E5C5C",
"4. c #565555",
"5. c #524F4A",
"6. c #625E5E",
"7. c #5B6247",
"8. c #68664B",
"9. c #696858",
"0. c #797956",
"q. c #746D51",
"w. c #434D61",
"e. c #475264",
"r. c #555A65",
"t. c #5C6268",
"y. c #5D6374",
"u. c #686666",
"i. c #766C67",
"p. c #686A76",
"a. c #757272",
"s. c #7A7574",
"d. c #7E7A79",
"f. c #777D73",
"g. c #71726F",
"h. c #8B562C",
"j. c #8A712D",
"k. c #897233",
"l. c #967A38",
"z. c #8F6A32",
"x. c #A97439",
"c. c #89744B",
"v. c #B07B45",
"b. c #827C7C",
"n. c #8E7A65",
"m. c #3D817C",
"M. c #A58735",
"N. c #AF933F",
"B. c #BB9735",
"V. c #87893F",
"C. c #DEB239",
"Z. c #C8A238",
"A. c #E4B73A",
"S. c #938D5B",
"D. c #97935C",
"F. c #8F8A4E",
"G. c #B29452",
"H. c #888765",
"J. c #928B68",
"K. c #9A9765",
"L. c #84847D",
"P. c #979477",
"I. c #928E73",
"U. c #A49B66",
"Y. c #AD9F7B",
"T. c #B5AB69",
"R. c #A6A47A",
"E. c #B9B274",
"W. c #B4AE6F",
"Q. c #C18C47",
"!. c #D2A84B",
"~. c #E0B842",
"^. c #D8B761",
"/. c #C7BD77",
"(. c #CDB366",
"). c #F9CB41",
"_. c #FFD94E",
"`. c #F9D85C",
"'. c #EAC852",
"]. c #FFE35F",
"[. c #CDC376",
"{. c #D5C97A",
"}. c #DDD07C",
"|. c #FBDB6A",
" X c #E5D77C",
".X c #FFDD76",
"XX c #E9C770",
"oX c #FEE675",
"OX c #FFE66E",
"+X c #686D83",
"@X c #499897",
"#X c #55B1B0",
"$X c #858285",
"%X c #97968A",
"&X c #969696",
"*X c #898D96",
"=X c #A6A798",
"-X c #AFAE8E",
";X c #9498A4",
":X c #B7B8B9",
">X c #A9ACAA",
",X c #9CA1A8",
"<X c #CCB28D",
"1X c #BFC3B5",
"2X c #D0C993",
"3X c #E4D885",
"4X c #E9DC9E",
"5X c #E9CF8C",
"6X c #FFED83",
"7X c #FAEA88",
"8X c #FFF086",
"9X c #FFF18B",
"0X c #FFFE8D",
"qX c #FFEF94",
"wX c #FFF696",
"eX c #EDE39F",
"rX c #C4C4B9",
"tX c #D1CDB2",
"yX c #E1DBB5",
"uX c #FFF4AC",
"iX c #FFF2A4",
"pX c #FFF6B1",
"aX c #FFFDB3",
"sX c #F5E8A9",
"dX c #C0BEC0",
"fX c #C7C7C9",
"gX c #D5D3D2",
"hX c #E8E6CC",
"jX c #FFF6C7",
"kX c #E5E3D5",
"lX c #FFFBDD",
"zX c #FFF9D3",
"xX c #F0EED4",
"cX c #E7E7E9",
"vX c #FFFDE2",
"bX c #FFFCEA",
"nX c #FFFDF2",
"mX c #FFFFFE",
"MX c #F3F4F4",
"NX c #DDE1D1",
"BX c None",
/* pixels */
"BXBXBXBXBXBXBXBXBXBXBXBXBXBXBXBXBXBXBXBXBXBXBXBXBXBXBXBXBXBXBXBXBXBXBXBXBXBXBXBXBXBXBXBXBXBXBXBXBXBXBXBXBXBXBXBXBXBXBXBXBXBXBXBXBXBXBXBXBXBXBXBXBXBXBXBXBXBXBXBX",
"BXBXBXBXBXBXBXBXBXBXBXBXBXBXBXBXBXBXBXBXBXBXBXBXBXBXBXBXBXBXBXBXBXBXBXBXBXBXBXBXBXBXBXBXBXBXBXBXBXBXBXBXBXBXBXBXBXBXBXBXBXBXBXBXBXBXBXBXBXBXBXBXBXBXBXBXBXBXBXBX",
"BXBXBXBXBXBXBXBXBXBXBXBXBXBXBXBXBXBXBXBXBXBXBXBXBXBXBXBXBXBXBXBXBXBXBXBXBXBXBXBXBXBXBXBXBXBXBXBXBXBXBXBXBXBXBXBXBXBXBXBXBXBXBXBXBXBXBXBXBXBXBXBXBXBXBXBXBXBXBXBX",
"BXBXBXBXBXBXBXBXBXBXBXBXBXBXBXBXBXBXBXBXBXBXBXBXBXBXBXBXBXBXBXBXBXBXBXBXBXBXBXBXBXBXBXBXBXBXBXBXBXBXBXBXBXBXBXBXBXBXBXBXBXBXBXBXBXBXBXBXBXBXBXBXBXBXBXBXBXBXBXBX",
"BXBXBXBXBXBXBXBXBXBXBXBXBXBXBXBXBXBXBXBXBXBXBXBXBXBXBXBXBXBXBXBXBXBXBXBXBXBXBXBXBXBXBXBXBXBXBXBXBXBXBXBXBXBXBXBXBXBXBXBXBXBXBXBXBXBXBXBXBXBXBXBXBXBXBXBXBXBXBXBX",
"BXBXBXBXBXBXBXBXBXBXBXBXBXBXBXBXBXBXBXBXBXBXBXBXBXBXBXW W W W ( _ _ ` _ _ ` _ / W ~ ~ W / Q W W W BXBXBXBXBXBXBXBXBXBXBXBXBXBXBXBXBXBXBXBXBXBXBXBXBXBXBXBXBXBXBX",
"BXBXBXBXBXBXBXBXBXBXBXBXBXBXBXBXBXBXBXBXBXBXBXBXBXBX/ ~ W W / ( ) _ _ _ _ _ ( / W W W W W W W Q W BXBXBXBXBXBXBXBXBXBXBXBXBXBXBXBXBXBXBXBXBXBXBXBXBXBXBXBXBXBXBX",
"BXBXBXBXBXBXBXBXBXBXBXBXBXBXBXBXBXBXBXBXBXBXBXBXBX~ / ( ) ( ) ) _ ` ` _ ) ( ( ~ ~ W W W e e e W BXBXBXBXBXBXBXBXBXBXBXBXBXBXBXBXBXBXBXBXBXBXBXBXBXBXBXBXBXBXBXBX",
"BXBXBXBXBXBXBXBXBXBXBXBXBXBXBXBXBXBXBXBXBXBXBXBX~ / ( ) _ _ _ ) _ _ _ _ ) / ~ W ~ W ~ e e 8 8 BXBXBXBXBXBXBXBXBXBXBXBXBXBXBXBXBXBXBXBXBXBXBXBXBXBXBXBXBXBXBXBXBX",
"BXBXBXBXBXBXBXBXBXBXBXBXBXBXBXBXBXBXBXBXBXBXBXQ / ( ) _ ` ` _ _ ) ) ) ) / ~ W W W W W e q 8 BXBXBXBXBXBXBXBXBXBXBXBXBXBXBXBXBXBXBXBXBXBXBXBXBXBXBXBXBXBXBXBXBXBX",
"BXBXBXBXBXBXBXBXBXBXBXBXBXBXBXBXBXBXBXBXBXBX~ / ) _ _ ` ` ` ` ) / / / / / W W ~ ~ e 9 9 8 8 8 BXBXBXBXBXBXBXV V BXBXBXBXBXBXBXBXBXBXBXBXBXBXBXBXBXBXBXBXBXBXBXBX",
"BXBXBXBXBXBXBXBXBXBXBXBXBXBXBXBXBXBXBXBXBXBXQ / / / ( ( ( ( / / ~ Q W W W W ~ W W e 9 8 8 8 BXBXBXBXBXBXBXBXV V V BXBXBXBXBXBXBXBXBXBXBXBXBXBXBXBXBXBXBXBXBXBXBX",
"BXBXBXBXBXBXBXBXBXBXBXBXBXBXBXBXBXBXBXBXBX) ( ~ 2 : : : 3 : : 9 W ~ W W W Q W W W e 9 8 0 BXBXBXBXBXBXBXBXA C C C V BXBXBXBXBXBXBXBXBXBXBXBXBXBXBXBXBXBXBXBXBXBX",
"BXBXBXBXBXBXBXBXBXBXBXBXBXBXBXBXBXBXBXBXBX` ) ~ @ .         . < e W Q W W W W W W e 9 8 BXBXBXBXBXBXBXBXV C K Y Z V V BXBXBXBXBXBXBXBXBXBXBXBXBXBXBXBXBXBXBXBXBX",
"BXBXBXBXBXBXBXBXBXBXBXBXBXBXBXBXBXBXBXBXBX` ` ' =.H 3   ; p =.p q 0 e W W W W W e e 8 7 BXBXBXBXBXBXBXA C G Y h.Y V V BXBXBXBXBXBXBXBXBXBXBXBXBXBXBXBXBXBXBXBXBX",
"BXBXBXBXBXBXBXBXBXBXBXBXBXBXBXBXBXBXBXBXBX) ` &.@X@X%.& p m.@X*.3 # 8 W / W W e q 8 8 9 BXBXBXV V V V Z G Y h.x.h.BXBXBXBXBXBXBXBXBXBXBXBXBXBXBXBXBXBXBXBXBXBXBX",
"BXBXBXBXBXBXBXBXBXBXBXBXBXBXBXBXBXBXBXBXBX! ` &.#X#X*.& H @X#X*.&   2 W Q W Q 9 8 8 8 q BXBXK A V V V C F h.z.x.BXBXBXBXBXBXBXBXBXBXBXBXBXBXBXBXBXBXBXBXBXBXBXBX",
"BXBXBXBXBXBXBXBXBXBXBXBXBXBXBXBXBXBXBXBXBX) ` &.*.*.p ; 3 %.*.H X . 2 / / W W 9 8 8 0 z 7.V.T U K V V V C G h.BXBXBXBXBXBXBXBXBXBXBXBXBXBXBXBXBXBXBXBXBXBXBXBXBX",
"BXBXBXBXBXBXBXBXBXBXBXBXBXBXBXBXBXBXBXBXBX` ` / t &     ; ; & ;   . 2 W W W e 9 8 7 8 b R V.G.F.T K V V A C BXBXBXBXBXBXBXBXBXBXBXBXBXBXBXBXBXBXBXBXBXBXBXBXBXBX",
"BXBXBXBXBXBXBXBXBXBXBXBXBXBXBXBXBXBXBXBXBXBX) e .                 . # 8 e e W 9 8 6 3 c R G.Q.Y.R.n.i.i.i.n.BXBXBXBXBXBXBXBXBXBXBXBXBXBXBXBXBXBXBXBXBXBXBXBXBXBX",
"BXBXBXBXBXBXBXBXBXBXBXBXBXBXBXBXBXBXBXBXBXBX` e o                     o : 8 0 9 8 6 7 N h.v.<XyXhXgXtXfXrXyXeX9X9X9X9X9X9XBXBXBXBXBXBXBXBXBXBXBXBXBXBXBXBXBXBXBX",
"BXBXBXBXBXBXBXBXBXBXBXBXBXBXBXBXBXBXBXBXBX` _ W @                       # 2 8 8 0 y | D h.v.<XgXcXcXcXMXmXlXuX9X9X9X9X9X9XBXBXBXBXBXBXBXBXBXBXBXBXBXBXBXBXBXBXBX",
"BXBXBXBXBXBXBXBXBXBXBXBXBXBXBXBXBXBXBXBX` ` _ ( e : .           o O o # : 8 7 , w :.H.G.(.(.Y.&X,X>X1XNXmXBXBXBX0X0X0X0XBXBX0XaXvXBXBXBXBXBXBXBXBXBXBXBXBXBXBXBX",
"BXBXBXBXBXBXBXBXBXBXBXBXBXBXBXBXBXBXBX_ ` _ _ _ ( ~ :         o < 2 1 1 2 8 8 7 [ 0./.7X7XXXJ.,.:.7.0.H.BXBXBXBXBXBXBXBXBX7X7XuXlXmXBXBXBXBXBXBXBXBXBXBXBXBXBXBX",
"BXBXBXBXBXBXBXBXBXBXBXBXBXBXBXBXBXBX` _ _ _ _ ` ` _ q @ o . o : 8 9 8 8 7 8 ] $.p.P.E././.R.9.y t c L M BXBXBXBXBXBXBXBXBXS.W.2XhXmXbXBXBXBXBXBXBXBXBXBXBXBXBXBX",
"BXBXBXBXBXBXBXBXBXBXBXBXBXBXBXBXBX_ _ _ _ _ _ ` ` ` ( W e 8 8 8 8 9 8 8 > 7 w.;X:X&Xu.>.7.5.m q 3 t t t 2 > 6 > > 6 > > 0 m 5.u.BXBXBXwX0XBXBXBXBXBXBXBXBXBXBXBX",
"BXBXBXBXBXBXBXBXBXBXBXBXBXBXBXBXBX_ _ _ _ _ _ _ _ _ _ ) ( Q W e 8 9 9 e q v p.:XfX*X} 2 2 0 0 2 2 8 2 0 8 8 8 0 q u r u u ^ j u BXBX}.3X3XBXBXBXBXBXBXBXBXBXBXBX",
"BXBXBXBXBXBXBXBXBXBXBXBXBXBXBXBX` _ ` _ _ _ _ _ ( ( ( ( ) / W W e 9 7 W 5.n.%X&X*Xe.e , , @ : < < < < < 3 5 4 f l | ..,.1.1.,. .8 4 8.S.T.}.BXBXBXBXBXBXBXBXBXBX",
"BXBXBXBXBXBXBXBXBXBXBXBXBXBXBXBX` ` _ _ _ ` _ ) ( ~ ~ ~ ~ W W W W W W  .H.[.W.9.{ u 8 2 @ X * * = * * + * - s N o.:.3.u.a.a.a.r.[ r f L c./.7XBXBXBXBXBXBXBXBXBX",
"BXBXBXBXBXBXBXBXBXBXBXBXBXBXBXBX` _ ` _ _ ) ) ( / ~ W ~ W W E E W ] ,.i.K.E.K.-.1 > 9 2 = * * * * * * ; * * - a M :.4.u.u.i.u.r.,.| | o.8.K./.4XBXBXBXBXBXBXBXBX",
"BXBXBXBXBXBXBXBXBXBXBXBXBXBXBXBX_ _ _ _ _ ( ( / ~ ~ W W W W E E E 2.J.E.U.0.L g 1 > 8 2 = % * * * * * * * * * - a M L -.;.;.;.5.3.u.t.u.9.8.0.=XcXmXBXBXBXBXBXBX",
"BXBXBXBXBXBXBXBXBXBXBXBXBXBXBXBX` _ ` _ ) ( ~ ~ W W ~ W ~ ] ] [  .9.E.[.D.L h j u q 8 < $ = * * * * * * = = * * 4 a h h h h h o.r.a.d.s.u.o.5.&XcXmXBXBXBXBXBXBX",
"BXBXBXBXBXBXBXBXBXBXBXBXBXBXBXBX` _ _ _ ) ( W W W W W Q | 5.h.c.H.K.K.S.q.-...2.,.] r 0 < < < < < : < < < < < 5 5 t y 4 4 4 y l @.4.p.+Xs.;.;.&XcXmXmXBXBXBXBXBX",
"BXBXBXBXBXBXBXBXBXBXBXBXBXBXBXBX` _ _ ` _ ) W W Q Q E Q o.c.Q.^.}.E.0.I ;.5.3.i.u.,.r 7 2 0 2 0 0 0 0 2 8 2 2 2 0 0 0 0 q q 0 0 q [ 4.a.b.BXBXBXBXBXmXmXBXBXBXBX",
"BXBXBXBXBXBXBXBXBXBXBXBXBXBXBXBX` _ _ _ ) ( W W W W E E o.v.!.`.6X/.8.N M 4.u.s.s.e.j 7 7 0 7 8 8 8 8 7 7 9 7 7 8 8 8 8 8 8 8 8 7 q @.g.BXBXBXBXBXBXlXlXlXBXBXBX",
"BXBXBXBXBXBXBXBXBXBXBXBXBXBXBXBX` _ _ _ _ ( Q W W W E E o.v.!.|.6X[.8.N | 5.u.s.s.1.r 7 0 8 0 9 7 7 7 7 7 7 7 7 7 8 8 8 8 8 8 2 8 0 ] BXBXBXBXBXBXBXuXuXpXBXBXBX",
"BXBXBXBXBXBXBXBXBXBXBXBXBXBXBXBX` _ _ _ _ ] Q W W Q Q j F v.!.XX}.W.8.M o.4.u.s.a.1.r 2 2 0 8 0 r f a h h h a h y 0 8 8 8 8 8 8 8 0 q BXBXBXBXBXBXBX9X9X9XBXBXBX",
"BXBXBXBXBXBXBXBXBXBXBXBXBXBXBXBX` _ _ _ ) ( Q Q W ^ | F c.Q.XX(.U.c.>.;.4.u.a.b.a.1.r 8 7 8 6 7 a U j.j.j.j.j.T D 0 6 7 8 8 8 8 8 8 BXBXBXBXBXBXBXBXBXBX8X6X6XBX",
"BXBXBXBXBXBXBXBXBXBXBXBXBXBXBXBX` _ _ _ ! ! Q Q Q ! F h.Q.XX XU.U -.;.3.u.s.b.b.a.1.Q 2 8 8 7 0 P M.C.A.C.A.A.Z.T h 7 8 8 8 8 8 8 0 BXBXBXBXBXBXBXBXBXBX9X9X9XBX",
"BXBXBXBXBXBXBXBXBXBXBXBXBXBXBXBX` _ ` _ ! ! Q Q e ! D h.G.5X4XY.5.| 5.u.a.b.L.b.a.1.j 7 6 0 h P c.(..X.X.X.X.XXXG.U M y 8 7 8 8 8 8 8 BXBXBXBXBXBXBXBXBXuXuXuXBX",
"BXBXBXBXBXBXBXBXBXBXBXBXBXBXBXBX` _ _ _ _ ( ~ ~ W ^ h D n.tXhX=X3.5.u.a.d.b.$X$Xa.1.u 6 6 w U M.(.5XjXjXjXjXzXsX5XG.j.M 1 6 8 8 8 8 8 BXBXBXBXBXBXBXBXBXlXlXlXBX",
"BXBXBXBXBXBXBXBXBXBXBXBXBXBXBXBX` _ _ _ _ ( ~ W W u w n i.gXcX:Xg.6.a.d.d.a.s.s.u.,.r 8 t S j.~.7XjXmXmXmXmXmXbXqX_.B.U h w 0 8 8 8 0 BXBXBXBXBXBXBXBXBXmXmXmXBX",
"BXBXBXBXBXBXBXBXBXBXBXBXBXBXBXBX` _ _ _ _ ( ~ W W W w x a.fXMXdXL.a.d.b.i.3.4.1.,.] r h U V.!.|.7XlXmXmXmXmXmXnXpXoX~.N.T S y 7 8 8 8 BXBXBXBXBXBXBXBXBXmXmXmXBX",
"BXBXBXBXBXBXBXBXBXBXBXBXBXBXBXBX` _ _ _ _ ( ~ W W ~ w h g.fXcXdX$Xs.s.a.3.o.n g u 7 0 P M.C.'.oXsXlXmXmXmXmXmXnXjXqX.X'.Z.T h 7 8 8 0 BXBXBXBXBXBXBXBXBXmXmXmXBX",
"BXBXBXBXBXBXBXBXBXBXBXBXBXBXBXBX` _ _ _ _ ( ~ ~ W ~ 3 a u.fXcX1Xs.6.3.3.;.N f 2 7 6 0 P B.).].6XuXvXmXmXmXmXmXnXzXwXOX_.A.k.N 6 7 8 0 BXBXBXBXBXBXBXBXBXmXmXmXBX",
"BXBXBXBXBXBXBXBXBXBXBXBXBXBXBXBX` _ ` _ ) ( ~ W ~ e 2 t t.fXcX,X5.a N N N a s 0 8 6 q I B.).].6XpXvXmXmXmXmXmXnXjXwXOX_.A.j.h 7 8 8 8 BXBXBXBXBXBXBXBXBXmXmXmXBX",
"BXBXBXBXBXBXBXBXBXBXBXBXBXBXBXBX` ) ` _ ` ( ~ W W W 1 = 9.1XNX%XN X X * - a g w 8 6 0 P B.).].6XuXvXmXmXmXmXmXnXjXwXOX_.A.k.h 7 8 8 8 BXBXBXBXBXBXBXBXBXnXnXnXBX",
"BXBXBXBXBXBXBXBXBXBXBXBXBXBXBXBX` ` ` ) _ ( ~ ~ ~ e : & >.2XyXI.a   X * - a h w 8 6 0 P B.).].6XpXvXmXmXmXmXmXnXzXwXoX_.A.k.h 7 7 0 8 BXBXBXBXBXBXBXBXBXjXjXjXBX",
"BXBXBXBXBXBXBXBXBXBXBXBXBXBXBXBX` ` ) ` _ ( ~ W W e 1 3 U /. XD.a X ; * B a y y 8 6 0 P B.).].oXuXlXmXmXmXmXmXnXjXwXOX_.C.k.h 6 8 8 8 BXBXBXBXBXBXBXBXBXqXqXwXBX",
"BXBXBXBXBXBXBXBXBXBXBXBXBXBXBXBX` ` ` ` _ ( ~ W W W 3 - 7.[. XD.N % = - s x g q 8 6 0 S j.G.'.|.qXjXlXvXlXvXvXzXpXoX`.!.M.I f 7 8 0 8 BXBXBXBXBXBXBXBXBX9X8X9XBX",
"BXBXBXBXBXBXBXBXBXBXBXBXBXBXBXBX` ) ' ) _ ( ~ W ~ ~ q d R [. XD.J - t d c M v u 8 7 0 f N U N.'.OXqXuXpXpXpXuXiX6X`.!.k.P h q 8 8 8 8 BXBXBXBXBXBXBXBXBX9X6X9XBX",
"BXBXBXBXBXBXBXBXBXBXBXBXBXBXBXBX` ` ) ` _ / ~ W W ~ u z 8.W.}.K.7.J x x m J b i w 8 8 8 7 x T Z.'.|.6X7X6X6X6XoX`.~.M.P 0 7 8 8 8 0 8 BXBXBXBXBXBXBXBXBX9X9X9XBX",
"BXBXBXBXBXBXBXBXBXBXBXBXBXBXBXBX` ` ) ` _ ) ~ W W u i b L 0.D.K.F.V.:.H b O.J z y 0 2 7 7 8 L T N.'.`.].].].].`.!.l.I h 7 7 8 8 8 0 8 BXBXBXBXBXBXBXBXBX9X9X9XBX",
"BXBXBXBXBXBXBXBXBXBXBXBXBXBXBXBX` ) ` ) ) ) ~ W W W i z J J 7.D.{.T.8.c z J m z g y 8 8 8 8 0 a U B.).).).).).C.V.S f 9 8 8 8 8 8 8 0 BXBXBXBXBXBXBX9X9X9XBXBXBX",
"BXBXBXBXBXBXBXBXBXBXBXBXBXBXBXBX` ` _ _ _ / ~ ~ ~ i i z p t J R.eX2X0.c z J J b b g i y 8 8 7 7 M k.B.B.B.B.B.M.U 4 6 7 8 8 8 8 8 0 8 BXBXBXBXBXBXBXuXuXpXBXBXBX",
"BXBXBXBXBXBXBXBXBXBXBXBXBXBXBXBX` ` ) ` _ ( ~ ~ i z x x d d :.-XxXtXf.J z c c m J m b i y 8 7 8 f S P P P P P P N 0 7 8 8 8 8 8 8 8 0 BXBXBXBXBXBXBXlXlXlXBXBXBX",
"BXBXBXBXBXBXBXBXBXBXBXBXBXBXBXBX` ` ) _ _ ( W ^ z d c d d d :.*XfXrXb.5.J d c J O.+.O.b u 9 7 8 0 q q 9 q 9 0 0 0 8 8 8 8 8 8 8 8 q 8 BXBXBXBXBXBXBXmXmXBXBXBXBX",
"BXBXBXBXBXBXBXBXBXBXBXBXBXBXBXBX` _ ` ` ) ( W i z x x x d d J t.@X&XR.K.8.J d c O.+.+.b y 9 9 2 7 7 6 6 6 6 7 7 7 8 8 8 0 8 8 8 8 8 8 BXBXBXBXBXBXmXmXBXBXBXBXBX",
"BXBXBXBXBXBXBXBXBXBXBXBXBXBXBXBX` _ _ _ ) ( ( ^ z x x x x x x f D 8.W.{.D.L x J O.+.O.[ y 9 9 9 0 0 8 8 0 8 8 8 0 8 0 8 8 8 8 0 8 8 BXBXBXBXBXBXmXmXBXBXBXBXBXBX",
"BXBXBXBXBXBXBXBXBXBXBXBXBXBXBXBX` _ _ _ ) ( W ^ z x x x c c x = O C c.E.R.f.t.@.O.O.O.b y 9 1 9 9 8 8 8 8 8 8 8 8 8 8 8 8 8 8 8 8 8 BXBXBXBXBXlXmXmXBXBXBXBXBXBX",
"BXBXBXBXBXBXBXBXBXBXBXBXBXBXBXBX` _ _ ` ` ( W i z x d x c m b 4 + = D 8.%X1X=Xu.O.H O.b u 8 8 8 8 8 8 8 0 8 8 8 8 0 8 8 8 8 8 8 8 8 BXBXBX0XqXuXBXBXBXBXBXBXBXBX",
"BXBXBXBXBXBXBXBXBXBXBXBXBXBXBXBX` ` _ _ ) ( ~ ^ i x x x c m c s = o O h @XgXdXL.7.+.+.b y q 8 8 8 8 8 0 8 8 8 8 8 8 8 8 8 0 8 8 7 0 ] BXBXwX9XBXBXBXBXBXBXBXBXBX",
"BXBXBXBXBXBXBXBXBXBXBXBXBXBXBXBX` ) _ ) ( / ~ u z d x x a d s 5 @ O O $ 1.$X%XR.K.8.+.z g y r 8 0 9 8 8 8 8 8 0 8 8 8 8 8 7 > > 6 W y.gXvXaXBXBXBXBXBXBXBXBXBXBX",
"BXBXBXBXBXBXBXBXBXBXBXBXBXBXBXBX` ` ) ( ~ E ~ ^ z x x x a 5 = + + O + $ $ h 8.E.{.K.>.O.J | j q 8 7 8 8 8 8 8 8 8 8 8 0 8 0 0 8 6 { *XcXmXBXBXBXBXBXBXBXBXBXBXBX",
"BXBXBXBXBXBXBXBXBXBXBXBXBXBXBXBX` _ ) / ~ ^ u i z m c c d = + O + @ + + . O S F./.R.L.f.H.9.+.y 6 1 1 1 1 1 1 1 7 1 7 6 e X.e.t.3.u.=XcXmXBXBXBXBXBXBXBXBXBXBXBX",
"BXBXBXBXBXBXBXBXBXBXBXBXBXBXBXBX` _ ) ( ~ u i b m J J J d 5 + O + + + + O O s I 0.=XfXtX2XE.q.p > > > > > > 1 > > 1 > , ^ +X:XrX2X[.2XBXBXBXBXBXBXBXBXBXBXBXBXBX",
"BXBXBXBXBXBXBXBXBXBXBXBXBXBXBXBXBX` ) Q ~ j z v m J +.O.c 5 @ O + + + @ O + = t %.&XgXxXsX{.D.+.] ] } } { { { [ [ [ v k ,.*XfXhX4X3X}.BXBXBXBXBXBXBXBXBXBXBXBXBX",
"BXBXBXBXBXBXBXBXBXBXBXBXBXBXBXBXBXBX/ / ~ i g x z | @.$...t @ O @ + + + O O $ 5 J p.,X>X-XR.K.D.I.&X;X;X;X;X;X&X%XJ.S.S.J.%X&X&XI.J.BXBXBXBXBXBXBXBXBXBXBXBXBXBX",
"BXBXBXBXBXBXBXBXBXBXBXBXBXBXBXBXBXBXBXQ ~ ^ j k k [ X.,...4 @ O + + + + + + < 4 v <.y.y.t.g.U.2X4XNXcXcXcXcXcXgXyX2X X X[.H.,.[ [ v v BXBXBXBXBXBXBXBXBXBXBXBXBX",
"BXBXBXBXBXBXBXBXBXBXBXBXBXBXBXBXBXBXBXW W ^ j k l |  . .v 5 @ O @ + @ + + + $ 5 f | $.$.$.e.f.E.<X:XfXfXfXfXfXfX2X<X[.[.W.9.y , > 6 > BXBXBXBXBXBXBXBXBXBXBXBXBX",
"BXBXBXBXBXBXBXBXBXBXBXBXBXBXBXBXBXBXBXW ~ r j [  .#.| f 5 = @ + + + @ + + + @ $ 4 v ,.w.e.e.4.>.6.t.y.y.y.y.+Xy.r.8.8.>.5.| q 6 6 2 : @ BXBXBXBXBXBXBXBXBXBXBXBX",
"BXBXBXBXBXBXBXBXBXBXBXBXBXBXBXBXBXBXBXW ^ u ] [ $.$.l 5 + O + + + + + + + + + O < l $.e.e.$.} u q q 9 9 e 9 9 7 q 0 e q q 0 8 8 8 8 < @ + BXBXBXBXBXBXBXBXBXBXBX",
"BXBXBXBXBXBXBXBXBXBXBXBXBXBXBXBXBXBXBXBXQ u j [ $.,.l = O O @ + + BXBXBXBX@ O O $ y | #.e.w.] 7 > > > > > > > > > > 7 > 6 7 8 0 8 2 : @ + BXBXBXBXBXBXBXBXBXBXBX",
"BXBXBXBXBXBXBXBXBXBXBXBXBXBXBXBXBXBXBXBXBXj k | $.$.v < O O @ O BXBXBXBXBXBXBX+ $ 4 k  .$.$.} u 7 8 8 2 8 8 8 8 8 8 8 8 8 8 8 8 8 8 : @ + BXBXBXBXBXBXBXBXBXBXBX",
"BXBXBXBXBXBXBXBXBXBXBXBXBXBXBXBXBXBXBXBXBX[ [  .$.w.[ 5 O + + BXBXBXBXBXBXBXBXBX$ 5 y [ @.#. .^ u e 8 8 8 0 8 8 0 8 8 8 8 0 0 8 0 2 2 @ @ BXBXBXBXBXBXBXBXBXBXBX",
"BXBXBXBXBXBXBXBXBXBXBXBXBXBXBXBXBXBXBXk l  .#.<.e.w.#.BXBXBXBXBXBXBXBXBXBXBXBXBXBXy k k ] }  .X.X.[ BXBXBXBXBXBXBXBXBXBXBXBXBXBXBXBXBXBXBXBXBXBXBXBXBXBXBXBXBXBX",
"BXBXBXBXBXBXBXBXBXBXBXBXBXBXBXBXBXBXBXf [  .<.e.e.e.BXBXBXBXBXBXBXBXBXBXBXBXBXBXBXBXk j j l  .<.w.BXBXBXBXBXBXBXBXBXBXBXBXBXBXBXBXBXBXBXBXBXBXBXBXBXBXBXBXBXBXBX",
"BXBXBXBXBXBXBXBXBXBXBXBXBXBXBXBXBXBXBXBXl  .BXBXBXBXBXBXBXBXBXBXBXBXBXBXBXBXBXBXBXBXBXBXBXBX#.BXBXBXBXBXBXBXBXBXBXBXBXBXBXBXBXBXBXBXBXBXBXBXBXBXBXBXBXBXBXBXBXBX",
"BXBXBXBXBXBXBXBXBXBXBXBXBXBXBXBXBXBXBXBXBXBXBXBXBXBXBXBXBXBXBXBXBXBXBXBXBXBXBXBXBXBXBXBXBXBXBXBXBXBXBXBXBXBXBXBXBXBXBXBXBXBXBXBXBXBXBXBXBXBXBXBXBXBXBXBXBXBXBXBX",
"BXBXBXBXBXBXBXBXBXBXBXBXBXBXBXBXBXBXBXBXBXBXBXBXBXBXBXBXBXBXBXBXBXBXBXBXBXBXBXBXBXBXBXBXBXBXBXBXBXBXBXBXBXBXBXBXBXBXBXBXBXBXBXBXBXBXBXBXBXBXBXBXBXBXBXBXBXBXBXBX"
};
