/* XPM */
static char *result[] = {
/* columns rows colors chars-per-pixel */
"80 80 168 2 ",
"   c #622C3D",
".  c #783F3E",
"X  c #071B43",
"o  c #091D44",
"O  c #072145",
"+  c #092246",
"@  c #072649",
"#  c #0A2649",
"$  c #072B4B",
"%  c #0A2B4C",
"&  c #102047",
"*  c #122E4D",
"=  c #07314E",
"-  c #0A324E",
";  c #10314F",
":  c #073750",
">  c #0C3550",
",  c #073C52",
"<  c #0B3C53",
"1  c #103551",
"2  c #123D54",
"3  c #1E3F5A",
"4  c #632F40",
"5  c #633241",
"6  c #673C45",
"7  c #074355",
"8  c #0A4356",
"9  c #0C4659",
"0  c #0C4B5B",
"q  c #124256",
"w  c #134559",
"e  c #18435B",
"r  c #144C5D",
"t  c #184E5E",
"y  c #0E515E",
"u  c #14515F",
"i  c #18515F",
"p  c #24455C",
"a  c #234D5F",
"s  c #2F605C",
"d  c #1A4F60",
"f  c #155461",
"g  c #195561",
"h  c #165963",
"j  c #1A5B64",
"k  c #1E5F68",
"l  c #234960",
"z  c #205664",
"x  c #1B6067",
"c  c #1D6169",
"v  c #20646A",
"b  c #674349",
"n  c #68444A",
"m  c #794541",
"M  c #7B4B44",
"N  c #754C49",
"B  c #446655",
"V  c #8B333A",
"C  c #8D393D",
"Z  c #9D3538",
"A  c #91393B",
"S  c #9C3E39",
"D  c #BF392F",
"F  c #A43637",
"G  c #AD3636",
"H  c #A63A37",
"J  c #AC3C37",
"K  c #B83533",
"L  c #B33D35",
"P  c #BD3931",
"I  c #FF0504",
"U  c #FF0A07",
"Y  c #FE0C09",
"T  c #F5130F",
"R  c #FF150E",
"E  c #EA1D17",
"W  c #EC1E1A",
"Q  c #F61414",
"!  c #FF1711",
"~  c #FF1815",
"^  c #FC1B1B",
"/  c #E3221C",
"(  c #EC291E",
")  c #F02E16",
"_  c #FE2E16",
"`  c #F6201C",
"'  c #F4351B",
"]  c #FF311A",
"[  c #D22323",
"{  c #DE2424",
"}  c #DC2B24",
"|  c #C2322F",
" . c #CD352A",
".. c #C3382F",
"X. c #CC382A",
"o. c #DE3327",
"O. c #D1332A",
"+. c #D93728",
"@. c #D63D2A",
"#. c #D83F29",
"$. c #C33531",
"%. c #C93230",
"&. c #C43C32",
"*. c #E32621",
"=. c #EC2B21",
"-. c #FE2625",
";. c #E23126",
":. c #E03529",
">. c #E23D29",
",. c #FF3324",
"<. c #FF342C",
"1. c #E13731",
"2. c #FF3535",
"3. c #F53C3C",
"4. c #85463C",
"5. c #88473C",
"6. c #8E4C3A",
"7. c #97403D",
"8. c #9C413A",
"9. c #8F543F",
"0. c #94533B",
"q. c #9B573B",
"w. c #9D5B3C",
"e. c #BB4E2E",
"r. c #A44337",
"t. c #AB4636",
"y. c #AC4937",
"u. c #A44539",
"i. c #A94838",
"p. c #B34334",
"a. c #B94433",
"s. c #B64E31",
"d. c #BE4934",
"f. c #A15737",
"g. c #A45837",
"h. c #A25C3B",
"j. c #AA6038",
"k. c #DE4227",
"l. c #DE432A",
"z. c #C64036",
"x. c #C24C33",
"c. c #C44F39",
"v. c #E1462B",
"b. c #EC442B",
"n. c #E44A2C",
"m. c #E34B30",
"M. c #D7602C",
"N. c #DE662D",
"B. c #E0672D",
"V. c #FF6B34",
"C. c #EC7C3F",
"Z. c #834940",
"A. c #8B5141",
"S. c #D24E40",
"D. c #F64644",
"F. c #FF4E46",
"G. c #FF4E4A",
"H. c #F95553",
"J. c #FF6D44",
"K. c #EC7D46",
"L. c #FF7052",
"P. c #FF7366",
"I. c #E68585",
"U. c #E78989",
"Y. c #E88E8E",
"T. c #EA9494",
"R. c #EB9C9C",
"E. c #F1BBBB",
/* pixels */
"o O - j i + o t i q t g q % j g g o + % o X i % q j j j c c c g 2 ; # % q g j j h h f = r u # r h j 0 7 7 h : # o w g , 8 r # # g > , 7 , w # # $ < r r z i j $ ",
"# # g j u o o % i t q 2 q 2 j i o > o r o o 2 e ; w g z c c c j e ; # - e j j j f 9 r $ w , # - 9 j y 0 8 , w > O w : 7 u r # O : w < 7 9 w # # > r 7 w 1 q 1 * ",
"q q q g - o + r i $ q + r w q j o i % r % o X + w r u j k c j j w > % > w f j d r r 8 - - q # - 0 r h 8 7 7 - u > w = 8 i r # + f w < , h 9 o % w , 8 t 1 i # X ",
"e 2 q j q + # w w r r % r i u i o j i u e % o o % r r h j k j j d < > > f d f 0 8 r u < o - + $ 8 , i 0 8 8 , u r - = g = r # # r w f d d + o < = , r ; e t # X ",
"w o r i 1 + w > r w r q r x j i o q q t q i + + % - u u f j k j h w , < f 9 0 < r w q 2 o o 1 < + $ r j 8 8 8 u u - : i @ q + q < # j d + o @ d = , u 1 w < X X ",
"i + i i w + r r 7 u 0 % q i u x # r + q q t 2 % - w r u u f h h j h 7 f f 7 7 < r w > # + > w 2 O # q j u 8 8 8 h - r O O + q q 2 # # 2 + X d $ - 9 r 9 - q % o ",
"t - i - i # r u < u < % < q r i w q O r 2 - < r u j , , h r f h d f < f 7 7 < 9 h > 2 2 * f g 2 + o # G i u , , , - w + + { r # # 2 1 o + # ; d w j , w $ u u o ",
"- 2 o o i q $ u 7 u r % q u r w u - # t * - i i g w q - u 0 0 f 9 0 9 d 7 7 < h d q 2 t 2 t t > + o O # , - < 9 = # r < { { - = - w < o % 1 2 w w r r $ O q < o ",
"+ - o o i + # r 7 u : $ *.r - u h , $ + + h i r t r 1 # $ j 9 h d w @ $ r 7 , j f w # 2 w d r r % o o % f # d h # O # h *.{ w 7 , $ + # ; w j g g h g + o i q o ",
"o - o o i + $ = u i - < { q i u u r - + o j r g q < q % $ G 9 h 9 { # > f : , g h 2 { w d g d 2 q % % r d 1 o r o o q w # r < f r : - > 2 j j f g ; + o O r q # ",
"o q o o r + + - u u - # { { u u u r > - o i - j e w q $ G 8 G $ % { o g 2 > : g d { # { h f f r 2 r w f r 2 X j o O 2 t - = r 9 7 f 2 g d f d d 2 % O # % w 1 2 ",
"+ - o o r o + + % q + + { # i y j , r i o o o g O r r < w G d % # { % w q > q r r 2 *.: f 0 r f r t 2 d r > o j # w G q u = : r 9 d h j h f y 9 > % o # 2 e d t ",
"; o o o t o $ q + o + o + # h , h 8 j w # X o O $ f r g h j < % % w f o w t < g r 2 { > d 7 r { j d g 2 2 q o h w i o r < $ , 8 f r f h h f 0 7 - # $ 2 r g j k ",
"q o % - t < u j + o o + $ > x - h r j G 2 o # # r r , 9 h w 2 q u + t o r # q # r $ ; : r 9 9 { j j t g # q o d t r o j 2 # - < f y f j j y 9 < < > q t w h j x ",
"% o q i j j j i o o O q r i u $ : w h G w # % : r 7 9 u h < < 2 2 2 2 O # - r { w q 2 > r h < { j j e h # X X u q q $ j O $ - - r f f h h 0 9 0 r w q e r j j h ",
"o - r i r , r % % + 2 r h - + + w # j G i # = r 7 7 7 f r 2 2 2 *.2 G # $ h j h h j d 2 w f > r j j t h # o *.i 2 r t i o q r # = h d 0 h 0 y h r r g f h j j 0 ",
"% i q j , r , - 2 > % g j w o - t o i g r $ , r 8 7 0 h r w + *.q *.# % = j j G f j h d g j > e g g d f % o o - r r i i % 2 G O # = r 7 h 7 h f r f h g j j 8 7 ",
"i i q i 8 r - r # # g j t o + r + % g o i - r G 8 7 u 9 r # O w { q 1 > , > 8 G h h f j w 1 2 w d g h g , + o - t r g i q % q o # @ < : g , r u r f j h j i , = ",
"i i j 2 u - # r # 2 r g r + * w ; r 2 o t < u 7 7 , f j G o o # ; 2 q w r < - G g f f g j w r r r r g r u - # w 2 t g r i q i + o # 1 % g @ 8 r r 0 d f u r % % ",
"x j j w t # O w 2 o g q 2 2 - t 2 w o o + h i 7 , 9 f G < G O # > d i i j g # - : h 9 f h g f G y y h 8 j 9 $ t % q { j j j g + o # 1 # g # q r r < f 0 r % # o ",
"k h i u - + o q X % f > d % g % i e + o + $ : , { h j r G % > > w h j f r % # # $ f 7 d j j j j h j 7 7 7 x : r r { r g g j j + o # q # w 1 o f r , g 9 r # o o ",
"j h r h % o o o X d g g 2 q 2 2 i ; # + O # $ < { g j w w d d d j d f g 2 # o O $ - < r j G G h f h 7 7 G j 9 g g { r f j g ; G o % q 2 d 2 # w { 7 7 r r O X X ",
"h h h g % o o + # d ; j j j j g i q ; O o O % q { f k o > j e d f { f < : # o o O # : g j k G h 0 f 7 7 7 j j h r { u y j < % O % 1 d g h 1 # + { f h , < # X X ",
"h h u j % o + q d # 1 *.j j j j g i 2 % + o 1 O ; g < % w e g j f y f < $ > o o o # % g t G G g 0 u 7 7 7 h u h j j r h r - % % > t j g g w > + { { f , g # O o ",
"j g j w - + 2 r i + 1 w j g j j j g t 2 > # q o t g t w < d f h f f 7 < 7 d # o o G % i r g f f < f y < 7 0 f j j g d f : : - w d f j d y f { { { : , > > > ; ; ",
"r f h # q ; % t t + % i q g f u h f r g g { t o # g t q r d f f y f 0 G j r w 2 + o *.u w r i 8 > f G , 7 0 h j j g < f = > < { 9 d f f j > d o { { = > 2 2 2 2 ",
"% r r % 2 q r i # O + t - - i 9 f r g g g g r # * g w g d y f 0 0 y h < - r f # w { # { 7 9 r - = G w G 9 y f j j d 2 d { r { g { f f 9 j d > o X o @ - 2 d f j ",
"2 O o w X t 2 i q - # r + # u j h r h h G j j w 2 q d j h y f 7 y f h f > h f w u w { r , 9 r , # r F d y 0 f h j d 2 e > d d { f f 9 9 j f > o o o # % d d j x ",
"o o o o % e % 2 q i q q o - u h 0 0 y j h h j j g *.h k h f y 7 u { 9 g w g h j q q # i , G 7 u % < G j r 7 r f y d f 2 d 2 d f f 9 < h d j # # # ; > 2 r f h h ",
"o o o # q X e o o + 2 w + i - h h 0 0 h f h j j G g k k h y f , i w q u O f o g o r 8 i r r f w d o r d $ w f 0 0 d j f f f f y *.9 < d w f o # ; 2 d d f 0 y y ",
"o o o 2 o o 2 + o o ; r + r 8 j h 9 9 u f j j h j z c k j y d , h u < j o o o t o O j j , u r = h o o o @ > f d G f j j f f 0 9 { r w 1 < f + # - d d d d 0 9 9 ",
"o o o # # % # + + o w r ; r q i 0 h 9 { h h f j j j k j f f y , h q w j o o o r + + j i 9 r : - # # o o o w < 0 f 0 f j g f y < { $ G 2 g % o # 1 d f f g e e % ",
"o - < 1 r q 1 - % o t ; q g > f 9 u y u j j h u j j u u u y 8 8 j { g g X o o q @ : < h h h - 8 < 8 G + o u $ 8 f 0 f f f 0 < < q # { + h X o # < r d d p % % # ",
"X t j t h g g t q % + - w i f w q w u u 7 y f y u y h u y u q 8 g # h % X o o w < d f g j g < g t j % # o w > h f h G 0 0 < , r # o { - i o o - - r r t % % o o ",
"X o r 2 j j j t 1 r 2 r - r o g O $ f { 0 u u 7 0 u u u 7 { u 7 h # u       5 A.0.8.u.u.0.4.6 u , g : % $ r r 9 7 h 8 8 < < w # o + { 2 ; % o r : g 9 3 # o o o ",
"o o # r d d g { r i < g 2 i % g < # j } u 7 u u u h 7 7 7 u 7 7 g #   V 4 A S i.i.S u.u.0.f.r.N 7 h 8 - w < w 9 7 f 7 7 7 < q o O O q < r u + r r r r $ & X X o ",
"o o # i j g { < { r h h j i q r i # i { h 7 0 8 u , = = - h 7 r h @ V V Z.u.0.d.x.B.B.N.M.e.g.h.M n f 7 9 w < w u u 9 7 < r % O O % 2 u j g + 2 g w r w # X X X ",
"o o + % - j i { r u g j j j i r j # h u G 8 0 y 7 - $ $ = r 7 8 r 4 Z 8.h.J @.$.z.z.z.+.c.x.a.s.i.u.h f f r - < r w h < 7 f % O # 7 r h g % # g g > O t 1 + X X ",
"o % + 2 r j $ u u u j j j j g g r # r 0 8 0 u , , - + + - u r , : V H h.s.$.&.K %.%.%.1.E *./ D i.i.n h f h = < < # g , , g # # # r r f g % # o r t * t o q X o ",
"o r 2 % j w q @ r < g h j G G i < # u u 8 u , , $ - $ % w w - < m S u.s. .K S.[ Y U ^ 2.Q ` Y ) p.r.8.n h r = w 2 + $ - : % # O # r , h u - o X 2 g f X o e o o ",
"> g i i g o - # w , 8 j j w u u q # i 7 0 r = 9 % q q r 2 % % - S i.J } O.O.,.I 2.^ 3.^ 2.~ T Y ` L q.8.h j - i O O + # - # O + # r 9 j 9 - # X - i j o + p p l ",
"g e % q g o > o + u r u j 8 h # - $ = 7 i , 8 j 2 % r i ; 2 + % u.i.#.+._ J.<.Y 2.` ^ ^ 2.^ ,.T ' P g.r.M j - q o o o - w O o o % i i g { { G & t i i o q l z j ",
"g 2 o q t o q o - u j i r r u @ + q - { u 8 i j i i t - o % o   u.J k.n.] J.<.Y ^ 3.D.Y.-.P.~ *.C...t.r.8.x - # + G % t q o o + # 0 g j , { O 2 % t 1 + j z j x ",
"r o # 2 o o 2 + i i i $ r i # + + q % { j i q r i 1 o o + r o Z i.J k.n._ ! <.-.H.I.E.R.D.F.U =.n.k.G r.8.= % % % q t 1 o o o % + $ u i 8 *.# f # q r a j i h h ",
"2 o q o X o ; q ; + + + q i % + + - # { r i G u j < % + w q + G G u.:.>._ I ~ 2.Y.Y.E.T.R.<.U ] m.k.J r.r.# % q w w t X o o X r O 2 # 1 g u r g t z i a g h h 0 ",
"o o t + + % q i q o o # q 2 r % o < q h - q i j i j 2 o i % q F G u...&.V.I U G.U.R.E.U.R.F.~ ] m.n.J r.r.% q q % i 2 # # * % r + q < % i j g i 1 g j g j u h 7 ",
"o o + # 2 r t j 2 % o 2 i q q q o i o h - w u j r j O + u t q   G u.&.a.K.U I G.Y.Y.R.U.H.<.,.] o.v.t.t.r.1 % o i i % 1 r d r t ; q r r h 2 t r 2 g j j g 8 r : ",
"X X $ 2 i i q t + 2 o o 2 r ; i + q o w q r r j j g + q i o r + G H X.p.n.] I <.H.D.D.D.<.<.J.=.{ d.t.t.5.X X + t r r t f *.r g % r t t r i o t q j j j h < w $ ",
"X # e i r d { 1 % o o o 2 r 2 i 1 # + i q i j i i 8 % q i o i % Z G p.P k.l.R ! R ,.L.L.,.R b.*...i.y.i.r % + *.% g d d f w f d - r q i r i o i q g j g g w # O ",
"% q w q r { r { % o o O 2 t # w q 2 - i u i y u y u - 2 i o q q w H H p.p.} ;.=.W ( =.=.W / { | L y.t.9.r g w q q 1 e f h f j > i 2 ; ; r ; < i i j j t f w o X ",
"t t 2 q e f { 1 # o + # $ L q + i + o 2 w i j u u q i o i % w i q C G 8.q.X.@.v.;.*./ *.*.| D J y.y.9.s g j d r 2 w r f h f r 2 r { < - { - j w f f r r e w o X ",
"g t r e 2 t % # o + # > 8 i 0 - q q + - q j 7 u 7 u q + j q 2 q d ; C 7.S q.w.d.x.x.x.x.d.L j.i.u.Z.i w r g g d d d f h r r d # { *.2 q { G u u r f 0 h > < # o ",
"j j d q 1 q o o O + $ u g j r q q G 2 o i j , i , r 2 o o q % i 2 # r 6 H u.u.u.i.w.q.g.y.y.j.u.n 0 y h j h j j j h y f < f w > o { { i { 8 i 7 0 0 7 h < q % X ",
"j j g 2 e # X o + = > u u r u < q * 2 o i j = j q < w < - + t - > w r h 5 m 4.A.S 0.0.6.8.A.9.m y 0 h j j v x k j h 0 f 9 h > w o # u i { u y 7 f f 0 f j # # X ",
"j f d < w o o # , r r 8 u , i u - % i + r h % - w $ r i i w i < # t g 1 * X X i   6 b . 4.B s - i 0 y j c c c h f y 0 0 f h $ r + r j u { i y 0 y f h w j > o $ ",
"0 0 < < w # @ : { , 7 u 7 8 < r + q % # r r + % > + > i G i + q 2 r r r o X o r # w : d * q < 0 i 0 u h k j { f 0 0 9 f h *.< 1 - j i y i 7 u u f h h r g d $ % ",
"0 8 , r r + $ { r { 7 u 7 , - 8 { o o 2 q 2 % q + o q r G 2 O r w g q 2 + - + t q o r g % - < i f 0 y f h h f r 7 7 7 7 j r w q r i u y i 0 9 i r j j t g t % o ",
"7 7 8 u # O r { 8 { 7 r , = - 0 { # O - q o q % G o q G q G 2 - g r q > ; i ; u r < t q t + r u h 7 y f j f 9 9 < 0 7 7 j < g < g i 8 y i u u u r h g t g i % # ",
"7 7 , u # < r { 7 { 8 r = = - w { - @ o t o e o o o i G G o t w g i 2 # t t r g g g 2 w g + # G , 9 0 y f r 9 r r h < 7 h > w r r r u 8 x u 9 i 8 h r t i g # o ",
"0 7 8 u # g w - { , u = # # - u , 9 $ # - + o o o o q r o % 2 j g 2 O 2 g g j t 2 t > g u ; $ r , 7 0 9 9 f r i d h r f f : w g 9 i i 8 7 i $ $ r f r t i g X X ",
"7 7 , i # u # - , , j # + - 8 8 9 r < % # q + o o o i o O u % j g # % g g d d r r # 2 i r j # r < 7 7 9 , u g G q < - r h - u < w r u , r g + + $ h g 1 r r X X ",
", = $ < > i # $ < - $ + + i g u j h r 2 1 t # o o + i O # j q i t 1 t g q G w g e + + i w h G 9 7 7 7 , r g < q q O @ - - - h q q r u < g q % o : g r r g t o X ",
"# % # $ i g % % r > + O O j q r h j j t e 2 % o X 2 2 o w j t 2 ; d g t q 2 r g # + - 2 g h w r , 7 < < g 2 2 q 2 o O # > w g w i r 2 t < - q + r # % t j o X X ",
"+ + + q g q - > q t o o o g r i z j j j g w 1 # o i o o w d 2 w 2 j j d 2 * w o o o o o r g < u 9 9 w f < t o q 2 + # o r q t o i q - + q + r O w o o X o X o o ",
"o o ; # t q 2 q q r o o o % { r d h z c j j 2 ; *.d o o d e w w g f g r 2 > q X X o o o j O t g h h q # q i 1 % % % % % q < 2 # - g o > 1 o d o % > % - % % o o ",
"o o q 2 t 2 - q ; q + o o # % d e g j c v h g *.w { # o w > d G g h r { 2 r X X o o o + g o t # r % % O < # g 2 w w r < 2 r # q > g X q 2 o g - 2 g w w # % # o ",
"o o 2 % t o q 2 q 2 1 o o + + *.w w d j k k h h { 2 % # w d d h f u 0 7 r w o X o o o 2 i o o # # # O o 2 1 g g j h j h G g % f 2 t X 2 1 o g r > : , r > # # % ",
"o % r + + + e + t o q o o o *.o { d e j k c c h f 2 ; 2 r j j h j G 9 , r > o o o + O e + o o o o O o o 2 g j j g h h 9 r = # O 2 { o 2 2 o o q r < , < r - $ $ ",
"X q ; # ; ; ; % # o 1 o o X O *.2 w w r h c x k h e > w f g j j h 0 8 < j # + + # % < > # o X + X X X o e h t r h h r h *.$ % % w # > > < O O O q r : < w r $ $ ",
"X w # 1 q q q ; # o o o o + q q { % t 0 f j k k { f 9 j f d k { h 0 9 9 i % - # > r g r w G X 2 X X X o r h < *.r g r - $ + + q + $ h i j # + + O j - - 2 g r $ ",
"X o % 1 t g r 1 % o o + ; - 2 o o % : f 0 f h { j { h 9 0 f j { h y u u < - # # r u h 8 q # - > o o o o g < { < { 0 r % # o o o # r u , u $ + o X r > > w d j j ",
"# * 1 w g g t 2 % - + 2 % 2 + o # % : j 7 f f { f { f 9 0 f j { h i 8 g - # + $ f < r 9 q r g { ; & # 1 g r : { 9 9 r 2 o X % + # r g 7 r % + + # d 1 1 w f j j ",
"2 2 q j h f r > % g > ; r w $ + q ; - - 7 u y { y { y y 0 y f f f 0 0 y - + O - u 0 r r g h $ *.r 2 > 2 q 2 8 u 7 r r w + o r o # h j 8 r # $ - 2 g t q r f h h ",
"d d g h f 0 < 9 1 g % r i , < < o o + % r u i u { f 7 f 0 f y j u f 7 h $ @ O r , h r 8 q g r / e g d 2 # @ 2 r 0 9 j r 2 o r o - j 9 u , - w > ; f d f f r f 0 ",
"j j j j f 7 < j f # 9 d i u 8 - + o o < i i < 0 7 f f f 0 0 j j u 8 7 h - # # u = h u r > % i q d j j q % % < r j r h g ; o w % w i h u < r < g 2 h h j u 0 8 7 ",
"j j j f h , d g > w f h 9 8 > w - % + q q x 7 q < y 0 9 f f f j r , , : = - - u = r r q + q i 0 d g f r r w > r j , u r q o t r u r r h r g q t g g f d r 7 , - ",
"f j f f 0 w 2 f 2 2 $ r h u 0 , 8 u < + i h 9 7 8 r : w 9 f f h r : - - < r r g , i r q o + u r 0 d j d w h > > < w i q r % t u h - r j < i q # w g r r 7 : - $ ",
"j 0 f d d @ g 2 e # - : 0 u h 8 q i q + i i 9 8 r r % 8 w 9 f f j : % # r i , , r t u + o + r r 7 0 h h j f 2 ; q < i o r r 2 t i O t q q o q % w r 9 8 < $ # + ",
"f 7 f f $ ; r o 2 + $ : u 0 u y u i < > u j u 8 9 w # g , r f r h w < # - , , < u + i o o o $ u < y y h j j e > 2 r i + j i ; r r % w 2 q 8 q q > , 7 , - # o o ",
"7 7 f w # r 2 o o + $ < 7 j 0 7 x j i i + h u r r = # o g r h , j q 2 # - 7 7 r j + X X o O $ j < j h k k j f d i j 2 o j q t i 2 q g 1 f j e # $ : 7 : $ # o X "
};
