/* XPM */
static char *result[] = {
/* columns rows colors chars-per-pixel */
"80 80 166 2 ",
"   c #622D3D",
".  c #783F3E",
"X  c #071B43",
"o  c #091D44",
"O  c #072146",
"+  c #092246",
"@  c #072649",
"#  c #0A2649",
"$  c #072B4B",
"%  c #0A2B4C",
"&  c #102047",
"*  c #122E4D",
"=  c #07314E",
"-  c #0A324E",
";  c #10314F",
":  c #073750",
">  c #0C3550",
",  c #073B52",
"<  c #0B3C53",
"1  c #103551",
"2  c #123D54",
"3  c #1E3F5A",
"4  c #253E57",
"5  c #632F40",
"6  c #633241",
"7  c #663B45",
"8  c #074355",
"9  c #0A4356",
"0  c #0C4659",
"q  c #0C4B5B",
"w  c #124256",
"e  c #134559",
"r  c #18435B",
"t  c #144C5D",
"y  c #184E5E",
"u  c #0E515E",
"i  c #14515F",
"p  c #18515F",
"a  c #394F4A",
"s  c #24455C",
"d  c #234D5F",
"f  c #3F6252",
"g  c #1A4F60",
"h  c #155461",
"j  c #195561",
"k  c #165963",
"l  c #1A5B64",
"z  c #1E5F68",
"x  c #234960",
"c  c #205664",
"v  c #1B6067",
"b  c #1D6169",
"n  c #20646A",
"m  c #654047",
"M  c #684249",
"N  c #7A4642",
"B  c #7D4C45",
"V  c #744B49",
"C  c #8B353C",
"Z  c #8D3A3E",
"A  c #9D3538",
"S  c #963C3B",
"D  c #9B3D39",
"F  c #BF3C2F",
"G  c #AD3737",
"H  c #A53A37",
"J  c #AB3B37",
"K  c #A03739",
"L  c #A43B39",
"P  c #A83D38",
"I  c #B33634",
"U  c #BC3731",
"Y  c #B13C35",
"T  c #FF170C",
"R  c #EC1D1A",
"E  c #FF1712",
"W  c #F41B16",
"Q  c #DF341F",
"!  c #E4261F",
"~  c #EC291F",
"^  c #FF2112",
"/  c #FC2B13",
"(  c #F42D1E",
")  c #FE2D19",
"_  c #FF321C",
"`  c #C52E2D",
"'  c #DE2523",
"]  c #D62C27",
"[  c #DD2A25",
"{  c #D52E28",
"}  c #C4322E",
"|  c #CA352C",
" . c #C13D2E",
".. c #CC382D",
"X. c #D43127",
"o. c #DD3224",
"O. c #D83D27",
"+. c #D63328",
"@. c #DE3629",
"#. c #D43B29",
"$. c #E22521",
"%. c #E22B24",
"&. c #EC2B25",
"*. c #E43024",
"=. c #E2352C",
"-. c #E63929",
";. c #FF3324",
":. c #FF332A",
">. c #87463B",
",. c #874D3E",
"<. c #8C4C3B",
"1. c #94453B",
"2. c #9D433B",
"3. c #94543C",
"4. c #9E593B",
"5. c #A44337",
"6. c #AA4437",
"7. c #AA4837",
"8. c #A34539",
"9. c #A84438",
"0. c #A94839",
"q. c #B24334",
"w. c #B24C36",
"e. c #A65B37",
"r. c #B75036",
"t. c #B85136",
"y. c #CD442D",
"u. c #DE4227",
"i. c #DF452D",
"p. c #CA5934",
"a. c #E04428",
"s. c #FF4727",
"d. c #FF4929",
"f. c #E7522D",
"g. c #EC4631",
"h. c #E34D36",
"j. c #FF4C37",
"k. c #DE6830",
"l. c #FF6B33",
"z. c #8A5141",
"x. c #E84B45",
"c. c #E45046",
"v. c #E4514F",
"b. c #E45151",
"n. c #F15E59",
"m. c #FF6D44",
"M. c #FF6F4F",
"N. c #FF7052",
"B. c #FF715A",
"V. c #E76666",
"C. c #E56B67",
"Z. c #E57876",
"A. c #F17B75",
"S. c #F17B79",
"D. c #EC804F",
"F. c #E8847A",
"G. c #E68484",
"H. c #E78887",
"J. c #EC8887",
"K. c #E78888",
"L. c #E98D8C",
"P. c #EB9B96",
"I. c #EB9C9C",
"U. c #F1BAAE",
"Y. c #F1BBB5",
"T. c #F1BBBB",
/* pixels */
"o + - l p + o y y w y l 2 # l l j o + % o o p % w l l z b b b j w ; o * 2 j z z k h h = t t % t k l q 8 8 k - # + e i 9 8 t # # h > , 9 , e % O = < h y c p c $ ",
"# # j l t + o % p y w 2 w w l p o 1 o t o o 2 r ; w p z b v b l 2 ; % - r j k k t q t = e : # - 0 l i 8 8 , e - # e - 9 i t # O > e , 8 0 e + @ > q , w 1 w 1 ; ",
"w w 2 l - + + t p % w + t e w j o p % t # o o + e t t l v v z j e > - > g j k h t t 9 = > 2 # % q t k 8 8 9 - i = w - 9 p i # # h e , < j 2 + $ e , 0 y 1 p % o ",
"e 2 w l 2 + # w t t e % t p i i o l p i e % o o % t t h k z z j g < > > g q u g 9 t j < + - $ % < , p u 8 9 , i i = - k = e O # h w h g h + o 2 $ , t 1 r e $ o ",
"e o t p > + t - e t e w p l z p o w 2 y w y # + % > i u h k z l j q < < h q q < t e w 2 o o < 1 $ % t l 9 9 9 i t , - p # w $ w > o j j @ o % g = , i 1 e < X X ",
"p + p p e + t t 8 i t $ w p i v # t + w w t 2 % - 0 t p i k l l k j 9 u u 9 9 > t e < + + 1 w w + # e p i 0 9 9 p - t + O + w 2 2 % % 2 o X g % > q t 0 - e ; o ",
"y - y * p $ t i 9 i 9 $ > w t p t w + t 2 - 2 i p l - < k i h h h h < h , 8 8 < j 1 w 2 % j t 2 o o $ t i i 8 , , = t + + + e $ + e > o + % - e 9 l : t $ i i o ",
"% w + o p w $ t 8 i t % w p t 0 i % $ t * - p p j e e = i q q h 0 g e h 0 8 9 k t w w y 2 y y > + o o # < - < 9 = % e < 2 - - - - w 2 o % 1 2 g w t t # O w - o ",
"o ; o o p o $ e 9 i : - - t > i k < - O o p l w p t > % > l 9 h q e % $ i 9 9 l i e % 1 y g e y % + o # h % t l # + # l l i t < , $ @ % * e j j j l j + o p w o ",
"o - o o p + $ - i p - > + w i i p q = # + l t j e > w # $ : 9 l e @ + > h : , p h w % e h j g w 2 $ $ y y > o t o X w w # t < i t > $ > 2 j l k j ; # o + y w % ",
"o w o o i + # $ i i $ # + # i i i t > - + p - l e w w $ = < h = % > o h < = > h p 1 % j h h h t w y e h y 2 o l o + w t = - t 8 9 h 0 j j j h g 2 % o + % e 1 1 ",
"+ ; + o e + + $ $ w # + + $ i i k < t t X o o p + t y < 0 l h # + j ; e w > e i t w # - h q t i y y 2 g t > o j # e 2 w i = < i q e j l k g u 0 < # + % 1 e t y ",
"> o o o p + % w o + + o o % p 9 k < k t # o o o $ h t h l j < # = e p o w p 1 j t 2 % - i 0 t h h j g 2 w w o l w p o i < % - 9 u h h j l h q 9 = # % 1 t j l z ",
"w o # - p 9 i p o o o + % - l - k t l # w o + @ y t 9 9 l e w w t # y o y # w % t % - - t 0 q j l l y h + w o g p t o l 2 % = < g h h k j u 8 , < > e y t h l z ",
"; o w p p p p p + o + w t i p - > e l o e @ $ > h , 9 h h < < 2 2 2 2 + $ - i < w e 2 > t p 9 t l l y h + o o i w w % p O % - - t h h k l u q q t e w e i l l k ",
"o - e l i 9 i % $ + w t i % + # t # j > t % : t , 8 8 h t w 2 2 > 2 o # $ i l j z j t w e i > t j j y l + o o p w t p i X w t % > k q q k q t k t t j j k k l q ",
"$ p w l , t - - w - - j z w o - y o i p i % < i 8 8 q h t e + y r 1 + % - l l l h l j j j l 1 e j j h g # + X - t t p p % 2 > + % - t 9 k 8 l h q h l h l l 8 8 ",
"p p w p 9 i = t + # j j y o + p + % p o p = t 8 8 8 i t t @ + e g w 1 > : : < j k j h k e 1 2 e j h l j < # O - y y p i w % w + + $ < : h : t i t h j j k p , - ",
"p p l w p % % t # 2 y j t # % w ; y 2 o t 9 i 8 9 < h h h o o # - 2 w w t 9 > , j h g h j y t t t t j t p = # w 1 y p t p w p + o @ > % j % < t g 0 u h i t % # ",
"l p v e t $ + e 2 o p e 2 2 - y 1 t o o # p p 8 , q h j > o O # 2 t j j j j # = , j q h h h h h u u k 8 p q = i - 2 l z p z p + o + 1 + h % w y h , h h i % # o ",
"l l h i - + o w o % j > y % j # p w + o + # , , , k l t w % - > r j l h y % + @ = h 9 h l v l k k l 8 8 q l - t t h y h l l l # o + r % e 1 o g q : j q y @ o o ",
"v k i k % + o X o t j j w 2 w 2 z ; # o + # - - e j l t e g g y j h h j 2 # o O $ = , t l l l h h l 8 8 8 k q j h y t i l p - # o % w 2 g 0 o g t 9 9 q t + X X ",
"l k p k % + o + % g > l l j l j p w - + o + # e % g l o > j g g g u j 9 > # o X + % > h l z l k q u 8 8 8 k l j t h i u l < % + % 2 g j j > + + $ h h < < # o X ",
"h l p p % o + w y + 1 l l z l z p y 2 % + + - O - j 2 % e g h j h h h , = > o o X + % j j l l k q i 9 8 q h i k l j i p i - # % > g j j j w > @ $ t h , h # + o ",
"k j k e % # 2 t p # ; e l l l l l l i 2 < + e o y j y e 2 g h k u h 8 , 9 t # + o o # p y p h p , h h , 8 u h z z j t h , : - e g h j h h h h o @ : , > > - * % ",
"t h k # w 1 % p y + % p 2 l t i p p t p j 2 y o + j y w 0 g h h u h q t j y e 2 # o # p e i p 9 > h u , 8 u h l z j w h = > 2 j e h h h l > g o @ @ - - 2 2 2 g ",
"% t t % 2 w e p # o # y % - p q h i l j j l t + * j e j h h h q q u k 9 = t p # w $ $ i 9 0 t - % h 0 g 8 u h l l g 2 e $ t j g h g q q k g > o X o @ - 2 g j j ",
"2 o o t o t 2 j w - # t # $ p p h q h l j l k e 2 2 j l j u h 8 u h h h - l i t i 2 # i < 8 t < @ t - h u 8 h j j g 2 e > g g j h h q q j k > o o o @ - g g k v ",
"o o o o % w % 2 w p w w X ; i k q q h k k h l l j g l z k h u 8 i p 0 p e l l l w w # i 8 i 9 i % 2 e j t 9 q h h g h 2 g w h h h q < j g l o o % * > 2 t h j k ",
"o o o # w o e o o + w e + p , i k q q k h l l l j j z z l u h , i q e p # i o p X y w p t t h w g X t g = e g q q h k j h g h u q 2 < g e j + # ; 2 g g q h u u ",
"o o o 2 o o 2 + o + - e + t w l h q 8 h h k l l l c n l j h u , k p 1 l + o o y o + l j , t t = h o o O + > h h q q l l j h q 0 9 h e > 2 h o % 1 q g h h q q 0 ",
"o o + + # % # & o o e y - t w p h h 9 q k k h l z l z l h u h , k e t p X o + e + # l h 8 i , > # # o o o e < e h u h l j h q , g $ % 2 h % X % 2 g h g g e 3 # ",
"o - < > t w 1 - % o p ; e p > i q i i p i v i i p v i i u i 8 9 k # p i o X o 2 # < < l l h - 0 < 9 # + o t = 8 k u i h h q < < e # - + p o o % < t h g x % # % ",
"o y l y z j p t w % # - t p p e w e i u 8 k i q u k i i q i 0 0 k # l % o o o e : t i l j h : k t z % # + e - p i i q u q 9 > y # + w - p o o - - e y y % # o o ",
"X o y 2 l l l y ; t 2 e - t + j O = u p q i i q q i i i 8 i i 9 l % i o +   C 8.8.2.8.8.5.>.M i , k - % # t t e 8 k 0 8 9 : e O o o - w - % + t > h < 3 * X X X ",
"o o % y t t p y i p < l 1 p % j - $ k q u q i u u v , 8 8 i 8 8 p # + + 5 K L 8.I I Y G G 0.8.V 8 h 9 = e 9 e 0 8 h 8 8 9 < w + + # w < t p o t h 0 y > & X X o ",
"o o + p l j e 9 t t k l p p w t p % p i p q 8 q i , = - : p 9 i k # o   L G 6.O.o.u.u.u.} J Y Y B l i 8 0 t < w i i 0 8 , i # + + % 9 i l l o w h w t e # o o o ",
"o o o % - k p t t t h l l l p t p = p t i 8 q u 8 : $ $ = t 9 8 t #   H G U p.$.&.) ) ~ ! ` U I q.z.k h i t = < t e h 8 8 i % + # < t p l # + j j > + e 2 + X X ",
"o % + 2 i l $ t t i l l l z l p t $ i q 9 0 i 8 , - # + = i t 2 - = H G I *.) E :.&.&.&.&.R } } F P k h h p = < < # j < < k # + $ t i p j % + o y h ; y o 2 o o ",
"o t 1 ; p e e $ t 9 p l l t t p 1 $ i i 8 i , - - % $ % w e = - a 1.J I Q ^ W x.J.b.J.J.V.:.~ %.` P 2.i k i = t 2 # $ : = $ # + O t 8 h i = + o 1 j h o o w o o ",
"> j p p l o - # e 9 9 p p t i p w # p 8 0 t : w % w w e w % % - <.P P  ./ ) -.v.J.K.T.T.I.A.;.o.! e.J ,.k l - i o + # $ % # + + $ t 9 l 0 , # o % p p o # 4 s d ",
"g y % w y o - + O p t i v 9 p $ - = = 8 p , 8 l 2 % t p - w + % 8.P w.} ) _ c.J.I.I.T.T.T.P.;.~ $.k.U H f l = w o o o - w + o + $ p p i , t # & p y l o w x j z ",
"h 2 o w y o w o > p p p i e i $ + 1 = 8 p 9 p l p y y - o % + % J 8.r.$.l.&.c.Y.G.I.T.T.T.P.;._ ! u.#.G ,.v - # + # % p w o o o # e l k - l + 1 % y 1 % l c k v ",
"t o # 2 X o 2 # i p p % t i $ + + w $ w p p w t p 2 o o + e o # J e.t.! l.=.C.L.G.T.I.T.L.L.;.d.! ' X.G 2.= $ % # w e 2 o o X % # % i p 0 i # p % w t d j p k k ",
"2 + w o o o ; w - + + + w p % + o - - v i p e i v , % o e w + % 9.4...! _ =.Z.K.K.T.I.L.K.L.;.^ ' ' | J 5.O % e e e y o o o o e + 1 % 1 i i e l y c y d j l k q ",
"o o y o + % w p w o + # e w e % + 2 2 p > w p p p v 2 o p % w + 5.3.] $._ =.F.L.K.L.L.G.H.P.N.T ' ' w.G J $ w e - p 2 + # ; % t # w > % p z j p 1 j z j l h h 9 ",
"o o # % 1 p y p w # X 2 p w w w o i o p > w i v i p + + p y w + 5.e.] %.T g.B.S.L.K.K.K.L.U.M.( ' [ J G G 1 % o p y - ; t p t y ; w t t l 2 t t 2 j l l l 9 t : ",
"X o % < p p w p & 2 X X w t - p + w o e w q i v l p + w p o t + D H F ] R s.M.E n.G.L.U.A.B._ -.' { J J G X X # y t y y p ; t l % t t y t p o y w j l l h < e $ ",
"X # w p e j j 1 % o o o 2 t 2 i 1 % + p w p v p i 9 # w p + p # 6 J e.] ' f.D.;.E n.B.j.M.m.=.[ ] Y J 7.Z % # 2 % j g g h e h t - e e p t p + p w i v p j e # O ",
"% w r 2 g j y 1 % o o o 2 g # e w 2 ; t i p i i u i > w p + w w 2 A L  .] | i.h.a.g.' *.h.h.@.' | J 7.3.M h e e w 1 t j j h j 2 p 2 ; ; t - 2 i i l j p j w o X ",
"y t 2 w e h 2 ; # o + % % p e + p + o 2 w v p i t 0 p o p % e i e 7 L P  .} O.@.=.@.[ @.@.@.X. .6.J 2.N h j g t 2 e g j l h y 2 t o 1 - p ; p e h h i t t w o X ",
"j y y r 2 y % % o o % > 9 p t $ w w + - w p 8 i 8 i w o p w w e g > 7 K D J  .y.{ +.+.y.y.| } 0.P L M t y j h g y t h h e t h # ; o w 2 e = p i t i q l > < # o ",
"z j g w 1 w + o + + $ i k k t e w - 2 o p l , i 8 t w o o w % p 2 # y m S G 8.8.G 0.8.0.7.9.J 8.Z M h h k z z l j h u k 9 h e : o o w i $ 9 p 8 t u 9 k 9 w # o ",
"z l j w e o o o + - , i i t i < 2 * 2 o i l , p w < e < ; # t > - w t j - S D 2.L 2.3.1.2.2.2.N M q h l z b v z l k q i 9 j < e O # i p - i u 8 i u q i j # $ X ",
"h j t < e + o @ - e t 9 i , p i ; % p o t j % - w $ t p t t p > # t j 1 % o   M   Z m . 2.B V - i 9 h l z v v k h u q q j h % y # t v t 9 p u q i h k e l > o % ",
"q q 9 < e + # > i 9 8 u 8 8 2 t # e % # i t # % - + 1 p e p o w w t y t o o o t # 7 7 m   w < e k q u k l z k h u q q h p h < > - p p i i 9 i i u k l t j h % % ",
"0 9 8 t t O % t t 8 9 i 8 9 = 2 < o o 2 w 2 # w + o w t w 2 + t e j w w + - + y 2 o t p % - < p h q u h l k h q 9 8 8 8 h t e w t k i i i q 0 i i l l y j y # o ",
"8 8 , i # O t t 8 8 8 u , = - 0 w # + - w o w ; o o e p w + 1 - j t w - ; p ; p y < t t y o t t j 9 u h h h e e 9 q 8 8 l 9 i 2 p p 9 q p i i i t h j y p j % # ",
"q 8 , p # < t = 9 9 9 e = = = t 9 = @ X y X w o o o p j + o t e j i 2 % y t t p j j 2 w l + % t , q q u u h 9 i t l 9 8 l > e i t t i 9 v p t t 0 h t t p j # o ",
"8 8 8 i # j e - , 8 i = $ $ = t < 0 $ # * # o o o o 2 t + % 2 j p w + 1 j j l p 2 g > j t - % t , 8 q q 9 h t i g h t t u > e p 0 p p 9 8 i $ $ t h t y p j X X ",
"8 8 , i $ i # - , , l $ + - w 9 q t > $ # w + o o o p o + i # l j + ; j j j g t y # 2 i t j % t , 8 9 8 9 i p t w > = t l = i < w i i < t j + # $ k l 1 p t o X ",
", = = < < p # % > - $ + o i p i l h t 2 1 y + o o + p o # l w l y 1 y j w r w j e + + p y l $ 0 8 8 9 , t p < w w # # = - - l e w t i < p w # + : j t t j y o X ",
"% $ % % p p % % t - # o + l w i j l j g e 2 % + X 1 2 + y j y 2 1 g j g w 2 y j # + % 2 h l e t , 8 9 , j 2 2 w w o + # = w j e i t < y < - w o i O # y j o o o ",
"+ + # 2 p w 1 - w i o o + p y y j z n l j e ; # + p o o w t w w w j j g w % e o o o + o t p < h 9 9 t g < t o w 2 + + + y w p o p w ; # w + t + e + o o X X o o ",
"o o ; # y w 2 w w t o o o % y r p l c n l j w 1 % y o + g w e e p p l t < > w o o X X o l o y j h h t $ 2 p > % % % % # w < 2 $ - p o - 1 o p o % > $ % % % o o ",
"o o 2 w y 2 - w ; w + o o + ; p e j j n z l j e e t + o w 1 y j l k i t < y o o X o o + j o t % j $ # + > # j 2 e t t < 9 t # e ; p o 2 2 o j - w i e t $ # # o ",
"o o 1 % y o w 2 w w ; o o + + # e w y l z z l l j w % % e g j l i i q 9 t w o o o o o 2 h o + + # # + o 2 1 j j l l v p j j # p w y o w - o j y > > : i > # # % ",
"o # p + + # e + y o w o o o o o % p r j z b b k j 2 ; 1 g j j l i i 9 , t - + o o + + r + o o o o o o o 2 j l l l k i u t = # + 1 i + 2 2 o o w h < , : t - $ $ ",
"o w ; # * ; ; % + o 2 o o o + % w e e i l z b z j e > e h j l z k u 0 , p + # + + - < - # o o + X X X o e l t g i k i i - % # % e # - , < # + + w t : > t t % $ ",
"o r # 1 2 w w ; # o o o + o w w + % p q h k v l l h 0 j h h l z i i 0 q p % - + = y j y w + o 2 X X X o y j < 0 i i i - % # # e # - p p l # + o O l = > < g t $ ",
"X o % 1 y j y 1 # o o # * - 2 o o # > h q h k z z k h 0 q h l l k u i i 9 > + $ y i k 9 w # = 1 o o o o h < > , t e t % # + o o $ t i , i % + o o y > > 2 g k z ",
"# % ; t p j t 2 % - + w % 1 + o % % > k 9 u h l h h h q u h j l i p 0 p $ % + = i , i 9 e t j w * % + 1 j y > 9 0 0 t < o X % o # t p 8 t % + # + j 1 1 e j k v ",
"2 2 e j k h t > # j > ; t e # $ w - > = 9 i i p u u q q q u j h u u q i = # + - p q t t p p % t r 2 1 w e 2 0 q 8 t t w # o w + O k z 8 t $ % - 1 l p w t h h k ",
"y g j l h t 9 0 > j % t p < < - o o + ; i i i i q u q h q h u k i i 9 i = # + t 8 p i 9 e p t w e j g 2 + O 2 t q q l t 2 o t o $ l 0 p , - e > ; h y h h t h q ",
"z l l l t 9 , l h % 0 g p i 9 = + o o > p p < 0 0 h h h q q l z i 8 9 i = # # i : p i e < ; p w j j j w ; % < h k t l j ; o t % t p i i : t 1 j 2 l l j h q 9 9 ",
"l l l h l 9 t j > w h k 0 9 , e % $ + w e v 9 0 , u q 0 t h h k t 9 , - = - - t : i e 9 + w p e g h h y e e > e l > h t w o t t t i t k t j e y j j j h t 8 , : ",
"h l h h t e 2 j 2 2 $ t h h q , w i w O p p q 8 8 i = e t h t k i , - = > t i p : p t w + + i t q h l h e j < > 9 w p 2 y # y p p : t l < p w # w h i t 9 > $ $ ",
"j q h t i @ j 2 y + $ < t i v 8 9 p w + l p 0 8 q t $ e 0 0 h k p : ; $ t i 8 = e i p + o + t t 9 q h k l k 2 - e > i + t i 2 y y # p w w + w % e i 0 8 > $ + + ",
"j 8 h h # - y o 2 + $ : u q i i p p , > t p i 8 t e # p < t h i p t 2 # - 8 8 9 i # p o o o $ i , h u l l j g > w t p o l p - t t % t - 2 9 w w = , 8 , = # + o ",
"8 8 h q # t 2 o X + $ < 8 l 8 8 k l p p $ p i i e = + + h t k , p 9 2 # = 9 8 i p o o o X + $ v , l j l z l g y p l 2 o l w y p 2 w y 2 j z w # $ < , , = + o o "
};
