/* XPM */
static char *result[] = {
/* columns rows colors chars-per-pixel */
"80 80 199 2 ",
"   c #010102",
".  c #03040C",
"X  c #040B08",
"o  c #05100B",
"O  c #040613",
"+  c #0A0714",
"@  c #0C0A16",
"#  c #070C1D",
"$  c #0D0B19",
"%  c #06061A",
"&  c #100E1B",
"*  c #061312",
"=  c #0B1415",
"-  c #0A1917",
";  c #121415",
":  c #13141E",
">  c #15181E",
",  c #1A1B1A",
"<  c #0C211B",
"1  c #3F2112",
"2  c #090D23",
"3  c #070D22",
"4  c #0C1125",
"5  c #0B122D",
"6  c #0C1B24",
"7  c #131422",
"8  c #151926",
"9  c #191B25",
"0  c #11162D",
"q  c #191B2A",
"w  c #15192B",
"e  c #030E33",
"r  c #061133",
"t  c #0D1533",
"y  c #0E1837",
"u  c #0E173B",
"i  c #0F193B",
"p  c #07143D",
"a  c #111633",
"s  c #121934",
"d  c #191C33",
"f  c #10173A",
"g  c #111A3B",
"h  c #181F3C",
"j  c #221F32",
"k  c #0D2220",
"l  c #1E222C",
"z  c #192126",
"x  c #15322D",
"c  c #1D2233",
"v  c #1C243E",
"b  c #1F2A3C",
"n  c #1B3D39",
"m  c #18323D",
"M  c #242525",
"N  c #242826",
"B  c #22262A",
"V  c #222A2B",
"C  c #282C2D",
"Z  c #27322E",
"A  c #222435",
"S  c #252B36",
"D  c #2A2C32",
"F  c #21263B",
"G  c #222A3A",
"H  c #312331",
"J  c #392B38",
"K  c #263235",
"L  c #293433",
"P  c #2D3934",
"I  c #2F3B3B",
"U  c #2B353E",
"Y  c #383436",
"T  c #323D3A",
"R  c #363839",
"E  c #422414",
"W  c #482917",
"Q  c #4D2D18",
"!  c #442A16",
"~  c #4D361C",
"^  c #57351D",
"/  c #4B2E2E",
"(  c #5E372D",
")  c #402E3D",
"_  c #463638",
"`  c #53383B",
"'  c #65392D",
"]  c #673D28",
"[  c #613B37",
"{  c #6B3F35",
"}  c #1D423E",
"|  c #35413E",
" . c #384035",
".. c #5A411F",
"X. c #5C4823",
"o. c #594636",
"O. c #554135",
"+. c #4C5436",
"@. c #575A3B",
"#. c #544D2A",
"$. c #6B4423",
"%. c #7D4729",
"&. c #754634",
"*. c #6E5538",
"=. c #7A5A3B",
"-. c #63572B",
";. c #5C643B",
":. c #5D6535",
">. c #6D602D",
",. c #666B39",
"<. c #786936",
"1. c #757539",
"2. c #071746",
"3. c #091645",
"4. c #0C1945",
"5. c #141F45",
"6. c #191F43",
"7. c #152045",
"8. c #1A2243",
"9. c #16214A",
"0. c #19244E",
"q. c #1F2A43",
"w. c #1A2652",
"e. c #1C2956",
"r. c #1E2A59",
"t. c #172851",
"y. c #1F3453",
"u. c #232443",
"i. c #232B44",
"p. c #2C2D44",
"a. c #292742",
"s. c #312941",
"d. c #2B3344",
"f. c #323D43",
"g. c #3E3844",
"h. c #333244",
"j. c #483F44",
"k. c #1F4342",
"l. c #21424D",
"z. c #374341",
"x. c #394443",
"c. c #2A5C57",
"v. c #345F7C",
"b. c #2A4D6C",
"n. c #2F6465",
"m. c #35726D",
"M. c #346B6D",
"N. c #4E4244",
"B. c #5C4C43",
"V. c #524643",
"C. c #565B44",
"Z. c #745A42",
"A. c #7B5E42",
"S. c #7D6242",
"D. c #7A7F40",
"F. c #6B7344",
"G. c #87492B",
"H. c #965C2D",
"J. c #884C31",
"K. c #815431",
"L. c #82532A",
"P. c #816139",
"I. c #9B6B35",
"U. c #97713A",
"Y. c #977136",
"T. c #A7783A",
"R. c #886742",
"E. c #946C40",
"W. c #997341",
"Q. c #977241",
"!. c #867D43",
"~. c #A57A41",
"^. c #3D817C",
"/. c #878A3F",
"(. c #88843E",
"). c #9D873E",
"_. c #AB8A3C",
"`. c #C9923F",
"'. c #DDA33F",
"]. c #F0B63F",
"[. c #F8CC3F",
"{. c #979543",
"}. c #888A43",
"|. c #AC8F41",
" X c #BE8B40",
".X c #A39742",
"XX c #B8AF42",
"oX c #A7AB43",
"OX c #C19340",
"+X c #DABE41",
"@X c #E5B640",
"#X c #D9D142",
"$X c #F2DA41",
"%X c #499A96",
"&X c #4B9D98",
"*X c #478F98",
"=X c #52A6AF",
"-X c #57B7B3",
";X c None",
/* pixels */
";X;X;X;X;X;X;X;X;X;X;X;X;X;X;X;X;X;X;X;X;X;X;X;X;X;X;X;X;X;X;X;X;X;X;X;X;X;X;X;X;X;X;X;X;X;X;X;X;X;X;X;X;X;X;X;X;X;X;X;X;X;X;X;X;X;X;X;X;X;X;X;X;X;X;X;X;X;X;X;X",
";X;X;X;X;X;X;X;X;X;X;X;X;X;X;X;X;X;X;X;X;X;X;X;X;X;X;X;X;X;X;X;X;X;X;X;X;X;X;X;X;X;X;X;X;X;X;X;X;X;X;X;X;X;X;X;X;X;X;X;X;X;X;X;X;X;X;X;X;X;X;X;X;X;X;X;X;X;X;X;X",
";X;X;X;X;X;X;X;X;X;X;X;X;X;X;X;X;X;X;X;X;X;X;X;X;X;X;X;X;X;X;X;X;X;X;X;X;X;X;X;X;X;X;X;X;X;X;X;X;X;X;X;X;X;X;X;X;X;X;X;X;X;X;X;X;X;X;X;X;X;X;X;X;X;X;X;X;X;X;X;X",
";X;X;X;X;X;X;X;X;X;X;X;X;X;X;X;X;X;X;X;X;X;X;X;X;X;X;X;X;X;X;X;X;X;X;X;X;X;X;X;X;X;X;X;X;X;X;X;X;X;X;X;X;X;X;X;X;X;X;X;X;X;X;X;X;X;X;X;X;X;X;X;X;X;X;X;X;X;X;X;X",
";X;X;X;X;X;X;X;X;X;X;X;X;X;X;X;X;X;X;X;X;X;X;X;X;X;X;X;X;X;X;X;X;X;X;X;X;X;X;X;X;X;X;X;X;X;X;X;X;X;X;X;X;X;X;X;X;X;X;X;X;X;X;X;X;X;X;X;X;X;X;X;X;X;X;X;X;X;X;X;X",
";X;X;X;X;X;X;X;X;X;X;X;X;X;X;X;X;X;X;X;X;X;X;X;X;X;X;X;X;X;X;X;X;X;X;X;X;X;X;X;X;X;X;Xr.e.;X;X;X;X;X;X;X;X;X;X;X;X;X;X;X;X;X;X;X;X;X;X;X;X;X;X;X;X;X;X;X;X;X;X;X",
";X;X;X;X;X;X;X;X;X;X;X;X;X;X;X;X;X;X;X;X;X;X;X;X;X;X;X;X;X;X;X;X;X;X;X;X;X5.w.w.e.e.e.e.e.w.0.5.5.5.;X;X;X;X;X;X;X;X;X;X;X;X;X;X;X;X;X;X;X;X;X;X;X;X;X;X;X;X;X;X",
";X;X;X;X;X;X;X;X;X;X;X;X;X;X;X;X;X;X;X;X;X;X;X;X;X;X;X;X;X;X;X;X;X;X;X;Xw.w.w.e.r.e.e.w.0.0.7.7.9.5.5.;X;X;X;X;X;X;X;X;X;X;X;X;X;X;X;X;X;X;X;X;X;X;X;X;X;X;X;X;X",
";X;X;X;X;X;X;X;X;X;X;X;X;X;X;X;X;X;X;X;X;X;X;X;X;X;X;X;X;X;X;X;X;X0.w.w.w.e.e.e.e.r.w.w.7.7.5.5.7.7.g f ;X;X;X;X;X;X;X;X;X;X;X;X;X;X;X;X;X;X;X;X;X;X;X;X;X;X;X;X",
";X;X;X;X;X;X;X;X;X;X;X;X;X;X;X;X;X;X;X;X;X;X;X;X;X;X;X;X;X;X;X;X0.w.r.r.r.e.e.w.w.w.w.7.7.5.7.5.5.5.g y t ;X;X;X;X;X;X;X;X;X;X;X;X;X;X;X;X;X;X;X;X;X;X;X;X;X;X;X",
";X;X;X;X;X;X;X;X;X;X;X;X;X;X;X;X;X;X;X;X;X;X;X;X;X;X;X;X;X;X;Xt.e.e.r.r.r.e.e.7.7.0.0.5.5.6.5.5.g i y t t ;X;X;X;X;X;X;X;X;X;X;X;X;X;X;X;X;X;X;X;X;X;X;X;X;X;X;X",
";X;X;X;X;X;X;X;X;X;X;X;X;X;X;X;X;X;X;X;X;X;X;X;X;X;X;X;X;X;X0.7.9.9.0.0.0.0.7.5.5.5.5.5.5.5.5.5.f y t t t ;X;X;X;X;X;X;X;X;X;X;X;X;X;X;X;X;X;X;X;X;X;X;X;X;X;X;X",
";X;X;X;X;X;X;X;X;X;X;X;X;X;X;X;X;X;X;X;X;X;X;X;X;X;X;X;X;X;X5.t 2 2 5 4 2 2 t 5.7.5.5.5.5.5.5.5.g y t t ;X;X;X;X;X;X;X;X;X;X;X;X;X;X;X;X;X;X;X;X;X;X;X;X;X;X;X;X",
";X;X;X;X;X;X;X;X;X;X;X;X;X;X;X;X;X;X;X;X;X;X;X;X;X;X;X;X;X;X7.2 .         . 4 h 5.5.5.5.5.5.5.5.g y t ;X;X;X;X;X;X;X;X;X;X;X;X;X;X;X;X;X;X;X;X;X;X;X;X;X;X;X;X;X",
";X;X;X;X;X;X;X;X;X;X;X;X;X;X;X;X;X;X;X;X;X;X;X;X;X;X;X;X;X;Xy.l.n -   o x l.m s u 5.5.5.5.5.5.g i t t ;X;X;X;X;X;X;X;X;X;X;X;X;X;X;X;X;X;X;X;X;X;X;X;X;X;X;X;X;X",
";X;X;X;X;X;X;X;X;X;X;X;X;X;X;X;X;X;X;X;X;X;X;X;X;X;X;X;X;Xr.b.*X&Xc.* x ^.&Xn.6 % t 5.5.5.5.g f y t t ;X;X;XE 1 E W ~ $.%.;X;X;X;X;X;X;X;X;X;X;X;X;X;X;X;X;X;X;X",
";X;X;X;X;X;X;X;X;X;X;X;X;X;X;X;X;X;X;X;X;X;X;X;X;X;X;X;X;Xr.v.=X-Xn.- n %X-Xm.- . 5 9.7.5.5.y t t t s ;X;X....! ! ! ^ $.L.I.;X;X;X;X;X;X;X;X;X;X;X;X;X;X;X;X;X;X",
";X;X;X;X;X;X;X;X;X;X;X;X;X;X;X;X;X;X;X;X;X;X;X;X;X;X;X;X;Xr.b.M.m.n o < c.m.} X . 5 7.7.5.g f t t 5 S ;./.D.>.#.~ ! Q ^ $.H.;X;X;X;X;X;X;X;X;X;X;X;X;X;X;X;X;X;X",
";X;X;X;X;X;X;X;X;X;X;X;X;X;X;X;X;X;X;X;X;X;X;X;X;X;X;X;X;Xe.8.z - X     * * X   . 5 7.7.5.5.u t r y R ,.{.{./.<...! E W Q ;X;X;X;X;X;X;X;X;X;X;X;X;X;X;X;X;X;X;X",
";X;X;X;X;X;X;X;X;X;X;X;X;X;X;X;X;X;X;X;X;X;X;X;X;X;X;X;X;Xe.f .                   # t f g f t t r y R <.)._.).(.-.~ ! ! ;X;X;X;X;X;X;X;X;X;X;X;X;X;X;X;X;X;X;X;X",
";X;X;X;X;X;X;X;X;X;X;X;X;X;X;X;X;X;X;X;X;X;X;X;X;X;X;X;X;Xe.f O                   . O 3 t u y t r t / L.T._.{./.,.#.#.;X;X;X;X;X;X;X;X;X;X;X;X;X;X;X;X;X;X;X;X;X",
";X;X;X;X;X;X;X;X;X;X;X;X;X;X;X;X;X;X;X;X;X;X;X;X;X;X;X;X;Xw.v #                       % 5 t t t a j / { H.I.(.D.1.,.:.;X;X;X;X;X;X;X;X;X;X;X;X;X;X;X;X;X;X;X;X;X",
";X;X;X;X;X;X;X;X;X;X;X;X;X;X;X;X;X;X;X;X;X;X;X;X;X;X;X;Xr.r.9.f 2 .           O O O % 2 5 t r a H ' ] ' ' o.@.@.:.,.;X;X;X;X;X;X;X;X;X;X;X;X;X;X;X;X;X;X;X;X;X;X",
";X;X;X;X;X;X;X;X;X;X;X;X;X;X;X;X;X;X;X;X;X;X;X;X;X;X;Xe.e.e.e.w.7.2         O 4 5 5 5 t t t t A ' G.G./ j d A Y +.:.;X;X;X;X;X;X;X;X;X;X;X;X;X;X;X;X;X;X;X;X;X;X",
";X;X;X;X;X;X;X;X;X;X;X;X;X;X;X;X;X;X;X;X;X;X;X;X;X;X;Xe.e.e.r.r.w.s # . . O 4 5 u y t r t d Y O.&.G.' H t e t c  .+.+.;X;X;X;X;X;X;X;X;X;X;X;X;X;X;X;X;X;X;X;X;X",
";X;X;X;X;X;X;X;X;X;X;X;X;X;X;X;X;X;X;X;X;X;X;X;X;X;Xr.e.e.r.r.r.e.0.7.f t t t t t t t e t Y =.U.=./ H d t r t s c S K ;X;X;X;X;X;X;X;X;X;X;X;X;X;X;X;X;X;X;X;X;X",
";X;X;X;X;X;X;X;X;X;X;X;X;X;X;X;X;X;X;X;X;X;X;X;X;X;Xe.e.e.e.w.w.e.e.w.0.7.5.g y y t a a A o.U.T.*.B t r t t t t y t t ;X;X;X;X;X;X;X;X;X;X;X;X;X;X;X;X;X;X;X;X;X",
";X;X;X;X;X;X;X;X;X;X;X;X;X;X;X;X;X;X;X;X;X;X;X;X;X;Xe.e.e.r.w.w.0.0.w.0.0.7.7.g u p h _ *.P.P.*._ s r r t t t t t t t ;X;X;X;X;X;X;X;X;X;X;X;X;X;X;X;X;X;X;X;X;X",
";X;X;X;X;X;X;X;X;X;X;X;X;X;X;X;X;X;X;X;X;X;X;X;X;X;Xe.e.e.e.t.0.7.7.7.7.5.7.7.5.5.4.p.Z.~.U.o.A s a t t t t t t t t a ;X;X;X;X;X;X;X;X;X;X;X;X;X;X;X;X;X;X;X;X;X",
";X;X;X;X;X;X;X;X;X;X;X;X;X;X;X;X;X;X;X;X;X;X;X;X;X;Xe.e.e.w.0.9.5.5.5.5.4.4.4.5.i.g.B.R.W.=.Y t r t t t t t t t t t y ;X;X;X;X;X;X;X;X;X;X;X;X;X;X;X;X;X;X;X;X;X",
";X;X;X;X;X;X;X;X;X;X;X;X;X;X;X;X;X;X;X;X;X;X;X;X;X;Xe.e.w.0.7.9.5.5.5.5.5.4.2.4.g.S.Q.R.B.g.c t r t t t t t t t t a t ;X;X;X;X;X;X;X;X;X;X;X;X;X;X;X;X;X;X;X;X;X",
";X;X;X;X;X;X;X;X;X;X;X;X;X;X;X;X;X;X;X;X;X;X;X;X;X;Xe.e.0.7.5.5.5.7.5.8.i.p.a.d.B.W.~.Z.p.g y t t t t t t t t t t t y ;X;X;X;X;X;X;X;X;X;X;X;X;X;X;X;X;X;X;X;X;X",
";X;X;X;X;X;X;X;X;X;X;X;X;X;X;X;X;X;X;X;X;X;X;X;X;Xe.e.e.9.7.5.7.5.5.7.h.B.Z.A.Z.A.S.Z.j.9.4.i g f y t t t t t t t t t ;X;X;X;X;X;X;X;X;X;X;X;X;X;X;X;X;X;X;X;X;X",
";X;X;X;X;X;X;X;X;X;X;X;X;X;X;X;X;X;X;X;X;X;X;X;X;Xe.e.t.0.7.7.7.5.4.7.j.E. XOX XQ.B.p.9.8.5.5.g f y t t t t t t t t y ;X;X;X;X;X;X;X;X;X;X;X;X;X;X;X;X;X;X;X;X;X",
";X;X;X;X;X;X;X;X;X;X;X;X;X;X;X;X;X;X;X;X;X;X;X;X;Xe.e.e.0.7.7.7.5.4.7.N.~.'.@X@X|.V.5.2.5.5.5.5.g t t t t t t t t t a ;X;X;X;X;X;X;X;X;X;X;X;X;X;X;X;X;X;X;X;X;X",
";X;X;X;X;X;X;X;X;X;X;X;X;X;X;X;X;X;X;X;X;X;X;X;X;Xe.e.t.0.9.4.7.5.2.9.N.~.'.$X$XXXC.5.4.5.5.5.5.g t t t t t t t t t t ;X;X;X;X;X;X;X;X;X;X;X;X;X;X;X;X;X;X;X;X;X",
";X;X;X;X;X;X;X;X;X;X;X;X;X;X;X;X;X;X;X;X;X;X;X;X;Xe.e.e.0.9.5.7.6.5.s.j.E.OX@X#XoXC.7.4.4.5.5.5.g i t t t t t t t t a ;X;X;X;X;X;X;X;X;X;X;X;X;X;X;X;X;X;X;X;X;X",
";X;X;X;X;X;X;X;X;X;X;X;X;X;X;X;X;X;X;X;X;X;X;X;X;Xe.e.e.0.7.4.7.6.j.[ &.Z.P.!.}.F.x.7.5.7.7.5.5.5.g i y t t t t t t y ;X;X;X;X;X;X;X;X;X;X;X;X;X;X;X;X;X;X;X;X;X",
";X;X;X;X;X;X;X;X;X;X;X;X;X;X;X;X;X;X;X;X;X;X;X;X;Xe.e.e.0.9.4.5.u.[ J.J.j.p.p.h.d.8.7.4.7.7.5.7.5.5.g s t t t t t t t ;X;X;X;X;X;X;X;X;X;X;X;X;X;X;X;X;X;X;X;X;X",
";X;X;X;X;X;X;X;X;X;X;X;X;X;X;X;X;X;X;X;X;X;X;X;X;Xe.e.e.w.7.7.4.u.` J.{ s.5.2.4.4.5.7.7.5.7.5.5.5.5.5.g a y y t t a y ;X;X;X;X;X;X;X;X;X;X;X;X;X;X;X;X;X;X;X;X;X",
";X;X;X;X;X;X;X;X;X;X;X;X;X;X;X;X;X;X;X;X;X;X;X;X;Xe.e.e.0.7.5.5.6.s.j.H u.4.4.5.5.5.5.5.5.5.7.7.5.7.5.5.g y t t t t y ;X;X;X;X;X;X;X;X;X;X;X;X;X;X;X;X;X;X;X;X;X",
";X;X;X;X;X;X;X;X;X;X;X;X;X;X;X;X;X;X;X;X;X;X;X;X;Xe.e.e.0.7.7.5.6.6.6.5.6.6.7.5.5.5.5.5.5.7.5.5.5.5.5.7.7.h t t t t ;X;X;X;X;X;X;X;X;X;X;X;X;X;X;X;X;X;X;X;X;X;X",
";X;X;X;X;X;X;X;X;X;X;X;X;X;X;X;X;X;X;X;X;X;X;X;X;Xe.e.e.w.5.5.5.5.5.4.5.v v v 7.5.5.5.5.5.5.5.7.5.7.5.5.5.i y t t a ;X;X;X;X;X;X;X;X;X;X;X;X;X;X;X;X;X;X;X;X;X;X",
";X;X;X;X;X;X;X;X;X;X;X;X;X;X;X;X;X;X;X;X;X;X;X;X;Xe.e.w.0.7.5.7.5.5.6.6.S D F 6.5.5.5.5.7.5.5.5.5.5.5.7.7.i t t t t ;X;X;X;X;X;X;X;X;X;X;X;X;X;X;X;X;X;X;X;X;X;X",
";X;X;X;X;X;X;X;X;X;X;X;X;X;X;X;X;X;X;X;X;X;X;X;X;Xe.r.e.0.7.5.5.5.5.6.v D D G 8.5.5.5.5.5.5.7.5.7.5.7.5.5.g y t t t ;X;X;X;X;X;X;X;X;X;X;X;X;X;X;X;X;X;X;X;X;X;X",
";X;X;X;X;X;X;X;X;X;X;X;X;X;X;X;X;X;X;X;X;X;X;X;X;Xe.e.e.0.9.5.7.5.5.5.8.D D A 8.5.5.5.5.5.9.5.5.5.5.7.5.5.g t t t t t t ;X;X;X;X;X;X;X;X;X;X;X;X;X;X;X;X;X;X;X;X",
";X;X;X;X;X;X;X;X;X;X;X;X;X;X;X;X;X;X;X;X;X;X;X;X;Xe.e.e.0.7.5.5.5.5.6.v D C A 6.5.5.5.9.5.5.9.5.7.7.5.5.5.f t t t t t t ;X;X;X;X;X;X;X;X;X;X;X;X;X;X;X;X;X;X;X;X",
";X;X;X;X;X;X;X;X;X;X;X;X;X;X;X;X;X;X;X;X;X;X;X;X;Xe.e.t.0.9.7.5.5.6.u.A l 9 c 5.9.5.5.5.5.5.5.5.7.4.9.5.5.g s t t t t t ;X;X;X;X;X;X;X;X;X;X;X;X;X;X;X;X;X;X;X;X",
";X;X;X;X;X;X;X;X;X;X;X;X;X;X;X;X;X;X;X;X;X;X;X;X;Xe.r.w.0.7.4.5.7.F D M , ; w v 5.5.5.5.5.7.7.5.7.5.7.5.7.i t t t t t t ;X;X;X;X;X;X;X;X;X;X;X;X;X;X;X;X;X;X;X;X",
";X;X;X;X;X;X;X;X;X;X;X;X;X;X;X;X;X;X;X;X;X;X;X;X;Xe.e.e.0.9.7.7.8.S J N , = 4 s g 5.7.7.5.5.5.5.5.5.7.5.4.h t t t t t ;X;X;X;X;X;X;X;X;X;X;X;X;X;X;X;X;X;X;X;X;X",
";X;X;X;X;X;X;X;X;X;X;X;X;X;X;X;X;X;X;X;X;X;X;X;X;Xw.r.w.0.7.5.7.6.F C M , @ = : w f 5.5.5.7.7.5.9.5.5.5.5.f y t t t t ;X;X;X;X;X;X;X;X;X;X;X;X;X;X;X;X;X;X;X;X;X",
";X;X;X;X;X;X;X;X;X;X;X;X;X;X;X;X;X;X;X;X;X;X;X;X;Xr.r.w.0.7.5.7.8.G Z C , ; ; - 8 h 5.7.5.5.5.5.4.5.7.5.5.g y t t t t ;X;X;X;X;X;X;X;X;X;X;X;X;X;X;X;X;X;X;X;X;X",
";X;X;X;X;X;X;X;X;X;X;X;X;X;X;X;X;X;X;X;X;X;X;X;X;Xr.r.w.0.7.5.4.7.G D C z z N z l v 5.5.5.7.5.7.7.7.7.5.5.4.i i y t t ;X;X;X;X;X;X;X;X;X;X;X;X;X;X;X;X;X;X;X;X;X",
";X;X;X;X;X;X;X;X;X;X;X;X;X;X;X;X;X;X;X;X;X;X;X;X;Xe.r.w.0.7.5.7.8.b L Z Z Z  . .U q.7.5.5.5.5.5.7.7.5.5.7.7.7.i s t t ;X;X;X;X;X;X;X;X;X;X;X;X;X;X;X;X;X;X;X;X;X",
";X;X;X;X;X;X;X;X;X;X;X;X;X;X;X;X;X;X;X;X;X;X;X;X;Xe.e.e.0.7.7.7.7.b L L L I | z.z.d.q.7.9.5.5.5.5.7.5.5.7.7.5.5.f t t ;X;X;X;X;X;X;X;X;X;X;X;X;X;X;X;X;X;X;X;X;X",
";X;X;X;X;X;X;X;X;X;X;X;X;X;X;X;X;X;X;X;X;X;X;X;X;Xr.e.w.0.9.7.4.7.b L P I | z.z.z.f.f.q.9.5.5.5.5.5.5.7.5.5.5.g s t t ;X;X;X;X;X;X;X;X;X;X;X;X;X;X;X;X;X;X;X;X;X",
";X;X;X;X;X;X;X;X;X;X;X;X;X;X;X;X;X;X;X;X;X;X;X;X;Xe.e.e.0.7.4.5.7.b L P | | | | T T I i.8.5.5.5.5.7.7.5.5.5.5.5.i t t ;X;X;X;X;X;X;X;X;X;X;X;X;X;X;X;X;X;X;X;X;X",
";X;X;X;X;X;X;X;X;X;X;X;X;X;X;X;X;X;X;X;X;X;X;X;X;Xe.e.w.0.7.7.5.8.c K P | z.I x B B V v 7.7.5.5.5.5.5.5.5.5.5.g s t t t ;X;X;X;X;X;X;X;X;X;X;X;X;X;X;X;X;X;X;X;X",
";X;X;X;X;X;X;X;X;X;X;X;X;X;X;X;X;X;X;X;X;X;X;X;X;Xe.e.e.0.7.7.7.8.b K P | R C 7 & & 7 a h 5.5.5.5.7.7.5.5.5.5.5.i t t ;X;X;X;X;X;X;X;X;X;X;X;X;X;X;X;X;X;X;X;X;X",
";X;X;X;X;X;X;X;X;X;X;X;X;X;X;X;X;X;X;X;X;X;X;X;X;Xe.e.e.0.9.4.7.8.b L P P L 9 @ + + @ 4 y g 5.5.5.5.5.5.5.5.5.5.f t a ;X;X;X;X;X;X;X;X;X;X;X;X;X;X;X;X;X;X;X;X;X",
";X;X;X;X;X;X;X;X;X;X;X;X;X;X;X;X;X;X;X;X;X;X;X;X;X;Xr.e.t.7.4.7.7.b L Z l 9 : @ @ @ @ $ 4 5 i 7.9.5.5.5.7.5.5.g f 0 t ;X;X;X;X;X;X;X;X;X;X;X;X;X;X;X;X;X;X;X;X;X",
";X;X;X;X;X;X;X;X;X;X;X;X;X;X;X;X;X;X;X;X;X;X;X;X;X;Xe.w.9.7.7.7.v b K N > @ + @ @ @ @ @ $ 7 s 7.7.5.5.7.5.5.7.5.u t t ;X;X;X;X;X;X;X;X;X;X;X;X;X;X;X;X;X;X;X;X;X",
";X;X;X;X;X;X;X;X;X;X;X;X;X;X;X;X;X;X;X;X;X;X;X;X;X;Xw.0.9.5.7.b b K L l > @ + @ @ @ @ @ @ : c b 8.7.5.7.7.5.5.5.f t t ;X;X;X;X;X;X;X;X;X;X;X;X;X;X;X;X;X;X;X;X;X",
";X;X;X;X;X;X;X;X;X;X;X;X;X;X;X;X;X;X;X;X;X;X;X;X;X;X9.7.5.5.v b K P L B > @ @ @ @ @ @ @ @ > l K b 7.5.5.5.5.5.g f t t t ;X;X;X;X;X;X;X;X;X;X;X;X;X;X;X;X;X;X;X;X",
";X;X;X;X;X;X;X;X;X;X;X;X;X;X;X;X;X;X;X;X;X;X;X;X;X;X0.5.5.5.8.K P L Z x > @ @ @ @ @ @ @ @ > V L b 8.5.5.5.5.5.5.i ;X;Xt ;X;X;X;X;X;X;X;X;X;X;X;X;X;X;X;X;X;X;X;X",
";X;X;X;X;X;X;X;X;X;X;X;X;X;X;X;X;X;X;X;X;X;X;X;X;X;X;X5.5.5.7.K L P L N > @ @ @ @ @ @ @ @ > V L b 8.5.5.7.5.5.g i ;X;Xt ;X;X;X;X;X;X;X;X;X;X;X;X;X;X;X;X;X;X;X;X",
";X;X;X;X;X;X;X;X;X;X;X;X;X;X;X;X;X;X;X;X;X;X;X;X;X;X;X7.5.7.8.S L L K V > @ @ @ @ @ @ @ @ > B U b 7.7.7.5.5.7.5.f ;X;X;X;X;X;X;X;X;X;X;X;X;X;X;X;X;X;X;X;X;X;X;X",
";X;X;X;X;X;X;X;X;X;X;X;X;X;X;X;X;X;X;X;X;X;X;X;X;X;X;X5.5.7.8.b S U S B > @ @ @ @ @ @ @ @ 7 B S b b 8.7.5.5.5.g f t ;X;X;X;X;X;X;X;X;X;X;X;X;X;X;X;X;X;X;X;X;X;X",
";X;X;X;X;X;X;X;X;X;X;X;X;X;X;X;X;X;X;X;X;X;X;X;X;X;X;X5.7.5.8.b G G S q 7 @ @ @ @ @ @ @ @ 7 q A G G v 6.7.9.5.;X;Xa ;X;X;X;X;X;X;X;X;X;X;X;X;X;X;X;X;X;X;X;X;X;X",
";X;X;X;X;X;X;X;X;X;X;X;X;X;X;X;X;X;X;X;X;X;X;X;X;X;X;X;X7.7.7.v F A j 8 : @ @ @ @ @ @ @ @ 7 q d A A F q.7.9.;X;X;X;X;X;X;X;X;X;X;X;X;X;X;X;X;X;X;X;X;X;X;X;X;X;X",
";X;X;X;X;X;X;X;X;X;X;X;X;X;X;X;X;X;X;X;X;X;X;X;X;X;X;X;X;X7.8.v F q 7 7 @ @ @ @ @ @ @ @ @ @ 7 7 q A A F ;X;X;X;X;X;X;X;X;X;X;X;X;X;X;X;X;X;X;X;X;X;X;X;X;X;X;X;X",
";X;X;X;X;X;X;X;X;X;X;X;X;X;X;X;X;X;X;X;X;X;X;X;X;X;X;X;X;X;X8.F j q & @ @ @ @ @ @ @ @ @ @ @ @ & q A G ;X;X;X;X;X;X;X;X;X;X;X;X;X;X;X;X;X;X;X;X;X;X;X;X;X;X;X;X;X",
";X;X;X;X;X;X;X;X;X;X;X;X;X;X;X;X;X;X;X;X;X;X;X;X;X;X;X;X;X;X;XF A 8 @ @ + @ @ @ @ @ @ @ @ @ @ $ q j G ;X;X;X;X;X;X;X;X;X;X;X;X;X;X;X;X;X;X;X;X;X;X;X;X;X;X;X;X;X",
";X;X;X;X;X;X;X;X;X;X;X;X;X;X;X;X;X;X;X;X;X;X;X;X;X;X;X;X;X;X;X;XA w & @ @ @ @ @ @ @ $ @ @ + @ $ w A ;X;X;X;X;X;X;X;X;X;X;X;X;X;X;X;X;X;X;X;X;X;X;X;X;X;X;X;X;X;X",
";X;X;X;X;X;X;X;X;X;X;X;X;X;X;X;X;X;X;X;X;X;X;X;X;X;X;X;X;X;X;X;X;X;X& @ @ @ @ @ @ @ @ @ @ @ @ ;X;XG G G ;X;X;X;X;X;X;X;X;X;X;X;X;X;X;X;X;X;X;X;X;X;X;X;X;X;X;X;X",
";X;X;X;X;X;X;X;X;X;X;X;X;X;X;X;X;X;X;X;X;X;X;X;X;X;X;X;X;X;X;X;X;X;X;X;X;X;X;X;X@ @ @ @ @ @ ;X;X;XA F F F ;X;X;X;X;X;X;X;X;X;X;X;X;X;X;X;X;X;X;X;X;X;X;X;X;X;X;X",
";X;X;X;X;X;X;X;X;X;X;X;X;X;X;X;X;X;X;X;X;X;X;X;X;X;X;X;X;X;X;X;X;X;X;X;X;X;X;X;X;X@ $ $ ;X;X;X;X;X;X;X;X;X;X;X;X;X;X;X;X;X;X;X;X;X;X;X;X;X;X;X;X;X;X;X;X;X;X;X;X",
";X;X;X;X;X;X;X;X;X;X;X;X;X;X;X;X;X;X;X;X;X;X;X;X;X;X;X;X;X;X;X;X;X;X;X;X;X;X;X;X;X;X;X;X;X;X;X;X;X;X;X;X;X;X;X;X;X;X;X;X;X;X;X;X;X;X;X;X;X;X;X;X;X;X;X;X;X;X;X;X",
";X;X;X;X;X;X;X;X;X;X;X;X;X;X;X;X;X;X;X;X;X;X;X;X;X;X;X;X;X;X;X;X;X;X;X;X;X;X;X;X;X;X;X;X;X;X;X;X;X;X;X;X;X;X;X;X;X;X;X;X;X;X;X;X;X;X;X;X;X;X;X;X;X;X;X;X;X;X;X;X",
";X;X;X;X;X;X;X;X;X;X;X;X;X;X;X;X;X;X;X;X;X;X;X;X;X;X;X;X;X;X;X;X;X;X;X;X;X;X;X;X;X;X;X;X;X;X;X;X;X;X;X;X;X;X;X;X;X;X;X;X;X;X;X;X;X;X;X;X;X;X;X;X;X;X;X;X;X;X;X;X"
};
