/* XPM */
static char *result[] = {
/* columns rows colors chars-per-pixel */
"80 80 185 2 ",
"   c #040302",
".  c #09090D",
"X  c #060608",
"o  c #090911",
"O  c #0D0E1B",
"+  c #0D101C",
"@  c #0F1916",
"#  c #0F1223",
"$  c #101425",
"%  c #13182E",
"&  c #0E1835",
"*  c #151C36",
"=  c #1A1E36",
"-  c #161E3A",
";  c #181F3D",
":  c #142225",
">  c #1B332F",
",  c #18203E",
"<  c #172434",
"1  c #1D3738",
"2  c #272B3A",
"3  c #292D3D",
"4  c #262337",
"5  c #372B37",
"6  c #2B343D",
"7  c #213F3E",
"8  c #3A3F3C",
"9  c #37373C",
"0  c #452A1B",
"q  c #4A2E1D",
"w  c #4C311F",
"e  c #493521",
"r  c #543521",
"t  c #5C3A23",
"y  c #5A3721",
"u  c #4B3231",
"i  c #5E3A31",
"p  c #523A3E",
"a  c #663C27",
"s  c #623E3A",
"d  c #683E33",
"f  c #22423F",
"g  c #35403E",
"h  c #4E4428",
"j  c #5E4D29",
"k  c #53492A",
"l  c #5A582E",
"z  c #5B5A33",
"x  c #654125",
"c  c #6A4528",
"v  c #6D4F2A",
"b  c #7C482D",
"n  c #7E512C",
"m  c #6C4135",
"M  c #7A4A36",
"N  c #675A2C",
"B  c #616639",
"V  c #62693B",
"C  c #6E6F35",
"Z  c #7C753A",
"A  c #70733F",
"S  c #766533",
"D  c #131F46",
"F  c #191F43",
"G  c #141D48",
"H  c #162146",
"J  c #1B2446",
"K  c #162149",
"L  c #1C2549",
"P  c #1E294F",
"I  c #1F2846",
"U  c #1E2752",
"Y  c #1F2951",
"T  c #1D2A58",
"R  c #222644",
"E  c #232A47",
"W  c #2B2C45",
"Q  c #232D4C",
"!  c #392F41",
"~  c #2D3444",
"^  c #26314C",
"/  c #2B314C",
"(  c #2D384A",
")  c #2A3A47",
"_  c #303246",
"`  c #333C47",
"'  c #343C4A",
"]  c #383D4E",
"[  c #222D57",
"{  c #222D58",
"}  c #293452",
"|  c #273759",
" . c #343D54",
".. c #3B3B52",
"X. c #403B46",
"o. c #403140",
"O. c #374244",
"+. c #3B4543",
"@. c #3A444C",
"#. c #3B4648",
"$. c #3B4353",
"%. c #3F4858",
"&. c #294E52",
"*. c #2B4465",
"=. c #2D5362",
"-. c #335B73",
";. c #32596B",
":. c #346767",
">. c #3B7575",
",. c #494146",
"<. c #5C4C45",
"1. c #584E48",
"2. c #595747",
"3. c #444E5D",
"4. c #4F4751",
"5. c #584D51",
"6. c #725A44",
"7. c #7B5C43",
"8. c #7D5344",
"9. c #7C6144",
"0. c #6B7149",
"q. c #6B7246",
"w. c #4A5464",
"e. c #475160",
"r. c #635368",
"t. c #6A696B",
"y. c #6C7562",
"u. c #717A67",
"i. c #676F7B",
"p. c #7A7E71",
"a. c #8B4C2F",
"s. c #83552E",
"d. c #8A5A2E",
"f. c #935F2F",
"g. c #854C33",
"h. c #9A6433",
"j. c #976333",
"k. c #A96E37",
"l. c #AC7036",
"z. c #B37538",
"x. c #9B5C43",
"c. c #836544",
"v. c #916E48",
"b. c #977143",
"n. c #987243",
"m. c #887C44",
"M. c #A67B44",
"N. c #A4715B",
"B. c #3F807A",
"V. c #7C8142",
"C. c #7C846C",
"Z. c #8B883E",
"A. c #8B8C44",
"S. c #8F924F",
"D. c #88905B",
"F. c #95984C",
"G. c #AB8E43",
"H. c #BD8A42",
"J. c #AFAB45",
"K. c #87906E",
"L. c #8D827D",
"P. c #C49242",
"I. c #DC9F41",
"U. c #DDA441",
"Y. c #DABD42",
"T. c #F0B540",
"R. c #E4B542",
"E. c #D8D044",
"W. c #F8CA41",
"Q. c #F2D943",
"!. c #3E7487",
"~. c #636A92",
"^. c #9E7C87",
"/. c #448293",
"(. c #4C9B97",
"). c #458B8D",
"_. c #54A7B0",
"`. c #5BBABA",
"'. c #848F98",
"]. c #828A88",
"[. c #A5898B",
"{. c #8691AF",
"}. c #9594BF",
"|. c #9697AD",
" X c None",
/* pixels */
" X X X X X X X X X X X X X X X X X X X X X X X X X X X X X X X X X X X X X X X X X X X X X X X X X X X X X X X X X X X X X X X X X X X X X X X X X X X X X X X X",
" X X X X X X X X X X X X X X X X X X X X X X X X X X X X X X X X X X X X X X X X X X X X X X X X X X X X X X X X X X X X X X X X X X X X X X X X X X X X X X X X",
" X X X X X X X X X X X X X X X X X X X X X X X X X X X X X X X X X X X X X X X X X X X X X X X X X X X X X X X X X X X X X X X X X X X X X X X X X X X X X X X X",
" X X X X X X X X X X X X X X X X X X X X X X X X X X X X X X X X X X X X X X X X X X X X X X X X X X X X X X X X X X X X X X X X X X X X X X X X X X X X X X X X",
" X X X X X X X X X X X X X X X X X X X X X X X X X X X X X X X X X X X X X X X X X X X X X X X X X X X X X X X X X X X X X X X X X X X X X X X X X X X X X X X X",
" X X X X X X X X X X X X X X X X X X X X X X X X X X X X X X X X X X X X X X X X X X X X X X X X X X X X X X X X X X X X X X X X X X X X X X X X X X X X X X X X",
" X X X X X X X X X X X X X X X X X X X X X X X X X X X X X X X X X X X X X X X X X X X X X X X X X X X X X X X X X X X X X X X X X X X X X X X X X X X X X X X X",
" X X X X X X X X X X X X X X X X X X X X X X X X X X X X X X X X X X X X X X X X X X X X X X X X X X X X X X X X X X X X X X X X X X X X X X X X X X X X X X X X",
" X X X X X X X X X X X X X X X X X X X X X X X X X X X X X X X X X X X X X X X X X X X X X X X X X X X X X X X X X X X X X X X X X X X X X X X X X X X X X X X X",
" X X X X X X X X X X X X X X X X X X X X X X X X X X X X X X X X X X X X X X X X X X X X X X X X X X X X X X X X X X X X X X X X X X X X X X X X X X X X X X X X",
" X X X X X X X X X X X X X X X X X X X X X X X X X X X X X X X X X X X X X X X X X X X X X X X X X X X X X X X X X X X X X X X X X X X X X X X X X X X X X X X X",
" X X X X X X X X X X X X X X X X X X X X X X X X X X X X X X X X X X X X X X X X X X X X X X X X X X X X X X X X X X X X X X X X X X X X X X X X X X X X X X X X",
" X X X X X X X X X X X X X X X X X X X X X X X X X X X X X X X X X X X X X X X X X X X X X X X X X X X X X X X X X X X X X X X X X X X X X X X X X X X X X X X X",
" X X X X X X X X X X X X X X X X X X X X X X X X X X X X X X X X X X X X X X X X X X X X X X X X X X X X X X X X X X X X X X X X X X X X X X X X X X X X X X X X",
" X X X X X X X X X X X X X X X X X X X X X X X X X X X X X X X X X X X X X X X X X X X X X X X X X X X X X X X X X X X X X X X X X X X X X X X X X X X X X X X X",
" X X X X X X X X X X X X X X X X X X X X X X X X X X X X X X X X X X X X X X X X X X X X X X X X X X X X X X X X X X X X X X X X X X X X X X X X X X X X X X X X",
" X X X X X X X X X X X X X X X X X X X X X X X X X X X X X X X X X X X X X X X X X X X X X X X X X X X X X X X X X X X X X X X X X X X X X X X X X X X X X X X X",
" X X X X X X X X X X X X X X X X X X X X X X X X X X X X X X X X X X X XJ L J  X XJ L L L J J J J P [  X X X X X X X X X X X X X X X X X X X X X X X X X X X X X",
" X X X X X X X X X X X X X X X X X X X X X X X X X X X X X X X X X X XL J L J J J L J R J J L J J L Y [  X X X X X X X X X X X X X X X X X X X X X X X X X X X X",
" X X X X X X X X X X X X X X X X X X X X X X X X X X X X X X X X X X XJ J J L J J J J J L J J J J L [ [ {  X X X X X X X X X X X X X X X X X X X X X X X X X X X",
" X X X X X X X X X X X X X X X X X X X X X X X X X0 0  X X X X X X X X X XJ J J J J L J J L J J L P [ [ [ [ [ [ [  X X X X X X X X X X X X X X X X X X X X X X X",
" X X X X X X X X X X X X X X X X X X X X X X X X Xq q q  X X X X X X X X X XL J L J J J J J J J J L P [ [ [ [ [ { [  X X X X X X X X X X X X X X X X X X X X X X",
" X X X X X X X X X X X X X X X X X X X X X X X Xw r r r q  X X X X X X X X X XL J J L J J L J J J L L [ [ [ [ [ { { {  X X X X X X X X X X X X X X X X X X X X X",
" X X X X X X X X X X X X X X X X X X X X X X X0 r a c t q 0  X X X X X X X X X XJ L J J J J L J J L L L P [ [ [ [ { [ [  X X X X X X X X X X X X X X X X X X X X",
" X X X X X X X X X X X X X X X X X X X X X X X0 t n n c r w w  X X X X X X X X XJ L J L J J J L J J H H L [ L H , L [ [  X X X X X X X X X X X X X X X X X X X X",
" X X X X X X X X X X X X X X X X X X X X X X X Xn h.h.d.c t w 0 0 0  X X X X X XJ J J J L J J J J J H , L L , # O = [ {  X X X X X X X X X X X X X X X X X X X X",
" X X X X X X X X X X X X X X X X X X X X X X X X Xz.l.j.n c r 0 0 w w  X X X X XJ L L J J L J J J E | | ^ H : : : , ^ {  X X X X X X X X X X X X X X X X X X X X",
" X X X X X X X X X X X X X X X X X X X X X X X X X Xz.k.h.n y 0 e h k l  X X X XJ L J J J J J J L *.!./.=.< > :.>.;.| T  X X X X X X X X X X X X X X X X X X X X",
" X X X X X X X X X X X X X X X X X X X X X X X X X X Xz.k.d.a w h z B V V  X X XJ J J J J J J F I -._.`.>.: f (.`.!.*.[  X X X X X X X X X X X X X X X X X X X X",
" X X X X X X X X X X X X X X X X X X X X X X X X X X X Xf.d.v j l B 0.y.u.t. X X, H J J J J H * < &./.(.&.@ > B._.!.| Q  X X X X X X X X X X X X X X X X X X X X",
" X X X X X X X X X X X X X X X X X X X X X X X X X X Xa x v S Z C V u.'.{.~.| H - - , J L L , % + : 1 &.: . @ > &.^ L L  X X X X X X X X X X X X X X X X X X X X",
" X X X X X X X X X X X X X X X X X X X X X X X X X X X Xq j Z A.V.0.C.|.}.~.} , - - , J L L H # X       X       . # H L  X X X X X X X X X X X X X X X X X X X X",
" X X X X X X X X X X X X X X X X X X X X X X X X X X X X XN Z.F.D.C.N.'.^.r.[ - - F H J J L , $ X                 o *  X X X X X X X X X X X X X X X X X X X X X",
" X X X X X X X X X X X X X X X X X X X X X X X X X X X X X XA.S.K.].^.N.x.s 4 - F J J J J L , $ X                 X  X X X X X X X X X X X X X X X X X X X X X X",
" X X X X X X X X X X X X X X X X X X X X X X X X X X X X X Xq.q.y.i.t.c.b a u 5 R L K J L J J % O .         X . O $  X X X X X X X X X X X X X X X X X X X X X X",
" X X X X XL J  X X X X X X X X X X X X X X X X X X X X X X X8 8 ' ..] 5 u a g.s ! K K J J L J , * $ .       . $ * J [  X X X X X X X X X X X X X X X X X X X X X",
" X X X X XJ J H  X X X X X X X X X X X X X X X X X X X X X X= * = = * & 4 d a.b X.! R L J J J L J * O X X X + * J Y [ [  X X X X X X X X X X X X X X X X X X X X",
" X X X X X, , - -  X X X X X X X X X X X X X X X X X X X X* * & & & & & = 5 d d m i o.R K K J J L ; * $ $ $ % , J Y [ [ [  X X X X X X X X X X X X X X X X X X X",
" X X X X X- * - * *  X X X X X X X X X X X X X X X X X X* * * * * * * * * * 4 u M a.s W L K J J J J H , , , J J L Y [ [ [ {  X X X X X X X X X X X X X X X X X X",
" X X X X X* * * * * *  X X X X X X X X X X X X X X X X= * * * * * * * * * & & 5 m g.M <.X.Q J K J J J L L L J J L Y [ [ [ [ [  X X X X X X X X X X X X X X X X X",
" X X X X X* * * * * * *  X X X X X X X X X X X X X X X X* * * * * * * * * * * , 5 p 7.n.c.X.J G J J L L J L J J L P [ [ [ [ [  X X X X X X X X X X X X X X X X X",
" X X X X X* * * = * * * *  X X X X X X X X X X X X X X* * * * * * = * * * * * - H _ 6.M.n.<.~ R L J J J J J J J L P [ [ [ [  X X X X X X X X X X X X X X X X X X",
" X X X X X X* * * * * * * *  X X X X X X X X X X X X* * * * * * * * * * * - , F D E ,.6.c.c.6.,.L K K J J L J P [ Y [ [ { [  X X X X X X X X X X X X X X X X X X",
" X X X X X X X* * * * * * * *  X X X X X X X X X X* * * * * * - * * * * = , H J J J R _ <.n.M.6.~ J L J J J P Y [ [ [ [ [ [ [  X X X X X X X X X X X X X X X X X",
" X X X X X X X X* * * * * * * *  X X X X X X X X* * * * * * * * * * - - - F J J J J G J ] 7.n.c.<.X./ H H K P U { { [ [ [ [ [  X X X X X X X X X X X X X X X X X",
" X X X X X X X X* * * * * * * * * * * * = * * * * * * * * * * * * * - ; H J L J L J K J W X.<.c.n.9.X.K G D J U { { [ { [ { { [  X X X X X X X X X X X X X X X X",
" X X X X X X X- - * - * * * * * - * * * * * * * * * * * * * * * * * - F J J J J J J J J J H _ 6.M.n.<._ / _ / } { [ [ [ [ [ [ [ {  X X X X X X X X X X X X X X X",
" X X X X X X X, , , , , - * * * * * * * * * * * * * * * * * * * * * ; F J J J J J L L J H H E X.6.c.7.6.7.6.<...[ [ [ { [ [ { [ {  X X X X X X X X X X X X X X X",
" X X X X X X XJ J J J J - = * * * * * * * * * * * * * * * * * * * = - , J J L J J J J J J J J J _ 1.b.H.P.P.v.4.{ T [ [ [ [ [ [ {  X X X X X X X X X X X X X X X",
" X X X X X X XJ J J L J H - - - - - * * * * * * * * * * * * , - - - , J L L J J J J J J J J J G J 1.G.R.T.I.M.5.{ T { [ { [ [ { {  X X X X X X X X X X X X X X X",
" X X X X X X XJ J J J J J J J H , - * * * * * * * * * * * - , H H J H J J J J J J J , , , H J G H 2.J.Q.W.U.M.5.[ T { [ { [ [ [ [  X X X X X X X X X X X X X X X",
" X X X X X X X XJ L J L J J J J J , - = - * = - * - * * * = J J J J J L J J J J J J , - - , J G I 2.J.E.E.H.v.4.[ { { [ [ [ [ { {  X X X X X X X X X X X X X X X",
" X X X X X X X X XL J J J J J J L J , , , , , , , , , , , , J J J J J L J , , , , ; - * = H J J J +.0.A.m.9.<...{ { [ [ [ [ [ [ {  X X X X X X X X X X X X X X X",
" X X X X X X X X X XJ L J J J J J J J J J J J J J J J J J J J J J J J J J , - = = * * * , , J J J E ~ ` ` ~ / { [ { [ [ [ { [ { {  X X X X X X X X X X X X X X X",
" X X X X X X X X X XJ J J J J J J J J L J J L L J L L L J J L J J J J J H , * * * * * * = H J L J K K G G K U Y [ [ [ { { [ [ [ {  X X X X X X X X X X X X X X X",
" X X X X X X X X X XJ L J L L R L J J J J J J J J J J J J J J L J J J , - * * * * * * * , J J J J J J K U U U T [ { [ [ [ [ [ { {  X X X X X X X X X X X X X X X",
" X X X X X X X X X XJ J L J L J J J L J L J J J J J R J J J J J J J H = * * * * * * * - ; H J L J J J P P [ [ [ [ [ [ [ [ [ [ [ {  X X X X X X X X X X X X X X X",
" X X X X X X X X X X X XJ J  X XJ L J J L J J J L L J J J J H , , , , * * * * * * * < ; , H L J J L J K P [ { { [ { [ [ [ [ [ [ [  X X X X X X X X X X X X X X X",
" X X X X X X X X X X X X X X X X XJ J L J J J J J J J J J , , * = * * - * * * * * * , , J J J J L J J J P [ { [ [ [ [ [ [ [ [ [ {  X X X X X X X X X X X X X X X",
" X X X X X X X X X X X X X X X X X XJ J J J J H J H H , J , - * * * * * * * * * = , H I J J L J J J J J P [ { [ [ { [ { [ [ [ [ {  X X X X X X X X X X X X X X X",
" X X X X X X X X X X X X X X X X X X X X X X, - = - , - - = * * * * * * * * * - , H J J J J J J L J L L U [ { { [ [ [ [ [ [ [ [ {  X X X X X X X X X X X X X X X",
" X X X X X X X X X X X X X X X X X X X X X X X* * * * * * * * * * = * = - * * , H J I H L J L J J J L R Q } [ [ { [ { [ [ { [ { {  X X X X X X X X X X X X X X X",
" X X X X X X X X X X X X X XJ J  XJ  X X X X X X X X* * * * * * - , , , , , , H J J J L J J J J J I W ) ~ } } { [ [ { [ { [ [ [ { {  X X X X X X X X X X X X X X",
" X X X X X X X X X X X X XJ J L J L J J  X X X X X X X* * * * * , H J J , J J J J L J J J L J J J E ~ O.+.+.' } [ { [ [ [ [ [ { [ { {  X X X X X X X X X X X X X",
" X X X X X X X X X X X X XJ J L J J J J I  X X X X X X, , , = , H J J J J L L J J J J L L J J J P Q ` +.+.g #.} [ { [ { [ [ [ [ { [ [ [  X X X X X X X X X X X X",
" X X X X X X X X X X X X X XJ J J L J L J J L J L L J J H , , H J L J J J J J J L J J J J J L P [ ^ O.+.g +.O.} [ { [ [ { [ [ [ [ [ [ { { [ [ [  X X X X X X X X",
" X X X X X X X X X X X X X X XL L J J J J L J J J J L J J J J J J I J J J J J L J J L E J L P U [ ^ ` g +.#.@.} { { { [ [ { [ { { [ { [ [ { { [  X X X X X X X X",
" X X X X X X X X X X X X X X X XJ J J L J J L J J J J J L L J J J L J L J L J J J J P P P P P U [ ^ ` 8 #.@.$. .[ [ [ [ [ [ [ [ [ [ [ [ [ [ [  X X X X X X X X X",
" X X X X X X X X X X X X X X X X XJ J J L J J L L J L J J L J J J J L J L J J J J L P Y [ [ [ { Y ^ 6 8 #.3.e. X X[ [ [ [ [ { [ [ [ [ [ [ {  X X X X X X X X X X",
" X X X X X X X X X X X X X X X X X XJ L J J J J J J J J J J L J J J J J J L L L L P P [ [ [ { { { Q 6 6 #.e.w. X X X[ { { [ [ { { [ { [ [  X X X X X X X X X X X",
" X X X X X X X X X X X X X X X X XJ L J L J L J J L L J J L J J J J J J L L Y [ [ [ [ [ [ [ [ {  X X2 6 @.3.w. X X X X X X X X X X X X X X X X X X X X X X X X X",
" X X X X X X X X X X X X X X X X X XJ J J J L L L L L L L L L E L L L J L [ [ { [ [ [ [ [ [ [  X X X3 ~ $.e.w. X X X X X X X X X X X X X X X X X X X X X X X X X",
" X X X X X X X X X X X X X X X X X X XJ  XJ P P Q U P P P P P P P P P P P Y [ { { { { [  X X X X X_ ] $.%.3. X X X X X X X X X X X X X X X X X X X X X X X X X X",
" X X X X X X X X X X X X X X X X X X X X X X[ [ [ [ [ [ [ [ [ [ [ [ [ [ [ [ [ [ [ [ [  X X X X X6 ~ $.3.3. X X X X X X X X X X X X X X X X X X X X X X X X X X X",
" X X X X X X X X X X X X X X X X X X X X X X X{ [ { { { [ [ [ [ { [ { [ [ [ [ [ [ [  X X X X X2 2 ~ @.%.3. X X X X X X X X X X X X X X X X X X X X X X X X X X X",
" X X X X X X X X X X X X X X X X X X X X X X X X X X X X X[ [ [ [ [ [ [ [ [  X X X X X X X X X2 2 W ~ ` $.3.w. X X X X X X X X X X X X X X X X X X X X X X X X X",
" X X X X X X X X X X X X X X X X X X X X X X X X X X X X X X[ [ [ [ { [ {  X X X X X X X X X X X3 2 2 ~ ..3.w. X X X X X X X X X X X X X X X X X X X X X X X X X",
" X X X X X X X X X X X X X X X X X X X X X X X X X X X X X X X X[  X X X X X X X X X X X X X X X X X X X@.3. X X X X X X X X X X X X X X X X X X X X X X X X X X",
" X X X X X X X X X X X X X X X X X X X X X X X X X X X X X X X X X X X X X X X X X X X X X X X X X X X X X X X X X X X X X X X X X X X X X X X X X X X X X X X X",
" X X X X X X X X X X X X X X X X X X X X X X X X X X X X X X X X X X X X X X X X X X X X X X X X X X X X X X X X X X X X X X X X X X X X X X X X X X X X X X X X"
};
