/* XPM */
static char *result[] = {
/* columns rows colors chars-per-pixel */
"80 80 186 2 ",
"   c #040302",
".  c #090906",
"X  c #070709",
"o  c #090A0C",
"O  c #070809",
"+  c #0B0C14",
"@  c #0D0E1C",
"#  c #0D1513",
"$  c #0F1916",
"%  c #0D101D",
"&  c #0F1A18",
"*  c #171C17",
"=  c #111E1C",
"-  c #1A1F1F",
";  c #1A201F",
":  c #3E281F",
">  c #0E1122",
",  c #101425",
"<  c #11162A",
"1  c #14192D",
"2  c #151C36",
"3  c #1B1E34",
"4  c #161E3A",
"5  c #181F3D",
"6  c #0F1837",
"7  c #211F2E",
"8  c #152524",
"9  c #172B29",
"0  c #18203F",
"q  c #1B283C",
"w  c #1E3935",
"e  c #1D3734",
"r  c #24202E",
"t  c #2B222A",
"y  c #21292F",
"u  c #352422",
"i  c #382623",
"p  c #3B2925",
"a  c #3B2C2C",
"s  c #34262A",
"d  c #28312E",
"f  c #232235",
"g  c #2B2635",
"h  c #242A35",
"j  c #2B2C35",
"k  c #24253D",
"l  c #272A3A",
"z  c #292D3D",
"x  c #332B32",
"c  c #302731",
"v  c #2B3534",
"b  c #2D3835",
"n  c #2C353A",
"m  c #2F3A39",
"M  c #323D3B",
"N  c #373A37",
"B  c #432A1D",
"V  c #492C1C",
"C  c #40271E",
"Z  c #4D321E",
"A  c #53331E",
"S  c #4D3324",
"D  c #5B3A23",
"F  c #573B2B",
"G  c #4A363F",
"H  c #473435",
"J  c #513937",
"K  c #623E24",
"L  c #22423E",
"P  c #36413D",
"I  c #594227",
"U  c #43423C",
"Y  c #5A4030",
"T  c #64422A",
"R  c #6F482A",
"E  c #61502A",
"W  c #6C4239",
"Q  c #674B3D",
"!  c #7A4937",
"~  c #615A34",
"^  c #72642F",
"/  c #746E3A",
"(  c #716B39",
")  c #121E46",
"_  c #151F48",
"`  c #162147",
"'  c #1B2447",
"]  c #1F2846",
"[  c #162249",
"{  c #1B2549",
"}  c #1F284D",
"|  c #1E2952",
" . c #1A2653",
".. c #202746",
"X. c #252B46",
"o. c #2D2C45",
"O. c #252C4B",
"+. c #273044",
"@. c #2B3243",
"#. c #273248",
"$. c #2B364F",
"%. c #323446",
"&. c #343D44",
"*. c #333549",
"=. c #343B4B",
"-. c #383F4F",
";. c #222D57",
":. c #222E58",
">. c #273655",
",. c #363E50",
"<. c #283D61",
"1. c #423C45",
"2. c #423845",
"3. c #244544",
"4. c #364143",
"5. c #3A4542",
"6. c #3A444A",
"7. c #3E4948",
"8. c #3C4353",
"9. c #3D4655",
"0. c #2E5C57",
"q. c #31615E",
"w. c #2A4165",
"e. c #335B6D",
"r. c #38716D",
"t. c #38706E",
"y. c #4E4445",
"u. c #434847",
"i. c #514545",
"p. c #5F4F45",
"a. c #544C4A",
"s. c #495146",
"d. c #535344",
"f. c #5A5F47",
"g. c #525948",
"h. c #595948",
"j. c #434D5C",
"k. c #444654",
"l. c #45515D",
"z. c #644C42",
"x. c #6F5944",
"c. c #685644",
"v. c #795E46",
"b. c #626341",
"n. c #7C6144",
"m. c #7B6C42",
"M. c #777743",
"N. c #444F62",
"B. c #465062",
"V. c #4A5464",
"C. c #4C5A6C",
"Z. c #48546C",
"A. c #505F79",
"S. c #50606E",
"D. c #8A4C33",
"F. c #9C5430",
"G. c #845A39",
"H. c #A2542E",
"J. c #976437",
"K. c #8E6A42",
"L. c #866643",
"P. c #926E43",
"I. c #8D7A41",
"U. c #9C7343",
"Y. c #A37B42",
"T. c #A97D42",
"R. c #3F807A",
"E. c #41847F",
"W. c #8C9245",
"Q. c #A18047",
"!. c #B5A145",
"~. c #B4B245",
"^. c #D39F42",
"/. c #D09641",
"(. c #E0A441",
"). c #EFCA42",
"_. c #F8C341",
"`. c #EBDD43",
"'. c #3F7688",
"]. c #586983",
"[. c #5D7089",
"{. c #4B9994",
"}. c #478697",
"|. c #4FA0A0",
" X c #5AB8B5",
".X c None",
/* pixels */
".X.X.X.X.X.X.X.X.X.X.X.X.X.X.X.X.X.X.X.X.X.X.X.X.X.X.X.X.X.X.X.X.X.X.X.X.X.X.X.X.X.X.X.X.X.X.X.X.X.X.X.X.X.X.X.X.X.X.X.X.X.X.X.X.X.X.X.X.X.X.X.X.X.X.X.X.X.X.X.X",
".X.X.X.X.X.X.X.X.X.X.X.X.X.X.X.X.X.X.X.X.X.X.X.X.X.X.X.X.X.X.X.X.X.X.X.X.X.X.X.X.X.X.X.X.X.X.X.X.X.X.X.X.X.X.X.X.X.X.X.X.X.X.X.X.X.X.X.X.X.X.X.X.X.X.X.X.X.X.X.X",
".X.X.X.X.X.X.X.X.X.X.X.X.X.X.X.X.X.X.X.X.X.X.X.X.X.X.X.X.X.X.X.X.X.X.X.X.X.X.X.X.X.X.X.X.X.X.X.X.X.X.X.X.X.X.X.X.X.X.X.X.X.X.X.X.X.X.X.X.X.X.X.X.X.X.X.X.X.X.X.X",
".X.X.X.X.X.X.X.X.X.X' ' .X.X.X.X.X.X.X.X.X.X.X.X.X.X.X.X.X.X.X.X.X.X.X.X.X.X2 2 .X.X.X.X.X.X.X.X.X.X.X.X.X.X.X.X.X.X.X.X.X.X.X.X.X.X.X.X.X.X.X.X.X.X.X.X.X.X.X.X",
".X.X.X.X.X.X.X.X.X' ' ' ' .X.X.X.X.X.X.X.X.X.X.X.X.X.X.X.X.X.X.X.X.X.X.X.X2 2 2 .X.X.X.X.X.X.X.X.X.X.X.X.X.X.X.X.X.X.X.X.X.X.X.X.X.X.X.X.X.X.X.X.X.X.X.X.X.X.X.X",
".X.X.X.X.X.X.X.X' ' ' ' ' .X.X.X.X.X.X.X.X.X.X.X.X.X.X.X.X.X.X.X.X.X.X.X2 2 2 2 .X.X.X.X.X.X.X.X.X.X.X.X.X.X.X.X.X.X.X.X.X.X.X.X.X.X.X.X.X.X.X.X.X.X.X.X.X.X.X.X",
".X.X.X.X.X.X.X.X' ' ' ' .X.X.X.X.X.X.X.X.X.X.X.X.X.X.X.X.X.X.X.X.X.X.X2 2 2 2 2 .X.X.X.X.X.X.X.X.X.X.X.X.X.X.X.X.X.X.X.X.X.X.X.X.X.X.X.X.X.X.X.X.X.X.X.X.X.X.X.X",
".X.X.X.X.X.X.X' ' ' ' ' .X.X.X.X.X.X.X.X.X.X.X.X.X.X.X.X.X.X.X.X.X.X.X2 2 2 2 2 .X.X.X.X.X.X.X.X.X.X.X.X.X.X.X.X.X.X.X.X.X.X.X.X.X.X.X.X.X.X.X.X.X.X.X.X.X.X.X.X",
".X.X.X.X.X.X.X' ' ' ' { ' .X.X.X.X.X.X.X.X.X.X.X.X.X.X.X.X.X.X.X.X.X.X2 2 5 2 2 .X.X.X.X.X.X.X.X.X.X.X.X.X.X.X.X.X.X.X.X.X.X.X.X.X.X.X.X.X.X.X.X.X.X.X.X.X.X.X.X",
".X.X.X.X.X.X.X' ' ' ' ' ' .X.X.X.X.X.X.X.X.X.X.X.X.X.X.X.X.X.X.X.X.X2 2 2 2 2 2 .X.X.X.X.X.X.X.X.X.X.X.X.X.X.X.X.X.X.X.X.X.X.X.X.X.X.X.X.X.X.X.X.X.X.X.X.X.X.X.X",
".X.X.X.X.X.X.X' ' ' ' ' ' ' .X.X.X.X.X.X.X.X.X.X.X.X.X.X.X.X.X.X.X2 2 2 2 2 2 2 .X.X.X.X.X.X.X.X.X.X2 2 .X.X.X.X.X.X;.;..X.X.X.X.X.X.X.X.X.X.X.X.X.X.X.X.X.X.X.X",
".X.X.X.X.X.X.X' ' { ' ' ' ' ' .X.X.X.X.X.X.X.X.X.X.X.X.X.X.X.X.X3 4 2 4 2 2 2 2 .X.X.X.X.X.X.X.X.X.X2 2 2 .X.X.X.X;.;.;..X.X.X.X.X.X.X.X.X.X.X.X.X.X.X.X.X.X.X.X",
".X.X.X.X.X.X.X{ ' ' ' ' ' ' ' ' .X.X.X.X.X.X.X.X.X.X.X.X.X.X.X: r 3 2 2 2 2 2 2 .X.X.X.X.X.X.X.X.X.X2 2 2 .X.X.X;.;.;.;..X.X.X.X.X.X.X.X.X.X.X.X.X.X.X.X.X.X.X.X",
".X.X.X.X.X.X.X.X' ' ' ' { ' ' ' ' .X.X.X.X.X.X.X.X.X.X.X.X.XV : t 3 2 2 2 2 2 2 .X.X.X.X.X.X.X.X.X.X2 2 2 .X.X;.;.;.;.;..X.X.X.X.X.X.X.X.X.X.X.X.X.X.X.X.X.X.X.X",
".X.X.X.X.X.X.X.X' ' { ' ' ' ' ' ' ' .X.X.X.X.X.X.X.X.X.X.XA A S s 3 2 2 2 2 2 2 .X.X.X.X.X.X.X.X.X0 2 2 .X.X.X:.;.;.;.;..X.X.X.X.X.X.X.X.X.X.X.X.X.X.X.X.X.X.X.X",
".X.X.X.X.X.X.X.X.X' ' ' ' ' ' { ' ' ' .X.X.X.X.X.X.X.X.XV A K F a q 2 2 2 2 2 2 ' ' ' ' .X.X.X.X2 2 2 2 .X.X.X:.;.;.;.;..X.X.X.X.X.X.X.X.X.X.X.X.X.X.X.X.X.X.X.X",
".X.X.X.X.X.X.X.X.X.X' ' ' ' ' { ' ' ' ' .X.X.X.X.X.X.X.XB S T T S g 3 3 2 2 4 4 ` ' ' ' ' .X.X2 2 2 2 2 2 .X.X;.;.;.;.;..X.X.X.X.X.X.X.X.X.X.X.X.X.X.X.X.X.X.X.X",
".X.X.X.X.X.X.X.X.X.X' ' ' { ' ' ' ' { ' ' .X.X.X.X.X.Xt t p S D F H x f 3 4 5 5 ' ' ' ' } | O.5 2 2 2 2 2 2 ' | ;.;.;.;.;..X.X.X.X.X.X.X.X.X.X.X.X.X.X.X.X.X.X.X",
".X.X.X.X.X.X.X.X.X.X{ ' ' ' ' ' ' ' ' ' ' ' .X.X.X.X.X2 q 7 C V D T J j 5 4 ' ' ' ' ' ' { | ;.' 0 2 2 2 2 2 ' } ;.;.;.;.;.:..X.X.X.X.X.X.X.X.X.X.X.X.X.X.X.X.X.X",
".X.X.X.X.X.X.X.X.X.X' ' ' ' ' ' ' ' ' ' ' ' ' .X.X.X.X6 2 7 : V D R F x 2 ) ' ' ' ' ' ' } ;.;.{ ' 0 2 2 2 2 5 } ;.;.;.;.;.;.;..X.X.X.X.X.X.X.X.X.X.X.X.X.X.X.X.X",
".X.X.X.X.X.X.X.X.X.X' ' ' ' ' ' ' ' ' ' ' ' { ' 0 3 2 2 2 7 u V K R Y x 5 5 ' ' ' ' ' ' } | ;.;.] ' 0 2 2 2 0 ] :.:.;.;.;.;.;.;..X.X.X.X.X.X.X.X.X.X.X.X.X.X.X.X",
".X.X.X.X.X.X.X.X.X.X' ' ' ' ' ' ' ' ' ' { ' ' ' ' 4 2 2 4 f u V D T F x 7 5 _ ' ' ' ' ' } | ;.;.;.} ' 2 2 2 ' } :.:.;.;.:.;.;.:.;..X.X.X.X.X.X.X.X.X.X.X.X.X.X.X",
".X.X.X.X.X.X.X.X.X.X' ' ' ' ' { ' ' ' ' ' ' ' ' ' ) 5 5 5 f p B A D S p 7 f ' ' ' ' ' ' } | ;.;.;.;.} ' ' ' ] } ;.:.;.:.;.;.;.;.;..X.X.X.X.X.X.X.X.X.X.X.X.X.X.X",
".X.X.X.X.X.X.X.X.X.X' { ' ' ' ' ' { { ' ' ' ' ' ' ' ' ' ' g p B V V V V p g q ' ' ' ' ' } | ;.;.;.;.;.} ;.;.;.;.;.;.;.;.:.;.;.:.;..X.X.X.X.X.X.X.X.X.X.X.X.X.X.X",
".X.X.X.X.X.X.X.X.X.X' ' ' ' ' ' ' ' ' ' ' ' ' ' ' ' ' ' ' k c p : C Z I I N ] [ ' ' ' ' } | ;.;.;.;.' ' ] ;.:.:.;.:.:.;.;.:.;.;.;.;..X.X.X.X.X.X.X.X.X.X.X.X.X.X",
".X.X.X.X.X.X.X.X.X.X' ' ' ' ' ' ' ' ' ' ' ' ' ' ' { { { ' ..k g s C I ^ / ~ +.` ' ' ' ' { ' | ;.;.' 1 > 0 ;.:.:.;.;.;.;.;.;.:.;.;.;.:..X.X.X.X.X.X.X.X.X.X.X.X.X",
".X.X.X.X.X.X.X.X.X.X{ ' ' ' ' ' ' ' ' ' ' ' ' ' ' ' ' ' { { ' ..x S E / M.g.+.[ ` ' ' ' ' 5 ' ' { 3 @ o < ] :.:.;.;.;.;.;.;.;.;.;.:.;..X.X.X.X.X.X.X.X.X.X.X.X.X",
".X.X.X.X.X.X.X.X.X.X.X' { ' ' ' ' { ' ' ' { ' ' ' ' ' ' { ` ` X.U ~ ^ f.g.6.O.` ' ' 2 > % @ @ > < @     < ] :.:.:.;.;.:.;.:.;.;.;.;.:.;..X.X.X.X.X.X.X.X.X.X.X.X",
".X.X.X.X.X.X.X.X.X.X.X.X' ' ' ' ' ' ' ' ' ' ' ' ' ' ' ' ' ' ` #.^ R./ u.#...' { ' ` < + O o o o o O . o 1 ] :.:.;.;.;.:.:.;.:.;.;.:.;.:..X.X.X.X.X.X.X.X.X.X.X.X",
".X.X.X.X.X.X.X.X.X.X.X.X.X' ' ' ' ' ' ' ' ' ' ' ' ' ' ' { ` ` @.~ J.m.u.' _ ' ' 2 2 + O $ w L ; o # w 3.w.:.:.;.:.;.;.;.;.;.;.;.;.:.;.;..X.X.X.X.X.X.X.X.X.X.X.X",
".X.X.X.X.X.X.X.X.X.X.X.X.X' { ' ' ' ' ' ' { ' ' { ' ' ' ' ' [ o.! J.G.2.' [ ' 2 > +   O w R.{.0.& e R.|.'.>.;.;.;.;.;.;.;.;.;.;.;.;.;.;..X.X.X.X.X.X.X.X.X.X.X.X",
".X.X.X.X.X.X.X.X.X.X.X.X' ' ' ' ' ' { ' ' ' ' ' ' ' ' ' ' ` ` o.W H.D.G ' ` ' 2 #     O 3.{. Xr., w {. X}.<.;.;.;.;.;.;.;.;.;.;.;.:.;.:..X.X.X.X.X.X.X.X.X.X.X.X",
".X.X.X.X.X.X.X.X.X.X.X.X' ' ' ' ' ' ' ' ' ' ' ' ' ' ' ' { ` ` o.W H.D.G _ [ ` 2 +       9 q.r.L # 8 0.r.e.>.;.;.;.;.;.;.;.;.;.;.;.;.;.;..X.X.X.X.X.X.X.X.X.X.X.X",
".X.X.X.X.X.X.X.X.X.X.X.X.X' ' ' { ' ' ' ' { ' ' ' ' ' ' { ' ` o.W F.D.2...` ' 2 @       o $ = o O o & 8 q | ;.;.;.;.;.:.;.:.:.;.:.;.:.;..X.X.X.X.X.X.X.X.X.X.X.X",
".X.X.X.X.X.X.X.X.X.X.X.X.X{ ' ' ' ' { ' ' ' ' ' ' ' ' ' ' ' [ X.J ! ! z.y.*.' 2 > @ X               X @ 2 } :.;.;.:.;.;.;.:.;.;.:.;.:.;..X.X.X.X.X.X.X.X.X.X.X.X",
".X.X.X.X.X.X.X.X.X.X.X.X.X.X' ' ' ' ' ' ' ' ' ' ' ' ' ' ' ' ' ] o.2.Q J.P.z.X.) 4 1 @ .           o @ 2 ' ;.:.;.;.;.;.;.;.;.;.;.;.;.;.;..X.X.X.X.X.X.X.X.X.X.X.X",
".X.X.X.X.X.X.X.X.X.X.X.X.X.X.X' ' ' { ' { ' ' ' ' ' ' ' ] ' ' ' ` ] y.P.T.n.1.X...5 < + O O o O o @ 2 ' | ;.;.;.;.;.;.;.;.;.;.;.;.:.;.:..X.X.X.X.X.X.X.X.X.X.X.X",
".X.X.X.X.X.X.X.X.X.X.X.X.X.X.X{ ' ' ' ' ' ' ' ' ' ' ' ' ' ' ' ' [ [ *.z.n.L.n.p.%.' 6 , , > < > > 2 0 ] | | ;.;.;.:.;.;.;.:.;.;.;.;.;.;..X.X.X.X.X.X.X.X.X.X.X.X",
".X.X.X.X.X.X.X.X.X.X.X.X.X.X.X' ' { ' ' ' ' ' ' ' ' ' ' ' ' ' ' ' ' { X.1.n.T.P.y.' ) ' 0 0 ` 0 0 ` ' ' } ;.;.;.;.:.:.;.;.:.:.;.;.:.;.:..X.X.X.X.X.X.X.X.X.X.X.X",
".X.X.X.X.X.X.X.X.X.X.X.X.X.X.X' ' ' ' ' ' ' ' ' ' ' ' ' ' ' ' ' ' ' [ _ X.p.P.P.x.y.%.] [ ' { ' ' ' ' ' } ;.;.;.;.;.;.;.;.;.;.;.;.;.;.;..X.X.X.X.X.X.X.X.X.X.X.X",
".X.X.X.X.X.X.X.X.X.X.X.X.X.X.X' ' ' { ' ' ' ' ' ' ' ' { ' ' ' ' ' ' ' [ ' %.i.x.P.P.p.O.[ [ ' ' ' ' ' } { ;.;.;.;.;.;.;.;.:.;.;.;.;.;.;..X.X.X.X.X.X.X.X.X.X.X.X",
".X.X.X.X.X.X.X.X.X.X.X.X.X.X.X' ' ' ' ' ' ' { ' ' ' ' ' ' ' ' { ' ' ' ' ' ` ..y.P.T.n.1.X.] ' ' ` ' ' ' | ;.;.;.:.;.:.;.;.;.;.;.;.;.;.;..X.X.X.X.X.X.X.X.X.X.X.X",
".X.X.X.X.X.X.X.X.X.X.X.X.X.X.X' ' ' ' ' ' ' ' ' ' ' ' { ' ' ' ' ' ' ' ' ' _ ` %.p.n.L.n.z.%.` ) _ _ ' ' } ;.;.;.;.;.:.;.:.;.:.;.;.;.;.;..X.X.X.X.X.X.X.X.X.X.X.X",
".X.X.X.X.X.X.X.X.X.X.X.X.X.X.X' { ' ' ' ' ' ' ' ' ' ' ' ' ' ' ' ' ' ' ' ' ' { { X.1.n.T.P.y.' ' ..' ' ` } ;.;.;.;.;.;.;.;.;.;.;.;.;.;..X.X.X.X.X.X.X.X.X.X.X.X.X",
".X.X.X.X.X.X.X.X.X.X.X.X.X.X.X.X' ' ' { { ' ' ' ' ' ' ' ' ' { ' ' ' ' ' ' ' ' [ _ X.p.P.P.c.p.p.f.s.@... .;.;.;.;.:.;.;.;.:.;.;.;.;.;..X.X.X.X.X.X.X.X.X.X.X.X.X",
".X.X.X.X.X.X.X.X.X.X.X.X.X.X.X.X.X' ' ' ' ' ' ' ' ' ' ' ' ' ' ' ' ' ' ' ' ' ' ' ' { %.y.x.L.Q.~.~.W.s.}  .;.;.;.;.;.;.;.;.;.;.;.;.;..X.X.X.X.X.X.X.X.X.X.X.X.X.X",
".X.X.X.X.X.X.X.X.X.X.X.X.X.X.X.X.X.X' ' ' ' ' { ' ' ' ' ' ' ' ' ' ' ' ' ' ' ' ' ' ' ` ' i.U.^.).`.~.f.O. .| ;.;.;.;.;.:.:.;.;.:.;..X.X.X.X.X.X.X.X.X.X.X.X.X.X.X",
".X.X.X.X.X.X.X.X.X.X.X.X.X.X.X.X.X.X.X' ' ' ' ' ' ' { ' ' ' ' ' ' ' ' ' ' ' ' ' ' ' _ ` y.Y.(.(.).!.h.;. .;.;.;.;.:.;.;.;.;.;.;.;..X.X.X.X.X.X.X.X.X.X.X.X.X.X.X",
".X.X.X.X.X.X.X.X.X.X.X.X.X.X.X.X.X.X.X.X' ' ' { ' ' ' ' { ' ' ' ' ' ' ' ' ' ' ' ' ' _ ..i.U./.(.^.Y.a.:. .:.:.:.:.:.;.;.:.;.;.:.;..X.X.X.X.X.X.X.X.X.X.X.X.X.X.X",
".X.X.X.X.X.X.X.X.X.X.X.X.X.X.X.X.X.X.X.X.X' ' ' ' ' ' ' ' ' ' ' ' ' ' ' ' ' ' ' ' ' [ ' 1.v.U.T.U.v.k.:. .;.:.:.;.:.:.;.;.;.;.;.;..X.X.X.X.X.X.X.X.X.X.X.X.X.X.X",
".X.X.X.X.X.X.X.X.X.X.X.X.X.X.X.X.X.X.X.X.X.X' ' ' ' ' ' ' ' ' { ' ' ' ' ' ' ' ' ' ' ' ' X.1.i.i.y.2.$.:.;.;.;.;.;.;.;.;.;.;.;.;.;..X.X.X.X.X.X.X.X.X.X.X.X.X.X.X",
".X.X.X.X.X.X.X.X.X.X.X.X.X.X.X.X.X.X.X.X.X.X' ' ' ' ' { ' ' ' ' ' ' ' ' ' ' ' ' ' ' ' ' { { { ....O.;.:.;.;.:.:.;.:.:.;.;.;.;.:.;..X.X.X.X.X.X.X.X.X.X.X.X.X.X.X",
".X.X.X.X.X.X.X.X.X.X.X.X.X.X.X.X.X.X.X.X.X.X' { ' ' ' ' { ' ' ' ' ' ' ' ' ' ' ' ' ' { { ' ` [ _  . . .:.:.;.;.;.;.;.;.:.:.;.;.:..X.X.X.X.X.X.X.X.X.X.X.X.X.X.X.X",
".X.X.X.X.X.X.X.X.X.X.X.X.X.X.X.X.X.X.X.X.X.X.X' ' ' ' ' ' ' ' ' ' { ' ' ' ' ' ' ' ' ' ' ' _ ' | ;.;.;.;.;.:.;.:.:.;.;.;.;.;.;..X.X.X.X.X.X.X.X.X.X.X.X.X.X.X.X.X",
".X.X.X.X.X.X.X.X.X.X.X.X.X.X.X.X.X.X.X.X.X.X.X' ' ' ' ' ' ' { ' ' ' ' ' _ ' ' ' ' ' 5 2 1 2 2 ..| :.:.:.;.;.;.;.;.;.;.;.;.;..X.X.X.X.X.X.X.X.X.X.X.X.X.X.X.X.X.X",
".X.X.X.X.X.X.X.X.X.X.X.X.X.X.X.X.X.X.X.X.X.X.X.X' { ' ' ' ' ' ' ' ' ' ' ' ' ' ' ' _ 1 @ o + @ 2 | :.:.:.:.;.:.;.;.;.;.:.;..X.X.X.X.X.X.X.X.X.X.X.X.X.X.X.X.X.X.X",
".X.X.X.X.X.X.X.X.X.X.X.X.X.X.X.X.X.X.X.X.X.X.X.X.X' ' ' ' ' { { ' ' ' ] ] ] ] ] ] ' < # . . # 1 ] ;.:.;.;.;.;.:.:.;.;.;..X.X.X.X.X.X.X.X.X.X.X.X.X.X.X.X.X.X.X.X",
".X.X.X.X.X.X.X.X.X.X.X.X.X.X.X.X.X.X.X.X.X.X.X.X.X.X.X' ' ' ' .X.X' X.#.@.@.@.#.@.@.y ; * * ; y @.#.@.#.$.;.;.;.;.;.;..X.X.X.X.X.X.X.X.X.X.X.X.X.X.X.X.X.X.X.X.X",
".X.X.X.X.X.X.X.X.X.X.X.X.X.X.X.X.X.X.X.X.X.X.X.X.X.X.X.X.X.X.X.X.X.X.X4.4.5.5.5.P P M d d d d v b n b n #.;.;.;.;.:..X.X.X.X.X.X.X.X.X.X.X.X.X.X.X.X.X.X.X.X.X.X",
".X.X.X.X.X.X.X.X.X.X.X.X.X.X.X.X.X.X.X.X.X.X.X.X.X.X.X.X.X.X.X.X.X.X.X5.5.5.5.5.7.P P L b b b b b b b v @.$.>.:.;..X.X.X.X.X.X.X.X.X.X.X.X.X.X.X.X.X.X.X.X.X.X.X",
".X.X.X.X.X.X.X.X.X.X.X.X.X.X.X.X.X.X.X.X.X.X.X.X.X.X.X.X.X.X.X.X.X.X.X5.5.5.5.5.5.5.P b b b b b b b b b M &.=.$..X.X.X.X.X.X.X.X.X.X.X.X.X.X.X.X.X.X.X.X.X.X.X.X",
".X.X.X.X.X.X.X.X.X.X.X.X.X.X.X.X.X.X.X.X.X.X.X.X.X.X.X.X.X.X.X.X.X.X.X5.5.5.7.5.5.5.P b b b b b b b b b P 5.5..X.X.X.X.X.X.X.X.X.X.X.X.X.X.X.X.X.X.X.X.X.X.X.X.X",
".X.X.X.X.X.X.X.X.X.X.X.X.X.X.X.X.X.X.X.X.X.X.X.X.X.X.X.X.X.X.X.X.X.X.X5.5.5.5.5.5.5.P b b b b b b b b b M P 7..X.X.X.X.X.X.X.X.X.X.X.X.X.X.X.X.X.X.X.X.X.X.X.X.X",
".X.X.X.X.X.X.X.X.X.X.X.X.X.X.X.X.X.X.X.X.X.X.X.X.X.X.X.X.X.X.X.X.X.X.X5.5.5.5.5.5.P P b v b b b b b b b P 5.P .X.X.X.X.X.X.X.X.X.X.X.X.X.X.X.X.X.X.X.X.X.X.X.X.X",
".X.X.X.X.X.X.X.X.X.X.X.X.X.X.X.X.X.X.X.X.X.X.X.X.X.X.X.X.X.X.X.X.X.XM &.5.5.5.5.P P M b m b b b b b b b M P P M .X.X.X.X.X.X.X.X.X.X.X.X.X.X.X.X.X.X.X.X.X.X.X.X",
".X.X.X.X.X.X.X.X.X.X.X.X.X.X.X.X.X.X.X.X.X.X.X.X.X.X.X.X.X.X.X.X.Xz n &.5.P P 4.P M m .X.X.X.Xb v b v b m m m b b .X.X.X.X.X.X.X.X.X.X.X.X.X.X.X.X.X.X.X.X.X.X.X",
".X.X.X.X.X.X.X.X.X.X.X.X.X.X.X.X.X.X.X.X.X.X.X.X.X.X.X.X.X.X.X.X.Xz @.6.u.u.7.5.m b b .X.X.X.X.Xb b b b b b b b M .X.X.X.X.X.X.X.X.X.X.X.X.X.X.X.X.X.X.X.X.X.X.X",
".X.X.X.X.X.X.X.X.X.X.X.X.X.X.X.X.X.X.X.X.X.X.X.X.X.X.X.X.X.X.X.Xh z =.j.C.S.S.l.&.n j .X.X.X.X.X.Xb b b b b M 4.6.6..X.X.X.X.X.X.X.X.X.X.X.X.X.X.X.X.X.X.X.X.X.X",
".X.X.X.X.X.X.X.X.X.X.X.X.X.X.X.X.X.X.X.X.X.X.X.X.X.X.X.X.X.X.X.Xh z ,.Z.].[.].Z.8.z .X.X.X.X.X.X.X.Xb b b b &.9.j.l..X.X.X.X.X.X.X.X.X.X.X.X.X.X.X.X.X.X.X.X.X.X",
".X.X.X.X.X.X.X.X.X.X.X.X.X.X.X.X.X.X.X.X.X.X.X.X.X.X.X.X.X.X.X.Xl z ,.Z.].].A.Z.,.z .X.X.X.X.X.X.X.X.Xb v v &.j.V..X.X.X.X.X.X.X.X.X.X.X.X.X.X.X.X.X.X.X.X.X.X.X",
".X.X.X.X.X.X.X.X.X.X.X.X.X.X.X.X.X.X.X.X.X.X.X.X.X.X.X.X.X.X.X.Xh z =.N.C.N.9.,.@..X.X.X.X.X.X.X.X.X.X.Xj n &.9.V..X.X.X.X.X.X.X.X.X.X.X.X.X.X.X.X.X.X.X.X.X.X.X",
".X.X.X.X.X.X.X.X.X.X.X.X.X.X.X.X.X.X.X.X.X.X.X.X.X.X.X.X.X.X.X.X.Xo.*.9.j.,.@.l .X.X.X.X.X.X.X.X.X.X.X.X.Xz %.9.j.B..X.X.X.X.X.X.X.X.X.X.X.X.X.X.X.X.X.X.X.X.X.X",
".X.X.X.X.X.X.X.X.X.X.X.X.X.X.X.X.X.X.X.X.X.X.X.X.X.X.X.X.X.X.X.X.X.X%.=.=.*.z .X.X.X.X.X.X.X.X.X.X.X.X.X.X.X%.=.6.9.j..X.X.X.X.X.X.X.X.X.X.X.X.X.X.X.X.X.X.X.X.X",
".X.X.X.X.X.X.X.X.X.X.X.X.X.X.X.X.X.X.X.X.X.X.X.X.X.X.X.X.X.X.X.X.X.X.Xn n o..X.X.X.X.X.X.X.X.X.X.X.X.X.X.X.X.Xo.@.8.j.V..X.X.X.X.X.X.X.X.X.X.X.X.X.X.X.X.X.X.X.X",
".X.X.X.X.X.X.X.X.X.X.X.X.X.X.X.X.X.X.X.X.X.X.X.X.X.X.X.X.X.X.X.X.X.X.Xl l .X.X.X.X.X.X.X.X.X.X.X.X.X.X.X.X.X.Xl o.-.B.V..X.X.X.X.X.X.X.X.X.X.X.X.X.X.X.X.X.X.X.X",
".X.X.X.X.X.X.X.X.X.X.X.X.X.X.X.X.X.X.X.X.X.X.X.X.X.X.X.X.X.X.X.X.X.X.X.X.X.X.X.X.X.X.X.X.X.X.X.X.X.X.X.X.X.X.Xl n 8.j.V..X.X.X.X.X.X.X.X.X.X.X.X.X.X.X.X.X.X.X.X",
".X.X.X.X.X.X.X.X.X.X.X.X.X.X.X.X.X.X.X.X.X.X.X.X.X.X.X.X.X.X.X.X.X.X.X.X.X.X.X.X.X.X.X.X.X.X.X.X.X.X.X.X.X.X.Xh @.-.j.j..X.X.X.X.X.X.X.X.X.X.X.X.X.X.X.X.X.X.X.X",
".X.X.X.X.X.X.X.X.X.X.X.X.X.X.X.X.X.X.X.X.X.X.X.X.X.X.X.X.X.X.X.X.X.X.X.X.X.X.X.X.X.X.X.X.X.X.X.X.X.X.X.X.X.X.X.Xo.*.-.=.@..X.X.X.X.X.X.X.X.X.X.X.X.X.X.X.X.X.X.X",
".X.X.X.X.X.X.X.X.X.X.X.X.X.X.X.X.X.X.X.X.X.X.X.X.X.X.X.X.X.X.X.X.X.X.X.X.X.X.X.X.X.X.X.X.X.X.X.X.X.X.X.X.X.X.X.X.X@.n o.z z .X.X.X.X.X.X.X.X.X.X.X.X.X.X.X.X.X.X",
".X.X.X.X.X.X.X.X.X.X.X.X.X.X.X.X.X.X.X.X.X.X.X.X.X.X.X.X.X.X.X.X.X.X.X.X.X.X.X.X.X.X.X.X.X.X.X.X.X.X.X.X.X.X.X.X.X.Xh z z z z .X.X.X.X.X.X.X.X.X.X.X.X.X.X.X.X.X"
};
