/* XPM */
static char *result[] = {
/* columns rows colors chars-per-pixel */
"80 80 215 2 ",
"   c #010101",
".  c #040A07",
"X  c #03030C",
"o  c #06110E",
"O  c #040613",
"+  c #060A19",
"@  c #0A1618",
"#  c #321F1C",
"$  c #0D211D",
"%  c #34211D",
"&  c #3C231A",
"*  c #080D26",
"=  c #07122C",
"-  c #0B122E",
";  c #0D1829",
":  c #1C1A2A",
">  c #0D1533",
",  c #0E1936",
"<  c #0A1638",
"1  c #0E1B3A",
"2  c #141434",
"3  c #191536",
"4  c #121935",
"5  c #161A34",
"6  c #1E1639",
"7  c #111B3C",
"8  c #1B1B3D",
"9  c #271E27",
"0  c #231C36",
"q  c #23163C",
"w  c #23193D",
"e  c #28183F",
"r  c #182428",
"t  c #0F243E",
"y  c #11233D",
"u  c #182439",
"i  c #193A36",
"p  c #2A222E",
"a  c #382725",
"s  c #272736",
"d  c #362B3A",
"f  c #293532",
"g  c #293538",
"h  c #323E3F",
"j  c #432413",
"k  c #462916",
"l  c #4A2B18",
"z  c #4E3319",
"x  c #56341C",
"c  c #613A1C",
"v  c #4C3525",
"b  c #533829",
"n  c #4E373B",
"m  c #593C36",
"M  c #623E23",
"N  c #653D37",
"B  c #1C413E",
"V  c #54482D",
"C  c #6C4526",
"Z  c #66582A",
"A  c #6C4337",
"S  c #7A543B",
"D  c #6F6D3D",
"F  c #766E37",
"G  c #7B7639",
"H  c #0A1847",
"J  c #0C1A45",
"K  c #141F45",
"L  c #1C1E45",
"P  c #141F4A",
"I  c #231D44",
"U  c #2C1A43",
"Y  c #2C1E49",
"T  c #331A45",
"R  c #351D49",
"E  c #3A1E4B",
"W  c #0E2443",
"Q  c #0F2D41",
"!  c #112346",
"~  c #1B2245",
"^  c #122B43",
"/  c #1C2A42",
"(  c #142549",
")  c #1A234C",
"_  c #122B4B",
"`  c #1C2C4D",
"'  c #17334A",
"]  c #13324E",
"[  c #173A4D",
"{  c #152356",
"}  c #1A2553",
"|  c #172D52",
" . c #1C2956",
".. c #1E2A59",
"X. c #143651",
"o. c #1B3553",
"O. c #133B52",
"+. c #193D54",
"@. c #1D3459",
"#. c #1D3B5B",
"$. c #212345",
"%. c #222B44",
"&. c #2C2C44",
"*. c #2C214B",
"=. c #252849",
"-. c #34214D",
";. c #3D214D",
":. c #392B4B",
">. c #243141",
",. c #293649",
"<. c #323446",
"1. c #3E3844",
"2. c #252957",
"3. c #222D55",
"4. c #2D2B55",
"5. c #362954",
"6. c #332C55",
"7. c #263252",
"8. c #363457",
"9. c #2A3663",
"0. c #303C6B",
"q. c #401F4E",
"w. c #41224D",
"e. c #442B4F",
"r. c #512E4F",
"t. c #4A3A47",
"y. c #452453",
"u. c #4A2555",
"i. c #4B2951",
"p. c #462958",
"a. c #4E2A5B",
"s. c #512957",
"d. c #532A5C",
"f. c #4D325D",
"g. c #553353",
"h. c #5A3455",
"j. c #5C3956",
"k. c #5C3759",
"l. c #543A58",
"z. c #633A56",
"x. c #61375A",
"c. c #663C59",
"v. c #6A3F59",
"b. c #1E4240",
"n. c #134356",
"m. c #194256",
"M. c #174956",
"N. c #144658",
"B. c #1A4659",
"V. c #154B5B",
"C. c #1B4C5C",
"Z. c #16505E",
"A. c #1B515E",
"S. c #264143",
"D. c #27474C",
"F. c #24494E",
"G. c #364146",
"H. c #264A5A",
"J. c #3E4A5A",
"K. c #22525B",
"L. c #275758",
"P. c #1D5561",
"I. c #1E5963",
"U. c #244B63",
"Y. c #34496B",
"T. c #205561",
"R. c #215C65",
"E. c #235F68",
"W. c #226066",
"Q. c #226068",
"!. c #346970",
"~. c #367370",
"^. c #4A4545",
"/. c #5C4A43",
"(. c #525744",
"). c #484A51",
"_. c #4E5657",
"`. c #615348",
"'. c #735B42",
"]. c #7A5E46",
"[. c #61435B",
"{. c #586151",
"}. c #6A6E49",
"|. c #7E6243",
" X c #6E7347",
".X c #4E5974",
"XX c #576177",
"oX c #854A32",
"OX c #886742",
"+X c #8D7542",
"@X c #937247",
"#X c #997241",
"$X c #A67A41",
"%X c #3E827E",
"&X c #DDA33F",
"*X c #EAB63F",
"=X c #F8CB3F",
"-X c #888A44",
";X c #BE8B41",
":X c #B09345",
">X c #B2AF48",
",X c #C69440",
"<X c #DABD40",
"1X c #D9D242",
"2X c #485485",
"3X c #525D8B",
"4X c #5A6591",
"5X c #6B768E",
"6X c #6570A1",
"7X c #4A9997",
"8X c #7781B7",
"9X c #56B2B1",
"0X c #8893B2",
"qX c #8A94C4",
"wX c #8E98C6",
/* pixels */
"! ! X.R.I.! ! A.P.B.C.I.m._ I.I.P.! ! _ ( W P.` B.I.T.Q.Q.Q.Q.P.B.] _ ] B.B.[ ^ n.R.R.R.I.Q.C.V.I.R.V.E.P.W.O._ W V.P.O.n.I.P._ I.X.n.n.O.V._ _ ] n.Z.C.T.T.T.' ",
"_ _ P.I.C.! ! _ E.C.B.+.B.Q.R.P.! I.I.C.W K [ B.X.R.Q.R.Q.Q.Q.I.B.X._ X.+.+.t 7 ' [ R.I.B.O._ X.V.Q.I.V.N.I.I.] _ V.O.n.P.I._ _ X.C.O.n.N.V._ _ ] V.n.B.+.m.+._ ",
"B.B.m.T.O.! ( C.E.X.B.( R.Q.B.P.! W.Q.B.( 1 J ! B.Q.R.Q.Q.W.E.E.B.X.` _ [ t 4 1 y [ m.] [ m._ ] V.Z.Q.I.N.n.P.W.Z.B.X.n.I.I._ W P.V.n.+.I.m.( _ B.O.n.C.+.P._ K ",
"B.+.B.I.+.W ] m.E.B.B._ Q.Q.A.A.! I.Q.C.' 1 , ! ] C.C.R.Q.Q.R.R.E.+.] Q y , , , , 1 ^ ' W X._ _ m.O.Z.I.I.n.O.W.I.I.] I.I.V._ _ C.m.P.Z.C._ ( O.] n.V.+.B.C._ ! ",
"m.B.+.B.X.! B.O.Q.C.R.B.Q.Q.R.P.( m.W.B.^ , y 4 W ' n.M.I.Q.E.R.Q.I.O.^ 1 - > > > > 1 ^ K ! [ [ _ ] V.R.Q.R.n.V.P.E.X.E.Q.m._ m.+._ I.P._ ! X.B.] n.A.O.C.O.~ W ",
"m.o.` _ ` ! C.C.R.Q.R.] Q.R.A.I.Q.C.C.+.^ 1 , y W t t ' M.Q.R.I.I.W.C.[ 4 , > > > > > , , ^ m.B.W _ m.I.R.Q.V.n.P.I.I.E.I.{ B.m.O._ _ +.! ( C.X.O.V.Z.V.' B.] ! ",
"+.` ~ K ! ( m.R.A.R.O._ R.B.C.I.E.m.^ m.^ 4 > > > > > t [ K.I.P.I.W.A.[ 1 > > > > > > > , [ C.m.! ( _ V.P.I.n.O.O.] I.I.W ( C._ _ m.X.! _ | o.B.n.I.n.B._ C.P.W ",
"_ m.K K P ( ( +.] +.X.( C.C.T.R.E.] _ C.y , > > > > > , ^ [ [ [ M.P.I.[ 4 > > > > > > > > ' B.+.( W ( _ O.] O.V.] _ C.n.O.O.] ] X.B.O.! _ X.B.B.M.B.V._ _ M.O.J ",
"! T.! K ~ K ~ ) ( ( ~ P o.H.P.E.W.O.] _ 1 1 - > > > > > , 7 , 4 ^ O.A.' 1 , > > > > > > 1 ' m.C.] ! ! _ A.` A.I._ _ _ I.T.P.C.n.O.] _ _ X.B.P.P.P.I.P._ ! A.B.! ",
"! E.! ! ` K ! K K K K K _ +.B.I.W.C.] W 1 ' y y > > > > > > > > 1 t W y , > > > > > > > y y [ [ +.X._ C.A.X.! C.! W B.B._ C.O.P.Z.O.] X.O.I.E.T.P.X.( W ( A.+._ ",
"! E.! ! X.! K K K K K K K P X.+.R.C.O.X.W B.t y > > > > > > > > , 4 , 7 > > > > > > > > , 1 W ' +.B.B.P.C.m.! I.! ( m.Z.X.] V.V.n.Z.n.I.I.I.P.A.m._ ! ( ` B.+.+.",
"I.R.( W m.! K K K K K K K K ( X.T.T.V.C.( B.J t , > > > > > > > , > , > > > > > > > > > > > , y [ B.m.A.C.O.! I._ N.+.m.Z.X.O.V.V.Z.P.I.I.A.V.V.+._ ( _ O.C.A.P.",
"R.! ! ! A.C.+._ K K K K K K ~ ( +.+.+.X._ R.m.4 > > > > > > > > > > > > > > > 2 - 2 > > > > > , ^ [ B.m.m.B.! I.B.A.W C.X.| X.O.V.P.P.I.I.P.V.n.O._ ] X.A.I.I.I.",
"P.! _ X.C.E.T.B.P K K K K K K ~ ( ) ) ~ X.K.M.7 , - > > > > > > > > > > > > > > > > > > > > > > , y ' C._ B.K A.A.Z.K P.@. .| O.P.P.P.I.P.P.n.n.O.O.B.C.B.I.I.Q.",
"] J B.I.E.R.I.B.~ K ( K K K K K K K K K ` B.B.y t 1 , > > > > > > > > > > > > < 7 7 7 > > > > > > 1 ^ [ ! W K P.B.#.] U.{  ...X.Z.P.Z.I.I.V.V.V.A.B.B.B.Z.I.I.P.",
"K X.B.I.E.n.C.] _ ( _ ! K K K K K K K K ( ' [ m.M.t 4 > > > > > > > = > < < 1 K ~ ( K 7 > > - 2 > , 4 y 1 K W A.m.B.#.o. . .@.| ] I.P.V.I.V.I.I.V.P.R.P.P.I.W.Z.",
"X.P.m.I.I.Z.O.X.m.] ( ( K K K K K K K K K ! ` +.C.[ 4 > > > > > 4 : 5 4 2 4 K K ) } ~ 7 4 > 4 < > > > , K W ! X.B.#.@. . . .o._ _ ] Z.n.I.n.W.Z.Z.P.Q.R.I.I.n.n.",
"A.P.m.P.N.P.] I._ C.+.) K K K K K K K P K K ( ] +.` y 7 > > > > r d a a p 9 7 ~ P { ( K 7 K K 7 , , 7 K ( _ B.X.#.#...|  . ...( _ _ n.O.I.W.W.A.A.Q.W.W.I.I.O.O.",
"T.T.T.+.P.X._ Q._ K.m.) ~ K K ! K K K K K K ! ( ( P K 7 7 > > > s b C x j a 0 P P P K K K ) ) ( 7 4 K ) @._ P.H.@... ... ...#.C.! _ +.] W.W.I.C.K.R.W.W.A.V.] _ ",
"T.I.R.B.C.I.Q.I.+.R.B.[ ! ~ K K K K K ~ K K K K K K K 7 4 > > > p b M c x a s K K K K K P }  .} K K ( } @.B.U.#... ...}  . .7.T.! W O.T.W.W.Q.C.R.W.W.W.I._ _ _ ",
"Q.Q.Q.Q.I.I.Q.W.A.R.K.A.+.) K K K P K K K K ~ K K K K J < > > > 0 & x c c b d ! K K K K K )  .} ) ) }  ...@.#.o. . . . . . .#.U.! ! C.I.W.W.W.! ^ I.W.W.W.! ! W ",
"Q.I.I.I.I.P.W.W.W.W.I.Q.A._ ( ! ! K K K K K K K K K K K 7 > > > : % z x C m d W K K K K P )  . . . . . . . ... . . . . . . .@.P.! ! T.^ R.W.I.! ! R.K.R.R.! ! ! ",
"E.I.P.I.P.Q.P.W.Q.Q.! R.K.X.+.` ~ K K K K K K K K K K K 4 > > > : % k c C m s 7 J K K K K ) }  . ......... . . . ... . . . . .U.! K.C.C.K.W.! ! ! W.! R.R.! B.! ",
"I.I.P.Q.I.E.P.I.T.P.K I.I.O.C._ ( K ~ K K K K K K K K K 2 > > > : % k c C b d 4 1 K K K K K K ~ }  . . . . . . . . . . . . .{ ! ( R.( C.! W.! ! _ R.T.Q.Q.C.T.^ ",
"I.P.I.E.Q.R.B.o.R.! K W Q.] ] ! ! K K K K K K ~ K K K K 7 > > > : % k x c b a : 5 7 ~ P K < - - 7 7 7 3 K P  .}  . . . . . .} $.z.R.L ~ W B.! _ T.Q.R.Q.Q.E.E.! ",
"Z.P.I.E.Q.m.] _ E.I.! ! T._ _ +.( K K K P K K K K K K K K 7 < 4 : % j z z l & # 0 K ! ( K * X . X O X X * K  ... . . . . . .} *.v.h.Y ~ ! ! ! _ Q.Q.R.Q.I.Q.Q.W ",
"] C.E.E.Q.X.! ! E.E.( _ _ ! ( B.` K K K K K K K K K K K K K K , : % j j j j k v s L K J 7 ; ; o     . @ ; ~ .... . . . . . .4.*.v.v.U L ! _ ] R.Q.Q.P.C.W E.Q.( ",
"+._ E.I.Q.] ! ! I.I.X.I.E.( B.C.L L P K K K K K K K K K K K J 1 0 % j j j z Z Z V $.< * ; F.~.L.@ . i ~.!.U. ... . . . . ...6.f.v.[.U L ( X.R.Q.W.R.X.( ! E.I.! ",
"W ( I.I.E._ ! T.! E.O.I.Q._ C.I Y B.L ~ K K K K K K K K K K J ~ s a k j j M G G (.s = X $ ~.9X7Xi @ !.9X9X!.{ {  . . . . . .6.l.v.v.h.L ( R.W.W.W.R.( ! W T.U.! ",
"W ( R.I.E._ I.I.! R.I.Q.I._ ^ ) T.H.L K K K K K K K K K K K K K 8 p a b V Z D }.)./ = X o L.7X%Xi @ L.7X7XY...{  . . . . .2.6.l.v.y.h.Y $.W.C.Q.K.^ W ! ! ! W ! ",
"! A.R.E.E.( I.! ! R.E.P.n._ ( | Q.` L K K K K K K K K ~ K P ~ K 7 8 g V F D V G.,.L - X   $ B i o . $ B m.7. . ... . . .{  .6.l.v.v.y.E *.T.B.R.X.W ! ! W ( ! ! ",
"! I.E.E.I.! Q.! ! E.I.O.O.I.V.X.R.7.:.P ( K K K K K K K K K K K K K >.(. X X^.>.~ K > O .             . + K  ... . . . . ...8.l.v.[.d.u.E ,.T.R._ ( W ( ^ I.Q.( ",
"! E.E.E.K C.T.! ( I._ ] R.E.C.3.l.j.r.:.*.~ K K ! K K K K K K K K J ~ G.(.Z /.N d L < = +               X 7  ... . . . . . .4.f.v.v.v.s.u.:.H.` ) ( T.Q.Q.R.W.W ",
"I.E.R.E.C.C.! W I.I.( I.R.R.~ 4.k.c.z.h.:.~ K K K K K K K K K K K K ! ~ %.t.oXoXN *.K K > +             O 7 } 2. . . . . . .2.a.z.z.v.z.v.u.;.*.~ W.W.W.Q.R.K.! ",
"T.I.E.R.R.! ! _ Q._ _ E.T.~ $.R v.[.[.v.e.) P K K K K K K ~ K K K K K J K d N oXN m d $.K = O O X X     O 7  ... . . . ... .2.p.r.h.z.z.v.v.u.E $.W.W.W.R.Q.( W ",
"! ! E.T.I.! W ] Q.O._ I.~ Y k.z.v.v.[.j.e.) K K K P K K K K K ~ K K K K K I :.n A oXN :.K < < > > - X   O 7  ... . . . . ...2.-.w.w.r.z.v.v.x.u.;.R.K.m.R.I._ ~ ",
"! I.E.T.! ^ ` R.W.O.] ! w v.v.v.v.r.v.R e.~ ( K K K K K K K K P K K K K K K J $.N oXoX^.&.~ K K K 7 + X + 7  ... . . . . . .6.-.E E i.h.v.v.x.v.y.E U.7.A.] E.~ ",
"! E.I.! _ +.I.Q.W.] ` y.x.v.z.v.v.U h.g.:.L K K K K K K K K K K K K K K K K K ~ d N S oX'.^.~ H P K 2 * - P  ... . . . . . .4.a.x.u.y.r.r.v.c.c.v.u.:.4.7.=.E.$.",
"! E.R._ ' W.E.E.] ) a.y.v.v.v.v.g.E u.h.-.P K K K K K ~ K K ! K K K K K K K K K L $./.#X$X'.,.K K K K 7 ~ )  . . . . . . . .2.f.v.x.s.w.q.E v.q.v.v.p.R R *.W.U ",
"! Q.I.o.R.W.W.B.` L E z.v.x.v.v.E y.u.y.-.I P K K K K K K K K K K P K K K K K K H K 1.|.#XOX/.1./ K H J P }  . . . . . . . .2.5.y.x.v.y.q.T g.z.v.v.u.v.R R E.U ",
"E.E.C.E.Q.W.K.m.=.u.E v.v.v.v.E u.u.y.q.E Y I L K K K K K K K K K K K K K K K K K K %.1./.OX#X|.1.K H J P  . . . . . . . . .2.I U ;.z.x.u.w.E x.h.v.v.c.c.-.E.P ",
"R.C.B.Q.R.W.n.7.d.d.E v.v.v.v.u.d.d.q.E T T Y L K K K K K K K K ~ K K K K K P K K K K J &.'.$X#X/.<.>.1.,.3. . . . . . . . .) 7 q e E x.d.y.q.E R v.v.v.v.5.R.W ",
"Q.m.O.Q.W.A.] a.s.E w.v.v.v.c.u.d.a.q.T U q R L K K K K K K K K K ~ K K ! K K K K K K H ~ t.'.].'.|. X-X XJ...{  . . . .} ..L -.6 6 e R y.u.y.q.E T v.w.c.5.E.W ",
"R._ P.R.W.] _ d.s.E v.v.v.v.E u.c.d.q.T q R U J K K K K ~ K K K K K K K K K K K K K K K ~ ~ =./.#X,X<X1X>X{...{  . . . . . .2.-.6 2 q U E y.s.u.q.E v.R a.6.H.W ",
"m._ I.W.W.] W y.d.E v.v.v.c.c.c.c.u.q.T 6 E > 7 K K K K K K K K K K K K K K K K K K K K K H K V $X&X=X=X>X{.2.{  . . . . ...} R I q I R E y.u.u.x.v.v.q.f.8.o.] ",
"W W V.W.n.] ! ! d.E v.v.x.q.v.v.q.q.R T R E - J K K K K K K K K K K K K K K K K K K K K K H K ^.$X&X*X*X:X`.2... . . . . . .{ -.R E w.y.u.u.y.y.h.v.v.E f.8.E.C.",
"W ! ] I.O.' ! ! d.E v.g.d.u.v.v.E T T U E E > < K K K K K P K K K K K K K K K K K K K K K H ~ t.+X;X,X;X@X).2.{  . . . . . .P R E ;.d.d.d.u.q.w.u.v.v.E f.Y.W.I.",
"J ( ] O.] _ ! ] d.E v.g.u.u.c.c.T T U q T E > > 8 L K K K K K K K K P ! K K ~ K K K K K K K K <./.'.|.|.`.8...{  ... . . . .( -.U q.d.d.d.d.y.p.5.c.E E 6.H.W.I.",
"W _ +.] ( W ( X.Q.;.;.i.~ d.T.g.T e 6 2 E E = = U L K K K K K K K K K ~ K K K ! K K K K K K K ~ =.&.8.8.7.2... . . . . . . .~ Y 6 T y.d.d.d.d.a.v.[.E E ` I.W.Z.",
"_ B.X.( ! ! ( X.R.;.;.i.w.w.y.e.T e 3 T E T = = U L J K K K K K K P K K K K K K K K K K K ( K K H J ( {  .{  . . . .} { ) 3.P Y 6 e R y.s.d.d.v.v.-.-.E ] W.W.n.",
"R.C.] ( W ! ! _ I.8.Q.f.w.i.u.u.E E T E E U * = U I 7 L K K K K K K K K K K K K K K K K K K P K K P ! {  . . . . . . .{ P I I q 3 3 q T y.s.d.q.;.R R.8.I.W.W.V.",
"Q.C.X.` ( ! R.( _ _ Q.I.Q.[.k.e.E E R = E U = = U I 7 K K K K K K K K K K K K K K K K K K K 7 7 K ( (  . . . . . ...9.9.) 6 e e q 2 3 e E q.q.E ;.R.R.R.W.W.W.n.",
"Q.K.B.O._ I.R.! W ( _ I.Q.Q.W.f.p.;.T = 2 - = = 6 6 < J K K K K K K K K K K K K K K K ~ 7 > * - J P  . . . . .{  .0.3X4XY.w e T e 6 6 2 R.R ;.E R.E.T.R.E.Q.W.n.",
"Q.Q.K.A.I.R.I.P W ( _ _ K.Q.E.+.5.y.a.> - H.R = = = - > 7 K K K ! K K K ~ P K K K K ~ P 7 * X O 8  . . . . . .{ 2.2X6XqX3X*.e T T - 2 3 E.E [.R.R.E.! _ ] R.W.n.",
"R.W.W.W.Q.R.C.R.C.R.I.! _ Q.Q.T.( ~ d.R.K.Q.3 R = = = - < 7 K K K K K K K K K K K K K P 7 ; o @ u `  . . . .3.0.2X6XqXwX4X=.e e 2 > 2 H.E.;.Q.A.E.R.K W _ ] Z.n.",
"Q.R.W.R.R.I.C.T.C.E.R.W ^ R.Q.Q.T.T.H.R.R.Q.; B.= = - = > > 7 K K K K K K K K K K K K K y : r p s g %... .{ 9.3X8XqX0X0X.Xu 3 - 3 R 3 Q.Q.E.I.E.R.T.W K ! _ ] X.",
"R.W.I.I.O.] ! ^ ! R.I.! ! ( Q.Q.Q.T.C.( R.R.T.M.= = = = = = > y K K K K K K K K K K K ~ ~ u f f f g g  .`  .0.4XqXwX0X5XJ.5 = - 3 = 3 E.R.X.C.I.( T.I.! W ( ( _ ",
"W.W.n.n.] T.C._ o.A.R.T.R.Q.W.Q.Q.W ! ! C.C.W.R.W.< = = = = > 1 , > < K K K K K K ' ~ %.,.g S.f f g g s %.>.,..X5X5XXXJ.%.4 = 5 5 - R.E.R.O.V.( _ I.R.I.! ! W ! ",
"W.W.O.] I.Q.Q.A.R.Q.P.I.I.W.W.W.Q.W.! ! A.A.W.W.W.Z.W ; ^ , t = > P.X.+.! ~ K K +.m.u ,.h D.F.f f f f b.f g f G._.J.T.y R.> > 3 -.I.Q.Q.Q.O.^ W ] I.] E.! ! ! ! ",
"W.W.] _ W.W.I.K.R.Q.T.( C.W.W.W.W.Q.! ! R.R.R.W.W.W._ M.R.W.R.= = Q.R.C._ ! u 7.P.H.D.<.D.L.K.D.S.f L.A.,.f S.f H.K.K.- R.Y R ^ ' W.Q.Q.W.] _ _ O.Q.I.R.I.! ! ! ",
"W.Q.' _ Q.Q.A.W.W.W.m.( W Q.W.W.Q.W.R.^ I.W.I.Q.W.W.A.W.! R.R.W.W.Q.Q.A., / K.K.K.T.F.K.F.K.K.K.f C.K.K.f D.D.K.K.K.M.] C.! W ( W.W.W.Q.A.] _ _ O.W.W.I.I.I.T.! ",
"K.W.] O.K.W.W.W.Q.C.] _ ( R.W.W.R.Q.W.m.[ Q.T.! W.W.K.W.' W.R.W.W.Q.Q.W.W.R.R.I.R.P.P.B.t R.I.[ I.I.R.I.^ C.M.R.I.I.A.] ] X.I.R.W.W.W.K.I.B._ ! ] W.W.W.I.E.E.J ",
"] _ _ ] R.W.R.Q.Q.O._ ! ! R.R.Q.Q.Q.R.A.B.+.] ! A.W.W.W.B.R.A.Q.R.R.W.W.Q.R.I.R.m.m.B.A.I.Q.R.I.R.I.W.C.W.R.R.T.P.! m._ ] B.I.R.W.W.W.C.n.] B.! A.C.Q.R.I.! C.! ",
"( W _ I.W.W.Q.Q.I.A.! ! ^ A.R.W.Q.Q.W.R.P.C.o._ ^ W.W.W.B.C.B.B.W.K.W.W.Q.I.B.( ! R.^ ! A.Q.I.W.N.W.I.C.W.W.A.W.C.m.( _ C.B.T.Q.W.W.] _ B.! C.! C.W ! W K W P W ",
"W I.Q.R.E.R.E.Q.E.E.K K ! _ C.R.W.Q.R.Q.Q.I.B.o.] R.E.E.A.B.B.R.Q.Q.W.W.I.O.B.P E.I.! ! I.R.R.P.P.I.R._ Q.T.X.W.X._ _ | m.O.P.R.R.Q.! [ X.! C.( ] X.X.X._ _ ! J ",
"I.E.E.+.R.W.T.R.R.E.( W ( _ X.Q.B.T.W.Q.Q.I.P.B.B.C.R.R.B.o.R.Q.I.Q.W.W.O.V.! I.R.! ! _ P.R.P._ P.X.C._ W._ P.K.B.C.C.N.m.V._ I.Q.P.! m.m.! P.X.B.P.m.C.] _ ] W ",
"E.E.R.X.C.T.B.m.B.R.I.! ! ( ( _ B.B.K.Q.Q.Q.I.I.P.m._ R.M.R.Q.Q.Q.W.W.n.C.m.I.I.C.! ! m.P.I.( ( _ I.( W R.X.I.P.I.I.I.I.I.I._ R.A.C.( m.X.! P.R.I.I.O.E.X._ _ _ ",
"R.A.C.! _ _ C.! Z.! E.! ! ! W ! _ P.B.E.Q.Q.Q.I.T.m.] +.C.Q.R.I.I.Z.Z.O.P.I.I.! ! W ( B.! W ( T.I.E.! ! +.P.Q.R.I.I.I.V.V.X._ C.+.C.! m.m.! ! R.Q.Q.I.Q.V.X.] _ ",
"C.B.X._ ] o.] ` ( ! E.! W ! _ _ B.B.m.P.I.Q.Q.I.I.C.X.B.I.W.E.R.P.P.n.O.I.I._ I._ X.O.] _ ( ! E.E.I.K W C.E.Q.C.I.I.Q.I.O.] _ ] B.( O.O.+._ W ( I.Q.I.Q.C.Z.] ] ",
"K B._ X.m.B.R.] _ ! C.K ! I.m.B.( _ P.I.Q.Q.Q.Q.I.I.E.R.A.Q.E.R.P.Z.N.V.P.| I.I.X.C.I.P.N.W ! E.I.K W ! C.Q.Q.Q.E.Q.Q.X._ _ ! B._ ] P.A.I._ W ( ( Q.E.I.Q.Z.V.] ",
"W ! ` +.E.Q.W.+._ C.! ( X.E.+.! ( _ O.I.Q.P.Q.Q.I.Q.Q.V.V.E.R.R.P.Z.Z.Z.O.O.I.] V.A.I.m.N._ X.R.R.! ! ( E.E.Q.Q.Q.Q.Q._ _ W W ( _ B.Z.n.P._ _ W W C.I.X.E.E.I.I.",
"_ _ R.T.E.R.R.m.C.P.( B._ E.( ( _ ] O.I.P.I.I.Q.I.P.Q.V.V.E.P.R.P.P.V.I.] _ I.] P.n.V.m.m.Z.A.B.X._ _ X.E.R.O.Q.E.I.E.O.! W _ ( _ V.P.n.V.] ( _ { I.I.#.Q.I.I.I.",
"E.R.R.E.Q.E.C.E.Z.P.X.X.V.E._ _ m.X.O.] n.Q.A.Q.I.Z.Q.I.Z.Z.I.P.P.Z.V.Z.] Q I.P.A.V.A.V.P.I.] C.B.+.o.B.E.m.I.E.E.V.Q.B._ ! B.( ] P.W.V.V.] ] X.O.P.R.B.I.Q.I.I.",
"Q.E.E.Q.Q.Q.I.I.+.I._ C.I.E.O.O.W ( W ' C.I.I.Z.I.I.V.Q.V.P.Z.I.P.Z.n.I.] _ I.I.O.I.Z.B.B.T.C.+.C.P.P.O.C.C.E.Z.I.B.Q.A.+.! C.W ] I.V.Z.O.O.M.X.o.P.C.P.P.Q.P.Z.",
"Q.I.E.Q.E.I.E.R.I._ m.I.I.I.I.] ( W ! X.I.P.Q.V.N.Q.P.Q.V.V.I.W.Z.n.n.P.] _ W P.O.I.A.B.X.] P.B.P.T.T.B._ P.I.C.I.V.Q.I.X.! C.] B.I.P.Z.n.V.+.P.+.R.T.R.Z.I.n.n.",
"R.Q.Q.I.Q.O.E.P.X.m.P.I.V.Q.E.Z.X._ _ m.B.R.P.R.n.I.I.I.P.I.Z.I.Z.n.O.O.] O.O.Z.O.Z.V.+._ m.P.B.A.I.P.C.C.C.O.C.I.O.Q.B.B.! H.C.A.Z.B.I.B.I.m.C.P.P.P.P.V.n.O.O.",
"P.Q.Q.A.I.R.R.P.+.m.] V.P.I.I.I.m.Z.+.W A.I.M.Q.n.P.E.R.V.P.Z.I.Z.O.] ] O.C.V.I.O.Z.C.B.( _ A.C.C.Z.I.Z.V.I.O.O.M.m.Q.m.C._ A.A.P.X.C.T.m.Z.m._ m.I.P.V.n.O.] ] ",
"I.Q.Z.Z.P.I.P.+.V._ ] O.P.Q.I.Q.P.I.B._ A.I.M.R.B.C.I.I.V.N.P.P.I.O.] _ A.Z.n.] M.A.A.! W ( C.V.m.Z.P.I.I.I.+.X.B.O.R.! C.A.m.A.A._ A.B.B.! m.] B.Z.n.n.O.] _ _ ",
"I.P.P.P._ X.A.! +._ ] O.V.Q.I.I.R.P.O.O.A.I.I.I.V.B.C.P.n.V.I.V.I.B.O._ X.n.n.n.A._ I.! W ( _ P.O.P.P.I.R.I.B.O.M.C.A.! R.T.] B.B._ B.X.B.m.B.m.X.O.n.n.] _ W W ",
"n.n.P.V._ C.+.! ! ( ] O.n.Q.I.V.P.I.P.P._ R.I.Z.V.O.( ! I.V.I.n.I.m.m._ ] n.n.C.I.W K ! W ( _ I.n.I.P.I.E.I.P.U.A.R.+.! I.B.C.T.m.B.P.m.P.R.B._ ] O.n.O.] W W W "
};
