/* XPM */
static char *result[] = {
/* columns rows colors chars-per-pixel */
"80 80 199 2 ",
"   c #010102",
".  c #03040C",
"X  c #040B08",
"o  c #05100B",
"O  c #040613",
"+  c #0A0714",
"@  c #0C0A16",
"#  c #070C1D",
"$  c #0D0C19",
"%  c #06061A",
"&  c #100D1B",
"*  c #061312",
"=  c #0B1415",
"-  c #0A1917",
";  c #121415",
":  c #13141E",
">  c #15181E",
",  c #1A1B1A",
"<  c #0C211B",
"1  c #3F2112",
"2  c #090D23",
"3  c #070D22",
"4  c #0C1125",
"5  c #0B122D",
"6  c #0C1B24",
"7  c #131422",
"8  c #191B25",
"9  c #11162D",
"0  c #15192A",
"q  c #191B2A",
"w  c #141925",
"e  c #030E33",
"r  c #061133",
"t  c #0D1533",
"y  c #0E1836",
"u  c #0E183A",
"i  c #0A163D",
"p  c #111633",
"a  c #121A34",
"s  c #111A3B",
"d  c #191D36",
"f  c #221F32",
"g  c #0D2220",
"h  c #1E222C",
"j  c #192126",
"k  c #15322D",
"l  c #1D2234",
"z  c #1D243E",
"x  c #1F2A3C",
"c  c #1A393A",
"v  c #242525",
"b  c #242826",
"n  c #22262A",
"m  c #222A2B",
"M  c #282C2D",
"N  c #27322E",
"B  c #222435",
"V  c #262C36",
"C  c #2A2C32",
"Z  c #21263A",
"A  c #23293A",
"S  c #312331",
"D  c #392B38",
"F  c #263235",
"G  c #293433",
"H  c #2D3934",
"J  c #2D373E",
"K  c #383436",
"L  c #323D3A",
"P  c #363939",
"I  c #422413",
"U  c #452916",
"Y  c #4A2A17",
"T  c #4C2D18",
"R  c #4D361C",
"E  c #53321B",
"W  c #5B361E",
"Q  c #4B2E2E",
"!  c #5E372D",
"~  c #402E3D",
"^  c #463638",
"/  c #53383B",
"(  c #643E21",
")  c #65392D",
"_  c #6A3A2C",
"`  c #613B37",
"'  c #6B3F35",
"]  c #1D423E",
"[  c #35413E",
"{  c #384035",
"}  c #5A411F",
"|  c #5C4823",
" . c #594636",
".. c #554135",
"X. c #4E5637",
"o. c #575A3B",
"O. c #504E2D",
"+. c #6B4323",
"@. c #7A4E28",
"#. c #7F442B",
"$. c #754634",
"%. c #6E5538",
"&. c #7A5A3B",
"*. c #63572B",
"=. c #5F6636",
"-. c #6D602D",
";. c #666B39",
":. c #786936",
">. c #757639",
",. c #071746",
"<. c #0C1945",
"1. c #091645",
"2. c #141F45",
"3. c #151F48",
"4. c #191E49",
"5. c #1A1E52",
"6. c #152045",
"7. c #1A2242",
"8. c #17214A",
"9. c #19244E",
"0. c #1F2A43",
"q. c #1A2652",
"w. c #1C2956",
"e. c #1C2A58",
"r. c #1F3453",
"t. c #232443",
"y. c #232B44",
"u. c #2C2D44",
"i. c #292742",
"p. c #312941",
"a. c #2B3344",
"s. c #323D43",
"d. c #3E3844",
"f. c #333244",
"g. c #483F44",
"h. c #1F4342",
"j. c #21424D",
"k. c #374341",
"l. c #394443",
"z. c #2A5C57",
"x. c #345F7C",
"c. c #2B4D6C",
"v. c #35726D",
"b. c #32686A",
"n. c #4E4244",
"m. c #5C4C43",
"M. c #524643",
"N. c #565B44",
"B. c #745A42",
"V. c #7B5E42",
"C. c #596140",
"Z. c #7D6242",
"A. c #7A7F40",
"S. c #6B7344",
"D. c #87492B",
"F. c #825329",
"G. c #925D2C",
"H. c #9A5A2C",
"J. c #884C31",
"K. c #815431",
"L. c #816139",
"P. c #9F6731",
"I. c #966E3A",
"U. c #97703A",
"Y. c #977036",
"T. c #A7783A",
"R. c #B47336",
"E. c #886742",
"W. c #946C40",
"Q. c #997341",
"!. c #977241",
"~. c #867D43",
"^. c #A57A41",
"/. c #3D817C",
"(. c #87853E",
"). c #9D873E",
"_. c #AB8A3C",
"`. c #C9923F",
"'. c #DDA33F",
"]. c #F0B63F",
"[. c #F8CC3F",
"{. c #888B42",
"}. c #979543",
"|. c #AC8F41",
" X c #BE8B40",
".X c #A39742",
"XX c #B8AE42",
"oX c #A7AA43",
"OX c #C19340",
"+X c #DABE41",
"@X c #E5B640",
"#X c #D9D142",
"$X c #F2DA41",
"%X c #499A96",
"&X c #4B9D98",
"*X c #478F98",
"=X c #52A6AE",
"-X c #57B7B2",
";X c None",
/* pixels */
";X;X;X;X;X;X;X;X;X;X;X;X;X;X;X;X;X;X;X;X;X;X;X;X;X;X;X;X;X;X;X;X;X;X;X;X;X;X;X;X;X;X;X;X;X;X;X;X;X;X;X;X;X;X;X;X;X;X;X;X;X;X;X;X;X;X;X;X;X;X;X;X;X;X;X;X;X;X;X;X",
";X;X;X;X;X;X;X;X;X;X;X;X;X;X;X;X;X;X;X;X;X;X;X;X;X;X;X;X;X;X;X;X;X;X;X;X;X;X;X;X;X;X;X;X;X;X;X;X;X;X;X;X;X;X;X;X;X;X;X;X;X;X;X;X;X;X;X;X;X;X;X;X;X;X;X;X;X;X;X;X",
";X;X;X;X;X;X;X;X;X;X;X;X;X;X;X;X;X;X;X;X;X;X;X;X;X;X;X;X;X;X;X;X;X;X;X;X;X;X;X;X;X;X;X;X;X;X;X;X;X;X;X;X;X;X;X;X;X;X;X;X;X;X;X;X;X;X;X;X;X;X;X;X;X;X;X;X;X;X;X;X",
";X;X;X;X;X;X;X;X;X;X;X;X;X;X;X;X;X;X;X;X;X;X;X;X;X;X;X;X;X;X;X;X;X;X;X;X;X;X;X;X;X;X;X;X;X;X;X;X;X;X;X;X;X;X;X;X;X;X;X;X;X;X;X;X;X;X;X;X;X;X;X;X;X;X;X;X;X;X;X;X",
";X;X;X;X;X;X;X;X;X;X;X;X;X;X;X;X;X;X;X;X;X;X;X;X;X;X;X;X;X;X;X;X;X;X;X;X;X;X;X;X;X;X;X;X;X;X;X;X;X;X;X;X;X;X;X;X;X;X;X;X;X;X;X;X;X;X;X;X;X;X;X;X;X;X;X;X;X;X;X;X",
";X;X;X;X;X;X;X;X;X;X;X;X;X;X;X;X;X;X;X;X;X;X;X;X;X;X;X;X;X;X;X;X;X;X;X;X3.8.w.e.w.e.e.w.q.9.2.2.2.2.2.3.2.3.2.;X;X;X;X;X;X;X;X;X;X;X;X;X;X;X;X;X;X;X;X;X;X;X;X;X",
";X;X;X;X;X;X;X;X;X;X;X;X;X;X;X;X;X;X;X;X;X;X;X;X;X;X;X;X;X;X;X;X;X;X;X3.3.q.q.w.w.w.w.w.q.8.6.2.2.2.2.2.2.2.3.;X;X;X;X;X;X;X;X;X;X;X;X;X;X;X;X;X;X;X;X;X;X;X;X;X",
";X;X;X;X;X;X;X;X;X;X;X;X;X;X;X;X;X;X;X;X;X;X;X;X;X;X;X;X;X;X;X;X9.w.q.9.q.q.w.e.e.w.q.9.8.6.2.2.6.2.s s s 2.;X;X;X;X;X;X;X;X;X;X;X;X;X;X;X;X;X;X;X;X;X;X;X;X;X;X",
";X;X;X;X;X;X;X;X;X;X;X;X;X;X;X;X;X;X;X;X;X;X;X;X;X;X;X;X;X;X6.6.8.q.w.w.w.w.w.w.w.w.9.8.2.2.2.2.2.2.a t t ;X;X;X;X;X;X;X;X;X;X;X;X;X;X;X;X;X;X;X;X;X;X;X;X;X;X;X",
";X;X;X;X;X;X;X;X;X;X;X;X;X;X;X;X;X;X;X;X;X;X;X;X;X;X;X;X;X3.8.9.q.w.e.e.e.w.q.q.q.9.8.6.2.2.2.2.s 2.y t ;X;X;X;X;X;X;X;X;X;X;X;X;X;X;X;X;X;X;X;X;X;X;X;X;X;X;X;X",
";X;X;X;X;X;X;X;X;X;X;X;X;X;X;X;X;X;X;X;X;X;X;X;X;X;X;X;X6.8.9.w.e.e.e.e.w.q.8.8.9.8.6.2.2.2.2.2.y y t t t ;X;X;X;X;X;X;XI I ;X;X;X;X;X;X;X;X;X;X;X;X;X;X;X;X;X;X",
";X;X;X;X;X;X;X;X;X;X;X;X;X;X;X;X;X;X;X;X;X;X;X;X;X;X;X;X2.8.8.8.9.9.9.9.8.8.6.2.6.<.6.2.2.2.2.s t t t t ;X;X;X;X;X;X;X;XY Y Y ;X;X;X;X;X;X;X;X;X;X;X;X;X;X;X;X;X",
";X;X;X;X;X;X;X;X;X;X;X;X;X;X;X;X;X;X;X;X;X;X;X;X;X;X;Xq.8.<.5 3 2 2 4 2 2 p 2.8.6.6.2.6.2.3.2.s y t t ;X;X;X;X;X;X;X;XY E E E U ;X;X;X;X;X;X;X;X;X;X;X;X;X;X;X;X",
";X;X;X;X;X;X;X;X;X;X;X;X;X;X;X;X;X;X;X;X;X;X;X;X;X;X;Xe.q.<.3 X         O 4 u 8.2.2.2.6.2.2.2.s p t ;X;X;X;X;X;X;X;XU E ( +.W Y I ;X;X;X;X;X;X;X;X;X;X;X;X;X;X;X",
";X;X;X;X;X;X;X;X;X;X;X;X;X;X;X;X;X;X;X;X;X;X;X;X;X;X;Xe.w.r.h.a.g   o k a.c t t u 2.8.2.2.2.s u t t ;X;X;X;X;X;X;XT E ( @.F.+.T I ;X;X;X;X;X;X;X;X;X;X;X;X;X;X;X",
";X;X;X;X;X;X;X;X;X;X;X;X;X;X;X;X;X;X;X;X;X;X;X;X;X;X;X5.e.x.*X&Xz.* k /.&Xb.6 O t 2.2.2.2.u a y t t ;X;X;XI 1 I Y E ( @.G.P.G.;X;X;X;X;X;X;X;X;X;X;X;X;X;X;X;X;X",
";X;X;X;X;X;X;X;X;X;X;X;X;X;X;X;X;X;X;X;X;X;X;X;X;X;X;X5.e.x.=X-Xb.- c %X-Xv.= . 4 2.3.2.2.y t t t a ;X;X} R T U U E +.F.P.R.;X;X;X;X;X;X;X;X;X;X;X;X;X;X;X;X;X;X",
";X;X;X;X;X;X;X;X;X;X;X;X;X;X;X;X;X;X;X;X;X;X;X;X;X;X;Xw.w.c.v.v.] o < z.v.] X . t 2.9.2.<.y t t t V C.{.A.-.| R U T W +.G.;X;X;X;X;X;X;X;X;X;X;X;X;X;X;X;X;X;X;X",
";X;X;X;X;X;X;X;X;X;X;X;X;X;X;X;X;X;X;X;X;X;X;X;X;X;X;Xe.w.9.0 = X     * * X   . 5 2.4.2.s y t r p P ;.}.}.(.:.} U U Y R ;X;X;X;X;X;X;X;X;X;X;X;X;X;X;X;X;X;X;X;X",
";X;X;X;X;X;X;X;X;X;X;X;X;X;X;X;X;X;X;X;X;X;X;X;X;X;X;X;Xw.p .                   # t s s 2.y t r t K :.}._.}.(.*.R U U ;X;X;X;X;X;X;X;X;X;X;X;X;X;X;X;X;X;X;X;X;X",
";X;X;X;X;X;X;X;X;X;X;X;X;X;X;X;X;X;X;X;X;X;X;X;X;X;X;X;Xw.a .                     O 2 t y y t r t D K.R._.).{.;.O.O.;X;X;X;X;X;X;X;X;X;X;X;X;X;X;X;X;X;X;X;X;X;X",
";X;X;X;X;X;X;X;X;X;X;X;X;X;X;X;X;X;X;X;X;X;X;X;X;X;X;Xe.w.2.# .                   . % 5 t t t p f Q _ H.Y.(.A.;.;.=.;X;X;X;X;X;X;X;X;X;X;X;X;X;X;X;X;X;X;X;X;X;X",
";X;X;X;X;X;X;X;X;X;X;X;X;X;X;X;X;X;X;X;X;X;X;X;X;X;Xe.e.w.9.a 2 .           O O O % 2 5 t r p S ! _ ) )  .o.=.;.;.;X;X;X;X;X;X;X;X;X;X;X;X;X;X;X;X;X;X;X;X;X;X;X",
";X;X;X;X;X;X;X;X;X;X;X;X;X;X;X;X;X;X;X;X;X;X;X;X;Xw.w.w.w.w.q.6.2       . O 4 5 5 5 5 t t t n ! D.D.Q f l B H X.;.;X;X;X;X;X;X;X;X;X;X;X;X;X;X;X;X;X;X;X;X;X;X;X",
";X;X;X;X;X;X;X;X;X;X;X;X;X;X;X;X;X;X;X;X;X;X;X;Xe.w.w.w.w.e.e.q.a 3 O . O 3 5 t t t t t d K ..$.D.) S r r t l { O.X.;X;X;X;X;X;X;X;X;X;X;X;X;X;X;X;X;X;X;X;X;X;X",
";X;X;X;X;X;X;X;X;X;X;X;X;X;X;X;X;X;X;X;X;X;X;Xe.w.w.w.w.w.e.e.w.9.2.a t t t t t t t r r K &.U.&.Q S d t r 5 d l V V ;X;X;X;X;X;X;X;X;X;X;X;X;X;X;X;X;X;X;X;X;X;X",
";X;X;X;X;X;X;X;X;X;X;X;X;X;X;X;X;X;X;X;X;X;X;Xw.w.w.w.w.w.w.w.w.q.w.9.8.2.y u t t y a B  .U.T.%.B t t t t t t t y t ;X;X;X;X;X;X;X;X;X;X;X;X;X;X;X;X;X;X;X;X;X;X",
";X;X;X;X;X;X;X;X;X;X;X;X;X;X;X;X;X;X;X;X;X;Xw.w.w.w.w.e.w.q.q.8.9.9.9.9.2.2.2.u i 7.^ %.L.L.%.^ a r r t t t t t r t ;X;X;X;X;X;X;X;X;X;X;X;X;X;X;X;X;X;X;X;X;X;X",
";X;X;X;X;X;X;X;X;X;X;X;X;X;X;X;X;X;X;X;X;X;Xe.w.w.e.w.w.w.q.8.8.3.2.3.3.2.2.2.2.2.u.B.T.U. .B d y t t t t t t t 5 y ;X;X;X;X;X;X;X;X;X;X;X;X;X;X;X;X;X;X;X;X;X;X",
";X;X;X;X;X;X;X;X;X;X;X;X;X;X;X;X;X;X;X;X;X;Xe.w.w.w.w.q.q.9.8.2.2.2.2.2.2.<.<.t.d.m.E.W.&.K 5 r t t t t t t t t y y ;X;X;X;X;X;X;X;X;X;X;X;X;X;X;X;X;X;X;X;X;X;X",
";X;X;X;X;X;X;X;X;X;X;X;X;X;X;X;X;X;X;X;X;X;Xe.w.w.w.w.q.9.8.6.6.2.2.3.2.<.1.2.d.Z.Q.E.m.d.l r r t t t t t t t t y 5 ;X;X;X;X;X;X;X;X;X;X;X;X;X;X;X;X;X;X;X;X;X;X",
";X;X;X;X;X;X;X;X;X;X;X;X;X;X;X;X;X;X;X;X;X;Xe.w.w.w.w.9.6.2.2.2.2.2.7.y.u.y.u.m.!.T.B.u.2.u t t t t t t t y 5 t y p ;X;X;X;X;X;X;X;X;X;X;X;X;X;X;X;X;X;X;X;X;X;X",
";X;X;X;X;X;X;X;X;X;X;X;X;X;X;X;X;X;X;X;X;X;Xe.w.w.w.w.q.6.2.6.2.<.6.f.m.B.Z.B.V.V.B.g.7.1.u s y t t t t t t t t t t ;X;X;X;X;X;X;X;X;X;X;X;X;X;X;X;X;X;X;X;X;X;X",
";X;X;X;X;X;X;X;X;X;X;X;X;X;X;X;X;X;X;X;X;X;Xe.w.w.w.q.8.6.2.2.2.<.6.n.E. X`. X!.m.u.7.9.2.2.2.a y t t t t t t t t p ;X;X;X;X;X;X;X;X;X;X;X;X;X;X;X;X;X;X;X;X;X;X",
";X;X;X;X;X;X;X;X;X;X;X;X;X;X;X;X;X;X;X;X;X;Xe.w.w.w.q.9.6.2.2.6.<.6.n.^.'.].@X|.M.2.,.2.2.2.2.s t t t t t t t t t t ;X;X;X;X;X;X;X;X;X;X;X;X;X;X;X;X;X;X;X;X;X;X",
";X;X;X;X;X;X;X;X;X;X;X;X;X;X;X;X;X;X;X;X;X;Xe.w.w.e.w.9.8.2.2.2.<.6.n.^.'.[.$XXXN.2.,.2.2.3.2.s y t t t t t t t t p ;X;X;X;X;X;X;X;X;X;X;X;X;X;X;X;X;X;X;X;X;X;X",
";X;X;X;X;X;X;X;X;X;X;X;X;X;X;X;X;X;X;X;X;X;Xe.w.w.w.w.9.8.2.2.2.4.i.g.W.OX#X#XoXN.3.<.2.2.2.2.u y t t t t t t t p t ;X;X;X;X;X;X;X;X;X;X;X;X;X;X;X;X;X;X;X;X;X;X",
";X;X;X;X;X;X;X;X;X;X;X;X;X;X;X;X;X;X;X;X;X;Xe.w.w.w.w.9.6.6.<.0.~ ` $.B.Z.~.{.S.l.2.2.2.2.2.2.2.s s t t t t t t t t ;X;X;X;X;X;X;X;X;X;X;X;X;X;X;X;X;X;X;X;X;X;X",
";X;X;X;X;X;X;X;X;X;X;X;X;X;X;X;X;X;X;X;X;X;Xe.w.w.w.w.9.6.<.<.t.` J.J./ u.a.f.y.0.2.2.2.6.2.2.2.2.2.t t t t t t t t ;X;X;X;X;X;X;X;X;X;X;X;X;X;X;X;X;X;X;X;X;X;X",
";X;X;X;X;X;X;X;X;X;X;X;X;X;X;X;X;X;X;X;X;X;Xe.w.w.w.w.9.8.6.6.0./ D.' p.3.1.<.<.2.2.2.2.6.2.2.8.2.2.s y y t t t y p ;X;X;X;X;X;X;X;X;X;X;X;X;X;X;X;X;X;X;X;X;X;X",
";X;X;X;X;X;X;X;X;X;X;X;X;X;X;X;X;X;X;X;X;X;Xe.w.e.w.w.9.8.2.2.7.p.~ D t.2.<.<.2.2.2.2.2.2.2.6.2.2.2.2.u u t t t 5 p ;X;X;X;X;X;X;X;X;X;X;X;X;X;X;X;X;X;X;X;X;X;X",
";X;X;X;X;X;X;X;X;X;X;X;X;X;X;X;X;X;X;X;X;X;Xe.w.w.w.q.9.6.2.2.2.4.2.7.4.2.2.2.2.2.2.2.2.6.2.2.2.6.2.6.2.a t t t y ;X;X;X;X;X;X;X;X;X;X;X;X;X;X;X;X;X;X;X;X;X;X;X",
";X;X;X;X;X;X;X;X;X;X;X;X;X;X;X;X;X;X;X;X;X;Xe.w.w.w.w.9.2.2.2.2.<.2.2.z Z z 6.2.2.2.2.2.2.2.2.2.2.2.3.2.2.t t t y ;X;X;X;X;X;X;X;X;X;X;X;X;X;X;X;X;X;X;X;X;X;X;X",
";X;X;X;X;X;X;X;X;X;X;X;X;X;X;X;X;X;X;X;X;X;Xe.w.w.w.q.q.8.2.2.2.3.2.z V C Z 7.2.3.2.2.2.6.2.3.6.6.2.6.2.s t t t 5 y ;X;X;X;X;X;X;X;X;X;X;X;X;X;X;X;X;X;X;X;X;X;X",
";X;X;X;X;X;X;X;X;X;X;X;X;X;X;X;X;X;X;X;X;X;Xe.w.w.w.w.9.6.2.2.2.2.2.7.C C A 2.2.2.2.2.6.2.2.2.2.2.2.2.2.s t t t t t ;X;X;X;X;X;X;X;X;X;X;X;X;X;X;X;X;X;X;X;X;X;X",
";X;X;X;X;X;X;X;X;X;X;X;X;X;X;X;X;X;X;X;X;X;Xe.w.w.w.w.8.6.2.6.2.3.2.d V C A 7.2.6.2.2.2.2.6.6.2.2.6.2.2.2.t t t t t y ;X;X;X;X;X;X;X;X;X;X;X;X;X;X;X;X;X;X;X;X;X",
";X;X;X;X;X;X;X;X;X;X;X;X;X;X;X;X;X;X;X;X;X;Xe.w.w.w.w.9.8.2.6.2.2.7.z M C B 2.2.2.6.2.6.2.2.2.2.6.2.2.2.s y t t t t t t ;X;X;X;X;X;X;X;X;X;X;X;X;X;X;X;X;X;X;X;X",
";X;X;X;X;X;X;X;X;X;X;X;X;X;X;X;X;X;X;X;X;X;Xe.e.w.w.w.9.2.2.6.6.7.z B v v d 2.4.3.2.2.2.2.6.6.2.2.2.2.2.a y t t t t t t ;X;X;X;X;X;X;X;X;X;X;X;X;X;X;X;X;X;X;X;X",
";X;X;X;X;X;X;X;X;X;X;X;X;X;X;X;X;X;X;X;X;X;Xe.w.w.w.w.9.6.2.<.6.A C v , > 0 s 6.6.<.2.2.2.6.6.<.2.2.2.2.s a t t t t t t ;X;X;X;X;X;X;X;X;X;X;X;X;X;X;X;X;X;X;X;X",
";X;X;X;X;X;X;X;X;X;X;X;X;X;X;X;X;X;X;X;X;X;Xe.w.w.w.w.9.6.2.6.7.A S v , = 4 d s 6.6.2.6.6.6.6.6.2.6.2.2.s y t t t t t t ;X;X;X;X;X;X;X;X;X;X;X;X;X;X;X;X;X;X;X;X",
";X;X;X;X;X;X;X;X;X;X;X;X;X;X;X;X;X;X;X;X;X;Xe.e.w.w.q.9.6.2.6.6.A C v , = ; : 9 s 6.6.6.2.2.6.6.6.2.2.2.s t t t t t t t ;X;X;X;X;X;X;X;X;X;X;X;X;X;X;X;X;X;X;X;X",
";X;X;X;X;X;X;X;X;X;X;X;X;X;X;X;X;X;X;X;X;X;Xe.e.e.w.w.9.7.<.2.7.A C v , ; ; : w a 6.6.6.<.6.6.6.2.2.2.2.s u t t t t t t ;X;X;X;X;X;X;X;X;X;X;X;X;X;X;X;X;X;X;X;X",
";X;X;X;X;X;X;X;X;X;X;X;X;X;X;X;X;X;X;X;X;X;Xe.w.w.w.w.9.7.2.2.6.A G M b j v j k z <.6.6.2.6.2.<.2.2.6.6.2.u u y t t t t ;X;X;X;X;X;X;X;X;X;X;X;X;X;X;X;X;X;X;X;X",
";X;X;X;X;X;X;X;X;X;X;X;X;X;X;X;X;X;X;X;X;X;Xe.w.w.w.w.9.6.2.2.6.A F N N F H { J 0.6.<.6.2.2.2.6.2.6.<.6.6.2.s a t t t p ;X;X;X;X;X;X;X;X;X;X;X;X;X;X;X;X;X;X;X;X",
";X;X;X;X;X;X;X;X;X;X;X;X;X;X;X;X;X;X;X;X;X;Xe.w.w.e.w.9.6.2.2.6.x F H H H k.k.s.a.0.7.6.2.6.2.6.2.2.2.2.2.2.s u t t t t ;X;X;X;X;X;X;X;X;X;X;X;X;X;X;X;X;X;X;X;X",
";X;X;X;X;X;X;X;X;X;X;X;X;X;X;X;X;X;X;X;X;X;Xe.w.w.w.q.9.6.2.2.6.V F G L [ k.k.k.k.s.0.7.2.2.2.2.6.2.6.2.6.2.2.y t t t t ;X;X;X;X;X;X;X;X;X;X;X;X;X;X;X;X;X;X;X;X",
";X;X;X;X;X;X;X;X;X;X;X;X;X;X;X;X;X;X;X;X;X;Xe.w.w.w.w.9.6.<.2.6.x F H [ [ k.L L L J y.7.6.<.6.2.3.2.2.2.2.2.2.s t t t p ;X;X;X;X;X;X;X;X;X;X;X;X;X;X;X;X;X;X;X;X",
";X;X;X;X;X;X;X;X;X;X;X;X;X;X;X;X;X;X;X;X;X;Xe.w.w.w.q.9.6.2.2.z x F H [ k.H M m n n z 7.6.6.2.2.2.2.2.2.2.2.2.y t t t t ;X;X;X;X;X;X;X;X;X;X;X;X;X;X;X;X;X;X;X;X",
";X;X;X;X;X;X;X;X;X;X;X;X;X;X;X;X;X;X;X;X;X;Xe.e.e.w.w.9.6.2.2.6.x F H [ L M w & : : d s 6.6.2.2.2.2.2.2.2.2.s y t t t t ;X;X;X;X;X;X;X;X;X;X;X;X;X;X;X;X;X;X;X;X",
";X;X;X;X;X;X;X;X;X;X;X;X;X;X;X;X;X;X;X;X;X;Xe.e.w.w.q.9.8.2.2.6.x F H G G 8 $ + + @ 4 y s 2.2.6.2.2.2.2.2.2.2.s t t t t ;X;X;X;X;X;X;X;X;X;X;X;X;X;X;X;X;X;X;X;X",
";X;X;X;X;X;X;X;X;X;X;X;X;X;X;X;X;X;X;X;X;X;Xe.w.e.w.w.9.6.2.2.6.x F m v w : @ + @ @ $ 4 p s 2.6.2.2.2.2.2.2.2.y t t t p ;X;X;X;X;X;X;X;X;X;X;X;X;X;X;X;X;X;X;X;X",
";X;X;X;X;X;X;X;X;X;X;X;X;X;X;X;X;X;X;X;X;X;Xe.w.w.w.w.8.6.2.2.7.A F m > @ + @ @ @ @ @ @ 7 a 6.6.2.6.2.6.2.2.s a t t t t ;X;X;X;X;X;X;X;X;X;X;X;X;X;X;X;X;X;X;X;X",
";X;X;X;X;X;X;X;X;X;X;X;X;X;X;X;X;X;X;X;X;X;Xe.w.w.q.8.8.6.7.x x F F m : @ + @ @ @ @ + @ 7 l x 7.6.2.2.2.2.2.2.t t t t t ;X;X;X;X;X;X;X;X;X;X;X;X;X;X;X;X;X;X;X;X",
";X;X;X;X;X;X;X;X;X;X;X;X;X;X;X;X;X;X;X;X;X;Xe.w.q.8.8.2.6.7.x F H G m > @ @ @ $ @ @ @ @ > h V x 7.2.2.8.2.2.2.a t t t t ;X;X;X;X;X;X;X;X;X;X;X;X;X;X;X;X;X;X;X;X",
";X;X;X;X;X;X;X;X;X;X;X;X;X;X;X;X;X;X;X;X;X;Xe.w.q.9.2.2.2.z F F H N m > @ + @ @ $ @ + $ > m G x 7.6.6.6.6.2.u u t t y p ;X;X;X;X;X;X;X;X;X;X;X;X;X;X;X;X;X;X;X;X",
";X;X;X;X;X;X;X;X;X;X;X;X;X;X;X;X;X;X;X;X;X;Xe.w.q.8.2.2.2.7.c G H G m > $ + @ @ @ @ @ @ > m N x 6.6.6.<.6.2.2.a t t t t ;X;X;X;X;X;X;X;X;X;X;X;X;X;X;X;X;X;X;X;X",
";X;X;X;X;X;X;X;X;X;X;X;X;X;X;X;X;X;X;X;X;X;X;Xw.9.8.6.2.6.7.V F H F m 7 $ @ @ @ @ @ @ @ > h F A 7.6.6.6.6.6.s u t 5 t t ;X;X;X;X;X;X;X;X;X;X;X;X;X;X;X;X;X;X;X;X",
";X;X;X;X;X;X;X;X;X;X;X;X;X;X;X;X;X;X;X;X;X;X;X;X9.8.6.2.6.7.V V F V h 7 + @ @ $ @ @ @ @ > B V A x 6.6.2.8.6.s u t t t t ;X;X;X;X;X;X;X;X;X;X;X;X;X;X;X;X;X;X;X;X",
";X;X;X;X;X;X;X;X;X;X;X;X;X;X;X;X;X;X;X;X;X;X;X;X;X3.2.6.2.z z A A V q 7 $ @ $ + @ @ @ @ : h B A Z z 7.6.2.2.s a t t t p ;X;X;X;X;X;X;X;X;X;X;X;X;X;X;X;X;X;X;X;X",
";X;X;X;X;X;X;X;X;X;X;X;X;X;X;X;X;X;X;X;X;X;X;X;X;X6.2.2.6.6.z x B l q : @ + @ $ @ @ $ @ : 0 l Z Z Z 7.7.6.2.2.u t t t t ;X;X;X;X;X;X;X;X;X;X;X;X;X;X;X;X;X;X;X;X",
";X;X;X;X;X;X;X;X;X;X;X;X;X;X;X;X;X;X;X;X;X;X;X;X;X2.2.2.2.7.Z B h 7 : $ @ $ @ @ @ $ @ @ $ : 7 q B A Z z z 2.2.t t t t t ;X;X;X;X;X;X;X;X;X;X;X;X;X;X;X;X;X;X;X;X",
";X;X;X;X;X;X;X;X;X;X;X;X;X;X;X;X;X;X;X;X;X;X;X;X;X2.6.2.2.7.z B q $ + @ $ + $ + @ @ @ @ + @ $ q B A B z z 2.2.y t t t t ;X;X;X;X;X;X;X;X;X;X;X;X;X;X;X;X;X;X;X;X",
";X;X;X;X;X;X;X;X;X;X;X;X;X;X;X;X;X;X;X;X;X;X;X;X;X;X3.3.2.2.Z B 8 $ + @ @ @ @ $ @ $ @ @ @ @ & 0 B A A Z z a u u t t t t ;X;X;X;X;X;X;X;X;X;X;X;X;X;X;X;X;X;X;X;X",
";X;X;X;X;X;X;X;X;X;X;X;X;X;X;X;X;X;X;X;X;X;X;X;X;X;X;X2.2.7.t.B q $ @ @ @ $ @ $ @ @ @ @ @ + & q B A A B d a t t t t t t ;X;X;X;X;X;X;X;X;X;X;X;X;X;X;X;X;X;X;X;X",
";X;X;X;X;X;X;X;X;X;X;X;X;X;X;X;X;X;X;X;X;X;X;X;X;X;X;X7.2.7.z B q & + @ @ @ @ + @ @ @ $ + @ & q B A A Z d d a p t t t t ;X;X;X;X;X;X;X;X;X;X;X;X;X;X;X;X;X;X;X;X",
";X;X;X;X;X;X;X;X;X;X;X;X;X;X;X;X;X;X;X;X;X;X;X;X;XA Z 7.7.7.z Z B ;X;X;X;X;X;X$ @ $ @ @ + ;X;XB Z Z V Z Z l z ;X;Xt y t ;X;X;X;X;X;X;X;X;X;X;X;X;X;X;X;X;X;X;X;X",
";X;X;X;X;X;X;X;X;X;X;X;X;X;X;X;X;X;X;X;X;X;X;X;X;XZ Z z 2.7.Z Z ;X;X;X;X;X;X;X;X@ @ @ @ @ ;X;X;XA A A A A A A ;X;X;Xt t ;X;X;X;X;X;X;X;X;X;X;X;X;X;X;X;X;X;X;X;X",
";X;X;X;X;X;X;X;X;X;X;X;X;X;X;X;X;X;X;X;X;X;X;X;X;X;XZ 0.;X;X;X;X;X;X;X;X;X;X;X;X;X;X@ ;X;X;X;X;X;X;X;X;XC ;X;X;X;X;X;X;X;X;X;X;X;X;X;X;X;X;X;X;X;X;X;X;X;X;X;X;X",
";X;X;X;X;X;X;X;X;X;X;X;X;X;X;X;X;X;X;X;X;X;X;X;X;X;X;X;X;X;X;X;X;X;X;X;X;X;X;X;X;X;X;X;X;X;X;X;X;X;X;X;X;X;X;X;X;X;X;X;X;X;X;X;X;X;X;X;X;X;X;X;X;X;X;X;X;X;X;X;X",
";X;X;X;X;X;X;X;X;X;X;X;X;X;X;X;X;X;X;X;X;X;X;X;X;X;X;X;X;X;X;X;X;X;X;X;X;X;X;X;X;X;X;X;X;X;X;X;X;X;X;X;X;X;X;X;X;X;X;X;X;X;X;X;X;X;X;X;X;X;X;X;X;X;X;X;X;X;X;X;X"
};
