/* XPM */
static char *result[] = {
/* columns rows colors chars-per-pixel */
"80 80 197 2 ",
"   c #040202",
".  c #070807",
"X  c #070709",
"o  c #090A0D",
"O  c #0B120F",
"+  c #0B0C14",
"@  c #0C0F1A",
"#  c #090711",
"$  c #120F1A",
"%  c #0D1512",
"&  c #0D101D",
"*  c #0F1918",
"=  c #14121D",
"-  c #121C1C",
";  c #1C1D1D",
":  c #0E0F20",
">  c #0E1220",
",  c #141523",
"<  c #181722",
"1  c #171A26",
"2  c #1B1C24",
"3  c #121629",
"4  c #15182A",
"5  c #1D1E2C",
"6  c #0D1736",
"7  c #0E1836",
"8  c #151C36",
"9  c #1A1E35",
"0  c #161E3A",
"q  c #181F3B",
"w  c #131730",
"e  c #152723",
"r  c #142129",
"t  c #172333",
"y  c #1C2137",
"u  c #19213E",
"i  c #1C3531",
"p  c #1E353F",
"a  c #212222",
"s  c #22242C",
"d  c #262C2D",
"f  c #2A2B2B",
"g  c #232927",
"h  c #2C312F",
"j  c #232534",
"k  c #252A34",
"l  c #2B2D35",
"z  c #21263B",
"x  c #252B3C",
"c  c #292D3C",
"v  c #282435",
"b  c #362934",
"n  c #2C3536",
"m  c #2E3935",
"M  c #26303D",
"N  c #2A333A",
"B  c #203D3B",
"V  c #303134",
"C  c #303A37",
"Z  c #3B3539",
"A  c #343D3B",
"S  c #3D3637",
"D  c #422619",
"F  c #452A1B",
"G  c #4A2E1D",
"H  c #4C311E",
"J  c #46301E",
"K  c #50321E",
"L  c #4E3A23",
"P  c #4E3720",
"I  c #553621",
"U  c #5B3A23",
"Y  c #493638",
"T  c #5E3A31",
"R  c #543B3E",
"E  c #633F25",
"W  c #653C31",
"Q  c #613E3A",
"!  c #6A3D30",
"~  c #22423E",
"^  c #37423F",
"/  c #3A433C",
"(  c #594827",
")  c #59483A",
"_  c #594638",
"`  c #4D5439",
"'  c #585839",
"]  c #644127",
"[  c #6B4528",
"{  c #7E462F",
"}  c #794F2C",
"|  c #63582F",
" . c #6B4138",
".. c #744837",
"X. c #6E563B",
"o. c #7B5F3E",
"O. c #7A5739",
"+. c #5F6539",
"@. c #636B3B",
"#. c #686637",
"$. c #776939",
"%. c #6A713D",
"&. c #7E7839",
"*. c #131E46",
"=. c #111E48",
"-. c #172147",
";. c #1B2446",
":. c #1F2844",
">. c #162148",
",. c #1C2549",
"<. c #1F294E",
"1. c #1F2950",
"2. c #1F2452",
"3. c #222745",
"4. c #222942",
"5. c #2A2C46",
"6. c #372E42",
"7. c #2B3445",
"8. c #2B3443",
"9. c #313346",
"0. c #323B46",
"q. c #3D3541",
"w. c #222D56",
"e. c #232E59",
"r. c #202754",
"t. c #243754",
"y. c #403B46",
"u. c #433340",
"i. c #244546",
"p. c #364145",
"a. c #3A4542",
"s. c #2E5C57",
"d. c #355B77",
"f. c #2B4764",
"g. c #346765",
"h. c #38716D",
"j. c #396C75",
"k. c #4B4246",
"l. c #544645",
"z. c #5C4D45",
"x. c #524D46",
"c. c #575B46",
"v. c #735A44",
"b. c #785A43",
"n. c #5A6241",
"m. c #6C6E41",
"M. c #7C6244",
"N. c #797E42",
"B. c #6B7246",
"V. c #8B4C2E",
"C. c #86572E",
"Z. c #814A33",
"A. c #8C4E33",
"S. c #805534",
"D. c #915E31",
"F. c #995A30",
"G. c #80613C",
"H. c #9E6734",
"J. c #956E3D",
"K. c #827F3E",
"L. c #96703C",
"P. c #A7763A",
"I. c #B27338",
"U. c #876744",
"Y. c #936C42",
"T. c #987243",
"R. c #967143",
"E. c #857C45",
"W. c #A57A42",
"Q. c #A27743",
"!. c #3F807B",
"~. c #AA893E",
"^. c #868441",
"/. c #878944",
"(. c #8A8841",
"). c #9C8640",
"_. c #939345",
"`. c #999546",
"'. c #AB8E43",
"]. c #BD8A42",
"[. c #A29644",
"{. c #B7AD44",
"}. c #A6A945",
"|. c #C49242",
" X c #DB9F41",
".X c #DDA441",
"XX c #D9BD43",
"oX c #E4B542",
"OX c #F0B541",
"+X c #D8D044",
"@X c #F8CB41",
"#X c #F2D943",
"$X c #4B9A95",
"%X c #498E97",
"&X c #53A5AD",
"*X c #58B6B1",
"=X c None",
/* pixels */
"=X=X=X=X=X=X=X=X=X=X=X=X=X=X=X=X=X=X=X=X=X=X=X=X=X=X=X=X=X=X=X=X=X=X=X=X=X=X=X=X=X=X=X=X=X=X=X=X=X=X=X=X=X=X=X=X=X=X=X=X=X=X=X=X=X=X=X=X=X=X=X=X=X=X=X=X=X=X=X=X",
"=X=X=X=X=X=X=X=X=X=X=X=X=X=X=X=X=X=X=X=X=X=X=X=X=X=X=X=X=X=X=X=X=X=X=X=X=X=X=X=X=X=X=X=X=X=X=X=X=X=X=X=X=X=X=X=X=X=X=X=X=X=X=X=X=X=X=X=X=X=X=X=X=X=X=X=X=X=X=X=X",
"=X=X=X=X=X=X=X=X=X=X=X=X=X=X=X=X=X=X=X=X=X=X=X=X=X=X=X=X=X=X=X=X=X=X=X=X=X=X=X=X=X=X=X=X=X=X=X=X=X=X=X=X=X=X=X=X=X=X=X=X=X=X=X=X=X=X=X=X=X=X=X=X=X=X=X=X=X=X=X=X",
"=X=X=X=X=X=X=X=X=X=X=X=X=X=X=X=X=X=X=X=X=X=X=X=X=X=X=X=X=X=X=X=X=X=X=X=X=X=X=X=X=X=X=X=X=X=X=X=X=X=X=X=X=X=X=X=X=X=X=X=X=X=X=X=X=X=X=X=X=X=X=X=X=X=X=X=X=X=X=X=X",
"=X=X=X=X=X=X=X=X=X=X=X=X=X=X=X=X=X=X=X=X=X=X=X=X=X=X=X=X=X=X=X=X=X=X=X=X=X=X=X=X=X=X=X=X=X=X=X=X=X=X=X=X=X=X=X=X=X=X=X=X=X=X=X=X=X=X=X=X=X=X=X=X=X=X=X=X=X=X=X=X",
"=X=X=X=X=X=X=X=X=X=X=X=X=X=X=X=X=X=X=X=X=X=X=X=X=X;.;.;.;.,.;.;.;.;.<.w.w.e.w.w.w.w.<.,.=X=X=X=X=X=X=X=X=X=X=X=X=X=X=X=X=X=X=X=X=X=X=X=X=X=X=X=X=X=X=X=X=X=X=X=X",
"=X=X=X=X=X=X=X=X=X=X=X=X=X=X=X=X=X=X=X=X=X=X=X=X=X;.,.;.;.;.;.;.;.;.,.1.w.w.e.w.e.w.1.<.<.=X=X=X=X=X=X=X=X=X=X=X=X=X=X=X=X=X=X=X=X=X=X=X=X=X=X=X=X=X=X=X=X=X=X=X",
"=X=X=X=X=X=X=X=X=X=X=X=X=X=X=X=X=X=X=X=X=X=X=X=X=X=X;.-.q -.;.;.,.;.,.<.<.w.w.e.e.w.1.1.1.1.1.1.=X=X=X=X=X=X=X=X=X=X=X=X=X=X=X=X=X=X=X=X=X=X=X=X=X=X=X=X=X=X=X=X",
"=X=X=X=X=X=X=X=X=X=X=X=X=X=X=X=X=X=X=X=X=X=X=X=X=X=X=X8 8 u -.;.;.;.;.,.,.w.w.w.w.w.w.w.e.w.1.1.,.;.=X=X=X=X=X=X=X=X=X=X=X=X=X=X=X=X=X=X=X=X=X=X=X=X=X=X=X=X=X=X",
"=X=X=X=X=X=X=X=X=X=X=X=X=X=X=X=X=X=X=X=X=X=X=X=X=X=X=X=X8 8 u ;.;.;.;.;.;.<.<.1.w.1.w.w.e.e.e.1.<.<.,.=X=X=X=X=X=X=X=X=X=X=X=X=X=X=X=X=X=X=X=X=X=X=X=X=X=X=X=X=X",
"=X=X=X=X=X=X=X=X=X=X=X=X=X=X=X=X=X=XF F =X=X=X=X=X=X=X8 8 8 8 u -.;.;.,.;.,.,.<.,.<.w.w.e.e.e.1.w.1.<.;.=X=X=X=X=X=X=X=X=X=X=X=X=X=X=X=X=X=X=X=X=X=X=X=X=X=X=X=X",
"=X=X=X=X=X=X=X=X=X=X=X=X=X=X=X=X=XG G G =X=X=X=X=X=X=X=X8 8 8 q 8 ;.,.;.;.,.;.;.,.,.,.,.<.<.<.<.<.,.,.,.=X=X=X=X=X=X=X=X=X=X=X=X=X=X=X=X=X=X=X=X=X=X=X=X=X=X=X=X",
"=X=X=X=X=X=X=X=X=X=X=X=X=X=X=X=XG I I I H =X=X=X=X=X=X=X=X8 8 8 u ;.;.;.;.;.;.,.,.;.0 3 > w 4 3 3 w ;.<.1.=X=X=X=X=X=X=X=X=X=X=X=X=X=X=X=X=X=X=X=X=X=X=X=X=X=X=X",
"=X=X=X=X=X=X=X=X=X=X=X=X=X=X=XF G U [ E I F =X=X=X=X=X=X=X=X8 8 u ;.;.;.;.,.;.3.,.u 3 % o o o . o , ;.1.e.=X=X=X=X=X=X=X=X=X=X=X=X=X=X=X=X=X=X=X=X=X=X=X=X=X=X=X",
"=X=X=X=X=X=X=X=X=X=X=X=X=X=X=XD H [ C.} E I P =X=X=X=X=X=X=X0 8 8 -.-.;.;.,.;.*.8 y 4.i.i * O e i.i.t.w.e.=X=X=X=X=X=X=X=X=X=X=X=X=X=X=X=X=X=X=X=X=X=X=X=X=X=X=X",
"=X=X=X=X=X=X=X=X=X=X=X=X=X=X=X=X=XD.H.D.} E I G F D D =X=X=X7 8 8 u u ;.;.,.;.8 : r g.$Xj.i * s.$X%Xd.e.2.=X=X=X=X=X=X=X=X=X=X=X=X=X=X=X=X=X=X=X=X=X=X=X=X=X=X=X",
"=X=X=X=X=X=X=X=X=X=X=X=X=X=X=X=X=X=XI.H.C.] I G J H L ( =X=Xy 8 8 8 9 -.>.,.;.w # - h.*X$X~ - g.*X&Xd.e.2.=X=X=X=X=X=X=X=X=X=X=X=X=X=X=X=X=X=X=X=X=X=X=X=X=X=X=X",
"=X=X=X=X=X=X=X=X=X=X=X=X=X=X=X=X=X=X=XD.[ U G G K ] #.&./.+.N 8 8 8 8 -.;.<.;.8 # O i.h.s.e % B h.j.f.e.r.=X=X=X=X=X=X=X=X=X=X=X=X=X=X=X=X=X=X=X=X=X=X=X=X=X=X=X",
"=X=X=X=X=X=X=X=X=X=X=X=X=X=X=X=X=X=X=X=XH G F G ( $.(.`._.m.A 8 8 8 8 ;.;.,.-.4 + . O * * . . O - t ,.w.e.=X=X=X=X=X=X=X=X=X=X=X=X=X=X=X=X=X=X=X=X=X=X=X=X=X=X=X",
"=X=X=X=X=X=X=X=X=X=X=X=X=X=X=X=X=X=X=X=X=XF J L | K.`.[.).$.Z 8 6 8 t u -.u 8 3 +                 + u w.=X=X=X=X=X=X=X=X=X=X=X=X=X=X=X=X=X=X=X=X=X=X=X=X=X=X=X=X",
"=X=X=X=X=X=X=X=X=X=X=X=X=X=X=X=X=X=X=X=X=X=X( ' #.(.`.~.P.Z.S w 6 8 8 q 8 3 + o .                 + y w.=X=X=X=X=X=X=X=X=X=X=X=X=X=X=X=X=X=X=X=X=X=X=X=X=X=X=X=X",
"=X=X=X=X=X=X=X=X=X=X=X=X=X=X=X=X=X=X=X=X=X=X+.+.%.N.^.L.F.{ Y v 9 8 0 8 8 > o X . X .         . o > ;.w.e.=X=X=X=X=X=X=X=X=X=X=X=X=X=X=X=X=X=X=X=X=X=X=X=X=X=X=X",
"=X=X=X=X=X=X=X=X=X=X=X=X=X=X=X=X=X=X=X=X=X=X=X@.@.c.' _ W ! ! T b 8 6 7 w 3 & & @ @ o       . + 3 u <.w.e.w.=X=X=X=X=X=X=X=X=X=X=X=X=X=X=X=X=X=X=X=X=X=X=X=X=X=X",
"=X=X=X=X=X=X=X=X=X=X=X=X=X=X=X=X=X=X=X=X=X=X=X+.` A v 5 v Y Z.V.W j 8 0 8 8 w 4 7 w @ X     o 4 ;.1.w.w.e.e.w.=X=X=X=X=X=X=X=X=X=X=X=X=X=X=X=X=X=X=X=X=X=X=X=X=X",
"=X=X=X=X=X=X=X=X=X=X=X=X=X=X=X=X=X=X=X=X=X=X` ` / z 8 6 7 b W Z..._ Z y 8 7 8 8 0 w 3 & + + > u w.e.e.e.e.w.w.w.=X=X=X=X=X=X=X=X=X=X=X=X=X=X=X=X=X=X=X=X=X=X=X=X",
"=X=X=X=X=X=X=X=X=X=X=X=X=X=X=X=X=X=X=X=X=X=Xn n k y 8 7 8 9 b Y O.J.o.Z 8 6 8 8 0 8 8 8 8 u ;.1.w.e.e.w.w.w.e.w.w.=X=X=X=X=X=X=X=X=X=X=X=X=X=X=X=X=X=X=X=X=X=X=X",
"=X=X=X=X=X=X=X=X=X=X=X=X=X=X=X=X=X=X=X=X=X=X8 8 8 8 8 8 8 8 8 l X.P.L._ c y 8 q 0 0 u ;.,.<.1.1.w.w.w.w.w.e.w.w.w.=X=X=X=X=X=X=X=X=X=X=X=X=X=X=X=X=X=X=X=X=X=X=X",
"=X=X=X=X=X=X=X=X=X=X=X=X=X=X=X=X=X=X=X=X=X=X8 8 8 8 8 8 8 8 7 u Y X.$.U.X.Y u *.0 u -.;.<.<.1.1.3.r.w.w.e.w.w.w.e.w.=X=X=X=X=X=X=X=X=X=X=X=X=X=X=X=X=X=X=X=X=X=X",
"=X=X=X=X=X=X=X=X=X=X=X=X=X=X=X=X=X=X=X=X=X=X8 8 8 8 8 8 8 8 8 8 9 l ) Y.W.v.5.;.-.;.;.,.,.,.,.,.,.<.1.e.w.w.w.w.w.e.=X=X=X=X=X=X=X=X=X=X=X=X=X=X=X=X=X=X=X=X=X=X",
"=X=X=X=X=X=X=X=X=X=X=X=X=X=X=X=X=X=X=X=X=X=X8 8 8 8 8 8 8 8 8 8 7 8 Z $.T.U.z.q.5.>.-.-.>.;.;.;.,.,.1.1.w.w.w.w.w.w.=X=X=X=X=X=X=X=X=X=X=X=X=X=X=X=X=X=X=X=X=X=X",
"=X=X=X=X=X=X=X=X=X=X=X=X=X=X=X=X=X=X=X=X=X=X8 8 8 8 8 8 8 8 8 8 7 8 z q.z.U.T.M.y.,.=.>.>.;.;.;.;.,.,.<.w.w.w.w.w.e.=X=X=X=X=X=X=X=X=X=X=X=X=X=X=X=X=X=X=X=X=X=X",
"=X=X=X=X=X=X=X=X=X=X=X=X=X=X=X=X=X=X=X=X=X=X8 8 8 8 8 8 8 8 8 8 8 0 q -.9.v.W.T.z.9.5.7.5.:.;.,.;.;.,.,.<.w.e.e.w.w.=X=X=X=X=X=X=X=X=X=X=X=X=X=X=X=X=X=X=X=X=X=X",
"=X=X=X=X=X=X=X=X=X=X=X=X=X=X=X=X=X=X=X=X=X=X8 8 8 8 8 8 q 8 8 8 0 q *.*.3.k.v.M.b.v.M.b.z.0.,.-.,.;.;.,.<.1.e.w.w.e.=X=X=X=X=X=X=X=X=X=X=X=X=X=X=X=X=X=X=X=X=X=X",
"=X=X=X=X=X=X=X=X=X=X=X=X=X=X=X=X=X=X=X=X=X=X8 8 8 q 8 8 8 8 8 8 q *.;.*.3.3.9.z.T.].|.].Y.k.,.>.;.;.;.,.<.w.w.e.w.w.=X=X=X=X=X=X=X=X=X=X=X=X=X=X=X=X=X=X=X=X=X=X",
"=X=X=X=X=X=X=X=X=X=X=X=X=X=X=X=X=X=X=X=X=X=X8 8 8 8 8 8 8 8 8 8 *.;.;.;.;.=.>.x.'.oXOX.XQ.l.2.=.;.;.;.,.<.w.w.w.w.w.=X=X=X=X=X=X=X=X=X=X=X=X=X=X=X=X=X=X=X=X=X=X",
"=X=X=X=X=X=X=X=X=X=X=X=X=X=X=X=X=X=X=X=X=X=X8 8 8 8 8 8 8 8 8 q z ;.,.;.;.=.,.c.{.#X@X.XQ.k.,.>.,.;.,.,.<.w.e.e.e.w.=X=X=X=X=X=X=X=X=X=X=X=X=X=X=X=X=X=X=X=X=X=X",
"=X=X=X=X=X=X=X=X=X=X=X=X=X=X=X=X=X=X=X=X=X=X8 q 8 8 8 8 8 8 8 8 u ;.,.;.*.*.3.c.}.+XXX].Y.l.5.,.;.;.;.,.<.w.w.w.w.w.=X=X=X=X=X=X=X=X=X=X=X=X=X=X=X=X=X=X=X=X=X=X",
"=X=X=X=X=X=X=X=X=X=X=X=X=X=X=X=X=X=X=X=X=X=X8 8 8 8 8 9 8 8 q u -.;.;.;.,.*.3.a.B./.E.M.b...Q u.3.>.;.,.1.1.w.e.w.e.=X=X=X=X=X=X=X=X=X=X=X=X=X=X=X=X=X=X=X=X=X=X",
"=X=X=X=X=X=X=X=X=X=X=X=X=X=X=X=X=X=X=X=X=X=X8 8 8 8 8 8 8 q -.;.;.;.;.,.;.;.,.r.9.0.9.9.R Z.A.Q 5.-.>.,.1.w.w.w.e.w.=X=X=X=X=X=X=X=X=X=X=X=X=X=X=X=X=X=X=X=X=X=X",
"=X=X=X=X=X=X=X=X=X=X=X=X=X=X=X=X=X=X=X=X=X=X8 8 8 8 8 8 q q ;.>.,.;.>.;.;.;.;.;.,.=.=.*.6.! { R 5.-.;.,.1.w.w.w.e.w.=X=X=X=X=X=X=X=X=X=X=X=X=X=X=X=X=X=X=X=X=X=X",
"=X=X=X=X=X=X=X=X=X=X=X=X=X=X=X=X=X=X=X=X=X=X8 8 8 8 8 u -.-.;.;.;.;.,.;.;.,.;.,.*.*.>.>.3.q.u.6.3.>.;.,.<.w.w.e.w.w.=X=X=X=X=X=X=X=X=X=X=X=X=X=X=X=X=X=X=X=X=X=X",
"=X=X=X=X=X=X=X=X=X=X=X=X=X=X=X=X=X=X=X=X=X=X=X8 8 8 q u -.:.;.;.;.;.,.;.;.,.;.;.;.,.;.3.3.;.;.,.,.;.;.,.<.w.w.w.e.w.=X=X=X=X=X=X=X=X=X=X=X=X=X=X=X=X=X=X=X=X=X=X",
"=X=X=X=X=X=X=X=X=X=X=X=X=X=X=X=X=X=X=X=X=X=X=X8 8 8 8 u ;.;.;.;.,.;.;.;.;.;.;.,.;.;.4.x 4.;.>.>.;.:.,.,.<.w.w.w.w.w.=X=X=X=X=X=X=X=X=X=X=X=X=X=X=X=X=X=X=X=X=X=X",
"=X=X=X=X=X=X=X=X=X=X=X=X=X=X=X=X=X=X=X=X=X=Xq 8 8 8 8 u ;.:.;.;.;.;.;.,.;.,.;.;.,.,.c l l 4.;.;.,.>.:.,.<.w.e.w.w.e.=X=X=X=X=X=X=X=X=X=X=X=X=X=X=X=X=X=X=X=X=X=X",
"=X=X=X=X=X=X=X=X=X=X=X=X=X=X=X=X=X=X=X=X=X=X8 8 8 8 9 u ;.,.,.;.;.,.;.,.;.;.;.;.,.;.c V l x ;.,.;.;.,.,.<.w.w.w.w.e.=X=X=X=X=X=X=X=X=X=X=X=X=X=X=X=X=X=X=X=X=X=X",
"=X=X=X=X=X=X=X=X=X=X=X=X=X=X=X=X=X=X=X=X=X8 8 8 8 8 8 -.-.,.;.;.;.;.;.,.,.;.,.;.;.3.c V l 4.,.>.,.;.;.,.:.w.w.w.w.w.=X=X=X=X=X=X=X=X=X=X=X=X=X=X=X=X=X=X=X=X=X=X",
"=X=X=X=X=X=X=X=X=X=X=X=X=X=X=X=X=X=X=X=X8 8 8 8 8 8 8 u -.;.;.,.;.;.,.;.;.;.;.,.>.:.k l l z ,.;.;.;.;.,.r.w.w.w.w.e.=X=X=X=X=X=X=X=X=X=X=X=X=X=X=X=X=X=X=X=X=X=X",
"=X=X=X=X=X=X=X=X=X=X=X=X=X=X=X=X=X=X=X=X8 8 8 8 8 8 q u ;.;.;.;.,.;.;.;.;.,.;.>.,.;.z s s l c 3.:.,.;.,.r.w.w.e.w.w.=X=X=X=X=X=X=X=X=X=X=X=X=X=X=X=X=X=X=X=X=X=X",
"=X=X=X=X=X=X=X=X=X=X=X=X=X=X=X=X=X=X=X=X8 8 8 8 8 9 8 -.;.;.;.,.,.;.,.;.;.;.;.;.;.u t ; a f l x ;.,.;.,.<.w.w.w.w.w.=X=X=X=X=X=X=X=X=X=X=X=X=X=X=X=X=X=X=X=X=X=X",
"=X=X=X=X=X=X=X=X=X=X=X=X=X=X=X=X=X=X=X=X8 8 8 8 8 8 8 u ;.>.;.;.>.;.;.;.,.,.;.;.u y < = ; f V c :.>.;.,.<.w.w.w.w.e.=X=X=X=X=X=X=X=X=X=X=X=X=X=X=X=X=X=X=X=X=X=X",
"=X=X=X=X=X=X=X=X=X=X=X=X=X=X=X=X=X=X=X=X8 8 8 8 8 8 8 u ;.;.;.;.;.;.;.,.;.,.;.u 5 1 = ; ; f V c ;.;.;.,.<.w.w.w.w.w.=X=X=X=X=X=X=X=X=X=X=X=X=X=X=X=X=X=X=X=X=X=X",
"=X=X=X=X=X=X=X=X=X=X=X=X=X=X=X=X=X=X=X=Xq 8 8 8 8 8 9 -.;.;.,.,.,.:.;.;.;.,.;.y r 2 ; ; a f n M :.-.,.,.<.w.e.w.e.w.=X=X=X=X=X=X=X=X=X=X=X=X=X=X=X=X=X=X=X=X=X=X",
"=X=X=X=X=X=X=X=X=X=X=X=X=X=X=X=X=X=X=X=X8 8 8 8 8 u u -.;.;.;.;.;.;.;.;.>.,.;.:.k f g g g h n 4.;.;.;.,.1.1.w.e.w.e.=X=X=X=X=X=X=X=X=X=X=X=X=X=X=X=X=X=X=X=X=X=X",
"=X=X=X=X=X=X=X=X=X=X=X=X=X=X=X=X=X=X=X=X8 8 8 8 y -.;.;.;.;.;.,.,.>.,.;.,.,.:.:.A A C m n m n x ;.;.;.,.1.w.w.e.w.w.=X=X=X=X=X=X=X=X=X=X=X=X=X=X=X=X=X=X=X=X=X=X",
"=X=X=X=X=X=X=X=X=X=X=X=X=X=X=X=X=X=X=X=X8 8 8 t 8 -.;.,.;.;.;.;.,.;.;.;.>.:.5.7.p.a.p.A m m N M :.;.;.,.1.w.w.w.e.w.=X=X=X=X=X=X=X=X=X=X=X=X=X=X=X=X=X=X=X=X=X=X",
"=X=X=X=X=X=X=X=X=X=X=X=X=X=X=X=X=X=X=X=X8 8 8 8 q ;.;.;.;.;.,.;.;.;.;.,.,.7.0.a.a.a.a.^ ^ m m M ;.;.,.,.<.w.w.w.w.w.=X=X=X=X=X=X=X=X=X=X=X=X=X=X=X=X=X=X=X=X=X=X",
"=X=X=X=X=X=X=X=X=X=X=X=X=X=X=X=X=X=X=X=X8 8 8 8 8 ;.;.,.;.;.;.;.;.,.;.,.;.8.A A A p./ / / A m :.;.>.,.,.<.w.w.w.e.w.=X=X=X=X=X=X=X=X=X=X=X=X=X=X=X=X=X=X=X=X=X=X",
"=X=X=X=X=X=X=X=X=X=X=X=X=X=X=X=X=X=X=X=X8 8 8 8 u -.;.,.,.;.,.,.;.;.;.,.;.x k k f n A p.a.A m x 3.;.;.,.<.w.w.e.e.w.=X=X=X=X=X=X=X=X=X=X=X=X=X=X=X=X=X=X=X=X=X=X",
"=X=X=X=X=X=X=X=X=X=X=X=X=X=X=X=X=X=X=X=X8 9 8 8 8 ;.;.,.;.;.;.;.;.,.,.;.;.9 2 = = 2 l 0.^ C n M ;.;.;.>.<.w.w.w.w.e.=X=X=X=X=X=X=X=X=X=X=X=X=X=X=X=X=X=X=X=X=X=X",
"=X=X=X=X=X=X=X=X=X=X=X=X=X=X=X=X=X=X=X=X8 8 8 8 8 u ;.;.>.,.;.,.,.;.-.u 9 4 = = $ = g n m m n 4.;.;.;.,.<.w.e.w.w.w.=X=X=X=X=X=X=X=X=X=X=X=X=X=X=X=X=X=X=X=X=X=X",
"=X=X=X=X=X=X=X=X=X=X=X=X=X=X=X=X=X=X=X=X8 8 8 8 u -.:.;.;.;.;.;.,.,.q 8 4 , = $ $ = < a e n N M :.;.;.,.<.w.e.w.e.w.=X=X=X=X=X=X=X=X=X=X=X=X=X=X=X=X=X=X=X=X=X=X",
"=X=X=X=X=X=X=X=X=X=X=X=X=X=X=X=X=X=X=X=X8 8 8 8 q -.;.;.,.;.,.;.;.;.y 4 = = = = = = = = r d n M :.;.;.,.<.w.w.w.w.w.=X=X=X=X=X=X=X=X=X=X=X=X=X=X=X=X=X=X=X=X=X=X",
"=X=X=X=X=X=X=X=X=X=X=X=X=X=X=X=X=X=X=X=X8 8 8 8 8 u ;.,.,.;.,.,.3.x j 2 = = = = = = = = a f n N M 4.:.,.,.<.w.w.w.e.=X=X=X=X=X=X=X=X=X=X=X=X=X=X=X=X=X=X=X=X=X=X",
"=X=X=X=X=X=X=X=X=X=X=X=X=X=X=X=X=X=X=X=X8 8 8 8 u -.;.,.;.;.;.:.4.n d 2 = = = = = = = = 2 k m m n M 4.;.;.;.,.w.w.e.=X=X=X=X=X=X=X=X=X=X=X=X=X=X=X=X=X=X=X=X=X=X",
"=X=X=X=X=X=X=X=X=X=X=X=X=X=X=X=X=X=X=X=X8 t 8 8 q ;.;.,.;.,.>.;.M n d 2 = = = = = = = = 2 d m m m n :.:.;.;.,.w.w.e.=X=X=X=X=X=X=X=X=X=X=X=X=X=X=X=X=X=X=X=X=X=X",
"=X=X=X=X=X=X=X=X=X=X=X=X=X=X=X=X=X=X=X=X8 8 8 8 q -.;.,.;.;.;.3.M n d e = = = = = = = = 2 d m m m N :.;.>.;.<.1.e.e.=X=X=X=X=X=X=X=X=X=X=X=X=X=X=X=X=X=X=X=X=X=X",
"=X=X=X=X=X=X=X=X=X=X=X=X=X=X=X=X=X=X=X=X8 8 8 8 8 -.:.;.;.;.;.;.8.N f 2 = $ = = = = = = 2 k m C n M :.;.;.;.,.1.e.=X=X=X=X=X=X=X=X=X=X=X=X=X=X=X=X=X=X=X=X=X=X=X",
"=X=X=X=X=X=X=X=X=X=X=X=X=X=X=X=X=X=X=X=X8 8 8 8 q -.;.;.;.;.4.4.c c k 2 = = = = = = = = 2 k l n N M :.;.,.,.,.1.=X=X=X=X=X=X=X=X=X=X=X=X=X=X=X=X=X=X=X=X=X=X=X=X",
"=X=X=X=X=X=X=X=X=X=X=X=X=X=X=X=X=X=X=X=Xq 8 9 8 9 -.;.,.,.4.x x c c j 1 = = = = = = = = 2 j c c c x 3.;.;.,.,.=X=X=X=X=X=X=X=X=X=X=X=X=X=X=X=X=X=X=X=X=X=X=X=X=X",
"=X=X=X=X=X=X=X=X=X=X=X=X=X=X=X=X=X=X=X=X8 8 8 8 q -.;.;.;.4.4.c x j 5 < = = = = = = = = 1 5 j v c 4.:.;.;.;.;.=X=X=X=X=X=X=X=X=X=X=X=X=X=X=X=X=X=X=X=X=X=X=X=X=X",
"=X=X=X=X=X=X=X=X=X=X=X=X=X=X=X=X=X=X=X=X8 8 8 8 q -.;.4.4.x c v j 2 < < = = = = = = = = = < 5 j k 4.;.;.;.;.;.=X=X=X=X=X=X=X=X=X=X=X=X=X=X=X=X=X=X=X=X=X=X=X=X=X",
"=X=X=X=X=X=X=X=X=X=X=X=X=X=X=X=X=X=X=X=X8 8 8 8 8 u ;.4.c c 5.k 5 < $ = = = = = = = = = = $ < 5 c 4.:.;.,.;.,.=X=X=X=X=X=X=X=X=X=X=X=X=X=X=X=X=X=X=X=X=X=X=X=X=X",
"=X=X=X=X=X=X=X=X=X=X=X=X=X=X=X=X=X=X=X=X8 8 8 8 8 q u z x c 5.k 5 < = = = = = = = = = = $ $ , 5 k x 3.;.,.>.=X=X=X=X=X=X=X=X=X=X=X=X=X=X=X=X=X=X=X=X=X=X=X=X=X=X",
"=X=X=X=X=X=X=X=X=X=X=X=X=X=X=X=X=X=X=X=X8 8 8 8 8 8 y u x c c c 5 = = $ = = = = = = = = = $ < 5 c 4.3.>.,.=X=X=X=X=X=X=X=X=X=X=X=X=X=X=X=X=X=X=X=X=X=X=X=X=X=X=X",
"=X=X=X=X=X=X=X=X=X=X=X=X=X=X=X=X=X=X=X=X8 8 8 8 q q y z x c c k j < = = = = = = = = = = = $ 1 j k 4.3.;.;.=X=X=X=X=X=X=X=X=X=X=X=X=X=X=X=X=X=X=X=X=X=X=X=X=X=X=X",
"=X=X=X=X=X=X=X=X=X=X=X=X=X=X=X=X=X=X=X=X8 8 8 =X=Xz k x c c c c j =X=X= = = = = = =X=X=X=X=X=Xk c x :.;.3.x c =X=X=X=X=X=X=X=X=X=X=X=X=X=X=X=X=X=X=X=X=X=X=X=X=X",
"=X=X=X=X=X=X=X=X=X=X=X=X=X=X=X=X=X=X=X=X8 8 =X=X=Xc c c c c c x =X=X=X= = = = < =X=X=X=X=X=X=X=Xc 4.3.;.4.x c =X=X=X=X=X=X=X=X=X=X=X=X=X=X=X=X=X=X=X=X=X=X=X=X=X",
"=X=X=X=X=X=X=X=X=X=X=X=X=X=X=X=X=X=X=X=X=X=X=X=X=X=X=Xc =X=X=X=X=X=X=X=X=X= =X=X=X=X=X=X=X=X=X=X=X=X=X=X4.x =X=X=X=X=X=X=X=X=X=X=X=X=X=X=X=X=X=X=X=X=X=X=X=X=X=X",
"=X=X=X=X=X=X=X=X=X=X=X=X=X=X=X=X=X=X=X=X=X=X=X=X=X=X=X=X=X=X=X=X=X=X=X=X=X=X=X=X=X=X=X=X=X=X=X=X=X=X=X=X=X=X=X=X=X=X=X=X=X=X=X=X=X=X=X=X=X=X=X=X=X=X=X=X=X=X=X=X",
"=X=X=X=X=X=X=X=X=X=X=X=X=X=X=X=X=X=X=X=X=X=X=X=X=X=X=X=X=X=X=X=X=X=X=X=X=X=X=X=X=X=X=X=X=X=X=X=X=X=X=X=X=X=X=X=X=X=X=X=X=X=X=X=X=X=X=X=X=X=X=X=X=X=X=X=X=X=X=X=X"
};
