/* XPM */
static char *result[] = {
/* columns rows colors chars-per-pixel */
"80 80 183 2 ",
"   c #040303",
".  c #090A0C",
"X  c #070708",
"o  c #0A0B14",
"O  c #0D0E19",
"+  c #0C1310",
"@  c #0F1817",
"#  c #0D101D",
"$  c #0F1A18",
"%  c #111D1C",
"&  c #12201F",
"*  c #0D0F20",
"=  c #0F1222",
"-  c #101425",
";  c #13182E",
":  c #12162A",
">  c #151C36",
",  c #161D3A",
"<  c #181F3B",
"1  c #131731",
"2  c #152425",
"3  c #18203E",
"4  c #192137",
"5  c #1C3633",
"6  c #1E3A37",
"7  c #1F3C39",
"8  c #3C2B2C",
"9  c #392829",
"0  c #2C2634",
"q  c #23253D",
"w  c #25293D",
"e  c #292839",
"r  c #392C34",
"t  c #44291A",
"y  c #4A2E1D",
"u  c #4F311D",
"i  c #51321D",
"p  c #492D21",
"a  c #4D3224",
"s  c #593826",
"d  c #45343F",
"f  c #4D3A38",
"g  c #53383D",
"h  c #593A34",
"j  c #613D23",
"k  c #733F2B",
"l  c #613F3C",
"z  c #21413C",
"x  c #4F4932",
"c  c #654E29",
"v  c #77422E",
"b  c #7C4E29",
"n  c #744A29",
"m  c #64493E",
"M  c #6C4837",
"N  c #7C4A36",
"B  c #7B4735",
"V  c #655D39",
"C  c #79553E",
"Z  c #5F653E",
"A  c #7D743A",
"S  c #7C6B37",
"D  c #121E46",
"F  c #111F48",
"G  c #162147",
"H  c #1B2447",
"J  c #162148",
"K  c #1B2549",
"L  c #1E284F",
"P  c #1E2846",
"I  c #1F3640",
"U  c #1F2A51",
"Y  c #1F2C58",
"T  c #152350",
"R  c #212644",
"E  c #252B45",
"W  c #2C2C44",
"Q  c #242C4B",
"!  c #282D4B",
"~  c #202748",
"^  c #332F4B",
"/  c #2C3244",
"(  c #2E354A",
")  c #27314E",
"_  c #333446",
"`  c #323943",
"'  c #343B4C",
"]  c #3E3644",
"[  c #222D56",
"{  c #222D58",
"}  c #2B2F53",
"|  c #2D3352",
" . c #333C55",
".. c #383651",
"X. c #333B61",
"o. c #463541",
"O. c #413B45",
"+. c #493847",
"@. c #543D46",
"#. c #234543",
"$. c #264C49",
"%. c #29524F",
"&. c #3B4354",
"*. c #3B435A",
"=. c #364159",
"-. c #2E5B57",
";. c #354065",
":. c #346866",
">. c #37706B",
",. c #3E7E7A",
"<. c #4F4545",
"1. c #464E40",
"2. c #514545",
"3. c #5F4F45",
"4. c #404859",
"5. c #545E54",
"6. c #644242",
"7. c #6F5944",
"8. c #675445",
"9. c #795E44",
"0. c #795F5C",
"q. c #7C6144",
"w. c #7C7C48",
"e. c #70795A",
"r. c #5F6A73",
"t. c #6A6C7A",
"y. c #855B2E",
"u. c #8E4F33",
"i. c #814D39",
"p. c #8A5B31",
"a. c #8A5E3A",
"s. c #886438",
"d. c #976333",
"f. c #9C6634",
"g. c #A26934",
"h. c #885343",
"j. c #866543",
"k. c #8D6B43",
"l. c #926E43",
"z. c #807E4E",
"x. c #9D7543",
"c. c #A6684E",
"v. c #A57B43",
"b. c #A97D42",
"n. c #9E7C74",
"m. c #95953F",
"M. c #97984A",
"N. c #939448",
"B. c #838B5F",
"V. c #8B905E",
"C. c #888643",
"Z. c #85896D",
"A. c #8F9361",
"S. c #969B71",
"D. c #CF9541",
"F. c #DE9E41",
"G. c #EEA840",
"H. c #535C86",
"J. c #757195",
"K. c #997E92",
"L. c #428782",
"P. c #48938E",
"I. c #4D9C98",
"U. c #7B8784",
"Y. c #55AFAA",
"T. c #5ABAB4",
"R. c #63CDC7",
"E. c #6BDFD8",
"W. c #889287",
"Q. c #888992",
"!. c #A58C99",
"~. c #9EA488",
"^. c #8B93A2",
"/. c #949EA3",
"(. c #969BBB",
"). c #9DA6B8",
"_. c #858EC2",
"`. c #939CD3",
"'. c #9EA3DA",
"]. c #A4A9CE",
"[. c #A5A5D7",
"{. c #ADB6E7",
"}. c None",
/* pixels */
"}.}.}.}.}.}.}.}.}.}.}.}.}.}.}.}.}.}.}.}.}.}.}.}.}.}.}.}.}.}.}.}.}.}.}.}.}.}.}.}.}.}.}.}.}.}.}.}.}.}.}.}.}.}.}.}.}.}.}.}.}.}.}.}.}.}.}.}.}.}.}.}.}.}.}.}.}.}.}.}.",
"}.}.}.}.}.}.}.}.}.}.}.}.}.}.}.}.}.}.}.}.}.}.}.}.}.}.}.}.}.}.}.}.}.}.}.}.}.}.}.}.}.}.}.}.}.}.}.}.}.}.}.}.}.}.}.}.}.}.}.}.}.}.}.}.}.}.}.}.}.}.}.}.}.}.}.}.}.}.}.}.",
"}.}.}.}.}.}.}.}.}.}.}.}.}.}.}.}.}.}.}.}.}.}.}.}.}.}.}.}.}.}.}.}.}.}.}.}.}.}.}.}.}.}.}.}.}.}.}.}.}.}.}.}.}.}.}.}.}.}.}.}.}.}.}.}.}.}.}.}.}.}.}.}.}.}.}.}.}.}.}.}.",
"}.}.}.}.}.}.}.}.}.}.}.}.}.}.}.}.}.}.}.}.}.}.}.}.}.}.}.}.}.}.}.}.}.}.}.}.}.}.}.}.}.}.}.}.}.}.}.}.}.}.}.}.}.}.}.}.}.}.}.}.}.}.}.}.}.}.}.}.}.}.}.}.}.}.}.}.}.}.}.}.",
"}.}.}.}.}.}.}.}.}.}.}.}.}.}.}.}.}.}.}.}.}.}.}.}.}.}.}.}.}.}.}.}.}.}.}.}.}.}.}.}.}.}.}.}.}.}.}.}.}.}.}.}.}.}.}.}.}.}.}.}.}.}.}.}.}.}.}.}.}.}.}.}.}.}.}.}.}.}.}.}.",
"}.}.}.}.}.}.}.}.}.}.}.}.}.}.}.}.}.}.}.}.}.}.}.}.}.}.}.}.}.}.}.}.}.}.}.}.}.}.}.}.}.}.}.}.}.}.}.}.}.}.}.}.}.}.}.}.}.}.}.}.}.}.}.}.}.}.}.}.}.}.}.}.}.}.}.}.}.}.}.}.",
"}.}.}.}.}.}.}.}.}.}.}.}.}.}.}.}.}.}.}.}.}.}.}.}.}.}.}.}.}.}.}.}.}.}.}.}.}.}.}.}.}.}.}.}.}.}.}.}.}.}.}.}.}.}.}.}.}.}.}.}.}.}.}.}.}.}.}.}.}.}.}.}.}.}.}.}.}.}.}.}.",
"}.}.}.}.}.}.}.}.}.}.}.}.}.}.}.}.}.}.}.}.}.}.}.}.}.}.}.}.}.}.}.}.}.}.}.}.}.}.}.}.}.}.}.}.}.}.}.}.}.}.}.}.}.}.}.}.}.}.}.}.}.}.}.}.}.}.}.}.}.}.}.}.}.}.}.}.}.}.}.}.",
"}.}.}.}.}.}.}.}.}.}.}.}.}.}.}.}.}.}.}.}.}.}.}.}.}.}.}.}.}.}.}.}.}.}.}.}.}.}.}.}.}.}.}.}.}.}.}.}.}.}.}.}.}.}.}.}.}.}.}.}.}.}.}.}.}.}.}.}.}.}.}.}.}.}.}.}.}.}.}.}.",
"}.}.}.}.}.}.}.}.}.}.}.}.}.}.}.}.}.}.}.}.}.}.}.}.}.}.}.}.}.}.}.}.}.}.}.}.}.}.}.}.}.}.}.}.}.}.}.}.}.}.}.}.}.}.}.}.}.}.}.}.}.}.}.}.}.}.}.}.}.}.}.}.}.}.}.}.}.}.}.}.",
"}.}.}.}.}.}.}.}.}.}.}.}.}.}.}.}.}.}.}.}.}.}.}.}.}.}.}.}.}.}.}.}.}.[ { { [ L K H H H H H H H H }.}.}.}.}.}.}.}.}.}.}.}.}.}.}.}.}.}.}.}.}.}.}.}.}.}.}.}.}.}.}.}.}.",
"}.}.}.}.}.}.}.}.}.}.}.}.}.}.}.}.}.}.}.}.}.}.}.}.}.}.}.}.}.}.}.}.[ [ [ [ [ Q K H H H K H H K H K }.}.}.}.}.}.}.}.}.}.}.}.}.}.}.}.}.}.}.}.}.}.}.}.}.}.}.}.}.}.}.}.",
"}.}.}.}.}.}.}.}.}.}.}.}.}.}.}.}.}.}.}.}.}.}.}.}.}.}.}.}.}.}.}.{ { [ [ L L K K H H H H H K H H H H }.}.}.}.}.}.}.}.}.}.}.}.}.}.}.}.}.}.}.}.}.}.}.}.}.}.}.}.}.}.}.",
"}.}.}.}.}.}.}.}.}.}.}.}.}.}.}.}.}.}.}.}.}.}.}.}.}.}.}.}.}.}.[ [ { [ [ L K H H H H K H H H H H H K H }.}.}.t t }.}.}.}.}.}.}.}.}.}.}.}.}.}.}.}.}.}.}.}.}.}.}.}.}.",
"}.}.}.}.}.}.}.}.}.}.}.}.}.}.}.}.}.}.}.}.}.}.}.}.}.}.}.}.}.{ { [ { { [ K H H H H H H H H H K H H H H }.}.t t t t }.}.}.}.}.}.}.}.}.}.}.}.}.}.}.}.}.}.}.}.}.}.}.}.",
"}.}.}.}.}.}.}.}.}.}.}.}.}.}.}.}.}.}.}.}.}.}.}.}.}.}.}.}.[ [ [ [ { } [ K H H H H H H K H H H H K H R 9 t t t t t t }.}.}.}.}.}.}.}.}.}.}.}.}.}.}.}.}.}.}.}.}.}.}.",
"}.}.}.}.}.}.}.}.}.}.}.}.}.}.}.}.}.}.}.}.}.}.}.}.}.}.}.}.{ [ [ { [ [ [ K K H H H H H H H H H H H P 0 8 y y i i y t }.}.}.}.}.}.}.}.}.}.}.}.}.}.}.}.}.}.}.}.}.}.}.",
"}.}.}.}.}.}.}.}.}.}.}.}.}.}.}.}.}.}.}.}.}.}.}.}.}.}.}.{ { { { [ [ ~ L K H H H H H H H H H H H q 0 9 a s n b n j }.}.}.}.}.}.}.}.}.}.}.}.}.}.}.}.}.}.}.}.}.}.}.}.",
"}.}.}.}.}.}.}.}.}.}.}.}.}.}.}.}.}.}.}.}.}.}.}.}.}.}.}.[ { { [ [ ~ L K K H H H H H H H H H H P 0 9 u c n p.g.g.}.}.}.}.}.}.}.}.}.}.}.}.}.}.}.}.}.}.}.}.}.}.}.}.}.",
"}.}.}.}.}.}.}.}.}.}.}.}.}.}.}.}.}.}.}.}.}.}.}.}.}.}.}., < < 3 3 > 1 > < K K K H H H H H H H R r a j b u.a.a.s.}.}.}.}.}.}.}.}.}.}.}.}.}.}.}.}.}.}.}.}.}.}.}.}.}.",
"}.}.}.}.}.}.}.}.}.}.}.}.}.}.}.}.}.}.}.}.}.}.}.}.}.}.}.o o o # # o o * > ~ L K H H H H H K H R r s b d.f.V 2.O.}.}.}.}.}.}.}.}.}.}.}.}.}.}.}.}.}.}.}.}.}.}.}.}.}.",
"}.}.}.}.}.}.}.}.}.}.}.}.}.}.}.}.}.}.}.}.}.}.}.}.}.}.}.2 & @ . X o % 2 4 < D < H H H H H ~ E W f c p.f.f.m _ H }.}.}.}.}.}.}.}.}.}.}.}.}.}.}.}.}.}.}.}.}.}.}.}.}.",
"}.}.}.}.}.}.}.}.}.}.}.}.}.}.}.}.}.}.}.}.}.}.}.}.}.}.}.L.,.-.2 + I >.:.I - * - ; D H K H E z x V s.s.y.b h E }.}.}.}.}.}.}.}.}.}.}.}.}.}.}.}.}.}.}.}.}.}.}.}.}.}.",
"}.}.}.}.}.}.}.}.}.}.}.}.}.}.}.}.}.}.}.}.}.}.}.}.}.}.}.E.R.P.7 & :.T.I.#..   . O > H H K 7 &.Z w.C.A c i p }.}.}.}.}.}.}.}.}.}.}.}.}.}.}.}.}.}.}.}.}.}.}.}.}.}.}.",
"}.}.}.}.}.}.}.}.}.}.}.}.}.}.}.}.}.}.}.}.}.}.}.}.}.}.}.T.Y.,.5 $ -.I.L.6       o 1 H H K ' 5.e.Z.A.w.V c }.}.}.}.}.}.}.}.}.}.}.}.}.}.}.}.}.}.}.}.}.}.}.}.}.}.}.}.",
"}.}.}.}.}.}.}.}.}.}.}.}.}.}.}.}.}.}.}.}.}.}.}.}.}.}.}.%.$.6 @ . 2 #.6 @       o 1 H H H  .r.U.W.W.Z.w.A }.}.}.}.}.}.}.}.}.}.}.}.}.}.}.}.}.}.}.}.}.}.}.}.}.}.}.}.",
"}.}.}.}.}.}.}.}.}.}.}.}.}.}.}.}.}.}.}.}.}.}.}.}.}.}.}.}.    X   X           X O , H D H ;.t.Q.^.^.W.A.N.m.}.}.}.}.}.}.}.}.}.}.}.}.}.}.}.}.}.}.}.}.}.}.}.}.}.}.}.",
"}.}.}.}.}.}.}.}.}.}.}.}.}.}.}.}.}.}.}.}.}.}.}.}.}.}.}.}.                  o = 1 < ~ D H O.0.n.!.(./.S.M.m.}.}.}.}.}.}.}.}.}.}.}.}.}.}.}.}.}.}.}.}.}.}.}.}.}.}.}.",
"}.}.}.}.}.}.}.}.}.}.}.}.}.}.}.}.}.}.}.}.}.}.}.}.}.}.}.                  . = 4 H K K D R o.i.c.!.].).S.N.}.}.}.}.}.}.}.}.}.}.}.}.}.}.}.}.}.}.}.}.}.}.}.}.}.}.}.}.",
"}.}.}.}.}.}.}.}.}.}.}.}.}.}.}.}.}.}.}.}.}.}.}.}.}.}.}.= # o X   . o O O # 1 H K F ~ ^ d h k h.K.[.].~.M.}.}.}.}.}.}.}.}.}.}.}.}.}.}.}.}.}.}.}.}.}.}.}.}.}.}.}.}.",
"}.}.}.}.}.}.}.}.}.}.}.}.}.}.}.}.}.}.}.}.}.}.}.}.}.}.H 3 > - .   O : > 1 > 3 H J F ~ @.B v s @.J.'.{.}.}.}.}.}.}.}.}.}.}.}.}.}.}.}.}.}.}.}.}.}.}.}.}.}.}.}.}.}.}.",
"}.}.}.}.}.}.}.}.}.}.}.}.}.}.}.}.}.}.}.}.}.}.}.}.}.K H K H ; # o - 3 H H H H H H ! ] k u.k r ! H._.`.}.}.}.}.}.}.}.}.}.}.}.}.}.}.}.}.}.}.}.}.}.}.}.}.}.}.}.}.}.}.",
"}.}.}.}.}.}.}.}.}.}.}.}.}.}.}.}.}.}.}.}.}.}.}.}.Q K H K H , ; - > H H K K J J _ 3.9.C M f 0 D X.H.H. .}.}.}.}.}.}.}.}.}.}.}.}.}.}.}.}.}.}.}.}.}.}.}.}.}.}.}.}.}.",
"}.}.}.}.}.}.}.}.}.}.}.}.}.}.}.}.}.}.}.}.}.}.}.[ U L H H H H H H H H H H H J H <.l.v.9.O.3 > , R ! E D , }.}.}.}.}.}.}.}.}.}.}.}.}.}.}.}.}.}.}.}.}.}.}.}.}.}.}.}.",
"}.}.}.}.}.}.}.}.}.}.}.}.}.}.}.}.}.}.}.}.}.}.{ [ [ L K H H H H K H H H J H _ 2.7.l.l.8.E D , 1 1 ; ; > > > }.}.}.}.}.}.}.}.}.}.}.}.}.}.}.}.}.}.}.}.}.}.}.}.}.}.}.",
"}.}.}.}.}.}.}.}.}.}.}.}.}.}.}.}.}.}.}.}.}.}.{ { [ [ [ K K H K K H H J G E 3.l.l.7.<._ K D , , 1 1 > > > }.}.}.}.}.}.}.}.}.}.}.}.}.}.}.}.}.}.}.}.}.}.}.}.}.}.}.}.",
"}.}.}.}.}.}.}.}.}.}.}.}.}.}.}.}.}.}.}.}.}.}.{ { [ [ [ L K H H H H H K E O.q.b.l.<.H H H H , > > > > > > > }.}.}.}.}.}.}.}.}.}.}.}.}.}.}.}.}.}.}.}.}.}.}.}.}.}.}.",
"}.}.}.}.}.}.}.}.}.}.}.}.}.}.}.}.}.}.}.}.}.}.{ { [ [ [ L K K H D D J _ 3.q.j.q.8._ H F H 3 < > > > > > > > > }.}.}.}.}.}.}.}.}.}.}.}.}.}.}.}.}.}.}.}.}.}.}.}.}.}.",
"}.}.}.}.}.}.}.}.}.}.}.}.}.}.}.}.}.}.}.}.}.}.{ [ [ [ [ L K H H H H H <.l.b.q.] Q H H H H H > > > > > > < > > > }.}.}.}.}.}.}.}.}.}.}.}.}.}.}.}.}.}.}.}.}.}.}.}.}.",
"}.}.}.}.}.}.}.}.}.}.}.}.}.}.}.}.}.}.}.}.}.}.[ [ [ [ [ K K W O.<.2.2.7.k.l.3.E J J H H H H , > > > > > > > > > }.}.}.}.}.}.}.}.}.}.}.}.}.}.}.}.}.}.}.}.}.}.}.}.}.",
"}.}.}.}.}.}.}.}.}.}.}.}.}.}.}.}.}.}.}.}.}.}.{ [ [ [ [ L K O.9.x.v.x.k.8.<._ H H H H H H 3 , > > > > > > > > > }.}.}.}.}.}.}.}.}.}.}.}.}.}.}.}.}.}.}.}.}.}.}.}.}.",
"}.}.}.}.}.}.}.}.}.}.}.}.}.}.}.}.}.}.}.}.}.}.[ [ [ [ [ T K 2.x.D.F.D.x.2.H J H H H H H H H , , > > > > > > > > }.}.}.}.}.}.}.}.}.}.}.}.}.}.}.}.}.}.}.}.}.}.}.}.}.",
"}.}.}.}.}.}.}.}.}.}.}.}.}.}.}.}.}.}.}.}.}.}.{ [ [ [ [ T K 2.v.F.G.F.v.2.H F H H H K H H H < D < > > > , > > > > }.}.}.}.}.}.}.}.}.}.}.}.}.}.}.}.}.}.}.}.}.}.}.}.",
"}.}.}.}.}.}.}.}.}.}.}.}.}.}.}.}.}.}.}.}.}.}.{ [ [ [ [ K ~ 2.x.D.F.D.x.2.H J H H H H H H H H H < < > > > > > > > > }.}.}.}.}.}.}.}.}.}.}.}.}.}.}.}.}.}.}.}.}.}.}.",
"}.}.}.}.}.}.}.}.}.}.}.}.}.}.}.}.}.}.}.}.}.}.[ [ [ { [ ^ o.8.h.x.v.x.q.O.H J H H H H H H H K H H < > > > > > > > > > }.}.}.}.}.}.}.}.}.}.}.}.}.}.}.}.}.}.}.}.}.}.",
"}.}.}.}.}.}.}.}.}.}.}.}.}.}.}.}.}.}.}.}.}.}.[ { Y Y | @.B N m 2.<.<.O.E H H K H H H H K H H H H H 3 , > > > > > < }.}.}.}.}.}.}.}.}.}.}.}.}.}.}.}.}.}.}.}.}.}.}.",
"}.}.}.}.}.}.}.}.}.}.}.}.}.}.}.}.}.}.}.}.}.}.[ [ [ Y | 6.u.B o.R K K H H H H H H H H H H H H H H H H < , > > > > > > }.}.}.}.}.}.}.}.}.}.}.}.}.}.}.}.}.}.}.}.}.}.",
"}.}.}.}.}.}.}.}.}.}.}.}.}.}.}.}.}.}.}.}.}.}.[ { { { } +.l g W D J J J J H K H H K H H H H H H K H H G 3 < > > > > > > }.}.}.}.}.}.}.}.}.}.}.}.}.}.}.}.}.}.}.}.}.",
"}.}.}.}.}.}.}.}.}.}.}.}.}.}.}.}.}.}.}.}.}.}.{ [ [ { [ ! W E ~ H H H H H H H K H K H H H H H H H H H H 3 , > > > > > > > }.}.}.}.}.}.}.}.}.}.}.}.}.}.}.}.}.}.}.}.",
"}.}.}.}.}.}.}.}.}.}.}.}.}.}.}.}.}.}.}.}.}.}.[ [ { [ { Q H J H H K H H K H H H H H H H H K H H H H H H H H , < , < , > > > }.}.}.}.}.}.}.}.}.}.}.}.}.}.}.}.}.}.}.",
"}.}.}.}.}.}.}.}.}.}.}.}.}.}.}.}.}.}.}.}.}.}.[ [ [ { [ L K H H H H H H H H K H H H H K H H H H K H H H H H 3 G H H , > > > > }.}.}.}.}.}.}.}.}.}.}.}.}.}.}.}.}.}.",
"}.}.}.}.}.}.}.}.}.}.}.}.}.}.}.}.}.}.}.}.}.}.[ { [ [ [ L K H K H H H H H H H H K H H H H H H H H H H H H H H H H H , , > , > }.}.}.}.}.}.}.}.}.}.}.}.}.}.}.}.}.}.",
"}.}.}.}.}.}.}.}.}.}.}.}.}.}.}.}.}.}.}.}.}.}.[ [ [ { [ [ L K K H H H H H H H H H H H H H H K H H H H H H K H H K H G > > > > > }.}.}.}.}.}.}.}.}.}.}.}.}.}.}.}.}.",
"}.}.}.}.}.}.}.}.}.}.}.}.}.}.}.}.}.}.}.}.}.}.{ [ [ [ [ [ [ [ K H H K H H K H H H H K H H H H H H K H H H H H H H H 3 4 > > > > }.}.}.}.}.}.}.}.}.}.}.}.}.}.}.}.}.",
"}.}.}.}.}.}.}.}.}.}.}.}.}.}.}.}.}.}.}.}.}.}.[ { { [ { { [ L K H H H H K H H H K H H H H H H H H H H H H H H H K H , , > > > > }.}.}.}.}.}.}.}.}.}.}.}.}.}.}.}.}.",
"}.}.}.}.}.}.}.}.}.}.}.}.}.}.}.}.}.}.}.}.}.}.[ { [ [ [ { [ [ L H H H H H H H H H H H H K H H K H H H K H K H H K H 3 , > > > > > }.}.}.}.}.}.}.}.}.}.}.}.}.}.}.}.",
"}.}.}.}.}.}.}.}.}.}.}.}.}.}.}.}.}.}.}.}.}.}.[ [ [ [ [ [ [ ~ K H H H H H K H H H H H K H H H H H H K H H K H H H H , , > > > > > > }.}.}.}.}.}.}.}.}.}.}.}.}.}.}.",
"}.}.}.}.}.}.}.}.}.}.}.}.}.}.}.}.}.}.}.}.}.}.[ { [ [ [ [ [ [ L H H H H H H H K H H H H H H H H H H H H H H H H H H 3 > > > > > > > }.}.}.}.}.}.}.}.}.}.}.}.}.}.}.",
"}.}.}.}.}.}.}.}.}.}.}.}.}.}.}.}.}.}.}.}.}.}.}.[ [ [ [ [ [ [ K H H H H H K H H H H H H H K H H K H H K H H H K H H < , > > > > > > }.}.}.}.}.}.}.}.}.}.}.}.}.}.}.",
"}.}.}.}.}.}.}.}.}.}.}.}.}.}.}.}.}.}.}.}.}.}.}.[ [ { [ [ [ [ [ K K H K H H H H H H K H H H H H H H H H H H H H H H < , > > > > > > }.}.}.}.}.}.}.}.}.}.}.}.}.}.}.",
"}.}.}.}.}.}.}.}.}.}.}.}.}.}.}.}.}.}.}.}.}.}.}.}.{ { { { [ [ [ L L K H K H H H K H H K H H H H H H H H H H H H H H G > > > > > , > }.}.}.}.}.}.}.}.}.}.}.}.}.}.}.",
"}.}.}.}.}.}.}.}.}.}.}.}.}.}.}.}.}.}.}.}.}.}.}.}.}.{ [ { { { [ [ L K H H H H H H H H H H H H H H K H H H H H H K H 3 > > > > > > > }.}.}.}.}.}.}.}.}.}.}.}.}.}.}.",
"}.}.}.}.}.}.}.}.}.}.}.}.}.}.}.}.}.}.}.}.}.}.}.}.}.{ [ { { [ { [ L H H H H H H H H H H H H K H H H J H K H K H H H 4 , > > > > > > }.}.}.}.}.}.}.}.}.}.}.}.}.}.}.",
"}.}.}.}.}.}.}.}.}.}.}.}.}.}.}.}.}.}.}.}.}.}.}.}.}.[ [ [ [ { [ [ L K H H H K H H K H H H H H H K K H H H H H H H H 3 , > > > > > , }.}.}.}.}.}.}.}.}.}.}.}.}.}.}.",
"}.}.}.}.}.}.}.}.}.}.}.}.}.}.}.}.}.}.}.}.}.}.}.}.}.}.[ [ { { [ [ U L K K H H K H H H H K H P R Q ) Q P H H H H H H , > > > > > > }.}.}.}.}.}.}.}.}.}.}.}.}.}.}.}.",
"}.}.}.}.}.}.}.}.}.}.}.}.}.}.}.}.}.}.}.}.}.}.}.}.}.}.}.[ [ [ [ [ [ U L K H K H H H H H }.}.w W ' =. .Q K J K H D < , > > > > > }.}.}.}.}.}.}.}.}.}.}.}.}.}.}.}.}.",
"}.}.}.}.}.}.}.}.}.}.}.}.}.}.}.}.}.}.}.}.}.}.}.}.}.}.}.{ [ { [ [ [ { U L H H H H H H K }.}.w W ' *.&.) P H H 3 > > > > > > > > }.}.}.}.}.}.}.}.}.}.}.}.}.}.}.}.}.",
"}.}.}.}.}.}.}.}.}.}.}.}.}.}.}.}.}.}.}.}.}.}.}.}.}.}.}.[ { [ [ { { { [ Q H H H H K H H H H w E / &.&.=.' Q P < > > > > > > > > }.}.}.}.}.}.}.}.}.}.}.}.}.}.}.}.}.",
"}.}.}.}.}.}.}.}.}.}.}.}.}.}.}.}.}.}.}.}.}.}.}.}.}.}.}.}.[ [ { { [ { [ }.}.H H H H H H H H H P w w ' 4.*.( 3 > , > > > > > < }.}.}.}.}.}.}.}.}.}.}.}.}.}.}.}.}.}.",
"}.}.}.}.}.}.}.}.}.}.}.}.}.}.}.}.}.}.}.}.}.}.}.}.}.}.}.}.{ { { [ { { { }.}.}.K H H H H H H H H P w ` &.&./ 4 > > > > , > > > }.}.}.}.}.}.}.}.}.}.}.}.}.}.}.}.}.}.",
"}.}.}.}.}.}.}.}.}.}.}.}.}.}.}.}.}.}.}.}.}.}.}.}.}.}.}.}.}.[ [ { [ [ [ }.}.}.}.}.}.}.H K K H H H }.}.' ` w , 1 > > > > > > }.}.}.}.}.}.}.}.}.}.}.}.}.}.}.}.}.}.}.",
"}.}.}.}.}.}.}.}.}.}.}.}.}.}.}.}.}.}.}.}.}.}.}.}.}.}.}.}.}.}.[ } [ { [ }.}.}.}.}.}.}.}.H H H H }.}.}.w w 4 , > > > > > > }.}.}.}.}.}.}.}.}.}.}.}.}.}.}.}.}.}.}.}.",
"}.}.}.}.}.}.}.}.}.}.}.}.}.}.}.}.}.}.}.}.}.}.}.}.}.}.}.}.}.}.}.[ [ { [ [ }.}.}.}.}.}.}.}.H H }.}.}.}.}.e 4 < > > > > > > }.}.}.}.}.}.}.}.}.}.}.}.}.}.}.}.}.}.}.}.",
"}.}.}.}.}.}.}.}.}.}.}.}.}.}.}.}.}.}.}.}.}.}.}.}.}.}.}.}.}.}.}.}.[ { { { { }.}.}.}.}.}.}.}.}.}.}.}.}.}.}.4 > > > > > > > }.}.}.}.}.}.}.}.}.}.}.}.}.}.}.}.}.}.}.}.",
"}.}.}.}.}.}.}.}.}.}.}.}.}.}.}.}.}.}.}.}.}.}.}.}.}.}.}.}.}.}.}.}.}.[ [ { [ }.}.}.}.}.}.}.}.}.}.}.}.}.}.}.> > > > > > > > }.}.}.}.}.}.}.}.}.}.}.}.}.}.}.}.}.}.}.}.",
"}.}.}.}.}.}.}.}.}.}.}.}.}.}.}.}.}.}.}.}.}.}.}.}.}.}.}.}.}.}.}.}.}.}.}.}.}.}.}.}.}.}.}.}.}.}.}.}.}.}.}.> > > > > }.}.}.}.}.}.}.}.}.}.}.}.}.}.}.}.}.}.}.}.}.}.}.}.",
"}.}.}.}.}.}.}.}.}.}.}.}.}.}.}.}.}.}.}.}.}.}.}.}.}.}.}.}.}.}.}.}.}.}.}.}.}.}.}.}.}.}.}.}.}.}.}.}.}.}.> > > < > }.}.}.}.}.}.}.}.}.}.}.}.}.}.}.}.}.}.}.}.}.}.}.}.}.",
"}.}.}.}.}.}.}.}.}.}.}.}.}.}.}.}.}.}.}.}.}.}.}.}.}.}.}.}.}.}.}.}.}.}.}.}.}.}.}.}.}.}.}.}.}.}.}.}.}.}.> > > > }.}.}.}.}.}.}.}.}.}.}.}.}.}.}.}.}.}.}.}.}.}.}.}.}.}.",
"}.}.}.}.}.}.}.}.}.}.}.}.}.}.}.}.}.}.}.}.}.}.}.}.}.}.}.}.}.}.}.}.}.}.}.}.}.}.}.}.}.}.}.}.}.}.}.}.}.}.> > > }.}.}.}.}.}.}.}.}.}.}.}.}.}.}.}.}.}.}.}.}.}.}.}.}.}.}.",
"}.}.}.}.}.}.}.}.}.}.}.}.}.}.}.}.}.}.}.}.}.}.}.}.}.}.}.}.}.}.}.}.}.}.}.}.}.}.}.}.}.}.}.}.}.}.}.}.}.}.> > > }.}.}.}.}.}.}.}.}.}.}.}.}.}.}.}.}.}.}.}.}.}.}.}.}.}.}."
};
