/* XPM */
static char *result[] = {
/* columns rows colors chars-per-pixel */
"80 80 183 2 ",
"   c #040303",
".  c #090A0C",
"X  c #070708",
"o  c #0A0B14",
"O  c #0D0E19",
"+  c #0C1310",
"@  c #0F1817",
"#  c #0D101D",
"$  c #0F1A18",
"%  c #111D1C",
"&  c #12201F",
"*  c #0D0F20",
"=  c #0F1222",
"-  c #101425",
";  c #13182E",
":  c #12162A",
">  c #151C36",
",  c #161D3A",
"<  c #181F3B",
"1  c #131731",
"2  c #152425",
"3  c #18203E",
"4  c #192137",
"5  c #1C3633",
"6  c #1E3A37",
"7  c #1F3C39",
"8  c #3C2B2C",
"9  c #392829",
"0  c #2C2634",
"q  c #23253D",
"w  c #25293D",
"e  c #292839",
"r  c #392C34",
"t  c #44291A",
"y  c #4A2E1D",
"u  c #4F311D",
"i  c #51321D",
"p  c #492D21",
"a  c #4D3224",
"s  c #593826",
"d  c #45343F",
"f  c #4D3A38",
"g  c #53383D",
"h  c #593A34",
"j  c #613D23",
"k  c #733F2B",
"l  c #613F3C",
"z  c #21413C",
"x  c #4F4932",
"c  c #654E29",
"v  c #77422E",
"b  c #7C4E29",
"n  c #744A29",
"m  c #64493E",
"M  c #6C4837",
"N  c #7C4A36",
"B  c #7B4735",
"V  c #655D39",
"C  c #79553E",
"Z  c #5F653E",
"A  c #7D743A",
"S  c #7C6B37",
"D  c #121E46",
"F  c #111F48",
"G  c #162147",
"H  c #1B2447",
"J  c #162148",
"K  c #1B2549",
"L  c #1E284F",
"P  c #1E2846",
"I  c #1F3640",
"U  c #1F2A51",
"Y  c #1F2C58",
"T  c #152350",
"R  c #212644",
"E  c #252B45",
"W  c #2C2C44",
"Q  c #242C4B",
"!  c #282D4B",
"~  c #202748",
"^  c #332F4B",
"/  c #2C3244",
"(  c #2E354A",
")  c #27314E",
"_  c #333446",
"`  c #323943",
"'  c #343B4C",
"]  c #3E3644",
"[  c #222D56",
"{  c #222D58",
"}  c #2B2F53",
"|  c #2D3352",
" . c #333C55",
".. c #383651",
"X. c #333B61",
"o. c #463541",
"O. c #413B45",
"+. c #493847",
"@. c #543D46",
"#. c #234543",
"$. c #264C49",
"%. c #29524F",
"&. c #3B4354",
"*. c #3B435A",
"=. c #364159",
"-. c #2E5B57",
";. c #354065",
":. c #346866",
">. c #37706B",
",. c #3E7E7A",
"<. c #4F4545",
"1. c #464E40",
"2. c #514545",
"3. c #5F4F45",
"4. c #404859",
"5. c #545E54",
"6. c #644242",
"7. c #6F5944",
"8. c #675445",
"9. c #795E44",
"0. c #795F5C",
"q. c #7C6144",
"w. c #7C7C48",
"e. c #70795A",
"r. c #5F6A73",
"t. c #6A6C7A",
"y. c #855B2E",
"u. c #8E4F33",
"i. c #814D39",
"p. c #8A5B31",
"a. c #8A5E3A",
"s. c #886438",
"d. c #976333",
"f. c #9C6634",
"g. c #A26934",
"h. c #885343",
"j. c #866543",
"k. c #8D6B43",
"l. c #926E43",
"z. c #807E4E",
"x. c #9D7543",
"c. c #A6684E",
"v. c #A57B43",
"b. c #A97D42",
"n. c #9E7C74",
"m. c #95953F",
"M. c #97984A",
"N. c #939448",
"B. c #838B5F",
"V. c #8B905E",
"C. c #888643",
"Z. c #85896D",
"A. c #8F9361",
"S. c #969B71",
"D. c #CF9541",
"F. c #DE9E41",
"G. c #EEA840",
"H. c #535C86",
"J. c #757195",
"K. c #997E92",
"L. c #428782",
"P. c #48938E",
"I. c #4D9C98",
"U. c #7B8784",
"Y. c #55AFAA",
"T. c #5ABAB4",
"R. c #63CDC7",
"E. c #6BDFD8",
"W. c #889287",
"Q. c #888992",
"!. c #A58C99",
"~. c #9EA488",
"^. c #8B93A2",
"/. c #949EA3",
"(. c #969BBB",
"). c #9DA6B8",
"_. c #858EC2",
"`. c #939CD3",
"'. c #9EA3DA",
"]. c #A4A9CE",
"[. c #A5A5D7",
"{. c #ADB6E7",
"}. c None",
/* pixels */
"}.}.}.}.}.}.}.}.}.}.}.}.}.}.}.}.}.}.}.}.}.}.}.}.}.}.}.}.}.}.}.}.}.}.}.}.}.}.}.}.}.}.}.}.}.}.}.}.}.}.}.}.}.}.}.}.}.}.}.}.}.}.}.}.}.}.}.}.}.}.}.}.}.}.}.}.}.}.}.}.",
"}.}.}.}.}.}.}.}.}.}.}.}.}.}.}.}.}.}.}.}.}.}.}.}.}.}.}.}.}.}.}.}.}.}.}.}.}.}.}.}.}.}.}.}.}.}.}.}.}.}.}.}.}.}.}.}.}.}.}.}.}.}.}.}.}.}.}.}.}.}.}.}.}.}.}.}.}.}.}.}.",
"}.}.}.}.}.}.}.}.}.}.}.}.}.}.}.}.}.}.}.}.}.}.}.}.}.}.}.}.}.}.}.}.}.}.}.}.}.}.}.}.}.}.}.}.}.}.}.}.}.}.}.}.}.}.}.}.}.}.}.}.}.}.}.}.}.}.}.}.}.}.}.}.}.}.}.}.}.}.}.}.",
"}.}.}.}.}.}.}.}.}.}.}.}.}.}.}.}.}.}.}.}.}.}.}.}.}.}.}.}.}.}.}.}.}.}.}.}.}.}.}.}.}.}.}.}.}.}.}.}.}.}.}.}.}.}.}.}.}.}.}.}.}.}.}.}.}.}.}.}.}.}.}.}.}.}.}.}.}.}.}.}.",
"}.}.}.}.}.}.}.}.}.}.}.}.}.}.}.}.}.}.}.}.}.}.}.}.}.}.}.}.}.}.}.}.}.}.}.}.}.}.}.}.}.}.}.}.}.}.}.}.}.}.}.}.}.}.}.}.}.}.}.}.}.}.}.}.}.}.}.}.}.}.}.}.}.}.}.}.}.}.}.}.",
"}.}.}.}.}.}.}.}.}.}.}.}.}.}.}.}.}.}.}.}.}.}.}.}.}.}.}.}.}.}.}.}.}.}.}.}.}.}.}.}.}.}.}.}.}.}.}.}.}.}.}.}.}.}.}.}.}.}.}.}.}.}.}.}.}.}.}.}.}.}.}.}.}.}.}.}.}.}.}.}.",
"}.}.}.}.}.}.}.}.}.}.}.}.}.}.}.}.}.}.}.}.}.}.}.}.}.}.}.}.}.}.}.}.}.}.}.}.}.}.}.}.}.}.}.}.}.}.}.}.}.}.}.}.}.}.}.}.}.}.}.}.}.}.}.}.}.}.}.}.}.}.}.}.}.}.}.}.}.}.}.}.",
"}.}.}.}.}.}.}.}.}.}.}.}.}.}.}.}.}.}.}.}.}.}.}.}.}.}.}.}.}.}.}.}.}.}.}.}.}.}.}.}.}.}.}.}.}.}.}.}.}.}.}.}.}.}.}.}.}.}.}.}.}.}.}.}.}.}.}.}.}.}.}.}.}.}.}.}.}.}.}.}.",
"}.}.}.}.}.}.}.}.}.}.}.}.}.}.}.}.}.}.}.}.}.}.}.}.}.}.}.}.}.}.}.}.}.}.}.}.}.}.}.}.}.}.}.}.}.}.}.}.}.}.}.}.}.}.}.}.}.}.}.}.}.}.}.}.}.}.}.}.}.}.}.}.}.}.}.}.}.}.}.}.",
"}.}.}.}.}.}.}.}.}.}.}.}.}.}.}.}.}.}.}.}.}.}.}.}.}.}.}.}.}.}.}.}.}.}.}.}.}.}.}.}.}.}.}.}.}.}.}.}.}.}.}.}.}.}.}.}.}.}.}.}.}.}.}.}.}.}.}.}.}.}.}.}.}.}.}.}.}.}.}.}.",
"}.}.}.}.}.}.}.}.}.}.}.}.}.}.}.}.}.}.}.}.}.}.}.}.}.}.}.}.}.}.}.}.}.H H H H H H K H H [ [ { [ [ }.}.}.}.}.}.}.}.}.}.}.}.}.}.}.}.}.}.}.}.}.}.}.}.}.}.}.}.}.}.}.}.}.",
"}.}.}.}.}.}.}.}.}.}.}.}.}.}.}.}.}.}.}.}.}.}.}.}.}.}.}.}.}.}.}.}.H H K H H H H H H K L L [ { [ { }.}.}.}.}.}.}.}.}.}.}.}.}.}.}.}.}.}.}.}.}.}.}.}.}.}.}.}.}.}.}.}.",
"}.}.}.}.}.}.}.}.}.}.}.}.}.}.}.}.}.}.}.}.}.}.}.}.}.}.}.}.}.}.}.J H H H H H H H H H K K Q [ [ [ [ [ }.}.}.}.}.}.}.}.}.}.}.}.}.}.}.}.}.}.}.}.}.}.}.}.}.}.}.}.}.}.}.",
"}.}.}.}.}.}.}.}.}.}.}.}.}.}.}.}.}.}.}.}.}.}.}.}.}.t y }.}.}.K K H K K H K H H H H H H K L U [ { { [ }.}.}.}.}.}.}.}.}.}.}.}.}.}.}.}.}.}.}.}.}.}.}.}.}.}.}.}.}.}.",
"}.}.}.}.}.}.}.}.}.}.}.}.}.}.}.}.}.}.}.}.}.}.}.}.t t t t }.}.R K K H H H H H H H H K H H K U { { { [ [ }.}.}.}.}.}.}.}.}.}.}.}.}.}.}.}.}.}.}.}.}.}.}.}.}.}.}.}.}.",
"}.}.}.}.}.}.}.}.}.}.}.}.}.}.}.}.}.}.}.}.}.}.}.t t t t t t 9 q D J H H H H H H K H H H H L U [ { [ [ { [ }.}.}.}.}.}.}.}.}.}.}.}.}.}.}.}.}.}.}.}.}.}.}.}.}.}.}.}.",
"}.}.}.}.}.}.}.}.}.}.}.}.}.}.}.}.}.}.}.}.}.}.}.t y i i i y 9 e R H H H H H H H H H H H K L U [ { [ { { [ }.}.}.}.}.}.}.}.}.}.}.}.}.}.}.}.}.}.}.}.}.}.}.}.}.}.}.}.",
"}.}.}.}.}.}.}.}.}.}.}.}.}.}.}.}.}.}.}.}.}.}.}.}.s b b n j a 9 0 q H K H H H K H H H H H J L U { { { { { { }.}.}.}.}.}.}.}.}.}.}.}.}.}.}.}.}.}.}.}.}.}.}.}.}.}.}.",
"}.}.}.}.}.}.}.}.}.}.}.}.}.}.}.}.}.}.}.}.}.}.}.}.}.g.f.p.n s a p 0 R K H H H H H K H K H K H K ~ [ [ { [ [ }.}.}.}.}.}.}.}.}.}.}.}.}.}.}.}.}.}.}.}.}.}.}.}.}.}.}.",
"}.}.}.}.}.}.}.}.}.}.}.}.}.}.}.}.}.}.}.}.}.}.}.}.}.a.s.a.p.b c y r q K D H K K ~ H K K K < > 1 > 3 3 < 3 < }.}.}.}.}.}.}.}.}.}.}.}.}.}.}.}.}.}.}.}.}.}.}.}.}.}.}.",
"}.}.}.}.}.}.}.}.}.}.}.}.}.}.}.}.}.}.}.}.}.}.}.}.}.+.2.C d.d.y.x r R H J K H H R K R ~ K > * o o O O O o o }.}.}.}.}.}.}.}.}.}.}.}.}.}.}.}.}.}.}.}.}.}.}.}.}.}.}.",
"}.}.}.}.}.}.}.}.}.}.}.}.}.}.}.}.}.}.}.}.}.}.}.}.}.J W M d.d.y.M f W ~ H H ~ H D D 3 D < 4 ; % + X . $ & 2 }.}.}.}.}.}.}.}.}.}.}.}.}.}.}.}.}.}.}.}.}.}.}.}.}.}.}.",
"}.}.}.}.}.}.}.}.}.}.}.}.}.}.}.}.}.}.}.}.}.}.}.}.}.}.W h n y.s.S Z x r ) K D ~ < ; - - - 7 :.>.z + & -.,.L.}.}.}.}.}.}.}.}.}.}.}.}.}.}.}.}.}.}.}.}.}.}.}.}.}.}.}.",
"}.}.}.}.}.}.}.}.}.}.}.}.}.}.}.}.}.}.}.}.}.}.}.}.}.}.}.y i c S C.w.Z 1./ H K H > # X   . #.I.T.:.& 7 P.R.E.}.}.}.}.}.}.}.}.}.}.}.}.}.}.}.}.}.}.}.}.}.}.}.}.}.}.}.",
"}.}.}.}.}.}.}.}.}.}.}.}.}.}.}.}.}.}.}.}.}.}.}.}.}.}.}.}.x V z.A.B.e.5.' H J H 1 o       6 L.I.-.$ 5 ,.Y.T.}.}.}.}.}.}.}.}.}.}.}.}.}.}.}.}.}.}.}.}.}.}.}.}.}.}.}.",
"}.}.}.}.}.}.}.}.}.}.}.}.}.}.}.}.}.}.}.}.}.}.}.}.}.}.}.}.A z.Z.S.U.U.r.*.K H H 1 O       $ 5 #.2 . $ 6 $.%.}.}.}.}.}.}.}.}.}.}.}.}.}.}.}.}.}.}.}.}.}.}.}.}.}.}.}.",
"}.}.}.}.}.}.}.}.}.}.}.}.}.}.}.}.}.}.}.}.}.}.}.}.}.}.}.m.N.A.W.^.^.Q.t.;.J H H > # . X                   }.}.}.}.}.}.}.}.}.}.}.}.}.}.}.}.}.}.}.}.}.}.}.}.}.}.}.}.",
"}.}.}.}.}.}.}.}.}.}.}.}.}.}.}.}.}.}.}.}.}.}.}.}.}.}.}.m.M.S./.(./.n.0.O.K J H 3 ; # o X                 }.}.}.}.}.}.}.}.}.}.}.}.}.}.}.}.}.}.}.}.}.}.}.}.}.}.}.}.",
"}.}.}.}.}.}.}.}.}.}.}.}.}.}.}.}.}.}.}.}.}.}.}.}.}.}.}.}.N.S.).].!.c.i.o.H H H H G > # .                   }.}.}.}.}.}.}.}.}.}.}.}.}.}.}.}.}.}.}.}.}.}.}.}.}.}.}.",
"}.}.}.}.}.}.}.}.}.}.}.}.}.}.}.}.}.}.}.}.}.}.}.}.}.}.}.}.M.~.].[.K.h.k h d W H J H G ; # O o O X   X . # - }.}.}.}.}.}.}.}.}.}.}.}.}.}.}.}.}.}.}.}.}.}.}.}.}.}.}.",
"}.}.}.}.}.}.}.}.}.}.}.}.}.}.}.}.}.}.}.}.}.}.}.}.}.}.}.}.}.}.{.'.J.@.s k B g R J K H 3 > ; ; ; O X X - > < H }.}.}.}.}.}.}.}.}.}.}.}.}.}.}.}.}.}.}.}.}.}.}.}.}.}.",
"}.}.}.}.}.}.}.}.}.}.}.}.}.}.}.}.}.}.}.}.}.}.}.}.}.}.}.}.}.}.`._.H.! r v u.M o.! ~ H K H K ~ 3 - o # > H K K ~ }.}.}.}.}.}.}.}.}.}.}.}.}.}.}.}.}.}.}.}.}.}.}.}.}.",
"}.}.}.}.}.}.}.}.}.}.}.}.}.}.}.}.}.}.}.}.}.}.}.}.}.}.}.}.}.X.H.H.X.H 0 f l C 9.6._ D D K ~ K H > : 1 < H K H K L }.}.}.}.}.}.}.}.}.}.}.}.}.}.}.}.}.}.}.}.}.}.}.}.",
"}.}.}.}.}.}.}.}.}.}.}.}.}.}.}.}.}.}.}.}.}.}.}.}.}.}.}.}.> 4 ~ Q H < < q d 9.b.l.<.K D ~ K K R D < H H H K K ~ [ [ }.}.}.}.}.}.}.}.}.}.}.}.}.}.}.}.}.}.}.}.}.}.}.",
"}.}.}.}.}.}.}.}.}.}.}.}.}.}.}.}.}.}.}.}.}.}.}.}.}.}.}.> > > 1 1 1 > , D Q 8.l.l.7.<._ K D J H K K H H H K K L [ [ { }.}.}.}.}.}.}.}.}.}.}.}.}.}.}.}.}.}.}.}.}.}.",
"}.}.}.}.}.}.}.}.}.}.}.}.}.}.}.}.}.}.}.}.}.}.}.}.}.}.}.}.> > 1 > 1 > , D P _ <.7.l.l.8.Q D K H K K K K R K L [ [ { [ }.}.}.}.}.}.}.}.}.}.}.}.}.}.}.}.}.}.}.}.}.}.",
"}.}.}.}.}.}.}.}.}.}.}.}.}.}.}.}.}.}.}.}.}.}.}.}.}.}.}.> > > > > > > 4 3 H J H <.k.b.q.O.E H H H H H H K Q [ [ [ { [ }.}.}.}.}.}.}.}.}.}.}.}.}.}.}.}.}.}.}.}.}.}.",
"}.}.}.}.}.}.}.}.}.}.}.}.}.}.}.}.}.}.}.}.}.}.}.}.}.}.> > > > > > > , < 3 H J G _ 8.q.j.q.8._ G F D G K K L [ { [ [ [ }.}.}.}.}.}.}.}.}.}.}.}.}.}.}.}.}.}.}.}.}.}.",
"}.}.}.}.}.}.}.}.}.}.}.}.}.}.}.}.}.}.}.}.}.}.}.}.}.> > > > , > > > > < G H K H H E O.q.b.k.<.K H H H H K L Y [ { [ [ }.}.}.}.}.}.}.}.}.}.}.}.}.}.}.}.}.}.}.}.}.}.",
"}.}.}.}.}.}.}.}.}.}.}.}.}.}.}.}.}.}.}.}.}.}.}.}.}.> > > > > > > > > < G H K H H D E 3.l.l.8.2.<.2.O.W K L [ [ [ [ { }.}.}.}.}.}.}.}.}.}.}.}.}.}.}.}.}.}.}.}.}.}.",
"}.}.}.}.}.}.}.}.}.}.}.}.}.}.}.}.}.}.}.}.}.}.}.}.}.> > > > > > > > > < G H K H H J R _ 2.7.k.x.v.x.9.O.K K [ { [ [ { }.}.}.}.}.}.}.}.}.}.}.}.}.}.}.}.}.}.}.}.}.}.",
"}.}.}.}.}.}.}.}.}.}.}.}.}.}.}.}.}.}.}.}.}.}.}.}.}., > > > > > > > > 4 G H K H H H H D ~ 2.x.D.F.D.x.2.K T [ [ [ [ [ }.}.}.}.}.}.}.}.}.}.}.}.}.}.}.}.}.}.}.}.}.}.",
"}.}.}.}.}.}.}.}.}.}.}.}.}.}.}.}.}.}.}.}.}.}.}.}.> > > > > > > > < < G P H H H K H H D J <.v.F.G.F.v.2.K T Y { [ [ [ }.}.}.}.}.}.}.}.}.}.}.}.}.}.}.}.}.}.}.}.}.}.",
"}.}.}.}.}.}.}.}.}.}.}.}.}.}.}.}.}.}.}.}.}.}.}.> > > > > > > > < 3 3 H H H H H H K K D ~ <.x.D.F.D.x.2.K K [ [ [ { [ }.}.}.}.}.}.}.}.}.}.}.}.}.}.}.}.}.}.}.}.}.}.",
"}.}.}.}.}.}.}.}.}.}.}.}.}.}.}.}.}.}.}.}.}.}.> > > > > > > > > < G P H H H H H H H H D R O.9.x.v.x.j.m o.^ } { [ [ [ }.}.}.}.}.}.}.}.}.}.}.}.}.}.}.}.}.}.}.}.}.}.",
"}.}.}.}.}.}.}.}.}.}.}.}.}.}.}.}.}.}.}.}.}.}.}., > > > > > < 3 3 G H H H H H H H H H H K ! O.<.2.2.6.N N @.| { { [ { }.}.}.}.}.}.}.}.}.}.}.}.}.}.}.}.}.}.}.}.}.}.",
"}.}.}.}.}.}.}.}.}.}.}.}.}.}.}.}.}.}.}.}.}.}.> > > > > > < < G H H H H H H H H H H H H H H H H K H d N u.6.| { { { [ }.}.}.}.}.}.}.}.}.}.}.}.}.}.}.}.}.}.}.}.}.}.",
"}.}.}.}.}.}.}.}.}.}.}.}.}.}.}.}.}.}.}.}.}.> > > > > > < 4 G H H H H H H H H H K K H H H H G J F D W g m +.} [ { { [ }.}.}.}.}.}.}.}.}.}.}.}.}.}.}.}.}.}.}.}.}.}.",
"}.}.}.}.}.}.}.}.}.}.}.}.}.}.}.}.}.}.}.}.> < > > > > , 3 H H H H H H H H K H H H K H H H H H H K R R E W ! [ { { [ [ }.}.}.}.}.}.}.}.}.}.}.}.}.}.}.}.}.}.}.}.}.}.",
"}.}.}.}.}.}.}.}.}.}.}.}.}.}.}.}.}.}.}.> > > , , , < < G H K H H H K H H H H H H H H H H H H H H H H D D K [ { [ [ { }.}.}.}.}.}.}.}.}.}.}.}.}.}.}.}.}.}.}.}.}.}.",
"}.}.}.}.}.}.}.}.}.}.}.}.}.}.}.}.}.}.> > > > 3 3 G 3 G P H H H H H H H H H H H K H H H K K H H H H K K K K [ [ [ [ [ }.}.}.}.}.}.}.}.}.}.}.}.}.}.}.}.}.}.}.}.}.}.",
"}.}.}.}.}.}.}.}.}.}.}.}.}.}.}.}.}.}.> > > , 3 H H H P G K H H H K H K H H H H H H H H H H H H H H K K ~ [ [ [ { [ { }.}.}.}.}.}.}.}.}.}.}.}.}.}.}.}.}.}.}.}.}.}.",
"}.}.}.}.}.}.}.}.}.}.}.}.}.}.}.}.}.> > > > < < G H H K H H H K H H H H H H H K H H H H H H H H H K K K [ [ [ [ [ [ { }.}.}.}.}.}.}.}.}.}.}.}.}.}.}.}.}.}.}.}.}.}.",
"}.}.}.}.}.}.}.}.}.}.}.}.}.}.}.}.}.> > > > > 3 P H H H K H H H H H H H K H H H H K H H H H H H K H K L [ [ [ { [ [ [ }.}.}.}.}.}.}.}.}.}.}.}.}.}.}.}.}.}.}.}.}.}.",
"}.}.}.}.}.}.}.}.}.}.}.}.}.}.}.}.}.> > > ; < 3 G H H H H H K H H H K H H K H H H H H K H H H H H H K [ [ [ [ [ [ [ { }.}.}.}.}.}.}.}.}.}.}.}.}.}.}.}.}.}.}.}.}.}.",
"}.}.}.}.}.}.}.}.}.}.}.}.}.}.}.}.> > > > > < < H H H H H H H H H H H H H H H H H K H H H H H H H K ~ [ [ [ [ [ [ [ [ }.}.}.}.}.}.}.}.}.}.}.}.}.}.}.}.}.}.}.}.}.}.",
"}.}.}.}.}.}.}.}.}.}.}.}.}.}.}.> > < > > > > 3 H K H H H H H H K H H H H H H H H H H H H K H H H H ~ [ [ { { { [ { [ }.}.}.}.}.}.}.}.}.}.}.}.}.}.}.}.}.}.}.}.}.}.",
"}.}.}.}.}.}.}.}.}.}.}.}.}.}.}.> > > > > > < < H K H H H H H H H H H H H K H H H K H H H H H H H H H [ { [ [ { { [ [ }.}.}.}.}.}.}.}.}.}.}.}.}.}.}.}.}.}.}.}.}.}.",
"}.}.}.}.}.}.}.}.}.}.}.}.}.}.}.> > > > > > > 3 G D R H K K H H H K H H K H H K H H H K H H K H H H L Q [ { [ { [ { }.}.}.}.}.}.}.}.}.}.}.}.}.}.}.}.}.}.}.}.}.}.}.",
"}.}.}.}.}.}.}.}.}.}.}.}.}.}.}.> > > > > 1 < G P K K H H H H H H H H H H K H H H H H H H H H K K K L [ [ { { [ [ [ }.}.}.}.}.}.}.}.}.}.}.}.}.}.}.}.}.}.}.}.}.}.}.",
"}.}.}.}.}.}.}.}.}.}.}.}.}.}.}.> > > > > ; < < D K H H K H H H H H H H H H H H H H K H H H H K L [ [ [ [ { [ [ [ }.}.}.}.}.}.}.}.}.}.}.}.}.}.}.}.}.}.}.}.}.}.}.}.",
"}.}.}.}.}.}.}.}.}.}.}.}.}.}.}.> > > > > > < 3 H H H H H H H H K K H H K H H H K H H H H H H K L [ [ [ [ [ [ { }.}.}.}.}.}.}.}.}.}.}.}.}.}.}.}.}.}.}.}.}.}.}.}.}.",
"}.}.}.}.}.}.}.}.}.}.}.}.}.}.}.> > > > > > < D R D K H H H K H H H H H H H K H H H H H H H H H L [ [ [ [ { [ [ }.}.}.}.}.}.}.}.}.}.}.}.}.}.}.}.}.}.}.}.}.}.}.}.}.",
"}.}.}.}.}.}.}.}.}.}.}.}.}.}.}.> > > > > > < < H R H K H H H H H H H H H H H H H H K H H H H H L [ [ [ [ [ [ { }.}.}.}.}.}.}.}.}.}.}.}.}.}.}.}.}.}.}.}.}.}.}.}.}.",
"}.}.}.}.}.}.}.}.}.}.}.}.}.}.}.}.> > > , > 4 3 G H H H H H K Q | Q R P H H H K H H H H K P K L L [ [ { [ [ [ }.}.}.}.}.}.}.}.}.}.}.}.}.}.}.}.}.}.}.}.}.}.}.}.}.}.",
"}.}.}.}.}.}.}.}.}.}.}.}.}.}.}.}.}.> > > > > > , 4 H H H H Q  .=.' / w }.}.H H H H H H H K L [ [ [ [ [ [ { }.}.}.}.}.}.}.}.}.}.}.}.}.}.}.}.}.}.}.}.}.}.}.}.}.}.}.",
"}.}.}.}.}.}.}.}.}.}.}.}.}.}.}.}.}.> > > > > > , , G H P K ( *.*.' w w }.}.K H H H H H H K [ { { [ [ [ [ [ }.}.}.}.}.}.}.}.}.}.}.}.}.}.}.}.}.}.}.}.}.}.}.}.}.}.}.",
"}.}.}.}.}.}.}.}.}.}.}.}.}.}.}.}.}.> > > > > > > > , G E  . .&.&._ E R H H H H H H H H H L [ [ [ [ [ [ [ { }.}.}.}.}.}.}.}.}.}.}.}.}.}.}.}.}.}.}.}.}.}.}.}.}.}.}.",
"}.}.}.}.}.}.}.}.}.}.}.}.}.}.}.}.}.}.> > > > > > > > 3 ( *.&.' / w P H H H H H H H K H }.}.[ { { { [ [ { }.}.}.}.}.}.}.}.}.}.}.}.}.}.}.}.}.}.}.}.}.}.}.}.}.}.}.}.",
"}.}.}.}.}.}.}.}.}.}.}.}.}.}.}.}.}.}.> > > , > > > > 3 / &.&.` w R H H H H H K H H H }.}.}.{ [ { [ { { { }.}.}.}.}.}.}.}.}.}.}.}.}.}.}.}.}.}.}.}.}.}.}.}.}.}.}.}.",
"}.}.}.}.}.}.}.}.}.}.}.}.}.}.}.}.}.}.}.> > > > > > > < w ` ` }.}.H H H H H H }.}.}.}.}.}.}.[ { [ { { [ }.}.}.}.}.}.}.}.}.}.}.}.}.}.}.}.}.}.}.}.}.}.}.}.}.}.}.}.}.",
"}.}.}.}.}.}.}.}.}.}.}.}.}.}.}.}.}.}.}.}.> > > > > > 4 q w w }.}.}.H H H K }.}.}.}.}.}.}.}.[ [ [ { [ }.}.}.}.}.}.}.}.}.}.}.}.}.}.}.}.}.}.}.}.}.}.}.}.}.}.}.}.}.}.",
"}.}.}.}.}.}.}.}.}.}.}.}.}.}.}.}.}.}.}.}.> > > > > > > 4 w }.}.}.}.}.K H }.}.}.}.}.}.}.}.{ [ { [ [ }.}.}.}.}.}.}.}.}.}.}.}.}.}.}.}.}.}.}.}.}.}.}.}.}.}.}.}.}.}.}.",
"}.}.}.}.}.}.}.}.}.}.}.}.}.}.}.}.}.}.}.}.> > > > > > > , }.}.}.}.}.}.}.}.}.}.}.}.}.}.}.[ [ [ [ { }.}.}.}.}.}.}.}.}.}.}.}.}.}.}.}.}.}.}.}.}.}.}.}.}.}.}.}.}.}.}.}.",
"}.}.}.}.}.}.}.}.}.}.}.}.}.}.}.}.}.}.}.}.> > > > > > > > }.}.}.}.}.}.}.}.}.}.}.}.}.}.}.[ [ { { }.}.}.}.}.}.}.}.}.}.}.}.}.}.}.}.}.}.}.}.}.}.}.}.}.}.}.}.}.}.}.}.}.",
"}.}.}.}.}.}.}.}.}.}.}.}.}.}.}.}.}.}.}.}.}.}.}.}.> > > > > }.}.}.}.}.}.}.}.}.}.}.}.}.}.}.}.}.}.}.}.}.}.}.}.}.}.}.}.}.}.}.}.}.}.}.}.}.}.}.}.}.}.}.}.}.}.}.}.}.}.}.",
"}.}.}.}.}.}.}.}.}.}.}.}.}.}.}.}.}.}.}.}.}.}.}.}.}.> > , > > }.}.}.}.}.}.}.}.}.}.}.}.}.}.}.}.}.}.}.}.}.}.}.}.}.}.}.}.}.}.}.}.}.}.}.}.}.}.}.}.}.}.}.}.}.}.}.}.}.}.",
"}.}.}.}.}.}.}.}.}.}.}.}.}.}.}.}.}.}.}.}.}.}.}.}.}.}.> > > > }.}.}.}.}.}.}.}.}.}.}.}.}.}.}.}.}.}.}.}.}.}.}.}.}.}.}.}.}.}.}.}.}.}.}.}.}.}.}.}.}.}.}.}.}.}.}.}.}.}.",
"}.}.}.}.}.}.}.}.}.}.}.}.}.}.}.}.}.}.}.}.}.}.}.}.}.}.}.> > > }.}.}.}.}.}.}.}.}.}.}.}.}.}.}.}.}.}.}.}.}.}.}.}.}.}.}.}.}.}.}.}.}.}.}.}.}.}.}.}.}.}.}.}.}.}.}.}.}.}.",
"}.}.}.}.}.}.}.}.}.}.}.}.}.}.}.}.}.}.}.}.}.}.}.}.}.}.}.> > > }.}.}.}.}.}.}.}.}.}.}.}.}.}.}.}.}.}.}.}.}.}.}.}.}.}.}.}.}.}.}.}.}.}.}.}.}.}.}.}.}.}.}.}.}.}.}.}.}.}."
};
